<?xml version="1.0" encoding="UTF-8" standalone="no"?>
<!DOCTYPE svg PUBLIC "-//W3C//DTD SVG 1.1//EN"
 "http://www.w3.org/Graphics/SVG/1.1/DTD/svg11.dtd">
<!-- Generated by graphviz version 8.0.3 (0)
 -->
<!-- Pages: 1 -->
<svg width="1398pt" height="238pt"
 viewBox="0.00 0.00 1398.00 237.74" xmlns="http://www.w3.org/2000/svg" xmlns:xlink="http://www.w3.org/1999/xlink">
<g id="graph0" class="graph" transform="scale(1 1) rotate(0) translate(36 201.74)">
<polygon fill="dimgray" stroke="none" points="-36,36 -36,-201.74 1362,-201.74 1362,36 -36,36"/>
<text text-anchor="middle" x="663" y="-150.54" font-family="Helvetica,sans-Serif" font-size="14.00">Sweep&#39;s Plan &amp; Progress</text>
<!-- start -->
<g id="node1" class="node">
<title>start</title>
</g>
<!-- e0830dfd&#45;162b&#45;4228&#45;947d&#45;27283e9ccfd7 -->
<g id="node3" class="node">
<title>e0830dfd&#45;162b&#45;4228&#45;947d&#45;27283e9ccfd7</title>
<ellipse fill="#0ee832" stroke="black" cx="224" cy="-99.87" rx="164.51" ry="26.74"/>
<text text-anchor="middle" x="224" y="-103.67" font-family="Helvetica,sans-Serif" font-size="14.00">✓ Modify</text>
<text text-anchor="middle" x="224" y="-88.67" font-family="Helvetica,sans-Serif" font-size="14.00">sweepai/handlers/on_merge.py</text>
</g>
<!-- start&#45;&gt;e0830dfd&#45;162b&#45;4228&#45;947d&#45;27283e9ccfd7 -->
<g id="edge8" class="edge">
<title>start&#45;&gt;e0830dfd&#45;162b&#45;4228&#45;947d&#45;27283e9ccfd7</title>
<path fill="none" stroke="black" d="M7.16,-99.87C8.91,-99.87 25.16,-99.87 48.04,-99.87"/>
<polygon fill="black" stroke="black" points="48,-103.37 58,-99.87 48,-96.37 48,-103.37"/>
<text text-anchor="middle" x="33.37" y="-106.67" font-family="Helvetica,sans-Serif" font-size="14.00">Start</text>
</g>
<!-- end -->
<g id="node2" class="node">
<title>end</title>
</g>
<!-- c423e64d&#45;cde2&#45;4ee5&#45;9379&#45;a1efaca3bc3a -->
<g id="node4" class="node">
<title>c423e64d&#45;cde2&#45;4ee5&#45;9379&#45;a1efaca3bc3a</title>
<ellipse fill="#0ee832" stroke="black" cx="541" cy="-99.87" rx="84.71" ry="26.74"/>
<text text-anchor="middle" x="541" y="-103.67" font-family="Helvetica,sans-Serif" font-size="14.00">✓ Modify</text>
<text text-anchor="middle" x="541" y="-88.67" font-family="Helvetica,sans-Serif" font-size="14.00">sweepai/api.py</text>
</g>
<!-- e0830dfd&#45;162b&#45;4228&#45;947d&#45;27283e9ccfd7&#45;&gt;c423e64d&#45;cde2&#45;4ee5&#45;9379&#45;a1efaca3bc3a -->
<g id="edge2" class="edge">
<title>e0830dfd&#45;162b&#45;4228&#45;947d&#45;27283e9ccfd7&#45;&gt;c423e64d&#45;cde2&#45;4ee5&#45;9379&#45;a1efaca3bc3a</title>
<path fill="none" stroke="black" d="M389,-99.87C407.61,-99.87 426.23,-99.87 444.84,-99.87"/>
<polygon fill="black" stroke="black" points="444.8,-103.37 454.8,-99.87 444.8,-96.37 444.8,-103.37"/>
</g>
<!-- d23ca2b9&#45;c9bd&#45;43ce&#45;bc0f&#45;44d37fb434e7 -->
<g id="node7" class="node">
<title>d23ca2b9&#45;c9bd&#45;43ce&#45;bc0f&#45;44d37fb434e7</title>
<polygon fill="#0ee832" stroke="black" points="386,-36 0,-36 0,0 386,0 386,-36"/>
<text text-anchor="middle" x="193" y="-14.3" font-family="Helvetica,sans-Serif" font-size="14.00">✓ Ran sandbox for `sweepai/handlers/on_merge.py`.</text>
</g>
<!-- e0830dfd&#45;162b&#45;4228&#45;947d&#45;27283e9ccfd7&#45;&gt;d23ca2b9&#45;c9bd&#45;43ce&#45;bc0f&#45;44d37fb434e7 -->
<g id="edge1" class="edge">
<title>e0830dfd&#45;162b&#45;4228&#45;947d&#45;27283e9ccfd7&#45;&gt;d23ca2b9&#45;c9bd&#45;43ce&#45;bc0f&#45;44d37fb434e7</title>
<path fill="none" stroke="black" stroke-dasharray="5,2" d="M213.85,-72.72C210.57,-64.27 206.93,-54.89 203.62,-46.36"/>
<polygon fill="black" stroke="black" points="206.54,-45.2 199.66,-37.15 200.01,-47.74 206.54,-45.2"/>
</g>
<!-- 43212b2c&#45;fb2b&#45;4f46&#45;b0fc&#45;03ec51d56de5 -->
<g id="node5" class="node">
<title>43212b2c&#45;fb2b&#45;4f46&#45;b0fc&#45;03ec51d56de5</title>
<ellipse fill="#0ee832" stroke="black" cx="834" cy="-99.87" rx="84.71" ry="26.74"/>
<text text-anchor="middle" x="834" y="-103.67" font-family="Helvetica,sans-Serif" font-size="14.00">✓ Modify</text>
<text text-anchor="middle" x="834" y="-88.67" font-family="Helvetica,sans-Serif" font-size="14.00">sweepai/api.py</text>
</g>
<!-- c423e64d&#45;cde2&#45;4ee5&#45;9379&#45;a1efaca3bc3a&#45;&gt;43212b2c&#45;fb2b&#45;4f46&#45;b0fc&#45;03ec51d56de5 -->
<g id="edge4" class="edge">
<title>c423e64d&#45;cde2&#45;4ee5&#45;9379&#45;a1efaca3bc3a&#45;&gt;43212b2c&#45;fb2b&#45;4f46&#45;b0fc&#45;03ec51d56de5</title>
<path fill="none" stroke="black" d="M625.98,-99.87C663.49,-99.87 701,-99.87 738.51,-99.87"/>
<polygon fill="black" stroke="black" points="738.09,-103.37 748.09,-99.87 738.09,-96.37 738.09,-103.37"/>
</g>
<!-- fa4a221c&#45;181e&#45;4e0b&#45;81d4&#45;31f211f18f9f -->
<g id="node8" class="node">
<title>fa4a221c&#45;181e&#45;4e0b&#45;81d4&#45;31f211f18f9f</title>
<polygon fill="#0ee832" stroke="black" points="678,-36 404,-36 404,0 678,0 678,-36"/>
<text text-anchor="middle" x="541" y="-14.3" font-family="Helvetica,sans-Serif" font-size="14.00">✓ Ran sandbox for `sweepai/api.py`.</text>
</g>
<!-- c423e64d&#45;cde2&#45;4ee5&#45;9379&#45;a1efaca3bc3a&#45;&gt;fa4a221c&#45;181e&#45;4e0b&#45;81d4&#45;31f211f18f9f -->
<g id="edge3" class="edge">
<title>c423e64d&#45;cde2&#45;4ee5&#45;9379&#45;a1efaca3bc3a&#45;&gt;fa4a221c&#45;181e&#45;4e0b&#45;81d4&#45;31f211f18f9f</title>
<path fill="none" stroke="black" stroke-dasharray="5,2" d="M541,-72.72C541,-64.46 541,-55.31 541,-46.93"/>
<polygon fill="black" stroke="black" points="544.5,-47.15 541,-37.15 537.5,-47.15 544.5,-47.15"/>
</g>
<!-- 99efe44a&#45;f5f0&#45;4b9d&#45;82b5&#45;75829189e353 -->
<g id="node6" class="node">
<title>99efe44a&#45;f5f0&#45;4b9d&#45;82b5&#45;75829189e353</title>
<ellipse fill="white" stroke="black" cx="1121" cy="-99.87" rx="130.22" ry="26.74"/>
<text text-anchor="middle" x="1121" y="-103.67" font-family="Helvetica,sans-Serif" font-size="14.00">▶ Modify</text>
<text text-anchor="middle" x="1121" y="-88.67" font-family="Helvetica,sans-Serif" font-size="14.00">sweepai/config/client.py</text>
</g>
<!-- 43212b2c&#45;fb2b&#45;4f46&#45;b0fc&#45;03ec51d56de5&#45;&gt;99efe44a&#45;f5f0&#45;4b9d&#45;82b5&#45;75829189e353 -->
<g id="edge6" class="edge">
<title>43212b2c&#45;fb2b&#45;4f46&#45;b0fc&#45;03ec51d56de5&#45;&gt;99efe44a&#45;f5f0&#45;4b9d&#45;82b5&#45;75829189e353</title>
<path fill="none" stroke="black" d="M919.2,-99.87C939.36,-99.87 959.52,-99.87 979.67,-99.87"/>
<polygon fill="black" stroke="black" points="979.54,-103.37 989.54,-99.87 979.54,-96.37 979.54,-103.37"/>
</g>
<!-- 483e0cc1&#45;c9a0&#45;4bad&#45;8439&#45;e693953d7122 -->
<g id="node9" class="node">
<title>483e0cc1&#45;c9a0&#45;4bad&#45;8439&#45;e693953d7122</title>
<polygon fill="yellow" stroke="black" points="972,-36 696,-36 696,0 972,0 972,-36"/>
<text text-anchor="middle" x="834" y="-14.3" font-family="Helvetica,sans-Serif" font-size="14.00">⋯ Ran sandbox for `sweepai/api.py`.</text>
</g>
<!-- 43212b2c&#45;fb2b&#45;4f46&#45;b0fc&#45;03ec51d56de5&#45;&gt;483e0cc1&#45;c9a0&#45;4bad&#45;8439&#45;e693953d7122 -->
<g id="edge5" class="edge">
<title>43212b2c&#45;fb2b&#45;4f46&#45;b0fc&#45;03ec51d56de5&#45;&gt;483e0cc1&#45;c9a0&#45;4bad&#45;8439&#45;e693953d7122</title>
<path fill="none" stroke="black" stroke-dasharray="5,2" d="M834,-72.72C834,-64.46 834,-55.31 834,-46.93"/>
<polygon fill="black" stroke="black" points="837.5,-47.15 834,-37.15 830.5,-47.15 837.5,-47.15"/>
</g>
<!-- 99efe44a&#45;f5f0&#45;4b9d&#45;82b5&#45;75829189e353&#45;&gt;end -->
<g id="edge9" class="edge">
<title>99efe44a&#45;f5f0&#45;4b9d&#45;82b5&#45;75829189e353&#45;&gt;end</title>
<path fill="none" stroke="black" d="M1251.57,-99.87C1270.84,-99.87 1287.68,-99.87 1298.05,-99.87"/>
<polygon fill="black" stroke="black" points="1297.71,-103.37 1307.71,-99.87 1297.71,-96.37 1297.71,-103.37"/>
<text text-anchor="middle" x="1279.8" y="-106.67" font-family="Helvetica,sans-Serif" font-size="14.00">Finish</text>
</g>
<!-- 8ca3f64a&#45;8b5b&#45;49ab&#45;b83c&#45;bb663aa888b9 -->
<g id="node10" class="node">
<title>8ca3f64a&#45;8b5b&#45;49ab&#45;b83c&#45;bb663aa888b9</title>
<polygon fill="white" stroke="black" points="1326,-36 990,-36 990,0 1326,0 1326,-36"/>
<text text-anchor="middle" x="1158" y="-14.3" font-family="Helvetica,sans-Serif" font-size="14.00">▶ Ran sandbox for `sweepai/config/client.py`.</text>
</g>
<!-- 99efe44a&#45;f5f0&#45;4b9d&#45;82b5&#45;75829189e353&#45;&gt;8ca3f64a&#45;8b5b&#45;49ab&#45;b83c&#45;bb663aa888b9 -->
<g id="edge7" class="edge">
<title>99efe44a&#45;f5f0&#45;4b9d&#45;82b5&#45;75829189e353&#45;&gt;8ca3f64a&#45;8b5b&#45;49ab&#45;b83c&#45;bb663aa888b9</title>
<path fill="none" stroke="black" stroke-dasharray="5,2" d="M1132.91,-73.16C1136.92,-64.51 1141.4,-54.83 1145.46,-46.07"/>
<polygon fill="black" stroke="black" points="1148.94,-47.88 1149.97,-37.34 1142.59,-44.94 1148.94,-47.88"/>
</g>
</g>
</svg>
