<?xml version="1.0" encoding="UTF-8" standalone="no"?>
<!DOCTYPE svg PUBLIC "-//W3C//DTD SVG 1.1//EN"
 "http://www.w3.org/Graphics/SVG/1.1/DTD/svg11.dtd">
<!-- Generated by graphviz version 8.0.3 (0)
 -->
<!-- Pages: 1 -->
<svg width="913pt" height="238pt"
 viewBox="0.00 0.00 913.00 237.74" xmlns="http://www.w3.org/2000/svg" xmlns:xlink="http://www.w3.org/1999/xlink">
<g id="graph0" class="graph" transform="scale(1 1) rotate(0) translate(36 201.74)">
<polygon fill="dimgray" stroke="none" points="-36,36 -36,-201.74 877,-201.74 877,36 -36,36"/>
<text text-anchor="middle" x="420.5" y="-150.54" font-family="Helvetica,sans-Serif" font-size="14.00">Sweep&#39;s Plan &amp; Progress</text>
<!-- start -->
<g id="node1" class="node">
<title>start</title>
</g>
<!-- bcd86e25&#45;43d5&#45;4d92&#45;96be&#45;c693fd2a9a6a -->
<g id="node3" class="node">
<title>bcd86e25&#45;43d5&#45;4d92&#45;96be&#45;c693fd2a9a6a</title>
<ellipse fill="yellow" stroke="black" cx="235.5" cy="-99.87" rx="183.28" ry="26.74"/>
<text text-anchor="middle" x="235.5" y="-103.67" font-family="Helvetica,sans-Serif" font-size="14.00">⋯ Modify</text>
<text text-anchor="middle" x="235.5" y="-88.67" font-family="Helvetica,sans-Serif" font-size="14.00">sweepai/handlers/on_ticket_test.py</text>
</g>
<!-- start&#45;&gt;bcd86e25&#45;43d5&#45;4d92&#45;96be&#45;c693fd2a9a6a -->
<g id="edge4" class="edge">
<title>start&#45;&gt;bcd86e25&#45;43d5&#45;4d92&#45;96be&#45;c693fd2a9a6a</title>
<path fill="none" stroke="black" d="M0.88,-99.87C3.47,-99.87 19,-99.87 40.94,-99.87"/>
<polygon fill="black" stroke="black" points="40.83,-103.37 50.83,-99.87 40.83,-96.37 40.83,-103.37"/>
<text text-anchor="middle" x="26.68" y="-106.67" font-family="Helvetica,sans-Serif" font-size="14.00">Start</text>
</g>
<!-- end -->
<g id="node2" class="node">
<title>end</title>
</g>
<!-- 2729a660&#45;e83a&#45;46a1&#45;8364&#45;70c075b3069d -->
<g id="node4" class="node">
<title>2729a660&#45;e83a&#45;46a1&#45;8364&#45;70c075b3069d</title>
<ellipse fill="white" stroke="black" cx="622.5" cy="-99.87" rx="159.61" ry="26.74"/>
<text text-anchor="middle" x="622.5" y="-103.67" font-family="Helvetica,sans-Serif" font-size="14.00">▶ Modify</text>
<text text-anchor="middle" x="622.5" y="-88.67" font-family="Helvetica,sans-Serif" font-size="14.00">sweepai/handlers/on_ticket.py</text>
</g>
<!-- bcd86e25&#45;43d5&#45;4d92&#45;96be&#45;c693fd2a9a6a&#45;&gt;2729a660&#45;e83a&#45;46a1&#45;8364&#45;70c075b3069d -->
<g id="edge2" class="edge">
<title>bcd86e25&#45;43d5&#45;4d92&#45;96be&#45;c693fd2a9a6a&#45;&gt;2729a660&#45;e83a&#45;46a1&#45;8364&#45;70c075b3069d</title>
<path fill="none" stroke="black" d="M419.17,-99.87C430,-99.87 440.82,-99.87 451.64,-99.87"/>
<polygon fill="black" stroke="black" points="451.46,-103.37 461.46,-99.87 451.46,-96.37 451.46,-103.37"/>
</g>
<!-- 710def15&#45;618d&#45;4ea2&#45;8a78&#45;2243867629cb -->
<g id="node5" class="node">
<title>710def15&#45;618d&#45;4ea2&#45;8a78&#45;2243867629cb</title>
<polygon fill="white" stroke="black" points="424,-36 13,-36 13,0 424,0 424,-36"/>
<text text-anchor="middle" x="218.5" y="-14.3" font-family="Helvetica,sans-Serif" font-size="14.00">▶ Ran sandbox for `sweepai/handlers/on_ticket_test.py`.</text>
</g>
<!-- bcd86e25&#45;43d5&#45;4d92&#45;96be&#45;c693fd2a9a6a&#45;&gt;710def15&#45;618d&#45;4ea2&#45;8a78&#45;2243867629cb -->
<g id="edge1" class="edge">
<title>bcd86e25&#45;43d5&#45;4d92&#45;96be&#45;c693fd2a9a6a&#45;&gt;710def15&#45;618d&#45;4ea2&#45;8a78&#45;2243867629cb</title>
<path fill="none" stroke="black" stroke-dasharray="5,2" d="M229.93,-72.72C228.16,-64.37 226.18,-55.1 224.38,-46.65"/>
<polygon fill="black" stroke="black" points="227.65,-46.2 222.15,-37.15 220.81,-47.66 227.65,-46.2"/>
</g>
<!-- 2729a660&#45;e83a&#45;46a1&#45;8364&#45;70c075b3069d&#45;&gt;end -->
<g id="edge5" class="edge">
<title>2729a660&#45;e83a&#45;46a1&#45;8364&#45;70c075b3069d&#45;&gt;end</title>
<path fill="none" stroke="black" d="M782.37,-99.87C802,-99.87 818.8,-99.87 829.22,-99.87"/>
<polygon fill="black" stroke="black" points="829.21,-103.37 839.21,-99.87 829.21,-96.37 829.21,-103.37"/>
<text text-anchor="middle" x="811.15" y="-106.67" font-family="Helvetica,sans-Serif" font-size="14.00">Finish</text>
</g>
<!-- 5d13d4c3&#45;a243&#45;419d&#45;a4a4&#45;a4347786c3df -->
<g id="node6" class="node">
<title>5d13d4c3&#45;a243&#45;419d&#45;a4a4&#45;a4347786c3df</title>
<polygon fill="white" stroke="black" points="820.5,-36 442.5,-36 442.5,0 820.5,0 820.5,-36"/>
<text text-anchor="middle" x="631.5" y="-14.3" font-family="Helvetica,sans-Serif" font-size="14.00">▶ Ran sandbox for `sweepai/handlers/on_ticket.py`.</text>
</g>
<!-- 2729a660&#45;e83a&#45;46a1&#45;8364&#45;70c075b3069d&#45;&gt;5d13d4c3&#45;a243&#45;419d&#45;a4a4&#45;a4347786c3df -->
<g id="edge3" class="edge">
<title>2729a660&#45;e83a&#45;46a1&#45;8364&#45;70c075b3069d&#45;&gt;5d13d4c3&#45;a243&#45;419d&#45;a4a4&#45;a4347786c3df</title>
<path fill="none" stroke="black" stroke-dasharray="5,2" d="M625.45,-72.72C626.38,-64.46 627.41,-55.31 628.35,-46.93"/>
<polygon fill="black" stroke="black" points="631.93,-47.48 629.57,-37.15 624.97,-46.69 631.93,-47.48"/>
</g>
</g>
</svg>
