<?xml version="1.0" encoding="UTF-8" standalone="no"?>
<!DOCTYPE svg PUBLIC "-//W3C//DTD SVG 1.1//EN"
 "http://www.w3.org/Graphics/SVG/1.1/DTD/svg11.dtd">
<!-- Generated by graphviz version 2.43.0 (0)
 -->
<!-- Title: %3 Pages: 1 -->
<svg width="1836pt" height="238pt"
 viewBox="0.00 0.00 1836.00 237.74" xmlns="http://www.w3.org/2000/svg" xmlns:xlink="http://www.w3.org/1999/xlink">
<g id="graph0" class="graph" transform="scale(1 1) rotate(0) translate(36 201.74)">
<title>%3</title>
<polygon fill="dimgray" stroke="transparent" points="-36,36 -36,-201.74 1800,-201.74 1800,36 -36,36"/>
<text text-anchor="middle" x="882" y="-150.54" font-family="Helvetica,sans-Serif" font-size="14.00">Sweep&#39;s Plan &amp; Progress</text>
<!-- start -->
<g id="node1" class="node">
<title>start</title>
</g>
<!-- beae3132&#45;5be8&#45;49cf&#45;869e&#45;396eb9398709 -->
<g id="node3" class="node">
<title>beae3132&#45;5be8&#45;49cf&#45;869e&#45;396eb9398709</title>
<ellipse fill="#0ee832" stroke="black" cx="253" cy="-99.87" rx="162.77" ry="26.74"/>
<text text-anchor="middle" x="253" y="-103.67" font-family="Helvetica,sans-Serif" font-size="14.00">✓ Create</text>
<text text-anchor="middle" x="253" y="-88.67" font-family="Helvetica,sans-Serif" font-size="14.00">sweepai/agents/filter_agent.py</text>
</g>
<!-- start&#45;&gt;beae3132&#45;5be8&#45;49cf&#45;869e&#45;396eb9398709 -->
<g id="edge8" class="edge">
<title>start&#45;&gt;beae3132&#45;5be8&#45;49cf&#45;869e&#45;396eb9398709</title>
<path fill="none" stroke="black" d="M38.62,-99.87C41.9,-99.87 58,-99.87 80.02,-99.87"/>
<polygon fill="black" stroke="black" points="80.17,-103.37 90.17,-99.87 80.17,-96.37 80.17,-103.37"/>
<text text-anchor="middle" x="64.43" y="-106.67" font-family="Helvetica,sans-Serif" font-size="14.00">Start</text>
</g>
<!-- end -->
<g id="node2" class="node">
<title>end</title>
</g>
<!-- c0ed44a3&#45;71f9&#45;4ce1&#45;8e1c&#45;21c86c193127 -->
<g id="node4" class="node">
<title>c0ed44a3&#45;71f9&#45;4ce1&#45;8e1c&#45;21c86c193127</title>
<ellipse fill="white" stroke="black" cx="639" cy="-99.87" rx="145.83" ry="26.74"/>
<text text-anchor="middle" x="639" y="-103.67" font-family="Helvetica,sans-Serif" font-size="14.00">▶ Modify</text>
<text text-anchor="middle" x="639" y="-88.67" font-family="Helvetica,sans-Serif" font-size="14.00">sweepai/utils/ticket_utils.py</text>
</g>
<!-- beae3132&#45;5be8&#45;49cf&#45;869e&#45;396eb9398709&#45;&gt;c0ed44a3&#45;71f9&#45;4ce1&#45;8e1c&#45;21c86c193127 -->
<g id="edge2" class="edge">
<title>beae3132&#45;5be8&#45;49cf&#45;869e&#45;396eb9398709&#45;&gt;c0ed44a3&#45;71f9&#45;4ce1&#45;8e1c&#45;21c86c193127</title>
<path fill="none" stroke="black" d="M415.84,-99.87C438.14,-99.87 460.44,-99.87 482.74,-99.87"/>
<polygon fill="black" stroke="black" points="482.99,-103.37 492.99,-99.87 482.99,-96.37 482.99,-103.37"/>
</g>
<!-- a598cae6&#45;7bda&#45;4021&#45;9d60&#45;d14e57412094 -->
<g id="node7" class="node">
<title>a598cae6&#45;7bda&#45;4021&#45;9d60&#45;d14e57412094</title>
<polygon fill="#0ee832" stroke="black" points="422,-36 0,-36 0,0 422,0 422,-36"/>
<text text-anchor="middle" x="211" y="-14.3" font-family="Helvetica,sans-Serif" font-size="14.00">✓ Run GitHub Actions for `sweepai/agents/filter_agent.py`</text>
</g>
<!-- beae3132&#45;5be8&#45;49cf&#45;869e&#45;396eb9398709&#45;&gt;a598cae6&#45;7bda&#45;4021&#45;9d60&#45;d14e57412094 -->
<g id="edge1" class="edge">
<title>beae3132&#45;5be8&#45;49cf&#45;869e&#45;396eb9398709&#45;&gt;a598cae6&#45;7bda&#45;4021&#45;9d60&#45;d14e57412094</title>
<path fill="none" stroke="black" stroke-dasharray="5,2" d="M239.25,-72.72C234.61,-63.9 229.43,-54.05 224.79,-45.23"/>
<polygon fill="black" stroke="black" points="227.77,-43.37 220.02,-36.15 221.57,-46.63 227.77,-43.37"/>
</g>
<!-- c6e082ff&#45;e9e9&#45;40b1&#45;8ac8&#45;81d01238e07d -->
<g id="node5" class="node">
<title>c6e082ff&#45;e9e9&#45;40b1&#45;8ac8&#45;81d01238e07d</title>
<ellipse fill="white" stroke="black" cx="1102" cy="-99.87" rx="212.68" ry="26.74"/>
<text text-anchor="middle" x="1102" y="-103.67" font-family="Helvetica,sans-Serif" font-size="14.00">▶ Create</text>
<text text-anchor="middle" x="1102" y="-88.67" font-family="Helvetica,sans-Serif" font-size="14.00">sweepai/agents/tests/test_filter_agent.py</text>
</g>
<!-- c0ed44a3&#45;71f9&#45;4ce1&#45;8e1c&#45;21c86c193127&#45;&gt;c6e082ff&#45;e9e9&#45;40b1&#45;8ac8&#45;81d01238e07d -->
<g id="edge4" class="edge">
<title>c0ed44a3&#45;71f9&#45;4ce1&#45;8e1c&#45;21c86c193127&#45;&gt;c6e082ff&#45;e9e9&#45;40b1&#45;8ac8&#45;81d01238e07d</title>
<path fill="none" stroke="black" d="M785.04,-99.87C816.33,-99.87 847.61,-99.87 878.89,-99.87"/>
<polygon fill="black" stroke="black" points="879.05,-103.37 889.05,-99.87 879.05,-96.37 879.05,-103.37"/>
</g>
<!-- f0eb91a4&#45;1b84&#45;46a8&#45;97dd&#45;2860b94aaa2c -->
<g id="node8" class="node">
<title>f0eb91a4&#45;1b84&#45;46a8&#45;97dd&#45;2860b94aaa2c</title>
<polygon fill="white" stroke="black" points="838,-36 440,-36 440,0 838,0 838,-36"/>
<text text-anchor="middle" x="639" y="-14.3" font-family="Helvetica,sans-Serif" font-size="14.00">▶ Run GitHub Actions for `sweepai/utils/ticket_utils.py`</text>
</g>
<!-- c0ed44a3&#45;71f9&#45;4ce1&#45;8e1c&#45;21c86c193127&#45;&gt;f0eb91a4&#45;1b84&#45;46a8&#45;97dd&#45;2860b94aaa2c -->
<g id="edge3" class="edge">
<title>c0ed44a3&#45;71f9&#45;4ce1&#45;8e1c&#45;21c86c193127&#45;&gt;f0eb91a4&#45;1b84&#45;46a8&#45;97dd&#45;2860b94aaa2c</title>
<path fill="none" stroke="black" stroke-dasharray="5,2" d="M639,-72.72C639,-64.27 639,-54.89 639,-46.36"/>
<polygon fill="black" stroke="black" points="642.5,-46.15 639,-36.15 635.5,-46.15 642.5,-46.15"/>
</g>
<!-- a3f9a472&#45;5c54&#45;49c9&#45;bf91&#45;2af3164b96d8 -->
<g id="node6" class="node">
<title>a3f9a472&#45;5c54&#45;49c9&#45;bf91&#45;2af3164b96d8</title>
<ellipse fill="white" stroke="black" cx="1531" cy="-99.87" rx="145.83" ry="26.74"/>
<text text-anchor="middle" x="1531" y="-103.67" font-family="Helvetica,sans-Serif" font-size="14.00">▶ Modify</text>
<text text-anchor="middle" x="1531" y="-88.67" font-family="Helvetica,sans-Serif" font-size="14.00">sweepai/utils/ticket_utils.py</text>
</g>
<!-- c6e082ff&#45;e9e9&#45;40b1&#45;8ac8&#45;81d01238e07d&#45;&gt;a3f9a472&#45;5c54&#45;49c9&#45;bf91&#45;2af3164b96d8 -->
<g id="edge6" class="edge">
<title>c6e082ff&#45;e9e9&#45;40b1&#45;8ac8&#45;81d01238e07d&#45;&gt;a3f9a472&#45;5c54&#45;49c9&#45;bf91&#45;2af3164b96d8</title>
<path fill="none" stroke="black" d="M1315.24,-99.87C1335.19,-99.87 1355.14,-99.87 1375.09,-99.87"/>
<polygon fill="black" stroke="black" points="1375.2,-103.37 1385.2,-99.87 1375.2,-96.37 1375.2,-103.37"/>
</g>
<!-- 199f17a3&#45;8e64&#45;4628&#45;a699&#45;c6f6c694766b -->
<g id="node9" class="node">
<title>199f17a3&#45;8e64&#45;4628&#45;a699&#45;c6f6c694766b</title>
<polygon fill="white" stroke="black" points="1348,-36 856,-36 856,0 1348,0 1348,-36"/>
<text text-anchor="middle" x="1102" y="-14.3" font-family="Helvetica,sans-Serif" font-size="14.00">▶ Run GitHub Actions for `sweepai/agents/tests/test_filter_agent.py`</text>
</g>
<!-- c6e082ff&#45;e9e9&#45;40b1&#45;8ac8&#45;81d01238e07d&#45;&gt;199f17a3&#45;8e64&#45;4628&#45;a699&#45;c6f6c694766b -->
<g id="edge5" class="edge">
<title>c6e082ff&#45;e9e9&#45;40b1&#45;8ac8&#45;81d01238e07d&#45;&gt;199f17a3&#45;8e64&#45;4628&#45;a699&#45;c6f6c694766b</title>
<path fill="none" stroke="black" stroke-dasharray="5,2" d="M1102,-72.72C1102,-64.27 1102,-54.89 1102,-46.36"/>
<polygon fill="black" stroke="black" points="1105.5,-46.15 1102,-36.15 1098.5,-46.15 1105.5,-46.15"/>
</g>
<!-- a3f9a472&#45;5c54&#45;49c9&#45;bf91&#45;2af3164b96d8&#45;&gt;end -->
<g id="edge9" class="edge">
<title>a3f9a472&#45;5c54&#45;49c9&#45;bf91&#45;2af3164b96d8&#45;&gt;end</title>
<path fill="none" stroke="black" d="M1676.81,-99.87C1696.57,-99.87 1713.62,-99.87 1724.07,-99.87"/>
<polygon fill="black" stroke="black" points="1724.35,-103.37 1734.35,-99.87 1724.35,-96.37 1724.35,-103.37"/>
<text text-anchor="middle" x="1705.58" y="-106.67" font-family="Helvetica,sans-Serif" font-size="14.00">Finish</text>
</g>
<!-- 1c0915ce&#45;eb67&#45;4904&#45;beb0&#45;925500cc1b87 -->
<g id="node10" class="node">
<title>1c0915ce&#45;eb67&#45;4904&#45;beb0&#45;925500cc1b87</title>
<polygon fill="white" stroke="black" points="1764,-36 1366,-36 1366,0 1764,0 1764,-36"/>
<text text-anchor="middle" x="1565" y="-14.3" font-family="Helvetica,sans-Serif" font-size="14.00">▶ Run GitHub Actions for `sweepai/utils/ticket_utils.py`</text>
</g>
<!-- a3f9a472&#45;5c54&#45;49c9&#45;bf91&#45;2af3164b96d8&#45;&gt;1c0915ce&#45;eb67&#45;4904&#45;beb0&#45;925500cc1b87 -->
<g id="edge7" class="edge">
<title>a3f9a472&#45;5c54&#45;49c9&#45;bf91&#45;2af3164b96d8&#45;&gt;1c0915ce&#45;eb67&#45;4904&#45;beb0&#45;925500cc1b87</title>
<path fill="none" stroke="black" stroke-dasharray="5,2" d="M1542.13,-72.72C1545.85,-63.99 1549.99,-54.26 1553.71,-45.51"/>
<polygon fill="black" stroke="black" points="1557,-46.72 1557.7,-36.15 1550.56,-43.98 1557,-46.72"/>
</g>
</g>
</svg>
