<?xml version="1.0" encoding="UTF-8" standalone="no"?>
<!DOCTYPE svg PUBLIC "-//W3C//DTD SVG 1.1//EN"
 "http://www.w3.org/Graphics/SVG/1.1/DTD/svg11.dtd">
<!-- Generated by graphviz version 2.43.0 (0)
 -->
<!-- Title: %3 Pages: 1 -->
<svg width="975pt" height="238pt"
 viewBox="0.00 0.00 975.00 237.74" xmlns="http://www.w3.org/2000/svg" xmlns:xlink="http://www.w3.org/1999/xlink">
<g id="graph0" class="graph" transform="scale(1 1) rotate(0) translate(36 201.74)">
<title>%3</title>
<polygon fill="dimgray" stroke="transparent" points="-36,36 -36,-201.74 939,-201.74 939,36 -36,36"/>
<text text-anchor="middle" x="451.5" y="-150.54" font-family="Helvetica,sans-Serif" font-size="14.00">Sweep&#39;s Plan &amp; Progress</text>
<!-- start -->
<g id="node1" class="node">
<title>start</title>
</g>
<!-- 737cc1a9&#45;00eb&#45;4310&#45;a0a7&#45;7e430ee68d62 -->
<g id="node3" class="node">
<title>737cc1a9&#45;00eb&#45;4310&#45;a0a7&#45;7e430ee68d62</title>
<ellipse fill="#0ee832" stroke="black" cx="246.5" cy="-99.87" rx="159.61" ry="26.74"/>
<text text-anchor="middle" x="246.5" y="-103.67" font-family="Helvetica,sans-Serif" font-size="14.00">✓ Modify</text>
<text text-anchor="middle" x="246.5" y="-88.67" font-family="Helvetica,sans-Serif" font-size="14.00">sweepai/handlers/on_ticket.py</text>
</g>
<!-- start&#45;&gt;737cc1a9&#45;00eb&#45;4310&#45;a0a7&#45;7e430ee68d62 -->
<g id="edge4" class="edge">
<title>start&#45;&gt;737cc1a9&#45;00eb&#45;4310&#45;a0a7&#45;7e430ee68d62</title>
<path fill="none" stroke="black" d="M35.11,-99.87C38.37,-99.87 54.43,-99.87 76.36,-99.87"/>
<polygon fill="black" stroke="black" points="76.46,-103.37 86.46,-99.87 76.46,-96.37 76.46,-103.37"/>
<text text-anchor="middle" x="60.85" y="-106.67" font-family="Helvetica,sans-Serif" font-size="14.00">Start</text>
</g>
<!-- end -->
<g id="node2" class="node">
<title>end</title>
</g>
<!-- 3c40c639&#45;8bdc&#45;40fb&#45;8f56&#45;4961be7fd139 -->
<g id="node4" class="node">
<title>3c40c639&#45;8bdc&#45;40fb&#45;8f56&#45;4961be7fd139</title>
<ellipse fill="white" stroke="black" cx="652.5" cy="-99.87" rx="192.17" ry="26.74"/>
<text text-anchor="middle" x="652.5" y="-103.67" font-family="Helvetica,sans-Serif" font-size="14.00">▶ Modify</text>
<text text-anchor="middle" x="652.5" y="-88.67" font-family="Helvetica,sans-Serif" font-size="14.00">sweepai/handlers/on_button_click.py</text>
</g>
<!-- 737cc1a9&#45;00eb&#45;4310&#45;a0a7&#45;7e430ee68d62&#45;&gt;3c40c639&#45;8bdc&#45;40fb&#45;8f56&#45;4961be7fd139 -->
<g id="edge2" class="edge">
<title>737cc1a9&#45;00eb&#45;4310&#45;a0a7&#45;7e430ee68d62&#45;&gt;3c40c639&#45;8bdc&#45;40fb&#45;8f56&#45;4961be7fd139</title>
<path fill="none" stroke="black" d="M406.68,-99.87C420.97,-99.87 435.27,-99.87 449.56,-99.87"/>
<polygon fill="black" stroke="black" points="449.97,-103.37 459.97,-99.87 449.97,-96.37 449.97,-103.37"/>
</g>
<!-- 7818de70&#45;321c&#45;4ea4&#45;8e11&#45;f6494f7a1649 -->
<g id="node5" class="node">
<title>7818de70&#45;321c&#45;4ea4&#45;8e11&#45;f6494f7a1649</title>
<polygon fill="yellow" stroke="black" points="421,-36 0,-36 0,0 421,0 421,-36"/>
<text text-anchor="middle" x="210.5" y="-14.3" font-family="Helvetica,sans-Serif" font-size="14.00">⋯ Run GitHub Actions for `sweepai/handlers/on_ticket.py`</text>
</g>
<!-- 737cc1a9&#45;00eb&#45;4310&#45;a0a7&#45;7e430ee68d62&#45;&gt;7818de70&#45;321c&#45;4ea4&#45;8e11&#45;f6494f7a1649 -->
<g id="edge1" class="edge">
<title>737cc1a9&#45;00eb&#45;4310&#45;a0a7&#45;7e430ee68d62&#45;&gt;7818de70&#45;321c&#45;4ea4&#45;8e11&#45;f6494f7a1649</title>
<path fill="none" stroke="black" stroke-dasharray="5,2" d="M234.71,-72.72C230.78,-63.99 226.39,-54.26 222.45,-45.51"/>
<polygon fill="black" stroke="black" points="225.53,-43.82 218.23,-36.15 219.15,-46.7 225.53,-43.82"/>
</g>
<!-- 3c40c639&#45;8bdc&#45;40fb&#45;8f56&#45;4961be7fd139&#45;&gt;end -->
<g id="edge5" class="edge">
<title>3c40c639&#45;8bdc&#45;40fb&#45;8f56&#45;4961be7fd139&#45;&gt;end</title>
<path fill="none" stroke="black" d="M845.14,-99.87C864.92,-99.87 881.46,-99.87 891.62,-99.87"/>
<polygon fill="black" stroke="black" points="891.88,-103.37 901.88,-99.87 891.88,-96.37 891.88,-103.37"/>
<text text-anchor="middle" x="873.42" y="-106.67" font-family="Helvetica,sans-Serif" font-size="14.00">Finish</text>
</g>
<!-- 818dd526&#45;d0cd&#45;4abe&#45;9c6b&#45;19887ac99305 -->
<g id="node6" class="node">
<title>818dd526&#45;d0cd&#45;4abe&#45;9c6b&#45;19887ac99305</title>
<polygon fill="white" stroke="black" points="902,-36 439,-36 439,0 902,0 902,-36"/>
<text text-anchor="middle" x="670.5" y="-14.3" font-family="Helvetica,sans-Serif" font-size="14.00">▶ Run GitHub Actions for `sweepai/handlers/on_button_click.py`</text>
</g>
<!-- 3c40c639&#45;8bdc&#45;40fb&#45;8f56&#45;4961be7fd139&#45;&gt;818dd526&#45;d0cd&#45;4abe&#45;9c6b&#45;19887ac99305 -->
<g id="edge3" class="edge">
<title>3c40c639&#45;8bdc&#45;40fb&#45;8f56&#45;4961be7fd139&#45;&gt;818dd526&#45;d0cd&#45;4abe&#45;9c6b&#45;19887ac99305</title>
<path fill="none" stroke="black" stroke-dasharray="5,2" d="M658.39,-72.72C660.32,-64.18 662.46,-54.68 664.4,-46.08"/>
<polygon fill="black" stroke="black" points="667.85,-46.67 666.64,-36.15 661.02,-45.13 667.85,-46.67"/>
</g>
</g>
</svg>
