<?xml version="1.0" encoding="UTF-8" standalone="no"?>
<!DOCTYPE svg PUBLIC "-//W3C//DTD SVG 1.1//EN"
 "http://www.w3.org/Graphics/SVG/1.1/DTD/svg11.dtd">
<!-- Generated by graphviz version 2.43.0 (0)
 -->
<!-- Title: %3 Pages: 1 -->
<svg width="419pt" height="238pt"
 viewBox="0.00 0.00 419.00 237.74" xmlns="http://www.w3.org/2000/svg" xmlns:xlink="http://www.w3.org/1999/xlink">
<g id="graph0" class="graph" transform="scale(1 1) rotate(0) translate(36 201.74)">
<title>%3</title>
<polygon fill="dimgray" stroke="transparent" points="-36,36 -36,-201.74 383,-201.74 383,36 -36,36"/>
<text text-anchor="middle" x="173.5" y="-150.54" font-family="Helvetica,sans-Serif" font-size="14.00">Sweep&#39;s Plan &amp; Progress</text>
<!-- start -->
<g id="node1" class="node">
<title>start</title>
</g>
<!-- 6524808c&#45;42a7&#45;4a6b&#45;951d&#45;d3b7d0aa4397 -->
<g id="node3" class="node">
<title>6524808c&#45;42a7&#45;4a6b&#45;951d&#45;d3b7d0aa4397</title>
<ellipse fill="yellow" stroke="black" cx="173.5" cy="-99.87" rx="110.12" ry="26.74"/>
<text text-anchor="middle" x="173.5" y="-103.67" font-family="Helvetica,sans-Serif" font-size="14.00">⋯ Modify</text>
<text text-anchor="middle" x="173.5" y="-88.67" font-family="Helvetica,sans-Serif" font-size="14.00">docs/installation.md</text>
</g>
<!-- start&#45;&gt;6524808c&#45;42a7&#45;4a6b&#45;951d&#45;d3b7d0aa4397 -->
<g id="edge2" class="edge">
<title>start&#45;&gt;6524808c&#45;42a7&#45;4a6b&#45;951d&#45;d3b7d0aa4397</title>
<path fill="none" stroke="black" d="M12.22,-99.87C15.77,-99.87 32.02,-99.87 52.93,-99.87"/>
<polygon fill="black" stroke="black" points="53.19,-103.37 63.19,-99.87 53.19,-96.37 53.19,-103.37"/>
<text text-anchor="middle" x="37.6" y="-106.67" font-family="Helvetica,sans-Serif" font-size="14.00">Start</text>
</g>
<!-- end -->
<g id="node2" class="node">
<title>end</title>
</g>
<!-- 6524808c&#45;42a7&#45;4a6b&#45;951d&#45;d3b7d0aa4397&#45;&gt;end -->
<g id="edge3" class="edge">
<title>6524808c&#45;42a7&#45;4a6b&#45;951d&#45;d3b7d0aa4397&#45;&gt;end</title>
<path fill="none" stroke="black" d="M284.15,-99.87C303.08,-99.87 320,-99.87 330.47,-99.87"/>
<polygon fill="black" stroke="black" points="330.83,-103.37 340.83,-99.87 330.83,-96.37 330.83,-103.37"/>
<text text-anchor="middle" x="312.4" y="-106.67" font-family="Helvetica,sans-Serif" font-size="14.00">Finish</text>
</g>
<!-- e604fb9a&#45;a624&#45;4b17&#45;bcf6&#45;7c87d8df8787 -->
<g id="node4" class="node">
<title>e604fb9a&#45;a624&#45;4b17&#45;bcf6&#45;7c87d8df8787</title>
<polygon fill="white" stroke="black" points="347,-36 0,-36 0,0 347,0 347,-36"/>
<text text-anchor="middle" x="173.5" y="-14.3" font-family="Helvetica,sans-Serif" font-size="14.00">▶ Run GitHub Actions for `docs/installation.md`</text>
</g>
<!-- 6524808c&#45;42a7&#45;4a6b&#45;951d&#45;d3b7d0aa4397&#45;&gt;e604fb9a&#45;a624&#45;4b17&#45;bcf6&#45;7c87d8df8787 -->
<g id="edge1" class="edge">
<title>6524808c&#45;42a7&#45;4a6b&#45;951d&#45;d3b7d0aa4397&#45;&gt;e604fb9a&#45;a624&#45;4b17&#45;bcf6&#45;7c87d8df8787</title>
<path fill="none" stroke="black" stroke-dasharray="5,2" d="M173.5,-72.72C173.5,-64.27 173.5,-54.89 173.5,-46.36"/>
<polygon fill="black" stroke="black" points="177,-46.15 173.5,-36.15 170,-46.15 177,-46.15"/>
</g>
</g>
</svg>
