<?xml version="1.0" encoding="UTF-8" standalone="no"?>
<!DOCTYPE svg PUBLIC "-//W3C//DTD SVG 1.1//EN"
 "http://www.w3.org/Graphics/SVG/1.1/DTD/svg11.dtd">
<!-- Generated by graphviz version 8.0.3 (0)
 -->
<!-- Pages: 1 -->
<svg width="782pt" height="238pt"
 viewBox="0.00 0.00 781.50 237.74" xmlns="http://www.w3.org/2000/svg" xmlns:xlink="http://www.w3.org/1999/xlink">
<g id="graph0" class="graph" transform="scale(1 1) rotate(0) translate(36 201.74)">
<polygon fill="dimgray" stroke="none" points="-36,36 -36,-201.74 745.5,-201.74 745.5,36 -36,36"/>
<text text-anchor="middle" x="354.75" y="-150.54" font-family="Helvetica,sans-Serif" font-size="14.00">Sweep&#39;s Plan &amp; Progress</text>
<!-- start -->
<g id="node1" class="node">
<title>start</title>
</g>
<!-- 28c39a34&#45;406d&#45;45a4&#45;ab29&#45;a50c5115a0c3 -->
<g id="node3" class="node">
<title>28c39a34&#45;406d&#45;45a4&#45;ab29&#45;a50c5115a0c3</title>
<ellipse fill="#0ee832" stroke="black" cx="168" cy="-99.87" rx="84.71" ry="26.74"/>
<text text-anchor="middle" x="168" y="-103.67" font-family="Helvetica,sans-Serif" font-size="14.00">✓ Modify</text>
<text text-anchor="middle" x="168" y="-88.67" font-family="Helvetica,sans-Serif" font-size="14.00">sweepai/api.py</text>
</g>
<!-- start&#45;&gt;28c39a34&#45;406d&#45;45a4&#45;ab29&#45;a50c5115a0c3 -->
<g id="edge4" class="edge">
<title>start&#45;&gt;28c39a34&#45;406d&#45;45a4&#45;ab29&#45;a50c5115a0c3</title>
<path fill="none" stroke="black" d="M31.39,-99.87C34.15,-99.87 51.04,-99.87 72.06,-99.87"/>
<polygon fill="black" stroke="black" points="72.03,-103.37 82.03,-99.87 72.03,-96.37 72.03,-103.37"/>
<text text-anchor="middle" x="57.32" y="-106.67" font-family="Helvetica,sans-Serif" font-size="14.00">Start</text>
</g>
<!-- end -->
<g id="node2" class="node">
<title>end</title>
</g>
<!-- ffad094f&#45;4278&#45;44b3&#45;bad7&#45;77206ef184e8 -->
<g id="node4" class="node">
<title>ffad094f&#45;4278&#45;44b3&#45;bad7&#45;77206ef184e8</title>
<ellipse fill="white" stroke="black" cx="478" cy="-99.87" rx="173.48" ry="26.74"/>
<text text-anchor="middle" x="478" y="-103.67" font-family="Helvetica,sans-Serif" font-size="14.00">▶ Modify</text>
<text text-anchor="middle" x="478" y="-88.67" font-family="Helvetica,sans-Serif" font-size="14.00">sweepai/agents/validate_code.py</text>
</g>
<!-- 28c39a34&#45;406d&#45;45a4&#45;ab29&#45;a50c5115a0c3&#45;&gt;ffad094f&#45;4278&#45;44b3&#45;bad7&#45;77206ef184e8 -->
<g id="edge2" class="edge">
<title>28c39a34&#45;406d&#45;45a4&#45;ab29&#45;a50c5115a0c3&#45;&gt;ffad094f&#45;4278&#45;44b3&#45;bad7&#45;77206ef184e8</title>
<path fill="none" stroke="black" d="M253.07,-99.87C266.47,-99.87 279.88,-99.87 293.28,-99.87"/>
<polygon fill="black" stroke="black" points="293.03,-103.37 303.03,-99.87 293.03,-96.37 293.03,-103.37"/>
</g>
<!-- 18776349&#45;0a57&#45;4084&#45;a0e7&#45;1a29757f4ed2 -->
<g id="node5" class="node">
<title>18776349&#45;0a57&#45;4084&#45;a0e7&#45;1a29757f4ed2</title>
<polygon fill="yellow" stroke="black" points="276,-36 0,-36 0,0 276,0 276,-36"/>
<text text-anchor="middle" x="138" y="-14.3" font-family="Helvetica,sans-Serif" font-size="14.00">⋯ Ran sandbox for `sweepai/api.py`.</text>
</g>
<!-- 28c39a34&#45;406d&#45;45a4&#45;ab29&#45;a50c5115a0c3&#45;&gt;18776349&#45;0a57&#45;4084&#45;a0e7&#45;1a29757f4ed2 -->
<g id="edge1" class="edge">
<title>28c39a34&#45;406d&#45;45a4&#45;ab29&#45;a50c5115a0c3&#45;&gt;18776349&#45;0a57&#45;4084&#45;a0e7&#45;1a29757f4ed2</title>
<path fill="none" stroke="black" stroke-dasharray="5,2" d="M158.34,-73.16C155.13,-64.6 151.54,-55.04 148.28,-46.36"/>
<polygon fill="black" stroke="black" points="151.3,-45.47 144.51,-37.34 144.75,-47.93 151.3,-45.47"/>
</g>
<!-- ffad094f&#45;4278&#45;44b3&#45;bad7&#45;77206ef184e8&#45;&gt;end -->
<g id="edge5" class="edge">
<title>ffad094f&#45;4278&#45;44b3&#45;bad7&#45;77206ef184e8&#45;&gt;end</title>
<path fill="none" stroke="black" d="M651.9,-99.87C671.37,-99.87 687.83,-99.87 698.01,-99.87"/>
<polygon fill="black" stroke="black" points="697.72,-103.37 707.72,-99.87 697.72,-96.37 697.72,-103.37"/>
<text text-anchor="middle" x="679.87" y="-106.67" font-family="Helvetica,sans-Serif" font-size="14.00">Finish</text>
</g>
<!-- 97041474&#45;e55a&#45;49b0&#45;85c8&#45;629614bbf29f -->
<g id="node6" class="node">
<title>97041474&#45;e55a&#45;49b0&#45;85c8&#45;629614bbf29f</title>
<polygon fill="white" stroke="black" points="692,-36 294,-36 294,0 692,0 692,-36"/>
<text text-anchor="middle" x="493" y="-14.3" font-family="Helvetica,sans-Serif" font-size="14.00">▶ Ran sandbox for `sweepai/agents/validate_code.py`.</text>
</g>
<!-- ffad094f&#45;4278&#45;44b3&#45;bad7&#45;77206ef184e8&#45;&gt;97041474&#45;e55a&#45;49b0&#45;85c8&#45;629614bbf29f -->
<g id="edge3" class="edge">
<title>ffad094f&#45;4278&#45;44b3&#45;bad7&#45;77206ef184e8&#45;&gt;97041474&#45;e55a&#45;49b0&#45;85c8&#45;629614bbf29f</title>
<path fill="none" stroke="black" stroke-dasharray="5,2" d="M482.91,-72.72C484.46,-64.46 486.18,-55.31 487.75,-46.93"/>
<polygon fill="black" stroke="black" points="491.37,-47.62 489.78,-37.15 484.49,-46.33 491.37,-47.62"/>
</g>
</g>
</svg>
