<?xml version="1.0" encoding="UTF-8" standalone="no"?>
<!DOCTYPE svg PUBLIC "-//W3C//DTD SVG 1.1//EN"
 "http://www.w3.org/Graphics/SVG/1.1/DTD/svg11.dtd">
<!-- Generated by graphviz version 8.0.3 (0)
 -->
<!-- Pages: 1 -->
<svg width="1392pt" height="238pt"
 viewBox="0.00 0.00 1391.50 237.74" xmlns="http://www.w3.org/2000/svg" xmlns:xlink="http://www.w3.org/1999/xlink">
<g id="graph0" class="graph" transform="scale(1 1) rotate(0) translate(36 201.74)">
<polygon fill="dimgray" stroke="none" points="-36,36 -36,-201.74 1355.5,-201.74 1355.5,36 -36,36"/>
<text text-anchor="middle" x="659.75" y="-150.54" font-family="Helvetica,sans-Serif" font-size="14.00">Sweep&#39;s Plan &amp; Progress</text>
<!-- start -->
<g id="node1" class="node">
<title>start</title>
</g>
<!-- e0830dfd&#45;162b&#45;4228&#45;947d&#45;27283e9ccfd7 -->
<g id="node3" class="node">
<title>e0830dfd&#45;162b&#45;4228&#45;947d&#45;27283e9ccfd7</title>
<ellipse fill="yellow" stroke="black" cx="223.5" cy="-99.87" rx="164.51" ry="26.74"/>
<text text-anchor="middle" x="223.5" y="-103.67" font-family="Helvetica,sans-Serif" font-size="14.00">⋯ Modify</text>
<text text-anchor="middle" x="223.5" y="-88.67" font-family="Helvetica,sans-Serif" font-size="14.00">sweepai/handlers/on_merge.py</text>
</g>
<!-- start&#45;&gt;e0830dfd&#45;162b&#45;4228&#45;947d&#45;27283e9ccfd7 -->
<g id="edge8" class="edge">
<title>start&#45;&gt;e0830dfd&#45;162b&#45;4228&#45;947d&#45;27283e9ccfd7</title>
<path fill="none" stroke="black" d="M6.66,-99.87C8.41,-99.87 24.66,-99.87 47.54,-99.87"/>
<polygon fill="black" stroke="black" points="47.5,-103.37 57.5,-99.87 47.5,-96.37 47.5,-103.37"/>
<text text-anchor="middle" x="32.87" y="-106.67" font-family="Helvetica,sans-Serif" font-size="14.00">Start</text>
</g>
<!-- end -->
<g id="node2" class="node">
<title>end</title>
</g>
<!-- c423e64d&#45;cde2&#45;4ee5&#45;9379&#45;a1efaca3bc3a -->
<g id="node4" class="node">
<title>c423e64d&#45;cde2&#45;4ee5&#45;9379&#45;a1efaca3bc3a</title>
<ellipse fill="white" stroke="black" cx="539.5" cy="-99.87" rx="84.71" ry="26.74"/>
<text text-anchor="middle" x="539.5" y="-103.67" font-family="Helvetica,sans-Serif" font-size="14.00">▶ Modify</text>
<text text-anchor="middle" x="539.5" y="-88.67" font-family="Helvetica,sans-Serif" font-size="14.00">sweepai/api.py</text>
</g>
<!-- e0830dfd&#45;162b&#45;4228&#45;947d&#45;27283e9ccfd7&#45;&gt;c423e64d&#45;cde2&#45;4ee5&#45;9379&#45;a1efaca3bc3a -->
<g id="edge2" class="edge">
<title>e0830dfd&#45;162b&#45;4228&#45;947d&#45;27283e9ccfd7&#45;&gt;c423e64d&#45;cde2&#45;4ee5&#45;9379&#45;a1efaca3bc3a</title>
<path fill="none" stroke="black" d="M388.29,-99.87C406.72,-99.87 425.16,-99.87 443.59,-99.87"/>
<polygon fill="black" stroke="black" points="443.44,-103.37 453.44,-99.87 443.44,-96.37 443.44,-103.37"/>
</g>
<!-- d23ca2b9&#45;c9bd&#45;43ce&#45;bc0f&#45;44d37fb434e7 -->
<g id="node7" class="node">
<title>d23ca2b9&#45;c9bd&#45;43ce&#45;bc0f&#45;44d37fb434e7</title>
<polygon fill="white" stroke="black" points="385,-36 0,-36 0,0 385,0 385,-36"/>
<text text-anchor="middle" x="192.5" y="-14.3" font-family="Helvetica,sans-Serif" font-size="14.00">▶ Ran sandbox for `sweepai/handlers/on_merge.py`.</text>
</g>
<!-- e0830dfd&#45;162b&#45;4228&#45;947d&#45;27283e9ccfd7&#45;&gt;d23ca2b9&#45;c9bd&#45;43ce&#45;bc0f&#45;44d37fb434e7 -->
<g id="edge1" class="edge">
<title>e0830dfd&#45;162b&#45;4228&#45;947d&#45;27283e9ccfd7&#45;&gt;d23ca2b9&#45;c9bd&#45;43ce&#45;bc0f&#45;44d37fb434e7</title>
<path fill="none" stroke="black" stroke-dasharray="5,2" d="M213.35,-72.72C210.07,-64.27 206.43,-54.89 203.12,-46.36"/>
<polygon fill="black" stroke="black" points="206.04,-45.2 199.16,-37.15 199.51,-47.74 206.04,-45.2"/>
</g>
<!-- 43212b2c&#45;fb2b&#45;4f46&#45;b0fc&#45;03ec51d56de5 -->
<g id="node5" class="node">
<title>43212b2c&#45;fb2b&#45;4f46&#45;b0fc&#45;03ec51d56de5</title>
<ellipse fill="white" stroke="black" cx="829.5" cy="-99.87" rx="84.71" ry="26.74"/>
<text text-anchor="middle" x="829.5" y="-103.67" font-family="Helvetica,sans-Serif" font-size="14.00">▶ Modify</text>
<text text-anchor="middle" x="829.5" y="-88.67" font-family="Helvetica,sans-Serif" font-size="14.00">sweepai/api.py</text>
</g>
<!-- c423e64d&#45;cde2&#45;4ee5&#45;9379&#45;a1efaca3bc3a&#45;&gt;43212b2c&#45;fb2b&#45;4f46&#45;b0fc&#45;03ec51d56de5 -->
<g id="edge4" class="edge">
<title>c423e64d&#45;cde2&#45;4ee5&#45;9379&#45;a1efaca3bc3a&#45;&gt;43212b2c&#45;fb2b&#45;4f46&#45;b0fc&#45;03ec51d56de5</title>
<path fill="none" stroke="black" d="M624.46,-99.87C660.91,-99.87 697.36,-99.87 733.81,-99.87"/>
<polygon fill="black" stroke="black" points="733.6,-103.37 743.6,-99.87 733.6,-96.37 733.6,-103.37"/>
</g>
<!-- fa4a221c&#45;181e&#45;4e0b&#45;81d4&#45;31f211f18f9f -->
<g id="node8" class="node">
<title>fa4a221c&#45;181e&#45;4e0b&#45;81d4&#45;31f211f18f9f</title>
<polygon fill="white" stroke="black" points="675.5,-36 403.5,-36 403.5,0 675.5,0 675.5,-36"/>
<text text-anchor="middle" x="539.5" y="-14.3" font-family="Helvetica,sans-Serif" font-size="14.00">▶ Ran sandbox for `sweepai/api.py`.</text>
</g>
<!-- c423e64d&#45;cde2&#45;4ee5&#45;9379&#45;a1efaca3bc3a&#45;&gt;fa4a221c&#45;181e&#45;4e0b&#45;81d4&#45;31f211f18f9f -->
<g id="edge3" class="edge">
<title>c423e64d&#45;cde2&#45;4ee5&#45;9379&#45;a1efaca3bc3a&#45;&gt;fa4a221c&#45;181e&#45;4e0b&#45;81d4&#45;31f211f18f9f</title>
<path fill="none" stroke="black" stroke-dasharray="5,2" d="M539.5,-72.72C539.5,-64.46 539.5,-55.31 539.5,-46.93"/>
<polygon fill="black" stroke="black" points="543,-47.15 539.5,-37.15 536,-47.15 543,-47.15"/>
</g>
<!-- 99efe44a&#45;f5f0&#45;4b9d&#45;82b5&#45;75829189e353 -->
<g id="node6" class="node">
<title>99efe44a&#45;f5f0&#45;4b9d&#45;82b5&#45;75829189e353</title>
<ellipse fill="white" stroke="black" cx="1115.5" cy="-99.87" rx="130.22" ry="26.74"/>
<text text-anchor="middle" x="1115.5" y="-103.67" font-family="Helvetica,sans-Serif" font-size="14.00">▶ Modify</text>
<text text-anchor="middle" x="1115.5" y="-88.67" font-family="Helvetica,sans-Serif" font-size="14.00">sweepai/config/client.py</text>
</g>
<!-- 43212b2c&#45;fb2b&#45;4f46&#45;b0fc&#45;03ec51d56de5&#45;&gt;99efe44a&#45;f5f0&#45;4b9d&#45;82b5&#45;75829189e353 -->
<g id="edge6" class="edge">
<title>43212b2c&#45;fb2b&#45;4f46&#45;b0fc&#45;03ec51d56de5&#45;&gt;99efe44a&#45;f5f0&#45;4b9d&#45;82b5&#45;75829189e353</title>
<path fill="none" stroke="black" d="M914.69,-99.87C934.43,-99.87 954.18,-99.87 973.92,-99.87"/>
<polygon fill="black" stroke="black" points="973.89,-103.37 983.89,-99.87 973.89,-96.37 973.89,-103.37"/>
</g>
<!-- 483e0cc1&#45;c9a0&#45;4bad&#45;8439&#45;e693953d7122 -->
<g id="node9" class="node">
<title>483e0cc1&#45;c9a0&#45;4bad&#45;8439&#45;e693953d7122</title>
<polygon fill="white" stroke="black" points="965.5,-36 693.5,-36 693.5,0 965.5,0 965.5,-36"/>
<text text-anchor="middle" x="829.5" y="-14.3" font-family="Helvetica,sans-Serif" font-size="14.00">▶ Ran sandbox for `sweepai/api.py`.</text>
</g>
<!-- 43212b2c&#45;fb2b&#45;4f46&#45;b0fc&#45;03ec51d56de5&#45;&gt;483e0cc1&#45;c9a0&#45;4bad&#45;8439&#45;e693953d7122 -->
<g id="edge5" class="edge">
<title>43212b2c&#45;fb2b&#45;4f46&#45;b0fc&#45;03ec51d56de5&#45;&gt;483e0cc1&#45;c9a0&#45;4bad&#45;8439&#45;e693953d7122</title>
<path fill="none" stroke="black" stroke-dasharray="5,2" d="M829.5,-72.72C829.5,-64.46 829.5,-55.31 829.5,-46.93"/>
<polygon fill="black" stroke="black" points="833,-47.15 829.5,-37.15 826,-47.15 833,-47.15"/>
</g>
<!-- 99efe44a&#45;f5f0&#45;4b9d&#45;82b5&#45;75829189e353&#45;&gt;end -->
<g id="edge9" class="edge">
<title>99efe44a&#45;f5f0&#45;4b9d&#45;82b5&#45;75829189e353&#45;&gt;end</title>
<path fill="none" stroke="black" d="M1246.07,-99.87C1265.34,-99.87 1282.18,-99.87 1292.55,-99.87"/>
<polygon fill="black" stroke="black" points="1292.21,-103.37 1302.21,-99.87 1292.21,-96.37 1292.21,-103.37"/>
<text text-anchor="middle" x="1274.3" y="-106.67" font-family="Helvetica,sans-Serif" font-size="14.00">Finish</text>
</g>
<!-- 8ca3f64a&#45;8b5b&#45;49ab&#45;b83c&#45;bb663aa888b9 -->
<g id="node10" class="node">
<title>8ca3f64a&#45;8b5b&#45;49ab&#45;b83c&#45;bb663aa888b9</title>
<polygon fill="white" stroke="black" points="1319.5,-36 983.5,-36 983.5,0 1319.5,0 1319.5,-36"/>
<text text-anchor="middle" x="1151.5" y="-14.3" font-family="Helvetica,sans-Serif" font-size="14.00">▶ Ran sandbox for `sweepai/config/client.py`.</text>
</g>
<!-- 99efe44a&#45;f5f0&#45;4b9d&#45;82b5&#45;75829189e353&#45;&gt;8ca3f64a&#45;8b5b&#45;49ab&#45;b83c&#45;bb663aa888b9 -->
<g id="edge7" class="edge">
<title>99efe44a&#45;f5f0&#45;4b9d&#45;82b5&#45;75829189e353&#45;&gt;8ca3f64a&#45;8b5b&#45;49ab&#45;b83c&#45;bb663aa888b9</title>
<path fill="none" stroke="black" stroke-dasharray="5,2" d="M1127.09,-73.16C1130.95,-64.6 1135.26,-55.04 1139.17,-46.36"/>
<polygon fill="black" stroke="black" points="1142.77,-47.89 1143.69,-37.34 1136.39,-45.02 1142.77,-47.89"/>
</g>
</g>
</svg>
