<?xml version="1.0" encoding="UTF-8" standalone="no"?>
<!DOCTYPE svg PUBLIC "-//W3C//DTD SVG 1.1//EN"
 "http://www.w3.org/Graphics/SVG/1.1/DTD/svg11.dtd">
<!-- Generated by graphviz version 8.0.3 (0)
 -->
<!-- Pages: 1 -->
<svg width="668pt" height="238pt"
 viewBox="0.00 0.00 667.50 237.74" xmlns="http://www.w3.org/2000/svg" xmlns:xlink="http://www.w3.org/1999/xlink">
<g id="graph0" class="graph" transform="scale(1 1) rotate(0) translate(36 201.74)">
<polygon fill="dimgray" stroke="none" points="-36,36 -36,-201.74 631.5,-201.74 631.5,36 -36,36"/>
<text text-anchor="middle" x="297.75" y="-150.54" font-family="Helvetica,sans-Serif" font-size="14.00">Sweep&#39;s Plan &amp; Progress</text>
<!-- start -->
<g id="node1" class="node">
<title>start</title>
</g>
<!-- 19b0773e&#45;a0dd&#45;4d4a&#45;bc99&#45;f7b0be110d4b -->
<g id="node3" class="node">
<title>19b0773e&#45;a0dd&#45;4d4a&#45;bc99&#45;f7b0be110d4b</title>
<ellipse fill="yellow" stroke="black" cx="175" cy="-99.87" rx="84.71" ry="26.74"/>
<text text-anchor="middle" x="175" y="-103.67" font-family="Helvetica,sans-Serif" font-size="14.00">⋯ Modify</text>
<text text-anchor="middle" x="175" y="-88.67" font-family="Helvetica,sans-Serif" font-size="14.00">sweepai/api.py</text>
</g>
<!-- start&#45;&gt;19b0773e&#45;a0dd&#45;4d4a&#45;bc99&#45;f7b0be110d4b -->
<g id="edge4" class="edge">
<title>start&#45;&gt;19b0773e&#45;a0dd&#45;4d4a&#45;bc99&#45;f7b0be110d4b</title>
<path fill="none" stroke="black" d="M38.39,-99.87C41.15,-99.87 58.04,-99.87 79.06,-99.87"/>
<polygon fill="black" stroke="black" points="79.03,-103.37 89.03,-99.87 79.03,-96.37 79.03,-103.37"/>
<text text-anchor="middle" x="64.32" y="-106.67" font-family="Helvetica,sans-Serif" font-size="14.00">Start</text>
</g>
<!-- end -->
<g id="node2" class="node">
<title>end</title>
</g>
<!-- ae80fa7f&#45;2018&#45;41e0&#45;8fde&#45;116e5a869112 -->
<g id="node4" class="node">
<title>ae80fa7f&#45;2018&#45;41e0&#45;8fde&#45;116e5a869112</title>
<ellipse fill="white" stroke="black" cx="424" cy="-99.87" rx="108.38" ry="26.74"/>
<text text-anchor="middle" x="424" y="-103.67" font-family="Helvetica,sans-Serif" font-size="14.00">▶ Create</text>
<text text-anchor="middle" x="424" y="-88.67" font-family="Helvetica,sans-Serif" font-size="14.00">sweepai/api_test.py</text>
</g>
<!-- 19b0773e&#45;a0dd&#45;4d4a&#45;bc99&#45;f7b0be110d4b&#45;&gt;ae80fa7f&#45;2018&#45;41e0&#45;8fde&#45;116e5a869112 -->
<g id="edge2" class="edge">
<title>19b0773e&#45;a0dd&#45;4d4a&#45;bc99&#45;f7b0be110d4b&#45;&gt;ae80fa7f&#45;2018&#45;41e0&#45;8fde&#45;116e5a869112</title>
<path fill="none" stroke="black" d="M260.11,-99.87C274.88,-99.87 289.64,-99.87 304.41,-99.87"/>
<polygon fill="black" stroke="black" points="304.17,-103.37 314.17,-99.87 304.17,-96.37 304.17,-103.37"/>
</g>
<!-- 0e279427&#45;2e3d&#45;4a30&#45;873e&#45;9fdd01c2411d -->
<g id="node5" class="node">
<title>0e279427&#45;2e3d&#45;4a30&#45;873e&#45;9fdd01c2411d</title>
<polygon fill="white" stroke="black" points="272,-36 0,-36 0,0 272,0 272,-36"/>
<text text-anchor="middle" x="136" y="-14.3" font-family="Helvetica,sans-Serif" font-size="14.00">▶ Ran sandbox for `sweepai/api.py`.</text>
</g>
<!-- 19b0773e&#45;a0dd&#45;4d4a&#45;bc99&#45;f7b0be110d4b&#45;&gt;0e279427&#45;2e3d&#45;4a30&#45;873e&#45;9fdd01c2411d -->
<g id="edge1" class="edge">
<title>19b0773e&#45;a0dd&#45;4d4a&#45;bc99&#45;f7b0be110d4b&#45;&gt;0e279427&#45;2e3d&#45;4a30&#45;873e&#45;9fdd01c2411d</title>
<path fill="none" stroke="black" stroke-dasharray="5,2" d="M162.45,-73.16C158.22,-64.51 153.49,-54.83 149.22,-46.07"/>
<polygon fill="black" stroke="black" points="152,-44.79 144.47,-37.34 145.71,-47.86 152,-44.79"/>
</g>
<!-- ae80fa7f&#45;2018&#45;41e0&#45;8fde&#45;116e5a869112&#45;&gt;end -->
<g id="edge5" class="edge">
<title>ae80fa7f&#45;2018&#45;41e0&#45;8fde&#45;116e5a869112&#45;&gt;end</title>
<path fill="none" stroke="black" d="M532.87,-99.87C551.66,-99.87 568.49,-99.87 578.93,-99.87"/>
<polygon fill="black" stroke="black" points="578.7,-103.37 588.7,-99.87 578.7,-96.37 578.7,-103.37"/>
<text text-anchor="middle" x="560.84" y="-106.67" font-family="Helvetica,sans-Serif" font-size="14.00">Finish</text>
</g>
<!-- 1543f3f9&#45;fa81&#45;4749&#45;a76b&#45;154280b873f4 -->
<g id="node6" class="node">
<title>1543f3f9&#45;fa81&#45;4749&#45;a76b&#45;154280b873f4</title>
<polygon fill="white" stroke="black" points="595.5,-36 290.5,-36 290.5,0 595.5,0 595.5,-36"/>
<text text-anchor="middle" x="443" y="-14.3" font-family="Helvetica,sans-Serif" font-size="14.00">▶ Ran sandbox for `sweepai/api_test.py`.</text>
</g>
<!-- ae80fa7f&#45;2018&#45;41e0&#45;8fde&#45;116e5a869112&#45;&gt;1543f3f9&#45;fa81&#45;4749&#45;a76b&#45;154280b873f4 -->
<g id="edge3" class="edge">
<title>ae80fa7f&#45;2018&#45;41e0&#45;8fde&#45;116e5a869112&#45;&gt;1543f3f9&#45;fa81&#45;4749&#45;a76b&#45;154280b873f4</title>
<path fill="none" stroke="black" stroke-dasharray="5,2" d="M430.22,-72.72C432.21,-64.37 434.41,-55.1 436.42,-46.65"/>
<polygon fill="black" stroke="black" points="440.01,-47.68 438.92,-37.15 433.2,-46.06 440.01,-47.68"/>
</g>
</g>
</svg>
