<?xml version="1.0" encoding="UTF-8" standalone="no"?>
<!DOCTYPE svg PUBLIC "-//W3C//DTD SVG 1.1//EN"
 "http://www.w3.org/Graphics/SVG/1.1/DTD/svg11.dtd">
<!-- Generated by graphviz version 8.0.3 (0)
 -->
<!-- Pages: 1 -->
<svg width="1678pt" height="415pt"
 viewBox="0.00 0.00 1678.00 415.48" xmlns="http://www.w3.org/2000/svg" xmlns:xlink="http://www.w3.org/1999/xlink">
<g id="graph0" class="graph" transform="scale(1 1) rotate(0) translate(36 379.48)">
<polygon fill="dimgray" stroke="none" points="-36,36 -36,-379.48 1642,-379.48 1642,36 -36,36"/>
<text text-anchor="middle" x="803" y="-328.28" font-family="Helvetica,sans-Serif" font-size="14.00">Sweep&#39;s Plan &amp; Progress</text>
<!-- start -->
<g id="node1" class="node">
<title>start</title>
</g>
<!-- 28c39a34&#45;406d&#45;45a4&#45;ab29&#45;a50c5115a0c3 -->
<g id="node3" class="node">
<title>28c39a34&#45;406d&#45;45a4&#45;ab29&#45;a50c5115a0c3</title>
<ellipse fill="#0ee832" stroke="black" cx="1050.5" cy="-277.61" rx="84.71" ry="26.74"/>
<text text-anchor="middle" x="1050.5" y="-281.41" font-family="Helvetica,sans-Serif" font-size="14.00">✓ Modify</text>
<text text-anchor="middle" x="1050.5" y="-266.41" font-family="Helvetica,sans-Serif" font-size="14.00">sweepai/api.py</text>
</g>
<!-- start&#45;&gt;28c39a34&#45;406d&#45;45a4&#45;ab29&#45;a50c5115a0c3 -->
<g id="edge17" class="edge">
<title>start&#45;&gt;28c39a34&#45;406d&#45;45a4&#45;ab29&#45;a50c5115a0c3</title>
<path fill="none" stroke="black" d="M913.89,-277.61C916.65,-277.61 933.54,-277.61 954.56,-277.61"/>
<polygon fill="black" stroke="black" points="954.53,-281.11 964.53,-277.61 954.53,-274.11 954.53,-281.11"/>
<text text-anchor="middle" x="939.82" y="-284.41" font-family="Helvetica,sans-Serif" font-size="14.00">Start</text>
</g>
<!-- end -->
<g id="node2" class="node">
<title>end</title>
</g>
<!-- ffad094f&#45;4278&#45;44b3&#45;bad7&#45;77206ef184e8 -->
<g id="node4" class="node">
<title>ffad094f&#45;4278&#45;44b3&#45;bad7&#45;77206ef184e8</title>
<ellipse fill="white" stroke="black" cx="1374.5" cy="-277.61" rx="173.48" ry="26.74"/>
<text text-anchor="middle" x="1374.5" y="-281.41" font-family="Helvetica,sans-Serif" font-size="14.00">▶ Modify</text>
<text text-anchor="middle" x="1374.5" y="-266.41" font-family="Helvetica,sans-Serif" font-size="14.00">sweepai/agents/validate_code.py</text>
</g>
<!-- 28c39a34&#45;406d&#45;45a4&#45;ab29&#45;a50c5115a0c3&#45;&gt;ffad094f&#45;4278&#45;44b3&#45;bad7&#45;77206ef184e8 -->
<g id="edge15" class="edge">
<title>28c39a34&#45;406d&#45;45a4&#45;ab29&#45;a50c5115a0c3&#45;&gt;ffad094f&#45;4278&#45;44b3&#45;bad7&#45;77206ef184e8</title>
<path fill="none" stroke="black" d="M1135.61,-277.61C1153.73,-277.61 1171.85,-277.61 1189.96,-277.61"/>
<polygon fill="black" stroke="black" points="1189.93,-281.11 1199.93,-277.61 1189.93,-274.11 1189.93,-281.11"/>
</g>
<!-- 18776349&#45;0a57&#45;4084&#45;a0e7&#45;1a29757f4ed2 -->
<g id="node5" class="node">
<title>18776349&#45;0a57&#45;4084&#45;a0e7&#45;1a29757f4ed2</title>
<polygon fill="#ee0000" stroke="black" points="896.5,-213.74 622.5,-213.74 622.5,-177.74 896.5,-177.74 896.5,-213.74"/>
<text text-anchor="middle" x="759.5" y="-192.04" font-family="Helvetica,sans-Serif" font-size="14.00">✗ Ran sandbox for `sweepai/api.py`.</text>
</g>
<!-- 28c39a34&#45;406d&#45;45a4&#45;ab29&#45;a50c5115a0c3&#45;&gt;18776349&#45;0a57&#45;4084&#45;a0e7&#45;1a29757f4ed2 -->
<g id="edge1" class="edge">
<title>28c39a34&#45;406d&#45;45a4&#45;ab29&#45;a50c5115a0c3&#45;&gt;18776349&#45;0a57&#45;4084&#45;a0e7&#45;1a29757f4ed2</title>
<path fill="none" stroke="black" stroke-dasharray="5,2" d="M987.72,-259.38C942.51,-246.97 881.36,-230.19 833.74,-217.12"/>
<polygon fill="black" stroke="black" points="834.75,-213.49 824.18,-214.22 832.89,-220.24 834.75,-213.49"/>
</g>
<!-- 392c6140&#45;b3f7&#45;4f31&#45;804c&#45;0f8b06f1ce49 -->
<g id="node6" class="node">
<title>392c6140&#45;b3f7&#45;4f31&#45;804c&#45;0f8b06f1ce49</title>
<polygon fill="white" stroke="black" points="1186.5,-213.74 914.5,-213.74 914.5,-177.74 1186.5,-177.74 1186.5,-213.74"/>
<text text-anchor="middle" x="1050.5" y="-192.04" font-family="Helvetica,sans-Serif" font-size="14.00">▶ Ran sandbox for `sweepai/api.py`.</text>
</g>
<!-- 28c39a34&#45;406d&#45;45a4&#45;ab29&#45;a50c5115a0c3&#45;&gt;392c6140&#45;b3f7&#45;4f31&#45;804c&#45;0f8b06f1ce49 -->
<g id="edge14" class="edge">
<title>28c39a34&#45;406d&#45;45a4&#45;ab29&#45;a50c5115a0c3&#45;&gt;392c6140&#45;b3f7&#45;4f31&#45;804c&#45;0f8b06f1ce49</title>
<path fill="none" stroke="black" stroke-dasharray="5,2" d="M1050.5,-250.46C1050.5,-242.2 1050.5,-233.05 1050.5,-224.67"/>
<polygon fill="black" stroke="black" points="1054,-224.89 1050.5,-214.89 1047,-224.89 1054,-224.89"/>
</g>
<!-- ffad094f&#45;4278&#45;44b3&#45;bad7&#45;77206ef184e8&#45;&gt;end -->
<g id="edge18" class="edge">
<title>ffad094f&#45;4278&#45;44b3&#45;bad7&#45;77206ef184e8&#45;&gt;end</title>
<path fill="none" stroke="black" d="M1548.4,-277.61C1567.87,-277.61 1584.33,-277.61 1594.51,-277.61"/>
<polygon fill="black" stroke="black" points="1594.22,-281.11 1604.22,-277.61 1594.22,-274.11 1594.22,-281.11"/>
<text text-anchor="middle" x="1576.37" y="-284.41" font-family="Helvetica,sans-Serif" font-size="14.00">Finish</text>
</g>
<!-- 97041474&#45;e55a&#45;49b0&#45;85c8&#45;629614bbf29f -->
<g id="node7" class="node">
<title>97041474&#45;e55a&#45;49b0&#45;85c8&#45;629614bbf29f</title>
<polygon fill="white" stroke="black" points="1602.5,-213.74 1204.5,-213.74 1204.5,-177.74 1602.5,-177.74 1602.5,-213.74"/>
<text text-anchor="middle" x="1403.5" y="-192.04" font-family="Helvetica,sans-Serif" font-size="14.00">▶ Ran sandbox for `sweepai/agents/validate_code.py`.</text>
</g>
<!-- ffad094f&#45;4278&#45;44b3&#45;bad7&#45;77206ef184e8&#45;&gt;97041474&#45;e55a&#45;49b0&#45;85c8&#45;629614bbf29f -->
<g id="edge16" class="edge">
<title>ffad094f&#45;4278&#45;44b3&#45;bad7&#45;77206ef184e8&#45;&gt;97041474&#45;e55a&#45;49b0&#45;85c8&#45;629614bbf29f</title>
<path fill="none" stroke="black" stroke-dasharray="5,2" d="M1384,-250.46C1387.06,-242.01 1390.47,-232.63 1393.57,-224.1"/>
<polygon fill="black" stroke="black" points="1397.15,-225.48 1397.27,-214.89 1390.57,-223.09 1397.15,-225.48"/>
</g>
<!-- 73587245&#45;b8cb&#45;4417&#45;9546&#45;069efce713cb -->
<g id="node8" class="node">
<title>73587245&#45;b8cb&#45;4417&#45;9546&#45;069efce713cb</title>
<ellipse fill="yellow" stroke="black" cx="140.5" cy="-99.87" rx="65.52" ry="26.74"/>
<text text-anchor="middle" x="140.5" y="-103.67" font-family="Helvetica,sans-Serif" font-size="14.00">⋯ Create</text>
<text text-anchor="middle" x="140.5" y="-88.67" font-family="Helvetica,sans-Serif" font-size="14.00">.black.toml</text>
</g>
<!-- 18776349&#45;0a57&#45;4084&#45;a0e7&#45;1a29757f4ed2&#45;&gt;73587245&#45;b8cb&#45;4417&#45;9546&#45;069efce713cb -->
<g id="edge2" class="edge">
<title>18776349&#45;0a57&#45;4084&#45;a0e7&#45;1a29757f4ed2&#45;&gt;73587245&#45;b8cb&#45;4417&#45;9546&#45;069efce713cb</title>
<path fill="none" stroke="black" d="M622.21,-194.77C486.71,-193.21 289.8,-186.22 218.5,-159.74 201.93,-153.59 185.93,-142.69 172.78,-131.93"/>
<polygon fill="black" stroke="black" points="175.45,-128.76 165.57,-124.94 170.91,-134.09 175.45,-128.76"/>
<text text-anchor="middle" x="316" y="-148.54" font-family="Helvetica,sans-Serif" font-size="14.00">Additional changes required</text>
</g>
<!-- b9cfef63&#45;80c4&#45;4f91&#45;8234&#45;392d04b79107 -->
<g id="node9" class="node">
<title>b9cfef63&#45;80c4&#45;4f91&#45;8234&#45;392d04b79107</title>
<ellipse fill="white" stroke="black" cx="393.5" cy="-99.87" rx="55.31" ry="26.74"/>
<text text-anchor="middle" x="393.5" y="-103.67" font-family="Helvetica,sans-Serif" font-size="14.00">▶ Create</text>
<text text-anchor="middle" x="393.5" y="-88.67" font-family="Helvetica,sans-Serif" font-size="14.00">.isort.cfg</text>
</g>
<!-- 18776349&#45;0a57&#45;4084&#45;a0e7&#45;1a29757f4ed2&#45;&gt;b9cfef63&#45;80c4&#45;4f91&#45;8234&#45;392d04b79107 -->
<g id="edge4" class="edge">
<title>18776349&#45;0a57&#45;4084&#45;a0e7&#45;1a29757f4ed2&#45;&gt;b9cfef63&#45;80c4&#45;4f91&#45;8234&#45;392d04b79107</title>
<path fill="none" stroke="black" d="M622.02,-191.61C547.4,-187.67 464.09,-178.94 432.5,-159.74 423.17,-154.07 415.61,-145.22 409.72,-136.09"/>
<polygon fill="black" stroke="black" points="412.24,-134.47 404.18,-127.59 406.2,-137.99 412.24,-134.47"/>
<text text-anchor="middle" x="530" y="-148.54" font-family="Helvetica,sans-Serif" font-size="14.00">Additional changes required</text>
</g>
<!-- 43429682&#45;02a2&#45;4348&#45;a907&#45;bc1f06204365 -->
<g id="node10" class="node">
<title>43429682&#45;02a2&#45;4348&#45;a907&#45;bc1f06204365</title>
<ellipse fill="white" stroke="black" cx="632.5" cy="-99.87" rx="59.29" ry="26.74"/>
<text text-anchor="middle" x="632.5" y="-103.67" font-family="Helvetica,sans-Serif" font-size="14.00">▶ Create</text>
<text text-anchor="middle" x="632.5" y="-88.67" font-family="Helvetica,sans-Serif" font-size="14.00">.prettierrc</text>
</g>
<!-- 18776349&#45;0a57&#45;4084&#45;a0e7&#45;1a29757f4ed2&#45;&gt;43429682&#45;02a2&#45;4348&#45;a907&#45;bc1f06204365 -->
<g id="edge6" class="edge">
<title>18776349&#45;0a57&#45;4084&#45;a0e7&#45;1a29757f4ed2&#45;&gt;43429682&#45;02a2&#45;4348&#45;a907&#45;bc1f06204365</title>
<path fill="none" stroke="black" d="M658.59,-177.24C650.61,-172.63 643.38,-166.89 637.5,-159.74 632.39,-153.53 629.95,-145.6 629.01,-137.6"/>
<polygon fill="black" stroke="black" points="632.47,-137.62 628.55,-127.78 625.48,-137.92 632.47,-137.62"/>
<text text-anchor="middle" x="735" y="-148.54" font-family="Helvetica,sans-Serif" font-size="14.00">Additional changes required</text>
</g>
<!-- bdc82258&#45;fbef&#45;474f&#45;b40f&#45;806c93183256 -->
<g id="node11" class="node">
<title>bdc82258&#45;fbef&#45;474f&#45;b40f&#45;806c93183256</title>
<ellipse fill="white" stroke="black" cx="870.5" cy="-99.87" rx="54.39" ry="26.74"/>
<text text-anchor="middle" x="870.5" y="-103.67" font-family="Helvetica,sans-Serif" font-size="14.00">▶ Create</text>
<text text-anchor="middle" x="870.5" y="-88.67" font-family="Helvetica,sans-Serif" font-size="14.00">.shfmt</text>
</g>
<!-- 18776349&#45;0a57&#45;4084&#45;a0e7&#45;1a29757f4ed2&#45;&gt;bdc82258&#45;fbef&#45;474f&#45;b40f&#45;806c93183256 -->
<g id="edge8" class="edge">
<title>18776349&#45;0a57&#45;4084&#45;a0e7&#45;1a29757f4ed2&#45;&gt;bdc82258&#45;fbef&#45;474f&#45;b40f&#45;806c93183256</title>
<path fill="none" stroke="black" d="M809.92,-177.3C819.42,-172.56 828.78,-166.75 836.5,-159.74 843.8,-153.11 849.96,-144.54 854.94,-136"/>
<polygon fill="black" stroke="black" points="858.41,-137.94 860.07,-127.47 852.25,-134.62 858.41,-137.94"/>
<text text-anchor="middle" x="947" y="-148.54" font-family="Helvetica,sans-Serif" font-size="14.00">Additional changes required</text>
</g>
<!-- 76e47e06&#45;1b72&#45;45f7&#45;964c&#45;f737ac1075b9 -->
<g id="node12" class="node">
<title>76e47e06&#45;1b72&#45;45f7&#45;964c&#45;f737ac1075b9</title>
<ellipse fill="white" stroke="black" cx="1106.5" cy="-99.87" rx="60.62" ry="26.74"/>
<text text-anchor="middle" x="1106.5" y="-103.67" font-family="Helvetica,sans-Serif" font-size="14.00">▶ Create</text>
<text text-anchor="middle" x="1106.5" y="-88.67" font-family="Helvetica,sans-Serif" font-size="14.00">taplo.toml</text>
</g>
<!-- 18776349&#45;0a57&#45;4084&#45;a0e7&#45;1a29757f4ed2&#45;&gt;76e47e06&#45;1b72&#45;45f7&#45;964c&#45;f737ac1075b9 -->
<g id="edge10" class="edge">
<title>18776349&#45;0a57&#45;4084&#45;a0e7&#45;1a29757f4ed2&#45;&gt;76e47e06&#45;1b72&#45;45f7&#45;964c&#45;f737ac1075b9</title>
<path fill="none" stroke="black" d="M896.75,-178.61C970.43,-169.87 1046.64,-160.66 1048.5,-159.74 1060.87,-153.66 1072.13,-143.85 1081.37,-133.97"/>
<polygon fill="black" stroke="black" points="1083.64,-136.54 1087.63,-126.73 1078.39,-131.92 1083.64,-136.54"/>
<text text-anchor="middle" x="1167" y="-148.54" font-family="Helvetica,sans-Serif" font-size="14.00">Additional changes required</text>
</g>
<!-- fd62e2b6&#45;fb40&#45;4568&#45;a3ce&#45;6ac65a62b0e5 -->
<g id="node13" class="node">
<title>fd62e2b6&#45;fb40&#45;4568&#45;a3ce&#45;6ac65a62b0e5</title>
<ellipse fill="white" stroke="black" cx="1370.5" cy="-99.87" rx="86.03" ry="26.74"/>
<text text-anchor="middle" x="1370.5" y="-103.67" font-family="Helvetica,sans-Serif" font-size="14.00">▶ Create</text>
<text text-anchor="middle" x="1370.5" y="-88.67" font-family="Helvetica,sans-Serif" font-size="14.00">.trufflehog.json</text>
</g>
<!-- 18776349&#45;0a57&#45;4084&#45;a0e7&#45;1a29757f4ed2&#45;&gt;fd62e2b6&#45;fb40&#45;4568&#45;a3ce&#45;6ac65a62b0e5 -->
<g id="edge12" class="edge">
<title>18776349&#45;0a57&#45;4084&#45;a0e7&#45;1a29757f4ed2&#45;&gt;fd62e2b6&#45;fb40&#45;4568&#45;a3ce&#45;6ac65a62b0e5</title>
<path fill="none" stroke="black" d="M896.64,-178.5C899.62,-178.24 902.58,-177.98 905.5,-177.74 985.99,-171.07 1191.03,-182.56 1268.5,-159.74 1289.71,-153.49 1311.2,-142.02 1328.96,-130.84"/>
<polygon fill="black" stroke="black" points="1330.39,-133.44 1336.88,-125.06 1326.58,-127.56 1330.39,-133.44"/>
<text text-anchor="middle" x="1402" y="-148.54" font-family="Helvetica,sans-Serif" font-size="14.00">Additional changes required</text>
</g>
<!-- 8cb1a50c&#45;b60e&#45;48c4&#45;83ee&#45;e42599c2ec2e -->
<g id="node14" class="node">
<title>8cb1a50c&#45;b60e&#45;48c4&#45;83ee&#45;e42599c2ec2e</title>
<polygon fill="white" stroke="black" points="245,-36 0,-36 0,0 245,0 245,-36"/>
<text text-anchor="middle" x="122.5" y="-14.3" font-family="Helvetica,sans-Serif" font-size="14.00">▶ Ran sandbox for `.black.toml`.</text>
</g>
<!-- 73587245&#45;b8cb&#45;4417&#45;9546&#45;069efce713cb&#45;&gt;8cb1a50c&#45;b60e&#45;48c4&#45;83ee&#45;e42599c2ec2e -->
<g id="edge3" class="edge">
<title>73587245&#45;b8cb&#45;4417&#45;9546&#45;069efce713cb&#45;&gt;8cb1a50c&#45;b60e&#45;48c4&#45;83ee&#45;e42599c2ec2e</title>
<path fill="none" stroke="black" stroke-dasharray="5,2" d="M134.71,-73.16C132.82,-64.79 130.72,-55.46 128.8,-46.93"/>
<polygon fill="black" stroke="black" points="132.02,-46.32 126.41,-37.34 125.19,-47.86 132.02,-46.32"/>
</g>
<!-- 466ebc54&#45;da55&#45;4389&#45;a09d&#45;0a5b19f66653 -->
<g id="node15" class="node">
<title>466ebc54&#45;da55&#45;4389&#45;a09d&#45;0a5b19f66653</title>
<polygon fill="white" stroke="black" points="493.5,-36 263.5,-36 263.5,0 493.5,0 493.5,-36"/>
<text text-anchor="middle" x="378.5" y="-14.3" font-family="Helvetica,sans-Serif" font-size="14.00">▶ Ran sandbox for `.isort.cfg`.</text>
</g>
<!-- b9cfef63&#45;80c4&#45;4f91&#45;8234&#45;392d04b79107&#45;&gt;466ebc54&#45;da55&#45;4389&#45;a09d&#45;0a5b19f66653 -->
<g id="edge5" class="edge">
<title>b9cfef63&#45;80c4&#45;4f91&#45;8234&#45;392d04b79107&#45;&gt;466ebc54&#45;da55&#45;4389&#45;a09d&#45;0a5b19f66653</title>
<path fill="none" stroke="black" stroke-dasharray="5,2" d="M388.67,-73.16C387.1,-64.79 385.35,-55.46 383.75,-46.93"/>
<polygon fill="black" stroke="black" points="387.04,-46.52 381.76,-37.34 380.16,-47.81 387.04,-46.52"/>
</g>
<!-- 310c2a05&#45;3669&#45;4c47&#45;b127&#45;3512d95fbf26 -->
<g id="node16" class="node">
<title>310c2a05&#45;3669&#45;4c47&#45;b127&#45;3512d95fbf26</title>
<polygon fill="white" stroke="black" points="747.5,-36 511.5,-36 511.5,0 747.5,0 747.5,-36"/>
<text text-anchor="middle" x="629.5" y="-14.3" font-family="Helvetica,sans-Serif" font-size="14.00">▶ Ran sandbox for `.prettierrc`.</text>
</g>
<!-- 43429682&#45;02a2&#45;4348&#45;a907&#45;bc1f06204365&#45;&gt;310c2a05&#45;3669&#45;4c47&#45;b127&#45;3512d95fbf26 -->
<g id="edge7" class="edge">
<title>43429682&#45;02a2&#45;4348&#45;a907&#45;bc1f06204365&#45;&gt;310c2a05&#45;3669&#45;4c47&#45;b127&#45;3512d95fbf26</title>
<path fill="none" stroke="black" stroke-dasharray="5,2" d="M631.52,-72.72C631.21,-64.46 630.86,-55.31 630.55,-46.93"/>
<polygon fill="black" stroke="black" points="634.02,-47.01 630.14,-37.15 627.02,-47.27 634.02,-47.01"/>
</g>
<!-- fc33c7e3&#45;f341&#45;4e57&#45;aa62&#45;9981653f01db -->
<g id="node17" class="node">
<title>fc33c7e3&#45;f341&#45;4e57&#45;aa62&#45;9981653f01db</title>
<polygon fill="white" stroke="black" points="979.5,-36 765.5,-36 765.5,0 979.5,0 979.5,-36"/>
<text text-anchor="middle" x="872.5" y="-14.3" font-family="Helvetica,sans-Serif" font-size="14.00">▶ Ran sandbox for `.shfmt`.</text>
</g>
<!-- bdc82258&#45;fbef&#45;474f&#45;b40f&#45;806c93183256&#45;&gt;fc33c7e3&#45;f341&#45;4e57&#45;aa62&#45;9981653f01db -->
<g id="edge9" class="edge">
<title>bdc82258&#45;fbef&#45;474f&#45;b40f&#45;806c93183256&#45;&gt;fc33c7e3&#45;f341&#45;4e57&#45;aa62&#45;9981653f01db</title>
<path fill="none" stroke="black" stroke-dasharray="5,2" d="M871.15,-72.72C871.36,-64.46 871.59,-55.31 871.8,-46.93"/>
<polygon fill="black" stroke="black" points="875.32,-47.23 872.07,-37.15 868.32,-47.06 875.32,-47.23"/>
</g>
<!-- c3882535&#45;2550&#45;4acf&#45;a7fe&#45;73f3007c54cd -->
<g id="node18" class="node">
<title>c3882535&#45;2550&#45;4acf&#45;a7fe&#45;73f3007c54cd</title>
<polygon fill="white" stroke="black" points="1237,-36 998,-36 998,0 1237,0 1237,-36"/>
<text text-anchor="middle" x="1117.5" y="-14.3" font-family="Helvetica,sans-Serif" font-size="14.00">▶ Ran sandbox for `taplo.toml`.</text>
</g>
<!-- 76e47e06&#45;1b72&#45;45f7&#45;964c&#45;f737ac1075b9&#45;&gt;c3882535&#45;2550&#45;4acf&#45;a7fe&#45;73f3007c54cd -->
<g id="edge11" class="edge">
<title>76e47e06&#45;1b72&#45;45f7&#45;964c&#45;f737ac1075b9&#45;&gt;c3882535&#45;2550&#45;4acf&#45;a7fe&#45;73f3007c54cd</title>
<path fill="none" stroke="black" stroke-dasharray="5,2" d="M1110.1,-72.72C1111.24,-64.46 1112.5,-55.31 1113.65,-46.93"/>
<polygon fill="black" stroke="black" points="1117.24,-47.53 1115.14,-37.15 1110.31,-46.58 1117.24,-47.53"/>
</g>
<!-- a72366c4&#45;257d&#45;43b9&#45;91ec&#45;03ccbe72d3ad -->
<g id="node19" class="node">
<title>a72366c4&#45;257d&#45;43b9&#45;91ec&#45;03ccbe72d3ad</title>
<polygon fill="white" stroke="black" points="1530,-36 1255,-36 1255,0 1530,0 1530,-36"/>
<text text-anchor="middle" x="1392.5" y="-14.3" font-family="Helvetica,sans-Serif" font-size="14.00">▶ Ran sandbox for `.trufflehog.json`.</text>
</g>
<!-- fd62e2b6&#45;fb40&#45;4568&#45;a3ce&#45;6ac65a62b0e5&#45;&gt;a72366c4&#45;257d&#45;43b9&#45;91ec&#45;03ccbe72d3ad -->
<g id="edge13" class="edge">
<title>fd62e2b6&#45;fb40&#45;4568&#45;a3ce&#45;6ac65a62b0e5&#45;&gt;a72366c4&#45;257d&#45;43b9&#45;91ec&#45;03ccbe72d3ad</title>
<path fill="none" stroke="black" stroke-dasharray="5,2" d="M1377.58,-73.16C1379.89,-64.79 1382.46,-55.46 1384.81,-46.93"/>
<polygon fill="black" stroke="black" points="1388.44,-47.91 1387.72,-37.34 1381.69,-46.05 1388.44,-47.91"/>
</g>
</g>
</svg>
