<?xml version="1.0" encoding="UTF-8" standalone="no"?>
<!DOCTYPE svg PUBLIC "-//W3C//DTD SVG 1.1//EN"
 "http://www.w3.org/Graphics/SVG/1.1/DTD/svg11.dtd">
<!-- Generated by graphviz version 2.43.0 (0)
 -->
<!-- Title: %3 Pages: 1 -->
<svg width="1481pt" height="238pt"
 viewBox="0.00 0.00 1480.50 237.74" xmlns="http://www.w3.org/2000/svg" xmlns:xlink="http://www.w3.org/1999/xlink">
<g id="graph0" class="graph" transform="scale(1 1) rotate(0) translate(36 201.74)">
<title>%3</title>
<polygon fill="dimgray" stroke="transparent" points="-36,36 -36,-201.74 1444.5,-201.74 1444.5,36 -36,36"/>
<text text-anchor="middle" x="704.25" y="-150.54" font-family="Helvetica,sans-Serif" font-size="14.00">Sweep&#39;s Plan &amp; Progress</text>
<!-- start -->
<g id="node1" class="node">
<title>start</title>
</g>
<!-- 67756d06&#45;6d52&#45;4c68&#45;8111&#45;1ef74f6a09ee -->
<g id="node3" class="node">
<title>67756d06&#45;6d52&#45;4c68&#45;8111&#45;1ef74f6a09ee</title>
<ellipse fill="#0ee832" stroke="black" cx="273" cy="-99.87" rx="195.74" ry="26.74"/>
<text text-anchor="middle" x="273" y="-103.67" font-family="Helvetica,sans-Serif" font-size="14.00">✓ Create</text>
<text text-anchor="middle" x="273" y="-88.67" font-family="Helvetica,sans-Serif" font-size="14.00">sweepai/agents/query_filter_agent.py</text>
</g>
<!-- start&#45;&gt;67756d06&#45;6d52&#45;4c68&#45;8111&#45;1ef74f6a09ee -->
<g id="edge6" class="edge">
<title>start&#45;&gt;67756d06&#45;6d52&#45;4c68&#45;8111&#45;1ef74f6a09ee</title>
<path fill="none" stroke="black" d="M25.71,-99.87C29.16,-99.87 44.91,-99.87 66.91,-99.87"/>
<polygon fill="black" stroke="black" points="67.07,-103.37 77.07,-99.87 67.07,-96.37 67.07,-103.37"/>
<text text-anchor="middle" x="51.32" y="-106.67" font-family="Helvetica,sans-Serif" font-size="14.00">Start</text>
</g>
<!-- end -->
<g id="node2" class="node">
<title>end</title>
</g>
<!-- e42d898e&#45;d125&#45;4cb2&#45;876a&#45;671bf69f2619 -->
<g id="node4" class="node">
<title>e42d898e&#45;d125&#45;4cb2&#45;876a&#45;671bf69f2619</title>
<ellipse fill="#0ee832" stroke="black" cx="689" cy="-99.87" rx="145.83" ry="26.74"/>
<text text-anchor="middle" x="689" y="-103.67" font-family="Helvetica,sans-Serif" font-size="14.00">✓ Modify</text>
<text text-anchor="middle" x="689" y="-88.67" font-family="Helvetica,sans-Serif" font-size="14.00">sweepai/utils/ticket_utils.py</text>
</g>
<!-- 67756d06&#45;6d52&#45;4c68&#45;8111&#45;1ef74f6a09ee&#45;&gt;e42d898e&#45;d125&#45;4cb2&#45;876a&#45;671bf69f2619 -->
<g id="edge2" class="edge">
<title>67756d06&#45;6d52&#45;4c68&#45;8111&#45;1ef74f6a09ee&#45;&gt;e42d898e&#45;d125&#45;4cb2&#45;876a&#45;671bf69f2619</title>
<path fill="none" stroke="black" d="M469.22,-99.87C490.46,-99.87 511.71,-99.87 532.96,-99.87"/>
<polygon fill="black" stroke="black" points="533.05,-103.37 543.05,-99.87 533.05,-96.37 533.05,-103.37"/>
</g>
<!-- b5cdd7be&#45;086e&#45;4c54&#45;9fb8&#45;fb881f7072bd -->
<g id="node6" class="node">
<title>b5cdd7be&#45;086e&#45;4c54&#45;9fb8&#45;fb881f7072bd</title>
<polygon fill="#0ee832" stroke="black" points="470,-36 0,-36 0,0 470,0 470,-36"/>
<text text-anchor="middle" x="235" y="-14.3" font-family="Helvetica,sans-Serif" font-size="14.00">✓ Run GitHub Actions for `sweepai/agents/query_filter_agent.py`</text>
</g>
<!-- 67756d06&#45;6d52&#45;4c68&#45;8111&#45;1ef74f6a09ee&#45;&gt;b5cdd7be&#45;086e&#45;4c54&#45;9fb8&#45;fb881f7072bd -->
<g id="edge1" class="edge">
<title>67756d06&#45;6d52&#45;4c68&#45;8111&#45;1ef74f6a09ee&#45;&gt;b5cdd7be&#45;086e&#45;4c54&#45;9fb8&#45;fb881f7072bd</title>
<path fill="none" stroke="black" stroke-dasharray="5,2" d="M260.56,-72.72C256.36,-63.9 251.68,-54.05 247.48,-45.23"/>
<polygon fill="black" stroke="black" points="250.61,-43.67 243.16,-36.15 244.29,-46.68 250.61,-43.67"/>
</g>
<!-- f6cce74a&#45;dccf&#45;460f&#45;b78f&#45;d8822e64321c -->
<g id="node5" class="node">
<title>f6cce74a&#45;dccf&#45;460f&#45;b78f&#45;d8822e64321c</title>
<ellipse fill="white" stroke="black" cx="1124" cy="-99.87" rx="219.41" ry="26.74"/>
<text text-anchor="middle" x="1124" y="-103.67" font-family="Helvetica,sans-Serif" font-size="14.00">▶ Create</text>
<text text-anchor="middle" x="1124" y="-88.67" font-family="Helvetica,sans-Serif" font-size="14.00">sweepai/agents/query_filter_agent_test.py</text>
</g>
<!-- e42d898e&#45;d125&#45;4cb2&#45;876a&#45;671bf69f2619&#45;&gt;f6cce74a&#45;dccf&#45;460f&#45;b78f&#45;d8822e64321c -->
<g id="edge4" class="edge">
<title>e42d898e&#45;d125&#45;4cb2&#45;876a&#45;671bf69f2619&#45;&gt;f6cce74a&#45;dccf&#45;460f&#45;b78f&#45;d8822e64321c</title>
<path fill="none" stroke="black" d="M834.71,-99.87C854.69,-99.87 874.67,-99.87 894.64,-99.87"/>
<polygon fill="black" stroke="black" points="894.77,-103.37 904.77,-99.87 894.77,-96.37 894.77,-103.37"/>
</g>
<!-- 76700335&#45;983b&#45;4983&#45;8f80&#45;9b3da632494f -->
<g id="node7" class="node">
<title>76700335&#45;983b&#45;4983&#45;8f80&#45;9b3da632494f</title>
<polygon fill="yellow" stroke="black" points="889.5,-36 488.5,-36 488.5,0 889.5,0 889.5,-36"/>
<text text-anchor="middle" x="689" y="-14.3" font-family="Helvetica,sans-Serif" font-size="14.00">⋯ Run GitHub Actions for `sweepai/utils/ticket_utils.py`</text>
</g>
<!-- e42d898e&#45;d125&#45;4cb2&#45;876a&#45;671bf69f2619&#45;&gt;76700335&#45;983b&#45;4983&#45;8f80&#45;9b3da632494f -->
<g id="edge3" class="edge">
<title>e42d898e&#45;d125&#45;4cb2&#45;876a&#45;671bf69f2619&#45;&gt;76700335&#45;983b&#45;4983&#45;8f80&#45;9b3da632494f</title>
<path fill="none" stroke="black" stroke-dasharray="5,2" d="M689,-72.72C689,-64.27 689,-54.89 689,-46.36"/>
<polygon fill="black" stroke="black" points="692.5,-46.15 689,-36.15 685.5,-46.15 692.5,-46.15"/>
</g>
<!-- f6cce74a&#45;dccf&#45;460f&#45;b78f&#45;d8822e64321c&#45;&gt;end -->
<g id="edge7" class="edge">
<title>f6cce74a&#45;dccf&#45;460f&#45;b78f&#45;d8822e64321c&#45;&gt;end</title>
<path fill="none" stroke="black" d="M1343.27,-99.87C1363.37,-99.87 1379.98,-99.87 1390.14,-99.87"/>
<polygon fill="black" stroke="black" points="1390.38,-103.37 1400.38,-99.87 1390.38,-96.37 1390.38,-103.37"/>
<text text-anchor="middle" x="1371.85" y="-106.67" font-family="Helvetica,sans-Serif" font-size="14.00">Finish</text>
</g>
<!-- 0beec6ff&#45;4ded&#45;47ee&#45;b59e&#45;8bb25b777177 -->
<g id="node8" class="node">
<title>0beec6ff&#45;4ded&#45;47ee&#45;b59e&#45;8bb25b777177</title>
<polygon fill="white" stroke="black" points="1408.5,-36 907.5,-36 907.5,0 1408.5,0 1408.5,-36"/>
<text text-anchor="middle" x="1158" y="-14.3" font-family="Helvetica,sans-Serif" font-size="14.00">▶ Run GitHub Actions for `sweepai/agents/query_filter_agent_test.py`</text>
</g>
<!-- f6cce74a&#45;dccf&#45;460f&#45;b78f&#45;d8822e64321c&#45;&gt;0beec6ff&#45;4ded&#45;47ee&#45;b59e&#45;8bb25b777177 -->
<g id="edge5" class="edge">
<title>f6cce74a&#45;dccf&#45;460f&#45;b78f&#45;d8822e64321c&#45;&gt;0beec6ff&#45;4ded&#45;47ee&#45;b59e&#45;8bb25b777177</title>
<path fill="none" stroke="black" stroke-dasharray="5,2" d="M1135.13,-72.72C1138.85,-63.99 1142.99,-54.26 1146.71,-45.51"/>
<polygon fill="black" stroke="black" points="1150,-46.72 1150.7,-36.15 1143.56,-43.98 1150,-46.72"/>
</g>
</g>
</svg>
