<?xml version="1.0" encoding="UTF-8" standalone="no"?>
<!DOCTYPE svg PUBLIC "-//W3C//DTD SVG 1.1//EN"
 "http://www.w3.org/Graphics/SVG/1.1/DTD/svg11.dtd">
<!-- Generated by graphviz version 8.0.3 (0)
 -->
<!-- Pages: 1 -->
<svg width="1386pt" height="238pt"
 viewBox="0.00 0.00 1385.50 237.74" xmlns="http://www.w3.org/2000/svg" xmlns:xlink="http://www.w3.org/1999/xlink">
<g id="graph0" class="graph" transform="scale(1 1) rotate(0) translate(36 201.74)">
<polygon fill="dimgray" stroke="none" points="-36,36 -36,-201.74 1349.5,-201.74 1349.5,36 -36,36"/>
<text text-anchor="middle" x="656.75" y="-150.54" font-family="Helvetica,sans-Serif" font-size="14.00">Sweep&#39;s Plan &amp; Progress</text>
<!-- start -->
<g id="node1" class="node">
<title>start</title>
</g>
<!-- febdec60&#45;b18b&#45;4ff8&#45;95c6&#45;45a0ce89b7c5 -->
<g id="node3" class="node">
<title>febdec60&#45;b18b&#45;4ff8&#45;95c6&#45;45a0ce89b7c5</title>
<ellipse fill="#0ee832" stroke="black" cx="249.5" cy="-99.87" rx="162.77" ry="26.74"/>
<text text-anchor="middle" x="249.5" y="-103.67" font-family="Helvetica,sans-Serif" font-size="14.00">✓ Create</text>
<text text-anchor="middle" x="249.5" y="-88.67" font-family="Helvetica,sans-Serif" font-size="14.00">sweepai/agents/filter_agent.py</text>
</g>
<!-- start&#45;&gt;febdec60&#45;b18b&#45;4ff8&#45;95c6&#45;45a0ce89b7c5 -->
<g id="edge6" class="edge">
<title>start&#45;&gt;febdec60&#45;b18b&#45;4ff8&#45;95c6&#45;45a0ce89b7c5</title>
<path fill="none" stroke="black" d="M34.66,-99.87C36.4,-99.87 52.59,-99.87 75.38,-99.87"/>
<polygon fill="black" stroke="black" points="75.29,-103.37 85.29,-99.87 75.29,-96.37 75.29,-103.37"/>
<text text-anchor="middle" x="60.93" y="-106.67" font-family="Helvetica,sans-Serif" font-size="14.00">Start</text>
</g>
<!-- end -->
<g id="node2" class="node">
<title>end</title>
</g>
<!-- 6fe4530d&#45;3e98&#45;4f9d&#45;914d&#45;ec32a53d1c67 -->
<g id="node4" class="node">
<title>6fe4530d&#45;3e98&#45;4f9d&#45;914d&#45;ec32a53d1c67</title>
<ellipse fill="white" stroke="black" cx="670.5" cy="-99.87" rx="185.94" ry="26.74"/>
<text text-anchor="middle" x="670.5" y="-103.67" font-family="Helvetica,sans-Serif" font-size="14.00">▶ Create</text>
<text text-anchor="middle" x="670.5" y="-88.67" font-family="Helvetica,sans-Serif" font-size="14.00">sweepai/agents/filter_agent_test.py</text>
</g>
<!-- febdec60&#45;b18b&#45;4ff8&#45;95c6&#45;45a0ce89b7c5&#45;&gt;6fe4530d&#45;3e98&#45;4f9d&#45;914d&#45;ec32a53d1c67 -->
<g id="edge2" class="edge">
<title>febdec60&#45;b18b&#45;4ff8&#45;95c6&#45;45a0ce89b7c5&#45;&gt;6fe4530d&#45;3e98&#45;4f9d&#45;914d&#45;ec32a53d1c67</title>
<path fill="none" stroke="black" d="M412.72,-99.87C432.92,-99.87 453.12,-99.87 473.32,-99.87"/>
<polygon fill="black" stroke="black" points="473.21,-103.37 483.21,-99.87 473.21,-96.37 473.21,-103.37"/>
</g>
<!-- 378af0ef&#45;c748&#45;4ede&#45;a404&#45;953ec5aa7166 -->
<g id="node6" class="node">
<title>378af0ef&#45;c748&#45;4ede&#45;a404&#45;953ec5aa7166</title>
<polygon fill="yellow" stroke="black" points="425,-36 0,-36 0,0 425,0 425,-36"/>
<text text-anchor="middle" x="212.5" y="-14.3" font-family="Helvetica,sans-Serif" font-size="14.00">⋯ Run GitHub Actions for `sweepai/agents/filter_agent.py`</text>
</g>
<!-- febdec60&#45;b18b&#45;4ff8&#45;95c6&#45;45a0ce89b7c5&#45;&gt;378af0ef&#45;c748&#45;4ede&#45;a404&#45;953ec5aa7166 -->
<g id="edge1" class="edge">
<title>febdec60&#45;b18b&#45;4ff8&#45;95c6&#45;45a0ce89b7c5&#45;&gt;378af0ef&#45;c748&#45;4ede&#45;a404&#45;953ec5aa7166</title>
<path fill="none" stroke="black" stroke-dasharray="5,2" d="M237.38,-72.72C233.43,-64.18 229.03,-54.68 225.04,-46.08"/>
<polygon fill="black" stroke="black" points="227.82,-44.75 220.44,-37.15 221.47,-47.69 227.82,-44.75"/>
</g>
<!-- f2c8d47a&#45;340b&#45;41ca&#45;be35&#45;f1e66724c46e -->
<g id="node5" class="node">
<title>f2c8d47a&#45;340b&#45;41ca&#45;be35&#45;f1e66724c46e</title>
<ellipse fill="white" stroke="black" cx="1076.5" cy="-99.87" rx="145.83" ry="26.74"/>
<text text-anchor="middle" x="1076.5" y="-103.67" font-family="Helvetica,sans-Serif" font-size="14.00">▶ Modify</text>
<text text-anchor="middle" x="1076.5" y="-88.67" font-family="Helvetica,sans-Serif" font-size="14.00">sweepai/utils/ticket_utils.py</text>
</g>
<!-- 6fe4530d&#45;3e98&#45;4f9d&#45;914d&#45;ec32a53d1c67&#45;&gt;f2c8d47a&#45;340b&#45;41ca&#45;be35&#45;f1e66724c46e -->
<g id="edge4" class="edge">
<title>6fe4530d&#45;3e98&#45;4f9d&#45;914d&#45;ec32a53d1c67&#45;&gt;f2c8d47a&#45;340b&#45;41ca&#45;be35&#45;f1e66724c46e</title>
<path fill="none" stroke="black" d="M856.85,-99.87C877.67,-99.87 898.49,-99.87 919.32,-99.87"/>
<polygon fill="black" stroke="black" points="919.21,-103.37 929.21,-99.87 919.21,-96.37 919.21,-103.37"/>
</g>
<!-- 2b81e414&#45;bb7c&#45;4db8&#45;b016&#45;86c3d4de2fae -->
<g id="node7" class="node">
<title>2b81e414&#45;bb7c&#45;4db8&#45;b016&#45;86c3d4de2fae</title>
<polygon fill="white" stroke="black" points="897.5,-36 443.5,-36 443.5,0 897.5,0 897.5,-36"/>
<text text-anchor="middle" x="670.5" y="-14.3" font-family="Helvetica,sans-Serif" font-size="14.00">▶ Run GitHub Actions for `sweepai/agents/filter_agent_test.py`</text>
</g>
<!-- 6fe4530d&#45;3e98&#45;4f9d&#45;914d&#45;ec32a53d1c67&#45;&gt;2b81e414&#45;bb7c&#45;4db8&#45;b016&#45;86c3d4de2fae -->
<g id="edge3" class="edge">
<title>6fe4530d&#45;3e98&#45;4f9d&#45;914d&#45;ec32a53d1c67&#45;&gt;2b81e414&#45;bb7c&#45;4db8&#45;b016&#45;86c3d4de2fae</title>
<path fill="none" stroke="black" stroke-dasharray="5,2" d="M670.5,-72.72C670.5,-64.46 670.5,-55.31 670.5,-46.93"/>
<polygon fill="black" stroke="black" points="674,-47.15 670.5,-37.15 667,-47.15 674,-47.15"/>
</g>
<!-- f2c8d47a&#45;340b&#45;41ca&#45;be35&#45;f1e66724c46e&#45;&gt;end -->
<g id="edge7" class="edge">
<title>f2c8d47a&#45;340b&#45;41ca&#45;be35&#45;f1e66724c46e&#45;&gt;end</title>
<path fill="none" stroke="black" d="M1222.59,-99.87C1242.23,-99.87 1259.16,-99.87 1269.56,-99.87"/>
<polygon fill="black" stroke="black" points="1269.21,-103.37 1279.21,-99.87 1269.21,-96.37 1269.21,-103.37"/>
<text text-anchor="middle" x="1251.08" y="-106.67" font-family="Helvetica,sans-Serif" font-size="14.00">Finish</text>
</g>
<!-- fd3cb271&#45;33f7&#45;41e1&#45;8f96&#45;87838a379873 -->
<g id="node8" class="node">
<title>fd3cb271&#45;33f7&#45;41e1&#45;8f96&#45;87838a379873</title>
<polygon fill="white" stroke="black" points="1313.5,-36 915.5,-36 915.5,0 1313.5,0 1313.5,-36"/>
<text text-anchor="middle" x="1114.5" y="-14.3" font-family="Helvetica,sans-Serif" font-size="14.00">▶ Run GitHub Actions for `sweepai/utils/ticket_utils.py`</text>
</g>
<!-- f2c8d47a&#45;340b&#45;41ca&#45;be35&#45;f1e66724c46e&#45;&gt;fd3cb271&#45;33f7&#45;41e1&#45;8f96&#45;87838a379873 -->
<g id="edge5" class="edge">
<title>f2c8d47a&#45;340b&#45;41ca&#45;be35&#45;f1e66724c46e&#45;&gt;fd3cb271&#45;33f7&#45;41e1&#45;8f96&#45;87838a379873</title>
<path fill="none" stroke="black" stroke-dasharray="5,2" d="M1088.73,-73.16C1092.85,-64.51 1097.45,-54.83 1101.62,-46.07"/>
<polygon fill="black" stroke="black" points="1105.12,-47.87 1106.25,-37.34 1098.79,-44.86 1105.12,-47.87"/>
</g>
</g>
</svg>
