<?xml version="1.0" encoding="UTF-8" standalone="no"?>
<!DOCTYPE svg PUBLIC "-//W3C//DTD SVG 1.1//EN"
 "http://www.w3.org/Graphics/SVG/1.1/DTD/svg11.dtd">
<!-- Generated by graphviz version 8.0.3 (0)
 -->
<!-- Pages: 1 -->
<svg width="983pt" height="415pt"
 viewBox="0.00 0.00 982.50 415.48" xmlns="http://www.w3.org/2000/svg" xmlns:xlink="http://www.w3.org/1999/xlink">
<g id="graph0" class="graph" transform="scale(1 1) rotate(0) translate(36 379.48)">
<polygon fill="dimgray" stroke="none" points="-36,36 -36,-379.48 946.5,-379.48 946.5,36 -36,36"/>
<text text-anchor="middle" x="455.25" y="-328.28" font-family="Helvetica,sans-Serif" font-size="14.00">Sweep&#39;s Plan &amp; Progress</text>
<!-- start -->
<g id="node1" class="node">
<title>start</title>
</g>
<!-- 19b0773e&#45;a0dd&#45;4d4a&#45;bc99&#45;f7b0be110d4b -->
<g id="node3" class="node">
<title>19b0773e&#45;a0dd&#45;4d4a&#45;bc99&#45;f7b0be110d4b</title>
<ellipse fill="#0ee832" stroke="black" cx="451" cy="-277.61" rx="84.71" ry="26.74"/>
<text text-anchor="middle" x="451" y="-281.41" font-family="Helvetica,sans-Serif" font-size="14.00">✓ Modify</text>
<text text-anchor="middle" x="451" y="-266.41" font-family="Helvetica,sans-Serif" font-size="14.00">sweepai/api.py</text>
</g>
<!-- start&#45;&gt;19b0773e&#45;a0dd&#45;4d4a&#45;bc99&#45;f7b0be110d4b -->
<g id="edge7" class="edge">
<title>start&#45;&gt;19b0773e&#45;a0dd&#45;4d4a&#45;bc99&#45;f7b0be110d4b</title>
<path fill="none" stroke="black" d="M314.39,-277.61C317.15,-277.61 334.04,-277.61 355.06,-277.61"/>
<polygon fill="black" stroke="black" points="355.03,-281.11 365.03,-277.61 355.03,-274.11 355.03,-281.11"/>
<text text-anchor="middle" x="340.32" y="-284.41" font-family="Helvetica,sans-Serif" font-size="14.00">Start</text>
</g>
<!-- end -->
<g id="node2" class="node">
<title>end</title>
</g>
<!-- ae80fa7f&#45;2018&#45;41e0&#45;8fde&#45;116e5a869112 -->
<g id="node4" class="node">
<title>ae80fa7f&#45;2018&#45;41e0&#45;8fde&#45;116e5a869112</title>
<ellipse fill="white" stroke="black" cx="719" cy="-277.61" rx="108.38" ry="26.74"/>
<text text-anchor="middle" x="719" y="-281.41" font-family="Helvetica,sans-Serif" font-size="14.00">▶ Create</text>
<text text-anchor="middle" x="719" y="-266.41" font-family="Helvetica,sans-Serif" font-size="14.00">sweepai/api_test.py</text>
</g>
<!-- 19b0773e&#45;a0dd&#45;4d4a&#45;bc99&#45;f7b0be110d4b&#45;&gt;ae80fa7f&#45;2018&#45;41e0&#45;8fde&#45;116e5a869112 -->
<g id="edge5" class="edge">
<title>19b0773e&#45;a0dd&#45;4d4a&#45;bc99&#45;f7b0be110d4b&#45;&gt;ae80fa7f&#45;2018&#45;41e0&#45;8fde&#45;116e5a869112</title>
<path fill="none" stroke="black" d="M536.06,-277.61C557.25,-277.61 578.44,-277.61 599.64,-277.61"/>
<polygon fill="black" stroke="black" points="599.38,-281.11 609.38,-277.61 599.38,-274.11 599.38,-281.11"/>
</g>
<!-- 0e279427&#45;2e3d&#45;4a30&#45;873e&#45;9fdd01c2411d -->
<g id="node5" class="node">
<title>0e279427&#45;2e3d&#45;4a30&#45;873e&#45;9fdd01c2411d</title>
<polygon fill="#ee0000" stroke="black" points="297,-213.74 23,-213.74 23,-177.74 297,-177.74 297,-213.74"/>
<text text-anchor="middle" x="160" y="-192.04" font-family="Helvetica,sans-Serif" font-size="14.00">✗ Ran sandbox for `sweepai/api.py`.</text>
</g>
<!-- 19b0773e&#45;a0dd&#45;4d4a&#45;bc99&#45;f7b0be110d4b&#45;&gt;0e279427&#45;2e3d&#45;4a30&#45;873e&#45;9fdd01c2411d -->
<g id="edge1" class="edge">
<title>19b0773e&#45;a0dd&#45;4d4a&#45;bc99&#45;f7b0be110d4b&#45;&gt;0e279427&#45;2e3d&#45;4a30&#45;873e&#45;9fdd01c2411d</title>
<path fill="none" stroke="black" stroke-dasharray="5,2" d="M388.22,-259.38C343.01,-246.97 281.86,-230.19 234.24,-217.12"/>
<polygon fill="black" stroke="black" points="235.25,-213.49 224.68,-214.22 233.39,-220.24 235.25,-213.49"/>
</g>
<!-- c9ceb009&#45;66a6&#45;47fd&#45;848a&#45;1bed97e105b8 -->
<g id="node6" class="node">
<title>c9ceb009&#45;66a6&#45;47fd&#45;848a&#45;1bed97e105b8</title>
<polygon fill="white" stroke="black" points="587,-213.74 315,-213.74 315,-177.74 587,-177.74 587,-213.74"/>
<text text-anchor="middle" x="451" y="-192.04" font-family="Helvetica,sans-Serif" font-size="14.00">▶ Ran sandbox for `sweepai/api.py`.</text>
</g>
<!-- 19b0773e&#45;a0dd&#45;4d4a&#45;bc99&#45;f7b0be110d4b&#45;&gt;c9ceb009&#45;66a6&#45;47fd&#45;848a&#45;1bed97e105b8 -->
<g id="edge4" class="edge">
<title>19b0773e&#45;a0dd&#45;4d4a&#45;bc99&#45;f7b0be110d4b&#45;&gt;c9ceb009&#45;66a6&#45;47fd&#45;848a&#45;1bed97e105b8</title>
<path fill="none" stroke="black" stroke-dasharray="5,2" d="M451,-250.46C451,-242.2 451,-233.05 451,-224.67"/>
<polygon fill="black" stroke="black" points="454.5,-224.89 451,-214.89 447.5,-224.89 454.5,-224.89"/>
</g>
<!-- ae80fa7f&#45;2018&#45;41e0&#45;8fde&#45;116e5a869112&#45;&gt;end -->
<g id="edge8" class="edge">
<title>ae80fa7f&#45;2018&#45;41e0&#45;8fde&#45;116e5a869112&#45;&gt;end</title>
<path fill="none" stroke="black" d="M827.87,-277.61C846.66,-277.61 863.49,-277.61 873.93,-277.61"/>
<polygon fill="black" stroke="black" points="873.7,-281.11 883.7,-277.61 873.7,-274.11 873.7,-281.11"/>
<text text-anchor="middle" x="855.84" y="-284.41" font-family="Helvetica,sans-Serif" font-size="14.00">Finish</text>
</g>
<!-- 1543f3f9&#45;fa81&#45;4749&#45;a76b&#45;154280b873f4 -->
<g id="node7" class="node">
<title>1543f3f9&#45;fa81&#45;4749&#45;a76b&#45;154280b873f4</title>
<polygon fill="white" stroke="black" points="910.5,-213.74 605.5,-213.74 605.5,-177.74 910.5,-177.74 910.5,-213.74"/>
<text text-anchor="middle" x="758" y="-192.04" font-family="Helvetica,sans-Serif" font-size="14.00">▶ Ran sandbox for `sweepai/api_test.py`.</text>
</g>
<!-- ae80fa7f&#45;2018&#45;41e0&#45;8fde&#45;116e5a869112&#45;&gt;1543f3f9&#45;fa81&#45;4749&#45;a76b&#45;154280b873f4 -->
<g id="edge6" class="edge">
<title>ae80fa7f&#45;2018&#45;41e0&#45;8fde&#45;116e5a869112&#45;&gt;1543f3f9&#45;fa81&#45;4749&#45;a76b&#45;154280b873f4</title>
<path fill="none" stroke="black" stroke-dasharray="5,2" d="M731.55,-250.9C735.78,-242.25 740.51,-232.57 744.78,-223.81"/>
<polygon fill="black" stroke="black" points="748.29,-225.6 749.53,-215.08 742,-222.53 748.29,-225.6"/>
</g>
<!-- 9697e3bc&#45;d51f&#45;4db2&#45;bfde&#45;93181385cff1 -->
<g id="node8" class="node">
<title>9697e3bc&#45;d51f&#45;4db2&#45;bfde&#45;93181385cff1</title>
<ellipse fill="yellow" stroke="black" cx="160" cy="-99.87" rx="118.17" ry="26.74"/>
<text text-anchor="middle" x="160" y="-103.67" font-family="Helvetica,sans-Serif" font-size="14.00">⋯ Create</text>
<text text-anchor="middle" x="160" y="-88.67" font-family="Helvetica,sans-Serif" font-size="14.00">repo/sdk/src/agent.py</text>
</g>
<!-- 0e279427&#45;2e3d&#45;4a30&#45;873e&#45;9fdd01c2411d&#45;&gt;9697e3bc&#45;d51f&#45;4db2&#45;bfde&#45;93181385cff1 -->
<g id="edge2" class="edge">
<title>0e279427&#45;2e3d&#45;4a30&#45;873e&#45;9fdd01c2411d&#45;&gt;9697e3bc&#45;d51f&#45;4db2&#45;bfde&#45;93181385cff1</title>
<path fill="none" stroke="black" d="M160,-177.52C160,-166.33 160,-151.31 160,-137.53"/>
<polygon fill="black" stroke="black" points="163.5,-137.84 160,-127.84 156.5,-137.84 163.5,-137.84"/>
<text text-anchor="middle" x="257.5" y="-148.54" font-family="Helvetica,sans-Serif" font-size="14.00">Additional changes required</text>
</g>
<!-- c1683dcb&#45;7a18&#45;4d71&#45;b263&#45;4899a207afda -->
<g id="node9" class="node">
<title>c1683dcb&#45;7a18&#45;4d71&#45;b263&#45;4899a207afda</title>
<polygon fill="white" stroke="black" points="320,-36 0,-36 0,0 320,0 320,-36"/>
<text text-anchor="middle" x="160" y="-14.3" font-family="Helvetica,sans-Serif" font-size="14.00">▶ Ran sandbox for `repo/sdk/src/agent.py`.</text>
</g>
<!-- 9697e3bc&#45;d51f&#45;4db2&#45;bfde&#45;93181385cff1&#45;&gt;c1683dcb&#45;7a18&#45;4d71&#45;b263&#45;4899a207afda -->
<g id="edge3" class="edge">
<title>9697e3bc&#45;d51f&#45;4db2&#45;bfde&#45;93181385cff1&#45;&gt;c1683dcb&#45;7a18&#45;4d71&#45;b263&#45;4899a207afda</title>
<path fill="none" stroke="black" stroke-dasharray="5,2" d="M160,-72.72C160,-64.46 160,-55.31 160,-46.93"/>
<polygon fill="black" stroke="black" points="163.5,-47.15 160,-37.15 156.5,-47.15 163.5,-47.15"/>
</g>
</g>
</svg>
