<?xml version="1.0" encoding="UTF-8" standalone="no"?>
<!DOCTYPE svg PUBLIC "-//W3C//DTD SVG 1.1//EN"
 "http://www.w3.org/Graphics/SVG/1.1/DTD/svg11.dtd">
<!-- Generated by graphviz version 8.0.3 (0)
 -->
<!-- Pages: 1 -->
<svg width="869pt" height="238pt"
 viewBox="0.00 0.00 869.00 237.74" xmlns="http://www.w3.org/2000/svg" xmlns:xlink="http://www.w3.org/1999/xlink">
<g id="graph0" class="graph" transform="scale(1 1) rotate(0) translate(36 201.74)">
<polygon fill="dimgray" stroke="none" points="-36,36 -36,-201.74 833,-201.74 833,36 -36,36"/>
<text text-anchor="middle" x="398.5" y="-150.54" font-family="Helvetica,sans-Serif" font-size="14.00">Sweep&#39;s Plan &amp; Progress</text>
<!-- start -->
<g id="node1" class="node">
<title>start</title>
</g>
<!-- 72f86bab&#45;2b8c&#45;469d&#45;b3bd&#45;20d00fa7784b -->
<g id="node3" class="node">
<title>72f86bab&#45;2b8c&#45;469d&#45;b3bd&#45;20d00fa7784b</title>
<ellipse fill="#ee0000" stroke="black" cx="212.5" cy="-99.87" rx="159.61" ry="26.74"/>
<text text-anchor="middle" x="212.5" y="-103.67" font-family="Helvetica,sans-Serif" font-size="14.00">✗ Modify</text>
<text text-anchor="middle" x="212.5" y="-88.67" font-family="Helvetica,sans-Serif" font-size="14.00">sweepai/handlers/on_ticket.py</text>
</g>
<!-- start&#45;&gt;72f86bab&#45;2b8c&#45;469d&#45;b3bd&#45;20d00fa7784b -->
<g id="edge4" class="edge">
<title>start&#45;&gt;72f86bab&#45;2b8c&#45;469d&#45;b3bd&#45;20d00fa7784b</title>
<path fill="none" stroke="black" d="M0.65,-99.87C2.39,-99.87 18.75,-99.87 41.67,-99.87"/>
<polygon fill="black" stroke="black" points="41.63,-103.37 51.63,-99.87 41.63,-96.37 41.63,-103.37"/>
<text text-anchor="middle" x="26.85" y="-106.67" font-family="Helvetica,sans-Serif" font-size="14.00">Start</text>
</g>
<!-- end -->
<g id="node2" class="node">
<title>end</title>
</g>
<!-- 1f1b5a34&#45;b7f6&#45;4b4d&#45;8b5c&#45;78bd5ab4f29e -->
<g id="node4" class="node">
<title>1f1b5a34&#45;b7f6&#45;4b4d&#45;8b5c&#45;78bd5ab4f29e</title>
<ellipse fill="white" stroke="black" cx="578.5" cy="-99.87" rx="159.61" ry="26.74"/>
<text text-anchor="middle" x="578.5" y="-103.67" font-family="Helvetica,sans-Serif" font-size="14.00">▶ Modify</text>
<text text-anchor="middle" x="578.5" y="-88.67" font-family="Helvetica,sans-Serif" font-size="14.00">sweepai/handlers/on_ticket.py</text>
</g>
<!-- 72f86bab&#45;2b8c&#45;469d&#45;b3bd&#45;20d00fa7784b&#45;&gt;1f1b5a34&#45;b7f6&#45;4b4d&#45;8b5c&#45;78bd5ab4f29e -->
<g id="edge2" class="edge">
<title>72f86bab&#45;2b8c&#45;469d&#45;b3bd&#45;20d00fa7784b&#45;&gt;1f1b5a34&#45;b7f6&#45;4b4d&#45;8b5c&#45;78bd5ab4f29e</title>
<path fill="none" stroke="black" d="M372.27,-99.87C384.09,-99.87 395.91,-99.87 407.73,-99.87"/>
<polygon fill="black" stroke="black" points="407.59,-103.37 417.59,-99.87 407.59,-96.37 407.59,-103.37"/>
</g>
<!-- 60d2c0b4&#45;2001&#45;4209&#45;a27b&#45;35bf09e0eba2 -->
<g id="node5" class="node">
<title>60d2c0b4&#45;2001&#45;4209&#45;a27b&#45;35bf09e0eba2</title>
<polygon fill="#ee0000" stroke="black" points="381.5,-36 1.5,-36 1.5,0 381.5,0 381.5,-36"/>
<text text-anchor="middle" x="191.5" y="-14.3" font-family="Helvetica,sans-Serif" font-size="14.00">✗ Ran sandbox for `sweepai/handlers/on_ticket.py`.</text>
</g>
<!-- 72f86bab&#45;2b8c&#45;469d&#45;b3bd&#45;20d00fa7784b&#45;&gt;60d2c0b4&#45;2001&#45;4209&#45;a27b&#45;35bf09e0eba2 -->
<g id="edge1" class="edge">
<title>72f86bab&#45;2b8c&#45;469d&#45;b3bd&#45;20d00fa7784b&#45;&gt;60d2c0b4&#45;2001&#45;4209&#45;a27b&#45;35bf09e0eba2</title>
<path fill="none" stroke="black" stroke-dasharray="5,2" d="M205.62,-72.72C203.43,-64.37 200.99,-55.1 198.77,-46.65"/>
<polygon fill="black" stroke="black" points="201.94,-45.93 196.01,-37.15 195.17,-47.71 201.94,-45.93"/>
</g>
<!-- 1f1b5a34&#45;b7f6&#45;4b4d&#45;8b5c&#45;78bd5ab4f29e&#45;&gt;end -->
<g id="edge5" class="edge">
<title>1f1b5a34&#45;b7f6&#45;4b4d&#45;8b5c&#45;78bd5ab4f29e&#45;&gt;end</title>
<path fill="none" stroke="black" d="M738.37,-99.87C758,-99.87 774.8,-99.87 785.22,-99.87"/>
<polygon fill="black" stroke="black" points="785.21,-103.37 795.21,-99.87 785.21,-96.37 785.21,-103.37"/>
<text text-anchor="middle" x="767.15" y="-106.67" font-family="Helvetica,sans-Serif" font-size="14.00">Finish</text>
</g>
<!-- fcfe6720&#45;35e1&#45;443b&#45;8404&#45;3c8a38343b05 -->
<g id="node6" class="node">
<title>fcfe6720&#45;35e1&#45;443b&#45;8404&#45;3c8a38343b05</title>
<polygon fill="white" stroke="black" points="777.5,-36 399.5,-36 399.5,0 777.5,0 777.5,-36"/>
<text text-anchor="middle" x="588.5" y="-14.3" font-family="Helvetica,sans-Serif" font-size="14.00">▶ Ran sandbox for `sweepai/handlers/on_ticket.py`.</text>
</g>
<!-- 1f1b5a34&#45;b7f6&#45;4b4d&#45;8b5c&#45;78bd5ab4f29e&#45;&gt;fcfe6720&#45;35e1&#45;443b&#45;8404&#45;3c8a38343b05 -->
<g id="edge3" class="edge">
<title>1f1b5a34&#45;b7f6&#45;4b4d&#45;8b5c&#45;78bd5ab4f29e&#45;&gt;fcfe6720&#45;35e1&#45;443b&#45;8404&#45;3c8a38343b05</title>
<path fill="none" stroke="black" stroke-dasharray="5,2" d="M581.77,-72.72C582.81,-64.46 583.95,-55.31 585,-46.93"/>
<polygon fill="black" stroke="black" points="588.58,-47.5 586.35,-37.15 581.64,-46.63 588.58,-47.5"/>
</g>
</g>
</svg>
