<?xml version="1.0" encoding="UTF-8" standalone="no"?>
<!DOCTYPE svg PUBLIC "-//W3C//DTD SVG 1.1//EN"
 "http://www.w3.org/Graphics/SVG/1.1/DTD/svg11.dtd">
<!-- Generated by graphviz version 2.43.0 (0)
 -->
<!-- Title: %3 Pages: 1 -->
<svg width="914pt" height="238pt"
 viewBox="0.00 0.00 913.50 237.74" xmlns="http://www.w3.org/2000/svg" xmlns:xlink="http://www.w3.org/1999/xlink">
<g id="graph0" class="graph" transform="scale(1 1) rotate(0) translate(36 201.74)">
<title>%3</title>
<polygon fill="dimgray" stroke="transparent" points="-36,36 -36,-201.74 877.5,-201.74 877.5,36 -36,36"/>
<text text-anchor="middle" x="420.75" y="-150.54" font-family="Helvetica,sans-Serif" font-size="14.00">Sweep&#39;s Plan &amp; Progress</text>
<!-- start -->
<g id="node1" class="node">
<title>start</title>
</g>
<!-- 4dc665b2&#45;d513&#45;4714&#45;a3ed&#45;d49bae03ae4f -->
<g id="node3" class="node">
<title>4dc665b2&#45;d513&#45;4714&#45;a3ed&#45;d49bae03ae4f</title>
<ellipse fill="#0ee832" stroke="black" cx="255.5" cy="-99.87" rx="162.77" ry="26.74"/>
<text text-anchor="middle" x="255.5" y="-103.67" font-family="Helvetica,sans-Serif" font-size="14.00">✓ Create</text>
<text text-anchor="middle" x="255.5" y="-88.67" font-family="Helvetica,sans-Serif" font-size="14.00">sweepai/agents/filter_agent.py</text>
</g>
<!-- start&#45;&gt;4dc665b2&#45;d513&#45;4714&#45;a3ed&#45;d49bae03ae4f -->
<g id="edge4" class="edge">
<title>start&#45;&gt;4dc665b2&#45;d513&#45;4714&#45;a3ed&#45;d49bae03ae4f</title>
<path fill="none" stroke="black" d="M41.12,-99.87C44.4,-99.87 60.5,-99.87 82.52,-99.87"/>
<polygon fill="black" stroke="black" points="82.67,-103.37 92.67,-99.87 82.67,-96.37 82.67,-103.37"/>
<text text-anchor="middle" x="66.93" y="-106.67" font-family="Helvetica,sans-Serif" font-size="14.00">Start</text>
</g>
<!-- end -->
<g id="node2" class="node">
<title>end</title>
</g>
<!-- 2a63c390&#45;0b7c&#45;443b&#45;bc26&#45;308f86b7f286 -->
<g id="node4" class="node">
<title>2a63c390&#45;0b7c&#45;443b&#45;bc26&#45;308f86b7f286</title>
<ellipse fill="white" stroke="black" cx="621.5" cy="-99.87" rx="145.83" ry="26.74"/>
<text text-anchor="middle" x="621.5" y="-103.67" font-family="Helvetica,sans-Serif" font-size="14.00">▶ Modify</text>
<text text-anchor="middle" x="621.5" y="-88.67" font-family="Helvetica,sans-Serif" font-size="14.00">sweepai/utils/ticket_utils.py</text>
</g>
<!-- 4dc665b2&#45;d513&#45;4714&#45;a3ed&#45;d49bae03ae4f&#45;&gt;2a63c390&#45;0b7c&#45;443b&#45;bc26&#45;308f86b7f286 -->
<g id="edge2" class="edge">
<title>4dc665b2&#45;d513&#45;4714&#45;a3ed&#45;d49bae03ae4f&#45;&gt;2a63c390&#45;0b7c&#45;443b&#45;bc26&#45;308f86b7f286</title>
<path fill="none" stroke="black" d="M418.48,-99.87C434.1,-99.87 449.71,-99.87 465.32,-99.87"/>
<polygon fill="black" stroke="black" points="465.58,-103.37 475.58,-99.87 465.58,-96.37 465.58,-103.37"/>
</g>
<!-- 5681eecf&#45;080e&#45;4f20&#45;ba01&#45;9610e7944434 -->
<g id="node5" class="node">
<title>5681eecf&#45;080e&#45;4f20&#45;ba01&#45;9610e7944434</title>
<polygon fill="yellow" stroke="black" points="425,-36 0,-36 0,0 425,0 425,-36"/>
<text text-anchor="middle" x="212.5" y="-14.3" font-family="Helvetica,sans-Serif" font-size="14.00">⋯ Run GitHub Actions for `sweepai/agents/filter_agent.py`</text>
</g>
<!-- 4dc665b2&#45;d513&#45;4714&#45;a3ed&#45;d49bae03ae4f&#45;&gt;5681eecf&#45;080e&#45;4f20&#45;ba01&#45;9610e7944434 -->
<g id="edge1" class="edge">
<title>4dc665b2&#45;d513&#45;4714&#45;a3ed&#45;d49bae03ae4f&#45;&gt;5681eecf&#45;080e&#45;4f20&#45;ba01&#45;9610e7944434</title>
<path fill="none" stroke="black" stroke-dasharray="5,2" d="M241.42,-72.72C236.67,-63.9 231.37,-54.05 226.62,-45.23"/>
<polygon fill="black" stroke="black" points="229.55,-43.29 221.73,-36.15 223.39,-46.61 229.55,-43.29"/>
</g>
<!-- 2a63c390&#45;0b7c&#45;443b&#45;bc26&#45;308f86b7f286&#45;&gt;end -->
<g id="edge5" class="edge">
<title>2a63c390&#45;0b7c&#45;443b&#45;bc26&#45;308f86b7f286&#45;&gt;end</title>
<path fill="none" stroke="black" d="M767.31,-99.87C787.07,-99.87 804.12,-99.87 814.57,-99.87"/>
<polygon fill="black" stroke="black" points="814.85,-103.37 824.85,-99.87 814.85,-96.37 814.85,-103.37"/>
<text text-anchor="middle" x="796.08" y="-106.67" font-family="Helvetica,sans-Serif" font-size="14.00">Finish</text>
</g>
<!-- 927efd7e&#45;1e33&#45;447c&#45;a2bc&#45;3c895391a71d -->
<g id="node6" class="node">
<title>927efd7e&#45;1e33&#45;447c&#45;a2bc&#45;3c895391a71d</title>
<polygon fill="white" stroke="black" points="841.5,-36 443.5,-36 443.5,0 841.5,0 841.5,-36"/>
<text text-anchor="middle" x="642.5" y="-14.3" font-family="Helvetica,sans-Serif" font-size="14.00">▶ Run GitHub Actions for `sweepai/utils/ticket_utils.py`</text>
</g>
<!-- 2a63c390&#45;0b7c&#45;443b&#45;bc26&#45;308f86b7f286&#45;&gt;927efd7e&#45;1e33&#45;447c&#45;a2bc&#45;3c895391a71d -->
<g id="edge3" class="edge">
<title>2a63c390&#45;0b7c&#45;443b&#45;bc26&#45;308f86b7f286&#45;&gt;927efd7e&#45;1e33&#45;447c&#45;a2bc&#45;3c895391a71d</title>
<path fill="none" stroke="black" stroke-dasharray="5,2" d="M628.38,-72.72C630.62,-64.18 633.12,-54.68 635.38,-46.08"/>
<polygon fill="black" stroke="black" points="638.83,-46.71 637.99,-36.15 632.06,-44.93 638.83,-46.71"/>
</g>
</g>
</svg>
