<?xml version="1.0" encoding="UTF-8" standalone="no"?>
<!DOCTYPE svg PUBLIC "-//W3C//DTD SVG 1.1//EN"
 "http://www.w3.org/Graphics/SVG/1.1/DTD/svg11.dtd">
<!-- Generated by graphviz version 8.0.3 (0)
 -->
<!-- Pages: 1 -->
<svg width="836pt" height="165pt"
 viewBox="0.00 0.00 836.00 164.74" xmlns="http://www.w3.org/2000/svg" xmlns:xlink="http://www.w3.org/1999/xlink">
<g id="graph0" class="graph" transform="scale(1 1) rotate(0) translate(36 128.74)">
<polygon fill="dimgray" stroke="none" points="-36,36 -36,-128.74 800,-128.74 800,36 -36,36"/>
<text text-anchor="middle" x="382" y="-77.54" font-family="Helvetica,sans-Serif" font-size="14.00">Sweep&#39;s Plan &amp; Progress</text>
<!-- start -->
<g id="node1" class="node">
<title>start</title>
</g>
<!-- dc7a3ecd&#45;73aa&#45;4f3d&#45;810f&#45;b5bd07c9e98f -->
<g id="node3" class="node">
<title>dc7a3ecd&#45;73aa&#45;4f3d&#45;810f&#45;b5bd07c9e98f</title>
<ellipse fill="#0ee832" stroke="black" cx="215.5" cy="-26.87" rx="162.77" ry="26.74"/>
<text text-anchor="middle" x="215.5" y="-30.67" font-family="Helvetica,sans-Serif" font-size="14.00">✓ Create</text>
<text text-anchor="middle" x="215.5" y="-15.67" font-family="Helvetica,sans-Serif" font-size="14.00">sweepai/agents/filter_agent.py</text>
</g>
<!-- start&#45;&gt;dc7a3ecd&#45;73aa&#45;4f3d&#45;810f&#45;b5bd07c9e98f -->
<g id="edge2" class="edge">
<title>start&#45;&gt;dc7a3ecd&#45;73aa&#45;4f3d&#45;810f&#45;b5bd07c9e98f</title>
<path fill="none" stroke="black" d="M0.66,-26.87C2.4,-26.87 18.59,-26.87 41.38,-26.87"/>
<polygon fill="black" stroke="black" points="41.29,-30.37 51.29,-26.87 41.29,-23.37 41.29,-30.37"/>
<text text-anchor="middle" x="26.93" y="-33.67" font-family="Helvetica,sans-Serif" font-size="14.00">Start</text>
</g>
<!-- end -->
<g id="node2" class="node">
<title>end</title>
</g>
<!-- 81ed1b9c&#45;82ab&#45;40ed&#45;96bd&#45;224d8abca5f7 -->
<g id="node4" class="node">
<title>81ed1b9c&#45;82ab&#45;40ed&#45;96bd&#45;224d8abca5f7</title>
<ellipse fill="#0ee832" stroke="black" cx="559.5" cy="-26.87" rx="145.83" ry="26.74"/>
<text text-anchor="middle" x="559.5" y="-30.67" font-family="Helvetica,sans-Serif" font-size="14.00">✓ Modify</text>
<text text-anchor="middle" x="559.5" y="-15.67" font-family="Helvetica,sans-Serif" font-size="14.00">sweepai/utils/ticket_utils.py</text>
</g>
<!-- dc7a3ecd&#45;73aa&#45;4f3d&#45;810f&#45;b5bd07c9e98f&#45;&gt;81ed1b9c&#45;82ab&#45;40ed&#45;96bd&#45;224d8abca5f7 -->
<g id="edge1" class="edge">
<title>dc7a3ecd&#45;73aa&#45;4f3d&#45;810f&#45;b5bd07c9e98f&#45;&gt;81ed1b9c&#45;82ab&#45;40ed&#45;96bd&#45;224d8abca5f7</title>
<path fill="none" stroke="black" d="M378.77,-26.87C386.69,-26.87 394.62,-26.87 402.55,-26.87"/>
<polygon fill="black" stroke="black" points="402.36,-30.37 412.36,-26.87 402.36,-23.37 402.36,-30.37"/>
</g>
<!-- 81ed1b9c&#45;82ab&#45;40ed&#45;96bd&#45;224d8abca5f7&#45;&gt;end -->
<g id="edge3" class="edge">
<title>81ed1b9c&#45;82ab&#45;40ed&#45;96bd&#45;224d8abca5f7&#45;&gt;end</title>
<path fill="none" stroke="black" d="M705.59,-26.87C725.23,-26.87 742.16,-26.87 752.56,-26.87"/>
<polygon fill="black" stroke="black" points="752.21,-30.37 762.21,-26.87 752.21,-23.37 752.21,-30.37"/>
<text text-anchor="middle" x="734.08" y="-33.67" font-family="Helvetica,sans-Serif" font-size="14.00">Finish</text>
</g>
</g>
</svg>
