<?xml version="1.0" encoding="UTF-8" standalone="no"?>
<!DOCTYPE svg PUBLIC "-//W3C//DTD SVG 1.1//EN"
 "http://www.w3.org/Graphics/SVG/1.1/DTD/svg11.dtd">
<!-- Generated by graphviz version 2.43.0 (0)
 -->
<!-- Title: %3 Pages: 1 -->
<svg width="1785pt" height="238pt"
 viewBox="0.00 0.00 1784.50 237.74" xmlns="http://www.w3.org/2000/svg" xmlns:xlink="http://www.w3.org/1999/xlink">
<g id="graph0" class="graph" transform="scale(1 1) rotate(0) translate(36 201.74)">
<title>%3</title>
<polygon fill="dimgray" stroke="transparent" points="-36,36 -36,-201.74 1748.5,-201.74 1748.5,36 -36,36"/>
<text text-anchor="middle" x="856.25" y="-150.54" font-family="Helvetica,sans-Serif" font-size="14.00">Sweep&#39;s Plan &amp; Progress</text>
<!-- start -->
<g id="node1" class="node">
<title>start</title>
</g>
<!-- b42e5702&#45;d5b3&#45;4af3&#45;828b&#45;3eb68ff400ad -->
<g id="node3" class="node">
<title>b42e5702&#45;d5b3&#45;4af3&#45;828b&#45;3eb68ff400ad</title>
<ellipse fill="#0ee832" stroke="black" cx="248.5" cy="-99.87" rx="151.14" ry="26.74"/>
<text text-anchor="middle" x="248.5" y="-103.67" font-family="Helvetica,sans-Serif" font-size="14.00">✓ Modify</text>
<text text-anchor="middle" x="248.5" y="-88.67" font-family="Helvetica,sans-Serif" font-size="14.00">sweepai/utils/github_utils.py</text>
</g>
<!-- start&#45;&gt;b42e5702&#45;d5b3&#45;4af3&#45;828b&#45;3eb68ff400ad -->
<g id="edge8" class="edge">
<title>start&#45;&gt;b42e5702&#45;d5b3&#45;4af3&#45;828b&#45;3eb68ff400ad</title>
<path fill="none" stroke="black" d="M46.08,-99.87C49.27,-99.87 65.29,-99.87 87.03,-99.87"/>
<polygon fill="black" stroke="black" points="87.03,-103.37 97.03,-99.87 87.03,-96.37 87.03,-103.37"/>
<text text-anchor="middle" x="71.59" y="-106.67" font-family="Helvetica,sans-Serif" font-size="14.00">Start</text>
</g>
<!-- end -->
<g id="node2" class="node">
<title>end</title>
</g>
<!-- 1558c615&#45;7ac2&#45;4258&#45;b96a&#45;5e74f7af314b -->
<g id="node4" class="node">
<title>1558c615&#45;7ac2&#45;4258&#45;b96a&#45;5e74f7af314b</title>
<ellipse fill="#0ee832" stroke="black" cx="619.5" cy="-99.87" rx="138.69" ry="26.74"/>
<text text-anchor="middle" x="619.5" y="-103.67" font-family="Helvetica,sans-Serif" font-size="14.00">✓ Modify</text>
<text text-anchor="middle" x="619.5" y="-88.67" font-family="Helvetica,sans-Serif" font-size="14.00">sweepai/utils/tree_utils.py</text>
</g>
<!-- b42e5702&#45;d5b3&#45;4af3&#45;828b&#45;3eb68ff400ad&#45;&gt;1558c615&#45;7ac2&#45;4258&#45;b96a&#45;5e74f7af314b -->
<g id="edge2" class="edge">
<title>b42e5702&#45;d5b3&#45;4af3&#45;828b&#45;3eb68ff400ad&#45;&gt;1558c615&#45;7ac2&#45;4258&#45;b96a&#45;5e74f7af314b</title>
<path fill="none" stroke="black" d="M399.94,-99.87C423.46,-99.87 446.97,-99.87 470.48,-99.87"/>
<polygon fill="black" stroke="black" points="470.56,-103.37 480.56,-99.87 470.56,-96.37 470.56,-103.37"/>
</g>
<!-- ffa8daef&#45;161c&#45;431c&#45;a015&#45;6c53adaf9bb6 -->
<g id="node7" class="node">
<title>ffa8daef&#45;161c&#45;431c&#45;a015&#45;6c53adaf9bb6</title>
<polygon fill="#0ee832" stroke="black" points="407,-36 0,-36 0,0 407,0 407,-36"/>
<text text-anchor="middle" x="203.5" y="-14.3" font-family="Helvetica,sans-Serif" font-size="14.00">✓ Run GitHub Actions for `sweepai/utils/github_utils.py`</text>
</g>
<!-- b42e5702&#45;d5b3&#45;4af3&#45;828b&#45;3eb68ff400ad&#45;&gt;ffa8daef&#45;161c&#45;431c&#45;a015&#45;6c53adaf9bb6 -->
<g id="edge1" class="edge">
<title>b42e5702&#45;d5b3&#45;4af3&#45;828b&#45;3eb68ff400ad&#45;&gt;ffa8daef&#45;161c&#45;431c&#45;a015&#45;6c53adaf9bb6</title>
<path fill="none" stroke="black" stroke-dasharray="5,2" d="M233.77,-72.72C228.74,-63.8 223.13,-53.84 218.12,-44.95"/>
<polygon fill="black" stroke="black" points="221.12,-43.14 213.16,-36.15 215.02,-46.58 221.12,-43.14"/>
</g>
<!-- a5f0edd5&#45;8e56&#45;4472&#45;b411&#45;adaa412ce89f -->
<g id="node5" class="node">
<title>a5f0edd5&#45;8e56&#45;4472&#45;b411&#45;adaa412ce89f</title>
<ellipse fill="#0ee832" stroke="black" cx="1053.5" cy="-99.87" rx="174.81" ry="26.74"/>
<text text-anchor="middle" x="1053.5" y="-103.67" font-family="Helvetica,sans-Serif" font-size="14.00">✓ Modify</text>
<text text-anchor="middle" x="1053.5" y="-88.67" font-family="Helvetica,sans-Serif" font-size="14.00">sweepai/utils/github_utils_test.py</text>
</g>
<!-- 1558c615&#45;7ac2&#45;4258&#45;b96a&#45;5e74f7af314b&#45;&gt;a5f0edd5&#45;8e56&#45;4472&#45;b411&#45;adaa412ce89f -->
<g id="edge4" class="edge">
<title>1558c615&#45;7ac2&#45;4258&#45;b96a&#45;5e74f7af314b&#45;&gt;a5f0edd5&#45;8e56&#45;4472&#45;b411&#45;adaa412ce89f</title>
<path fill="none" stroke="black" d="M758.52,-99.87C795.12,-99.87 831.72,-99.87 868.32,-99.87"/>
<polygon fill="black" stroke="black" points="868.64,-103.37 878.64,-99.87 868.64,-96.37 868.64,-103.37"/>
</g>
<!-- 550dc4cf&#45;1ea8&#45;4bcf&#45;acb7&#45;276b3c7c8f63 -->
<g id="node8" class="node">
<title>550dc4cf&#45;1ea8&#45;4bcf&#45;acb7&#45;276b3c7c8f63</title>
<polygon fill="#0ee832" stroke="black" points="814,-36 425,-36 425,0 814,0 814,-36"/>
<text text-anchor="middle" x="619.5" y="-14.3" font-family="Helvetica,sans-Serif" font-size="14.00">✓ Run GitHub Actions for `sweepai/utils/tree_utils.py`</text>
</g>
<!-- 1558c615&#45;7ac2&#45;4258&#45;b96a&#45;5e74f7af314b&#45;&gt;550dc4cf&#45;1ea8&#45;4bcf&#45;acb7&#45;276b3c7c8f63 -->
<g id="edge3" class="edge">
<title>1558c615&#45;7ac2&#45;4258&#45;b96a&#45;5e74f7af314b&#45;&gt;550dc4cf&#45;1ea8&#45;4bcf&#45;acb7&#45;276b3c7c8f63</title>
<path fill="none" stroke="black" stroke-dasharray="5,2" d="M619.5,-72.72C619.5,-64.27 619.5,-54.89 619.5,-46.36"/>
<polygon fill="black" stroke="black" points="623,-46.15 619.5,-36.15 616,-46.15 623,-46.15"/>
</g>
<!-- 43e6ca00&#45;be37&#45;4bb5&#45;979d&#45;b987252f051a -->
<g id="node6" class="node">
<title>43e6ca00&#45;be37&#45;4bb5&#45;979d&#45;b987252f051a</title>
<ellipse fill="white" stroke="black" cx="1464.5" cy="-99.87" rx="161.85" ry="26.74"/>
<text text-anchor="middle" x="1464.5" y="-103.67" font-family="Helvetica,sans-Serif" font-size="14.00">▶ Create</text>
<text text-anchor="middle" x="1464.5" y="-88.67" font-family="Helvetica,sans-Serif" font-size="14.00">sweepai/utils/tree_utils_test.py</text>
</g>
<!-- a5f0edd5&#45;8e56&#45;4472&#45;b411&#45;adaa412ce89f&#45;&gt;43e6ca00&#45;be37&#45;4bb5&#45;979d&#45;b987252f051a -->
<g id="edge6" class="edge">
<title>a5f0edd5&#45;8e56&#45;4472&#45;b411&#45;adaa412ce89f&#45;&gt;43e6ca00&#45;be37&#45;4bb5&#45;979d&#45;b987252f051a</title>
<path fill="none" stroke="black" d="M1228.5,-99.87C1249.72,-99.87 1270.94,-99.87 1292.16,-99.87"/>
<polygon fill="black" stroke="black" points="1292.25,-103.37 1302.25,-99.87 1292.25,-96.37 1292.25,-103.37"/>
</g>
<!-- bc6cabf1&#45;a99c&#45;4c87&#45;8020&#45;b0b4ab688cbb -->
<g id="node9" class="node">
<title>bc6cabf1&#45;a99c&#45;4c87&#45;8020&#45;b0b4ab688cbb</title>
<polygon fill="yellow" stroke="black" points="1274.5,-36 832.5,-36 832.5,0 1274.5,0 1274.5,-36"/>
<text text-anchor="middle" x="1053.5" y="-14.3" font-family="Helvetica,sans-Serif" font-size="14.00">⋯ Run GitHub Actions for `sweepai/utils/github_utils_test.py`</text>
</g>
<!-- a5f0edd5&#45;8e56&#45;4472&#45;b411&#45;adaa412ce89f&#45;&gt;bc6cabf1&#45;a99c&#45;4c87&#45;8020&#45;b0b4ab688cbb -->
<g id="edge5" class="edge">
<title>a5f0edd5&#45;8e56&#45;4472&#45;b411&#45;adaa412ce89f&#45;&gt;bc6cabf1&#45;a99c&#45;4c87&#45;8020&#45;b0b4ab688cbb</title>
<path fill="none" stroke="black" stroke-dasharray="5,2" d="M1053.5,-72.72C1053.5,-64.27 1053.5,-54.89 1053.5,-46.36"/>
<polygon fill="black" stroke="black" points="1057,-46.15 1053.5,-36.15 1050,-46.15 1057,-46.15"/>
</g>
<!-- 43e6ca00&#45;be37&#45;4bb5&#45;979d&#45;b987252f051a&#45;&gt;end -->
<g id="edge9" class="edge">
<title>43e6ca00&#45;be37&#45;4bb5&#45;979d&#45;b987252f051a&#45;&gt;end</title>
<path fill="none" stroke="black" d="M1626.7,-99.87C1646.54,-99.87 1663.44,-99.87 1673.74,-99.87"/>
<polygon fill="black" stroke="black" points="1673.86,-103.37 1683.86,-99.87 1673.86,-96.37 1673.86,-103.37"/>
<text text-anchor="middle" x="1655.21" y="-106.67" font-family="Helvetica,sans-Serif" font-size="14.00">Finish</text>
</g>
<!-- d64e6429&#45;c22e&#45;4f7c&#45;885a&#45;46136e412284 -->
<g id="node10" class="node">
<title>d64e6429&#45;c22e&#45;4f7c&#45;885a&#45;46136e412284</title>
<polygon fill="white" stroke="black" points="1712.5,-36 1292.5,-36 1292.5,0 1712.5,0 1712.5,-36"/>
<text text-anchor="middle" x="1502.5" y="-14.3" font-family="Helvetica,sans-Serif" font-size="14.00">▶ Run GitHub Actions for `sweepai/utils/tree_utils_test.py`</text>
</g>
<!-- 43e6ca00&#45;be37&#45;4bb5&#45;979d&#45;b987252f051a&#45;&gt;d64e6429&#45;c22e&#45;4f7c&#45;885a&#45;46136e412284 -->
<g id="edge7" class="edge">
<title>43e6ca00&#45;be37&#45;4bb5&#45;979d&#45;b987252f051a&#45;&gt;d64e6429&#45;c22e&#45;4f7c&#45;885a&#45;46136e412284</title>
<path fill="none" stroke="black" stroke-dasharray="5,2" d="M1476.94,-72.72C1481.14,-63.9 1485.82,-54.05 1490.02,-45.23"/>
<polygon fill="black" stroke="black" points="1493.21,-46.68 1494.34,-36.15 1486.89,-43.67 1493.21,-46.68"/>
</g>
</g>
</svg>
