<?xml version="1.0" encoding="UTF-8" standalone="no"?>
<!DOCTYPE svg PUBLIC "-//W3C//DTD SVG 1.1//EN"
 "http://www.w3.org/Graphics/SVG/1.1/DTD/svg11.dtd">
<!-- Generated by graphviz version 2.43.0 (0)
 -->
<!-- Title: %3 Pages: 1 -->
<svg width="1270pt" height="238pt"
 viewBox="0.00 0.00 1270.00 237.74" xmlns="http://www.w3.org/2000/svg" xmlns:xlink="http://www.w3.org/1999/xlink">
<g id="graph0" class="graph" transform="scale(1 1) rotate(0) translate(36 201.74)">
<title>%3</title>
<polygon fill="dimgray" stroke="transparent" points="-36,36 -36,-201.74 1234,-201.74 1234,36 -36,36"/>
<text text-anchor="middle" x="599" y="-150.54" font-family="Helvetica,sans-Serif" font-size="14.00">Sweep&#39;s Plan &amp; Progress</text>
<!-- start -->
<g id="node1" class="node">
<title>start</title>
</g>
<!-- e8407448&#45;0e4f&#45;48e4&#45;a1ac&#45;b91aba4321f3 -->
<g id="node3" class="node">
<title>e8407448&#45;0e4f&#45;48e4&#45;a1ac&#45;b91aba4321f3</title>
<ellipse fill="yellow" stroke="black" cx="202.5" cy="-99.87" rx="145.83" ry="26.74"/>
<text text-anchor="middle" x="202.5" y="-103.67" font-family="Helvetica,sans-Serif" font-size="14.00">⋯ Modify</text>
<text text-anchor="middle" x="202.5" y="-88.67" font-family="Helvetica,sans-Serif" font-size="14.00">sweepai/core/sweep_bot.py</text>
</g>
<!-- start&#45;&gt;e8407448&#45;0e4f&#45;48e4&#45;a1ac&#45;b91aba4321f3 -->
<g id="edge6" class="edge">
<title>start&#45;&gt;e8407448&#45;0e4f&#45;48e4&#45;a1ac&#45;b91aba4321f3</title>
<path fill="none" stroke="black" d="M5.07,-99.87C8.26,-99.87 24.6,-99.87 46.63,-99.87"/>
<polygon fill="black" stroke="black" points="46.76,-103.37 56.76,-99.87 46.76,-96.37 46.76,-103.37"/>
<text text-anchor="middle" x="30.92" y="-106.67" font-family="Helvetica,sans-Serif" font-size="14.00">Start</text>
</g>
<!-- end -->
<g id="node2" class="node">
<title>end</title>
</g>
<!-- 74f3fdfd&#45;a17c&#45;432b&#45;8ddc&#45;99381b363fce -->
<g id="node4" class="node">
<title>74f3fdfd&#45;a17c&#45;432b&#45;8ddc&#45;99381b363fce</title>
<ellipse fill="white" stroke="black" cx="566.5" cy="-99.87" rx="159.61" ry="26.74"/>
<text text-anchor="middle" x="566.5" y="-103.67" font-family="Helvetica,sans-Serif" font-size="14.00">▶ Modify</text>
<text text-anchor="middle" x="566.5" y="-88.67" font-family="Helvetica,sans-Serif" font-size="14.00">sweepai/handlers/on_ticket.py</text>
</g>
<!-- e8407448&#45;0e4f&#45;48e4&#45;a1ac&#45;b91aba4321f3&#45;&gt;74f3fdfd&#45;a17c&#45;432b&#45;8ddc&#45;99381b363fce -->
<g id="edge2" class="edge">
<title>e8407448&#45;0e4f&#45;48e4&#45;a1ac&#45;b91aba4321f3&#45;&gt;74f3fdfd&#45;a17c&#45;432b&#45;8ddc&#45;99381b363fce</title>
<path fill="none" stroke="black" d="M348.24,-99.87C364.36,-99.87 380.48,-99.87 396.61,-99.87"/>
<polygon fill="black" stroke="black" points="396.64,-103.37 406.64,-99.87 396.64,-96.37 396.64,-103.37"/>
</g>
<!-- 1eec6911&#45;4601&#45;4bed&#45;b268&#45;249376ce9b3c -->
<g id="node6" class="node">
<title>1eec6911&#45;4601&#45;4bed&#45;b268&#45;249376ce9b3c</title>
<polygon fill="white" stroke="black" points="359,-36 0,-36 0,0 359,0 359,-36"/>
<text text-anchor="middle" x="179.5" y="-14.3" font-family="Helvetica,sans-Serif" font-size="14.00">▶ Ran sandbox for `sweepai/core/sweep_bot.py`.</text>
</g>
<!-- e8407448&#45;0e4f&#45;48e4&#45;a1ac&#45;b91aba4321f3&#45;&gt;1eec6911&#45;4601&#45;4bed&#45;b268&#45;249376ce9b3c -->
<g id="edge1" class="edge">
<title>e8407448&#45;0e4f&#45;48e4&#45;a1ac&#45;b91aba4321f3&#45;&gt;1eec6911&#45;4601&#45;4bed&#45;b268&#45;249376ce9b3c</title>
<path fill="none" stroke="black" stroke-dasharray="5,2" d="M194.97,-72.72C192.48,-64.08 189.72,-54.47 187.22,-45.79"/>
<polygon fill="black" stroke="black" points="190.57,-44.79 184.44,-36.15 183.84,-46.72 190.57,-44.79"/>
</g>
<!-- a3a8a129&#45;606a&#45;4ecb&#45;81d5&#45;4d0b01c145b8 -->
<g id="node5" class="node">
<title>a3a8a129&#45;606a&#45;4ecb&#45;81d5&#45;4d0b01c145b8</title>
<ellipse fill="white" stroke="black" cx="959.5" cy="-99.87" rx="179.71" ry="26.74"/>
<text text-anchor="middle" x="959.5" y="-103.67" font-family="Helvetica,sans-Serif" font-size="14.00">▶ Modify</text>
<text text-anchor="middle" x="959.5" y="-88.67" font-family="Helvetica,sans-Serif" font-size="14.00">sweepai/handlers/on_comment.py</text>
</g>
<!-- 74f3fdfd&#45;a17c&#45;432b&#45;8ddc&#45;99381b363fce&#45;&gt;a3a8a129&#45;606a&#45;4ecb&#45;81d5&#45;4d0b01c145b8 -->
<g id="edge4" class="edge">
<title>74f3fdfd&#45;a17c&#45;432b&#45;8ddc&#45;99381b363fce&#45;&gt;a3a8a129&#45;606a&#45;4ecb&#45;81d5&#45;4d0b01c145b8</title>
<path fill="none" stroke="black" d="M726.54,-99.87C740.82,-99.87 755.1,-99.87 769.38,-99.87"/>
<polygon fill="black" stroke="black" points="769.78,-103.37 779.78,-99.87 769.77,-96.37 769.78,-103.37"/>
</g>
<!-- 35cdae05&#45;3743&#45;403a&#45;b335&#45;66a1689d412d -->
<g id="node7" class="node">
<title>35cdae05&#45;3743&#45;403a&#45;b335&#45;66a1689d412d</title>
<polygon fill="white" stroke="black" points="755.5,-36 377.5,-36 377.5,0 755.5,0 755.5,-36"/>
<text text-anchor="middle" x="566.5" y="-14.3" font-family="Helvetica,sans-Serif" font-size="14.00">▶ Ran sandbox for `sweepai/handlers/on_ticket.py`.</text>
</g>
<!-- 74f3fdfd&#45;a17c&#45;432b&#45;8ddc&#45;99381b363fce&#45;&gt;35cdae05&#45;3743&#45;403a&#45;b335&#45;66a1689d412d -->
<g id="edge3" class="edge">
<title>74f3fdfd&#45;a17c&#45;432b&#45;8ddc&#45;99381b363fce&#45;&gt;35cdae05&#45;3743&#45;403a&#45;b335&#45;66a1689d412d</title>
<path fill="none" stroke="black" stroke-dasharray="5,2" d="M566.5,-72.72C566.5,-64.27 566.5,-54.89 566.5,-46.36"/>
<polygon fill="black" stroke="black" points="570,-46.15 566.5,-36.15 563,-46.15 570,-46.15"/>
</g>
<!-- a3a8a129&#45;606a&#45;4ecb&#45;81d5&#45;4d0b01c145b8&#45;&gt;end -->
<g id="edge7" class="edge">
<title>a3a8a129&#45;606a&#45;4ecb&#45;81d5&#45;4d0b01c145b8&#45;&gt;end</title>
<path fill="none" stroke="black" d="M1139.28,-99.87C1159.44,-99.87 1176.42,-99.87 1186.75,-99.87"/>
<polygon fill="black" stroke="black" points="1186.86,-103.37 1196.86,-99.87 1186.86,-96.37 1186.86,-103.37"/>
<text text-anchor="middle" x="1168.05" y="-106.67" font-family="Helvetica,sans-Serif" font-size="14.00">Finish</text>
</g>
<!-- af6e8b0c&#45;e95a&#45;44f7&#45;9db4&#45;667d224a9da1 -->
<g id="node8" class="node">
<title>af6e8b0c&#45;e95a&#45;44f7&#45;9db4&#45;667d224a9da1</title>
<polygon fill="white" stroke="black" points="1179.5,-36 773.5,-36 773.5,0 1179.5,0 1179.5,-36"/>
<text text-anchor="middle" x="976.5" y="-14.3" font-family="Helvetica,sans-Serif" font-size="14.00">▶ Ran sandbox for `sweepai/handlers/on_comment.py`.</text>
</g>
<!-- a3a8a129&#45;606a&#45;4ecb&#45;81d5&#45;4d0b01c145b8&#45;&gt;af6e8b0c&#45;e95a&#45;44f7&#45;9db4&#45;667d224a9da1 -->
<g id="edge5" class="edge">
<title>a3a8a129&#45;606a&#45;4ecb&#45;81d5&#45;4d0b01c145b8&#45;&gt;af6e8b0c&#45;e95a&#45;44f7&#45;9db4&#45;667d224a9da1</title>
<path fill="none" stroke="black" stroke-dasharray="5,2" d="M965.07,-72.72C966.88,-64.18 968.91,-54.68 970.74,-46.08"/>
<polygon fill="black" stroke="black" points="974.19,-46.66 972.85,-36.15 967.35,-45.2 974.19,-46.66"/>
</g>
</g>
</svg>
