<?xml version="1.0" encoding="UTF-8" standalone="no"?>
<!DOCTYPE svg PUBLIC "-//W3C//DTD SVG 1.1//EN"
 "http://www.w3.org/Graphics/SVG/1.1/DTD/svg11.dtd">
<!-- Generated by graphviz version 8.0.3 (0)
 -->
<!-- Pages: 1 -->
<svg width="869pt" height="238pt"
 viewBox="0.00 0.00 869.00 237.74" xmlns="http://www.w3.org/2000/svg" xmlns:xlink="http://www.w3.org/1999/xlink">
<g id="graph0" class="graph" transform="scale(1 1) rotate(0) translate(36 201.74)">
<polygon fill="dimgray" stroke="none" points="-36,36 -36,-201.74 833,-201.74 833,36 -36,36"/>
<text text-anchor="middle" x="398.5" y="-150.54" font-family="Helvetica,sans-Serif" font-size="14.00">Sweep&#39;s Plan &amp; Progress</text>
<!-- start -->
<g id="node1" class="node">
<title>start</title>
</g>
<!-- 96b8ccad&#45;b93a&#45;4164&#45;9153&#45;cc38258ddd99 -->
<g id="node3" class="node">
<title>96b8ccad&#45;b93a&#45;4164&#45;9153&#45;cc38258ddd99</title>
<ellipse fill="yellow" stroke="black" cx="212.5" cy="-99.87" rx="159.61" ry="26.74"/>
<text text-anchor="middle" x="212.5" y="-103.67" font-family="Helvetica,sans-Serif" font-size="14.00">⋯ Modify</text>
<text text-anchor="middle" x="212.5" y="-88.67" font-family="Helvetica,sans-Serif" font-size="14.00">sweepai/handlers/on_ticket.py</text>
</g>
<!-- start&#45;&gt;96b8ccad&#45;b93a&#45;4164&#45;9153&#45;cc38258ddd99 -->
<g id="edge4" class="edge">
<title>start&#45;&gt;96b8ccad&#45;b93a&#45;4164&#45;9153&#45;cc38258ddd99</title>
<path fill="none" stroke="black" d="M0.65,-99.87C2.39,-99.87 18.75,-99.87 41.67,-99.87"/>
<polygon fill="black" stroke="black" points="41.63,-103.37 51.63,-99.87 41.63,-96.37 41.63,-103.37"/>
<text text-anchor="middle" x="26.85" y="-106.67" font-family="Helvetica,sans-Serif" font-size="14.00">Start</text>
</g>
<!-- end -->
<g id="node2" class="node">
<title>end</title>
</g>
<!-- 492d800d&#45;cfbc&#45;40a0&#45;8eb6&#45;6542c3a38cf0 -->
<g id="node4" class="node">
<title>492d800d&#45;cfbc&#45;40a0&#45;8eb6&#45;6542c3a38cf0</title>
<ellipse fill="white" stroke="black" cx="578.5" cy="-99.87" rx="159.61" ry="26.74"/>
<text text-anchor="middle" x="578.5" y="-103.67" font-family="Helvetica,sans-Serif" font-size="14.00">▶ Modify</text>
<text text-anchor="middle" x="578.5" y="-88.67" font-family="Helvetica,sans-Serif" font-size="14.00">sweepai/handlers/on_ticket.py</text>
</g>
<!-- 96b8ccad&#45;b93a&#45;4164&#45;9153&#45;cc38258ddd99&#45;&gt;492d800d&#45;cfbc&#45;40a0&#45;8eb6&#45;6542c3a38cf0 -->
<g id="edge2" class="edge">
<title>96b8ccad&#45;b93a&#45;4164&#45;9153&#45;cc38258ddd99&#45;&gt;492d800d&#45;cfbc&#45;40a0&#45;8eb6&#45;6542c3a38cf0</title>
<path fill="none" stroke="black" d="M372.27,-99.87C384.09,-99.87 395.91,-99.87 407.73,-99.87"/>
<polygon fill="black" stroke="black" points="407.59,-103.37 417.59,-99.87 407.59,-96.37 407.59,-103.37"/>
</g>
<!-- 1f943fa0&#45;f829&#45;4770&#45;af46&#45;c87eecfcd2ad -->
<g id="node5" class="node">
<title>1f943fa0&#45;f829&#45;4770&#45;af46&#45;c87eecfcd2ad</title>
<polygon fill="white" stroke="black" points="381.5,-36 3.5,-36 3.5,0 381.5,0 381.5,-36"/>
<text text-anchor="middle" x="192.5" y="-14.3" font-family="Helvetica,sans-Serif" font-size="14.00">▶ Ran sandbox for `sweepai/handlers/on_ticket.py`.</text>
</g>
<!-- 96b8ccad&#45;b93a&#45;4164&#45;9153&#45;cc38258ddd99&#45;&gt;1f943fa0&#45;f829&#45;4770&#45;af46&#45;c87eecfcd2ad -->
<g id="edge1" class="edge">
<title>96b8ccad&#45;b93a&#45;4164&#45;9153&#45;cc38258ddd99&#45;&gt;1f943fa0&#45;f829&#45;4770&#45;af46&#45;c87eecfcd2ad</title>
<path fill="none" stroke="black" stroke-dasharray="5,2" d="M205.95,-72.72C203.86,-64.37 201.54,-55.1 199.42,-46.65"/>
<polygon fill="black" stroke="black" points="202.62,-46 196.79,-37.15 195.83,-47.7 202.62,-46"/>
</g>
<!-- 492d800d&#45;cfbc&#45;40a0&#45;8eb6&#45;6542c3a38cf0&#45;&gt;end -->
<g id="edge5" class="edge">
<title>492d800d&#45;cfbc&#45;40a0&#45;8eb6&#45;6542c3a38cf0&#45;&gt;end</title>
<path fill="none" stroke="black" d="M738.37,-99.87C758,-99.87 774.8,-99.87 785.22,-99.87"/>
<polygon fill="black" stroke="black" points="785.21,-103.37 795.21,-99.87 785.21,-96.37 785.21,-103.37"/>
<text text-anchor="middle" x="767.15" y="-106.67" font-family="Helvetica,sans-Serif" font-size="14.00">Finish</text>
</g>
<!-- 6a292e19&#45;6e19&#45;4d4b&#45;a611&#45;ee03eabbba02 -->
<g id="node6" class="node">
<title>6a292e19&#45;6e19&#45;4d4b&#45;a611&#45;ee03eabbba02</title>
<polygon fill="white" stroke="black" points="777.5,-36 399.5,-36 399.5,0 777.5,0 777.5,-36"/>
<text text-anchor="middle" x="588.5" y="-14.3" font-family="Helvetica,sans-Serif" font-size="14.00">▶ Ran sandbox for `sweepai/handlers/on_ticket.py`.</text>
</g>
<!-- 492d800d&#45;cfbc&#45;40a0&#45;8eb6&#45;6542c3a38cf0&#45;&gt;6a292e19&#45;6e19&#45;4d4b&#45;a611&#45;ee03eabbba02 -->
<g id="edge3" class="edge">
<title>492d800d&#45;cfbc&#45;40a0&#45;8eb6&#45;6542c3a38cf0&#45;&gt;6a292e19&#45;6e19&#45;4d4b&#45;a611&#45;ee03eabbba02</title>
<path fill="none" stroke="black" stroke-dasharray="5,2" d="M581.77,-72.72C582.81,-64.46 583.95,-55.31 585,-46.93"/>
<polygon fill="black" stroke="black" points="588.58,-47.5 586.35,-37.15 581.64,-46.63 588.58,-47.5"/>
</g>
</g>
</svg>
