<?xml version="1.0" encoding="UTF-8" standalone="no"?>
<!DOCTYPE svg PUBLIC "-//W3C//DTD SVG 1.1//EN"
 "http://www.w3.org/Graphics/SVG/1.1/DTD/svg11.dtd">
<!-- Generated by graphviz version 8.0.3 (0)
 -->
<!-- Pages: 1 -->
<svg width="1452pt" height="593pt"
 viewBox="0.00 0.00 1451.50 593.22" xmlns="http://www.w3.org/2000/svg" xmlns:xlink="http://www.w3.org/1999/xlink">
<g id="graph0" class="graph" transform="scale(1 1) rotate(0) translate(36 557.22)">
<polygon fill="dimgray" stroke="none" points="-36,36 -36,-557.22 1415.5,-557.22 1415.5,36 -36,36"/>
<text text-anchor="middle" x="689.75" y="-506.02" font-family="Helvetica,sans-Serif" font-size="14.00">Sweep&#39;s Plan &amp; Progress</text>
<!-- start -->
<g id="node1" class="node">
<title>start</title>
</g>
<!-- 2474dc83&#45;d6c9&#45;4095&#45;9ed9&#45;c258eb62d53b -->
<g id="node3" class="node">
<title>2474dc83&#45;d6c9&#45;4095&#45;9ed9&#45;c258eb62d53b</title>
<ellipse fill="#0ee832" stroke="black" cx="785" cy="-455.35" rx="159.61" ry="26.74"/>
<text text-anchor="middle" x="785" y="-459.15" font-family="Helvetica,sans-Serif" font-size="14.00">✓ Modify</text>
<text text-anchor="middle" x="785" y="-444.15" font-family="Helvetica,sans-Serif" font-size="14.00">sweepai/handlers/on_ticket.py</text>
</g>
<!-- start&#45;&gt;2474dc83&#45;d6c9&#45;4095&#45;9ed9&#45;c258eb62d53b -->
<g id="edge10" class="edge">
<title>start&#45;&gt;2474dc83&#45;d6c9&#45;4095&#45;9ed9&#45;c258eb62d53b</title>
<path fill="none" stroke="black" d="M573.15,-455.35C574.89,-455.35 591.25,-455.35 614.17,-455.35"/>
<polygon fill="black" stroke="black" points="614.13,-458.85 624.13,-455.35 614.13,-451.85 614.13,-458.85"/>
<text text-anchor="middle" x="599.35" y="-462.15" font-family="Helvetica,sans-Serif" font-size="14.00">Start</text>
</g>
<!-- end -->
<g id="node2" class="node">
<title>end</title>
</g>
<!-- ed608921&#45;bc70&#45;4f4e&#45;a331&#45;16482b157696 -->
<g id="node4" class="node">
<title>ed608921&#45;bc70&#45;4f4e&#45;a331&#45;16482b157696</title>
<ellipse fill="white" stroke="black" cx="1161" cy="-455.35" rx="159.61" ry="26.74"/>
<text text-anchor="middle" x="1161" y="-459.15" font-family="Helvetica,sans-Serif" font-size="14.00">▶ Modify</text>
<text text-anchor="middle" x="1161" y="-444.15" font-family="Helvetica,sans-Serif" font-size="14.00">sweepai/handlers/on_ticket.py</text>
</g>
<!-- 2474dc83&#45;d6c9&#45;4095&#45;9ed9&#45;c258eb62d53b&#45;&gt;ed608921&#45;bc70&#45;4f4e&#45;a331&#45;16482b157696 -->
<g id="edge8" class="edge">
<title>2474dc83&#45;d6c9&#45;4095&#45;9ed9&#45;c258eb62d53b&#45;&gt;ed608921&#45;bc70&#45;4f4e&#45;a331&#45;16482b157696</title>
<path fill="none" stroke="black" d="M945.09,-455.35C960.14,-455.35 975.18,-455.35 990.22,-455.35"/>
<polygon fill="black" stroke="black" points="990.18,-458.85 1000.18,-455.35 990.18,-451.85 990.18,-458.85"/>
</g>
<!-- 03a86e8a&#45;88a6&#45;4998&#45;99f7&#45;e8baca8bd457 -->
<g id="node5" class="node">
<title>03a86e8a&#45;88a6&#45;4998&#45;99f7&#45;e8baca8bd457</title>
<polygon fill="#ee0000" stroke="black" points="578,-391.48 198,-391.48 198,-355.48 578,-355.48 578,-391.48"/>
<text text-anchor="middle" x="388" y="-369.78" font-family="Helvetica,sans-Serif" font-size="14.00">✗ Ran sandbox for `sweepai/handlers/on_ticket.py`.</text>
</g>
<!-- 2474dc83&#45;d6c9&#45;4095&#45;9ed9&#45;c258eb62d53b&#45;&gt;03a86e8a&#45;88a6&#45;4998&#45;99f7&#45;e8baca8bd457 -->
<g id="edge1" class="edge">
<title>2474dc83&#45;d6c9&#45;4095&#45;9ed9&#45;c258eb62d53b&#45;&gt;03a86e8a&#45;88a6&#45;4998&#45;99f7&#45;e8baca8bd457</title>
<path fill="none" stroke="black" stroke-dasharray="5,2" d="M684.56,-434.14C623.56,-421.87 546.06,-406.28 485.58,-394.11"/>
<polygon fill="black" stroke="black" points="486.38,-390.5 475.88,-391.96 485,-397.36 486.38,-390.5"/>
</g>
<!-- 9d0dcc6f&#45;06ea&#45;4e15&#45;baa3&#45;c4fa4987a2f0 -->
<g id="node6" class="node">
<title>9d0dcc6f&#45;06ea&#45;4e15&#45;baa3&#45;c4fa4987a2f0</title>
<polygon fill="white" stroke="black" points="974,-391.48 596,-391.48 596,-355.48 974,-355.48 974,-391.48"/>
<text text-anchor="middle" x="785" y="-369.78" font-family="Helvetica,sans-Serif" font-size="14.00">▶ Ran sandbox for `sweepai/handlers/on_ticket.py`.</text>
</g>
<!-- 2474dc83&#45;d6c9&#45;4095&#45;9ed9&#45;c258eb62d53b&#45;&gt;9d0dcc6f&#45;06ea&#45;4e15&#45;baa3&#45;c4fa4987a2f0 -->
<g id="edge7" class="edge">
<title>2474dc83&#45;d6c9&#45;4095&#45;9ed9&#45;c258eb62d53b&#45;&gt;9d0dcc6f&#45;06ea&#45;4e15&#45;baa3&#45;c4fa4987a2f0</title>
<path fill="none" stroke="black" stroke-dasharray="5,2" d="M785,-428.2C785,-419.94 785,-410.79 785,-402.41"/>
<polygon fill="black" stroke="black" points="788.5,-402.63 785,-392.63 781.5,-402.63 788.5,-402.63"/>
</g>
<!-- ed608921&#45;bc70&#45;4f4e&#45;a331&#45;16482b157696&#45;&gt;end -->
<g id="edge11" class="edge">
<title>ed608921&#45;bc70&#45;4f4e&#45;a331&#45;16482b157696&#45;&gt;end</title>
<path fill="none" stroke="black" d="M1320.87,-455.35C1340.5,-455.35 1357.3,-455.35 1367.72,-455.35"/>
<polygon fill="black" stroke="black" points="1367.71,-458.85 1377.71,-455.35 1367.71,-451.85 1367.71,-458.85"/>
<text text-anchor="middle" x="1349.65" y="-462.15" font-family="Helvetica,sans-Serif" font-size="14.00">Finish</text>
</g>
<!-- 6c4aa635&#45;4ef4&#45;4dac&#45;b710&#45;d8f3a76e9eeb -->
<g id="node7" class="node">
<title>6c4aa635&#45;4ef4&#45;4dac&#45;b710&#45;d8f3a76e9eeb</title>
<polygon fill="white" stroke="black" points="1370,-391.48 992,-391.48 992,-355.48 1370,-355.48 1370,-391.48"/>
<text text-anchor="middle" x="1181" y="-369.78" font-family="Helvetica,sans-Serif" font-size="14.00">▶ Ran sandbox for `sweepai/handlers/on_ticket.py`.</text>
</g>
<!-- ed608921&#45;bc70&#45;4f4e&#45;a331&#45;16482b157696&#45;&gt;6c4aa635&#45;4ef4&#45;4dac&#45;b710&#45;d8f3a76e9eeb -->
<g id="edge9" class="edge">
<title>ed608921&#45;bc70&#45;4f4e&#45;a331&#45;16482b157696&#45;&gt;6c4aa635&#45;4ef4&#45;4dac&#45;b710&#45;d8f3a76e9eeb</title>
<path fill="none" stroke="black" stroke-dasharray="5,2" d="M1167.55,-428.2C1169.64,-419.85 1171.96,-410.58 1174.08,-402.13"/>
<polygon fill="black" stroke="black" points="1177.67,-403.18 1176.71,-392.63 1170.88,-401.48 1177.67,-403.18"/>
</g>
<!-- e8c7c437&#45;6dc5&#45;4579&#45;a46d&#45;0f350f35c565 -->
<g id="node8" class="node">
<title>e8c7c437&#45;6dc5&#45;4579&#45;a46d&#45;0f350f35c565</title>
<ellipse fill="#0ee832" stroke="black" cx="388" cy="-277.61" rx="159.61" ry="26.74"/>
<text text-anchor="middle" x="388" y="-281.41" font-family="Helvetica,sans-Serif" font-size="14.00">✓ Modify</text>
<text text-anchor="middle" x="388" y="-266.41" font-family="Helvetica,sans-Serif" font-size="14.00">sweepai/handlers/on_ticket.py</text>
</g>
<!-- 03a86e8a&#45;88a6&#45;4998&#45;99f7&#45;e8baca8bd457&#45;&gt;e8c7c437&#45;6dc5&#45;4579&#45;a46d&#45;0f350f35c565 -->
<g id="edge2" class="edge">
<title>03a86e8a&#45;88a6&#45;4998&#45;99f7&#45;e8baca8bd457&#45;&gt;e8c7c437&#45;6dc5&#45;4579&#45;a46d&#45;0f350f35c565</title>
<path fill="none" stroke="black" d="M388,-355.26C388,-344.07 388,-329.05 388,-315.27"/>
<polygon fill="black" stroke="black" points="391.5,-315.58 388,-305.58 384.5,-315.58 391.5,-315.58"/>
<text text-anchor="middle" x="485.5" y="-326.28" font-family="Helvetica,sans-Serif" font-size="14.00">Additional changes required</text>
</g>
<!-- 51ed0060&#45;5ddc&#45;4861&#45;ac15&#45;727156540dfd -->
<g id="node9" class="node">
<title>51ed0060&#45;5ddc&#45;4861&#45;ac15&#45;727156540dfd</title>
<polygon fill="#ee0000" stroke="black" points="380,-213.74 0,-213.74 0,-177.74 380,-177.74 380,-213.74"/>
<text text-anchor="middle" x="190" y="-192.04" font-family="Helvetica,sans-Serif" font-size="14.00">✗ Ran sandbox for `sweepai/handlers/on_ticket.py`.</text>
</g>
<!-- e8c7c437&#45;6dc5&#45;4579&#45;a46d&#45;0f350f35c565&#45;&gt;51ed0060&#45;5ddc&#45;4861&#45;ac15&#45;727156540dfd -->
<g id="edge3" class="edge">
<title>e8c7c437&#45;6dc5&#45;4579&#45;a46d&#45;0f350f35c565&#45;&gt;51ed0060&#45;5ddc&#45;4861&#45;ac15&#45;727156540dfd</title>
<path fill="none" stroke="black" stroke-dasharray="5,2" d="M328.06,-252.43C301.03,-241.53 269.37,-228.76 243.19,-218.2"/>
<polygon fill="black" stroke="black" points="244.67,-214.61 234.08,-214.12 242.05,-221.11 244.67,-214.61"/>
</g>
<!-- 3ebcd283&#45;2cd7&#45;497d&#45;a173&#45;0537e6b1e803 -->
<g id="node10" class="node">
<title>3ebcd283&#45;2cd7&#45;497d&#45;a173&#45;0537e6b1e803</title>
<polygon fill="white" stroke="black" points="776,-213.74 398,-213.74 398,-177.74 776,-177.74 776,-213.74"/>
<text text-anchor="middle" x="587" y="-192.04" font-family="Helvetica,sans-Serif" font-size="14.00">▶ Ran sandbox for `sweepai/handlers/on_ticket.py`.</text>
</g>
<!-- e8c7c437&#45;6dc5&#45;4579&#45;a46d&#45;0f350f35c565&#45;&gt;3ebcd283&#45;2cd7&#45;497d&#45;a173&#45;0537e6b1e803 -->
<g id="edge6" class="edge">
<title>e8c7c437&#45;6dc5&#45;4579&#45;a46d&#45;0f350f35c565&#45;&gt;3ebcd283&#45;2cd7&#45;497d&#45;a173&#45;0537e6b1e803</title>
<path fill="none" stroke="black" stroke-dasharray="5,2" d="M448.25,-252.43C475.41,-241.53 507.23,-228.76 533.54,-218.2"/>
<polygon fill="black" stroke="black" points="534.72,-221.09 542.7,-214.12 532.11,-214.6 534.72,-221.09"/>
</g>
<!-- 9da2e3ed&#45;dd7f&#45;426d&#45;8681&#45;9b881753bdcf -->
<g id="node11" class="node">
<title>9da2e3ed&#45;dd7f&#45;426d&#45;8681&#45;9b881753bdcf</title>
<ellipse fill="yellow" stroke="black" cx="190" cy="-99.87" rx="159.61" ry="26.74"/>
<text text-anchor="middle" x="190" y="-103.67" font-family="Helvetica,sans-Serif" font-size="14.00">⋯ Modify</text>
<text text-anchor="middle" x="190" y="-88.67" font-family="Helvetica,sans-Serif" font-size="14.00">sweepai/handlers/on_ticket.py</text>
</g>
<!-- 51ed0060&#45;5ddc&#45;4861&#45;ac15&#45;727156540dfd&#45;&gt;9da2e3ed&#45;dd7f&#45;426d&#45;8681&#45;9b881753bdcf -->
<g id="edge4" class="edge">
<title>51ed0060&#45;5ddc&#45;4861&#45;ac15&#45;727156540dfd&#45;&gt;9da2e3ed&#45;dd7f&#45;426d&#45;8681&#45;9b881753bdcf</title>
<path fill="none" stroke="black" d="M190,-177.52C190,-166.33 190,-151.31 190,-137.53"/>
<polygon fill="black" stroke="black" points="193.5,-137.84 190,-127.84 186.5,-137.84 193.5,-137.84"/>
<text text-anchor="middle" x="287.5" y="-148.54" font-family="Helvetica,sans-Serif" font-size="14.00">Additional changes required</text>
</g>
<!-- 9d3c4d9b&#45;f3cb&#45;42b9&#45;874f&#45;86eae8c8baf5 -->
<g id="node12" class="node">
<title>9d3c4d9b&#45;f3cb&#45;42b9&#45;874f&#45;86eae8c8baf5</title>
<polygon fill="white" stroke="black" points="379,-36 1,-36 1,0 379,0 379,-36"/>
<text text-anchor="middle" x="190" y="-14.3" font-family="Helvetica,sans-Serif" font-size="14.00">▶ Ran sandbox for `sweepai/handlers/on_ticket.py`.</text>
</g>
<!-- 9da2e3ed&#45;dd7f&#45;426d&#45;8681&#45;9b881753bdcf&#45;&gt;9d3c4d9b&#45;f3cb&#45;42b9&#45;874f&#45;86eae8c8baf5 -->
<g id="edge5" class="edge">
<title>9da2e3ed&#45;dd7f&#45;426d&#45;8681&#45;9b881753bdcf&#45;&gt;9d3c4d9b&#45;f3cb&#45;42b9&#45;874f&#45;86eae8c8baf5</title>
<path fill="none" stroke="black" stroke-dasharray="5,2" d="M190,-72.72C190,-64.46 190,-55.31 190,-46.93"/>
<polygon fill="black" stroke="black" points="193.5,-47.15 190,-37.15 186.5,-47.15 193.5,-47.15"/>
</g>
</g>
</svg>
