<?xml version="1.0" encoding="UTF-8" standalone="no"?>
<!DOCTYPE svg PUBLIC "-//W3C//DTD SVG 1.1//EN"
 "http://www.w3.org/Graphics/SVG/1.1/DTD/svg11.dtd">
<!-- Generated by graphviz version 8.0.3 (0)
 -->
<!-- Pages: 1 -->
<svg width="1384pt" height="238pt"
 viewBox="0.00 0.00 1384.00 237.74" xmlns="http://www.w3.org/2000/svg" xmlns:xlink="http://www.w3.org/1999/xlink">
<g id="graph0" class="graph" transform="scale(1 1) rotate(0) translate(36 201.74)">
<polygon fill="dimgray" stroke="none" points="-36,36 -36,-201.74 1348,-201.74 1348,36 -36,36"/>
<text text-anchor="middle" x="656" y="-150.54" font-family="Helvetica,sans-Serif" font-size="14.00">Sweep&#39;s Plan &amp; Progress</text>
<!-- start -->
<g id="node1" class="node">
<title>start</title>
</g>
<!-- 606a06ae&#45;e1a5&#45;467f&#45;bffd&#45;e0e0260776e9 -->
<g id="node3" class="node">
<title>606a06ae&#45;e1a5&#45;467f&#45;bffd&#45;e0e0260776e9</title>
<ellipse fill="#0ee832" stroke="black" cx="247" cy="-99.87" rx="162.77" ry="26.74"/>
<text text-anchor="middle" x="247" y="-103.67" font-family="Helvetica,sans-Serif" font-size="14.00">✓ Create</text>
<text text-anchor="middle" x="247" y="-88.67" font-family="Helvetica,sans-Serif" font-size="14.00">sweepai/agents/filter_agent.py</text>
</g>
<!-- start&#45;&gt;606a06ae&#45;e1a5&#45;467f&#45;bffd&#45;e0e0260776e9 -->
<g id="edge6" class="edge">
<title>start&#45;&gt;606a06ae&#45;e1a5&#45;467f&#45;bffd&#45;e0e0260776e9</title>
<path fill="none" stroke="black" d="M32.16,-99.87C33.9,-99.87 50.09,-99.87 72.88,-99.87"/>
<polygon fill="black" stroke="black" points="72.79,-103.37 82.79,-99.87 72.79,-96.37 72.79,-103.37"/>
<text text-anchor="middle" x="58.43" y="-106.67" font-family="Helvetica,sans-Serif" font-size="14.00">Start</text>
</g>
<!-- end -->
<g id="node2" class="node">
<title>end</title>
</g>
<!-- b7f6e9df&#45;82ca&#45;436f&#45;a270&#45;2311387768c3 -->
<g id="node4" class="node">
<title>b7f6e9df&#45;82ca&#45;436f&#45;a270&#45;2311387768c3</title>
<ellipse fill="#0ee832" stroke="black" cx="668" cy="-99.87" rx="185.94" ry="26.74"/>
<text text-anchor="middle" x="668" y="-103.67" font-family="Helvetica,sans-Serif" font-size="14.00">✓ Create</text>
<text text-anchor="middle" x="668" y="-88.67" font-family="Helvetica,sans-Serif" font-size="14.00">sweepai/agents/filter_agent_test.py</text>
</g>
<!-- 606a06ae&#45;e1a5&#45;467f&#45;bffd&#45;e0e0260776e9&#45;&gt;b7f6e9df&#45;82ca&#45;436f&#45;a270&#45;2311387768c3 -->
<g id="edge2" class="edge">
<title>606a06ae&#45;e1a5&#45;467f&#45;bffd&#45;e0e0260776e9&#45;&gt;b7f6e9df&#45;82ca&#45;436f&#45;a270&#45;2311387768c3</title>
<path fill="none" stroke="black" d="M410.22,-99.87C430.42,-99.87 450.62,-99.87 470.82,-99.87"/>
<polygon fill="black" stroke="black" points="470.71,-103.37 480.71,-99.87 470.71,-96.37 470.71,-103.37"/>
</g>
<!-- c885f329&#45;9547&#45;4873&#45;aeed&#45;c2ed9b32882b -->
<g id="node6" class="node">
<title>c885f329&#45;9547&#45;4873&#45;aeed&#45;c2ed9b32882b</title>
<polygon fill="#0ee832" stroke="black" points="422,-36 0,-36 0,0 422,0 422,-36"/>
<text text-anchor="middle" x="211" y="-14.3" font-family="Helvetica,sans-Serif" font-size="14.00">✓ Run GitHub Actions for `sweepai/agents/filter_agent.py`</text>
</g>
<!-- 606a06ae&#45;e1a5&#45;467f&#45;bffd&#45;e0e0260776e9&#45;&gt;c885f329&#45;9547&#45;4873&#45;aeed&#45;c2ed9b32882b -->
<g id="edge1" class="edge">
<title>606a06ae&#45;e1a5&#45;467f&#45;bffd&#45;e0e0260776e9&#45;&gt;c885f329&#45;9547&#45;4873&#45;aeed&#45;c2ed9b32882b</title>
<path fill="none" stroke="black" stroke-dasharray="5,2" d="M235.21,-72.72C231.36,-64.18 227.08,-54.68 223.2,-46.08"/>
<polygon fill="black" stroke="black" points="226.03,-44.82 218.73,-37.15 219.65,-47.7 226.03,-44.82"/>
</g>
<!-- 4c7987b5&#45;ebd0&#45;4ffa&#45;91a5&#45;300cb8d6c06d -->
<g id="node5" class="node">
<title>4c7987b5&#45;ebd0&#45;4ffa&#45;91a5&#45;300cb8d6c06d</title>
<ellipse fill="white" stroke="black" cx="1074" cy="-99.87" rx="145.83" ry="26.74"/>
<text text-anchor="middle" x="1074" y="-103.67" font-family="Helvetica,sans-Serif" font-size="14.00">▶ Modify</text>
<text text-anchor="middle" x="1074" y="-88.67" font-family="Helvetica,sans-Serif" font-size="14.00">sweepai/utils/ticket_utils.py</text>
</g>
<!-- b7f6e9df&#45;82ca&#45;436f&#45;a270&#45;2311387768c3&#45;&gt;4c7987b5&#45;ebd0&#45;4ffa&#45;91a5&#45;300cb8d6c06d -->
<g id="edge4" class="edge">
<title>b7f6e9df&#45;82ca&#45;436f&#45;a270&#45;2311387768c3&#45;&gt;4c7987b5&#45;ebd0&#45;4ffa&#45;91a5&#45;300cb8d6c06d</title>
<path fill="none" stroke="black" d="M854.35,-99.87C875.17,-99.87 895.99,-99.87 916.82,-99.87"/>
<polygon fill="black" stroke="black" points="916.71,-103.37 926.71,-99.87 916.71,-96.37 916.71,-103.37"/>
</g>
<!-- 093f742b&#45;79c3&#45;4da0&#45;aa8e&#45;6b9f05d97877 -->
<g id="node7" class="node">
<title>093f742b&#45;79c3&#45;4da0&#45;aa8e&#45;6b9f05d97877</title>
<polygon fill="#0ee832" stroke="black" points="895.5,-36 440.5,-36 440.5,0 895.5,0 895.5,-36"/>
<text text-anchor="middle" x="668" y="-14.3" font-family="Helvetica,sans-Serif" font-size="14.00">✓ Run GitHub Actions for `sweepai/agents/filter_agent_test.py`</text>
</g>
<!-- b7f6e9df&#45;82ca&#45;436f&#45;a270&#45;2311387768c3&#45;&gt;093f742b&#45;79c3&#45;4da0&#45;aa8e&#45;6b9f05d97877 -->
<g id="edge3" class="edge">
<title>b7f6e9df&#45;82ca&#45;436f&#45;a270&#45;2311387768c3&#45;&gt;093f742b&#45;79c3&#45;4da0&#45;aa8e&#45;6b9f05d97877</title>
<path fill="none" stroke="black" stroke-dasharray="5,2" d="M668,-72.72C668,-64.46 668,-55.31 668,-46.93"/>
<polygon fill="black" stroke="black" points="671.5,-47.15 668,-37.15 664.5,-47.15 671.5,-47.15"/>
</g>
<!-- 4c7987b5&#45;ebd0&#45;4ffa&#45;91a5&#45;300cb8d6c06d&#45;&gt;end -->
<g id="edge7" class="edge">
<title>4c7987b5&#45;ebd0&#45;4ffa&#45;91a5&#45;300cb8d6c06d&#45;&gt;end</title>
<path fill="none" stroke="black" d="M1220.09,-99.87C1239.73,-99.87 1256.66,-99.87 1267.06,-99.87"/>
<polygon fill="black" stroke="black" points="1266.71,-103.37 1276.71,-99.87 1266.71,-96.37 1266.71,-103.37"/>
<text text-anchor="middle" x="1248.58" y="-106.67" font-family="Helvetica,sans-Serif" font-size="14.00">Finish</text>
</g>
<!-- d9069d68&#45;ce3d&#45;41d7&#45;8c75&#45;44bf3acd82b9 -->
<g id="node8" class="node">
<title>d9069d68&#45;ce3d&#45;41d7&#45;8c75&#45;44bf3acd82b9</title>
<polygon fill="white" stroke="black" points="1312,-36 914,-36 914,0 1312,0 1312,-36"/>
<text text-anchor="middle" x="1113" y="-14.3" font-family="Helvetica,sans-Serif" font-size="14.00">▶ Run GitHub Actions for `sweepai/utils/ticket_utils.py`</text>
</g>
<!-- 4c7987b5&#45;ebd0&#45;4ffa&#45;91a5&#45;300cb8d6c06d&#45;&gt;d9069d68&#45;ce3d&#45;41d7&#45;8c75&#45;44bf3acd82b9 -->
<g id="edge5" class="edge">
<title>4c7987b5&#45;ebd0&#45;4ffa&#45;91a5&#45;300cb8d6c06d&#45;&gt;d9069d68&#45;ce3d&#45;41d7&#45;8c75&#45;44bf3acd82b9</title>
<path fill="none" stroke="black" stroke-dasharray="5,2" d="M1086.55,-73.16C1090.78,-64.51 1095.51,-54.83 1099.78,-46.07"/>
<polygon fill="black" stroke="black" points="1103.29,-47.86 1104.53,-37.34 1097,-44.79 1103.29,-47.86"/>
</g>
</g>
</svg>
