<?xml version="1.0" encoding="UTF-8" standalone="no"?>
<!DOCTYPE svg PUBLIC "-//W3C//DTD SVG 1.1//EN"
 "http://www.w3.org/Graphics/SVG/1.1/DTD/svg11.dtd">
<!-- Generated by graphviz version 8.0.3 (0)
 -->
<!-- Pages: 1 -->
<svg width="1672pt" height="415pt"
 viewBox="0.00 0.00 1672.00 415.48" xmlns="http://www.w3.org/2000/svg" xmlns:xlink="http://www.w3.org/1999/xlink">
<g id="graph0" class="graph" transform="scale(1 1) rotate(0) translate(36 379.48)">
<polygon fill="dimgray" stroke="none" points="-36,36 -36,-379.48 1636,-379.48 1636,36 -36,36"/>
<text text-anchor="middle" x="800" y="-328.28" font-family="Helvetica,sans-Serif" font-size="14.00">Sweep&#39;s Plan &amp; Progress</text>
<!-- start -->
<g id="node1" class="node">
<title>start</title>
</g>
<!-- 156f41b5&#45;ec41&#45;4233&#45;b949&#45;79e0bf0ee2e6 -->
<g id="node3" class="node">
<title>156f41b5&#45;ec41&#45;4233&#45;b949&#45;79e0bf0ee2e6</title>
<ellipse fill="#0ee832" stroke="black" cx="588" cy="-277.61" rx="159.61" ry="26.74"/>
<text text-anchor="middle" x="588" y="-281.41" font-family="Helvetica,sans-Serif" font-size="14.00">✓ Modify</text>
<text text-anchor="middle" x="588" y="-266.41" font-family="Helvetica,sans-Serif" font-size="14.00">sweepai/handlers/on_ticket.py</text>
</g>
<!-- start&#45;&gt;156f41b5&#45;ec41&#45;4233&#45;b949&#45;79e0bf0ee2e6 -->
<g id="edge12" class="edge">
<title>start&#45;&gt;156f41b5&#45;ec41&#45;4233&#45;b949&#45;79e0bf0ee2e6</title>
<path fill="none" stroke="black" d="M376.15,-277.61C377.89,-277.61 394.25,-277.61 417.17,-277.61"/>
<polygon fill="black" stroke="black" points="417.13,-281.11 427.13,-277.61 417.13,-274.11 417.13,-281.11"/>
<text text-anchor="middle" x="402.35" y="-284.41" font-family="Helvetica,sans-Serif" font-size="14.00">Start</text>
</g>
<!-- end -->
<g id="node2" class="node">
<title>end</title>
</g>
<!-- 4564e8b5&#45;2000&#45;4ba2&#45;9c15&#45;c40353b3c878 -->
<g id="node4" class="node">
<title>4564e8b5&#45;2000&#45;4ba2&#45;9c15&#45;c40353b3c878</title>
<ellipse fill="#0ee832" stroke="black" cx="993" cy="-277.61" rx="169" ry="26.74"/>
<text text-anchor="middle" x="993" y="-281.41" font-family="Helvetica,sans-Serif" font-size="14.00">✓ Create</text>
<text text-anchor="middle" x="993" y="-266.41" font-family="Helvetica,sans-Serif" font-size="14.00">sweepai/utils/ticket_utils_test.py</text>
</g>
<!-- 156f41b5&#45;ec41&#45;4233&#45;b949&#45;79e0bf0ee2e6&#45;&gt;4564e8b5&#45;2000&#45;4ba2&#45;9c15&#45;c40353b3c878 -->
<g id="edge5" class="edge">
<title>156f41b5&#45;ec41&#45;4233&#45;b949&#45;79e0bf0ee2e6&#45;&gt;4564e8b5&#45;2000&#45;4ba2&#45;9c15&#45;c40353b3c878</title>
<path fill="none" stroke="black" d="M747.79,-277.61C769.6,-277.61 791.41,-277.61 813.23,-277.61"/>
<polygon fill="black" stroke="black" points="812.94,-281.11 822.94,-277.61 812.94,-274.11 812.94,-281.11"/>
</g>
<!-- dead76ba&#45;ae5e&#45;4601&#45;a4b0&#45;a68b30111f97 -->
<g id="node5" class="node">
<title>dead76ba&#45;ae5e&#45;4601&#45;a4b0&#45;a68b30111f97</title>
<polygon fill="#ee0000" stroke="black" points="380,-213.74 0,-213.74 0,-177.74 380,-177.74 380,-213.74"/>
<text text-anchor="middle" x="190" y="-192.04" font-family="Helvetica,sans-Serif" font-size="14.00">✗ Ran sandbox for `sweepai/handlers/on_ticket.py`.</text>
</g>
<!-- 156f41b5&#45;ec41&#45;4233&#45;b949&#45;79e0bf0ee2e6&#45;&gt;dead76ba&#45;ae5e&#45;4601&#45;a4b0&#45;a68b30111f97 -->
<g id="edge1" class="edge">
<title>156f41b5&#45;ec41&#45;4233&#45;b949&#45;79e0bf0ee2e6&#45;&gt;dead76ba&#45;ae5e&#45;4601&#45;a4b0&#45;a68b30111f97</title>
<path fill="none" stroke="black" stroke-dasharray="5,2" d="M487.57,-256.46C426.31,-244.16 348.37,-228.52 287.63,-216.33"/>
<polygon fill="black" stroke="black" points="288.37,-212.71 277.88,-214.18 287,-219.57 288.37,-212.71"/>
</g>
<!-- 3c943d61&#45;d94f&#45;4935&#45;a570&#45;f50e4dcce395 -->
<g id="node6" class="node">
<title>3c943d61&#45;d94f&#45;4935&#45;a570&#45;f50e4dcce395</title>
<polygon fill="#ee0000" stroke="black" points="778,-213.74 398,-213.74 398,-177.74 778,-177.74 778,-213.74"/>
<text text-anchor="middle" x="588" y="-192.04" font-family="Helvetica,sans-Serif" font-size="14.00">✗ Ran sandbox for `sweepai/handlers/on_ticket.py`.</text>
</g>
<!-- 156f41b5&#45;ec41&#45;4233&#45;b949&#45;79e0bf0ee2e6&#45;&gt;3c943d61&#45;d94f&#45;4935&#45;a570&#45;f50e4dcce395 -->
<g id="edge4" class="edge">
<title>156f41b5&#45;ec41&#45;4233&#45;b949&#45;79e0bf0ee2e6&#45;&gt;3c943d61&#45;d94f&#45;4935&#45;a570&#45;f50e4dcce395</title>
<path fill="none" stroke="black" stroke-dasharray="5,2" d="M588,-250.46C588,-242.2 588,-233.05 588,-224.67"/>
<polygon fill="black" stroke="black" points="591.5,-224.89 588,-214.89 584.5,-224.89 591.5,-224.89"/>
</g>
<!-- 4564e8b5&#45;2000&#45;4ba2&#45;9c15&#45;c40353b3c878&#45;&gt;end -->
<g id="edge13" class="edge">
<title>4564e8b5&#45;2000&#45;4ba2&#45;9c15&#45;c40353b3c878&#45;&gt;end</title>
<path fill="none" stroke="black" d="M1162.42,-277.61C1182,-277.61 1198.61,-277.61 1208.89,-277.61"/>
<polygon fill="black" stroke="black" points="1208.72,-281.11 1218.72,-277.61 1208.72,-274.11 1208.72,-281.11"/>
<text text-anchor="middle" x="1190.75" y="-284.41" font-family="Helvetica,sans-Serif" font-size="14.00">Finish</text>
</g>
<!-- 5d58a82f&#45;850c&#45;40e6&#45;b1c0&#45;b2dbe4b7a5e2 -->
<g id="node7" class="node">
<title>5d58a82f&#45;850c&#45;40e6&#45;b1c0&#45;b2dbe4b7a5e2</title>
<polygon fill="#ee0000" stroke="black" points="1189.5,-213.74 796.5,-213.74 796.5,-177.74 1189.5,-177.74 1189.5,-213.74"/>
<text text-anchor="middle" x="993" y="-192.04" font-family="Helvetica,sans-Serif" font-size="14.00">✗ Ran sandbox for `sweepai/utils/ticket_utils_test.py`.</text>
</g>
<!-- 4564e8b5&#45;2000&#45;4ba2&#45;9c15&#45;c40353b3c878&#45;&gt;5d58a82f&#45;850c&#45;40e6&#45;b1c0&#45;b2dbe4b7a5e2 -->
<g id="edge6" class="edge">
<title>4564e8b5&#45;2000&#45;4ba2&#45;9c15&#45;c40353b3c878&#45;&gt;5d58a82f&#45;850c&#45;40e6&#45;b1c0&#45;b2dbe4b7a5e2</title>
<path fill="none" stroke="black" stroke-dasharray="5,2" d="M993,-250.46C993,-242.2 993,-233.05 993,-224.67"/>
<polygon fill="black" stroke="black" points="996.5,-224.89 993,-214.89 989.5,-224.89 996.5,-224.89"/>
</g>
<!-- ba5a60ff&#45;6255&#45;4f74&#45;add9&#45;efc6216e4d8a -->
<g id="node8" class="node">
<title>ba5a60ff&#45;6255&#45;4f74&#45;add9&#45;efc6216e4d8a</title>
<polygon fill="white" stroke="black" points="1600,-213.74 1208,-213.74 1208,-177.74 1600,-177.74 1600,-213.74"/>
<text text-anchor="middle" x="1404" y="-192.04" font-family="Helvetica,sans-Serif" font-size="14.00">▶ Ran sandbox for `sweepai/utils/ticket_utils_test.py`.</text>
</g>
<!-- 4564e8b5&#45;2000&#45;4ba2&#45;9c15&#45;c40353b3c878&#45;&gt;ba5a60ff&#45;6255&#45;4f74&#45;add9&#45;efc6216e4d8a -->
<g id="edge11" class="edge">
<title>4564e8b5&#45;2000&#45;4ba2&#45;9c15&#45;c40353b3c878&#45;&gt;ba5a60ff&#45;6255&#45;4f74&#45;add9&#45;efc6216e4d8a</title>
<path fill="none" stroke="black" stroke-dasharray="5,2" d="M1097.78,-256.25C1160.95,-243.97 1241,-228.42 1303.41,-216.29"/>
<polygon fill="black" stroke="black" points="1303.91,-219.56 1313.06,-214.22 1302.57,-212.69 1303.91,-219.56"/>
</g>
<!-- 9a22e55f&#45;e85e&#45;48a1&#45;a60d&#45;ee6a1f97cc83 -->
<g id="node9" class="node">
<title>9a22e55f&#45;e85e&#45;48a1&#45;a60d&#45;ee6a1f97cc83</title>
<ellipse fill="#0ee832" stroke="black" cx="190" cy="-99.87" rx="159.61" ry="26.74"/>
<text text-anchor="middle" x="190" y="-103.67" font-family="Helvetica,sans-Serif" font-size="14.00">✓ Modify</text>
<text text-anchor="middle" x="190" y="-88.67" font-family="Helvetica,sans-Serif" font-size="14.00">sweepai/handlers/on_ticket.py</text>
</g>
<!-- dead76ba&#45;ae5e&#45;4601&#45;a4b0&#45;a68b30111f97&#45;&gt;9a22e55f&#45;e85e&#45;48a1&#45;a60d&#45;ee6a1f97cc83 -->
<g id="edge2" class="edge">
<title>dead76ba&#45;ae5e&#45;4601&#45;a4b0&#45;a68b30111f97&#45;&gt;9a22e55f&#45;e85e&#45;48a1&#45;a60d&#45;ee6a1f97cc83</title>
<path fill="none" stroke="black" d="M190,-177.52C190,-166.33 190,-151.31 190,-137.53"/>
<polygon fill="black" stroke="black" points="193.5,-137.84 190,-127.84 186.5,-137.84 193.5,-137.84"/>
<text text-anchor="middle" x="287.5" y="-148.54" font-family="Helvetica,sans-Serif" font-size="14.00">Additional changes required</text>
</g>
<!-- afd67110&#45;8fee&#45;488f&#45;9a84&#45;3e9b57b9284a -->
<g id="node10" class="node">
<title>afd67110&#45;8fee&#45;488f&#45;9a84&#45;3e9b57b9284a</title>
<ellipse fill="#0ee832" stroke="black" cx="839" cy="-99.87" rx="145.83" ry="26.74"/>
<text text-anchor="middle" x="839" y="-103.67" font-family="Helvetica,sans-Serif" font-size="14.00">✓ Modify</text>
<text text-anchor="middle" x="839" y="-88.67" font-family="Helvetica,sans-Serif" font-size="14.00">sweepai/utils/ticket_utils.py</text>
</g>
<!-- 5d58a82f&#45;850c&#45;40e6&#45;b1c0&#45;b2dbe4b7a5e2&#45;&gt;afd67110&#45;8fee&#45;488f&#45;9a84&#45;3e9b57b9284a -->
<g id="edge7" class="edge">
<title>5d58a82f&#45;850c&#45;40e6&#45;b1c0&#45;b2dbe4b7a5e2&#45;&gt;afd67110&#45;8fee&#45;488f&#45;9a84&#45;3e9b57b9284a</title>
<path fill="none" stroke="black" d="M959.83,-177.25C949.83,-171.8 938.89,-165.66 929,-159.74 914.55,-151.08 899.1,-141.21 885.16,-132.06"/>
<polygon fill="black" stroke="black" points="887.51,-128.76 877.24,-126.17 883.66,-134.6 887.51,-128.76"/>
<text text-anchor="middle" x="1026.5" y="-148.54" font-family="Helvetica,sans-Serif" font-size="14.00">Additional changes required</text>
</g>
<!-- f1a47404&#45;ecd5&#45;4990&#45;a5c3&#45;e128b6769a6b -->
<g id="node11" class="node">
<title>f1a47404&#45;ecd5&#45;4990&#45;a5c3&#45;e128b6769a6b</title>
<ellipse fill="white" stroke="black" cx="1203" cy="-99.87" rx="169" ry="26.74"/>
<text text-anchor="middle" x="1203" y="-103.67" font-family="Helvetica,sans-Serif" font-size="14.00">▶ Modify</text>
<text text-anchor="middle" x="1203" y="-88.67" font-family="Helvetica,sans-Serif" font-size="14.00">sweepai/utils/ticket_utils_test.py</text>
</g>
<!-- 5d58a82f&#45;850c&#45;40e6&#45;b1c0&#45;b2dbe4b7a5e2&#45;&gt;f1a47404&#45;ecd5&#45;4990&#45;a5c3&#45;e128b6769a6b -->
<g id="edge9" class="edge">
<title>5d58a82f&#45;850c&#45;40e6&#45;b1c0&#45;b2dbe4b7a5e2&#45;&gt;f1a47404&#45;ecd5&#45;4990&#45;a5c3&#45;e128b6769a6b</title>
<path fill="none" stroke="black" d="M1077.18,-177.32C1093.12,-172.62 1109.38,-166.82 1124,-159.74 1138.51,-152.72 1153.05,-142.89 1165.62,-133.27"/>
<polygon fill="black" stroke="black" points="1167.29,-135.61 1172.99,-126.68 1162.96,-130.11 1167.29,-135.61"/>
<text text-anchor="middle" x="1247.5" y="-148.54" font-family="Helvetica,sans-Serif" font-size="14.00">Additional changes required</text>
</g>
<!-- 22a09bf5&#45;fbfd&#45;4aeb&#45;9f1b&#45;c7a22719d76a -->
<g id="node12" class="node">
<title>22a09bf5&#45;fbfd&#45;4aeb&#45;9f1b&#45;c7a22719d76a</title>
<polygon fill="#ee0000" stroke="black" points="380,-36 0,-36 0,0 380,0 380,-36"/>
<text text-anchor="middle" x="190" y="-14.3" font-family="Helvetica,sans-Serif" font-size="14.00">✗ Ran sandbox for `sweepai/handlers/on_ticket.py`.</text>
</g>
<!-- 9a22e55f&#45;e85e&#45;48a1&#45;a60d&#45;ee6a1f97cc83&#45;&gt;22a09bf5&#45;fbfd&#45;4aeb&#45;9f1b&#45;c7a22719d76a -->
<g id="edge3" class="edge">
<title>9a22e55f&#45;e85e&#45;48a1&#45;a60d&#45;ee6a1f97cc83&#45;&gt;22a09bf5&#45;fbfd&#45;4aeb&#45;9f1b&#45;c7a22719d76a</title>
<path fill="none" stroke="black" stroke-dasharray="5,2" d="M190,-72.72C190,-64.46 190,-55.31 190,-46.93"/>
<polygon fill="black" stroke="black" points="193.5,-47.15 190,-37.15 186.5,-47.15 193.5,-47.15"/>
</g>
<!-- 1fcd71bd&#45;ad24&#45;4277&#45;9428&#45;acaf5a86013a -->
<g id="node13" class="node">
<title>1fcd71bd&#45;ad24&#45;4277&#45;9428&#45;acaf5a86013a</title>
<polygon fill="yellow" stroke="black" points="1004,-36 642,-36 642,0 1004,0 1004,-36"/>
<text text-anchor="middle" x="823" y="-14.3" font-family="Helvetica,sans-Serif" font-size="14.00">⋯ Ran sandbox for `sweepai/utils/ticket_utils.py`.</text>
</g>
<!-- afd67110&#45;8fee&#45;488f&#45;9a84&#45;3e9b57b9284a&#45;&gt;1fcd71bd&#45;ad24&#45;4277&#45;9428&#45;acaf5a86013a -->
<g id="edge8" class="edge">
<title>afd67110&#45;8fee&#45;488f&#45;9a84&#45;3e9b57b9284a&#45;&gt;1fcd71bd&#45;ad24&#45;4277&#45;9428&#45;acaf5a86013a</title>
<path fill="none" stroke="black" stroke-dasharray="5,2" d="M833.76,-72.72C832.11,-64.46 830.27,-55.31 828.6,-46.93"/>
<polygon fill="black" stroke="black" points="831.83,-46.26 826.43,-37.15 824.97,-47.64 831.83,-46.26"/>
</g>
<!-- 809a03a1&#45;3885&#45;4a21&#45;a703&#45;a1da9012db30 -->
<g id="node14" class="node">
<title>809a03a1&#45;3885&#45;4a21&#45;a703&#45;a1da9012db30</title>
<polygon fill="white" stroke="black" points="1414,-36 1022,-36 1022,0 1414,0 1414,-36"/>
<text text-anchor="middle" x="1218" y="-14.3" font-family="Helvetica,sans-Serif" font-size="14.00">▶ Ran sandbox for `sweepai/utils/ticket_utils_test.py`.</text>
</g>
<!-- f1a47404&#45;ecd5&#45;4990&#45;a5c3&#45;e128b6769a6b&#45;&gt;809a03a1&#45;3885&#45;4a21&#45;a703&#45;a1da9012db30 -->
<g id="edge10" class="edge">
<title>f1a47404&#45;ecd5&#45;4990&#45;a5c3&#45;e128b6769a6b&#45;&gt;809a03a1&#45;3885&#45;4a21&#45;a703&#45;a1da9012db30</title>
<path fill="none" stroke="black" stroke-dasharray="5,2" d="M1207.91,-72.72C1209.46,-64.46 1211.18,-55.31 1212.75,-46.93"/>
<polygon fill="black" stroke="black" points="1216.37,-47.62 1214.78,-37.15 1209.49,-46.33 1216.37,-47.62"/>
</g>
</g>
</svg>
