<?xml version="1.0" encoding="UTF-8" standalone="no"?>
<!DOCTYPE svg PUBLIC "-//W3C//DTD SVG 1.1//EN"
 "http://www.w3.org/Graphics/SVG/1.1/DTD/svg11.dtd">
<!-- Generated by graphviz version 2.43.0 (0)
 -->
<!-- Title: %3 Pages: 1 -->
<svg width="956pt" height="238pt"
 viewBox="0.00 0.00 956.00 237.74" xmlns="http://www.w3.org/2000/svg" xmlns:xlink="http://www.w3.org/1999/xlink">
<g id="graph0" class="graph" transform="scale(1 1) rotate(0) translate(36 201.74)">
<title>%3</title>
<polygon fill="dimgray" stroke="transparent" points="-36,36 -36,-201.74 920,-201.74 920,36 -36,36"/>
<text text-anchor="middle" x="442" y="-150.54" font-family="Helvetica,sans-Serif" font-size="14.00">Sweep&#39;s Plan &amp; Progress</text>
<!-- start -->
<g id="node1" class="node">
<title>start</title>
</g>
<!-- 001e21f0&#45;e3be&#45;4bde&#45;8d6d&#45;24fc57732562 -->
<g id="node3" class="node">
<title>001e21f0&#45;e3be&#45;4bde&#45;8d6d&#45;24fc57732562</title>
<ellipse fill="yellow" stroke="black" cx="271" cy="-99.87" rx="195.74" ry="26.74"/>
<text text-anchor="middle" x="271" y="-103.67" font-family="Helvetica,sans-Serif" font-size="14.00">⋯ Create</text>
<text text-anchor="middle" x="271" y="-88.67" font-family="Helvetica,sans-Serif" font-size="14.00">sweepai/agents/query_filter_agent.py</text>
</g>
<!-- start&#45;&gt;001e21f0&#45;e3be&#45;4bde&#45;8d6d&#45;24fc57732562 -->
<g id="edge4" class="edge">
<title>start&#45;&gt;001e21f0&#45;e3be&#45;4bde&#45;8d6d&#45;24fc57732562</title>
<path fill="none" stroke="black" d="M23.71,-99.87C27.16,-99.87 42.91,-99.87 64.91,-99.87"/>
<polygon fill="black" stroke="black" points="65.07,-103.37 75.07,-99.87 65.07,-96.37 65.07,-103.37"/>
<text text-anchor="middle" x="49.32" y="-106.67" font-family="Helvetica,sans-Serif" font-size="14.00">Start</text>
</g>
<!-- end -->
<g id="node2" class="node">
<title>end</title>
</g>
<!-- b394e9b4&#45;0133&#45;4b1c&#45;b1c0&#45;13361462d809 -->
<g id="node4" class="node">
<title>b394e9b4&#45;0133&#45;4b1c&#45;b1c0&#45;13361462d809</title>
<ellipse fill="white" stroke="black" cx="667" cy="-99.87" rx="145.83" ry="26.74"/>
<text text-anchor="middle" x="667" y="-103.67" font-family="Helvetica,sans-Serif" font-size="14.00">▶ Modify</text>
<text text-anchor="middle" x="667" y="-88.67" font-family="Helvetica,sans-Serif" font-size="14.00">sweepai/utils/ticket_utils.py</text>
</g>
<!-- 001e21f0&#45;e3be&#45;4bde&#45;8d6d&#45;24fc57732562&#45;&gt;b394e9b4&#45;0133&#45;4b1c&#45;b1c0&#45;13361462d809 -->
<g id="edge2" class="edge">
<title>001e21f0&#45;e3be&#45;4bde&#45;8d6d&#45;24fc57732562&#45;&gt;b394e9b4&#45;0133&#45;4b1c&#45;b1c0&#45;13361462d809</title>
<path fill="none" stroke="black" d="M467.07,-99.87C481.66,-99.87 496.26,-99.87 510.85,-99.87"/>
<polygon fill="black" stroke="black" points="510.95,-103.37 520.95,-99.87 510.95,-96.37 510.95,-103.37"/>
</g>
<!-- 3749ba6f&#45;a061&#45;4505&#45;b45e&#45;a1a4e6a4d7c4 -->
<g id="node5" class="node">
<title>3749ba6f&#45;a061&#45;4505&#45;b45e&#45;a1a4e6a4d7c4</title>
<polygon fill="white" stroke="black" points="468,-36 0,-36 0,0 468,0 468,-36"/>
<text text-anchor="middle" x="234" y="-14.3" font-family="Helvetica,sans-Serif" font-size="14.00">▶ Run GitHub Actions for `sweepai/agents/query_filter_agent.py`</text>
</g>
<!-- 001e21f0&#45;e3be&#45;4bde&#45;8d6d&#45;24fc57732562&#45;&gt;3749ba6f&#45;a061&#45;4505&#45;b45e&#45;a1a4e6a4d7c4 -->
<g id="edge1" class="edge">
<title>001e21f0&#45;e3be&#45;4bde&#45;8d6d&#45;24fc57732562&#45;&gt;3749ba6f&#45;a061&#45;4505&#45;b45e&#45;a1a4e6a4d7c4</title>
<path fill="none" stroke="black" stroke-dasharray="5,2" d="M258.88,-72.72C254.8,-63.9 250.24,-54.05 246.15,-45.23"/>
<polygon fill="black" stroke="black" points="249.32,-43.75 241.94,-36.15 242.97,-46.69 249.32,-43.75"/>
</g>
<!-- b394e9b4&#45;0133&#45;4b1c&#45;b1c0&#45;13361462d809&#45;&gt;end -->
<g id="edge5" class="edge">
<title>b394e9b4&#45;0133&#45;4b1c&#45;b1c0&#45;13361462d809&#45;&gt;end</title>
<path fill="none" stroke="black" d="M812.81,-99.87C832.57,-99.87 849.62,-99.87 860.07,-99.87"/>
<polygon fill="black" stroke="black" points="860.35,-103.37 870.35,-99.87 860.35,-96.37 860.35,-103.37"/>
<text text-anchor="middle" x="841.58" y="-106.67" font-family="Helvetica,sans-Serif" font-size="14.00">Finish</text>
</g>
<!-- b413ab0a&#45;dec9&#45;4300&#45;9912&#45;38ad46c61aaa -->
<g id="node6" class="node">
<title>b413ab0a&#45;dec9&#45;4300&#45;9912&#45;38ad46c61aaa</title>
<polygon fill="white" stroke="black" points="884,-36 486,-36 486,0 884,0 884,-36"/>
<text text-anchor="middle" x="685" y="-14.3" font-family="Helvetica,sans-Serif" font-size="14.00">▶ Run GitHub Actions for `sweepai/utils/ticket_utils.py`</text>
</g>
<!-- b394e9b4&#45;0133&#45;4b1c&#45;b1c0&#45;13361462d809&#45;&gt;b413ab0a&#45;dec9&#45;4300&#45;9912&#45;38ad46c61aaa -->
<g id="edge3" class="edge">
<title>b394e9b4&#45;0133&#45;4b1c&#45;b1c0&#45;13361462d809&#45;&gt;b413ab0a&#45;dec9&#45;4300&#45;9912&#45;38ad46c61aaa</title>
<path fill="none" stroke="black" stroke-dasharray="5,2" d="M672.89,-72.72C674.82,-64.18 676.96,-54.68 678.9,-46.08"/>
<polygon fill="black" stroke="black" points="682.35,-46.67 681.14,-36.15 675.52,-45.13 682.35,-46.67"/>
</g>
</g>
</svg>
