<?xml version="1.0" encoding="UTF-8" standalone="no"?>
<!DOCTYPE svg PUBLIC "-//W3C//DTD SVG 1.1//EN"
 "http://www.w3.org/Graphics/SVG/1.1/DTD/svg11.dtd">
<!-- Generated by graphviz version 8.0.3 (0)
 -->
<!-- Pages: 1 -->
<svg width="1243pt" height="165pt"
 viewBox="0.00 0.00 1243.00 164.74" xmlns="http://www.w3.org/2000/svg" xmlns:xlink="http://www.w3.org/1999/xlink">
<g id="graph0" class="graph" transform="scale(1 1) rotate(0) translate(36 128.74)">
<polygon fill="dimgray" stroke="none" points="-36,36 -36,-128.74 1207,-128.74 1207,36 -36,36"/>
<text text-anchor="middle" x="585.5" y="-77.54" font-family="Helvetica,sans-Serif" font-size="14.00">Sweep&#39;s Plan &amp; Progress</text>
<!-- start -->
<g id="node1" class="node">
<title>start</title>
</g>
<!-- f923d067&#45;0175&#45;4f2b&#45;9c02&#45;4b250dc987d0 -->
<g id="node3" class="node">
<title>f923d067&#45;0175&#45;4f2b&#45;9c02&#45;4b250dc987d0</title>
<ellipse fill="#0ee832" stroke="black" cx="215.5" cy="-26.87" rx="162.77" ry="26.74"/>
<text text-anchor="middle" x="215.5" y="-30.67" font-family="Helvetica,sans-Serif" font-size="14.00">✓ Create</text>
<text text-anchor="middle" x="215.5" y="-15.67" font-family="Helvetica,sans-Serif" font-size="14.00">sweepai/agents/filter_agent.py</text>
</g>
<!-- start&#45;&gt;f923d067&#45;0175&#45;4f2b&#45;9c02&#45;4b250dc987d0 -->
<g id="edge3" class="edge">
<title>start&#45;&gt;f923d067&#45;0175&#45;4f2b&#45;9c02&#45;4b250dc987d0</title>
<path fill="none" stroke="black" d="M0.66,-26.87C2.4,-26.87 18.59,-26.87 41.38,-26.87"/>
<polygon fill="black" stroke="black" points="41.29,-30.37 51.29,-26.87 41.29,-23.37 41.29,-30.37"/>
<text text-anchor="middle" x="26.93" y="-33.67" font-family="Helvetica,sans-Serif" font-size="14.00">Start</text>
</g>
<!-- end -->
<g id="node2" class="node">
<title>end</title>
</g>
<!-- 585ec016&#45;1089&#45;43ae&#45;9c12&#45;5498ad367b61 -->
<g id="node4" class="node">
<title>585ec016&#45;1089&#45;43ae&#45;9c12&#45;5498ad367b61</title>
<ellipse fill="yellow" stroke="black" cx="559.5" cy="-26.87" rx="145.83" ry="26.74"/>
<text text-anchor="middle" x="559.5" y="-30.67" font-family="Helvetica,sans-Serif" font-size="14.00">⋯ Modify</text>
<text text-anchor="middle" x="559.5" y="-15.67" font-family="Helvetica,sans-Serif" font-size="14.00">sweepai/utils/ticket_utils.py</text>
</g>
<!-- f923d067&#45;0175&#45;4f2b&#45;9c02&#45;4b250dc987d0&#45;&gt;585ec016&#45;1089&#45;43ae&#45;9c12&#45;5498ad367b61 -->
<g id="edge1" class="edge">
<title>f923d067&#45;0175&#45;4f2b&#45;9c02&#45;4b250dc987d0&#45;&gt;585ec016&#45;1089&#45;43ae&#45;9c12&#45;5498ad367b61</title>
<path fill="none" stroke="black" d="M378.77,-26.87C386.69,-26.87 394.62,-26.87 402.55,-26.87"/>
<polygon fill="black" stroke="black" points="402.36,-30.37 412.36,-26.87 402.36,-23.37 402.36,-30.37"/>
</g>
<!-- f153e39c&#45;ffd9&#45;4ffa&#45;acd9&#45;cc628c4900ef -->
<g id="node5" class="node">
<title>f153e39c&#45;ffd9&#45;4ffa&#45;acd9&#45;cc628c4900ef</title>
<ellipse fill="white" stroke="black" cx="926.5" cy="-26.87" rx="185.94" ry="26.74"/>
<text text-anchor="middle" x="926.5" y="-30.67" font-family="Helvetica,sans-Serif" font-size="14.00">▶ Create</text>
<text text-anchor="middle" x="926.5" y="-15.67" font-family="Helvetica,sans-Serif" font-size="14.00">sweepai/agents/filter_agent_test.py</text>
</g>
<!-- 585ec016&#45;1089&#45;43ae&#45;9c12&#45;5498ad367b61&#45;&gt;f153e39c&#45;ffd9&#45;4ffa&#45;acd9&#45;cc628c4900ef -->
<g id="edge2" class="edge">
<title>585ec016&#45;1089&#45;43ae&#45;9c12&#45;5498ad367b61&#45;&gt;f153e39c&#45;ffd9&#45;4ffa&#45;acd9&#45;cc628c4900ef</title>
<path fill="none" stroke="black" d="M705.73,-26.87C713.63,-26.87 721.54,-26.87 729.44,-26.87"/>
<polygon fill="black" stroke="black" points="729.22,-30.37 739.22,-26.87 729.22,-23.37 729.22,-30.37"/>
</g>
<!-- f153e39c&#45;ffd9&#45;4ffa&#45;acd9&#45;cc628c4900ef&#45;&gt;end -->
<g id="edge4" class="edge">
<title>f153e39c&#45;ffd9&#45;4ffa&#45;acd9&#45;cc628c4900ef&#45;&gt;end</title>
<path fill="none" stroke="black" d="M1112.68,-26.87C1132.49,-26.87 1149.14,-26.87 1159.42,-26.87"/>
<polygon fill="black" stroke="black" points="1159.22,-30.37 1169.22,-26.87 1159.22,-23.37 1159.22,-30.37"/>
<text text-anchor="middle" x="1141.23" y="-33.67" font-family="Helvetica,sans-Serif" font-size="14.00">Finish</text>
</g>
</g>
</svg>
