<?xml version="1.0" encoding="UTF-8" standalone="no"?>
<!DOCTYPE svg PUBLIC "-//W3C//DTD SVG 1.1//EN"
 "http://www.w3.org/Graphics/SVG/1.1/DTD/svg11.dtd">
<!-- Generated by graphviz version 2.43.0 (0)
 -->
<!-- Title: %3 Pages: 1 -->
<svg width="894pt" height="238pt"
 viewBox="0.00 0.00 894.00 237.74" xmlns="http://www.w3.org/2000/svg" xmlns:xlink="http://www.w3.org/1999/xlink">
<g id="graph0" class="graph" transform="scale(1 1) rotate(0) translate(36 201.74)">
<title>%3</title>
<polygon fill="dimgray" stroke="transparent" points="-36,36 -36,-201.74 858,-201.74 858,36 -36,36"/>
<text text-anchor="middle" x="411" y="-150.54" font-family="Helvetica,sans-Serif" font-size="14.00">Sweep&#39;s Plan &amp; Progress</text>
<!-- start -->
<g id="node1" class="node">
<title>start</title>
</g>
<!-- f392d2b7&#45;6c19&#45;48de&#45;994e&#45;0dc6bfab573a -->
<g id="node3" class="node">
<title>f392d2b7&#45;6c19&#45;48de&#45;994e&#45;0dc6bfab573a</title>
<ellipse fill="#0ee832" stroke="black" cx="248" cy="-99.87" rx="149.4" ry="26.74"/>
<text text-anchor="middle" x="248" y="-103.67" font-family="Helvetica,sans-Serif" font-size="14.00">✓ Create</text>
<text text-anchor="middle" x="248" y="-88.67" font-family="Helvetica,sans-Serif" font-size="14.00">sweepai/utils/query_filter.py</text>
</g>
<!-- start&#45;&gt;f392d2b7&#45;6c19&#45;48de&#45;994e&#45;0dc6bfab573a -->
<g id="edge4" class="edge">
<title>start&#45;&gt;f392d2b7&#45;6c19&#45;48de&#45;994e&#45;0dc6bfab573a</title>
<path fill="none" stroke="black" d="M47.58,-99.87C50.77,-99.87 66.9,-99.87 88.73,-99.87"/>
<polygon fill="black" stroke="black" points="88.78,-103.37 98.78,-99.87 88.78,-96.37 88.78,-103.37"/>
<text text-anchor="middle" x="73.15" y="-106.67" font-family="Helvetica,sans-Serif" font-size="14.00">Start</text>
</g>
<!-- end -->
<g id="node2" class="node">
<title>end</title>
</g>
<!-- 8decf055&#45;c5de&#45;44cd&#45;bb2b&#45;343b42d50d11 -->
<g id="node4" class="node">
<title>8decf055&#45;c5de&#45;44cd&#45;bb2b&#45;343b42d50d11</title>
<ellipse fill="white" stroke="black" cx="601" cy="-99.87" rx="145.83" ry="26.74"/>
<text text-anchor="middle" x="601" y="-103.67" font-family="Helvetica,sans-Serif" font-size="14.00">▶ Modify</text>
<text text-anchor="middle" x="601" y="-88.67" font-family="Helvetica,sans-Serif" font-size="14.00">sweepai/utils/ticket_utils.py</text>
</g>
<!-- f392d2b7&#45;6c19&#45;48de&#45;994e&#45;0dc6bfab573a&#45;&gt;8decf055&#45;c5de&#45;44cd&#45;bb2b&#45;343b42d50d11 -->
<g id="edge2" class="edge">
<title>f392d2b7&#45;6c19&#45;48de&#45;994e&#45;0dc6bfab573a&#45;&gt;8decf055&#45;c5de&#45;44cd&#45;bb2b&#45;343b42d50d11</title>
<path fill="none" stroke="black" d="M397.27,-99.87C413.04,-99.87 428.82,-99.87 444.6,-99.87"/>
<polygon fill="black" stroke="black" points="444.96,-103.37 454.96,-99.87 444.96,-96.37 444.96,-103.37"/>
</g>
<!-- 46b37ca3&#45;6ea2&#45;448c&#45;82f9&#45;c65bf676e43c -->
<g id="node5" class="node">
<title>46b37ca3&#45;6ea2&#45;448c&#45;82f9&#45;c65bf676e43c</title>
<polygon fill="yellow" stroke="black" points="406,-36 0,-36 0,0 406,0 406,-36"/>
<text text-anchor="middle" x="203" y="-14.3" font-family="Helvetica,sans-Serif" font-size="14.00">⋯ Run GitHub Actions for `sweepai/utils/query_filter.py`</text>
</g>
<!-- f392d2b7&#45;6c19&#45;48de&#45;994e&#45;0dc6bfab573a&#45;&gt;46b37ca3&#45;6ea2&#45;448c&#45;82f9&#45;c65bf676e43c -->
<g id="edge1" class="edge">
<title>f392d2b7&#45;6c19&#45;48de&#45;994e&#45;0dc6bfab573a&#45;&gt;46b37ca3&#45;6ea2&#45;448c&#45;82f9&#45;c65bf676e43c</title>
<path fill="none" stroke="black" stroke-dasharray="5,2" d="M233.27,-72.72C228.24,-63.8 222.63,-53.84 217.62,-44.95"/>
<polygon fill="black" stroke="black" points="220.62,-43.14 212.66,-36.15 214.52,-46.58 220.62,-43.14"/>
</g>
<!-- 8decf055&#45;c5de&#45;44cd&#45;bb2b&#45;343b42d50d11&#45;&gt;end -->
<g id="edge5" class="edge">
<title>8decf055&#45;c5de&#45;44cd&#45;bb2b&#45;343b42d50d11&#45;&gt;end</title>
<path fill="none" stroke="black" d="M746.81,-99.87C766.57,-99.87 783.62,-99.87 794.07,-99.87"/>
<polygon fill="black" stroke="black" points="794.35,-103.37 804.35,-99.87 794.35,-96.37 794.35,-103.37"/>
<text text-anchor="middle" x="775.58" y="-106.67" font-family="Helvetica,sans-Serif" font-size="14.00">Finish</text>
</g>
<!-- 76fc2770&#45;aae9&#45;49eb&#45;bce7&#45;ddfb13f7684f -->
<g id="node6" class="node">
<title>76fc2770&#45;aae9&#45;49eb&#45;bce7&#45;ddfb13f7684f</title>
<polygon fill="white" stroke="black" points="822,-36 424,-36 424,0 822,0 822,-36"/>
<text text-anchor="middle" x="623" y="-14.3" font-family="Helvetica,sans-Serif" font-size="14.00">▶ Run GitHub Actions for `sweepai/utils/ticket_utils.py`</text>
</g>
<!-- 8decf055&#45;c5de&#45;44cd&#45;bb2b&#45;343b42d50d11&#45;&gt;76fc2770&#45;aae9&#45;49eb&#45;bce7&#45;ddfb13f7684f -->
<g id="edge3" class="edge">
<title>8decf055&#45;c5de&#45;44cd&#45;bb2b&#45;343b42d50d11&#45;&gt;76fc2770&#45;aae9&#45;49eb&#45;bce7&#45;ddfb13f7684f</title>
<path fill="none" stroke="black" stroke-dasharray="5,2" d="M608.2,-72.72C610.58,-64.08 613.23,-54.47 615.62,-45.79"/>
<polygon fill="black" stroke="black" points="619,-46.72 618.28,-36.15 612.25,-44.86 619,-46.72"/>
</g>
</g>
</svg>
