<?xml version="1.0" encoding="UTF-8" standalone="no"?>
<!DOCTYPE svg PUBLIC "-//W3C//DTD SVG 1.1//EN"
 "http://www.w3.org/Graphics/SVG/1.1/DTD/svg11.dtd">
<!-- Generated by graphviz version 8.0.3 (0)
 -->
<!-- Pages: 1 -->
<svg width="353pt" height="238pt"
 viewBox="0.00 0.00 353.00 237.74" xmlns="http://www.w3.org/2000/svg" xmlns:xlink="http://www.w3.org/1999/xlink">
<g id="graph0" class="graph" transform="scale(1 1) rotate(0) translate(36 201.74)">
<polygon fill="dimgray" stroke="none" points="-36,36 -36,-201.74 317,-201.74 317,36 -36,36"/>
<text text-anchor="middle" x="140.5" y="-150.54" font-family="Helvetica,sans-Serif" font-size="14.00">Sweep&#39;s Plan &amp; Progress</text>
<!-- start -->
<g id="node1" class="node">
<title>start</title>
</g>
<!-- 6af5b632&#45;ce25&#45;4ce0&#45;b9d1&#45;c3416d46a338 -->
<g id="node3" class="node">
<title>6af5b632&#45;ce25&#45;4ce0&#45;b9d1&#45;c3416d46a338</title>
<ellipse fill="yellow" stroke="black" cx="137.5" cy="-99.87" rx="84.71" ry="26.74"/>
<text text-anchor="middle" x="137.5" y="-103.67" font-family="Helvetica,sans-Serif" font-size="14.00">⋯ Modify</text>
<text text-anchor="middle" x="137.5" y="-88.67" font-family="Helvetica,sans-Serif" font-size="14.00">sweepai/api.py</text>
</g>
<!-- start&#45;&gt;6af5b632&#45;ce25&#45;4ce0&#45;b9d1&#45;c3416d46a338 -->
<g id="edge2" class="edge">
<title>start&#45;&gt;6af5b632&#45;ce25&#45;4ce0&#45;b9d1&#45;c3416d46a338</title>
<path fill="none" stroke="black" d="M0.89,-99.87C3.65,-99.87 20.54,-99.87 41.56,-99.87"/>
<polygon fill="black" stroke="black" points="41.53,-103.37 51.53,-99.87 41.53,-96.37 41.53,-103.37"/>
<text text-anchor="middle" x="26.82" y="-106.67" font-family="Helvetica,sans-Serif" font-size="14.00">Start</text>
</g>
<!-- end -->
<g id="node2" class="node">
<title>end</title>
</g>
<!-- 6af5b632&#45;ce25&#45;4ce0&#45;b9d1&#45;c3416d46a338&#45;&gt;end -->
<g id="edge3" class="edge">
<title>6af5b632&#45;ce25&#45;4ce0&#45;b9d1&#45;c3416d46a338&#45;&gt;end</title>
<path fill="none" stroke="black" d="M222.34,-99.87C241.06,-99.87 258.51,-99.87 269.32,-99.87"/>
<polygon fill="black" stroke="black" points="269.19,-103.37 279.19,-99.87 269.19,-96.37 269.19,-103.37"/>
<text text-anchor="middle" x="251.18" y="-106.67" font-family="Helvetica,sans-Serif" font-size="14.00">Finish</text>
</g>
<!-- 2b05486f&#45;9229&#45;4748&#45;abc1&#45;d4422777613a -->
<g id="node4" class="node">
<title>2b05486f&#45;9229&#45;4748&#45;abc1&#45;d4422777613a</title>
<polygon fill="white" stroke="black" points="273.5,-36 1.5,-36 1.5,0 273.5,0 273.5,-36"/>
<text text-anchor="middle" x="137.5" y="-14.3" font-family="Helvetica,sans-Serif" font-size="14.00">▶ Ran sandbox for `sweepai/api.py`.</text>
</g>
<!-- 6af5b632&#45;ce25&#45;4ce0&#45;b9d1&#45;c3416d46a338&#45;&gt;2b05486f&#45;9229&#45;4748&#45;abc1&#45;d4422777613a -->
<g id="edge1" class="edge">
<title>6af5b632&#45;ce25&#45;4ce0&#45;b9d1&#45;c3416d46a338&#45;&gt;2b05486f&#45;9229&#45;4748&#45;abc1&#45;d4422777613a</title>
<path fill="none" stroke="black" stroke-dasharray="5,2" d="M137.5,-72.72C137.5,-64.46 137.5,-55.31 137.5,-46.93"/>
<polygon fill="black" stroke="black" points="141,-47.15 137.5,-37.15 134,-47.15 141,-47.15"/>
</g>
</g>
</svg>
