<?xml version="1.0" encoding="UTF-8" standalone="no"?>
<!DOCTYPE svg PUBLIC "-//W3C//DTD SVG 1.1//EN"
 "http://www.w3.org/Graphics/SVG/1.1/DTD/svg11.dtd">
<!-- Generated by graphviz version 8.0.3 (0)
 -->
<!-- Pages: 1 -->
<svg width="2487pt" height="771pt"
 viewBox="0.00 0.00 2486.50 770.96" xmlns="http://www.w3.org/2000/svg" xmlns:xlink="http://www.w3.org/1999/xlink">
<g id="graph0" class="graph" transform="scale(1 1) rotate(0) translate(36 734.96)">
<polygon fill="dimgray" stroke="none" points="-36,36 -36,-734.96 2450.5,-734.96 2450.5,36 -36,36"/>
<text text-anchor="middle" x="1207.25" y="-683.76" font-family="Helvetica,sans-Serif" font-size="14.00">Sweep&#39;s Plan &amp; Progress</text>
<!-- start -->
<g id="node1" class="node">
<title>start</title>
</g>
<!-- 5b11ec1c&#45;beb0&#45;4f74&#45;bf10&#45;86a5c4bdabe2 -->
<g id="node3" class="node">
<title>5b11ec1c&#45;beb0&#45;4f74&#45;bf10&#45;86a5c4bdabe2</title>
<ellipse fill="#0ee832" stroke="black" cx="1564.5" cy="-633.09" rx="159.61" ry="26.74"/>
<text text-anchor="middle" x="1564.5" y="-636.89" font-family="Helvetica,sans-Serif" font-size="14.00">✓ Modify</text>
<text text-anchor="middle" x="1564.5" y="-621.89" font-family="Helvetica,sans-Serif" font-size="14.00">sweepai/handlers/on_ticket.py</text>
</g>
<!-- start&#45;&gt;5b11ec1c&#45;beb0&#45;4f74&#45;bf10&#45;86a5c4bdabe2 -->
<g id="edge22" class="edge">
<title>start&#45;&gt;5b11ec1c&#45;beb0&#45;4f74&#45;bf10&#45;86a5c4bdabe2</title>
<path fill="none" stroke="black" d="M1352.65,-633.09C1354.39,-633.09 1370.75,-633.09 1393.67,-633.09"/>
<polygon fill="black" stroke="black" points="1393.63,-636.59 1403.63,-633.09 1393.63,-629.59 1393.63,-636.59"/>
<text text-anchor="middle" x="1378.85" y="-639.89" font-family="Helvetica,sans-Serif" font-size="14.00">Start</text>
</g>
<!-- end -->
<g id="node2" class="node">
<title>end</title>
</g>
<!-- 5b11ec1c&#45;beb0&#45;4f74&#45;bf10&#45;86a5c4bdabe2&#45;&gt;end -->
<g id="edge23" class="edge">
<title>5b11ec1c&#45;beb0&#45;4f74&#45;bf10&#45;86a5c4bdabe2&#45;&gt;end</title>
<path fill="none" stroke="black" d="M1724.37,-633.09C1744,-633.09 1760.8,-633.09 1771.22,-633.09"/>
<polygon fill="black" stroke="black" points="1771.21,-636.59 1781.21,-633.09 1771.21,-629.59 1771.21,-636.59"/>
<text text-anchor="middle" x="1753.15" y="-639.89" font-family="Helvetica,sans-Serif" font-size="14.00">Finish</text>
</g>
<!-- 8e0fde05&#45;2279&#45;4579&#45;8605&#45;b83cee5a5a07 -->
<g id="node4" class="node">
<title>8e0fde05&#45;2279&#45;4579&#45;8605&#45;b83cee5a5a07</title>
<polygon fill="#ee0000" stroke="black" points="1185.5,-569.22 805.5,-569.22 805.5,-533.22 1185.5,-533.22 1185.5,-569.22"/>
<text text-anchor="middle" x="995.5" y="-547.52" font-family="Helvetica,sans-Serif" font-size="14.00">✗ Ran sandbox for `sweepai/handlers/on_ticket.py`.</text>
</g>
<!-- 5b11ec1c&#45;beb0&#45;4f74&#45;bf10&#45;86a5c4bdabe2&#45;&gt;8e0fde05&#45;2279&#45;4579&#45;8605&#45;b83cee5a5a07 -->
<g id="edge1" class="edge">
<title>5b11ec1c&#45;beb0&#45;4f74&#45;bf10&#45;86a5c4bdabe2&#45;&gt;8e0fde05&#45;2279&#45;4579&#45;8605&#45;b83cee5a5a07</title>
<path fill="none" stroke="black" stroke-dasharray="5,2" d="M1444.18,-615.2C1352.48,-602.33 1226.19,-584.6 1130.95,-571.23"/>
<polygon fill="black" stroke="black" points="1131.47,-567.63 1121.08,-569.71 1130.5,-574.56 1131.47,-567.63"/>
</g>
<!-- 25edd5de&#45;5d5c&#45;4d35&#45;b4d1&#45;8d3fd6e7a554 -->
<g id="node5" class="node">
<title>25edd5de&#45;5d5c&#45;4d35&#45;b4d1&#45;8d3fd6e7a554</title>
<polygon fill="#ee0000" stroke="black" points="1595.5,-569.22 1215.5,-569.22 1215.5,-533.22 1595.5,-533.22 1595.5,-569.22"/>
<text text-anchor="middle" x="1405.5" y="-547.52" font-family="Helvetica,sans-Serif" font-size="14.00">✗ Ran sandbox for `sweepai/handlers/on_ticket.py`.</text>
</g>
<!-- 5b11ec1c&#45;beb0&#45;4f74&#45;bf10&#45;86a5c4bdabe2&#45;&gt;25edd5de&#45;5d5c&#45;4d35&#45;b4d1&#45;8d3fd6e7a554 -->
<g id="edge12" class="edge">
<title>5b11ec1c&#45;beb0&#45;4f74&#45;bf10&#45;86a5c4bdabe2&#45;&gt;25edd5de&#45;5d5c&#45;4d35&#45;b4d1&#45;8d3fd6e7a554</title>
<path fill="none" stroke="black" stroke-dasharray="5,2" d="M1515.06,-607.26C1494.22,-596.79 1470.15,-584.7 1449.89,-574.52"/>
<polygon fill="black" stroke="black" points="1451.79,-571.05 1441.28,-569.69 1448.64,-577.31 1451.79,-571.05"/>
</g>
<!-- 68052266&#45;657c&#45;4835&#45;89f5&#45;dfe2336de274 -->
<g id="node6" class="node">
<title>68052266&#45;657c&#45;4835&#45;89f5&#45;dfe2336de274</title>
<polygon fill="#ee0000" stroke="black" points="1993.5,-569.22 1613.5,-569.22 1613.5,-533.22 1993.5,-533.22 1993.5,-569.22"/>
<text text-anchor="middle" x="1803.5" y="-547.52" font-family="Helvetica,sans-Serif" font-size="14.00">✗ Ran sandbox for `sweepai/handlers/on_ticket.py`.</text>
</g>
<!-- 5b11ec1c&#45;beb0&#45;4f74&#45;bf10&#45;86a5c4bdabe2&#45;&gt;68052266&#45;657c&#45;4835&#45;89f5&#45;dfe2336de274 -->
<g id="edge15" class="edge">
<title>5b11ec1c&#45;beb0&#45;4f74&#45;bf10&#45;86a5c4bdabe2&#45;&gt;68052266&#45;657c&#45;4835&#45;89f5&#45;dfe2336de274</title>
<path fill="none" stroke="black" stroke-dasharray="5,2" d="M1634.59,-608.67C1668.27,-597.41 1708.31,-584.03 1740.95,-573.12"/>
<polygon fill="black" stroke="black" points="1741.9,-576.16 1750.27,-569.67 1739.68,-569.52 1741.9,-576.16"/>
</g>
<!-- 5899f5a3&#45;4035&#45;4ffa&#45;a079&#45;5af8d1ac87c5 -->
<g id="node7" class="node">
<title>5899f5a3&#45;4035&#45;4ffa&#45;a079&#45;5af8d1ac87c5</title>
<polygon fill="white" stroke="black" points="2389.5,-569.22 2011.5,-569.22 2011.5,-533.22 2389.5,-533.22 2389.5,-569.22"/>
<text text-anchor="middle" x="2200.5" y="-547.52" font-family="Helvetica,sans-Serif" font-size="14.00">▶ Ran sandbox for `sweepai/handlers/on_ticket.py`.</text>
</g>
<!-- 5b11ec1c&#45;beb0&#45;4f74&#45;bf10&#45;86a5c4bdabe2&#45;&gt;5899f5a3&#45;4035&#45;4ffa&#45;a079&#45;5af8d1ac87c5 -->
<g id="edge21" class="edge">
<title>5b11ec1c&#45;beb0&#45;4f74&#45;bf10&#45;86a5c4bdabe2&#45;&gt;5899f5a3&#45;4035&#45;4ffa&#45;a079&#45;5af8d1ac87c5</title>
<path fill="none" stroke="black" stroke-dasharray="5,2" d="M1690.15,-616.31C1793.68,-603.31 1940.77,-584.84 2050.47,-571.06"/>
<polygon fill="black" stroke="black" points="2050.81,-574.42 2060.3,-569.7 2049.94,-567.47 2050.81,-574.42"/>
</g>
<!-- 34b40d68&#45;6374&#45;45ef&#45;a882&#45;8e845470bb06 -->
<g id="node8" class="node">
<title>34b40d68&#45;6374&#45;45ef&#45;a882&#45;8e845470bb06</title>
<ellipse fill="#0ee832" stroke="black" cx="957.5" cy="-455.35" rx="195.32" ry="26.74"/>
<text text-anchor="middle" x="957.5" y="-459.15" font-family="Helvetica,sans-Serif" font-size="14.00">✓ Modify</text>
<text text-anchor="middle" x="957.5" y="-444.15" font-family="Helvetica,sans-Serif" font-size="14.00">sweepai/agents/assistant_wrapper.py</text>
</g>
<!-- 8e0fde05&#45;2279&#45;4579&#45;8605&#45;b83cee5a5a07&#45;&gt;34b40d68&#45;6374&#45;45ef&#45;a882&#45;8e845470bb06 -->
<g id="edge2" class="edge">
<title>8e0fde05&#45;2279&#45;4579&#45;8605&#45;b83cee5a5a07&#45;&gt;34b40d68&#45;6374&#45;45ef&#45;a882&#45;8e845470bb06</title>
<path fill="none" stroke="black" d="M988.53,-533C983.91,-521.59 977.68,-506.19 972.01,-492.19"/>
<polygon fill="black" stroke="black" points="975.01,-491.28 968.01,-483.32 968.52,-493.9 975.01,-491.28"/>
<text text-anchor="middle" x="1079" y="-504.02" font-family="Helvetica,sans-Serif" font-size="14.00">Additional changes required</text>
</g>
<!-- c39a232b&#45;89c5&#45;4525&#45;9adc&#45;2e0d44bc8eb2 -->
<g id="node9" class="node">
<title>c39a232b&#45;89c5&#45;4525&#45;9adc&#45;2e0d44bc8eb2</title>
<ellipse fill="#0ee832" stroke="black" cx="1405.5" cy="-455.35" rx="195.32" ry="26.74"/>
<text text-anchor="middle" x="1405.5" y="-459.15" font-family="Helvetica,sans-Serif" font-size="14.00">✓ Modify</text>
<text text-anchor="middle" x="1405.5" y="-444.15" font-family="Helvetica,sans-Serif" font-size="14.00">sweepai/agents/assistant_wrapper.py</text>
</g>
<!-- 25edd5de&#45;5d5c&#45;4d35&#45;b4d1&#45;8d3fd6e7a554&#45;&gt;c39a232b&#45;89c5&#45;4525&#45;9adc&#45;2e0d44bc8eb2 -->
<g id="edge13" class="edge">
<title>25edd5de&#45;5d5c&#45;4d35&#45;b4d1&#45;8d3fd6e7a554&#45;&gt;c39a232b&#45;89c5&#45;4525&#45;9adc&#45;2e0d44bc8eb2</title>
<path fill="none" stroke="black" d="M1405.5,-533C1405.5,-521.81 1405.5,-506.79 1405.5,-493.01"/>
<polygon fill="black" stroke="black" points="1409,-493.32 1405.5,-483.32 1402,-493.32 1409,-493.32"/>
<text text-anchor="middle" x="1503" y="-504.02" font-family="Helvetica,sans-Serif" font-size="14.00">Additional changes required</text>
</g>
<!-- a9a40f38&#45;ab76&#45;41c3&#45;b0b5&#45;2fcb83360a0b -->
<g id="node10" class="node">
<title>a9a40f38&#45;ab76&#45;41c3&#45;b0b5&#45;2fcb83360a0b</title>
<ellipse fill="#0ee832" stroke="black" cx="1828.5" cy="-455.35" rx="159.61" ry="26.74"/>
<text text-anchor="middle" x="1828.5" y="-459.15" font-family="Helvetica,sans-Serif" font-size="14.00">✓ Modify</text>
<text text-anchor="middle" x="1828.5" y="-444.15" font-family="Helvetica,sans-Serif" font-size="14.00">sweepai/handlers/on_ticket.py</text>
</g>
<!-- 68052266&#45;657c&#45;4835&#45;89f5&#45;dfe2336de274&#45;&gt;a9a40f38&#45;ab76&#45;41c3&#45;b0b5&#45;2fcb83360a0b -->
<g id="edge16" class="edge">
<title>68052266&#45;657c&#45;4835&#45;89f5&#45;dfe2336de274&#45;&gt;a9a40f38&#45;ab76&#45;41c3&#45;b0b5&#45;2fcb83360a0b</title>
<path fill="none" stroke="black" d="M1808.09,-533C1811.1,-521.7 1815.15,-506.49 1818.85,-492.6"/>
<polygon fill="black" stroke="black" points="1822.39,-493.88 1821.58,-483.32 1815.63,-492.08 1822.39,-493.88"/>
<text text-anchor="middle" x="1915" y="-504.02" font-family="Helvetica,sans-Serif" font-size="14.00">Additional changes required</text>
</g>
<!-- 5dcbde24&#45;bace&#45;4a21&#45;8d93&#45;13ad8106ad7a -->
<g id="node11" class="node">
<title>5dcbde24&#45;bace&#45;4a21&#45;8d93&#45;13ad8106ad7a</title>
<polygon fill="#ee0000" stroke="black" points="724.5,-391.48 294.5,-391.48 294.5,-355.48 724.5,-355.48 724.5,-391.48"/>
<text text-anchor="middle" x="509.5" y="-369.78" font-family="Helvetica,sans-Serif" font-size="14.00">✗ Ran sandbox for `sweepai/agents/assistant_wrapper.py`.</text>
</g>
<!-- 34b40d68&#45;6374&#45;45ef&#45;a882&#45;8e845470bb06&#45;&gt;5dcbde24&#45;bace&#45;4a21&#45;8d93&#45;13ad8106ad7a -->
<g id="edge3" class="edge">
<title>34b40d68&#45;6374&#45;45ef&#45;a882&#45;8e845470bb06&#45;&gt;5dcbde24&#45;bace&#45;4a21&#45;8d93&#45;13ad8106ad7a</title>
<path fill="none" stroke="black" stroke-dasharray="5,2" d="M840.67,-433.52C771.89,-421.26 685.47,-405.85 618.16,-393.85"/>
<polygon fill="black" stroke="black" points="618.98,-390.27 608.52,-391.96 617.75,-397.16 618.98,-390.27"/>
</g>
<!-- 8eed3e26&#45;a5cb&#45;4ad4&#45;baf8&#45;5710ace55950 -->
<g id="node12" class="node">
<title>8eed3e26&#45;a5cb&#45;4ad4&#45;baf8&#45;5710ace55950</title>
<polygon fill="#0ee832" stroke="black" points="1172.5,-391.48 742.5,-391.48 742.5,-355.48 1172.5,-355.48 1172.5,-391.48"/>
<text text-anchor="middle" x="957.5" y="-369.78" font-family="Helvetica,sans-Serif" font-size="14.00">✓ Ran sandbox for `sweepai/agents/assistant_wrapper.py`.</text>
</g>
<!-- 34b40d68&#45;6374&#45;45ef&#45;a882&#45;8e845470bb06&#45;&gt;8eed3e26&#45;a5cb&#45;4ad4&#45;baf8&#45;5710ace55950 -->
<g id="edge11" class="edge">
<title>34b40d68&#45;6374&#45;45ef&#45;a882&#45;8e845470bb06&#45;&gt;8eed3e26&#45;a5cb&#45;4ad4&#45;baf8&#45;5710ace55950</title>
<path fill="none" stroke="black" stroke-dasharray="5,2" d="M957.5,-428.2C957.5,-419.94 957.5,-410.79 957.5,-402.41"/>
<polygon fill="black" stroke="black" points="961,-402.63 957.5,-392.63 954,-402.63 961,-402.63"/>
</g>
<!-- c95a76f4&#45;b1b8&#45;4227&#45;b8f0&#45;66bf4bd91f9e -->
<g id="node13" class="node">
<title>c95a76f4&#45;b1b8&#45;4227&#45;b8f0&#45;66bf4bd91f9e</title>
<polygon fill="#0ee832" stroke="black" points="1620.5,-391.48 1190.5,-391.48 1190.5,-355.48 1620.5,-355.48 1620.5,-391.48"/>
<text text-anchor="middle" x="1405.5" y="-369.78" font-family="Helvetica,sans-Serif" font-size="14.00">✓ Ran sandbox for `sweepai/agents/assistant_wrapper.py`.</text>
</g>
<!-- c39a232b&#45;89c5&#45;4525&#45;9adc&#45;2e0d44bc8eb2&#45;&gt;c95a76f4&#45;b1b8&#45;4227&#45;b8f0&#45;66bf4bd91f9e -->
<g id="edge14" class="edge">
<title>c39a232b&#45;89c5&#45;4525&#45;9adc&#45;2e0d44bc8eb2&#45;&gt;c95a76f4&#45;b1b8&#45;4227&#45;b8f0&#45;66bf4bd91f9e</title>
<path fill="none" stroke="black" stroke-dasharray="5,2" d="M1405.5,-428.2C1405.5,-419.94 1405.5,-410.79 1405.5,-402.41"/>
<polygon fill="black" stroke="black" points="1409,-402.63 1405.5,-392.63 1402,-402.63 1409,-402.63"/>
</g>
<!-- fe6dcce1&#45;6ee6&#45;4e7f&#45;98ef&#45;6643dbdc90e3 -->
<g id="node14" class="node">
<title>fe6dcce1&#45;6ee6&#45;4e7f&#45;98ef&#45;6643dbdc90e3</title>
<polygon fill="#ee0000" stroke="black" points="2018.5,-391.48 1638.5,-391.48 1638.5,-355.48 2018.5,-355.48 2018.5,-391.48"/>
<text text-anchor="middle" x="1828.5" y="-369.78" font-family="Helvetica,sans-Serif" font-size="14.00">✗ Ran sandbox for `sweepai/handlers/on_ticket.py`.</text>
</g>
<!-- a9a40f38&#45;ab76&#45;41c3&#45;b0b5&#45;2fcb83360a0b&#45;&gt;fe6dcce1&#45;6ee6&#45;4e7f&#45;98ef&#45;6643dbdc90e3 -->
<g id="edge17" class="edge">
<title>a9a40f38&#45;ab76&#45;41c3&#45;b0b5&#45;2fcb83360a0b&#45;&gt;fe6dcce1&#45;6ee6&#45;4e7f&#45;98ef&#45;6643dbdc90e3</title>
<path fill="none" stroke="black" stroke-dasharray="5,2" d="M1828.5,-428.2C1828.5,-419.94 1828.5,-410.79 1828.5,-402.41"/>
<polygon fill="black" stroke="black" points="1832,-402.63 1828.5,-392.63 1825,-402.63 1832,-402.63"/>
</g>
<!-- 849cd92e&#45;b4c1&#45;45be&#45;a4a8&#45;d37c4227e6d7 -->
<g id="node15" class="node">
<title>849cd92e&#45;b4c1&#45;45be&#45;a4a8&#45;d37c4227e6d7</title>
<polygon fill="white" stroke="black" points="2414.5,-391.48 2036.5,-391.48 2036.5,-355.48 2414.5,-355.48 2414.5,-391.48"/>
<text text-anchor="middle" x="2225.5" y="-369.78" font-family="Helvetica,sans-Serif" font-size="14.00">▶ Ran sandbox for `sweepai/handlers/on_ticket.py`.</text>
</g>
<!-- a9a40f38&#45;ab76&#45;41c3&#45;b0b5&#45;2fcb83360a0b&#45;&gt;849cd92e&#45;b4c1&#45;45be&#45;a4a8&#45;d37c4227e6d7 -->
<g id="edge20" class="edge">
<title>a9a40f38&#45;ab76&#45;41c3&#45;b0b5&#45;2fcb83360a0b&#45;&gt;849cd92e&#45;b4c1&#45;45be&#45;a4a8&#45;d37c4227e6d7</title>
<path fill="none" stroke="black" stroke-dasharray="5,2" d="M1928.94,-434.14C1989.94,-421.87 2067.44,-406.28 2127.92,-394.11"/>
<polygon fill="black" stroke="black" points="2128.5,-397.36 2137.62,-391.96 2127.12,-390.5 2128.5,-397.36"/>
</g>
<!-- 4ecc6ec1&#45;f778&#45;40b0&#45;b49e&#45;bbd9f2c5d148 -->
<g id="node16" class="node">
<title>4ecc6ec1&#45;f778&#45;40b0&#45;b49e&#45;bbd9f2c5d148</title>
<ellipse fill="#0ee832" stroke="black" cx="231.5" cy="-277.61" rx="188.6" ry="26.74"/>
<text text-anchor="middle" x="231.5" y="-281.41" font-family="Helvetica,sans-Serif" font-size="14.00">✓ Create</text>
<text text-anchor="middle" x="231.5" y="-266.41" font-family="Helvetica,sans-Serif" font-size="14.00">sweepai/services/escrow_handler.py</text>
</g>
<!-- 5dcbde24&#45;bace&#45;4a21&#45;8d93&#45;13ad8106ad7a&#45;&gt;4ecc6ec1&#45;f778&#45;40b0&#45;b49e&#45;bbd9f2c5d148 -->
<g id="edge4" class="edge">
<title>5dcbde24&#45;bace&#45;4a21&#45;8d93&#45;13ad8106ad7a&#45;&gt;4ecc6ec1&#45;f778&#45;40b0&#45;b49e&#45;bbd9f2c5d148</title>
<path fill="none" stroke="black" d="M427.89,-355.06C407.63,-350.04 386.12,-344.1 366.5,-337.48 342.02,-329.22 315.83,-318.3 293.1,-308.12"/>
<polygon fill="black" stroke="black" points="294.8,-304.6 284.25,-303.66 291.92,-310.97 294.8,-304.6"/>
<text text-anchor="middle" x="464" y="-326.28" font-family="Helvetica,sans-Serif" font-size="14.00">Additional changes required</text>
</g>
<!-- d624597b&#45;ee7e&#45;401b&#45;b562&#45;b5c243e02104 -->
<g id="node17" class="node">
<title>d624597b&#45;ee7e&#45;401b&#45;b562&#45;b5c243e02104</title>
<ellipse fill="#0ee832" stroke="black" cx="654.5" cy="-277.61" rx="195.32" ry="26.74"/>
<text text-anchor="middle" x="654.5" y="-281.41" font-family="Helvetica,sans-Serif" font-size="14.00">✓ Modify</text>
<text text-anchor="middle" x="654.5" y="-266.41" font-family="Helvetica,sans-Serif" font-size="14.00">sweepai/agents/assistant_wrapper.py</text>
</g>
<!-- 5dcbde24&#45;bace&#45;4a21&#45;8d93&#45;13ad8106ad7a&#45;&gt;d624597b&#45;ee7e&#45;401b&#45;b562&#45;b5c243e02104 -->
<g id="edge6" class="edge">
<title>5dcbde24&#45;bace&#45;4a21&#45;8d93&#45;13ad8106ad7a&#45;&gt;d624597b&#45;ee7e&#45;401b&#45;b562&#45;b5c243e02104</title>
<path fill="none" stroke="black" d="M536.43,-355.04C555.88,-342.45 582.69,-325.1 605.85,-310.11"/>
<polygon fill="black" stroke="black" points="607.35,-312.65 613.85,-304.28 603.55,-306.78 607.35,-312.65"/>
<text text-anchor="middle" x="684" y="-326.28" font-family="Helvetica,sans-Serif" font-size="14.00">Additional changes required</text>
</g>
<!-- cc84775e&#45;4a17&#45;4df9&#45;91b1&#45;54134d05d6d1 -->
<g id="node18" class="node">
<title>cc84775e&#45;4a17&#45;4df9&#45;91b1&#45;54134d05d6d1</title>
<ellipse fill="#0ee832" stroke="black" cx="1828.5" cy="-277.61" rx="159.61" ry="26.74"/>
<text text-anchor="middle" x="1828.5" y="-281.41" font-family="Helvetica,sans-Serif" font-size="14.00">✓ Modify</text>
<text text-anchor="middle" x="1828.5" y="-266.41" font-family="Helvetica,sans-Serif" font-size="14.00">sweepai/handlers/on_ticket.py</text>
</g>
<!-- fe6dcce1&#45;6ee6&#45;4e7f&#45;98ef&#45;6643dbdc90e3&#45;&gt;cc84775e&#45;4a17&#45;4df9&#45;91b1&#45;54134d05d6d1 -->
<g id="edge18" class="edge">
<title>fe6dcce1&#45;6ee6&#45;4e7f&#45;98ef&#45;6643dbdc90e3&#45;&gt;cc84775e&#45;4a17&#45;4df9&#45;91b1&#45;54134d05d6d1</title>
<path fill="none" stroke="black" d="M1828.5,-355.26C1828.5,-344.07 1828.5,-329.05 1828.5,-315.27"/>
<polygon fill="black" stroke="black" points="1832,-315.58 1828.5,-305.58 1825,-315.58 1832,-315.58"/>
<text text-anchor="middle" x="1926" y="-326.28" font-family="Helvetica,sans-Serif" font-size="14.00">Additional changes required</text>
</g>
<!-- 41f88d97&#45;4ede&#45;4666&#45;8ac5&#45;a20aaf67387b -->
<g id="node19" class="node">
<title>41f88d97&#45;4ede&#45;4666&#45;8ac5&#45;a20aaf67387b</title>
<polygon fill="#0ee832" stroke="black" points="421,-213.74 0,-213.74 0,-177.74 421,-177.74 421,-213.74"/>
<text text-anchor="middle" x="210.5" y="-192.04" font-family="Helvetica,sans-Serif" font-size="14.00">✓ Ran sandbox for `sweepai/services/escrow_handler.py`.</text>
</g>
<!-- 4ecc6ec1&#45;f778&#45;40b0&#45;b49e&#45;bbd9f2c5d148&#45;&gt;41f88d97&#45;4ede&#45;4666&#45;8ac5&#45;a20aaf67387b -->
<g id="edge5" class="edge">
<title>4ecc6ec1&#45;f778&#45;40b0&#45;b49e&#45;bbd9f2c5d148&#45;&gt;41f88d97&#45;4ede&#45;4666&#45;8ac5&#45;a20aaf67387b</title>
<path fill="none" stroke="black" stroke-dasharray="5,2" d="M224.62,-250.46C222.43,-242.11 219.99,-232.84 217.77,-224.39"/>
<polygon fill="black" stroke="black" points="220.94,-223.67 215.01,-214.89 214.17,-225.45 220.94,-223.67"/>
</g>
<!-- 80380f8e&#45;b834&#45;47cd&#45;9d9f&#45;4d697c2a135d -->
<g id="node20" class="node">
<title>80380f8e&#45;b834&#45;47cd&#45;9d9f&#45;4d697c2a135d</title>
<polygon fill="#ee0000" stroke="black" points="869.5,-213.74 439.5,-213.74 439.5,-177.74 869.5,-177.74 869.5,-213.74"/>
<text text-anchor="middle" x="654.5" y="-192.04" font-family="Helvetica,sans-Serif" font-size="14.00">✗ Ran sandbox for `sweepai/agents/assistant_wrapper.py`.</text>
</g>
<!-- d624597b&#45;ee7e&#45;401b&#45;b562&#45;b5c243e02104&#45;&gt;80380f8e&#45;b834&#45;47cd&#45;9d9f&#45;4d697c2a135d -->
<g id="edge7" class="edge">
<title>d624597b&#45;ee7e&#45;401b&#45;b562&#45;b5c243e02104&#45;&gt;80380f8e&#45;b834&#45;47cd&#45;9d9f&#45;4d697c2a135d</title>
<path fill="none" stroke="black" stroke-dasharray="5,2" d="M654.5,-250.46C654.5,-242.2 654.5,-233.05 654.5,-224.67"/>
<polygon fill="black" stroke="black" points="658,-224.89 654.5,-214.89 651,-224.89 658,-224.89"/>
</g>
<!-- 00a0e6a8&#45;0bd7&#45;4aa3&#45;b706&#45;d82b1d710f22 -->
<g id="node21" class="node">
<title>00a0e6a8&#45;0bd7&#45;4aa3&#45;b706&#45;d82b1d710f22</title>
<polygon fill="#0ee832" stroke="black" points="1317.5,-213.74 887.5,-213.74 887.5,-177.74 1317.5,-177.74 1317.5,-213.74"/>
<text text-anchor="middle" x="1102.5" y="-192.04" font-family="Helvetica,sans-Serif" font-size="14.00">✓ Ran sandbox for `sweepai/agents/assistant_wrapper.py`.</text>
</g>
<!-- d624597b&#45;ee7e&#45;401b&#45;b562&#45;b5c243e02104&#45;&gt;00a0e6a8&#45;0bd7&#45;4aa3&#45;b706&#45;d82b1d710f22 -->
<g id="edge10" class="edge">
<title>d624597b&#45;ee7e&#45;401b&#45;b562&#45;b5c243e02104&#45;&gt;00a0e6a8&#45;0bd7&#45;4aa3&#45;b706&#45;d82b1d710f22</title>
<path fill="none" stroke="black" stroke-dasharray="5,2" d="M771.33,-255.78C840.11,-243.52 926.53,-228.11 993.84,-216.11"/>
<polygon fill="black" stroke="black" points="994.25,-219.42 1003.48,-214.22 993.02,-212.53 994.25,-219.42"/>
</g>
<!-- 97559b10&#45;10f9&#45;4104&#45;82d4&#45;ad8866661296 -->
<g id="node22" class="node">
<title>97559b10&#45;10f9&#45;4104&#45;82d4&#45;ad8866661296</title>
<polygon fill="yellow" stroke="black" points="2019.5,-213.74 1637.5,-213.74 1637.5,-177.74 2019.5,-177.74 2019.5,-213.74"/>
<text text-anchor="middle" x="1828.5" y="-192.04" font-family="Helvetica,sans-Serif" font-size="14.00">⋯ Ran sandbox for `sweepai/handlers/on_ticket.py`.</text>
</g>
<!-- cc84775e&#45;4a17&#45;4df9&#45;91b1&#45;54134d05d6d1&#45;&gt;97559b10&#45;10f9&#45;4104&#45;82d4&#45;ad8866661296 -->
<g id="edge19" class="edge">
<title>cc84775e&#45;4a17&#45;4df9&#45;91b1&#45;54134d05d6d1&#45;&gt;97559b10&#45;10f9&#45;4104&#45;82d4&#45;ad8866661296</title>
<path fill="none" stroke="black" stroke-dasharray="5,2" d="M1828.5,-250.46C1828.5,-242.2 1828.5,-233.05 1828.5,-224.67"/>
<polygon fill="black" stroke="black" points="1832,-224.89 1828.5,-214.89 1825,-224.89 1832,-224.89"/>
</g>
<!-- a9643936&#45;b73e&#45;4fa8&#45;98d8&#45;225f01710991 -->
<g id="node23" class="node">
<title>a9643936&#45;b73e&#45;4fa8&#45;98d8&#45;225f01710991</title>
<ellipse fill="#0ee832" stroke="black" cx="654.5" cy="-99.87" rx="195.32" ry="26.74"/>
<text text-anchor="middle" x="654.5" y="-103.67" font-family="Helvetica,sans-Serif" font-size="14.00">✓ Modify</text>
<text text-anchor="middle" x="654.5" y="-88.67" font-family="Helvetica,sans-Serif" font-size="14.00">sweepai/agents/assistant_wrapper.py</text>
</g>
<!-- 80380f8e&#45;b834&#45;47cd&#45;9d9f&#45;4d697c2a135d&#45;&gt;a9643936&#45;b73e&#45;4fa8&#45;98d8&#45;225f01710991 -->
<g id="edge8" class="edge">
<title>80380f8e&#45;b834&#45;47cd&#45;9d9f&#45;4d697c2a135d&#45;&gt;a9643936&#45;b73e&#45;4fa8&#45;98d8&#45;225f01710991</title>
<path fill="none" stroke="black" d="M654.5,-177.52C654.5,-166.33 654.5,-151.31 654.5,-137.53"/>
<polygon fill="black" stroke="black" points="658,-137.84 654.5,-127.84 651,-137.84 658,-137.84"/>
<text text-anchor="middle" x="752" y="-148.54" font-family="Helvetica,sans-Serif" font-size="14.00">Additional changes required</text>
</g>
<!-- f11262fb&#45;3c25&#45;4722&#45;b371&#45;1968737f4f40 -->
<g id="node24" class="node">
<title>f11262fb&#45;3c25&#45;4722&#45;b371&#45;1968737f4f40</title>
<polygon fill="#0ee832" stroke="black" points="869.5,-36 439.5,-36 439.5,0 869.5,0 869.5,-36"/>
<text text-anchor="middle" x="654.5" y="-14.3" font-family="Helvetica,sans-Serif" font-size="14.00">✓ Ran sandbox for `sweepai/agents/assistant_wrapper.py`.</text>
</g>
<!-- a9643936&#45;b73e&#45;4fa8&#45;98d8&#45;225f01710991&#45;&gt;f11262fb&#45;3c25&#45;4722&#45;b371&#45;1968737f4f40 -->
<g id="edge9" class="edge">
<title>a9643936&#45;b73e&#45;4fa8&#45;98d8&#45;225f01710991&#45;&gt;f11262fb&#45;3c25&#45;4722&#45;b371&#45;1968737f4f40</title>
<path fill="none" stroke="black" stroke-dasharray="5,2" d="M654.5,-72.72C654.5,-64.46 654.5,-55.31 654.5,-46.93"/>
<polygon fill="black" stroke="black" points="658,-47.15 654.5,-37.15 651,-47.15 658,-47.15"/>
</g>
</g>
</svg>
