<?xml version="1.0" encoding="UTF-8" standalone="no"?>
<!DOCTYPE svg PUBLIC "-//W3C//DTD SVG 1.1//EN"
 "http://www.w3.org/Graphics/SVG/1.1/DTD/svg11.dtd">
<!-- Generated by graphviz version 2.43.0 (0)
 -->
<!-- Title: %3 Pages: 1 -->
<svg width="1386pt" height="238pt"
 viewBox="0.00 0.00 1385.50 237.74" xmlns="http://www.w3.org/2000/svg" xmlns:xlink="http://www.w3.org/1999/xlink">
<g id="graph0" class="graph" transform="scale(1 1) rotate(0) translate(36 201.74)">
<title>%3</title>
<polygon fill="dimgray" stroke="transparent" points="-36,36 -36,-201.74 1349.5,-201.74 1349.5,36 -36,36"/>
<text text-anchor="middle" x="656.75" y="-150.54" font-family="Helvetica,sans-Serif" font-size="14.00">Sweep&#39;s Plan &amp; Progress</text>
<!-- start -->
<g id="node1" class="node">
<title>start</title>
</g>
<!-- 76351002&#45;f660&#45;4758&#45;ba0c&#45;7bbbbe8d0c27 -->
<g id="node3" class="node">
<title>76351002&#45;f660&#45;4758&#45;ba0c&#45;7bbbbe8d0c27</title>
<ellipse fill="#0ee832" stroke="black" cx="249.5" cy="-99.87" rx="162.77" ry="26.74"/>
<text text-anchor="middle" x="249.5" y="-103.67" font-family="Helvetica,sans-Serif" font-size="14.00">✓ Create</text>
<text text-anchor="middle" x="249.5" y="-88.67" font-family="Helvetica,sans-Serif" font-size="14.00">sweepai/agents/filter_agent.py</text>
</g>
<!-- start&#45;&gt;76351002&#45;f660&#45;4758&#45;ba0c&#45;7bbbbe8d0c27 -->
<g id="edge6" class="edge">
<title>start&#45;&gt;76351002&#45;f660&#45;4758&#45;ba0c&#45;7bbbbe8d0c27</title>
<path fill="none" stroke="black" d="M35.12,-99.87C38.4,-99.87 54.5,-99.87 76.52,-99.87"/>
<polygon fill="black" stroke="black" points="76.67,-103.37 86.67,-99.87 76.67,-96.37 76.67,-103.37"/>
<text text-anchor="middle" x="60.93" y="-106.67" font-family="Helvetica,sans-Serif" font-size="14.00">Start</text>
</g>
<!-- end -->
<g id="node2" class="node">
<title>end</title>
</g>
<!-- 99f8e3e4&#45;dce3&#45;431b&#45;8f4d&#45;a23e6e4273ce -->
<g id="node4" class="node">
<title>99f8e3e4&#45;dce3&#45;431b&#45;8f4d&#45;a23e6e4273ce</title>
<ellipse fill="white" stroke="black" cx="670.5" cy="-99.87" rx="185.94" ry="26.74"/>
<text text-anchor="middle" x="670.5" y="-103.67" font-family="Helvetica,sans-Serif" font-size="14.00">▶ Create</text>
<text text-anchor="middle" x="670.5" y="-88.67" font-family="Helvetica,sans-Serif" font-size="14.00">sweepai/agents/filter_agent_test.py</text>
</g>
<!-- 76351002&#45;f660&#45;4758&#45;ba0c&#45;7bbbbe8d0c27&#45;&gt;99f8e3e4&#45;dce3&#45;431b&#45;8f4d&#45;a23e6e4273ce -->
<g id="edge2" class="edge">
<title>76351002&#45;f660&#45;4758&#45;ba0c&#45;7bbbbe8d0c27&#45;&gt;99f8e3e4&#45;dce3&#45;431b&#45;8f4d&#45;a23e6e4273ce</title>
<path fill="none" stroke="black" d="M412.31,-99.87C432.97,-99.87 453.62,-99.87 474.28,-99.87"/>
<polygon fill="black" stroke="black" points="474.42,-103.37 484.42,-99.87 474.42,-96.37 474.42,-103.37"/>
</g>
<!-- 04d8292c&#45;84de&#45;47b1&#45;8e22&#45;504d54dfc0f7 -->
<g id="node6" class="node">
<title>04d8292c&#45;84de&#45;47b1&#45;8e22&#45;504d54dfc0f7</title>
<polygon fill="yellow" stroke="black" points="425,-36 0,-36 0,0 425,0 425,-36"/>
<text text-anchor="middle" x="212.5" y="-14.3" font-family="Helvetica,sans-Serif" font-size="14.00">⋯ Run GitHub Actions for `sweepai/agents/filter_agent.py`</text>
</g>
<!-- 76351002&#45;f660&#45;4758&#45;ba0c&#45;7bbbbe8d0c27&#45;&gt;04d8292c&#45;84de&#45;47b1&#45;8e22&#45;504d54dfc0f7 -->
<g id="edge1" class="edge">
<title>76351002&#45;f660&#45;4758&#45;ba0c&#45;7bbbbe8d0c27&#45;&gt;04d8292c&#45;84de&#45;47b1&#45;8e22&#45;504d54dfc0f7</title>
<path fill="none" stroke="black" stroke-dasharray="5,2" d="M237.38,-72.72C233.3,-63.9 228.74,-54.05 224.65,-45.23"/>
<polygon fill="black" stroke="black" points="227.82,-43.75 220.44,-36.15 221.47,-46.69 227.82,-43.75"/>
</g>
<!-- c08472ba&#45;4e06&#45;4fe3&#45;8e24&#45;5b35931169d8 -->
<g id="node5" class="node">
<title>c08472ba&#45;4e06&#45;4fe3&#45;8e24&#45;5b35931169d8</title>
<ellipse fill="white" stroke="black" cx="1076.5" cy="-99.87" rx="145.83" ry="26.74"/>
<text text-anchor="middle" x="1076.5" y="-103.67" font-family="Helvetica,sans-Serif" font-size="14.00">▶ Modify</text>
<text text-anchor="middle" x="1076.5" y="-88.67" font-family="Helvetica,sans-Serif" font-size="14.00">sweepai/utils/ticket_utils.py</text>
</g>
<!-- 99f8e3e4&#45;dce3&#45;431b&#45;8f4d&#45;a23e6e4273ce&#45;&gt;c08472ba&#45;4e06&#45;4fe3&#45;8e24&#45;5b35931169d8 -->
<g id="edge4" class="edge">
<title>99f8e3e4&#45;dce3&#45;431b&#45;8f4d&#45;a23e6e4273ce&#45;&gt;c08472ba&#45;4e06&#45;4fe3&#45;8e24&#45;5b35931169d8</title>
<path fill="none" stroke="black" d="M856.85,-99.87C878.08,-99.87 899.32,-99.87 920.55,-99.87"/>
<polygon fill="black" stroke="black" points="920.64,-103.37 930.64,-99.87 920.64,-96.37 920.64,-103.37"/>
</g>
<!-- c9c14804&#45;4c3a&#45;4d27&#45;97d4&#45;86f4bca5e543 -->
<g id="node7" class="node">
<title>c9c14804&#45;4c3a&#45;4d27&#45;97d4&#45;86f4bca5e543</title>
<polygon fill="white" stroke="black" points="897.5,-36 443.5,-36 443.5,0 897.5,0 897.5,-36"/>
<text text-anchor="middle" x="670.5" y="-14.3" font-family="Helvetica,sans-Serif" font-size="14.00">▶ Run GitHub Actions for `sweepai/agents/filter_agent_test.py`</text>
</g>
<!-- 99f8e3e4&#45;dce3&#45;431b&#45;8f4d&#45;a23e6e4273ce&#45;&gt;c9c14804&#45;4c3a&#45;4d27&#45;97d4&#45;86f4bca5e543 -->
<g id="edge3" class="edge">
<title>99f8e3e4&#45;dce3&#45;431b&#45;8f4d&#45;a23e6e4273ce&#45;&gt;c9c14804&#45;4c3a&#45;4d27&#45;97d4&#45;86f4bca5e543</title>
<path fill="none" stroke="black" stroke-dasharray="5,2" d="M670.5,-72.72C670.5,-64.27 670.5,-54.89 670.5,-46.36"/>
<polygon fill="black" stroke="black" points="674,-46.15 670.5,-36.15 667,-46.15 674,-46.15"/>
</g>
<!-- c08472ba&#45;4e06&#45;4fe3&#45;8e24&#45;5b35931169d8&#45;&gt;end -->
<g id="edge7" class="edge">
<title>c08472ba&#45;4e06&#45;4fe3&#45;8e24&#45;5b35931169d8&#45;&gt;end</title>
<path fill="none" stroke="black" d="M1222.31,-99.87C1242.07,-99.87 1259.12,-99.87 1269.57,-99.87"/>
<polygon fill="black" stroke="black" points="1269.85,-103.37 1279.85,-99.87 1269.85,-96.37 1269.85,-103.37"/>
<text text-anchor="middle" x="1251.08" y="-106.67" font-family="Helvetica,sans-Serif" font-size="14.00">Finish</text>
</g>
<!-- 6deb25fc&#45;2f17&#45;405a&#45;98df&#45;f72ce606ea7b -->
<g id="node8" class="node">
<title>6deb25fc&#45;2f17&#45;405a&#45;98df&#45;f72ce606ea7b</title>
<polygon fill="white" stroke="black" points="1313.5,-36 915.5,-36 915.5,0 1313.5,0 1313.5,-36"/>
<text text-anchor="middle" x="1114.5" y="-14.3" font-family="Helvetica,sans-Serif" font-size="14.00">▶ Run GitHub Actions for `sweepai/utils/ticket_utils.py`</text>
</g>
<!-- c08472ba&#45;4e06&#45;4fe3&#45;8e24&#45;5b35931169d8&#45;&gt;6deb25fc&#45;2f17&#45;405a&#45;98df&#45;f72ce606ea7b -->
<g id="edge5" class="edge">
<title>c08472ba&#45;4e06&#45;4fe3&#45;8e24&#45;5b35931169d8&#45;&gt;6deb25fc&#45;2f17&#45;405a&#45;98df&#45;f72ce606ea7b</title>
<path fill="none" stroke="black" stroke-dasharray="5,2" d="M1088.94,-72.72C1093.14,-63.9 1097.82,-54.05 1102.02,-45.23"/>
<polygon fill="black" stroke="black" points="1105.21,-46.68 1106.34,-36.15 1098.89,-43.67 1105.21,-46.68"/>
</g>
</g>
</svg>
