<?xml version="1.0" encoding="UTF-8" standalone="no"?>
<!DOCTYPE svg PUBLIC "-//W3C//DTD SVG 1.1//EN"
 "http://www.w3.org/Graphics/SVG/1.1/DTD/svg11.dtd">
<!-- Generated by graphviz version 8.0.3 (0)
 -->
<!-- Pages: 1 -->
<svg width="1305pt" height="593pt"
 viewBox="0.00 0.00 1304.50 593.22" xmlns="http://www.w3.org/2000/svg" xmlns:xlink="http://www.w3.org/1999/xlink">
<g id="graph0" class="graph" transform="scale(1 1) rotate(0) translate(36 557.22)">
<polygon fill="dimgray" stroke="none" points="-36,36 -36,-557.22 1268.5,-557.22 1268.5,36 -36,36"/>
<text text-anchor="middle" x="616.25" y="-506.02" font-family="Helvetica,sans-Serif" font-size="14.00">Sweep&#39;s Plan &amp; Progress</text>
<!-- start -->
<g id="node1" class="node">
<title>start</title>
</g>
<!-- 5b11ec1c&#45;beb0&#45;4f74&#45;bf10&#45;86a5c4bdabe2 -->
<g id="node3" class="node">
<title>5b11ec1c&#45;beb0&#45;4f74&#45;bf10&#45;86a5c4bdabe2</title>
<ellipse fill="#0ee832" stroke="black" cx="937.5" cy="-455.35" rx="159.61" ry="26.74"/>
<text text-anchor="middle" x="937.5" y="-459.15" font-family="Helvetica,sans-Serif" font-size="14.00">✓ Modify</text>
<text text-anchor="middle" x="937.5" y="-444.15" font-family="Helvetica,sans-Serif" font-size="14.00">sweepai/handlers/on_ticket.py</text>
</g>
<!-- start&#45;&gt;5b11ec1c&#45;beb0&#45;4f74&#45;bf10&#45;86a5c4bdabe2 -->
<g id="edge10" class="edge">
<title>start&#45;&gt;5b11ec1c&#45;beb0&#45;4f74&#45;bf10&#45;86a5c4bdabe2</title>
<path fill="none" stroke="black" d="M725.65,-455.35C727.39,-455.35 743.75,-455.35 766.67,-455.35"/>
<polygon fill="black" stroke="black" points="766.63,-458.85 776.63,-455.35 766.63,-451.85 766.63,-458.85"/>
<text text-anchor="middle" x="751.85" y="-462.15" font-family="Helvetica,sans-Serif" font-size="14.00">Start</text>
</g>
<!-- end -->
<g id="node2" class="node">
<title>end</title>
</g>
<!-- 5b11ec1c&#45;beb0&#45;4f74&#45;bf10&#45;86a5c4bdabe2&#45;&gt;end -->
<g id="edge11" class="edge">
<title>5b11ec1c&#45;beb0&#45;4f74&#45;bf10&#45;86a5c4bdabe2&#45;&gt;end</title>
<path fill="none" stroke="black" d="M1097.37,-455.35C1117,-455.35 1133.8,-455.35 1144.22,-455.35"/>
<polygon fill="black" stroke="black" points="1144.21,-458.85 1154.21,-455.35 1144.21,-451.85 1144.21,-458.85"/>
<text text-anchor="middle" x="1126.15" y="-462.15" font-family="Helvetica,sans-Serif" font-size="14.00">Finish</text>
</g>
<!-- 8e0fde05&#45;2279&#45;4579&#45;8605&#45;b83cee5a5a07 -->
<g id="node4" class="node">
<title>8e0fde05&#45;2279&#45;4579&#45;8605&#45;b83cee5a5a07</title>
<polygon fill="#ee0000" stroke="black" points="836.5,-391.48 456.5,-391.48 456.5,-355.48 836.5,-355.48 836.5,-391.48"/>
<text text-anchor="middle" x="646.5" y="-369.78" font-family="Helvetica,sans-Serif" font-size="14.00">✗ Ran sandbox for `sweepai/handlers/on_ticket.py`.</text>
</g>
<!-- 5b11ec1c&#45;beb0&#45;4f74&#45;bf10&#45;86a5c4bdabe2&#45;&gt;8e0fde05&#45;2279&#45;4579&#45;8605&#45;b83cee5a5a07 -->
<g id="edge1" class="edge">
<title>5b11ec1c&#45;beb0&#45;4f74&#45;bf10&#45;86a5c4bdabe2&#45;&gt;8e0fde05&#45;2279&#45;4579&#45;8605&#45;b83cee5a5a07</title>
<path fill="none" stroke="black" stroke-dasharray="5,2" d="M856.05,-432C813.52,-420.32 761.86,-406.14 720.47,-394.78"/>
<polygon fill="black" stroke="black" points="721.48,-391.16 710.91,-391.88 719.63,-397.91 721.48,-391.16"/>
</g>
<!-- 25edd5de&#45;5d5c&#45;4d35&#45;b4d1&#45;8d3fd6e7a554 -->
<g id="node5" class="node">
<title>25edd5de&#45;5d5c&#45;4d35&#45;b4d1&#45;8d3fd6e7a554</title>
<polygon fill="white" stroke="black" points="1232.5,-391.48 854.5,-391.48 854.5,-355.48 1232.5,-355.48 1232.5,-391.48"/>
<text text-anchor="middle" x="1043.5" y="-369.78" font-family="Helvetica,sans-Serif" font-size="14.00">▶ Ran sandbox for `sweepai/handlers/on_ticket.py`.</text>
</g>
<!-- 5b11ec1c&#45;beb0&#45;4f74&#45;bf10&#45;86a5c4bdabe2&#45;&gt;25edd5de&#45;5d5c&#45;4d35&#45;b4d1&#45;8d3fd6e7a554 -->
<g id="edge9" class="edge">
<title>5b11ec1c&#45;beb0&#45;4f74&#45;bf10&#45;86a5c4bdabe2&#45;&gt;25edd5de&#45;5d5c&#45;4d35&#45;b4d1&#45;8d3fd6e7a554</title>
<path fill="none" stroke="black" stroke-dasharray="5,2" d="M971.33,-428.86C984.33,-419.07 999.1,-407.93 1011.88,-398.3"/>
<polygon fill="black" stroke="black" points="1013.48,-400.73 1019.36,-391.91 1009.27,-395.13 1013.48,-400.73"/>
</g>
<!-- 34b40d68&#45;6374&#45;45ef&#45;a882&#45;8e845470bb06 -->
<g id="node6" class="node">
<title>34b40d68&#45;6374&#45;45ef&#45;a882&#45;8e845470bb06</title>
<ellipse fill="#0ee832" stroke="black" cx="646.5" cy="-277.61" rx="195.32" ry="26.74"/>
<text text-anchor="middle" x="646.5" y="-281.41" font-family="Helvetica,sans-Serif" font-size="14.00">✓ Modify</text>
<text text-anchor="middle" x="646.5" y="-266.41" font-family="Helvetica,sans-Serif" font-size="14.00">sweepai/agents/assistant_wrapper.py</text>
</g>
<!-- 8e0fde05&#45;2279&#45;4579&#45;8605&#45;b83cee5a5a07&#45;&gt;34b40d68&#45;6374&#45;45ef&#45;a882&#45;8e845470bb06 -->
<g id="edge2" class="edge">
<title>8e0fde05&#45;2279&#45;4579&#45;8605&#45;b83cee5a5a07&#45;&gt;34b40d68&#45;6374&#45;45ef&#45;a882&#45;8e845470bb06</title>
<path fill="none" stroke="black" d="M646.5,-355.26C646.5,-344.07 646.5,-329.05 646.5,-315.27"/>
<polygon fill="black" stroke="black" points="650,-315.58 646.5,-305.58 643,-315.58 650,-315.58"/>
<text text-anchor="middle" x="744" y="-326.28" font-family="Helvetica,sans-Serif" font-size="14.00">Additional changes required</text>
</g>
<!-- 5dcbde24&#45;bace&#45;4a21&#45;8d93&#45;13ad8106ad7a -->
<g id="node7" class="node">
<title>5dcbde24&#45;bace&#45;4a21&#45;8d93&#45;13ad8106ad7a</title>
<polygon fill="#ee0000" stroke="black" points="638.5,-213.74 208.5,-213.74 208.5,-177.74 638.5,-177.74 638.5,-213.74"/>
<text text-anchor="middle" x="423.5" y="-192.04" font-family="Helvetica,sans-Serif" font-size="14.00">✗ Ran sandbox for `sweepai/agents/assistant_wrapper.py`.</text>
</g>
<!-- 34b40d68&#45;6374&#45;45ef&#45;a882&#45;8e845470bb06&#45;&gt;5dcbde24&#45;bace&#45;4a21&#45;8d93&#45;13ad8106ad7a -->
<g id="edge3" class="edge">
<title>34b40d68&#45;6374&#45;45ef&#45;a882&#45;8e845470bb06&#45;&gt;5dcbde24&#45;bace&#45;4a21&#45;8d93&#45;13ad8106ad7a</title>
<path fill="none" stroke="black" stroke-dasharray="5,2" d="M578.08,-252.1C547.5,-241.15 511.81,-228.37 482.44,-217.85"/>
<polygon fill="black" stroke="black" points="483.92,-214.31 473.33,-214.23 481.56,-220.9 483.92,-214.31"/>
</g>
<!-- 8eed3e26&#45;a5cb&#45;4ad4&#45;baf8&#45;5710ace55950 -->
<g id="node8" class="node">
<title>8eed3e26&#45;a5cb&#45;4ad4&#45;baf8&#45;5710ace55950</title>
<polygon fill="white" stroke="black" points="1084.5,-213.74 656.5,-213.74 656.5,-177.74 1084.5,-177.74 1084.5,-213.74"/>
<text text-anchor="middle" x="870.5" y="-192.04" font-family="Helvetica,sans-Serif" font-size="14.00">▶ Ran sandbox for `sweepai/agents/assistant_wrapper.py`.</text>
</g>
<!-- 34b40d68&#45;6374&#45;45ef&#45;a882&#45;8e845470bb06&#45;&gt;8eed3e26&#45;a5cb&#45;4ad4&#45;baf8&#45;5710ace55950 -->
<g id="edge8" class="edge">
<title>34b40d68&#45;6374&#45;45ef&#45;a882&#45;8e845470bb06&#45;&gt;8eed3e26&#45;a5cb&#45;4ad4&#45;baf8&#45;5710ace55950</title>
<path fill="none" stroke="black" stroke-dasharray="5,2" d="M714.92,-252.21C745.77,-241.21 781.84,-228.35 811.47,-217.79"/>
<polygon fill="black" stroke="black" points="812.43,-220.81 820.67,-214.15 810.08,-214.21 812.43,-220.81"/>
</g>
<!-- 4ecc6ec1&#45;f778&#45;40b0&#45;b49e&#45;bbd9f2c5d148 -->
<g id="node9" class="node">
<title>4ecc6ec1&#45;f778&#45;40b0&#45;b49e&#45;bbd9f2c5d148</title>
<ellipse fill="#0ee832" stroke="black" cx="222.5" cy="-99.87" rx="188.6" ry="26.74"/>
<text text-anchor="middle" x="222.5" y="-103.67" font-family="Helvetica,sans-Serif" font-size="14.00">✓ Create</text>
<text text-anchor="middle" x="222.5" y="-88.67" font-family="Helvetica,sans-Serif" font-size="14.00">sweepai/services/escrow_handler.py</text>
</g>
<!-- 5dcbde24&#45;bace&#45;4a21&#45;8d93&#45;13ad8106ad7a&#45;&gt;4ecc6ec1&#45;f778&#45;40b0&#45;b49e&#45;bbd9f2c5d148 -->
<g id="edge4" class="edge">
<title>5dcbde24&#45;bace&#45;4a21&#45;8d93&#45;13ad8106ad7a&#45;&gt;4ecc6ec1&#45;f778&#45;40b0&#45;b49e&#45;bbd9f2c5d148</title>
<path fill="none" stroke="black" d="M386.16,-177.3C357.96,-164.13 318.58,-145.74 285.52,-130.3"/>
<polygon fill="black" stroke="black" points="287.47,-126.88 276.93,-125.82 284.51,-133.23 287.47,-126.88"/>
<text text-anchor="middle" x="445" y="-148.54" font-family="Helvetica,sans-Serif" font-size="14.00">Additional changes required</text>
</g>
<!-- d624597b&#45;ee7e&#45;401b&#45;b562&#45;b5c243e02104 -->
<g id="node10" class="node">
<title>d624597b&#45;ee7e&#45;401b&#45;b562&#45;b5c243e02104</title>
<ellipse fill="white" stroke="black" cx="645.5" cy="-99.87" rx="195.32" ry="26.74"/>
<text text-anchor="middle" x="645.5" y="-103.67" font-family="Helvetica,sans-Serif" font-size="14.00">▶ Modify</text>
<text text-anchor="middle" x="645.5" y="-88.67" font-family="Helvetica,sans-Serif" font-size="14.00">sweepai/agents/assistant_wrapper.py</text>
</g>
<!-- 5dcbde24&#45;bace&#45;4a21&#45;8d93&#45;13ad8106ad7a&#45;&gt;d624597b&#45;ee7e&#45;401b&#45;b562&#45;b5c243e02104 -->
<g id="edge6" class="edge">
<title>5dcbde24&#45;bace&#45;4a21&#45;8d93&#45;13ad8106ad7a&#45;&gt;d624597b&#45;ee7e&#45;401b&#45;b562&#45;b5c243e02104</title>
<path fill="none" stroke="black" d="M496.78,-177.26C513.42,-172.37 530.8,-166.51 546.5,-159.74 564.15,-152.13 582.51,-141.94 598.55,-132.17"/>
<polygon fill="black" stroke="black" points="600.05,-134.74 606.7,-126.49 596.36,-128.79 600.05,-134.74"/>
<text text-anchor="middle" x="673" y="-148.54" font-family="Helvetica,sans-Serif" font-size="14.00">Additional changes required</text>
</g>
<!-- 41f88d97&#45;4ede&#45;4666&#45;8ac5&#45;a20aaf67387b -->
<g id="node11" class="node">
<title>41f88d97&#45;4ede&#45;4666&#45;8ac5&#45;a20aaf67387b</title>
<polygon fill="yellow" stroke="black" points="423,-36 0,-36 0,0 423,0 423,-36"/>
<text text-anchor="middle" x="211.5" y="-14.3" font-family="Helvetica,sans-Serif" font-size="14.00">⋯ Ran sandbox for `sweepai/services/escrow_handler.py`.</text>
</g>
<!-- 4ecc6ec1&#45;f778&#45;40b0&#45;b49e&#45;bbd9f2c5d148&#45;&gt;41f88d97&#45;4ede&#45;4666&#45;8ac5&#45;a20aaf67387b -->
<g id="edge5" class="edge">
<title>4ecc6ec1&#45;f778&#45;40b0&#45;b49e&#45;bbd9f2c5d148&#45;&gt;41f88d97&#45;4ede&#45;4666&#45;8ac5&#45;a20aaf67387b</title>
<path fill="none" stroke="black" stroke-dasharray="5,2" d="M218.9,-72.72C217.76,-64.46 216.5,-55.31 215.35,-46.93"/>
<polygon fill="black" stroke="black" points="218.69,-46.58 213.86,-37.15 211.76,-47.53 218.69,-46.58"/>
</g>
<!-- 80380f8e&#45;b834&#45;47cd&#45;9d9f&#45;4d697c2a135d -->
<g id="node12" class="node">
<title>80380f8e&#45;b834&#45;47cd&#45;9d9f&#45;4d697c2a135d</title>
<polygon fill="white" stroke="black" points="869.5,-36 441.5,-36 441.5,0 869.5,0 869.5,-36"/>
<text text-anchor="middle" x="655.5" y="-14.3" font-family="Helvetica,sans-Serif" font-size="14.00">▶ Ran sandbox for `sweepai/agents/assistant_wrapper.py`.</text>
</g>
<!-- d624597b&#45;ee7e&#45;401b&#45;b562&#45;b5c243e02104&#45;&gt;80380f8e&#45;b834&#45;47cd&#45;9d9f&#45;4d697c2a135d -->
<g id="edge7" class="edge">
<title>d624597b&#45;ee7e&#45;401b&#45;b562&#45;b5c243e02104&#45;&gt;80380f8e&#45;b834&#45;47cd&#45;9d9f&#45;4d697c2a135d</title>
<path fill="none" stroke="black" stroke-dasharray="5,2" d="M648.77,-72.72C649.81,-64.46 650.95,-55.31 652,-46.93"/>
<polygon fill="black" stroke="black" points="655.58,-47.5 653.35,-37.15 648.64,-46.63 655.58,-47.5"/>
</g>
</g>
</svg>
