<?xml version="1.0" encoding="UTF-8" standalone="no"?>
<!DOCTYPE svg PUBLIC "-//W3C//DTD SVG 1.1//EN"
 "http://www.w3.org/Graphics/SVG/1.1/DTD/svg11.dtd">
<!-- Generated by graphviz version 2.43.0 (0)
 -->
<!-- Title: %3 Pages: 1 -->
<svg width="1779pt" height="238pt"
 viewBox="0.00 0.00 1778.50 237.74" xmlns="http://www.w3.org/2000/svg" xmlns:xlink="http://www.w3.org/1999/xlink">
<g id="graph0" class="graph" transform="scale(1 1) rotate(0) translate(36 201.74)">
<title>%3</title>
<polygon fill="dimgray" stroke="transparent" points="-36,36 -36,-201.74 1742.5,-201.74 1742.5,36 -36,36"/>
<text text-anchor="middle" x="853.25" y="-150.54" font-family="Helvetica,sans-Serif" font-size="14.00">Sweep&#39;s Plan &amp; Progress</text>
<!-- start -->
<g id="node1" class="node">
<title>start</title>
</g>
<!-- b42e5702&#45;d5b3&#45;4af3&#45;828b&#45;3eb68ff400ad -->
<g id="node3" class="node">
<title>b42e5702&#45;d5b3&#45;4af3&#45;828b&#45;3eb68ff400ad</title>
<ellipse fill="#0ee832" stroke="black" cx="248.5" cy="-99.87" rx="151.14" ry="26.74"/>
<text text-anchor="middle" x="248.5" y="-103.67" font-family="Helvetica,sans-Serif" font-size="14.00">✓ Modify</text>
<text text-anchor="middle" x="248.5" y="-88.67" font-family="Helvetica,sans-Serif" font-size="14.00">sweepai/utils/github_utils.py</text>
</g>
<!-- start&#45;&gt;b42e5702&#45;d5b3&#45;4af3&#45;828b&#45;3eb68ff400ad -->
<g id="edge8" class="edge">
<title>start&#45;&gt;b42e5702&#45;d5b3&#45;4af3&#45;828b&#45;3eb68ff400ad</title>
<path fill="none" stroke="black" d="M46.08,-99.87C49.27,-99.87 65.29,-99.87 87.03,-99.87"/>
<polygon fill="black" stroke="black" points="87.03,-103.37 97.03,-99.87 87.03,-96.37 87.03,-103.37"/>
<text text-anchor="middle" x="71.59" y="-106.67" font-family="Helvetica,sans-Serif" font-size="14.00">Start</text>
</g>
<!-- end -->
<g id="node2" class="node">
<title>end</title>
</g>
<!-- 1558c615&#45;7ac2&#45;4258&#45;b96a&#45;5e74f7af314b -->
<g id="node4" class="node">
<title>1558c615&#45;7ac2&#45;4258&#45;b96a&#45;5e74f7af314b</title>
<ellipse fill="white" stroke="black" cx="618.5" cy="-99.87" rx="138.69" ry="26.74"/>
<text text-anchor="middle" x="618.5" y="-103.67" font-family="Helvetica,sans-Serif" font-size="14.00">▶ Modify</text>
<text text-anchor="middle" x="618.5" y="-88.67" font-family="Helvetica,sans-Serif" font-size="14.00">sweepai/utils/tree_utils.py</text>
</g>
<!-- b42e5702&#45;d5b3&#45;4af3&#45;828b&#45;3eb68ff400ad&#45;&gt;1558c615&#45;7ac2&#45;4258&#45;b96a&#45;5e74f7af314b -->
<g id="edge2" class="edge">
<title>b42e5702&#45;d5b3&#45;4af3&#45;828b&#45;3eb68ff400ad&#45;&gt;1558c615&#45;7ac2&#45;4258&#45;b96a&#45;5e74f7af314b</title>
<path fill="none" stroke="black" d="M399.9,-99.87C423.08,-99.87 446.26,-99.87 469.45,-99.87"/>
<polygon fill="black" stroke="black" points="469.74,-103.37 479.74,-99.87 469.74,-96.37 469.74,-103.37"/>
</g>
<!-- ffa8daef&#45;161c&#45;431c&#45;a015&#45;6c53adaf9bb6 -->
<g id="node7" class="node">
<title>ffa8daef&#45;161c&#45;431c&#45;a015&#45;6c53adaf9bb6</title>
<polygon fill="#0ee832" stroke="black" points="407,-36 0,-36 0,0 407,0 407,-36"/>
<text text-anchor="middle" x="203.5" y="-14.3" font-family="Helvetica,sans-Serif" font-size="14.00">✓ Run GitHub Actions for `sweepai/utils/github_utils.py`</text>
</g>
<!-- b42e5702&#45;d5b3&#45;4af3&#45;828b&#45;3eb68ff400ad&#45;&gt;ffa8daef&#45;161c&#45;431c&#45;a015&#45;6c53adaf9bb6 -->
<g id="edge1" class="edge">
<title>b42e5702&#45;d5b3&#45;4af3&#45;828b&#45;3eb68ff400ad&#45;&gt;ffa8daef&#45;161c&#45;431c&#45;a015&#45;6c53adaf9bb6</title>
<path fill="none" stroke="black" stroke-dasharray="5,2" d="M233.77,-72.72C228.74,-63.8 223.13,-53.84 218.12,-44.95"/>
<polygon fill="black" stroke="black" points="221.12,-43.14 213.16,-36.15 215.02,-46.58 221.12,-43.14"/>
</g>
<!-- a5f0edd5&#45;8e56&#45;4472&#45;b411&#45;adaa412ce89f -->
<g id="node5" class="node">
<title>a5f0edd5&#45;8e56&#45;4472&#45;b411&#45;adaa412ce89f</title>
<ellipse fill="white" stroke="black" cx="1049.5" cy="-99.87" rx="174.81" ry="26.74"/>
<text text-anchor="middle" x="1049.5" y="-103.67" font-family="Helvetica,sans-Serif" font-size="14.00">▶ Modify</text>
<text text-anchor="middle" x="1049.5" y="-88.67" font-family="Helvetica,sans-Serif" font-size="14.00">sweepai/utils/github_utils_test.py</text>
</g>
<!-- 1558c615&#45;7ac2&#45;4258&#45;b96a&#45;5e74f7af314b&#45;&gt;a5f0edd5&#45;8e56&#45;4472&#45;b411&#45;adaa412ce89f -->
<g id="edge4" class="edge">
<title>1558c615&#45;7ac2&#45;4258&#45;b96a&#45;5e74f7af314b&#45;&gt;a5f0edd5&#45;8e56&#45;4472&#45;b411&#45;adaa412ce89f</title>
<path fill="none" stroke="black" d="M757.4,-99.87C793.12,-99.87 828.84,-99.87 864.56,-99.87"/>
<polygon fill="black" stroke="black" points="864.64,-103.37 874.64,-99.87 864.64,-96.37 864.64,-103.37"/>
</g>
<!-- 550dc4cf&#45;1ea8&#45;4bcf&#45;acb7&#45;276b3c7c8f63 -->
<g id="node8" class="node">
<title>550dc4cf&#45;1ea8&#45;4bcf&#45;acb7&#45;276b3c7c8f63</title>
<polygon fill="white" stroke="black" points="812,-36 425,-36 425,0 812,0 812,-36"/>
<text text-anchor="middle" x="618.5" y="-14.3" font-family="Helvetica,sans-Serif" font-size="14.00">▶ Run GitHub Actions for `sweepai/utils/tree_utils.py`</text>
</g>
<!-- 1558c615&#45;7ac2&#45;4258&#45;b96a&#45;5e74f7af314b&#45;&gt;550dc4cf&#45;1ea8&#45;4bcf&#45;acb7&#45;276b3c7c8f63 -->
<g id="edge3" class="edge">
<title>1558c615&#45;7ac2&#45;4258&#45;b96a&#45;5e74f7af314b&#45;&gt;550dc4cf&#45;1ea8&#45;4bcf&#45;acb7&#45;276b3c7c8f63</title>
<path fill="none" stroke="black" stroke-dasharray="5,2" d="M618.5,-72.72C618.5,-64.27 618.5,-54.89 618.5,-46.36"/>
<polygon fill="black" stroke="black" points="622,-46.15 618.5,-36.15 615,-46.15 622,-46.15"/>
</g>
<!-- 43e6ca00&#45;be37&#45;4bb5&#45;979d&#45;b987252f051a -->
<g id="node6" class="node">
<title>43e6ca00&#45;be37&#45;4bb5&#45;979d&#45;b987252f051a</title>
<ellipse fill="white" stroke="black" cx="1459.5" cy="-99.87" rx="161.85" ry="26.74"/>
<text text-anchor="middle" x="1459.5" y="-103.67" font-family="Helvetica,sans-Serif" font-size="14.00">▶ Create</text>
<text text-anchor="middle" x="1459.5" y="-88.67" font-family="Helvetica,sans-Serif" font-size="14.00">sweepai/utils/tree_utils_test.py</text>
</g>
<!-- a5f0edd5&#45;8e56&#45;4472&#45;b411&#45;adaa412ce89f&#45;&gt;43e6ca00&#45;be37&#45;4bb5&#45;979d&#45;b987252f051a -->
<g id="edge6" class="edge">
<title>a5f0edd5&#45;8e56&#45;4472&#45;b411&#45;adaa412ce89f&#45;&gt;43e6ca00&#45;be37&#45;4bb5&#45;979d&#45;b987252f051a</title>
<path fill="none" stroke="black" d="M1224.47,-99.87C1245.38,-99.87 1266.29,-99.87 1287.19,-99.87"/>
<polygon fill="black" stroke="black" points="1287.46,-103.37 1297.46,-99.87 1287.46,-96.37 1287.46,-103.37"/>
</g>
<!-- bc6cabf1&#45;a99c&#45;4c87&#45;8020&#45;b0b4ab688cbb -->
<g id="node9" class="node">
<title>bc6cabf1&#45;a99c&#45;4c87&#45;8020&#45;b0b4ab688cbb</title>
<polygon fill="white" stroke="black" points="1268.5,-36 830.5,-36 830.5,0 1268.5,0 1268.5,-36"/>
<text text-anchor="middle" x="1049.5" y="-14.3" font-family="Helvetica,sans-Serif" font-size="14.00">▶ Run GitHub Actions for `sweepai/utils/github_utils_test.py`</text>
</g>
<!-- a5f0edd5&#45;8e56&#45;4472&#45;b411&#45;adaa412ce89f&#45;&gt;bc6cabf1&#45;a99c&#45;4c87&#45;8020&#45;b0b4ab688cbb -->
<g id="edge5" class="edge">
<title>a5f0edd5&#45;8e56&#45;4472&#45;b411&#45;adaa412ce89f&#45;&gt;bc6cabf1&#45;a99c&#45;4c87&#45;8020&#45;b0b4ab688cbb</title>
<path fill="none" stroke="black" stroke-dasharray="5,2" d="M1049.5,-72.72C1049.5,-64.27 1049.5,-54.89 1049.5,-46.36"/>
<polygon fill="black" stroke="black" points="1053,-46.15 1049.5,-36.15 1046,-46.15 1053,-46.15"/>
</g>
<!-- 43e6ca00&#45;be37&#45;4bb5&#45;979d&#45;b987252f051a&#45;&gt;end -->
<g id="edge9" class="edge">
<title>43e6ca00&#45;be37&#45;4bb5&#45;979d&#45;b987252f051a&#45;&gt;end</title>
<path fill="none" stroke="black" d="M1621.7,-99.87C1641.54,-99.87 1658.44,-99.87 1668.74,-99.87"/>
<polygon fill="black" stroke="black" points="1668.86,-103.37 1678.86,-99.87 1668.86,-96.37 1668.86,-103.37"/>
<text text-anchor="middle" x="1650.21" y="-106.67" font-family="Helvetica,sans-Serif" font-size="14.00">Finish</text>
</g>
<!-- d64e6429&#45;c22e&#45;4f7c&#45;885a&#45;46136e412284 -->
<g id="node10" class="node">
<title>d64e6429&#45;c22e&#45;4f7c&#45;885a&#45;46136e412284</title>
<polygon fill="white" stroke="black" points="1706.5,-36 1286.5,-36 1286.5,0 1706.5,0 1706.5,-36"/>
<text text-anchor="middle" x="1496.5" y="-14.3" font-family="Helvetica,sans-Serif" font-size="14.00">▶ Run GitHub Actions for `sweepai/utils/tree_utils_test.py`</text>
</g>
<!-- 43e6ca00&#45;be37&#45;4bb5&#45;979d&#45;b987252f051a&#45;&gt;d64e6429&#45;c22e&#45;4f7c&#45;885a&#45;46136e412284 -->
<g id="edge7" class="edge">
<title>43e6ca00&#45;be37&#45;4bb5&#45;979d&#45;b987252f051a&#45;&gt;d64e6429&#45;c22e&#45;4f7c&#45;885a&#45;46136e412284</title>
<path fill="none" stroke="black" stroke-dasharray="5,2" d="M1471.62,-72.72C1475.7,-63.9 1480.26,-54.05 1484.35,-45.23"/>
<polygon fill="black" stroke="black" points="1487.53,-46.69 1488.56,-36.15 1481.18,-43.75 1487.53,-46.69"/>
</g>
</g>
</svg>
