<?xml version="1.0" encoding="UTF-8" standalone="no"?>
<!DOCTYPE svg PUBLIC "-//W3C//DTD SVG 1.1//EN"
 "http://www.w3.org/Graphics/SVG/1.1/DTD/svg11.dtd">
<!-- Generated by graphviz version 8.0.3 (0)
 -->
<!-- Pages: 1 -->
<svg width="892pt" height="238pt"
 viewBox="0.00 0.00 892.00 237.74" xmlns="http://www.w3.org/2000/svg" xmlns:xlink="http://www.w3.org/1999/xlink">
<g id="graph0" class="graph" transform="scale(1 1) rotate(0) translate(36 201.74)">
<polygon fill="dimgray" stroke="none" points="-36,36 -36,-201.74 856,-201.74 856,36 -36,36"/>
<text text-anchor="middle" x="410" y="-150.54" font-family="Helvetica,sans-Serif" font-size="14.00">Sweep&#39;s Plan &amp; Progress</text>
<!-- start -->
<g id="node1" class="node">
<title>start</title>
</g>
<!-- 4737a5fa&#45;3115&#45;4d0e&#45;8476&#45;4ef8f15e3b2c -->
<g id="node3" class="node">
<title>4737a5fa&#45;3115&#45;4d0e&#45;8476&#45;4ef8f15e3b2c</title>
<ellipse fill="yellow" stroke="black" cx="256.5" cy="-99.87" rx="166.75" ry="26.74"/>
<text text-anchor="middle" x="256.5" y="-103.67" font-family="Helvetica,sans-Serif" font-size="14.00">⋯ Modify</text>
<text text-anchor="middle" x="256.5" y="-88.67" font-family="Helvetica,sans-Serif" font-size="14.00">sweepai/agents/sweep_yaml.py</text>
</g>
<!-- start&#45;&gt;4737a5fa&#45;3115&#45;4d0e&#45;8476&#45;4ef8f15e3b2c -->
<g id="edge4" class="edge">
<title>start&#45;&gt;4737a5fa&#45;3115&#45;4d0e&#45;8476&#45;4ef8f15e3b2c</title>
<path fill="none" stroke="black" d="M37.66,-99.87C39.42,-99.87 55.62,-99.87 78.48,-99.87"/>
<polygon fill="black" stroke="black" points="78.43,-103.37 88.43,-99.87 78.43,-96.37 78.43,-103.37"/>
<text text-anchor="middle" x="63.81" y="-106.67" font-family="Helvetica,sans-Serif" font-size="14.00">Start</text>
</g>
<!-- end -->
<g id="node2" class="node">
<title>end</title>
</g>
<!-- 86d89273&#45;9a94&#45;40fe&#45;8f29&#45;8d9ad10bc9c4 -->
<g id="node4" class="node">
<title>86d89273&#45;9a94&#45;40fe&#45;8f29&#45;8d9ad10bc9c4</title>
<ellipse fill="white" stroke="black" cx="610.5" cy="-99.87" rx="130.22" ry="26.74"/>
<text text-anchor="middle" x="610.5" y="-103.67" font-family="Helvetica,sans-Serif" font-size="14.00">▶ Modify</text>
<text text-anchor="middle" x="610.5" y="-88.67" font-family="Helvetica,sans-Serif" font-size="14.00">sweepai/config/client.py</text>
</g>
<!-- 4737a5fa&#45;3115&#45;4d0e&#45;8476&#45;4ef8f15e3b2c&#45;&gt;86d89273&#45;9a94&#45;40fe&#45;8f29&#45;8d9ad10bc9c4 -->
<g id="edge2" class="edge">
<title>4737a5fa&#45;3115&#45;4d0e&#45;8476&#45;4ef8f15e3b2c&#45;&gt;86d89273&#45;9a94&#45;40fe&#45;8f29&#45;8d9ad10bc9c4</title>
<path fill="none" stroke="black" d="M423.47,-99.87C438.81,-99.87 454.14,-99.87 469.48,-99.87"/>
<polygon fill="black" stroke="black" points="469.09,-103.37 479.09,-99.87 469.09,-96.37 469.09,-103.37"/>
</g>
<!-- 6f109a51&#45;1360&#45;4734&#45;846e&#45;6ec8a9db11db -->
<g id="node5" class="node">
<title>6f109a51&#45;1360&#45;4734&#45;846e&#45;6ec8a9db11db</title>
<polygon fill="white" stroke="black" points="427,-36 0,-36 0,0 427,0 427,-36"/>
<text text-anchor="middle" x="213.5" y="-14.3" font-family="Helvetica,sans-Serif" font-size="14.00">▶ Run GitHub Actions for `sweepai/agents/sweep_yaml.py`</text>
</g>
<!-- 4737a5fa&#45;3115&#45;4d0e&#45;8476&#45;4ef8f15e3b2c&#45;&gt;6f109a51&#45;1360&#45;4734&#45;846e&#45;6ec8a9db11db -->
<g id="edge1" class="edge">
<title>4737a5fa&#45;3115&#45;4d0e&#45;8476&#45;4ef8f15e3b2c&#45;&gt;6f109a51&#45;1360&#45;4734&#45;846e&#45;6ec8a9db11db</title>
<path fill="none" stroke="black" stroke-dasharray="5,2" d="M242.66,-73.16C237.95,-64.41 232.68,-54.62 227.92,-45.79"/>
<polygon fill="black" stroke="black" points="230.66,-44.48 222.83,-37.34 224.49,-47.8 230.66,-44.48"/>
</g>
<!-- 86d89273&#45;9a94&#45;40fe&#45;8f29&#45;8d9ad10bc9c4&#45;&gt;end -->
<g id="edge5" class="edge">
<title>86d89273&#45;9a94&#45;40fe&#45;8f29&#45;8d9ad10bc9c4&#45;&gt;end</title>
<path fill="none" stroke="black" d="M741.07,-99.87C760.34,-99.87 777.18,-99.87 787.55,-99.87"/>
<polygon fill="black" stroke="black" points="787.21,-103.37 797.21,-99.87 787.21,-96.37 787.21,-103.37"/>
<text text-anchor="middle" x="769.3" y="-106.67" font-family="Helvetica,sans-Serif" font-size="14.00">Finish</text>
</g>
<!-- 1e6128c3&#45;7350&#45;4f75&#45;9f86&#45;8847cbbe1a0a -->
<g id="node6" class="node">
<title>1e6128c3&#45;7350&#45;4f75&#45;9f86&#45;8847cbbe1a0a</title>
<polygon fill="white" stroke="black" points="820,-36 445,-36 445,0 820,0 820,-36"/>
<text text-anchor="middle" x="632.5" y="-14.3" font-family="Helvetica,sans-Serif" font-size="14.00">▶ Run GitHub Actions for `sweepai/config/client.py`</text>
</g>
<!-- 86d89273&#45;9a94&#45;40fe&#45;8f29&#45;8d9ad10bc9c4&#45;&gt;1e6128c3&#45;7350&#45;4f75&#45;9f86&#45;8847cbbe1a0a -->
<g id="edge3" class="edge">
<title>86d89273&#45;9a94&#45;40fe&#45;8f29&#45;8d9ad10bc9c4&#45;&gt;1e6128c3&#45;7350&#45;4f75&#45;9f86&#45;8847cbbe1a0a</title>
<path fill="none" stroke="black" stroke-dasharray="5,2" d="M617.7,-72.72C620,-64.37 622.56,-55.1 624.89,-46.65"/>
<polygon fill="black" stroke="black" points="628.5,-47.72 627.78,-37.15 621.75,-45.86 628.5,-47.72"/>
</g>
</g>
</svg>
