<?xml version="1.0" encoding="UTF-8" standalone="no"?>
<!DOCTYPE svg PUBLIC "-//W3C//DTD SVG 1.1//EN"
 "http://www.w3.org/Graphics/SVG/1.1/DTD/svg11.dtd">
<!-- Generated by graphviz version 2.43.0 (0)
 -->
<!-- Title: %3 Pages: 1 -->
<svg width="368pt" height="238pt"
 viewBox="0.00 0.00 368.00 237.74" xmlns="http://www.w3.org/2000/svg" xmlns:xlink="http://www.w3.org/1999/xlink">
<g id="graph0" class="graph" transform="scale(1 1) rotate(0) translate(36 201.74)">
<title>%3</title>
<polygon fill="dimgray" stroke="transparent" points="-36,36 -36,-201.74 332,-201.74 332,36 -36,36"/>
<text text-anchor="middle" x="148" y="-150.54" font-family="Helvetica,sans-Serif" font-size="14.00">Sweep&#39;s Plan &amp; Progress</text>
<!-- start -->
<g id="node1" class="node">
<title>start</title>
</g>
<!-- 9c1c6066&#45;341b&#45;4f3a&#45;947b&#45;23a3d6eca733 -->
<g id="node3" class="node">
<title>9c1c6066&#45;341b&#45;4f3a&#45;947b&#45;23a3d6eca733</title>
<ellipse fill="#0ee832" stroke="black" cx="148" cy="-99.87" rx="73.58" ry="26.74"/>
<text text-anchor="middle" x="148" y="-103.67" font-family="Helvetica,sans-Serif" font-size="14.00">✓ Modify</text>
<text text-anchor="middle" x="148" y="-88.67" font-family="Helvetica,sans-Serif" font-size="14.00">README.md</text>
</g>
<!-- start&#45;&gt;9c1c6066&#45;341b&#45;4f3a&#45;947b&#45;23a3d6eca733 -->
<g id="edge2" class="edge">
<title>start&#45;&gt;9c1c6066&#45;341b&#45;4f3a&#45;947b&#45;23a3d6eca733</title>
<path fill="none" stroke="black" d="M22.8,-99.87C26.64,-99.87 43.74,-99.87 64.12,-99.87"/>
<polygon fill="black" stroke="black" points="64.35,-103.37 74.35,-99.87 64.35,-96.37 64.35,-103.37"/>
<text text-anchor="middle" x="48.48" y="-106.67" font-family="Helvetica,sans-Serif" font-size="14.00">Start</text>
</g>
<!-- end -->
<g id="node2" class="node">
<title>end</title>
</g>
<!-- 9c1c6066&#45;341b&#45;4f3a&#45;947b&#45;23a3d6eca733&#45;&gt;end -->
<g id="edge3" class="edge">
<title>9c1c6066&#45;341b&#45;4f3a&#45;947b&#45;23a3d6eca733&#45;&gt;end</title>
<path fill="none" stroke="black" d="M221.72,-99.87C240.34,-99.87 258.14,-99.87 269.06,-99.87"/>
<polygon fill="black" stroke="black" points="269.28,-103.37 279.28,-99.87 269.28,-96.37 269.28,-103.37"/>
<text text-anchor="middle" x="250.52" y="-106.67" font-family="Helvetica,sans-Serif" font-size="14.00">Finish</text>
</g>
<!-- 04bdbe1c&#45;65a4&#45;4c1f&#45;a04a&#45;16aa55edb539 -->
<g id="node4" class="node">
<title>04bdbe1c&#45;65a4&#45;4c1f&#45;a04a&#45;16aa55edb539</title>
<polygon fill="#0ee832" stroke="black" points="296,-36 0,-36 0,0 296,0 296,-36"/>
<text text-anchor="middle" x="148" y="-14.3" font-family="Helvetica,sans-Serif" font-size="14.00">✓ Run GitHub Actions for `README.md`</text>
</g>
<!-- 9c1c6066&#45;341b&#45;4f3a&#45;947b&#45;23a3d6eca733&#45;&gt;04bdbe1c&#45;65a4&#45;4c1f&#45;a04a&#45;16aa55edb539 -->
<g id="edge1" class="edge">
<title>9c1c6066&#45;341b&#45;4f3a&#45;947b&#45;23a3d6eca733&#45;&gt;04bdbe1c&#45;65a4&#45;4c1f&#45;a04a&#45;16aa55edb539</title>
<path fill="none" stroke="black" stroke-dasharray="5,2" d="M148,-72.72C148,-64.27 148,-54.89 148,-46.36"/>
<polygon fill="black" stroke="black" points="151.5,-46.15 148,-36.15 144.5,-46.15 151.5,-46.15"/>
</g>
</g>
</svg>
