<?xml version="1.0" encoding="UTF-8" standalone="no"?>
<!DOCTYPE svg PUBLIC "-//W3C//DTD SVG 1.1//EN"
 "http://www.w3.org/Graphics/SVG/1.1/DTD/svg11.dtd">
<!-- Generated by graphviz version 8.0.3 (0)
 -->
<!-- Pages: 1 -->
<svg width="1272pt" height="415pt"
 viewBox="0.00 0.00 1271.50 415.48" xmlns="http://www.w3.org/2000/svg" xmlns:xlink="http://www.w3.org/1999/xlink">
<g id="graph0" class="graph" transform="scale(1 1) rotate(0) translate(36 379.48)">
<polygon fill="dimgray" stroke="none" points="-36,36 -36,-379.48 1235.5,-379.48 1235.5,36 -36,36"/>
<text text-anchor="middle" x="599.75" y="-328.28" font-family="Helvetica,sans-Serif" font-size="14.00">Sweep&#39;s Plan &amp; Progress</text>
<!-- start -->
<g id="node1" class="node">
<title>start</title>
</g>
<!-- 156f41b5&#45;ec41&#45;4233&#45;b949&#45;79e0bf0ee2e6 -->
<g id="node3" class="node">
<title>156f41b5&#45;ec41&#45;4233&#45;b949&#45;79e0bf0ee2e6</title>
<ellipse fill="#0ee832" stroke="black" cx="588" cy="-277.61" rx="159.61" ry="26.74"/>
<text text-anchor="middle" x="588" y="-281.41" font-family="Helvetica,sans-Serif" font-size="14.00">✓ Modify</text>
<text text-anchor="middle" x="588" y="-266.41" font-family="Helvetica,sans-Serif" font-size="14.00">sweepai/handlers/on_ticket.py</text>
</g>
<!-- start&#45;&gt;156f41b5&#45;ec41&#45;4233&#45;b949&#45;79e0bf0ee2e6 -->
<g id="edge7" class="edge">
<title>start&#45;&gt;156f41b5&#45;ec41&#45;4233&#45;b949&#45;79e0bf0ee2e6</title>
<path fill="none" stroke="black" d="M376.15,-277.61C377.89,-277.61 394.25,-277.61 417.17,-277.61"/>
<polygon fill="black" stroke="black" points="417.13,-281.11 427.13,-277.61 417.13,-274.11 417.13,-281.11"/>
<text text-anchor="middle" x="402.35" y="-284.41" font-family="Helvetica,sans-Serif" font-size="14.00">Start</text>
</g>
<!-- end -->
<g id="node2" class="node">
<title>end</title>
</g>
<!-- 4564e8b5&#45;2000&#45;4ba2&#45;9c15&#45;c40353b3c878 -->
<g id="node4" class="node">
<title>4564e8b5&#45;2000&#45;4ba2&#45;9c15&#45;c40353b3c878</title>
<ellipse fill="white" stroke="black" cx="972" cy="-277.61" rx="169" ry="26.74"/>
<text text-anchor="middle" x="972" y="-281.41" font-family="Helvetica,sans-Serif" font-size="14.00">▶ Create</text>
<text text-anchor="middle" x="972" y="-266.41" font-family="Helvetica,sans-Serif" font-size="14.00">sweepai/utils/ticket_utils_test.py</text>
</g>
<!-- 156f41b5&#45;ec41&#45;4233&#45;b949&#45;79e0bf0ee2e6&#45;&gt;4564e8b5&#45;2000&#45;4ba2&#45;9c15&#45;c40353b3c878 -->
<g id="edge5" class="edge">
<title>156f41b5&#45;ec41&#45;4233&#45;b949&#45;79e0bf0ee2e6&#45;&gt;4564e8b5&#45;2000&#45;4ba2&#45;9c15&#45;c40353b3c878</title>
<path fill="none" stroke="black" d="M747.75,-277.61C762.55,-277.61 777.36,-277.61 792.16,-277.61"/>
<polygon fill="black" stroke="black" points="791.94,-281.11 801.94,-277.61 791.94,-274.11 791.94,-281.11"/>
</g>
<!-- dead76ba&#45;ae5e&#45;4601&#45;a4b0&#45;a68b30111f97 -->
<g id="node5" class="node">
<title>dead76ba&#45;ae5e&#45;4601&#45;a4b0&#45;a68b30111f97</title>
<polygon fill="#ee0000" stroke="black" points="381,-213.74 1,-213.74 1,-177.74 381,-177.74 381,-213.74"/>
<text text-anchor="middle" x="191" y="-192.04" font-family="Helvetica,sans-Serif" font-size="14.00">✗ Ran sandbox for `sweepai/handlers/on_ticket.py`.</text>
</g>
<!-- 156f41b5&#45;ec41&#45;4233&#45;b949&#45;79e0bf0ee2e6&#45;&gt;dead76ba&#45;ae5e&#45;4601&#45;a4b0&#45;a68b30111f97 -->
<g id="edge1" class="edge">
<title>156f41b5&#45;ec41&#45;4233&#45;b949&#45;79e0bf0ee2e6&#45;&gt;dead76ba&#45;ae5e&#45;4601&#45;a4b0&#45;a68b30111f97</title>
<path fill="none" stroke="black" stroke-dasharray="5,2" d="M487.56,-256.4C426.56,-244.13 349.06,-228.54 288.58,-216.37"/>
<polygon fill="black" stroke="black" points="289.38,-212.76 278.88,-214.22 288,-219.62 289.38,-212.76"/>
</g>
<!-- 3c943d61&#45;d94f&#45;4935&#45;a570&#45;f50e4dcce395 -->
<g id="node6" class="node">
<title>3c943d61&#45;d94f&#45;4935&#45;a570&#45;f50e4dcce395</title>
<polygon fill="white" stroke="black" points="777,-213.74 399,-213.74 399,-177.74 777,-177.74 777,-213.74"/>
<text text-anchor="middle" x="588" y="-192.04" font-family="Helvetica,sans-Serif" font-size="14.00">▶ Ran sandbox for `sweepai/handlers/on_ticket.py`.</text>
</g>
<!-- 156f41b5&#45;ec41&#45;4233&#45;b949&#45;79e0bf0ee2e6&#45;&gt;3c943d61&#45;d94f&#45;4935&#45;a570&#45;f50e4dcce395 -->
<g id="edge4" class="edge">
<title>156f41b5&#45;ec41&#45;4233&#45;b949&#45;79e0bf0ee2e6&#45;&gt;3c943d61&#45;d94f&#45;4935&#45;a570&#45;f50e4dcce395</title>
<path fill="none" stroke="black" stroke-dasharray="5,2" d="M588,-250.46C588,-242.2 588,-233.05 588,-224.67"/>
<polygon fill="black" stroke="black" points="591.5,-224.89 588,-214.89 584.5,-224.89 591.5,-224.89"/>
</g>
<!-- 4564e8b5&#45;2000&#45;4ba2&#45;9c15&#45;c40353b3c878&#45;&gt;end -->
<g id="edge8" class="edge">
<title>4564e8b5&#45;2000&#45;4ba2&#45;9c15&#45;c40353b3c878&#45;&gt;end</title>
<path fill="none" stroke="black" d="M1141.42,-277.61C1161,-277.61 1177.61,-277.61 1187.89,-277.61"/>
<polygon fill="black" stroke="black" points="1187.72,-281.11 1197.72,-277.61 1187.72,-274.11 1187.72,-281.11"/>
<text text-anchor="middle" x="1169.75" y="-284.41" font-family="Helvetica,sans-Serif" font-size="14.00">Finish</text>
</g>
<!-- 5d58a82f&#45;850c&#45;40e6&#45;b1c0&#45;b2dbe4b7a5e2 -->
<g id="node7" class="node">
<title>5d58a82f&#45;850c&#45;40e6&#45;b1c0&#45;b2dbe4b7a5e2</title>
<polygon fill="white" stroke="black" points="1187,-213.74 795,-213.74 795,-177.74 1187,-177.74 1187,-213.74"/>
<text text-anchor="middle" x="991" y="-192.04" font-family="Helvetica,sans-Serif" font-size="14.00">▶ Ran sandbox for `sweepai/utils/ticket_utils_test.py`.</text>
</g>
<!-- 4564e8b5&#45;2000&#45;4ba2&#45;9c15&#45;c40353b3c878&#45;&gt;5d58a82f&#45;850c&#45;40e6&#45;b1c0&#45;b2dbe4b7a5e2 -->
<g id="edge6" class="edge">
<title>4564e8b5&#45;2000&#45;4ba2&#45;9c15&#45;c40353b3c878&#45;&gt;5d58a82f&#45;850c&#45;40e6&#45;b1c0&#45;b2dbe4b7a5e2</title>
<path fill="none" stroke="black" stroke-dasharray="5,2" d="M978.22,-250.46C980.21,-242.11 982.41,-232.84 984.42,-224.39"/>
<polygon fill="black" stroke="black" points="988.01,-225.43 986.92,-214.89 981.2,-223.81 988.01,-225.43"/>
</g>
<!-- 9a22e55f&#45;e85e&#45;48a1&#45;a60d&#45;ee6a1f97cc83 -->
<g id="node8" class="node">
<title>9a22e55f&#45;e85e&#45;48a1&#45;a60d&#45;ee6a1f97cc83</title>
<ellipse fill="#0ee832" stroke="black" cx="191" cy="-99.87" rx="159.61" ry="26.74"/>
<text text-anchor="middle" x="191" y="-103.67" font-family="Helvetica,sans-Serif" font-size="14.00">✓ Modify</text>
<text text-anchor="middle" x="191" y="-88.67" font-family="Helvetica,sans-Serif" font-size="14.00">sweepai/handlers/on_ticket.py</text>
</g>
<!-- dead76ba&#45;ae5e&#45;4601&#45;a4b0&#45;a68b30111f97&#45;&gt;9a22e55f&#45;e85e&#45;48a1&#45;a60d&#45;ee6a1f97cc83 -->
<g id="edge2" class="edge">
<title>dead76ba&#45;ae5e&#45;4601&#45;a4b0&#45;a68b30111f97&#45;&gt;9a22e55f&#45;e85e&#45;48a1&#45;a60d&#45;ee6a1f97cc83</title>
<path fill="none" stroke="black" d="M191,-177.52C191,-166.33 191,-151.31 191,-137.53"/>
<polygon fill="black" stroke="black" points="194.5,-137.84 191,-127.84 187.5,-137.84 194.5,-137.84"/>
<text text-anchor="middle" x="288.5" y="-148.54" font-family="Helvetica,sans-Serif" font-size="14.00">Additional changes required</text>
</g>
<!-- 22a09bf5&#45;fbfd&#45;4aeb&#45;9f1b&#45;c7a22719d76a -->
<g id="node9" class="node">
<title>22a09bf5&#45;fbfd&#45;4aeb&#45;9f1b&#45;c7a22719d76a</title>
<polygon fill="yellow" stroke="black" points="382,-36 0,-36 0,0 382,0 382,-36"/>
<text text-anchor="middle" x="191" y="-14.3" font-family="Helvetica,sans-Serif" font-size="14.00">⋯ Ran sandbox for `sweepai/handlers/on_ticket.py`.</text>
</g>
<!-- 9a22e55f&#45;e85e&#45;48a1&#45;a60d&#45;ee6a1f97cc83&#45;&gt;22a09bf5&#45;fbfd&#45;4aeb&#45;9f1b&#45;c7a22719d76a -->
<g id="edge3" class="edge">
<title>9a22e55f&#45;e85e&#45;48a1&#45;a60d&#45;ee6a1f97cc83&#45;&gt;22a09bf5&#45;fbfd&#45;4aeb&#45;9f1b&#45;c7a22719d76a</title>
<path fill="none" stroke="black" stroke-dasharray="5,2" d="M191,-72.72C191,-64.46 191,-55.31 191,-46.93"/>
<polygon fill="black" stroke="black" points="194.5,-47.15 191,-37.15 187.5,-47.15 194.5,-47.15"/>
</g>
</g>
</svg>
