<?xml version="1.0" encoding="UTF-8" standalone="no"?>
<!DOCTYPE svg PUBLIC "-//W3C//DTD SVG 1.1//EN"
 "http://www.w3.org/Graphics/SVG/1.1/DTD/svg11.dtd">
<!-- Generated by graphviz version 8.0.3 (0)
 -->
<!-- Pages: 1 -->
<svg width="1651pt" height="771pt"
 viewBox="0.00 0.00 1650.50 770.96" xmlns="http://www.w3.org/2000/svg" xmlns:xlink="http://www.w3.org/1999/xlink">
<g id="graph0" class="graph" transform="scale(1 1) rotate(0) translate(36 734.96)">
<polygon fill="dimgray" stroke="none" points="-36,36 -36,-734.96 1614.5,-734.96 1614.5,36 -36,36"/>
<text text-anchor="middle" x="789.25" y="-683.76" font-family="Helvetica,sans-Serif" font-size="14.00">Sweep&#39;s Plan &amp; Progress</text>
<!-- start -->
<g id="node1" class="node">
<title>start</title>
</g>
<!-- 2474dc83&#45;d6c9&#45;4095&#45;9ed9&#45;c258eb62d53b -->
<g id="node3" class="node">
<title>2474dc83&#45;d6c9&#45;4095&#45;9ed9&#45;c258eb62d53b</title>
<ellipse fill="#0ee832" stroke="black" cx="984" cy="-633.09" rx="159.61" ry="26.74"/>
<text text-anchor="middle" x="984" y="-636.89" font-family="Helvetica,sans-Serif" font-size="14.00">✓ Modify</text>
<text text-anchor="middle" x="984" y="-621.89" font-family="Helvetica,sans-Serif" font-size="14.00">sweepai/handlers/on_ticket.py</text>
</g>
<!-- start&#45;&gt;2474dc83&#45;d6c9&#45;4095&#45;9ed9&#45;c258eb62d53b -->
<g id="edge13" class="edge">
<title>start&#45;&gt;2474dc83&#45;d6c9&#45;4095&#45;9ed9&#45;c258eb62d53b</title>
<path fill="none" stroke="black" d="M772.15,-633.09C773.89,-633.09 790.25,-633.09 813.17,-633.09"/>
<polygon fill="black" stroke="black" points="813.13,-636.59 823.13,-633.09 813.13,-629.59 813.13,-636.59"/>
<text text-anchor="middle" x="798.35" y="-639.89" font-family="Helvetica,sans-Serif" font-size="14.00">Start</text>
</g>
<!-- end -->
<g id="node2" class="node">
<title>end</title>
</g>
<!-- ed608921&#45;bc70&#45;4f4e&#45;a331&#45;16482b157696 -->
<g id="node4" class="node">
<title>ed608921&#45;bc70&#45;4f4e&#45;a331&#45;16482b157696</title>
<ellipse fill="white" stroke="black" cx="1360" cy="-633.09" rx="159.61" ry="26.74"/>
<text text-anchor="middle" x="1360" y="-636.89" font-family="Helvetica,sans-Serif" font-size="14.00">▶ Modify</text>
<text text-anchor="middle" x="1360" y="-621.89" font-family="Helvetica,sans-Serif" font-size="14.00">sweepai/handlers/on_ticket.py</text>
</g>
<!-- 2474dc83&#45;d6c9&#45;4095&#45;9ed9&#45;c258eb62d53b&#45;&gt;ed608921&#45;bc70&#45;4f4e&#45;a331&#45;16482b157696 -->
<g id="edge11" class="edge">
<title>2474dc83&#45;d6c9&#45;4095&#45;9ed9&#45;c258eb62d53b&#45;&gt;ed608921&#45;bc70&#45;4f4e&#45;a331&#45;16482b157696</title>
<path fill="none" stroke="black" d="M1144.09,-633.09C1159.14,-633.09 1174.18,-633.09 1189.22,-633.09"/>
<polygon fill="black" stroke="black" points="1189.18,-636.59 1199.18,-633.09 1189.18,-629.59 1189.18,-636.59"/>
</g>
<!-- 03a86e8a&#45;88a6&#45;4998&#45;99f7&#45;e8baca8bd457 -->
<g id="node5" class="node">
<title>03a86e8a&#45;88a6&#45;4998&#45;99f7&#45;e8baca8bd457</title>
<polygon fill="#ee0000" stroke="black" points="777,-569.22 397,-569.22 397,-533.22 777,-533.22 777,-569.22"/>
<text text-anchor="middle" x="587" y="-547.52" font-family="Helvetica,sans-Serif" font-size="14.00">✗ Ran sandbox for `sweepai/handlers/on_ticket.py`.</text>
</g>
<!-- 2474dc83&#45;d6c9&#45;4095&#45;9ed9&#45;c258eb62d53b&#45;&gt;03a86e8a&#45;88a6&#45;4998&#45;99f7&#45;e8baca8bd457 -->
<g id="edge1" class="edge">
<title>2474dc83&#45;d6c9&#45;4095&#45;9ed9&#45;c258eb62d53b&#45;&gt;03a86e8a&#45;88a6&#45;4998&#45;99f7&#45;e8baca8bd457</title>
<path fill="none" stroke="black" stroke-dasharray="5,2" d="M883.56,-611.88C822.56,-599.61 745.06,-584.02 684.58,-571.85"/>
<polygon fill="black" stroke="black" points="685.38,-568.24 674.88,-569.7 684,-575.1 685.38,-568.24"/>
</g>
<!-- 9d0dcc6f&#45;06ea&#45;4e15&#45;baa3&#45;c4fa4987a2f0 -->
<g id="node6" class="node">
<title>9d0dcc6f&#45;06ea&#45;4e15&#45;baa3&#45;c4fa4987a2f0</title>
<polygon fill="white" stroke="black" points="1173,-569.22 795,-569.22 795,-533.22 1173,-533.22 1173,-569.22"/>
<text text-anchor="middle" x="984" y="-547.52" font-family="Helvetica,sans-Serif" font-size="14.00">▶ Ran sandbox for `sweepai/handlers/on_ticket.py`.</text>
</g>
<!-- 2474dc83&#45;d6c9&#45;4095&#45;9ed9&#45;c258eb62d53b&#45;&gt;9d0dcc6f&#45;06ea&#45;4e15&#45;baa3&#45;c4fa4987a2f0 -->
<g id="edge10" class="edge">
<title>2474dc83&#45;d6c9&#45;4095&#45;9ed9&#45;c258eb62d53b&#45;&gt;9d0dcc6f&#45;06ea&#45;4e15&#45;baa3&#45;c4fa4987a2f0</title>
<path fill="none" stroke="black" stroke-dasharray="5,2" d="M984,-605.94C984,-597.68 984,-588.53 984,-580.15"/>
<polygon fill="black" stroke="black" points="987.5,-580.37 984,-570.37 980.5,-580.37 987.5,-580.37"/>
</g>
<!-- ed608921&#45;bc70&#45;4f4e&#45;a331&#45;16482b157696&#45;&gt;end -->
<g id="edge14" class="edge">
<title>ed608921&#45;bc70&#45;4f4e&#45;a331&#45;16482b157696&#45;&gt;end</title>
<path fill="none" stroke="black" d="M1519.87,-633.09C1539.5,-633.09 1556.3,-633.09 1566.72,-633.09"/>
<polygon fill="black" stroke="black" points="1566.71,-636.59 1576.71,-633.09 1566.71,-629.59 1566.71,-636.59"/>
<text text-anchor="middle" x="1548.65" y="-639.89" font-family="Helvetica,sans-Serif" font-size="14.00">Finish</text>
</g>
<!-- 6c4aa635&#45;4ef4&#45;4dac&#45;b710&#45;d8f3a76e9eeb -->
<g id="node7" class="node">
<title>6c4aa635&#45;4ef4&#45;4dac&#45;b710&#45;d8f3a76e9eeb</title>
<polygon fill="white" stroke="black" points="1569,-569.22 1191,-569.22 1191,-533.22 1569,-533.22 1569,-569.22"/>
<text text-anchor="middle" x="1380" y="-547.52" font-family="Helvetica,sans-Serif" font-size="14.00">▶ Ran sandbox for `sweepai/handlers/on_ticket.py`.</text>
</g>
<!-- ed608921&#45;bc70&#45;4f4e&#45;a331&#45;16482b157696&#45;&gt;6c4aa635&#45;4ef4&#45;4dac&#45;b710&#45;d8f3a76e9eeb -->
<g id="edge12" class="edge">
<title>ed608921&#45;bc70&#45;4f4e&#45;a331&#45;16482b157696&#45;&gt;6c4aa635&#45;4ef4&#45;4dac&#45;b710&#45;d8f3a76e9eeb</title>
<path fill="none" stroke="black" stroke-dasharray="5,2" d="M1366.55,-605.94C1368.64,-597.59 1370.96,-588.32 1373.08,-579.87"/>
<polygon fill="black" stroke="black" points="1376.67,-580.92 1375.71,-570.37 1369.88,-579.22 1376.67,-580.92"/>
</g>
<!-- e8c7c437&#45;6dc5&#45;4579&#45;a46d&#45;0f350f35c565 -->
<g id="node8" class="node">
<title>e8c7c437&#45;6dc5&#45;4579&#45;a46d&#45;0f350f35c565</title>
<ellipse fill="#0ee832" stroke="black" cx="587" cy="-455.35" rx="159.61" ry="26.74"/>
<text text-anchor="middle" x="587" y="-459.15" font-family="Helvetica,sans-Serif" font-size="14.00">✓ Modify</text>
<text text-anchor="middle" x="587" y="-444.15" font-family="Helvetica,sans-Serif" font-size="14.00">sweepai/handlers/on_ticket.py</text>
</g>
<!-- 03a86e8a&#45;88a6&#45;4998&#45;99f7&#45;e8baca8bd457&#45;&gt;e8c7c437&#45;6dc5&#45;4579&#45;a46d&#45;0f350f35c565 -->
<g id="edge2" class="edge">
<title>03a86e8a&#45;88a6&#45;4998&#45;99f7&#45;e8baca8bd457&#45;&gt;e8c7c437&#45;6dc5&#45;4579&#45;a46d&#45;0f350f35c565</title>
<path fill="none" stroke="black" d="M587,-533C587,-521.81 587,-506.79 587,-493.01"/>
<polygon fill="black" stroke="black" points="590.5,-493.32 587,-483.32 583.5,-493.32 590.5,-493.32"/>
<text text-anchor="middle" x="684.5" y="-504.02" font-family="Helvetica,sans-Serif" font-size="14.00">Additional changes required</text>
</g>
<!-- 51ed0060&#45;5ddc&#45;4861&#45;ac15&#45;727156540dfd -->
<g id="node9" class="node">
<title>51ed0060&#45;5ddc&#45;4861&#45;ac15&#45;727156540dfd</title>
<polygon fill="#ee0000" stroke="black" points="579,-391.48 199,-391.48 199,-355.48 579,-355.48 579,-391.48"/>
<text text-anchor="middle" x="389" y="-369.78" font-family="Helvetica,sans-Serif" font-size="14.00">✗ Ran sandbox for `sweepai/handlers/on_ticket.py`.</text>
</g>
<!-- e8c7c437&#45;6dc5&#45;4579&#45;a46d&#45;0f350f35c565&#45;&gt;51ed0060&#45;5ddc&#45;4861&#45;ac15&#45;727156540dfd -->
<g id="edge3" class="edge">
<title>e8c7c437&#45;6dc5&#45;4579&#45;a46d&#45;0f350f35c565&#45;&gt;51ed0060&#45;5ddc&#45;4861&#45;ac15&#45;727156540dfd</title>
<path fill="none" stroke="black" stroke-dasharray="5,2" d="M527.06,-430.17C500.03,-419.27 468.37,-406.5 442.19,-395.94"/>
<polygon fill="black" stroke="black" points="443.67,-392.35 433.08,-391.86 441.05,-398.85 443.67,-392.35"/>
</g>
<!-- 3ebcd283&#45;2cd7&#45;497d&#45;a173&#45;0537e6b1e803 -->
<g id="node10" class="node">
<title>3ebcd283&#45;2cd7&#45;497d&#45;a173&#45;0537e6b1e803</title>
<polygon fill="white" stroke="black" points="975,-391.48 597,-391.48 597,-355.48 975,-355.48 975,-391.48"/>
<text text-anchor="middle" x="786" y="-369.78" font-family="Helvetica,sans-Serif" font-size="14.00">▶ Ran sandbox for `sweepai/handlers/on_ticket.py`.</text>
</g>
<!-- e8c7c437&#45;6dc5&#45;4579&#45;a46d&#45;0f350f35c565&#45;&gt;3ebcd283&#45;2cd7&#45;497d&#45;a173&#45;0537e6b1e803 -->
<g id="edge9" class="edge">
<title>e8c7c437&#45;6dc5&#45;4579&#45;a46d&#45;0f350f35c565&#45;&gt;3ebcd283&#45;2cd7&#45;497d&#45;a173&#45;0537e6b1e803</title>
<path fill="none" stroke="black" stroke-dasharray="5,2" d="M647.25,-430.17C674.41,-419.27 706.23,-406.5 732.54,-395.94"/>
<polygon fill="black" stroke="black" points="733.72,-398.83 741.7,-391.86 731.11,-392.34 733.72,-398.83"/>
</g>
<!-- 9da2e3ed&#45;dd7f&#45;426d&#45;8681&#45;9b881753bdcf -->
<g id="node11" class="node">
<title>9da2e3ed&#45;dd7f&#45;426d&#45;8681&#45;9b881753bdcf</title>
<ellipse fill="#0ee832" stroke="black" cx="389" cy="-277.61" rx="159.61" ry="26.74"/>
<text text-anchor="middle" x="389" y="-281.41" font-family="Helvetica,sans-Serif" font-size="14.00">✓ Modify</text>
<text text-anchor="middle" x="389" y="-266.41" font-family="Helvetica,sans-Serif" font-size="14.00">sweepai/handlers/on_ticket.py</text>
</g>
<!-- 51ed0060&#45;5ddc&#45;4861&#45;ac15&#45;727156540dfd&#45;&gt;9da2e3ed&#45;dd7f&#45;426d&#45;8681&#45;9b881753bdcf -->
<g id="edge4" class="edge">
<title>51ed0060&#45;5ddc&#45;4861&#45;ac15&#45;727156540dfd&#45;&gt;9da2e3ed&#45;dd7f&#45;426d&#45;8681&#45;9b881753bdcf</title>
<path fill="none" stroke="black" d="M389,-355.26C389,-344.07 389,-329.05 389,-315.27"/>
<polygon fill="black" stroke="black" points="392.5,-315.58 389,-305.58 385.5,-315.58 392.5,-315.58"/>
<text text-anchor="middle" x="486.5" y="-326.28" font-family="Helvetica,sans-Serif" font-size="14.00">Additional changes required</text>
</g>
<!-- 9d3c4d9b&#45;f3cb&#45;42b9&#45;874f&#45;86eae8c8baf5 -->
<g id="node12" class="node">
<title>9d3c4d9b&#45;f3cb&#45;42b9&#45;874f&#45;86eae8c8baf5</title>
<polygon fill="#ee0000" stroke="black" points="381,-213.74 1,-213.74 1,-177.74 381,-177.74 381,-213.74"/>
<text text-anchor="middle" x="191" y="-192.04" font-family="Helvetica,sans-Serif" font-size="14.00">✗ Ran sandbox for `sweepai/handlers/on_ticket.py`.</text>
</g>
<!-- 9da2e3ed&#45;dd7f&#45;426d&#45;8681&#45;9b881753bdcf&#45;&gt;9d3c4d9b&#45;f3cb&#45;42b9&#45;874f&#45;86eae8c8baf5 -->
<g id="edge5" class="edge">
<title>9da2e3ed&#45;dd7f&#45;426d&#45;8681&#45;9b881753bdcf&#45;&gt;9d3c4d9b&#45;f3cb&#45;42b9&#45;874f&#45;86eae8c8baf5</title>
<path fill="none" stroke="black" stroke-dasharray="5,2" d="M329.06,-252.43C302.03,-241.53 270.37,-228.76 244.19,-218.2"/>
<polygon fill="black" stroke="black" points="245.67,-214.61 235.08,-214.12 243.05,-221.11 245.67,-214.61"/>
</g>
<!-- d025db31&#45;73be&#45;4267&#45;aae1&#45;a34cdb2f4d5f -->
<g id="node13" class="node">
<title>d025db31&#45;73be&#45;4267&#45;aae1&#45;a34cdb2f4d5f</title>
<polygon fill="white" stroke="black" points="777,-213.74 399,-213.74 399,-177.74 777,-177.74 777,-213.74"/>
<text text-anchor="middle" x="588" y="-192.04" font-family="Helvetica,sans-Serif" font-size="14.00">▶ Ran sandbox for `sweepai/handlers/on_ticket.py`.</text>
</g>
<!-- 9da2e3ed&#45;dd7f&#45;426d&#45;8681&#45;9b881753bdcf&#45;&gt;d025db31&#45;73be&#45;4267&#45;aae1&#45;a34cdb2f4d5f -->
<g id="edge8" class="edge">
<title>9da2e3ed&#45;dd7f&#45;426d&#45;8681&#45;9b881753bdcf&#45;&gt;d025db31&#45;73be&#45;4267&#45;aae1&#45;a34cdb2f4d5f</title>
<path fill="none" stroke="black" stroke-dasharray="5,2" d="M449.25,-252.43C476.41,-241.53 508.23,-228.76 534.54,-218.2"/>
<polygon fill="black" stroke="black" points="535.72,-221.09 543.7,-214.12 533.11,-214.6 535.72,-221.09"/>
</g>
<!-- fb43e704&#45;8398&#45;4fab&#45;a423&#45;caf6360e255c -->
<g id="node14" class="node">
<title>fb43e704&#45;8398&#45;4fab&#45;a423&#45;caf6360e255c</title>
<ellipse fill="#ee0000" stroke="black" cx="191" cy="-99.87" rx="159.61" ry="26.74"/>
<text text-anchor="middle" x="191" y="-103.67" font-family="Helvetica,sans-Serif" font-size="14.00">✗ Modify</text>
<text text-anchor="middle" x="191" y="-88.67" font-family="Helvetica,sans-Serif" font-size="14.00">sweepai/handlers/on_ticket.py</text>
</g>
<!-- 9d3c4d9b&#45;f3cb&#45;42b9&#45;874f&#45;86eae8c8baf5&#45;&gt;fb43e704&#45;8398&#45;4fab&#45;a423&#45;caf6360e255c -->
<g id="edge6" class="edge">
<title>9d3c4d9b&#45;f3cb&#45;42b9&#45;874f&#45;86eae8c8baf5&#45;&gt;fb43e704&#45;8398&#45;4fab&#45;a423&#45;caf6360e255c</title>
<path fill="none" stroke="black" d="M191,-177.52C191,-166.33 191,-151.31 191,-137.53"/>
<polygon fill="black" stroke="black" points="194.5,-137.84 191,-127.84 187.5,-137.84 194.5,-137.84"/>
<text text-anchor="middle" x="288.5" y="-148.54" font-family="Helvetica,sans-Serif" font-size="14.00">Additional changes required</text>
</g>
<!-- 95a397a4&#45;07e2&#45;48ff&#45;bc4c&#45;e69267d0322f -->
<g id="node15" class="node">
<title>95a397a4&#45;07e2&#45;48ff&#45;bc4c&#45;e69267d0322f</title>
<polygon fill="yellow" stroke="black" points="382,-36 0,-36 0,0 382,0 382,-36"/>
<text text-anchor="middle" x="191" y="-14.3" font-family="Helvetica,sans-Serif" font-size="14.00">⋯ Ran sandbox for `sweepai/handlers/on_ticket.py`.</text>
</g>
<!-- fb43e704&#45;8398&#45;4fab&#45;a423&#45;caf6360e255c&#45;&gt;95a397a4&#45;07e2&#45;48ff&#45;bc4c&#45;e69267d0322f -->
<g id="edge7" class="edge">
<title>fb43e704&#45;8398&#45;4fab&#45;a423&#45;caf6360e255c&#45;&gt;95a397a4&#45;07e2&#45;48ff&#45;bc4c&#45;e69267d0322f</title>
<path fill="none" stroke="black" stroke-dasharray="5,2" d="M191,-72.72C191,-64.46 191,-55.31 191,-46.93"/>
<polygon fill="black" stroke="black" points="194.5,-47.15 191,-37.15 187.5,-47.15 194.5,-47.15"/>
</g>
</g>
</svg>
