<?xml version="1.0" encoding="UTF-8" standalone="no"?>
<!DOCTYPE svg PUBLIC "-//W3C//DTD SVG 1.1//EN"
 "http://www.w3.org/Graphics/SVG/1.1/DTD/svg11.dtd">
<!-- Generated by graphviz version 2.43.0 (0)
 -->
<!-- Title: %3 Pages: 1 -->
<svg width="3277pt" height="240pt"
 viewBox="0.00 0.00 3277.00 239.74" xmlns="http://www.w3.org/2000/svg" xmlns:xlink="http://www.w3.org/1999/xlink">
<g id="graph0" class="graph" transform="scale(1 1) rotate(0) translate(36 203.74)">
<title>%3</title>
<polygon fill="white" stroke="transparent" points="-36,36 -36,-203.74 3241,-203.74 3241,36 -36,36"/>
<text text-anchor="middle" x="1602.5" y="-152.54" font-family="Times,serif" font-size="14.00">Sweep&#39;s Plan &amp; Progress</text>
<!-- start -->
<g id="node1" class="node">
<title>start</title>
</g>
<!-- 44268e5e&#45;b7ba&#45;4f49&#45;8562&#45;ca0da50cd37d -->
<g id="node3" class="node">
<title>44268e5e&#45;b7ba&#45;4f49&#45;8562&#45;ca0da50cd37d</title>
<ellipse fill="red" stroke="black" cx="1602.5" cy="-101.87" rx="194.41" ry="26.74"/>
<text text-anchor="middle" x="1602.5" y="-105.67" font-family="Times,serif" font-size="14.00">✗ Modify</text>
<text text-anchor="middle" x="1602.5" y="-90.67" font-family="Times,serif" font-size="14.00">sweepai/utils/comment_utils_test.py</text>
</g>
<!-- start&#45;&gt;44268e5e&#45;b7ba&#45;4f49&#45;8562&#45;ca0da50cd37d -->
<g id="edge12" class="edge">
<title>start&#45;&gt;44268e5e&#45;b7ba&#45;4f49&#45;8562&#45;ca0da50cd37d</title>
<path fill="none" stroke="black" d="M1354.21,-101.87C1357.78,-101.87 1374.44,-101.87 1397.57,-101.87"/>
<polygon fill="black" stroke="black" points="1397.86,-105.37 1407.86,-101.87 1397.86,-98.37 1397.86,-105.37"/>
<text text-anchor="middle" x="1381.02" y="-108.67" font-family="Times,serif" font-size="14.00">Start</text>
</g>
<!-- end -->
<g id="node2" class="node">
<title>end</title>
</g>
<!-- 44268e5e&#45;b7ba&#45;4f49&#45;8562&#45;ca0da50cd37d&#45;&gt;end -->
<g id="edge13" class="edge">
<title>44268e5e&#45;b7ba&#45;4f49&#45;8562&#45;ca0da50cd37d&#45;&gt;end</title>
<path fill="none" stroke="black" d="M1796.96,-101.87C1819.14,-101.87 1837.73,-101.87 1848.73,-101.87"/>
<polygon fill="black" stroke="black" points="1848.81,-105.37 1858.81,-101.87 1848.81,-98.37 1848.81,-105.37"/>
<text text-anchor="middle" x="1827.98" y="-108.67" font-family="Times,serif" font-size="14.00">Finish</text>
</g>
<!-- 101e5dff&#45;c661&#45;40d9&#45;bb9b&#45;4fb7b0b5ea43 -->
<g id="node4" class="node">
<title>101e5dff&#45;c661&#45;40d9&#45;bb9b&#45;4fb7b0b5ea43</title>
<polygon fill="red" stroke="black" points="275,-38 0,-38 0,0 275,0 275,-38"/>
<text text-anchor="middle" x="137.5" y="-22.8" font-family="Times,serif" font-size="14.00">✗ Check</text>
<text text-anchor="middle" x="137.5" y="-7.8" font-family="Times,serif" font-size="14.00">sweepai/utils/comment_utils_test.py</text>
</g>
<!-- 44268e5e&#45;b7ba&#45;4f49&#45;8562&#45;ca0da50cd37d&#45;&gt;101e5dff&#45;c661&#45;40d9&#45;bb9b&#45;4fb7b0b5ea43 -->
<g id="edge1" class="edge">
<title>44268e5e&#45;b7ba&#45;4f49&#45;8562&#45;ca0da50cd37d&#45;&gt;101e5dff&#45;c661&#45;40d9&#45;bb9b&#45;4fb7b0b5ea43</title>
<path fill="none" stroke="black" stroke-dasharray="5,2" d="M1459.25,-83.7C1427.43,-80.37 1393.85,-77.22 1362.5,-75 887.25,-41.28 763.61,-75.13 285.31,-38.1"/>
<polygon fill="black" stroke="black" points="285.26,-34.59 275.02,-37.3 284.72,-41.57 285.26,-34.59"/>
</g>
<!-- b5517287&#45;62a7&#45;42a3&#45;9220&#45;ff2054d58972 -->
<g id="node5" class="node">
<title>b5517287&#45;62a7&#45;42a3&#45;9220&#45;ff2054d58972</title>
<polygon fill="red" stroke="black" points="568,-38 293,-38 293,0 568,0 568,-38"/>
<text text-anchor="middle" x="430.5" y="-22.8" font-family="Times,serif" font-size="14.00">✗ Check</text>
<text text-anchor="middle" x="430.5" y="-7.8" font-family="Times,serif" font-size="14.00">sweepai/utils/comment_utils_test.py</text>
</g>
<!-- 44268e5e&#45;b7ba&#45;4f49&#45;8562&#45;ca0da50cd37d&#45;&gt;b5517287&#45;62a7&#45;42a3&#45;9220&#45;ff2054d58972 -->
<g id="edge2" class="edge">
<title>44268e5e&#45;b7ba&#45;4f49&#45;8562&#45;ca0da50cd37d&#45;&gt;b5517287&#45;62a7&#45;42a3&#45;9220&#45;ff2054d58972</title>
<path fill="none" stroke="black" stroke-dasharray="5,2" d="M1457.95,-83.86C1426.52,-80.56 1393.42,-77.39 1362.5,-75 1017.14,-48.28 926.68,-67.27 578.15,-38.1"/>
<polygon fill="black" stroke="black" points="578.28,-34.6 568.02,-37.25 577.69,-41.58 578.28,-34.6"/>
</g>
<!-- a8092f3d&#45;2e9e&#45;4a9b&#45;9a72&#45;9449cf8d0a78 -->
<g id="node6" class="node">
<title>a8092f3d&#45;2e9e&#45;4a9b&#45;9a72&#45;9449cf8d0a78</title>
<polygon fill="red" stroke="black" points="861,-38 586,-38 586,0 861,0 861,-38"/>
<text text-anchor="middle" x="723.5" y="-22.8" font-family="Times,serif" font-size="14.00">✗ Check</text>
<text text-anchor="middle" x="723.5" y="-7.8" font-family="Times,serif" font-size="14.00">sweepai/utils/comment_utils_test.py</text>
</g>
<!-- 44268e5e&#45;b7ba&#45;4f49&#45;8562&#45;ca0da50cd37d&#45;&gt;a8092f3d&#45;2e9e&#45;4a9b&#45;9a72&#45;9449cf8d0a78 -->
<g id="edge3" class="edge">
<title>44268e5e&#45;b7ba&#45;4f49&#45;8562&#45;ca0da50cd37d&#45;&gt;a8092f3d&#45;2e9e&#45;4a9b&#45;9a72&#45;9449cf8d0a78</title>
<path fill="none" stroke="black" stroke-dasharray="5,2" d="M1455.34,-84.24C1424.68,-80.99 1392.55,-77.75 1362.5,-75 1147,-55.3 1089.87,-59.54 871.23,-38.15"/>
<polygon fill="black" stroke="black" points="871.33,-34.64 861.03,-37.14 870.64,-41.61 871.33,-34.64"/>
</g>
<!-- 62091956&#45;87a2&#45;4a14&#45;822d&#45;0a831c5a93fc -->
<g id="node7" class="node">
<title>62091956&#45;87a2&#45;4a14&#45;822d&#45;0a831c5a93fc</title>
<polygon fill="red" stroke="black" points="1154,-38 879,-38 879,0 1154,0 1154,-38"/>
<text text-anchor="middle" x="1016.5" y="-22.8" font-family="Times,serif" font-size="14.00">✗ Check</text>
<text text-anchor="middle" x="1016.5" y="-7.8" font-family="Times,serif" font-size="14.00">sweepai/utils/comment_utils_test.py</text>
</g>
<!-- 44268e5e&#45;b7ba&#45;4f49&#45;8562&#45;ca0da50cd37d&#45;&gt;62091956&#45;87a2&#45;4a14&#45;822d&#45;0a831c5a93fc -->
<g id="edge4" class="edge">
<title>44268e5e&#45;b7ba&#45;4f49&#45;8562&#45;ca0da50cd37d&#45;&gt;62091956&#45;87a2&#45;4a14&#45;822d&#45;0a831c5a93fc</title>
<path fill="none" stroke="black" stroke-dasharray="5,2" d="M1468.43,-82.37C1375.27,-69.51 1251.37,-52.41 1156.87,-39.37"/>
<polygon fill="black" stroke="black" points="1157.33,-35.9 1146.95,-38 1156.38,-42.84 1157.33,-35.9"/>
</g>
<!-- 3b187acc&#45;eeae&#45;4eef&#45;bb27&#45;d85d776b2f7b -->
<g id="node8" class="node">
<title>3b187acc&#45;eeae&#45;4eef&#45;bb27&#45;d85d776b2f7b</title>
<polygon fill="red" stroke="black" points="1447,-38 1172,-38 1172,0 1447,0 1447,-38"/>
<text text-anchor="middle" x="1309.5" y="-22.8" font-family="Times,serif" font-size="14.00">✗ Check</text>
<text text-anchor="middle" x="1309.5" y="-7.8" font-family="Times,serif" font-size="14.00">sweepai/utils/comment_utils_test.py</text>
</g>
<!-- 44268e5e&#45;b7ba&#45;4f49&#45;8562&#45;ca0da50cd37d&#45;&gt;3b187acc&#45;eeae&#45;4eef&#45;bb27&#45;d85d776b2f7b -->
<g id="edge5" class="edge">
<title>44268e5e&#45;b7ba&#45;4f49&#45;8562&#45;ca0da50cd37d&#45;&gt;3b187acc&#45;eeae&#45;4eef&#45;bb27&#45;d85d776b2f7b</title>
<path fill="none" stroke="black" stroke-dasharray="5,2" d="M1518.15,-77.59C1476.13,-65.99 1425.75,-52.09 1385.02,-40.84"/>
<polygon fill="black" stroke="black" points="1385.72,-37.41 1375.15,-38.12 1383.86,-44.15 1385.72,-37.41"/>
</g>
<!-- dd7511dd&#45;febf&#45;4559&#45;8b59&#45;1b204579691a -->
<g id="node9" class="node">
<title>dd7511dd&#45;febf&#45;4559&#45;8b59&#45;1b204579691a</title>
<polygon fill="red" stroke="black" points="1740,-38 1465,-38 1465,0 1740,0 1740,-38"/>
<text text-anchor="middle" x="1602.5" y="-22.8" font-family="Times,serif" font-size="14.00">✗ Check</text>
<text text-anchor="middle" x="1602.5" y="-7.8" font-family="Times,serif" font-size="14.00">sweepai/utils/comment_utils_test.py</text>
</g>
<!-- 44268e5e&#45;b7ba&#45;4f49&#45;8562&#45;ca0da50cd37d&#45;&gt;dd7511dd&#45;febf&#45;4559&#45;8b59&#45;1b204579691a -->
<g id="edge6" class="edge">
<title>44268e5e&#45;b7ba&#45;4f49&#45;8562&#45;ca0da50cd37d&#45;&gt;dd7511dd&#45;febf&#45;4559&#45;8b59&#45;1b204579691a</title>
<path fill="none" stroke="black" stroke-dasharray="5,2" d="M1602.5,-74.84C1602.5,-66.3 1602.5,-56.78 1602.5,-48.1"/>
<polygon fill="black" stroke="black" points="1606,-48.05 1602.5,-38.05 1599,-48.05 1606,-48.05"/>
</g>
<!-- 842fee69&#45;0e81&#45;4eaa&#45;af03&#45;a30ddb57702f -->
<g id="node10" class="node">
<title>842fee69&#45;0e81&#45;4eaa&#45;af03&#45;a30ddb57702f</title>
<polygon fill="red" stroke="black" points="2033,-38 1758,-38 1758,0 2033,0 2033,-38"/>
<text text-anchor="middle" x="1895.5" y="-22.8" font-family="Times,serif" font-size="14.00">✗ Check</text>
<text text-anchor="middle" x="1895.5" y="-7.8" font-family="Times,serif" font-size="14.00">sweepai/utils/comment_utils_test.py</text>
</g>
<!-- 44268e5e&#45;b7ba&#45;4f49&#45;8562&#45;ca0da50cd37d&#45;&gt;842fee69&#45;0e81&#45;4eaa&#45;af03&#45;a30ddb57702f -->
<g id="edge7" class="edge">
<title>44268e5e&#45;b7ba&#45;4f49&#45;8562&#45;ca0da50cd37d&#45;&gt;842fee69&#45;0e81&#45;4eaa&#45;af03&#45;a30ddb57702f</title>
<path fill="none" stroke="black" stroke-dasharray="5,2" d="M1686.85,-77.59C1728.87,-65.99 1779.25,-52.09 1819.98,-40.84"/>
<polygon fill="black" stroke="black" points="1821.14,-44.15 1829.85,-38.12 1819.28,-37.41 1821.14,-44.15"/>
</g>
<!-- 1894c55b&#45;a5fb&#45;4fd9&#45;bee3&#45;a6d763091273 -->
<g id="node11" class="node">
<title>1894c55b&#45;a5fb&#45;4fd9&#45;bee3&#45;a6d763091273</title>
<polygon fill="red" stroke="black" points="2326,-38 2051,-38 2051,0 2326,0 2326,-38"/>
<text text-anchor="middle" x="2188.5" y="-22.8" font-family="Times,serif" font-size="14.00">✗ Check</text>
<text text-anchor="middle" x="2188.5" y="-7.8" font-family="Times,serif" font-size="14.00">sweepai/utils/comment_utils_test.py</text>
</g>
<!-- 44268e5e&#45;b7ba&#45;4f49&#45;8562&#45;ca0da50cd37d&#45;&gt;1894c55b&#45;a5fb&#45;4fd9&#45;bee3&#45;a6d763091273 -->
<g id="edge8" class="edge">
<title>44268e5e&#45;b7ba&#45;4f49&#45;8562&#45;ca0da50cd37d&#45;&gt;1894c55b&#45;a5fb&#45;4fd9&#45;bee3&#45;a6d763091273</title>
<path fill="none" stroke="black" stroke-dasharray="5,2" d="M1736.57,-82.37C1829.73,-69.51 1953.63,-52.41 2048.13,-39.37"/>
<polygon fill="black" stroke="black" points="2048.62,-42.84 2058.05,-38 2047.67,-35.9 2048.62,-42.84"/>
</g>
<!-- 8e3612d0&#45;9e1a&#45;40d7&#45;9cfe&#45;f5b0809907d3 -->
<g id="node12" class="node">
<title>8e3612d0&#45;9e1a&#45;40d7&#45;9cfe&#45;f5b0809907d3</title>
<polygon fill="red" stroke="black" points="2619,-38 2344,-38 2344,0 2619,0 2619,-38"/>
<text text-anchor="middle" x="2481.5" y="-22.8" font-family="Times,serif" font-size="14.00">✗ Check</text>
<text text-anchor="middle" x="2481.5" y="-7.8" font-family="Times,serif" font-size="14.00">sweepai/utils/comment_utils_test.py</text>
</g>
<!-- 44268e5e&#45;b7ba&#45;4f49&#45;8562&#45;ca0da50cd37d&#45;&gt;8e3612d0&#45;9e1a&#45;40d7&#45;9cfe&#45;f5b0809907d3 -->
<g id="edge9" class="edge">
<title>44268e5e&#45;b7ba&#45;4f49&#45;8562&#45;ca0da50cd37d&#45;&gt;8e3612d0&#45;9e1a&#45;40d7&#45;9cfe&#45;f5b0809907d3</title>
<path fill="none" stroke="black" stroke-dasharray="5,2" d="M1751.66,-84.56C1783.91,-81.23 1817.83,-77.87 1849.5,-75 2061.54,-55.81 2117.69,-59.25 2333.73,-38.05"/>
<polygon fill="black" stroke="black" points="2334.2,-41.52 2343.81,-37.05 2333.51,-34.55 2334.2,-41.52"/>
</g>
<!-- 4c75c1c6&#45;6e36&#45;4b0c&#45;b7e1&#45;4e28285188fd -->
<g id="node13" class="node">
<title>4c75c1c6&#45;6e36&#45;4b0c&#45;b7e1&#45;4e28285188fd</title>
<polygon fill="red" stroke="black" points="2912,-38 2637,-38 2637,0 2912,0 2912,-38"/>
<text text-anchor="middle" x="2774.5" y="-22.8" font-family="Times,serif" font-size="14.00">✗ Check</text>
<text text-anchor="middle" x="2774.5" y="-7.8" font-family="Times,serif" font-size="14.00">sweepai/utils/comment_utils_test.py</text>
</g>
<!-- 44268e5e&#45;b7ba&#45;4f49&#45;8562&#45;ca0da50cd37d&#45;&gt;4c75c1c6&#45;6e36&#45;4b0c&#45;b7e1&#45;4e28285188fd -->
<g id="edge10" class="edge">
<title>44268e5e&#45;b7ba&#45;4f49&#45;8562&#45;ca0da50cd37d&#45;&gt;4c75c1c6&#45;6e36&#45;4b0c&#45;b7e1&#45;4e28285188fd</title>
<path fill="none" stroke="black" stroke-dasharray="5,2" d="M1748.98,-84.14C1782.01,-80.75 1816.93,-77.48 1849.5,-75 2191.38,-48.99 2280.87,-66.93 2626.77,-38.02"/>
<polygon fill="black" stroke="black" points="2627.15,-41.5 2636.82,-37.17 2626.56,-34.53 2627.15,-41.5"/>
</g>
<!-- 629c5040&#45;a64b&#45;42d6&#45;bce1&#45;ba1513e3a51d -->
<g id="node14" class="node">
<title>629c5040&#45;a64b&#45;42d6&#45;bce1&#45;ba1513e3a51d</title>
<polygon fill="yellow" stroke="black" points="3205,-38 2930,-38 2930,0 3205,0 3205,-38"/>
<text text-anchor="middle" x="3067.5" y="-22.8" font-family="Times,serif" font-size="14.00">⋯ Check</text>
<text text-anchor="middle" x="3067.5" y="-7.8" font-family="Times,serif" font-size="14.00">sweepai/utils/comment_utils_test.py</text>
</g>
<!-- 44268e5e&#45;b7ba&#45;4f49&#45;8562&#45;ca0da50cd37d&#45;&gt;629c5040&#45;a64b&#45;42d6&#45;bce1&#45;ba1513e3a51d -->
<g id="edge11" class="edge">
<title>44268e5e&#45;b7ba&#45;4f49&#45;8562&#45;ca0da50cd37d&#45;&gt;629c5040&#45;a64b&#45;42d6&#45;bce1&#45;ba1513e3a51d</title>
<path fill="none" stroke="black" stroke-dasharray="5,2" d="M1747.65,-83.96C1781.07,-80.54 1816.49,-77.3 1849.5,-75 2321.27,-42.19 2443.94,-74.73 2919.59,-38.02"/>
<polygon fill="black" stroke="black" points="2920.12,-41.49 2929.82,-37.23 2919.58,-34.51 2920.12,-41.49"/>
</g>
</g>
</svg>
