<?xml version="1.0" encoding="UTF-8" standalone="no"?>
<!DOCTYPE svg PUBLIC "-//W3C//DTD SVG 1.1//EN"
 "http://www.w3.org/Graphics/SVG/1.1/DTD/svg11.dtd">
<!-- Generated by graphviz version 2.43.0 (0)
 -->
<!-- Title: %3 Pages: 1 -->
<svg width="385pt" height="238pt"
 viewBox="0.00 0.00 385.00 237.74" xmlns="http://www.w3.org/2000/svg" xmlns:xlink="http://www.w3.org/1999/xlink">
<g id="graph0" class="graph" transform="scale(1 1) rotate(0) translate(36 201.74)">
<title>%3</title>
<polygon fill="dimgray" stroke="transparent" points="-36,36 -36,-201.74 349,-201.74 349,36 -36,36"/>
<text text-anchor="middle" x="156.5" y="-150.54" font-family="Helvetica,sans-Serif" font-size="14.00">Sweep&#39;s Plan &amp; Progress</text>
<!-- start -->
<g id="node1" class="node">
<title>start</title>
</g>
<!-- ed4c6ac1&#45;a7a7&#45;41b1&#45;95af&#45;c5a252d4096a -->
<g id="node3" class="node">
<title>ed4c6ac1&#45;a7a7&#45;41b1&#45;95af&#45;c5a252d4096a</title>
<ellipse fill="#0ee832" stroke="black" cx="156.5" cy="-99.87" rx="84.71" ry="26.74"/>
<text text-anchor="middle" x="156.5" y="-103.67" font-family="Helvetica,sans-Serif" font-size="14.00">✓ Modify</text>
<text text-anchor="middle" x="156.5" y="-88.67" font-family="Helvetica,sans-Serif" font-size="14.00">sweepai/api.py</text>
</g>
<!-- start&#45;&gt;ed4c6ac1&#45;a7a7&#45;41b1&#45;95af&#45;c5a252d4096a -->
<g id="edge2" class="edge">
<title>start&#45;&gt;ed4c6ac1&#45;a7a7&#45;41b1&#45;95af&#45;c5a252d4096a</title>
<path fill="none" stroke="black" d="M20.37,-99.87C24.29,-99.87 40.92,-99.87 61.28,-99.87"/>
<polygon fill="black" stroke="black" points="61.54,-103.37 71.54,-99.87 61.54,-96.37 61.54,-103.37"/>
<text text-anchor="middle" x="45.82" y="-106.67" font-family="Helvetica,sans-Serif" font-size="14.00">Start</text>
</g>
<!-- end -->
<g id="node2" class="node">
<title>end</title>
</g>
<!-- ed4c6ac1&#45;a7a7&#45;41b1&#45;95af&#45;c5a252d4096a&#45;&gt;end -->
<g id="edge3" class="edge">
<title>ed4c6ac1&#45;a7a7&#45;41b1&#45;95af&#45;c5a252d4096a&#45;&gt;end</title>
<path fill="none" stroke="black" d="M241.75,-99.87C260.4,-99.87 277.75,-99.87 288.46,-99.87"/>
<polygon fill="black" stroke="black" points="288.8,-103.37 298.8,-99.87 288.8,-96.37 288.8,-103.37"/>
<text text-anchor="middle" x="270.18" y="-106.67" font-family="Helvetica,sans-Serif" font-size="14.00">Finish</text>
</g>
<!-- 7ab0b4f9&#45;8532&#45;4622&#45;81af&#45;4fb9c54d70b6 -->
<g id="node4" class="node">
<title>7ab0b4f9&#45;8532&#45;4622&#45;81af&#45;4fb9c54d70b6</title>
<polygon fill="#0ee832" stroke="black" points="313,-36 0,-36 0,0 313,0 313,-36"/>
<text text-anchor="middle" x="156.5" y="-14.3" font-family="Helvetica,sans-Serif" font-size="14.00">✓ Run GitHub Actions for `sweepai/api.py`</text>
</g>
<!-- ed4c6ac1&#45;a7a7&#45;41b1&#45;95af&#45;c5a252d4096a&#45;&gt;7ab0b4f9&#45;8532&#45;4622&#45;81af&#45;4fb9c54d70b6 -->
<g id="edge1" class="edge">
<title>ed4c6ac1&#45;a7a7&#45;41b1&#45;95af&#45;c5a252d4096a&#45;&gt;7ab0b4f9&#45;8532&#45;4622&#45;81af&#45;4fb9c54d70b6</title>
<path fill="none" stroke="black" stroke-dasharray="5,2" d="M156.5,-72.72C156.5,-64.27 156.5,-54.89 156.5,-46.36"/>
<polygon fill="black" stroke="black" points="160,-46.15 156.5,-36.15 153,-46.15 160,-46.15"/>
</g>
</g>
</svg>
