<?xml version="1.0" encoding="UTF-8" standalone="no"?>
<!DOCTYPE svg PUBLIC "-//W3C//DTD SVG 1.1//EN"
 "http://www.w3.org/Graphics/SVG/1.1/DTD/svg11.dtd">
<!-- Generated by graphviz version 8.0.3 (0)
 -->
<!-- Pages: 1 -->
<svg width="1297pt" height="415pt"
 viewBox="0.00 0.00 1296.50 415.48" xmlns="http://www.w3.org/2000/svg" xmlns:xlink="http://www.w3.org/1999/xlink">
<g id="graph0" class="graph" transform="scale(1 1) rotate(0) translate(36 379.48)">
<polygon fill="dimgray" stroke="none" points="-36,36 -36,-379.48 1260.5,-379.48 1260.5,36 -36,36"/>
<text text-anchor="middle" x="612.25" y="-328.28" font-family="Helvetica,sans-Serif" font-size="14.00">Sweep&#39;s Plan &amp; Progress</text>
<!-- start -->
<g id="node1" class="node">
<title>start</title>
</g>
<!-- f1d39306&#45;2ac0&#45;4ce6&#45;a7d8&#45;be13c2923c79 -->
<g id="node3" class="node">
<title>f1d39306&#45;2ac0&#45;4ce6&#45;a7d8&#45;be13c2923c79</title>
<ellipse fill="#0ee832" stroke="black" cx="587" cy="-277.61" rx="159.61" ry="26.74"/>
<text text-anchor="middle" x="587" y="-281.41" font-family="Helvetica,sans-Serif" font-size="14.00">✓ Modify</text>
<text text-anchor="middle" x="587" y="-266.41" font-family="Helvetica,sans-Serif" font-size="14.00">sweepai/handlers/on_ticket.py</text>
</g>
<!-- start&#45;&gt;f1d39306&#45;2ac0&#45;4ce6&#45;a7d8&#45;be13c2923c79 -->
<g id="edge7" class="edge">
<title>start&#45;&gt;f1d39306&#45;2ac0&#45;4ce6&#45;a7d8&#45;be13c2923c79</title>
<path fill="none" stroke="black" d="M375.15,-277.61C376.89,-277.61 393.25,-277.61 416.17,-277.61"/>
<polygon fill="black" stroke="black" points="416.13,-281.11 426.13,-277.61 416.13,-274.11 416.13,-281.11"/>
<text text-anchor="middle" x="401.35" y="-284.41" font-family="Helvetica,sans-Serif" font-size="14.00">Start</text>
</g>
<!-- end -->
<g id="node2" class="node">
<title>end</title>
</g>
<!-- ef325dcc&#45;7aa4&#45;408a&#45;acb7&#45;d66ccf0e1bf2 -->
<g id="node4" class="node">
<title>ef325dcc&#45;7aa4&#45;408a&#45;acb7&#45;d66ccf0e1bf2</title>
<ellipse fill="white" stroke="black" cx="983" cy="-277.61" rx="183.28" ry="26.74"/>
<text text-anchor="middle" x="983" y="-281.41" font-family="Helvetica,sans-Serif" font-size="14.00">▶ Modify</text>
<text text-anchor="middle" x="983" y="-266.41" font-family="Helvetica,sans-Serif" font-size="14.00">sweepai/handlers/on_ticket_test.py</text>
</g>
<!-- f1d39306&#45;2ac0&#45;4ce6&#45;a7d8&#45;be13c2923c79&#45;&gt;ef325dcc&#45;7aa4&#45;408a&#45;acb7&#45;d66ccf0e1bf2 -->
<g id="edge5" class="edge">
<title>f1d39306&#45;2ac0&#45;4ce6&#45;a7d8&#45;be13c2923c79&#45;&gt;ef325dcc&#45;7aa4&#45;408a&#45;acb7&#45;d66ccf0e1bf2</title>
<path fill="none" stroke="black" d="M747.1,-277.61C761.05,-277.61 775.01,-277.61 788.96,-277.61"/>
<polygon fill="black" stroke="black" points="788.63,-281.11 798.63,-277.61 788.63,-274.11 788.63,-281.11"/>
</g>
<!-- b6f36ba7&#45;aaa9&#45;4208&#45;b98f&#45;afd2ee360b53 -->
<g id="node5" class="node">
<title>b6f36ba7&#45;aaa9&#45;4208&#45;b98f&#45;afd2ee360b53</title>
<polygon fill="#ee0000" stroke="black" points="380,-213.74 0,-213.74 0,-177.74 380,-177.74 380,-213.74"/>
<text text-anchor="middle" x="190" y="-192.04" font-family="Helvetica,sans-Serif" font-size="14.00">✗ Ran sandbox for `sweepai/handlers/on_ticket.py`.</text>
</g>
<!-- f1d39306&#45;2ac0&#45;4ce6&#45;a7d8&#45;be13c2923c79&#45;&gt;b6f36ba7&#45;aaa9&#45;4208&#45;b98f&#45;afd2ee360b53 -->
<g id="edge1" class="edge">
<title>f1d39306&#45;2ac0&#45;4ce6&#45;a7d8&#45;be13c2923c79&#45;&gt;b6f36ba7&#45;aaa9&#45;4208&#45;b98f&#45;afd2ee360b53</title>
<path fill="none" stroke="black" stroke-dasharray="5,2" d="M486.56,-256.4C425.56,-244.13 348.06,-228.54 287.58,-216.37"/>
<polygon fill="black" stroke="black" points="288.38,-212.76 277.88,-214.22 287,-219.62 288.38,-212.76"/>
</g>
<!-- ff697b46&#45;7216&#45;4d85&#45;9ba2&#45;c521378625af -->
<g id="node6" class="node">
<title>ff697b46&#45;7216&#45;4d85&#45;9ba2&#45;c521378625af</title>
<polygon fill="white" stroke="black" points="776,-213.74 398,-213.74 398,-177.74 776,-177.74 776,-213.74"/>
<text text-anchor="middle" x="587" y="-192.04" font-family="Helvetica,sans-Serif" font-size="14.00">▶ Ran sandbox for `sweepai/handlers/on_ticket.py`.</text>
</g>
<!-- f1d39306&#45;2ac0&#45;4ce6&#45;a7d8&#45;be13c2923c79&#45;&gt;ff697b46&#45;7216&#45;4d85&#45;9ba2&#45;c521378625af -->
<g id="edge4" class="edge">
<title>f1d39306&#45;2ac0&#45;4ce6&#45;a7d8&#45;be13c2923c79&#45;&gt;ff697b46&#45;7216&#45;4d85&#45;9ba2&#45;c521378625af</title>
<path fill="none" stroke="black" stroke-dasharray="5,2" d="M587,-250.46C587,-242.2 587,-233.05 587,-224.67"/>
<polygon fill="black" stroke="black" points="590.5,-224.89 587,-214.89 583.5,-224.89 590.5,-224.89"/>
</g>
<!-- ef325dcc&#45;7aa4&#45;408a&#45;acb7&#45;d66ccf0e1bf2&#45;&gt;end -->
<g id="edge8" class="edge">
<title>ef325dcc&#45;7aa4&#45;408a&#45;acb7&#45;d66ccf0e1bf2&#45;&gt;end</title>
<path fill="none" stroke="black" d="M1166.58,-277.61C1186.24,-277.61 1202.78,-277.61 1212.99,-277.61"/>
<polygon fill="black" stroke="black" points="1212.72,-281.11 1222.72,-277.61 1212.72,-274.11 1212.72,-281.11"/>
<text text-anchor="middle" x="1194.82" y="-284.41" font-family="Helvetica,sans-Serif" font-size="14.00">Finish</text>
</g>
<!-- db7e7da6&#45;4f11&#45;4ba8&#45;81a0&#45;38e37a986932 -->
<g id="node7" class="node">
<title>db7e7da6&#45;4f11&#45;4ba8&#45;81a0&#45;38e37a986932</title>
<polygon fill="white" stroke="black" points="1205.5,-213.74 794.5,-213.74 794.5,-177.74 1205.5,-177.74 1205.5,-213.74"/>
<text text-anchor="middle" x="1000" y="-192.04" font-family="Helvetica,sans-Serif" font-size="14.00">▶ Ran sandbox for `sweepai/handlers/on_ticket_test.py`.</text>
</g>
<!-- ef325dcc&#45;7aa4&#45;408a&#45;acb7&#45;d66ccf0e1bf2&#45;&gt;db7e7da6&#45;4f11&#45;4ba8&#45;81a0&#45;38e37a986932 -->
<g id="edge6" class="edge">
<title>ef325dcc&#45;7aa4&#45;408a&#45;acb7&#45;d66ccf0e1bf2&#45;&gt;db7e7da6&#45;4f11&#45;4ba8&#45;81a0&#45;38e37a986932</title>
<path fill="none" stroke="black" stroke-dasharray="5,2" d="M988.57,-250.46C990.34,-242.11 992.32,-232.84 994.12,-224.39"/>
<polygon fill="black" stroke="black" points="997.69,-225.4 996.35,-214.89 990.85,-223.94 997.69,-225.4"/>
</g>
<!-- 82324cfa&#45;c1db&#45;4bdf&#45;8688&#45;d135ef65661d -->
<g id="node8" class="node">
<title>82324cfa&#45;c1db&#45;4bdf&#45;8688&#45;d135ef65661d</title>
<ellipse fill="yellow" stroke="black" cx="190" cy="-99.87" rx="133.79" ry="26.74"/>
<text text-anchor="middle" x="190" y="-103.67" font-family="Helvetica,sans-Serif" font-size="14.00">⋯ Modify</text>
<text text-anchor="middle" x="190" y="-88.67" font-family="Helvetica,sans-Serif" font-size="14.00">sweepai/config/server.py</text>
</g>
<!-- b6f36ba7&#45;aaa9&#45;4208&#45;b98f&#45;afd2ee360b53&#45;&gt;82324cfa&#45;c1db&#45;4bdf&#45;8688&#45;d135ef65661d -->
<g id="edge2" class="edge">
<title>b6f36ba7&#45;aaa9&#45;4208&#45;b98f&#45;afd2ee360b53&#45;&gt;82324cfa&#45;c1db&#45;4bdf&#45;8688&#45;d135ef65661d</title>
<path fill="none" stroke="black" d="M190,-177.52C190,-166.33 190,-151.31 190,-137.53"/>
<polygon fill="black" stroke="black" points="193.5,-137.84 190,-127.84 186.5,-137.84 193.5,-137.84"/>
<text text-anchor="middle" x="287.5" y="-148.54" font-family="Helvetica,sans-Serif" font-size="14.00">Additional changes required</text>
</g>
<!-- e78b44ba&#45;1dda&#45;426b&#45;b4be&#45;9d29f89f1f30 -->
<g id="node9" class="node">
<title>e78b44ba&#45;1dda&#45;426b&#45;b4be&#45;9d29f89f1f30</title>
<polygon fill="white" stroke="black" points="360.5,-36 19.5,-36 19.5,0 360.5,0 360.5,-36"/>
<text text-anchor="middle" x="190" y="-14.3" font-family="Helvetica,sans-Serif" font-size="14.00">▶ Ran sandbox for `sweepai/config/server.py`.</text>
</g>
<!-- 82324cfa&#45;c1db&#45;4bdf&#45;8688&#45;d135ef65661d&#45;&gt;e78b44ba&#45;1dda&#45;426b&#45;b4be&#45;9d29f89f1f30 -->
<g id="edge3" class="edge">
<title>82324cfa&#45;c1db&#45;4bdf&#45;8688&#45;d135ef65661d&#45;&gt;e78b44ba&#45;1dda&#45;426b&#45;b4be&#45;9d29f89f1f30</title>
<path fill="none" stroke="black" stroke-dasharray="5,2" d="M190,-72.72C190,-64.46 190,-55.31 190,-46.93"/>
<polygon fill="black" stroke="black" points="193.5,-47.15 190,-37.15 186.5,-47.15 193.5,-47.15"/>
</g>
</g>
</svg>
