<?xml version="1.0" encoding="UTF-8" standalone="no"?>
<!DOCTYPE svg PUBLIC "-//W3C//DTD SVG 1.1//EN"
 "http://www.w3.org/Graphics/SVG/1.1/DTD/svg11.dtd">
<!-- Generated by graphviz version 8.0.3 (0)
 -->
<!-- Pages: 1 -->
<svg width="1483pt" height="238pt"
 viewBox="0.00 0.00 1482.50 237.74" xmlns="http://www.w3.org/2000/svg" xmlns:xlink="http://www.w3.org/1999/xlink">
<g id="graph0" class="graph" transform="scale(1 1) rotate(0) translate(36 201.74)">
<polygon fill="dimgray" stroke="none" points="-36,36 -36,-201.74 1446.5,-201.74 1446.5,36 -36,36"/>
<text text-anchor="middle" x="705.25" y="-150.54" font-family="Helvetica,sans-Serif" font-size="14.00">Sweep&#39;s Plan &amp; Progress</text>
<!-- start -->
<g id="node1" class="node">
<title>start</title>
</g>
<!-- 54f15747&#45;c30a&#45;434e&#45;a0de&#45;a56327b3875c -->
<g id="node3" class="node">
<title>54f15747&#45;c30a&#45;434e&#45;a0de&#45;a56327b3875c</title>
<ellipse fill="#0ee832" stroke="black" cx="262" cy="-99.87" rx="195.74" ry="26.74"/>
<text text-anchor="middle" x="262" y="-103.67" font-family="Helvetica,sans-Serif" font-size="14.00">✓ Create</text>
<text text-anchor="middle" x="262" y="-88.67" font-family="Helvetica,sans-Serif" font-size="14.00">sweepai/agents/query_filter_agent.py</text>
</g>
<!-- start&#45;&gt;54f15747&#45;c30a&#45;434e&#45;a0de&#45;a56327b3875c -->
<g id="edge6" class="edge">
<title>start&#45;&gt;54f15747&#45;c30a&#45;434e&#45;a0de&#45;a56327b3875c</title>
<path fill="none" stroke="black" d="M14.4,-99.87C17.06,-99.87 32.63,-99.87 54.79,-99.87"/>
<polygon fill="black" stroke="black" points="54.79,-103.37 64.79,-99.87 54.79,-96.37 54.79,-103.37"/>
<text text-anchor="middle" x="40.32" y="-106.67" font-family="Helvetica,sans-Serif" font-size="14.00">Start</text>
</g>
<!-- end -->
<g id="node2" class="node">
<title>end</title>
</g>
<!-- 7bc9c54a&#45;bdb4&#45;43f2&#45;9565&#45;84207bb2b3cb -->
<g id="node4" class="node">
<title>7bc9c54a&#45;bdb4&#45;43f2&#45;9565&#45;84207bb2b3cb</title>
<ellipse fill="#0ee832" stroke="black" cx="740" cy="-99.87" rx="219.41" ry="26.74"/>
<text text-anchor="middle" x="740" y="-103.67" font-family="Helvetica,sans-Serif" font-size="14.00">✓ Create</text>
<text text-anchor="middle" x="740" y="-88.67" font-family="Helvetica,sans-Serif" font-size="14.00">sweepai/agents/query_filter_agent_test.py</text>
</g>
<!-- 54f15747&#45;c30a&#45;434e&#45;a0de&#45;a56327b3875c&#45;&gt;7bc9c54a&#45;bdb4&#45;43f2&#45;9565&#45;84207bb2b3cb -->
<g id="edge2" class="edge">
<title>54f15747&#45;c30a&#45;434e&#45;a0de&#45;a56327b3875c&#45;&gt;7bc9c54a&#45;bdb4&#45;43f2&#45;9565&#45;84207bb2b3cb</title>
<path fill="none" stroke="black" d="M458.05,-99.87C475.23,-99.87 492.41,-99.87 509.59,-99.87"/>
<polygon fill="black" stroke="black" points="509.28,-103.37 519.28,-99.87 509.28,-96.37 509.28,-103.37"/>
</g>
<!-- acc59870&#45;5893&#45;431a&#45;aba0&#45;19522369c061 -->
<g id="node6" class="node">
<title>acc59870&#45;5893&#45;431a&#45;aba0&#45;19522369c061</title>
<polygon fill="#0ee832" stroke="black" points="470,-36 0,-36 0,0 470,0 470,-36"/>
<text text-anchor="middle" x="235" y="-14.3" font-family="Helvetica,sans-Serif" font-size="14.00">✓ Run GitHub Actions for `sweepai/agents/query_filter_agent.py`</text>
</g>
<!-- 54f15747&#45;c30a&#45;434e&#45;a0de&#45;a56327b3875c&#45;&gt;acc59870&#45;5893&#45;431a&#45;aba0&#45;19522369c061 -->
<g id="edge1" class="edge">
<title>54f15747&#45;c30a&#45;434e&#45;a0de&#45;a56327b3875c&#45;&gt;acc59870&#45;5893&#45;431a&#45;aba0&#45;19522369c061</title>
<path fill="none" stroke="black" stroke-dasharray="5,2" d="M253.16,-72.72C250.3,-64.27 247.13,-54.89 244.25,-46.36"/>
<polygon fill="black" stroke="black" points="247.31,-45.5 240.8,-37.15 240.68,-47.74 247.31,-45.5"/>
</g>
<!-- 6ea05dc6&#45;7274&#45;4c6d&#45;bb39&#45;c9580a47e072 -->
<g id="node5" class="node">
<title>6ea05dc6&#45;7274&#45;4c6d&#45;bb39&#45;c9580a47e072</title>
<ellipse fill="#0ee832" stroke="black" cx="1175" cy="-99.87" rx="145.83" ry="26.74"/>
<text text-anchor="middle" x="1175" y="-103.67" font-family="Helvetica,sans-Serif" font-size="14.00">✓ Modify</text>
<text text-anchor="middle" x="1175" y="-88.67" font-family="Helvetica,sans-Serif" font-size="14.00">sweepai/utils/ticket_utils.py</text>
</g>
<!-- 7bc9c54a&#45;bdb4&#45;43f2&#45;9565&#45;84207bb2b3cb&#45;&gt;6ea05dc6&#45;7274&#45;4c6d&#45;bb39&#45;c9580a47e072 -->
<g id="edge4" class="edge">
<title>7bc9c54a&#45;bdb4&#45;43f2&#45;9565&#45;84207bb2b3cb&#45;&gt;6ea05dc6&#45;7274&#45;4c6d&#45;bb39&#45;c9580a47e072</title>
<path fill="none" stroke="black" d="M959.62,-99.87C979.15,-99.87 998.67,-99.87 1018.19,-99.87"/>
<polygon fill="black" stroke="black" points="1018.03,-103.37 1028.03,-99.87 1018.03,-96.37 1018.03,-103.37"/>
</g>
<!-- ea397688&#45;aff9&#45;4098&#45;9f7c&#45;3b945d4af229 -->
<g id="node7" class="node">
<title>ea397688&#45;aff9&#45;4098&#45;9f7c&#45;3b945d4af229</title>
<polygon fill="#0ee832" stroke="black" points="991.5,-36 488.5,-36 488.5,0 991.5,0 991.5,-36"/>
<text text-anchor="middle" x="740" y="-14.3" font-family="Helvetica,sans-Serif" font-size="14.00">✓ Run GitHub Actions for `sweepai/agents/query_filter_agent_test.py`</text>
</g>
<!-- 7bc9c54a&#45;bdb4&#45;43f2&#45;9565&#45;84207bb2b3cb&#45;&gt;ea397688&#45;aff9&#45;4098&#45;9f7c&#45;3b945d4af229 -->
<g id="edge3" class="edge">
<title>7bc9c54a&#45;bdb4&#45;43f2&#45;9565&#45;84207bb2b3cb&#45;&gt;ea397688&#45;aff9&#45;4098&#45;9f7c&#45;3b945d4af229</title>
<path fill="none" stroke="black" stroke-dasharray="5,2" d="M740,-72.72C740,-64.46 740,-55.31 740,-46.93"/>
<polygon fill="black" stroke="black" points="743.5,-47.15 740,-37.15 736.5,-47.15 743.5,-47.15"/>
</g>
<!-- 6ea05dc6&#45;7274&#45;4c6d&#45;bb39&#45;c9580a47e072&#45;&gt;end -->
<g id="edge7" class="edge">
<title>6ea05dc6&#45;7274&#45;4c6d&#45;bb39&#45;c9580a47e072&#45;&gt;end</title>
<path fill="none" stroke="black" d="M1321.09,-99.87C1340.73,-99.87 1357.66,-99.87 1368.06,-99.87"/>
<polygon fill="black" stroke="black" points="1367.71,-103.37 1377.71,-99.87 1367.71,-96.37 1367.71,-103.37"/>
<text text-anchor="middle" x="1349.58" y="-106.67" font-family="Helvetica,sans-Serif" font-size="14.00">Finish</text>
</g>
<!-- ef9c912e&#45;96e2&#45;4380&#45;96f5&#45;45bf631368ef -->
<g id="node8" class="node">
<title>ef9c912e&#45;96e2&#45;4380&#45;96f5&#45;45bf631368ef</title>
<polygon fill="yellow" stroke="black" points="1410.5,-36 1009.5,-36 1009.5,0 1410.5,0 1410.5,-36"/>
<text text-anchor="middle" x="1210" y="-14.3" font-family="Helvetica,sans-Serif" font-size="14.00">⋯ Run GitHub Actions for `sweepai/utils/ticket_utils.py`</text>
</g>
<!-- 6ea05dc6&#45;7274&#45;4c6d&#45;bb39&#45;c9580a47e072&#45;&gt;ef9c912e&#45;96e2&#45;4380&#45;96f5&#45;45bf631368ef -->
<g id="edge5" class="edge">
<title>6ea05dc6&#45;7274&#45;4c6d&#45;bb39&#45;c9580a47e072&#45;&gt;ef9c912e&#45;96e2&#45;4380&#45;96f5&#45;45bf631368ef</title>
<path fill="none" stroke="black" stroke-dasharray="5,2" d="M1186.46,-72.72C1190.2,-64.18 1194.36,-54.68 1198.13,-46.08"/>
<polygon fill="black" stroke="black" points="1201.68,-47.71 1202.49,-37.15 1195.27,-44.9 1201.68,-47.71"/>
</g>
</g>
</svg>
