<?xml version="1.0" encoding="UTF-8" standalone="no"?>
<!DOCTYPE svg PUBLIC "-//W3C//DTD SVG 1.1//EN"
 "http://www.w3.org/Graphics/SVG/1.1/DTD/svg11.dtd">
<!-- Generated by graphviz version 2.43.0 (0)
 -->
<!-- Title: %3 Pages: 1 -->
<svg width="940pt" height="238pt"
 viewBox="0.00 0.00 940.00 237.74" xmlns="http://www.w3.org/2000/svg" xmlns:xlink="http://www.w3.org/1999/xlink">
<g id="graph0" class="graph" transform="scale(1 1) rotate(0) translate(36 201.74)">
<title>%3</title>
<polygon fill="dimgray" stroke="transparent" points="-36,36 -36,-201.74 904,-201.74 904,36 -36,36"/>
<text text-anchor="middle" x="434" y="-150.54" font-family="Helvetica,sans-Serif" font-size="14.00">Sweep&#39;s Plan &amp; Progress</text>
<!-- start -->
<g id="node1" class="node">
<title>start</title>
</g>
<!-- 5216d38c&#45;bd38&#45;45aa&#45;9e6c&#45;015e2af461d1 -->
<g id="node3" class="node">
<title>5216d38c&#45;bd38&#45;45aa&#45;9e6c&#45;015e2af461d1</title>
<ellipse fill="yellow" stroke="black" cx="265" cy="-99.87" rx="183.7" ry="26.74"/>
<text text-anchor="middle" x="265" y="-103.67" font-family="Helvetica,sans-Serif" font-size="14.00">⋯ Create</text>
<text text-anchor="middle" x="265" y="-88.67" font-family="Helvetica,sans-Serif" font-size="14.00">sweepai/agents/key_term_agent.py</text>
</g>
<!-- start&#45;&gt;5216d38c&#45;bd38&#45;45aa&#45;9e6c&#45;015e2af461d1 -->
<g id="edge4" class="edge">
<title>start&#45;&gt;5216d38c&#45;bd38&#45;45aa&#45;9e6c&#45;015e2af461d1</title>
<path fill="none" stroke="black" d="M29.68,-99.87C33.07,-99.87 48.92,-99.87 70.93,-99.87"/>
<polygon fill="black" stroke="black" points="71.08,-103.37 81.08,-99.87 71.08,-96.37 71.08,-103.37"/>
<text text-anchor="middle" x="55.33" y="-106.67" font-family="Helvetica,sans-Serif" font-size="14.00">Start</text>
</g>
<!-- end -->
<g id="node2" class="node">
<title>end</title>
</g>
<!-- c7741ccc&#45;b897&#45;452f&#45;be53&#45;ac1906762f9a -->
<g id="node4" class="node">
<title>c7741ccc&#45;b897&#45;452f&#45;be53&#45;ac1906762f9a</title>
<ellipse fill="white" stroke="black" cx="650" cy="-99.87" rx="145.83" ry="26.74"/>
<text text-anchor="middle" x="650" y="-103.67" font-family="Helvetica,sans-Serif" font-size="14.00">▶ Modify</text>
<text text-anchor="middle" x="650" y="-88.67" font-family="Helvetica,sans-Serif" font-size="14.00">sweepai/utils/ticket_utils.py</text>
</g>
<!-- 5216d38c&#45;bd38&#45;45aa&#45;9e6c&#45;015e2af461d1&#45;&gt;c7741ccc&#45;b897&#45;452f&#45;be53&#45;ac1906762f9a -->
<g id="edge2" class="edge">
<title>5216d38c&#45;bd38&#45;45aa&#45;9e6c&#45;015e2af461d1&#45;&gt;c7741ccc&#45;b897&#45;452f&#45;be53&#45;ac1906762f9a</title>
<path fill="none" stroke="black" d="M448.85,-99.87C463.86,-99.87 478.86,-99.87 493.86,-99.87"/>
<polygon fill="black" stroke="black" points="494.25,-103.37 504.25,-99.87 494.25,-96.37 494.25,-103.37"/>
</g>
<!-- 6aa76c96&#45;24ac&#45;4492&#45;bc0b&#45;9a7a6d0d39db -->
<g id="node5" class="node">
<title>6aa76c96&#45;24ac&#45;4492&#45;bc0b&#45;9a7a6d0d39db</title>
<polygon fill="white" stroke="black" points="452,-36 0,-36 0,0 452,0 452,-36"/>
<text text-anchor="middle" x="226" y="-14.3" font-family="Helvetica,sans-Serif" font-size="14.00">▶ Run GitHub Actions for `sweepai/agents/key_term_agent.py`</text>
</g>
<!-- 5216d38c&#45;bd38&#45;45aa&#45;9e6c&#45;015e2af461d1&#45;&gt;6aa76c96&#45;24ac&#45;4492&#45;bc0b&#45;9a7a6d0d39db -->
<g id="edge1" class="edge">
<title>5216d38c&#45;bd38&#45;45aa&#45;9e6c&#45;015e2af461d1&#45;&gt;6aa76c96&#45;24ac&#45;4492&#45;bc0b&#45;9a7a6d0d39db</title>
<path fill="none" stroke="black" stroke-dasharray="5,2" d="M252.23,-72.72C247.92,-63.9 243.12,-54.05 238.81,-45.23"/>
<polygon fill="black" stroke="black" points="241.91,-43.6 234.37,-36.15 235.62,-46.67 241.91,-43.6"/>
</g>
<!-- c7741ccc&#45;b897&#45;452f&#45;be53&#45;ac1906762f9a&#45;&gt;end -->
<g id="edge5" class="edge">
<title>c7741ccc&#45;b897&#45;452f&#45;be53&#45;ac1906762f9a&#45;&gt;end</title>
<path fill="none" stroke="black" d="M795.81,-99.87C815.57,-99.87 832.62,-99.87 843.07,-99.87"/>
<polygon fill="black" stroke="black" points="843.35,-103.37 853.35,-99.87 843.35,-96.37 843.35,-103.37"/>
<text text-anchor="middle" x="824.58" y="-106.67" font-family="Helvetica,sans-Serif" font-size="14.00">Finish</text>
</g>
<!-- 70e7e257&#45;ebf5&#45;48b6&#45;ac71&#45;dc6bf3a457ec -->
<g id="node6" class="node">
<title>70e7e257&#45;ebf5&#45;48b6&#45;ac71&#45;dc6bf3a457ec</title>
<polygon fill="white" stroke="black" points="868,-36 470,-36 470,0 868,0 868,-36"/>
<text text-anchor="middle" x="669" y="-14.3" font-family="Helvetica,sans-Serif" font-size="14.00">▶ Run GitHub Actions for `sweepai/utils/ticket_utils.py`</text>
</g>
<!-- c7741ccc&#45;b897&#45;452f&#45;be53&#45;ac1906762f9a&#45;&gt;70e7e257&#45;ebf5&#45;48b6&#45;ac71&#45;dc6bf3a457ec -->
<g id="edge3" class="edge">
<title>c7741ccc&#45;b897&#45;452f&#45;be53&#45;ac1906762f9a&#45;&gt;70e7e257&#45;ebf5&#45;48b6&#45;ac71&#45;dc6bf3a457ec</title>
<path fill="none" stroke="black" stroke-dasharray="5,2" d="M656.22,-72.72C658.25,-64.18 660.51,-54.68 662.56,-46.08"/>
<polygon fill="black" stroke="black" points="666.01,-46.68 664.92,-36.15 659.2,-45.06 666.01,-46.68"/>
</g>
</g>
</svg>
