<?xml version="1.0" encoding="UTF-8" standalone="no"?>
<!DOCTYPE svg PUBLIC "-//W3C//DTD SVG 1.1//EN"
 "http://www.w3.org/Graphics/SVG/1.1/DTD/svg11.dtd">
<!-- Generated by graphviz version 2.43.0 (0)
 -->
<!-- Title: %3 Pages: 1 -->
<svg width="1386pt" height="238pt"
 viewBox="0.00 0.00 1385.50 237.74" xmlns="http://www.w3.org/2000/svg" xmlns:xlink="http://www.w3.org/1999/xlink">
<g id="graph0" class="graph" transform="scale(1 1) rotate(0) translate(36 201.74)">
<title>%3</title>
<polygon fill="dimgray" stroke="transparent" points="-36,36 -36,-201.74 1349.5,-201.74 1349.5,36 -36,36"/>
<text text-anchor="middle" x="656.75" y="-150.54" font-family="Helvetica,sans-Serif" font-size="14.00">Sweep&#39;s Plan &amp; Progress</text>
<!-- start -->
<g id="node1" class="node">
<title>start</title>
</g>
<!-- 791ec525&#45;3a34&#45;4423&#45;bf49&#45;e6e73e5c98c2 -->
<g id="node3" class="node">
<title>791ec525&#45;3a34&#45;4423&#45;bf49&#45;e6e73e5c98c2</title>
<ellipse fill="#0ee832" stroke="black" cx="249.5" cy="-99.87" rx="162.77" ry="26.74"/>
<text text-anchor="middle" x="249.5" y="-103.67" font-family="Helvetica,sans-Serif" font-size="14.00">✓ Create</text>
<text text-anchor="middle" x="249.5" y="-88.67" font-family="Helvetica,sans-Serif" font-size="14.00">sweepai/agents/filter_agent.py</text>
</g>
<!-- start&#45;&gt;791ec525&#45;3a34&#45;4423&#45;bf49&#45;e6e73e5c98c2 -->
<g id="edge6" class="edge">
<title>start&#45;&gt;791ec525&#45;3a34&#45;4423&#45;bf49&#45;e6e73e5c98c2</title>
<path fill="none" stroke="black" d="M35.12,-99.87C38.4,-99.87 54.5,-99.87 76.52,-99.87"/>
<polygon fill="black" stroke="black" points="76.67,-103.37 86.67,-99.87 76.67,-96.37 76.67,-103.37"/>
<text text-anchor="middle" x="60.93" y="-106.67" font-family="Helvetica,sans-Serif" font-size="14.00">Start</text>
</g>
<!-- end -->
<g id="node2" class="node">
<title>end</title>
</g>
<!-- 8f57cb5c&#45;a3ce&#45;4954&#45;89e9&#45;b7a6b35fdd53 -->
<g id="node4" class="node">
<title>8f57cb5c&#45;a3ce&#45;4954&#45;89e9&#45;b7a6b35fdd53</title>
<ellipse fill="white" stroke="black" cx="670.5" cy="-99.87" rx="185.94" ry="26.74"/>
<text text-anchor="middle" x="670.5" y="-103.67" font-family="Helvetica,sans-Serif" font-size="14.00">▶ Create</text>
<text text-anchor="middle" x="670.5" y="-88.67" font-family="Helvetica,sans-Serif" font-size="14.00">sweepai/agents/filter_agent_test.py</text>
</g>
<!-- 791ec525&#45;3a34&#45;4423&#45;bf49&#45;e6e73e5c98c2&#45;&gt;8f57cb5c&#45;a3ce&#45;4954&#45;89e9&#45;b7a6b35fdd53 -->
<g id="edge2" class="edge">
<title>791ec525&#45;3a34&#45;4423&#45;bf49&#45;e6e73e5c98c2&#45;&gt;8f57cb5c&#45;a3ce&#45;4954&#45;89e9&#45;b7a6b35fdd53</title>
<path fill="none" stroke="black" d="M412.31,-99.87C432.97,-99.87 453.62,-99.87 474.28,-99.87"/>
<polygon fill="black" stroke="black" points="474.42,-103.37 484.42,-99.87 474.42,-96.37 474.42,-103.37"/>
</g>
<!-- 62907de3&#45;7056&#45;49c4&#45;b779&#45;b195bab83177 -->
<g id="node6" class="node">
<title>62907de3&#45;7056&#45;49c4&#45;b779&#45;b195bab83177</title>
<polygon fill="yellow" stroke="black" points="425,-36 0,-36 0,0 425,0 425,-36"/>
<text text-anchor="middle" x="212.5" y="-14.3" font-family="Helvetica,sans-Serif" font-size="14.00">⋯ Run GitHub Actions for `sweepai/agents/filter_agent.py`</text>
</g>
<!-- 791ec525&#45;3a34&#45;4423&#45;bf49&#45;e6e73e5c98c2&#45;&gt;62907de3&#45;7056&#45;49c4&#45;b779&#45;b195bab83177 -->
<g id="edge1" class="edge">
<title>791ec525&#45;3a34&#45;4423&#45;bf49&#45;e6e73e5c98c2&#45;&gt;62907de3&#45;7056&#45;49c4&#45;b779&#45;b195bab83177</title>
<path fill="none" stroke="black" stroke-dasharray="5,2" d="M237.38,-72.72C233.3,-63.9 228.74,-54.05 224.65,-45.23"/>
<polygon fill="black" stroke="black" points="227.82,-43.75 220.44,-36.15 221.47,-46.69 227.82,-43.75"/>
</g>
<!-- ffc3a9ac&#45;f4ef&#45;43b5&#45;9596&#45;ccf6c93eb51f -->
<g id="node5" class="node">
<title>ffc3a9ac&#45;f4ef&#45;43b5&#45;9596&#45;ccf6c93eb51f</title>
<ellipse fill="white" stroke="black" cx="1076.5" cy="-99.87" rx="145.83" ry="26.74"/>
<text text-anchor="middle" x="1076.5" y="-103.67" font-family="Helvetica,sans-Serif" font-size="14.00">▶ Modify</text>
<text text-anchor="middle" x="1076.5" y="-88.67" font-family="Helvetica,sans-Serif" font-size="14.00">sweepai/utils/ticket_utils.py</text>
</g>
<!-- 8f57cb5c&#45;a3ce&#45;4954&#45;89e9&#45;b7a6b35fdd53&#45;&gt;ffc3a9ac&#45;f4ef&#45;43b5&#45;9596&#45;ccf6c93eb51f -->
<g id="edge4" class="edge">
<title>8f57cb5c&#45;a3ce&#45;4954&#45;89e9&#45;b7a6b35fdd53&#45;&gt;ffc3a9ac&#45;f4ef&#45;43b5&#45;9596&#45;ccf6c93eb51f</title>
<path fill="none" stroke="black" d="M856.85,-99.87C878.08,-99.87 899.32,-99.87 920.55,-99.87"/>
<polygon fill="black" stroke="black" points="920.64,-103.37 930.64,-99.87 920.64,-96.37 920.64,-103.37"/>
</g>
<!-- 506b2bc0&#45;e8af&#45;4727&#45;850b&#45;857bd859b8a5 -->
<g id="node7" class="node">
<title>506b2bc0&#45;e8af&#45;4727&#45;850b&#45;857bd859b8a5</title>
<polygon fill="white" stroke="black" points="897.5,-36 443.5,-36 443.5,0 897.5,0 897.5,-36"/>
<text text-anchor="middle" x="670.5" y="-14.3" font-family="Helvetica,sans-Serif" font-size="14.00">▶ Run GitHub Actions for `sweepai/agents/filter_agent_test.py`</text>
</g>
<!-- 8f57cb5c&#45;a3ce&#45;4954&#45;89e9&#45;b7a6b35fdd53&#45;&gt;506b2bc0&#45;e8af&#45;4727&#45;850b&#45;857bd859b8a5 -->
<g id="edge3" class="edge">
<title>8f57cb5c&#45;a3ce&#45;4954&#45;89e9&#45;b7a6b35fdd53&#45;&gt;506b2bc0&#45;e8af&#45;4727&#45;850b&#45;857bd859b8a5</title>
<path fill="none" stroke="black" stroke-dasharray="5,2" d="M670.5,-72.72C670.5,-64.27 670.5,-54.89 670.5,-46.36"/>
<polygon fill="black" stroke="black" points="674,-46.15 670.5,-36.15 667,-46.15 674,-46.15"/>
</g>
<!-- ffc3a9ac&#45;f4ef&#45;43b5&#45;9596&#45;ccf6c93eb51f&#45;&gt;end -->
<g id="edge7" class="edge">
<title>ffc3a9ac&#45;f4ef&#45;43b5&#45;9596&#45;ccf6c93eb51f&#45;&gt;end</title>
<path fill="none" stroke="black" d="M1222.31,-99.87C1242.07,-99.87 1259.12,-99.87 1269.57,-99.87"/>
<polygon fill="black" stroke="black" points="1269.85,-103.37 1279.85,-99.87 1269.85,-96.37 1269.85,-103.37"/>
<text text-anchor="middle" x="1251.08" y="-106.67" font-family="Helvetica,sans-Serif" font-size="14.00">Finish</text>
</g>
<!-- 5e032a37&#45;36f2&#45;4655&#45;857a&#45;4de243bc3685 -->
<g id="node8" class="node">
<title>5e032a37&#45;36f2&#45;4655&#45;857a&#45;4de243bc3685</title>
<polygon fill="white" stroke="black" points="1313.5,-36 915.5,-36 915.5,0 1313.5,0 1313.5,-36"/>
<text text-anchor="middle" x="1114.5" y="-14.3" font-family="Helvetica,sans-Serif" font-size="14.00">▶ Run GitHub Actions for `sweepai/utils/ticket_utils.py`</text>
</g>
<!-- ffc3a9ac&#45;f4ef&#45;43b5&#45;9596&#45;ccf6c93eb51f&#45;&gt;5e032a37&#45;36f2&#45;4655&#45;857a&#45;4de243bc3685 -->
<g id="edge5" class="edge">
<title>ffc3a9ac&#45;f4ef&#45;43b5&#45;9596&#45;ccf6c93eb51f&#45;&gt;5e032a37&#45;36f2&#45;4655&#45;857a&#45;4de243bc3685</title>
<path fill="none" stroke="black" stroke-dasharray="5,2" d="M1088.94,-72.72C1093.14,-63.9 1097.82,-54.05 1102.02,-45.23"/>
<polygon fill="black" stroke="black" points="1105.21,-46.68 1106.34,-36.15 1098.89,-43.67 1105.21,-46.68"/>
</g>
</g>
</svg>
