<?xml version="1.0" encoding="UTF-8" standalone="no"?>
<!DOCTYPE svg PUBLIC "-//W3C//DTD SVG 1.1//EN"
 "http://www.w3.org/Graphics/SVG/1.1/DTD/svg11.dtd">
<!-- Generated by graphviz version 2.43.0 (0)
 -->
<!-- Title: %3 Pages: 1 -->
<svg width="3570pt" height="240pt"
 viewBox="0.00 0.00 3570.00 239.74" xmlns="http://www.w3.org/2000/svg" xmlns:xlink="http://www.w3.org/1999/xlink">
<g id="graph0" class="graph" transform="scale(1 1) rotate(0) translate(36 203.74)">
<title>%3</title>
<polygon fill="white" stroke="transparent" points="-36,36 -36,-203.74 3534,-203.74 3534,36 -36,36"/>
<text text-anchor="middle" x="1749" y="-152.54" font-family="Times,serif" font-size="14.00">Sweep&#39;s Plan &amp; Progress</text>
<!-- start -->
<g id="node1" class="node">
<title>start</title>
</g>
<!-- 44268e5e&#45;b7ba&#45;4f49&#45;8562&#45;ca0da50cd37d -->
<g id="node3" class="node">
<title>44268e5e&#45;b7ba&#45;4f49&#45;8562&#45;ca0da50cd37d</title>
<ellipse fill="red" stroke="black" cx="1748.5" cy="-101.87" rx="194.41" ry="26.74"/>
<text text-anchor="middle" x="1748.5" y="-105.67" font-family="Times,serif" font-size="14.00">✗ Modify</text>
<text text-anchor="middle" x="1748.5" y="-90.67" font-family="Times,serif" font-size="14.00">sweepai/utils/comment_utils_test.py</text>
</g>
<!-- start&#45;&gt;44268e5e&#45;b7ba&#45;4f49&#45;8562&#45;ca0da50cd37d -->
<g id="edge13" class="edge">
<title>start&#45;&gt;44268e5e&#45;b7ba&#45;4f49&#45;8562&#45;ca0da50cd37d</title>
<path fill="none" stroke="black" d="M1500.21,-101.87C1503.78,-101.87 1520.44,-101.87 1543.57,-101.87"/>
<polygon fill="black" stroke="black" points="1543.86,-105.37 1553.86,-101.87 1543.86,-98.37 1543.86,-105.37"/>
<text text-anchor="middle" x="1527.02" y="-108.67" font-family="Times,serif" font-size="14.00">Start</text>
</g>
<!-- end -->
<g id="node2" class="node">
<title>end</title>
</g>
<!-- 44268e5e&#45;b7ba&#45;4f49&#45;8562&#45;ca0da50cd37d&#45;&gt;end -->
<g id="edge14" class="edge">
<title>44268e5e&#45;b7ba&#45;4f49&#45;8562&#45;ca0da50cd37d&#45;&gt;end</title>
<path fill="none" stroke="black" d="M1942.96,-101.87C1965.14,-101.87 1983.73,-101.87 1994.73,-101.87"/>
<polygon fill="black" stroke="black" points="1994.81,-105.37 2004.81,-101.87 1994.81,-98.37 1994.81,-105.37"/>
<text text-anchor="middle" x="1973.98" y="-108.67" font-family="Times,serif" font-size="14.00">Finish</text>
</g>
<!-- 101e5dff&#45;c661&#45;40d9&#45;bb9b&#45;4fb7b0b5ea43 -->
<g id="node4" class="node">
<title>101e5dff&#45;c661&#45;40d9&#45;bb9b&#45;4fb7b0b5ea43</title>
<polygon fill="red" stroke="black" points="275,-38 0,-38 0,0 275,0 275,-38"/>
<text text-anchor="middle" x="137.5" y="-22.8" font-family="Times,serif" font-size="14.00">✗ Check</text>
<text text-anchor="middle" x="137.5" y="-7.8" font-family="Times,serif" font-size="14.00">sweepai/utils/comment_utils_test.py</text>
</g>
<!-- 44268e5e&#45;b7ba&#45;4f49&#45;8562&#45;ca0da50cd37d&#45;&gt;101e5dff&#45;c661&#45;40d9&#45;bb9b&#45;4fb7b0b5ea43 -->
<g id="edge1" class="edge">
<title>44268e5e&#45;b7ba&#45;4f49&#45;8562&#45;ca0da50cd37d&#45;&gt;101e5dff&#45;c661&#45;40d9&#45;bb9b&#45;4fb7b0b5ea43</title>
<path fill="none" stroke="black" stroke-dasharray="5,2" d="M1605.57,-83.63C1573.66,-80.3 1539.96,-77.17 1508.5,-75 968.41,-37.79 828.31,-79.08 285.07,-38.08"/>
<polygon fill="black" stroke="black" points="285.25,-34.58 275.02,-37.31 284.72,-41.56 285.25,-34.58"/>
</g>
<!-- b5517287&#45;62a7&#45;42a3&#45;9220&#45;ff2054d58972 -->
<g id="node5" class="node">
<title>b5517287&#45;62a7&#45;42a3&#45;9220&#45;ff2054d58972</title>
<polygon fill="red" stroke="black" points="568,-38 293,-38 293,0 568,0 568,-38"/>
<text text-anchor="middle" x="430.5" y="-22.8" font-family="Times,serif" font-size="14.00">✗ Check</text>
<text text-anchor="middle" x="430.5" y="-7.8" font-family="Times,serif" font-size="14.00">sweepai/utils/comment_utils_test.py</text>
</g>
<!-- 44268e5e&#45;b7ba&#45;4f49&#45;8562&#45;ca0da50cd37d&#45;&gt;b5517287&#45;62a7&#45;42a3&#45;9220&#45;ff2054d58972 -->
<g id="edge2" class="edge">
<title>44268e5e&#45;b7ba&#45;4f49&#45;8562&#45;ca0da50cd37d&#45;&gt;b5517287&#45;62a7&#45;42a3&#45;9220&#45;ff2054d58972</title>
<path fill="none" stroke="black" stroke-dasharray="5,2" d="M1604.6,-83.76C1572.98,-80.44 1539.64,-77.29 1508.5,-75 1098.4,-44.79 991.4,-71.18 578.15,-38.1"/>
<polygon fill="black" stroke="black" points="578.27,-34.59 568.02,-37.28 577.71,-41.57 578.27,-34.59"/>
</g>
<!-- a8092f3d&#45;2e9e&#45;4a9b&#45;9a72&#45;9449cf8d0a78 -->
<g id="node6" class="node">
<title>a8092f3d&#45;2e9e&#45;4a9b&#45;9a72&#45;9449cf8d0a78</title>
<polygon fill="red" stroke="black" points="861,-38 586,-38 586,0 861,0 861,-38"/>
<text text-anchor="middle" x="723.5" y="-22.8" font-family="Times,serif" font-size="14.00">✗ Check</text>
<text text-anchor="middle" x="723.5" y="-7.8" font-family="Times,serif" font-size="14.00">sweepai/utils/comment_utils_test.py</text>
</g>
<!-- 44268e5e&#45;b7ba&#45;4f49&#45;8562&#45;ca0da50cd37d&#45;&gt;a8092f3d&#45;2e9e&#45;4a9b&#45;9a72&#45;9449cf8d0a78 -->
<g id="edge3" class="edge">
<title>44268e5e&#45;b7ba&#45;4f49&#45;8562&#45;ca0da50cd37d&#45;&gt;a8092f3d&#45;2e9e&#45;4a9b&#45;9a72&#45;9449cf8d0a78</title>
<path fill="none" stroke="black" stroke-dasharray="5,2" d="M1602.97,-84.01C1571.83,-80.73 1539.09,-77.53 1508.5,-75 1228.32,-51.8 1154.54,-63.36 871.2,-38.12"/>
<polygon fill="black" stroke="black" points="871.3,-34.62 861.03,-37.21 870.67,-41.59 871.3,-34.62"/>
</g>
<!-- 62091956&#45;87a2&#45;4a14&#45;822d&#45;0a831c5a93fc -->
<g id="node7" class="node">
<title>62091956&#45;87a2&#45;4a14&#45;822d&#45;0a831c5a93fc</title>
<polygon fill="red" stroke="black" points="1154,-38 879,-38 879,0 1154,0 1154,-38"/>
<text text-anchor="middle" x="1016.5" y="-22.8" font-family="Times,serif" font-size="14.00">✗ Check</text>
<text text-anchor="middle" x="1016.5" y="-7.8" font-family="Times,serif" font-size="14.00">sweepai/utils/comment_utils_test.py</text>
</g>
<!-- 44268e5e&#45;b7ba&#45;4f49&#45;8562&#45;ca0da50cd37d&#45;&gt;62091956&#45;87a2&#45;4a14&#45;822d&#45;0a831c5a93fc -->
<g id="edge4" class="edge">
<title>44268e5e&#45;b7ba&#45;4f49&#45;8562&#45;ca0da50cd37d&#45;&gt;62091956&#45;87a2&#45;4a14&#45;822d&#45;0a831c5a93fc</title>
<path fill="none" stroke="black" stroke-dasharray="5,2" d="M1598.71,-84.7C1568.83,-81.48 1537.67,-78.13 1508.5,-75 1358.03,-58.85 1317.85,-55.81 1164.32,-38.2"/>
<polygon fill="black" stroke="black" points="1164.38,-34.69 1154.05,-37.02 1163.58,-41.64 1164.38,-34.69"/>
</g>
<!-- 3b187acc&#45;eeae&#45;4eef&#45;bb27&#45;d85d776b2f7b -->
<g id="node8" class="node">
<title>3b187acc&#45;eeae&#45;4eef&#45;bb27&#45;d85d776b2f7b</title>
<polygon fill="red" stroke="black" points="1447,-38 1172,-38 1172,0 1447,0 1447,-38"/>
<text text-anchor="middle" x="1309.5" y="-22.8" font-family="Times,serif" font-size="14.00">✗ Check</text>
<text text-anchor="middle" x="1309.5" y="-7.8" font-family="Times,serif" font-size="14.00">sweepai/utils/comment_utils_test.py</text>
</g>
<!-- 44268e5e&#45;b7ba&#45;4f49&#45;8562&#45;ca0da50cd37d&#45;&gt;3b187acc&#45;eeae&#45;4eef&#45;bb27&#45;d85d776b2f7b -->
<g id="edge5" class="edge">
<title>44268e5e&#45;b7ba&#45;4f49&#45;8562&#45;ca0da50cd37d&#45;&gt;3b187acc&#45;eeae&#45;4eef&#45;bb27&#45;d85d776b2f7b</title>
<path fill="none" stroke="black" stroke-dasharray="5,2" d="M1635.16,-79.99C1568.1,-67.64 1483.64,-52.08 1417.53,-39.9"/>
<polygon fill="black" stroke="black" points="1417.97,-36.42 1407.5,-38.05 1416.7,-43.31 1417.97,-36.42"/>
</g>
<!-- dd7511dd&#45;febf&#45;4559&#45;8b59&#45;1b204579691a -->
<g id="node9" class="node">
<title>dd7511dd&#45;febf&#45;4559&#45;8b59&#45;1b204579691a</title>
<polygon fill="red" stroke="black" points="1740,-38 1465,-38 1465,0 1740,0 1740,-38"/>
<text text-anchor="middle" x="1602.5" y="-22.8" font-family="Times,serif" font-size="14.00">✗ Check</text>
<text text-anchor="middle" x="1602.5" y="-7.8" font-family="Times,serif" font-size="14.00">sweepai/utils/comment_utils_test.py</text>
</g>
<!-- 44268e5e&#45;b7ba&#45;4f49&#45;8562&#45;ca0da50cd37d&#45;&gt;dd7511dd&#45;febf&#45;4559&#45;8b59&#45;1b204579691a -->
<g id="edge6" class="edge">
<title>44268e5e&#45;b7ba&#45;4f49&#45;8562&#45;ca0da50cd37d&#45;&gt;dd7511dd&#45;febf&#45;4559&#45;8b59&#45;1b204579691a</title>
<path fill="none" stroke="black" stroke-dasharray="5,2" d="M1703.11,-75.73C1684.26,-65.29 1662.53,-53.25 1644.1,-43.04"/>
<polygon fill="black" stroke="black" points="1645.79,-39.98 1635.35,-38.19 1642.4,-46.1 1645.79,-39.98"/>
</g>
<!-- 842fee69&#45;0e81&#45;4eaa&#45;af03&#45;a30ddb57702f -->
<g id="node10" class="node">
<title>842fee69&#45;0e81&#45;4eaa&#45;af03&#45;a30ddb57702f</title>
<polygon fill="red" stroke="black" points="2033,-38 1758,-38 1758,0 2033,0 2033,-38"/>
<text text-anchor="middle" x="1895.5" y="-22.8" font-family="Times,serif" font-size="14.00">✗ Check</text>
<text text-anchor="middle" x="1895.5" y="-7.8" font-family="Times,serif" font-size="14.00">sweepai/utils/comment_utils_test.py</text>
</g>
<!-- 44268e5e&#45;b7ba&#45;4f49&#45;8562&#45;ca0da50cd37d&#45;&gt;842fee69&#45;0e81&#45;4eaa&#45;af03&#45;a30ddb57702f -->
<g id="edge7" class="edge">
<title>44268e5e&#45;b7ba&#45;4f49&#45;8562&#45;ca0da50cd37d&#45;&gt;842fee69&#45;0e81&#45;4eaa&#45;af03&#45;a30ddb57702f</title>
<path fill="none" stroke="black" stroke-dasharray="5,2" d="M1794.21,-75.73C1813.18,-65.29 1835.06,-53.25 1853.61,-43.04"/>
<polygon fill="black" stroke="black" points="1855.35,-46.08 1862.43,-38.19 1851.98,-39.95 1855.35,-46.08"/>
</g>
<!-- 1894c55b&#45;a5fb&#45;4fd9&#45;bee3&#45;a6d763091273 -->
<g id="node11" class="node">
<title>1894c55b&#45;a5fb&#45;4fd9&#45;bee3&#45;a6d763091273</title>
<polygon fill="red" stroke="black" points="2326,-38 2051,-38 2051,0 2326,0 2326,-38"/>
<text text-anchor="middle" x="2188.5" y="-22.8" font-family="Times,serif" font-size="14.00">✗ Check</text>
<text text-anchor="middle" x="2188.5" y="-7.8" font-family="Times,serif" font-size="14.00">sweepai/utils/comment_utils_test.py</text>
</g>
<!-- 44268e5e&#45;b7ba&#45;4f49&#45;8562&#45;ca0da50cd37d&#45;&gt;1894c55b&#45;a5fb&#45;4fd9&#45;bee3&#45;a6d763091273 -->
<g id="edge8" class="edge">
<title>44268e5e&#45;b7ba&#45;4f49&#45;8562&#45;ca0da50cd37d&#45;&gt;1894c55b&#45;a5fb&#45;4fd9&#45;bee3&#45;a6d763091273</title>
<path fill="none" stroke="black" stroke-dasharray="5,2" d="M1862.1,-79.99C1929.31,-67.64 2013.97,-52.08 2080.22,-39.9"/>
<polygon fill="black" stroke="black" points="2081.07,-43.3 2090.28,-38.05 2079.81,-36.42 2081.07,-43.3"/>
</g>
<!-- 8e3612d0&#45;9e1a&#45;40d7&#45;9cfe&#45;f5b0809907d3 -->
<g id="node12" class="node">
<title>8e3612d0&#45;9e1a&#45;40d7&#45;9cfe&#45;f5b0809907d3</title>
<polygon fill="red" stroke="black" points="2619,-38 2344,-38 2344,0 2619,0 2619,-38"/>
<text text-anchor="middle" x="2481.5" y="-22.8" font-family="Times,serif" font-size="14.00">✗ Check</text>
<text text-anchor="middle" x="2481.5" y="-7.8" font-family="Times,serif" font-size="14.00">sweepai/utils/comment_utils_test.py</text>
</g>
<!-- 44268e5e&#45;b7ba&#45;4f49&#45;8562&#45;ca0da50cd37d&#45;&gt;8e3612d0&#45;9e1a&#45;40d7&#45;9cfe&#45;f5b0809907d3 -->
<g id="edge9" class="edge">
<title>44268e5e&#45;b7ba&#45;4f49&#45;8562&#45;ca0da50cd37d&#45;&gt;8e3612d0&#45;9e1a&#45;40d7&#45;9cfe&#45;f5b0809907d3</title>
<path fill="none" stroke="black" stroke-dasharray="5,2" d="M1899.61,-84.92C2039.51,-70.1 2238.59,-48.89 2333.81,-38.07"/>
<polygon fill="black" stroke="black" points="2334.25,-41.54 2343.79,-36.93 2333.46,-34.58 2334.25,-41.54"/>
</g>
<!-- 4c75c1c6&#45;6e36&#45;4b0c&#45;b7e1&#45;4e28285188fd -->
<g id="node13" class="node">
<title>4c75c1c6&#45;6e36&#45;4b0c&#45;b7e1&#45;4e28285188fd</title>
<polygon fill="red" stroke="black" points="2912,-38 2637,-38 2637,0 2912,0 2912,-38"/>
<text text-anchor="middle" x="2774.5" y="-22.8" font-family="Times,serif" font-size="14.00">✗ Check</text>
<text text-anchor="middle" x="2774.5" y="-7.8" font-family="Times,serif" font-size="14.00">sweepai/utils/comment_utils_test.py</text>
</g>
<!-- 44268e5e&#45;b7ba&#45;4f49&#45;8562&#45;ca0da50cd37d&#45;&gt;4c75c1c6&#45;6e36&#45;4b0c&#45;b7e1&#45;4e28285188fd -->
<g id="edge10" class="edge">
<title>44268e5e&#45;b7ba&#45;4f49&#45;8562&#45;ca0da50cd37d&#45;&gt;4c75c1c6&#45;6e36&#45;4b0c&#45;b7e1&#45;4e28285188fd</title>
<path fill="none" stroke="black" stroke-dasharray="5,2" d="M1895.99,-84.3C1928.72,-80.94 1963.27,-77.63 1995.5,-75 2272.65,-52.39 2345.57,-63.08 2626.72,-38.03"/>
<polygon fill="black" stroke="black" points="2627.17,-41.51 2636.81,-37.13 2626.54,-34.54 2627.17,-41.51"/>
</g>
<!-- 629c5040&#45;a64b&#45;42d6&#45;bce1&#45;ba1513e3a51d -->
<g id="node14" class="node">
<title>629c5040&#45;a64b&#45;42d6&#45;bce1&#45;ba1513e3a51d</title>
<polygon fill="red" stroke="black" points="3205,-38 2930,-38 2930,0 3205,0 3205,-38"/>
<text text-anchor="middle" x="3067.5" y="-22.8" font-family="Times,serif" font-size="14.00">✗ Check</text>
<text text-anchor="middle" x="3067.5" y="-7.8" font-family="Times,serif" font-size="14.00">sweepai/utils/comment_utils_test.py</text>
</g>
<!-- 44268e5e&#45;b7ba&#45;4f49&#45;8562&#45;ca0da50cd37d&#45;&gt;629c5040&#45;a64b&#45;42d6&#45;bce1&#45;ba1513e3a51d -->
<g id="edge11" class="edge">
<title>44268e5e&#45;b7ba&#45;4f49&#45;8562&#45;ca0da50cd37d&#45;&gt;629c5040&#45;a64b&#45;42d6&#45;bce1&#45;ba1513e3a51d</title>
<path fill="none" stroke="black" stroke-dasharray="5,2" d="M1894.32,-84.02C1927.54,-80.62 1962.71,-77.37 1995.5,-75 2402.56,-45.57 2508.7,-70.84 2919.74,-38.02"/>
<polygon fill="black" stroke="black" points="2920.13,-41.5 2929.82,-37.21 2919.57,-34.52 2920.13,-41.5"/>
</g>
<!-- 971276f9&#45;ecdc&#45;42be&#45;98fa&#45;f718612bbf5a -->
<g id="node15" class="node">
<title>971276f9&#45;ecdc&#45;42be&#45;98fa&#45;f718612bbf5a</title>
<polygon fill="yellow" stroke="black" points="3498,-38 3223,-38 3223,0 3498,0 3498,-38"/>
<text text-anchor="middle" x="3360.5" y="-22.8" font-family="Times,serif" font-size="14.00">⋯ Check</text>
<text text-anchor="middle" x="3360.5" y="-7.8" font-family="Times,serif" font-size="14.00">sweepai/utils/comment_utils_test.py</text>
</g>
<!-- 44268e5e&#45;b7ba&#45;4f49&#45;8562&#45;ca0da50cd37d&#45;&gt;971276f9&#45;ecdc&#45;42be&#45;98fa&#45;f718612bbf5a -->
<g id="edge12" class="edge">
<title>44268e5e&#45;b7ba&#45;4f49&#45;8562&#45;ca0da50cd37d&#45;&gt;971276f9&#45;ecdc&#45;42be&#45;98fa&#45;f718612bbf5a</title>
<path fill="none" stroke="black" stroke-dasharray="5,2" d="M1893.32,-83.89C1926.83,-80.47 1962.38,-77.23 1995.5,-75 2532.56,-38.77 2671.79,-78.68 3212.81,-38"/>
<polygon fill="black" stroke="black" points="3213.12,-41.49 3222.82,-37.25 3212.59,-34.51 3213.12,-41.49"/>
</g>
</g>
</svg>
