<?xml version="1.0" encoding="UTF-8" standalone="no"?>
<!DOCTYPE svg PUBLIC "-//W3C//DTD SVG 1.1//EN"
 "http://www.w3.org/Graphics/SVG/1.1/DTD/svg11.dtd">
<!-- Generated by graphviz version 8.0.3 (0)
 -->
<!-- Pages: 1 -->
<svg width="1382pt" height="238pt"
 viewBox="0.00 0.00 1382.00 237.74" xmlns="http://www.w3.org/2000/svg" xmlns:xlink="http://www.w3.org/1999/xlink">
<g id="graph0" class="graph" transform="scale(1 1) rotate(0) translate(36 201.74)">
<polygon fill="dimgray" stroke="none" points="-36,36 -36,-201.74 1346,-201.74 1346,36 -36,36"/>
<text text-anchor="middle" x="655" y="-150.54" font-family="Helvetica,sans-Serif" font-size="14.00">Sweep&#39;s Plan &amp; Progress</text>
<!-- start -->
<g id="node1" class="node">
<title>start</title>
</g>
<!-- febdec60&#45;b18b&#45;4ff8&#45;95c6&#45;45a0ce89b7c5 -->
<g id="node3" class="node">
<title>febdec60&#45;b18b&#45;4ff8&#45;95c6&#45;45a0ce89b7c5</title>
<ellipse fill="#0ee832" stroke="black" cx="247" cy="-99.87" rx="162.77" ry="26.74"/>
<text text-anchor="middle" x="247" y="-103.67" font-family="Helvetica,sans-Serif" font-size="14.00">✓ Create</text>
<text text-anchor="middle" x="247" y="-88.67" font-family="Helvetica,sans-Serif" font-size="14.00">sweepai/agents/filter_agent.py</text>
</g>
<!-- start&#45;&gt;febdec60&#45;b18b&#45;4ff8&#45;95c6&#45;45a0ce89b7c5 -->
<g id="edge6" class="edge">
<title>start&#45;&gt;febdec60&#45;b18b&#45;4ff8&#45;95c6&#45;45a0ce89b7c5</title>
<path fill="none" stroke="black" d="M32.16,-99.87C33.9,-99.87 50.09,-99.87 72.88,-99.87"/>
<polygon fill="black" stroke="black" points="72.79,-103.37 82.79,-99.87 72.79,-96.37 72.79,-103.37"/>
<text text-anchor="middle" x="58.43" y="-106.67" font-family="Helvetica,sans-Serif" font-size="14.00">Start</text>
</g>
<!-- end -->
<g id="node2" class="node">
<title>end</title>
</g>
<!-- 6fe4530d&#45;3e98&#45;4f9d&#45;914d&#45;ec32a53d1c67 -->
<g id="node4" class="node">
<title>6fe4530d&#45;3e98&#45;4f9d&#45;914d&#45;ec32a53d1c67</title>
<ellipse fill="white" stroke="black" cx="667" cy="-99.87" rx="185.94" ry="26.74"/>
<text text-anchor="middle" x="667" y="-103.67" font-family="Helvetica,sans-Serif" font-size="14.00">▶ Create</text>
<text text-anchor="middle" x="667" y="-88.67" font-family="Helvetica,sans-Serif" font-size="14.00">sweepai/agents/filter_agent_test.py</text>
</g>
<!-- febdec60&#45;b18b&#45;4ff8&#45;95c6&#45;45a0ce89b7c5&#45;&gt;6fe4530d&#45;3e98&#45;4f9d&#45;914d&#45;ec32a53d1c67 -->
<g id="edge2" class="edge">
<title>febdec60&#45;b18b&#45;4ff8&#45;95c6&#45;45a0ce89b7c5&#45;&gt;6fe4530d&#45;3e98&#45;4f9d&#45;914d&#45;ec32a53d1c67</title>
<path fill="none" stroke="black" d="M410.24,-99.87C430.15,-99.87 450.06,-99.87 469.97,-99.87"/>
<polygon fill="black" stroke="black" points="469.7,-103.37 479.7,-99.87 469.7,-96.37 469.7,-103.37"/>
</g>
<!-- 378af0ef&#45;c748&#45;4ede&#45;a404&#45;953ec5aa7166 -->
<g id="node6" class="node">
<title>378af0ef&#45;c748&#45;4ede&#45;a404&#45;953ec5aa7166</title>
<polygon fill="#0ee832" stroke="black" points="422,-36 0,-36 0,0 422,0 422,-36"/>
<text text-anchor="middle" x="211" y="-14.3" font-family="Helvetica,sans-Serif" font-size="14.00">✓ Run GitHub Actions for `sweepai/agents/filter_agent.py`</text>
</g>
<!-- febdec60&#45;b18b&#45;4ff8&#45;95c6&#45;45a0ce89b7c5&#45;&gt;378af0ef&#45;c748&#45;4ede&#45;a404&#45;953ec5aa7166 -->
<g id="edge1" class="edge">
<title>febdec60&#45;b18b&#45;4ff8&#45;95c6&#45;45a0ce89b7c5&#45;&gt;378af0ef&#45;c748&#45;4ede&#45;a404&#45;953ec5aa7166</title>
<path fill="none" stroke="black" stroke-dasharray="5,2" d="M235.21,-72.72C231.36,-64.18 227.08,-54.68 223.2,-46.08"/>
<polygon fill="black" stroke="black" points="226.03,-44.82 218.73,-37.15 219.65,-47.7 226.03,-44.82"/>
</g>
<!-- f2c8d47a&#45;340b&#45;41ca&#45;be35&#45;f1e66724c46e -->
<g id="node5" class="node">
<title>f2c8d47a&#45;340b&#45;41ca&#45;be35&#45;f1e66724c46e</title>
<ellipse fill="white" stroke="black" cx="1073" cy="-99.87" rx="145.83" ry="26.74"/>
<text text-anchor="middle" x="1073" y="-103.67" font-family="Helvetica,sans-Serif" font-size="14.00">▶ Modify</text>
<text text-anchor="middle" x="1073" y="-88.67" font-family="Helvetica,sans-Serif" font-size="14.00">sweepai/utils/ticket_utils.py</text>
</g>
<!-- 6fe4530d&#45;3e98&#45;4f9d&#45;914d&#45;ec32a53d1c67&#45;&gt;f2c8d47a&#45;340b&#45;41ca&#45;be35&#45;f1e66724c46e -->
<g id="edge4" class="edge">
<title>6fe4530d&#45;3e98&#45;4f9d&#45;914d&#45;ec32a53d1c67&#45;&gt;f2c8d47a&#45;340b&#45;41ca&#45;be35&#45;f1e66724c46e</title>
<path fill="none" stroke="black" d="M853.35,-99.87C874.17,-99.87 894.99,-99.87 915.82,-99.87"/>
<polygon fill="black" stroke="black" points="915.71,-103.37 925.71,-99.87 915.71,-96.37 915.71,-103.37"/>
</g>
<!-- 2b81e414&#45;bb7c&#45;4db8&#45;b016&#45;86c3d4de2fae -->
<g id="node7" class="node">
<title>2b81e414&#45;bb7c&#45;4db8&#45;b016&#45;86c3d4de2fae</title>
<polygon fill="white" stroke="black" points="894,-36 440,-36 440,0 894,0 894,-36"/>
<text text-anchor="middle" x="667" y="-14.3" font-family="Helvetica,sans-Serif" font-size="14.00">▶ Run GitHub Actions for `sweepai/agents/filter_agent_test.py`</text>
</g>
<!-- 6fe4530d&#45;3e98&#45;4f9d&#45;914d&#45;ec32a53d1c67&#45;&gt;2b81e414&#45;bb7c&#45;4db8&#45;b016&#45;86c3d4de2fae -->
<g id="edge3" class="edge">
<title>6fe4530d&#45;3e98&#45;4f9d&#45;914d&#45;ec32a53d1c67&#45;&gt;2b81e414&#45;bb7c&#45;4db8&#45;b016&#45;86c3d4de2fae</title>
<path fill="none" stroke="black" stroke-dasharray="5,2" d="M667,-72.72C667,-64.46 667,-55.31 667,-46.93"/>
<polygon fill="black" stroke="black" points="670.5,-47.15 667,-37.15 663.5,-47.15 670.5,-47.15"/>
</g>
<!-- f2c8d47a&#45;340b&#45;41ca&#45;be35&#45;f1e66724c46e&#45;&gt;end -->
<g id="edge7" class="edge">
<title>f2c8d47a&#45;340b&#45;41ca&#45;be35&#45;f1e66724c46e&#45;&gt;end</title>
<path fill="none" stroke="black" d="M1219.09,-99.87C1238.73,-99.87 1255.66,-99.87 1266.06,-99.87"/>
<polygon fill="black" stroke="black" points="1265.71,-103.37 1275.71,-99.87 1265.71,-96.37 1265.71,-103.37"/>
<text text-anchor="middle" x="1247.58" y="-106.67" font-family="Helvetica,sans-Serif" font-size="14.00">Finish</text>
</g>
<!-- fd3cb271&#45;33f7&#45;41e1&#45;8f96&#45;87838a379873 -->
<g id="node8" class="node">
<title>fd3cb271&#45;33f7&#45;41e1&#45;8f96&#45;87838a379873</title>
<polygon fill="white" stroke="black" points="1310,-36 912,-36 912,0 1310,0 1310,-36"/>
<text text-anchor="middle" x="1111" y="-14.3" font-family="Helvetica,sans-Serif" font-size="14.00">▶ Run GitHub Actions for `sweepai/utils/ticket_utils.py`</text>
</g>
<!-- f2c8d47a&#45;340b&#45;41ca&#45;be35&#45;f1e66724c46e&#45;&gt;fd3cb271&#45;33f7&#45;41e1&#45;8f96&#45;87838a379873 -->
<g id="edge5" class="edge">
<title>f2c8d47a&#45;340b&#45;41ca&#45;be35&#45;f1e66724c46e&#45;&gt;fd3cb271&#45;33f7&#45;41e1&#45;8f96&#45;87838a379873</title>
<path fill="none" stroke="black" stroke-dasharray="5,2" d="M1085.23,-73.16C1089.35,-64.51 1093.95,-54.83 1098.12,-46.07"/>
<polygon fill="black" stroke="black" points="1101.62,-47.87 1102.75,-37.34 1095.29,-44.86 1101.62,-47.87"/>
</g>
</g>
</svg>
