<?xml version="1.0" encoding="UTF-8" standalone="no"?>
<!DOCTYPE svg PUBLIC "-//W3C//DTD SVG 1.1//EN"
 "http://www.w3.org/Graphics/SVG/1.1/DTD/svg11.dtd">
<!-- Generated by graphviz version 2.43.0 (0)
 -->
<!-- Title: %3 Pages: 1 -->
<svg width="1929pt" height="238pt"
 viewBox="0.00 0.00 1928.50 237.74" xmlns="http://www.w3.org/2000/svg" xmlns:xlink="http://www.w3.org/1999/xlink">
<g id="graph0" class="graph" transform="scale(1 1) rotate(0) translate(36 201.74)">
<title>%3</title>
<polygon fill="dimgray" stroke="transparent" points="-36,36 -36,-201.74 1892.5,-201.74 1892.5,36 -36,36"/>
<text text-anchor="middle" x="928.25" y="-150.54" font-family="Helvetica,sans-Serif" font-size="14.00">Sweep&#39;s Plan &amp; Progress</text>
<!-- start -->
<g id="node1" class="node">
<title>start</title>
</g>
<!-- 72a4c16e&#45;b95e&#45;4a98&#45;aa38&#45;d0fa2b993b70 -->
<g id="node3" class="node">
<title>72a4c16e&#45;b95e&#45;4a98&#45;aa38&#45;d0fa2b993b70</title>
<ellipse fill="#0ee832" stroke="black" cx="274" cy="-99.87" rx="195.74" ry="26.74"/>
<text text-anchor="middle" x="274" y="-103.67" font-family="Helvetica,sans-Serif" font-size="14.00">✓ Create</text>
<text text-anchor="middle" x="274" y="-88.67" font-family="Helvetica,sans-Serif" font-size="14.00">sweepai/agents/query_filter_agent.py</text>
</g>
<!-- start&#45;&gt;72a4c16e&#45;b95e&#45;4a98&#45;aa38&#45;d0fa2b993b70 -->
<g id="edge8" class="edge">
<title>start&#45;&gt;72a4c16e&#45;b95e&#45;4a98&#45;aa38&#45;d0fa2b993b70</title>
<path fill="none" stroke="black" d="M26.71,-99.87C30.16,-99.87 45.91,-99.87 67.91,-99.87"/>
<polygon fill="black" stroke="black" points="68.07,-103.37 78.07,-99.87 68.07,-96.37 68.07,-103.37"/>
<text text-anchor="middle" x="52.32" y="-106.67" font-family="Helvetica,sans-Serif" font-size="14.00">Start</text>
</g>
<!-- end -->
<g id="node2" class="node">
<title>end</title>
</g>
<!-- d67f4a4e&#45;3918&#45;4543&#45;a28e&#45;14d9b21853e5 -->
<g id="node4" class="node">
<title>d67f4a4e&#45;3918&#45;4543&#45;a28e&#45;14d9b21853e5</title>
<ellipse fill="white" stroke="black" cx="689" cy="-99.87" rx="145.83" ry="26.74"/>
<text text-anchor="middle" x="689" y="-103.67" font-family="Helvetica,sans-Serif" font-size="14.00">▶ Modify</text>
<text text-anchor="middle" x="689" y="-88.67" font-family="Helvetica,sans-Serif" font-size="14.00">sweepai/utils/ticket_utils.py</text>
</g>
<!-- 72a4c16e&#45;b95e&#45;4a98&#45;aa38&#45;d0fa2b993b70&#45;&gt;d67f4a4e&#45;3918&#45;4543&#45;a28e&#45;14d9b21853e5 -->
<g id="edge2" class="edge">
<title>72a4c16e&#45;b95e&#45;4a98&#45;aa38&#45;d0fa2b993b70&#45;&gt;d67f4a4e&#45;3918&#45;4543&#45;a28e&#45;14d9b21853e5</title>
<path fill="none" stroke="black" d="M470.15,-99.87C491.09,-99.87 512.03,-99.87 532.97,-99.87"/>
<polygon fill="black" stroke="black" points="533.24,-103.37 543.24,-99.87 533.24,-96.37 533.24,-103.37"/>
</g>
<!-- 419af661&#45;50a4&#45;4bb8&#45;9c06&#45;c44611549bf0 -->
<g id="node7" class="node">
<title>419af661&#45;50a4&#45;4bb8&#45;9c06&#45;c44611549bf0</title>
<polygon fill="yellow" stroke="black" points="472,-36 0,-36 0,0 472,0 472,-36"/>
<text text-anchor="middle" x="236" y="-14.3" font-family="Helvetica,sans-Serif" font-size="14.00">⋯ Run GitHub Actions for `sweepai/agents/query_filter_agent.py`</text>
</g>
<!-- 72a4c16e&#45;b95e&#45;4a98&#45;aa38&#45;d0fa2b993b70&#45;&gt;419af661&#45;50a4&#45;4bb8&#45;9c06&#45;c44611549bf0 -->
<g id="edge1" class="edge">
<title>72a4c16e&#45;b95e&#45;4a98&#45;aa38&#45;d0fa2b993b70&#45;&gt;419af661&#45;50a4&#45;4bb8&#45;9c06&#45;c44611549bf0</title>
<path fill="none" stroke="black" stroke-dasharray="5,2" d="M261.56,-72.72C257.36,-63.9 252.68,-54.05 248.48,-45.23"/>
<polygon fill="black" stroke="black" points="251.61,-43.67 244.16,-36.15 245.29,-46.68 251.61,-43.67"/>
</g>
<!-- 0905bbe4&#45;ed95&#45;4282&#45;930c&#45;f447ae6e9e8d -->
<g id="node5" class="node">
<title>0905bbe4&#45;ed95&#45;4282&#45;930c&#45;f447ae6e9e8d</title>
<ellipse fill="white" stroke="black" cx="1157" cy="-99.87" rx="219.41" ry="26.74"/>
<text text-anchor="middle" x="1157" y="-103.67" font-family="Helvetica,sans-Serif" font-size="14.00">▶ Create</text>
<text text-anchor="middle" x="1157" y="-88.67" font-family="Helvetica,sans-Serif" font-size="14.00">sweepai/agents/query_filter_agent_test.py</text>
</g>
<!-- d67f4a4e&#45;3918&#45;4543&#45;a28e&#45;14d9b21853e5&#45;&gt;0905bbe4&#45;ed95&#45;4282&#45;930c&#45;f447ae6e9e8d -->
<g id="edge4" class="edge">
<title>d67f4a4e&#45;3918&#45;4543&#45;a28e&#45;14d9b21853e5&#45;&gt;0905bbe4&#45;ed95&#45;4282&#45;930c&#45;f447ae6e9e8d</title>
<path fill="none" stroke="black" d="M834.79,-99.87C865.74,-99.87 896.69,-99.87 927.64,-99.87"/>
<polygon fill="black" stroke="black" points="927.69,-103.37 937.69,-99.87 927.69,-96.37 927.69,-103.37"/>
</g>
<!-- 17cb9ef9&#45;8114&#45;4e49&#45;b93d&#45;e28c93dfed84 -->
<g id="node8" class="node">
<title>17cb9ef9&#45;8114&#45;4e49&#45;b93d&#45;e28c93dfed84</title>
<polygon fill="white" stroke="black" points="888,-36 490,-36 490,0 888,0 888,-36"/>
<text text-anchor="middle" x="689" y="-14.3" font-family="Helvetica,sans-Serif" font-size="14.00">▶ Run GitHub Actions for `sweepai/utils/ticket_utils.py`</text>
</g>
<!-- d67f4a4e&#45;3918&#45;4543&#45;a28e&#45;14d9b21853e5&#45;&gt;17cb9ef9&#45;8114&#45;4e49&#45;b93d&#45;e28c93dfed84 -->
<g id="edge3" class="edge">
<title>d67f4a4e&#45;3918&#45;4543&#45;a28e&#45;14d9b21853e5&#45;&gt;17cb9ef9&#45;8114&#45;4e49&#45;b93d&#45;e28c93dfed84</title>
<path fill="none" stroke="black" stroke-dasharray="5,2" d="M689,-72.72C689,-64.27 689,-54.89 689,-46.36"/>
<polygon fill="black" stroke="black" points="692.5,-46.15 689,-36.15 685.5,-46.15 692.5,-46.15"/>
</g>
<!-- fcf2f2e6&#45;5010&#45;4c0a&#45;a965&#45;86eb6f4e1dbd -->
<g id="node6" class="node">
<title>fcf2f2e6&#45;5010&#45;4c0a&#45;a965&#45;86eb6f4e1dbd</title>
<ellipse fill="white" stroke="black" cx="1611" cy="-99.87" rx="169" ry="26.74"/>
<text text-anchor="middle" x="1611" y="-103.67" font-family="Helvetica,sans-Serif" font-size="14.00">▶ Create</text>
<text text-anchor="middle" x="1611" y="-88.67" font-family="Helvetica,sans-Serif" font-size="14.00">sweepai/utils/ticket_utils_test.py</text>
</g>
<!-- 0905bbe4&#45;ed95&#45;4282&#45;930c&#45;f447ae6e9e8d&#45;&gt;fcf2f2e6&#45;5010&#45;4c0a&#45;a965&#45;86eb6f4e1dbd -->
<g id="edge6" class="edge">
<title>0905bbe4&#45;ed95&#45;4282&#45;930c&#45;f447ae6e9e8d&#45;&gt;fcf2f2e6&#45;5010&#45;4c0a&#45;a965&#45;86eb6f4e1dbd</title>
<path fill="none" stroke="black" d="M1376.46,-99.87C1394.89,-99.87 1413.31,-99.87 1431.73,-99.87"/>
<polygon fill="black" stroke="black" points="1431.97,-103.37 1441.97,-99.87 1431.97,-96.37 1431.97,-103.37"/>
</g>
<!-- 2b50ed63&#45;6b10&#45;45f7&#45;b1bb&#45;d9a5268423a3 -->
<g id="node9" class="node">
<title>2b50ed63&#45;6b10&#45;45f7&#45;b1bb&#45;d9a5268423a3</title>
<polygon fill="white" stroke="black" points="1407.5,-36 906.5,-36 906.5,0 1407.5,0 1407.5,-36"/>
<text text-anchor="middle" x="1157" y="-14.3" font-family="Helvetica,sans-Serif" font-size="14.00">▶ Run GitHub Actions for `sweepai/agents/query_filter_agent_test.py`</text>
</g>
<!-- 0905bbe4&#45;ed95&#45;4282&#45;930c&#45;f447ae6e9e8d&#45;&gt;2b50ed63&#45;6b10&#45;45f7&#45;b1bb&#45;d9a5268423a3 -->
<g id="edge5" class="edge">
<title>0905bbe4&#45;ed95&#45;4282&#45;930c&#45;f447ae6e9e8d&#45;&gt;2b50ed63&#45;6b10&#45;45f7&#45;b1bb&#45;d9a5268423a3</title>
<path fill="none" stroke="black" stroke-dasharray="5,2" d="M1157,-72.72C1157,-64.27 1157,-54.89 1157,-46.36"/>
<polygon fill="black" stroke="black" points="1160.5,-46.15 1157,-36.15 1153.5,-46.15 1160.5,-46.15"/>
</g>
<!-- fcf2f2e6&#45;5010&#45;4c0a&#45;a965&#45;86eb6f4e1dbd&#45;&gt;end -->
<g id="edge9" class="edge">
<title>fcf2f2e6&#45;5010&#45;4c0a&#45;a965&#45;86eb6f4e1dbd&#45;&gt;end</title>
<path fill="none" stroke="black" d="M1780.13,-99.87C1800.07,-99.87 1816.97,-99.87 1827.27,-99.87"/>
<polygon fill="black" stroke="black" points="1827.36,-103.37 1837.36,-99.87 1827.36,-96.37 1827.36,-103.37"/>
<text text-anchor="middle" x="1808.75" y="-106.67" font-family="Helvetica,sans-Serif" font-size="14.00">Finish</text>
</g>
<!-- ea4bc671&#45;e64a&#45;4fca&#45;8e2a&#45;5ca3b2b53a90 -->
<g id="node10" class="node">
<title>ea4bc671&#45;e64a&#45;4fca&#45;8e2a&#45;5ca3b2b53a90</title>
<polygon fill="white" stroke="black" points="1856.5,-36 1425.5,-36 1425.5,0 1856.5,0 1856.5,-36"/>
<text text-anchor="middle" x="1641" y="-14.3" font-family="Helvetica,sans-Serif" font-size="14.00">▶ Run GitHub Actions for `sweepai/utils/ticket_utils_test.py`</text>
</g>
<!-- fcf2f2e6&#45;5010&#45;4c0a&#45;a965&#45;86eb6f4e1dbd&#45;&gt;ea4bc671&#45;e64a&#45;4fca&#45;8e2a&#45;5ca3b2b53a90 -->
<g id="edge7" class="edge">
<title>fcf2f2e6&#45;5010&#45;4c0a&#45;a965&#45;86eb6f4e1dbd&#45;&gt;ea4bc671&#45;e64a&#45;4fca&#45;8e2a&#45;5ca3b2b53a90</title>
<path fill="none" stroke="black" stroke-dasharray="5,2" d="M1620.82,-72.72C1624.1,-63.99 1627.75,-54.26 1631.04,-45.51"/>
<polygon fill="black" stroke="black" points="1634.32,-46.74 1634.56,-36.15 1627.77,-44.28 1634.32,-46.74"/>
</g>
</g>
</svg>
