<?xml version="1.0" encoding="UTF-8" standalone="no"?>
<!DOCTYPE svg PUBLIC "-//W3C//DTD SVG 1.1//EN"
 "http://www.w3.org/Graphics/SVG/1.1/DTD/svg11.dtd">
<!-- Generated by graphviz version 8.0.3 (0)
 -->
<!-- Pages: 1 -->
<svg width="1194pt" height="238pt"
 viewBox="0.00 0.00 1194.00 237.74" xmlns="http://www.w3.org/2000/svg" xmlns:xlink="http://www.w3.org/1999/xlink">
<g id="graph0" class="graph" transform="scale(1 1) rotate(0) translate(36 201.74)">
<polygon fill="dimgray" stroke="none" points="-36,36 -36,-201.74 1158,-201.74 1158,36 -36,36"/>
<text text-anchor="middle" x="561" y="-150.54" font-family="Helvetica,sans-Serif" font-size="14.00">Sweep&#39;s Plan &amp; Progress</text>
<!-- start -->
<g id="node1" class="node">
<title>start</title>
</g>
<!-- ce2a221c&#45;81cc&#45;480e&#45;a896&#45;46e4fd638eab -->
<g id="node3" class="node">
<title>ce2a221c&#45;81cc&#45;480e&#45;a896&#45;46e4fd638eab</title>
<ellipse fill="yellow" stroke="black" cx="236" cy="-99.87" rx="128.89" ry="26.74"/>
<text text-anchor="middle" x="236" y="-103.67" font-family="Helvetica,sans-Serif" font-size="14.00">⋯ Modify</text>
<text text-anchor="middle" x="236" y="-88.67" font-family="Helvetica,sans-Serif" font-size="14.00">bin/server/install_full.sh</text>
</g>
<!-- start&#45;&gt;ce2a221c&#45;81cc&#45;480e&#45;a896&#45;46e4fd638eab -->
<g id="edge6" class="edge">
<title>start&#45;&gt;ce2a221c&#45;81cc&#45;480e&#45;a896&#45;46e4fd638eab</title>
<path fill="none" stroke="black" d="M55.13,-99.87C56.77,-99.87 73.5,-99.87 96.18,-99.87"/>
<polygon fill="black" stroke="black" points="95.99,-103.37 105.99,-99.87 95.99,-96.37 95.99,-103.37"/>
<text text-anchor="middle" x="81.4" y="-106.67" font-family="Helvetica,sans-Serif" font-size="14.00">Start</text>
</g>
<!-- end -->
<g id="node2" class="node">
<title>end</title>
</g>
<!-- 3c8b758d&#45;4602&#45;457a&#45;b2f7&#45;cd40048972f3 -->
<g id="node4" class="node">
<title>3c8b758d&#45;4602&#45;457a&#45;b2f7&#45;cd40048972f3</title>
<ellipse fill="white" stroke="black" cx="584" cy="-99.87" rx="135.11" ry="26.74"/>
<text text-anchor="middle" x="584" y="-103.67" font-family="Helvetica,sans-Serif" font-size="14.00">▶ Modify</text>
<text text-anchor="middle" x="584" y="-88.67" font-family="Helvetica,sans-Serif" font-size="14.00">bin/server/install_light.sh</text>
</g>
<!-- ce2a221c&#45;81cc&#45;480e&#45;a896&#45;46e4fd638eab&#45;&gt;3c8b758d&#45;4602&#45;457a&#45;b2f7&#45;cd40048972f3 -->
<g id="edge2" class="edge">
<title>ce2a221c&#45;81cc&#45;480e&#45;a896&#45;46e4fd638eab&#45;&gt;3c8b758d&#45;4602&#45;457a&#45;b2f7&#45;cd40048972f3</title>
<path fill="none" stroke="black" d="M365.14,-99.87C389.34,-99.87 413.55,-99.87 437.75,-99.87"/>
<polygon fill="black" stroke="black" points="437.5,-103.37 447.5,-99.87 437.5,-96.37 437.5,-103.37"/>
</g>
<!-- 5e45fa3d&#45;b52c&#45;4c2e&#45;8c87&#45;45a419a81167 -->
<g id="node6" class="node">
<title>5e45fa3d&#45;b52c&#45;4c2e&#45;8c87&#45;45a419a81167</title>
<polygon fill="white" stroke="black" points="374,-36 0,-36 0,0 374,0 374,-36"/>
<text text-anchor="middle" x="187" y="-14.3" font-family="Helvetica,sans-Serif" font-size="14.00">▶ Run GitHub Actions for `bin/server/install_full.sh`</text>
</g>
<!-- ce2a221c&#45;81cc&#45;480e&#45;a896&#45;46e4fd638eab&#45;&gt;5e45fa3d&#45;b52c&#45;4c2e&#45;8c87&#45;45a419a81167 -->
<g id="edge1" class="edge">
<title>ce2a221c&#45;81cc&#45;480e&#45;a896&#45;46e4fd638eab&#45;&gt;5e45fa3d&#45;b52c&#45;4c2e&#45;8c87&#45;45a419a81167</title>
<path fill="none" stroke="black" stroke-dasharray="5,2" d="M220.23,-73.16C214.8,-64.32 208.72,-54.41 203.26,-45.5"/>
<polygon fill="black" stroke="black" points="205.85,-44.03 197.64,-37.34 199.88,-47.69 205.85,-44.03"/>
</g>
<!-- 1adf9363&#45;95da&#45;4377&#45;8754&#45;0fa722b3806e -->
<g id="node5" class="node">
<title>1adf9363&#45;95da&#45;4377&#45;8754&#45;0fa722b3806e</title>
<ellipse fill="white" stroke="black" cx="905" cy="-99.87" rx="96.75" ry="26.74"/>
<text text-anchor="middle" x="905" y="-103.67" font-family="Helvetica,sans-Serif" font-size="14.00">▶ Modify</text>
<text text-anchor="middle" x="905" y="-88.67" font-family="Helvetica,sans-Serif" font-size="14.00">bin/server/run.sh</text>
</g>
<!-- 3c8b758d&#45;4602&#45;457a&#45;b2f7&#45;cd40048972f3&#45;&gt;1adf9363&#45;95da&#45;4377&#45;8754&#45;0fa722b3806e -->
<g id="edge4" class="edge">
<title>3c8b758d&#45;4602&#45;457a&#45;b2f7&#45;cd40048972f3&#45;&gt;1adf9363&#45;95da&#45;4377&#45;8754&#45;0fa722b3806e</title>
<path fill="none" stroke="black" d="M719.42,-99.87C745.33,-99.87 771.24,-99.87 797.15,-99.87"/>
<polygon fill="black" stroke="black" points="796.86,-103.37 806.86,-99.87 796.86,-96.37 796.86,-103.37"/>
</g>
<!-- 5beeda3b&#45;cafe&#45;4774&#45;8c04&#45;2370c57bf977 -->
<g id="node7" class="node">
<title>5beeda3b&#45;cafe&#45;4774&#45;8c04&#45;2370c57bf977</title>
<polygon fill="white" stroke="black" points="775.5,-36 392.5,-36 392.5,0 775.5,0 775.5,-36"/>
<text text-anchor="middle" x="584" y="-14.3" font-family="Helvetica,sans-Serif" font-size="14.00">▶ Run GitHub Actions for `bin/server/install_light.sh`</text>
</g>
<!-- 3c8b758d&#45;4602&#45;457a&#45;b2f7&#45;cd40048972f3&#45;&gt;5beeda3b&#45;cafe&#45;4774&#45;8c04&#45;2370c57bf977 -->
<g id="edge3" class="edge">
<title>3c8b758d&#45;4602&#45;457a&#45;b2f7&#45;cd40048972f3&#45;&gt;5beeda3b&#45;cafe&#45;4774&#45;8c04&#45;2370c57bf977</title>
<path fill="none" stroke="black" stroke-dasharray="5,2" d="M584,-72.72C584,-64.46 584,-55.31 584,-46.93"/>
<polygon fill="black" stroke="black" points="587.5,-47.15 584,-37.15 580.5,-47.15 587.5,-47.15"/>
</g>
<!-- 1adf9363&#45;95da&#45;4377&#45;8754&#45;0fa722b3806e&#45;&gt;end -->
<g id="edge7" class="edge">
<title>1adf9363&#45;95da&#45;4377&#45;8754&#45;0fa722b3806e&#45;&gt;end</title>
<path fill="none" stroke="black" d="M1001.84,-99.87C1020.89,-99.87 1038.27,-99.87 1048.97,-99.87"/>
<polygon fill="black" stroke="black" points="1048.69,-103.37 1058.69,-99.87 1048.69,-96.37 1048.69,-103.37"/>
<text text-anchor="middle" x="1030.69" y="-106.67" font-family="Helvetica,sans-Serif" font-size="14.00">Finish</text>
</g>
<!-- bdf0ee07&#45;2fb3&#45;48b2&#45;b298&#45;65fefb6ffb8d -->
<g id="node8" class="node">
<title>bdf0ee07&#45;2fb3&#45;48b2&#45;b298&#45;65fefb6ffb8d</title>
<polygon fill="white" stroke="black" points="1122,-36 794,-36 794,0 1122,0 1122,-36"/>
<text text-anchor="middle" x="958" y="-14.3" font-family="Helvetica,sans-Serif" font-size="14.00">▶ Run GitHub Actions for `bin/server/run.sh`</text>
</g>
<!-- 1adf9363&#45;95da&#45;4377&#45;8754&#45;0fa722b3806e&#45;&gt;bdf0ee07&#45;2fb3&#45;48b2&#45;b298&#45;65fefb6ffb8d -->
<g id="edge5" class="edge">
<title>1adf9363&#45;95da&#45;4377&#45;8754&#45;0fa722b3806e&#45;&gt;bdf0ee07&#45;2fb3&#45;48b2&#45;b298&#45;65fefb6ffb8d</title>
<path fill="none" stroke="black" stroke-dasharray="5,2" d="M922.06,-73.16C927.99,-64.22 934.64,-54.2 940.6,-45.22"/>
<polygon fill="black" stroke="black" points="943.88,-47.6 946.5,-37.34 938.05,-43.73 943.88,-47.6"/>
</g>
</g>
</svg>
