<?xml version="1.0" encoding="UTF-8" standalone="no"?>
<!DOCTYPE svg PUBLIC "-//W3C//DTD SVG 1.1//EN"
 "http://www.w3.org/Graphics/SVG/1.1/DTD/svg11.dtd">
<!-- Generated by graphviz version 2.43.0 (0)
 -->
<!-- Title: %3 Pages: 1 -->
<svg width="938pt" height="238pt"
 viewBox="0.00 0.00 937.50 237.74" xmlns="http://www.w3.org/2000/svg" xmlns:xlink="http://www.w3.org/1999/xlink">
<g id="graph0" class="graph" transform="scale(1 1) rotate(0) translate(36 201.74)">
<title>%3</title>
<polygon fill="dimgray" stroke="transparent" points="-36,36 -36,-201.74 901.5,-201.74 901.5,36 -36,36"/>
<text text-anchor="middle" x="432.75" y="-150.54" font-family="Helvetica,sans-Serif" font-size="14.00">Sweep&#39;s Plan &amp; Progress</text>
<!-- start -->
<g id="node1" class="node">
<title>start</title>
</g>
<!-- 9e85b849&#45;e682&#45;46c7&#45;abdd&#45;dca194a7465e -->
<g id="node3" class="node">
<title>9e85b849&#45;e682&#45;46c7&#45;abdd&#45;dca194a7465e</title>
<ellipse fill="yellow" stroke="black" cx="242.5" cy="-99.87" rx="152.06" ry="26.74"/>
<text text-anchor="middle" x="242.5" y="-103.67" font-family="Helvetica,sans-Serif" font-size="14.00">⋯ Modify</text>
<text text-anchor="middle" x="242.5" y="-88.67" font-family="Helvetica,sans-Serif" font-size="14.00">sweepai/utils/docker_utils.py</text>
</g>
<!-- start&#45;&gt;9e85b849&#45;e682&#45;46c7&#45;abdd&#45;dca194a7465e -->
<g id="edge4" class="edge">
<title>start&#45;&gt;9e85b849&#45;e682&#45;46c7&#45;abdd&#45;dca194a7465e</title>
<path fill="none" stroke="black" d="M39.09,-99.87C42.29,-99.87 58.39,-99.87 80.23,-99.87"/>
<polygon fill="black" stroke="black" points="80.28,-103.37 90.28,-99.87 80.28,-96.37 80.28,-103.37"/>
<text text-anchor="middle" x="64.74" y="-106.67" font-family="Helvetica,sans-Serif" font-size="14.00">Start</text>
</g>
<!-- end -->
<g id="node2" class="node">
<title>end</title>
</g>
<!-- dbfe1927&#45;c4d9&#45;4dff&#45;8b4e&#45;f520d834bd28 -->
<g id="node4" class="node">
<title>dbfe1927&#45;c4d9&#45;4dff&#45;8b4e&#45;f520d834bd28</title>
<ellipse fill="white" stroke="black" cx="625.5" cy="-99.87" rx="175.23" ry="26.74"/>
<text text-anchor="middle" x="625.5" y="-103.67" font-family="Helvetica,sans-Serif" font-size="14.00">▶ Modify</text>
<text text-anchor="middle" x="625.5" y="-88.67" font-family="Helvetica,sans-Serif" font-size="14.00">sweepai/utils/docker_utils_test.py</text>
</g>
<!-- 9e85b849&#45;e682&#45;46c7&#45;abdd&#45;dca194a7465e&#45;&gt;dbfe1927&#45;c4d9&#45;4dff&#45;8b4e&#45;f520d834bd28 -->
<g id="edge2" class="edge">
<title>9e85b849&#45;e682&#45;46c7&#45;abdd&#45;dca194a7465e&#45;&gt;dbfe1927&#45;c4d9&#45;4dff&#45;8b4e&#45;f520d834bd28</title>
<path fill="none" stroke="black" d="M394.73,-99.87C409.62,-99.87 424.51,-99.87 439.41,-99.87"/>
<polygon fill="black" stroke="black" points="439.72,-103.37 449.72,-99.87 439.72,-96.37 439.72,-103.37"/>
</g>
<!-- 8cbafe2b&#45;6156&#45;4ab3&#45;ab21&#45;628554b1f34f -->
<g id="node5" class="node">
<title>8cbafe2b&#45;6156&#45;4ab3&#45;ab21&#45;628554b1f34f</title>
<polygon fill="white" stroke="black" points="407,-36 0,-36 0,0 407,0 407,-36"/>
<text text-anchor="middle" x="203.5" y="-14.3" font-family="Helvetica,sans-Serif" font-size="14.00">▶ Run GitHub Actions for `sweepai/utils/docker_utils.py`</text>
</g>
<!-- 9e85b849&#45;e682&#45;46c7&#45;abdd&#45;dca194a7465e&#45;&gt;8cbafe2b&#45;6156&#45;4ab3&#45;ab21&#45;628554b1f34f -->
<g id="edge1" class="edge">
<title>9e85b849&#45;e682&#45;46c7&#45;abdd&#45;dca194a7465e&#45;&gt;8cbafe2b&#45;6156&#45;4ab3&#45;ab21&#45;628554b1f34f</title>
<path fill="none" stroke="black" stroke-dasharray="5,2" d="M229.73,-72.72C225.42,-63.9 220.62,-54.05 216.31,-45.23"/>
<polygon fill="black" stroke="black" points="219.41,-43.6 211.87,-36.15 213.12,-46.67 219.41,-43.6"/>
</g>
<!-- dbfe1927&#45;c4d9&#45;4dff&#45;8b4e&#45;f520d834bd28&#45;&gt;end -->
<g id="edge5" class="edge">
<title>dbfe1927&#45;c4d9&#45;4dff&#45;8b4e&#45;f520d834bd28&#45;&gt;end</title>
<path fill="none" stroke="black" d="M800.9,-99.87C820.83,-99.87 837.63,-99.87 847.85,-99.87"/>
<polygon fill="black" stroke="black" points="847.87,-103.37 857.87,-99.87 847.87,-96.37 847.87,-103.37"/>
<text text-anchor="middle" x="829.43" y="-106.67" font-family="Helvetica,sans-Serif" font-size="14.00">Finish</text>
</g>
<!-- 9049eb6e&#45;eeb5&#45;4dfb&#45;813e&#45;ea8ebebd1ceb -->
<g id="node6" class="node">
<title>9049eb6e&#45;eeb5&#45;4dfb&#45;813e&#45;ea8ebebd1ceb</title>
<polygon fill="white" stroke="black" points="865.5,-36 425.5,-36 425.5,0 865.5,0 865.5,-36"/>
<text text-anchor="middle" x="645.5" y="-14.3" font-family="Helvetica,sans-Serif" font-size="14.00">▶ Run GitHub Actions for `sweepai/utils/docker_utils_test.py`</text>
</g>
<!-- dbfe1927&#45;c4d9&#45;4dff&#45;8b4e&#45;f520d834bd28&#45;&gt;9049eb6e&#45;eeb5&#45;4dfb&#45;813e&#45;ea8ebebd1ceb -->
<g id="edge3" class="edge">
<title>dbfe1927&#45;c4d9&#45;4dff&#45;8b4e&#45;f520d834bd28&#45;&gt;9049eb6e&#45;eeb5&#45;4dfb&#45;813e&#45;ea8ebebd1ceb</title>
<path fill="none" stroke="black" stroke-dasharray="5,2" d="M632.05,-72.72C634.19,-64.18 636.57,-54.68 638.72,-46.08"/>
<polygon fill="black" stroke="black" points="642.17,-46.7 641.21,-36.15 635.38,-45 642.17,-46.7"/>
</g>
</g>
</svg>
