<?xml version="1.0" encoding="UTF-8" standalone="no"?>
<!DOCTYPE svg PUBLIC "-//W3C//DTD SVG 1.1//EN"
 "http://www.w3.org/Graphics/SVG/1.1/DTD/svg11.dtd">
<!-- Generated by graphviz version 2.43.0 (0)
 -->
<!-- Title: %3 Pages: 1 -->
<svg width="1798pt" height="238pt"
 viewBox="0.00 0.00 1798.00 237.74" xmlns="http://www.w3.org/2000/svg" xmlns:xlink="http://www.w3.org/1999/xlink">
<g id="graph0" class="graph" transform="scale(1 1) rotate(0) translate(36 201.74)">
<title>%3</title>
<polygon fill="dimgray" stroke="transparent" points="-36,36 -36,-201.74 1762,-201.74 1762,36 -36,36"/>
<text text-anchor="middle" x="863" y="-150.54" font-family="Helvetica,sans-Serif" font-size="14.00">Sweep&#39;s Plan &amp; Progress</text>
<!-- start -->
<g id="node1" class="node">
<title>start</title>
</g>
<!-- a6f069bc&#45;724c&#45;42b3&#45;8a27&#45;db23f12691d3 -->
<g id="node3" class="node">
<title>a6f069bc&#45;724c&#45;42b3&#45;8a27&#45;db23f12691d3</title>
<ellipse fill="yellow" stroke="black" cx="243" cy="-99.87" rx="145.83" ry="26.74"/>
<text text-anchor="middle" x="243" y="-103.67" font-family="Helvetica,sans-Serif" font-size="14.00">⋯ Modify</text>
<text text-anchor="middle" x="243" y="-88.67" font-family="Helvetica,sans-Serif" font-size="14.00">sweepai/utils/ticket_utils.py</text>
</g>
<!-- start&#45;&gt;a6f069bc&#45;724c&#45;42b3&#45;8a27&#45;db23f12691d3 -->
<g id="edge8" class="edge">
<title>start&#45;&gt;a6f069bc&#45;724c&#45;42b3&#45;8a27&#45;db23f12691d3</title>
<path fill="none" stroke="black" d="M45.57,-99.87C48.76,-99.87 65.1,-99.87 87.13,-99.87"/>
<polygon fill="black" stroke="black" points="87.26,-103.37 97.26,-99.87 87.26,-96.37 87.26,-103.37"/>
<text text-anchor="middle" x="71.42" y="-106.67" font-family="Helvetica,sans-Serif" font-size="14.00">Start</text>
</g>
<!-- end -->
<g id="node2" class="node">
<title>end</title>
</g>
<!-- 7bf9d770&#45;ed7a&#45;4d48&#45;86a1&#45;bd1a9cb80514 -->
<g id="node4" class="node">
<title>7bf9d770&#45;ed7a&#45;4d48&#45;86a1&#45;bd1a9cb80514</title>
<ellipse fill="white" stroke="black" cx="615" cy="-99.87" rx="145.83" ry="26.74"/>
<text text-anchor="middle" x="615" y="-103.67" font-family="Helvetica,sans-Serif" font-size="14.00">▶ Modify</text>
<text text-anchor="middle" x="615" y="-88.67" font-family="Helvetica,sans-Serif" font-size="14.00">sweepai/utils/ticket_utils.py</text>
</g>
<!-- a6f069bc&#45;724c&#45;42b3&#45;8a27&#45;db23f12691d3&#45;&gt;7bf9d770&#45;ed7a&#45;4d48&#45;86a1&#45;bd1a9cb80514 -->
<g id="edge2" class="edge">
<title>a6f069bc&#45;724c&#45;42b3&#45;8a27&#45;db23f12691d3&#45;&gt;7bf9d770&#45;ed7a&#45;4d48&#45;86a1&#45;bd1a9cb80514</title>
<path fill="none" stroke="black" d="M388.68,-99.87C412.14,-99.87 435.61,-99.87 459.07,-99.87"/>
<polygon fill="black" stroke="black" points="459.13,-103.37 469.13,-99.87 459.13,-96.37 459.13,-103.37"/>
</g>
<!-- 66d5c534&#45;ee4e&#45;4877&#45;a3f0&#45;02a8b453f2a6 -->
<g id="node7" class="node">
<title>66d5c534&#45;ee4e&#45;4877&#45;a3f0&#45;02a8b453f2a6</title>
<polygon fill="white" stroke="black" points="398,-36 0,-36 0,0 398,0 398,-36"/>
<text text-anchor="middle" x="199" y="-14.3" font-family="Helvetica,sans-Serif" font-size="14.00">▶ Run GitHub Actions for `sweepai/utils/ticket_utils.py`</text>
</g>
<!-- a6f069bc&#45;724c&#45;42b3&#45;8a27&#45;db23f12691d3&#45;&gt;66d5c534&#45;ee4e&#45;4877&#45;a3f0&#45;02a8b453f2a6 -->
<g id="edge1" class="edge">
<title>a6f069bc&#45;724c&#45;42b3&#45;8a27&#45;db23f12691d3&#45;&gt;66d5c534&#45;ee4e&#45;4877&#45;a3f0&#45;02a8b453f2a6</title>
<path fill="none" stroke="black" stroke-dasharray="5,2" d="M228.59,-72.72C223.68,-63.8 218.2,-53.84 213.29,-44.95"/>
<polygon fill="black" stroke="black" points="216.34,-43.22 208.45,-36.15 210.21,-46.59 216.34,-43.22"/>
</g>
<!-- 5b3f0c99&#45;3ce9&#45;4a3d&#45;a509&#45;f71b689cf5c1 -->
<g id="node5" class="node">
<title>5b3f0c99&#45;3ce9&#45;4a3d&#45;a509&#45;f71b689cf5c1</title>
<ellipse fill="white" stroke="black" cx="1043" cy="-99.87" rx="162.77" ry="26.74"/>
<text text-anchor="middle" x="1043" y="-103.67" font-family="Helvetica,sans-Serif" font-size="14.00">▶ Create</text>
<text text-anchor="middle" x="1043" y="-88.67" font-family="Helvetica,sans-Serif" font-size="14.00">sweepai/agents/filter_agent.py</text>
</g>
<!-- 7bf9d770&#45;ed7a&#45;4d48&#45;86a1&#45;bd1a9cb80514&#45;&gt;5b3f0c99&#45;3ce9&#45;4a3d&#45;a509&#45;f71b689cf5c1 -->
<g id="edge4" class="edge">
<title>7bf9d770&#45;ed7a&#45;4d48&#45;86a1&#45;bd1a9cb80514&#45;&gt;5b3f0c99&#45;3ce9&#45;4a3d&#45;a509&#45;f71b689cf5c1</title>
<path fill="none" stroke="black" d="M760.87,-99.87C797.22,-99.87 833.57,-99.87 869.92,-99.87"/>
<polygon fill="black" stroke="black" points="870.17,-103.37 880.17,-99.87 870.17,-96.37 870.17,-103.37"/>
</g>
<!-- e74e7682&#45;9476&#45;4b0f&#45;bf8b&#45;42dce900b8e7 -->
<g id="node8" class="node">
<title>e74e7682&#45;9476&#45;4b0f&#45;bf8b&#45;42dce900b8e7</title>
<polygon fill="white" stroke="black" points="814,-36 416,-36 416,0 814,0 814,-36"/>
<text text-anchor="middle" x="615" y="-14.3" font-family="Helvetica,sans-Serif" font-size="14.00">▶ Run GitHub Actions for `sweepai/utils/ticket_utils.py`</text>
</g>
<!-- 7bf9d770&#45;ed7a&#45;4d48&#45;86a1&#45;bd1a9cb80514&#45;&gt;e74e7682&#45;9476&#45;4b0f&#45;bf8b&#45;42dce900b8e7 -->
<g id="edge3" class="edge">
<title>7bf9d770&#45;ed7a&#45;4d48&#45;86a1&#45;bd1a9cb80514&#45;&gt;e74e7682&#45;9476&#45;4b0f&#45;bf8b&#45;42dce900b8e7</title>
<path fill="none" stroke="black" stroke-dasharray="5,2" d="M615,-72.72C615,-64.27 615,-54.89 615,-46.36"/>
<polygon fill="black" stroke="black" points="618.5,-46.15 615,-36.15 611.5,-46.15 618.5,-46.15"/>
</g>
<!-- 7d6aa75c&#45;11b8&#45;41c6&#45;bf28&#45;c98bcc671471 -->
<g id="node6" class="node">
<title>7d6aa75c&#45;11b8&#45;41c6&#45;bf28&#45;c98bcc671471</title>
<ellipse fill="white" stroke="black" cx="1463" cy="-99.87" rx="185.94" ry="26.74"/>
<text text-anchor="middle" x="1463" y="-103.67" font-family="Helvetica,sans-Serif" font-size="14.00">▶ Create</text>
<text text-anchor="middle" x="1463" y="-88.67" font-family="Helvetica,sans-Serif" font-size="14.00">sweepai/agents/filter_agent_test.py</text>
</g>
<!-- 5b3f0c99&#45;3ce9&#45;4a3d&#45;a509&#45;f71b689cf5c1&#45;&gt;7d6aa75c&#45;11b8&#45;41c6&#45;bf28&#45;c98bcc671471 -->
<g id="edge6" class="edge">
<title>5b3f0c99&#45;3ce9&#45;4a3d&#45;a509&#45;f71b689cf5c1&#45;&gt;7d6aa75c&#45;11b8&#45;41c6&#45;bf28&#45;c98bcc671471</title>
<path fill="none" stroke="black" d="M1205.83,-99.87C1226.1,-99.87 1246.37,-99.87 1266.63,-99.87"/>
<polygon fill="black" stroke="black" points="1266.9,-103.37 1276.9,-99.87 1266.9,-96.37 1266.9,-103.37"/>
</g>
<!-- 44f6ab6b&#45;0452&#45;4531&#45;b2f0&#45;f0b2392e6ecd -->
<g id="node9" class="node">
<title>44f6ab6b&#45;0452&#45;4531&#45;b2f0&#45;f0b2392e6ecd</title>
<polygon fill="white" stroke="black" points="1253.5,-36 832.5,-36 832.5,0 1253.5,0 1253.5,-36"/>
<text text-anchor="middle" x="1043" y="-14.3" font-family="Helvetica,sans-Serif" font-size="14.00">▶ Run GitHub Actions for `sweepai/agents/filter_agent.py`</text>
</g>
<!-- 5b3f0c99&#45;3ce9&#45;4a3d&#45;a509&#45;f71b689cf5c1&#45;&gt;44f6ab6b&#45;0452&#45;4531&#45;b2f0&#45;f0b2392e6ecd -->
<g id="edge5" class="edge">
<title>5b3f0c99&#45;3ce9&#45;4a3d&#45;a509&#45;f71b689cf5c1&#45;&gt;44f6ab6b&#45;0452&#45;4531&#45;b2f0&#45;f0b2392e6ecd</title>
<path fill="none" stroke="black" stroke-dasharray="5,2" d="M1043,-72.72C1043,-64.27 1043,-54.89 1043,-46.36"/>
<polygon fill="black" stroke="black" points="1046.5,-46.15 1043,-36.15 1039.5,-46.15 1046.5,-46.15"/>
</g>
<!-- 7d6aa75c&#45;11b8&#45;41c6&#45;bf28&#45;c98bcc671471&#45;&gt;end -->
<g id="edge9" class="edge">
<title>7d6aa75c&#45;11b8&#45;41c6&#45;bf28&#45;c98bcc671471&#45;&gt;end</title>
<path fill="none" stroke="black" d="M1649.18,-99.87C1669.27,-99.87 1686.12,-99.87 1696.36,-99.87"/>
<polygon fill="black" stroke="black" points="1696.37,-103.37 1706.37,-99.87 1696.37,-96.37 1696.37,-103.37"/>
<text text-anchor="middle" x="1677.73" y="-106.67" font-family="Helvetica,sans-Serif" font-size="14.00">Finish</text>
</g>
<!-- 5ba9f2c6&#45;0a4a&#45;40db&#45;910f&#45;0a4b50c7e150 -->
<g id="node10" class="node">
<title>5ba9f2c6&#45;0a4a&#45;40db&#45;910f&#45;0a4b50c7e150</title>
<polygon fill="white" stroke="black" points="1726,-36 1272,-36 1272,0 1726,0 1726,-36"/>
<text text-anchor="middle" x="1499" y="-14.3" font-family="Helvetica,sans-Serif" font-size="14.00">▶ Run GitHub Actions for `sweepai/agents/filter_agent_test.py`</text>
</g>
<!-- 7d6aa75c&#45;11b8&#45;41c6&#45;bf28&#45;c98bcc671471&#45;&gt;5ba9f2c6&#45;0a4a&#45;40db&#45;910f&#45;0a4b50c7e150 -->
<g id="edge7" class="edge">
<title>7d6aa75c&#45;11b8&#45;41c6&#45;bf28&#45;c98bcc671471&#45;&gt;5ba9f2c6&#45;0a4a&#45;40db&#45;910f&#45;0a4b50c7e150</title>
<path fill="none" stroke="black" stroke-dasharray="5,2" d="M1474.79,-72.72C1478.72,-63.99 1483.11,-54.26 1487.05,-45.51"/>
<polygon fill="black" stroke="black" points="1490.35,-46.7 1491.27,-36.15 1483.97,-43.82 1490.35,-46.7"/>
</g>
</g>
</svg>
