<?xml version="1.0" encoding="UTF-8" standalone="no"?>
<!DOCTYPE svg PUBLIC "-//W3C//DTD SVG 1.1//EN"
 "http://www.w3.org/Graphics/SVG/1.1/DTD/svg11.dtd">
<!-- Generated by graphviz version 2.43.0 (0)
 -->
<!-- Title: %3 Pages: 1 -->
<svg width="1335pt" height="415pt"
 viewBox="0.00 0.00 1335.00 415.48" xmlns="http://www.w3.org/2000/svg" xmlns:xlink="http://www.w3.org/1999/xlink">
<g id="graph0" class="graph" transform="scale(1 1) rotate(0) translate(36 379.48)">
<title>%3</title>
<polygon fill="dimgray" stroke="transparent" points="-36,36 -36,-379.48 1299,-379.48 1299,36 -36,36"/>
<text text-anchor="middle" x="631.5" y="-328.28" font-family="Helvetica,sans-Serif" font-size="14.00">Sweep&#39;s Plan &amp; Progress</text>
<!-- start -->
<g id="node1" class="node">
<title>start</title>
</g>
<!-- d6f019eb&#45;5f3f&#45;4afa&#45;ab35&#45;363f0e75a3be -->
<g id="node3" class="node">
<title>d6f019eb&#45;5f3f&#45;4afa&#45;ab35&#45;363f0e75a3be</title>
<ellipse fill="#0ee832" stroke="black" cx="663.5" cy="-277.61" rx="195.74" ry="26.74"/>
<text text-anchor="middle" x="663.5" y="-281.41" font-family="Helvetica,sans-Serif" font-size="14.00">✓ Create</text>
<text text-anchor="middle" x="663.5" y="-266.41" font-family="Helvetica,sans-Serif" font-size="14.00">sweepai/agents/query_filter_agent.py</text>
</g>
<!-- start&#45;&gt;d6f019eb&#45;5f3f&#45;4afa&#45;ab35&#45;363f0e75a3be -->
<g id="edge7" class="edge">
<title>start&#45;&gt;d6f019eb&#45;5f3f&#45;4afa&#45;ab35&#45;363f0e75a3be</title>
<path fill="none" stroke="black" d="M416.21,-277.61C419.66,-277.61 435.41,-277.61 457.41,-277.61"/>
<polygon fill="black" stroke="black" points="457.57,-281.11 467.57,-277.61 457.57,-274.11 457.57,-281.11"/>
<text text-anchor="middle" x="441.82" y="-284.41" font-family="Helvetica,sans-Serif" font-size="14.00">Start</text>
</g>
<!-- end -->
<g id="node2" class="node">
<title>end</title>
</g>
<!-- 31e66f58&#45;ce09&#45;414f&#45;8b93&#45;524cfae51aa5 -->
<g id="node4" class="node">
<title>31e66f58&#45;ce09&#45;414f&#45;8b93&#45;524cfae51aa5</title>
<ellipse fill="white" stroke="black" cx="1058.5" cy="-277.61" rx="145.83" ry="26.74"/>
<text text-anchor="middle" x="1058.5" y="-281.41" font-family="Helvetica,sans-Serif" font-size="14.00">▶ Modify</text>
<text text-anchor="middle" x="1058.5" y="-266.41" font-family="Helvetica,sans-Serif" font-size="14.00">sweepai/utils/ticket_utils.py</text>
</g>
<!-- d6f019eb&#45;5f3f&#45;4afa&#45;ab35&#45;363f0e75a3be&#45;&gt;31e66f58&#45;ce09&#45;414f&#45;8b93&#45;524cfae51aa5 -->
<g id="edge5" class="edge">
<title>d6f019eb&#45;5f3f&#45;4afa&#45;ab35&#45;363f0e75a3be&#45;&gt;31e66f58&#45;ce09&#45;414f&#45;8b93&#45;524cfae51aa5</title>
<path fill="none" stroke="black" d="M859.46,-277.61C873.74,-277.61 888.03,-277.61 902.31,-277.61"/>
<polygon fill="black" stroke="black" points="902.72,-281.11 912.72,-277.61 902.72,-274.11 902.72,-281.11"/>
</g>
<!-- a0c5db29&#45;0d38&#45;4a0b&#45;ae98&#45;b6aa6d178923 -->
<g id="node5" class="node">
<title>a0c5db29&#45;0d38&#45;4a0b&#45;ae98&#45;b6aa6d178923</title>
<polygon fill="#ee0000" stroke="black" points="431,-213.74 0,-213.74 0,-177.74 431,-177.74 431,-213.74"/>
<text text-anchor="middle" x="215.5" y="-192.04" font-family="Helvetica,sans-Serif" font-size="14.00">✗ Ran sandbox for `sweepai/agents/query_filter_agent.py`.</text>
</g>
<!-- d6f019eb&#45;5f3f&#45;4afa&#45;ab35&#45;363f0e75a3be&#45;&gt;a0c5db29&#45;0d38&#45;4a0b&#45;ae98&#45;b6aa6d178923 -->
<g id="edge1" class="edge">
<title>d6f019eb&#45;5f3f&#45;4afa&#45;ab35&#45;363f0e75a3be&#45;&gt;a0c5db29&#45;0d38&#45;4a0b&#45;ae98&#45;b6aa6d178923</title>
<path fill="none" stroke="black" stroke-dasharray="5,2" d="M547.55,-255.94C477.49,-243.45 388.9,-227.65 320.84,-215.52"/>
<polygon fill="black" stroke="black" points="321.42,-212.07 310.96,-213.76 320.19,-218.96 321.42,-212.07"/>
</g>
<!-- 9079d455&#45;cfbb&#45;4058&#45;a2f5&#45;45793f47e14d -->
<g id="node6" class="node">
<title>9079d455&#45;cfbb&#45;4058&#45;a2f5&#45;45793f47e14d</title>
<polygon fill="white" stroke="black" points="878,-213.74 449,-213.74 449,-177.74 878,-177.74 878,-213.74"/>
<text text-anchor="middle" x="663.5" y="-192.04" font-family="Helvetica,sans-Serif" font-size="14.00">▶ Ran sandbox for `sweepai/agents/query_filter_agent.py`.</text>
</g>
<!-- d6f019eb&#45;5f3f&#45;4afa&#45;ab35&#45;363f0e75a3be&#45;&gt;9079d455&#45;cfbb&#45;4058&#45;a2f5&#45;45793f47e14d -->
<g id="edge4" class="edge">
<title>d6f019eb&#45;5f3f&#45;4afa&#45;ab35&#45;363f0e75a3be&#45;&gt;9079d455&#45;cfbb&#45;4058&#45;a2f5&#45;45793f47e14d</title>
<path fill="none" stroke="black" stroke-dasharray="5,2" d="M663.5,-250.46C663.5,-242.01 663.5,-232.63 663.5,-224.1"/>
<polygon fill="black" stroke="black" points="667,-223.89 663.5,-213.89 660,-223.89 667,-223.89"/>
</g>
<!-- 31e66f58&#45;ce09&#45;414f&#45;8b93&#45;524cfae51aa5&#45;&gt;end -->
<g id="edge8" class="edge">
<title>31e66f58&#45;ce09&#45;414f&#45;8b93&#45;524cfae51aa5&#45;&gt;end</title>
<path fill="none" stroke="black" d="M1204.31,-277.61C1224.07,-277.61 1241.12,-277.61 1251.57,-277.61"/>
<polygon fill="black" stroke="black" points="1251.85,-281.11 1261.85,-277.61 1251.85,-274.11 1251.85,-281.11"/>
<text text-anchor="middle" x="1233.08" y="-284.41" font-family="Helvetica,sans-Serif" font-size="14.00">Finish</text>
</g>
<!-- d6c06e39&#45;2ad0&#45;4f21&#45;a424&#45;48ecae4b5c38 -->
<g id="node7" class="node">
<title>d6c06e39&#45;2ad0&#45;4f21&#45;a424&#45;48ecae4b5c38</title>
<polygon fill="white" stroke="black" points="1255,-213.74 896,-213.74 896,-177.74 1255,-177.74 1255,-213.74"/>
<text text-anchor="middle" x="1075.5" y="-192.04" font-family="Helvetica,sans-Serif" font-size="14.00">▶ Ran sandbox for `sweepai/utils/ticket_utils.py`.</text>
</g>
<!-- 31e66f58&#45;ce09&#45;414f&#45;8b93&#45;524cfae51aa5&#45;&gt;d6c06e39&#45;2ad0&#45;4f21&#45;a424&#45;48ecae4b5c38 -->
<g id="edge6" class="edge">
<title>31e66f58&#45;ce09&#45;414f&#45;8b93&#45;524cfae51aa5&#45;&gt;d6c06e39&#45;2ad0&#45;4f21&#45;a424&#45;48ecae4b5c38</title>
<path fill="none" stroke="black" stroke-dasharray="5,2" d="M1064.07,-250.46C1065.88,-241.92 1067.91,-232.42 1069.74,-223.82"/>
<polygon fill="black" stroke="black" points="1073.19,-224.4 1071.85,-213.89 1066.35,-222.94 1073.19,-224.4"/>
</g>
<!-- 310ee237&#45;ef71&#45;4f91&#45;98c3&#45;1dfa8e7056d8 -->
<g id="node8" class="node">
<title>310ee237&#45;ef71&#45;4f91&#45;98c3&#45;1dfa8e7056d8</title>
<ellipse fill="yellow" stroke="black" cx="215.5" cy="-99.87" rx="82.05" ry="26.74"/>
<text text-anchor="middle" x="215.5" y="-103.67" font-family="Helvetica,sans-Serif" font-size="14.00">⋯ Modify</text>
<text text-anchor="middle" x="215.5" y="-88.67" font-family="Helvetica,sans-Serif" font-size="14.00">pyproject.toml</text>
</g>
<!-- a0c5db29&#45;0d38&#45;4a0b&#45;ae98&#45;b6aa6d178923&#45;&gt;310ee237&#45;ef71&#45;4f91&#45;98c3&#45;1dfa8e7056d8 -->
<g id="edge2" class="edge">
<title>a0c5db29&#45;0d38&#45;4a0b&#45;ae98&#45;b6aa6d178923&#45;&gt;310ee237&#45;ef71&#45;4f91&#45;98c3&#45;1dfa8e7056d8</title>
<path fill="none" stroke="black" d="M215.5,-177.52C215.5,-166.22 215.5,-151.01 215.5,-137.12"/>
<polygon fill="black" stroke="black" points="219,-136.84 215.5,-126.84 212,-136.84 219,-136.84"/>
<text text-anchor="middle" x="313" y="-148.54" font-family="Helvetica,sans-Serif" font-size="14.00">Additional changes required</text>
</g>
<!-- 4eca194a&#45;93a3&#45;4a90&#45;92b2&#45;bac25bf3e2fe -->
<g id="node9" class="node">
<title>4eca194a&#45;93a3&#45;4a90&#45;92b2&#45;bac25bf3e2fe</title>
<polygon fill="white" stroke="black" points="350,-36 81,-36 81,0 350,0 350,-36"/>
<text text-anchor="middle" x="215.5" y="-14.3" font-family="Helvetica,sans-Serif" font-size="14.00">▶ Ran sandbox for `pyproject.toml`.</text>
</g>
<!-- 310ee237&#45;ef71&#45;4f91&#45;98c3&#45;1dfa8e7056d8&#45;&gt;4eca194a&#45;93a3&#45;4a90&#45;92b2&#45;bac25bf3e2fe -->
<g id="edge3" class="edge">
<title>310ee237&#45;ef71&#45;4f91&#45;98c3&#45;1dfa8e7056d8&#45;&gt;4eca194a&#45;93a3&#45;4a90&#45;92b2&#45;bac25bf3e2fe</title>
<path fill="none" stroke="black" stroke-dasharray="5,2" d="M215.5,-72.72C215.5,-64.27 215.5,-54.89 215.5,-46.36"/>
<polygon fill="black" stroke="black" points="219,-46.15 215.5,-36.15 212,-46.15 219,-46.15"/>
</g>
</g>
</svg>
