<?xml version="1.0" encoding="UTF-8" standalone="no"?>
<!DOCTYPE svg PUBLIC "-//W3C//DTD SVG 1.1//EN"
 "http://www.w3.org/Graphics/SVG/1.1/DTD/svg11.dtd">
<!-- Generated by graphviz version 8.0.3 (0)
 -->
<!-- Pages: 1 -->
<svg width="636pt" height="415pt"
 viewBox="0.00 0.00 636.00 415.48" xmlns="http://www.w3.org/2000/svg" xmlns:xlink="http://www.w3.org/1999/xlink">
<g id="graph0" class="graph" transform="scale(1 1) rotate(0) translate(36 379.48)">
<polygon fill="dimgray" stroke="none" points="-36,36 -36,-379.48 600,-379.48 600,36 -36,36"/>
<text text-anchor="middle" x="282" y="-328.28" font-family="Helvetica,sans-Serif" font-size="14.00">Sweep&#39;s Plan &amp; Progress</text>
<!-- start -->
<g id="node1" class="node">
<title>start</title>
</g>
<!-- f3f84fe2&#45;503f&#45;41ff&#45;9aae&#45;e9587899f708 -->
<g id="node3" class="node">
<title>f3f84fe2&#45;503f&#45;41ff&#45;9aae&#45;e9587899f708</title>
<ellipse fill="#0ee832" stroke="black" cx="349" cy="-277.61" rx="84.71" ry="26.74"/>
<text text-anchor="middle" x="349" y="-281.41" font-family="Helvetica,sans-Serif" font-size="14.00">✓ Modify</text>
<text text-anchor="middle" x="349" y="-266.41" font-family="Helvetica,sans-Serif" font-size="14.00">sweepai/api.py</text>
</g>
<!-- start&#45;&gt;f3f84fe2&#45;503f&#45;41ff&#45;9aae&#45;e9587899f708 -->
<g id="edge5" class="edge">
<title>start&#45;&gt;f3f84fe2&#45;503f&#45;41ff&#45;9aae&#45;e9587899f708</title>
<path fill="none" stroke="black" d="M212.39,-277.61C215.15,-277.61 232.04,-277.61 253.06,-277.61"/>
<polygon fill="black" stroke="black" points="253.03,-281.11 263.03,-277.61 253.03,-274.11 253.03,-281.11"/>
<text text-anchor="middle" x="238.32" y="-284.41" font-family="Helvetica,sans-Serif" font-size="14.00">Start</text>
</g>
<!-- end -->
<g id="node2" class="node">
<title>end</title>
</g>
<!-- f3f84fe2&#45;503f&#45;41ff&#45;9aae&#45;e9587899f708&#45;&gt;end -->
<g id="edge6" class="edge">
<title>f3f84fe2&#45;503f&#45;41ff&#45;9aae&#45;e9587899f708&#45;&gt;end</title>
<path fill="none" stroke="black" d="M433.84,-277.61C452.56,-277.61 470.01,-277.61 480.82,-277.61"/>
<polygon fill="black" stroke="black" points="480.69,-281.11 490.69,-277.61 480.69,-274.11 480.69,-281.11"/>
<text text-anchor="middle" x="462.68" y="-284.41" font-family="Helvetica,sans-Serif" font-size="14.00">Finish</text>
</g>
<!-- 632b8116&#45;882c&#45;49b4&#45;a72b&#45;688f33c794e9 -->
<g id="node4" class="node">
<title>632b8116&#45;882c&#45;49b4&#45;a72b&#45;688f33c794e9</title>
<polygon fill="#ee0000" stroke="black" points="274,-213.74 0,-213.74 0,-177.74 274,-177.74 274,-213.74"/>
<text text-anchor="middle" x="137" y="-192.04" font-family="Helvetica,sans-Serif" font-size="14.00">✗ Ran sandbox for `sweepai/api.py`.</text>
</g>
<!-- f3f84fe2&#45;503f&#45;41ff&#45;9aae&#45;e9587899f708&#45;&gt;632b8116&#45;882c&#45;49b4&#45;a72b&#45;688f33c794e9 -->
<g id="edge1" class="edge">
<title>f3f84fe2&#45;503f&#45;41ff&#45;9aae&#45;e9587899f708&#45;&gt;632b8116&#45;882c&#45;49b4&#45;a72b&#45;688f33c794e9</title>
<path fill="none" stroke="black" stroke-dasharray="5,2" d="M295.5,-256.46C264.29,-244.7 224.95,-229.88 193.27,-217.94"/>
<polygon fill="black" stroke="black" points="194.87,-214.43 184.28,-214.18 192.4,-220.98 194.87,-214.43"/>
</g>
<!-- 1d93f568&#45;35f7&#45;4e63&#45;b0a1&#45;0838a1a6ec57 -->
<g id="node5" class="node">
<title>1d93f568&#45;35f7&#45;4e63&#45;b0a1&#45;0838a1a6ec57</title>
<polygon fill="white" stroke="black" points="564,-213.74 292,-213.74 292,-177.74 564,-177.74 564,-213.74"/>
<text text-anchor="middle" x="428" y="-192.04" font-family="Helvetica,sans-Serif" font-size="14.00">▶ Ran sandbox for `sweepai/api.py`.</text>
</g>
<!-- f3f84fe2&#45;503f&#45;41ff&#45;9aae&#45;e9587899f708&#45;&gt;1d93f568&#45;35f7&#45;4e63&#45;b0a1&#45;0838a1a6ec57 -->
<g id="edge4" class="edge">
<title>f3f84fe2&#45;503f&#45;41ff&#45;9aae&#45;e9587899f708&#45;&gt;1d93f568&#45;35f7&#45;4e63&#45;b0a1&#45;0838a1a6ec57</title>
<path fill="none" stroke="black" stroke-dasharray="5,2" d="M373.56,-251.78C383.05,-242.19 393.88,-231.24 403.37,-221.64"/>
<polygon fill="black" stroke="black" points="405.42,-224.53 409.96,-214.96 400.44,-219.61 405.42,-224.53"/>
</g>
<!-- 76504f7b&#45;071e&#45;4871&#45;a604&#45;de15a0bd171f -->
<g id="node6" class="node">
<title>76504f7b&#45;071e&#45;4871&#45;a604&#45;de15a0bd171f</title>
<ellipse fill="yellow" stroke="black" cx="137" cy="-99.87" rx="84.71" ry="26.74"/>
<text text-anchor="middle" x="137" y="-103.67" font-family="Helvetica,sans-Serif" font-size="14.00">⋯ Modify</text>
<text text-anchor="middle" x="137" y="-88.67" font-family="Helvetica,sans-Serif" font-size="14.00">sweepai/api.py</text>
</g>
<!-- 632b8116&#45;882c&#45;49b4&#45;a72b&#45;688f33c794e9&#45;&gt;76504f7b&#45;071e&#45;4871&#45;a604&#45;de15a0bd171f -->
<g id="edge2" class="edge">
<title>632b8116&#45;882c&#45;49b4&#45;a72b&#45;688f33c794e9&#45;&gt;76504f7b&#45;071e&#45;4871&#45;a604&#45;de15a0bd171f</title>
<path fill="none" stroke="black" d="M137,-177.52C137,-166.33 137,-151.31 137,-137.53"/>
<polygon fill="black" stroke="black" points="140.5,-137.84 137,-127.84 133.5,-137.84 140.5,-137.84"/>
<text text-anchor="middle" x="234.5" y="-148.54" font-family="Helvetica,sans-Serif" font-size="14.00">Additional changes required</text>
</g>
<!-- 19845ef2&#45;ed00&#45;41ce&#45;bbdf&#45;428c374e3a35 -->
<g id="node7" class="node">
<title>19845ef2&#45;ed00&#45;41ce&#45;bbdf&#45;428c374e3a35</title>
<polygon fill="white" stroke="black" points="273,-36 1,-36 1,0 273,0 273,-36"/>
<text text-anchor="middle" x="137" y="-14.3" font-family="Helvetica,sans-Serif" font-size="14.00">▶ Ran sandbox for `sweepai/api.py`.</text>
</g>
<!-- 76504f7b&#45;071e&#45;4871&#45;a604&#45;de15a0bd171f&#45;&gt;19845ef2&#45;ed00&#45;41ce&#45;bbdf&#45;428c374e3a35 -->
<g id="edge3" class="edge">
<title>76504f7b&#45;071e&#45;4871&#45;a604&#45;de15a0bd171f&#45;&gt;19845ef2&#45;ed00&#45;41ce&#45;bbdf&#45;428c374e3a35</title>
<path fill="none" stroke="black" stroke-dasharray="5,2" d="M137,-72.72C137,-64.46 137,-55.31 137,-46.93"/>
<polygon fill="black" stroke="black" points="140.5,-47.15 137,-37.15 133.5,-47.15 140.5,-47.15"/>
</g>
</g>
</svg>
