<?xml version="1.0" encoding="UTF-8" standalone="no"?>
<!DOCTYPE svg PUBLIC "-//W3C//DTD SVG 1.1//EN"
 "http://www.w3.org/Graphics/SVG/1.1/DTD/svg11.dtd">
<!-- Generated by graphviz version 2.43.0 (0)
 -->
<!-- Title: %3 Pages: 1 -->
<svg width="836pt" height="165pt"
 viewBox="0.00 0.00 836.00 164.74" xmlns="http://www.w3.org/2000/svg" xmlns:xlink="http://www.w3.org/1999/xlink">
<g id="graph0" class="graph" transform="scale(1 1) rotate(0) translate(36 128.74)">
<title>%3</title>
<polygon fill="dimgray" stroke="transparent" points="-36,36 -36,-128.74 800,-128.74 800,36 -36,36"/>
<text text-anchor="middle" x="382" y="-77.54" font-family="Helvetica,sans-Serif" font-size="14.00">Sweep&#39;s Plan &amp; Progress</text>
<!-- start -->
<g id="node1" class="node">
<title>start</title>
</g>
<!-- e054e5bc&#45;2e1f&#45;4e42&#45;884e&#45;23f10fa2c21d -->
<g id="node3" class="node">
<title>e054e5bc&#45;2e1f&#45;4e42&#45;884e&#45;23f10fa2c21d</title>
<ellipse fill="#0ee832" stroke="black" cx="215.5" cy="-26.87" rx="162.77" ry="26.74"/>
<text text-anchor="middle" x="215.5" y="-30.67" font-family="Helvetica,sans-Serif" font-size="14.00">✓ Create</text>
<text text-anchor="middle" x="215.5" y="-15.67" font-family="Helvetica,sans-Serif" font-size="14.00">sweepai/agents/filter_agent.py</text>
</g>
<!-- start&#45;&gt;e054e5bc&#45;2e1f&#45;4e42&#45;884e&#45;23f10fa2c21d -->
<g id="edge2" class="edge">
<title>start&#45;&gt;e054e5bc&#45;2e1f&#45;4e42&#45;884e&#45;23f10fa2c21d</title>
<path fill="none" stroke="black" d="M1.12,-26.87C4.4,-26.87 20.5,-26.87 42.52,-26.87"/>
<polygon fill="black" stroke="black" points="42.67,-30.37 52.67,-26.87 42.67,-23.37 42.67,-30.37"/>
<text text-anchor="middle" x="26.93" y="-33.67" font-family="Helvetica,sans-Serif" font-size="14.00">Start</text>
</g>
<!-- end -->
<g id="node2" class="node">
<title>end</title>
</g>
<!-- 19a2148a&#45;6b39&#45;4903&#45;aba5&#45;e93e519d779d -->
<g id="node4" class="node">
<title>19a2148a&#45;6b39&#45;4903&#45;aba5&#45;e93e519d779d</title>
<ellipse fill="yellow" stroke="black" cx="559.5" cy="-26.87" rx="145.83" ry="26.74"/>
<text text-anchor="middle" x="559.5" y="-30.67" font-family="Helvetica,sans-Serif" font-size="14.00">⋯ Modify</text>
<text text-anchor="middle" x="559.5" y="-15.67" font-family="Helvetica,sans-Serif" font-size="14.00">sweepai/utils/ticket_utils.py</text>
</g>
<!-- e054e5bc&#45;2e1f&#45;4e42&#45;884e&#45;23f10fa2c21d&#45;&gt;19a2148a&#45;6b39&#45;4903&#45;aba5&#45;e93e519d779d -->
<g id="edge1" class="edge">
<title>e054e5bc&#45;2e1f&#45;4e42&#45;884e&#45;23f10fa2c21d&#45;&gt;19a2148a&#45;6b39&#45;4903&#45;aba5&#45;e93e519d779d</title>
<path fill="none" stroke="black" d="M378.43,-26.87C386.81,-26.87 395.19,-26.87 403.57,-26.87"/>
<polygon fill="black" stroke="black" points="403.8,-30.37 413.79,-26.87 403.79,-23.37 403.8,-30.37"/>
</g>
<!-- 19a2148a&#45;6b39&#45;4903&#45;aba5&#45;e93e519d779d&#45;&gt;end -->
<g id="edge3" class="edge">
<title>19a2148a&#45;6b39&#45;4903&#45;aba5&#45;e93e519d779d&#45;&gt;end</title>
<path fill="none" stroke="black" d="M705.31,-26.87C725.07,-26.87 742.12,-26.87 752.57,-26.87"/>
<polygon fill="black" stroke="black" points="752.85,-30.37 762.85,-26.87 752.85,-23.37 752.85,-30.37"/>
<text text-anchor="middle" x="734.08" y="-33.67" font-family="Helvetica,sans-Serif" font-size="14.00">Finish</text>
</g>
</g>
</svg>
