<?xml version="1.0" encoding="UTF-8" standalone="no"?>
<!DOCTYPE svg PUBLIC "-//W3C//DTD SVG 1.1//EN"
 "http://www.w3.org/Graphics/SVG/1.1/DTD/svg11.dtd">
<!-- Generated by graphviz version 2.43.0 (0)
 -->
<!-- Title: %3 Pages: 1 -->
<svg width="910pt" height="238pt"
 viewBox="0.00 0.00 910.00 237.74" xmlns="http://www.w3.org/2000/svg" xmlns:xlink="http://www.w3.org/1999/xlink">
<g id="graph0" class="graph" transform="scale(1 1) rotate(0) translate(36 201.74)">
<title>%3</title>
<polygon fill="dimgray" stroke="transparent" points="-36,36 -36,-201.74 874,-201.74 874,36 -36,36"/>
<text text-anchor="middle" x="419" y="-150.54" font-family="Helvetica,sans-Serif" font-size="14.00">Sweep&#39;s Plan &amp; Progress</text>
<!-- start -->
<g id="node1" class="node">
<title>start</title>
</g>
<!-- 4dc665b2&#45;d513&#45;4714&#45;a3ed&#45;d49bae03ae4f -->
<g id="node3" class="node">
<title>4dc665b2&#45;d513&#45;4714&#45;a3ed&#45;d49bae03ae4f</title>
<ellipse fill="#0ee832" stroke="black" cx="253" cy="-99.87" rx="162.77" ry="26.74"/>
<text text-anchor="middle" x="253" y="-103.67" font-family="Helvetica,sans-Serif" font-size="14.00">✓ Create</text>
<text text-anchor="middle" x="253" y="-88.67" font-family="Helvetica,sans-Serif" font-size="14.00">sweepai/agents/filter_agent.py</text>
</g>
<!-- start&#45;&gt;4dc665b2&#45;d513&#45;4714&#45;a3ed&#45;d49bae03ae4f -->
<g id="edge4" class="edge">
<title>start&#45;&gt;4dc665b2&#45;d513&#45;4714&#45;a3ed&#45;d49bae03ae4f</title>
<path fill="none" stroke="black" d="M38.62,-99.87C41.9,-99.87 58,-99.87 80.02,-99.87"/>
<polygon fill="black" stroke="black" points="80.17,-103.37 90.17,-99.87 80.17,-96.37 80.17,-103.37"/>
<text text-anchor="middle" x="64.43" y="-106.67" font-family="Helvetica,sans-Serif" font-size="14.00">Start</text>
</g>
<!-- end -->
<g id="node2" class="node">
<title>end</title>
</g>
<!-- 2a63c390&#45;0b7c&#45;443b&#45;bc26&#45;308f86b7f286 -->
<g id="node4" class="node">
<title>2a63c390&#45;0b7c&#45;443b&#45;bc26&#45;308f86b7f286</title>
<ellipse fill="white" stroke="black" cx="618" cy="-99.87" rx="145.83" ry="26.74"/>
<text text-anchor="middle" x="618" y="-103.67" font-family="Helvetica,sans-Serif" font-size="14.00">▶ Modify</text>
<text text-anchor="middle" x="618" y="-88.67" font-family="Helvetica,sans-Serif" font-size="14.00">sweepai/utils/ticket_utils.py</text>
</g>
<!-- 4dc665b2&#45;d513&#45;4714&#45;a3ed&#45;d49bae03ae4f&#45;&gt;2a63c390&#45;0b7c&#45;443b&#45;bc26&#45;308f86b7f286 -->
<g id="edge2" class="edge">
<title>4dc665b2&#45;d513&#45;4714&#45;a3ed&#45;d49bae03ae4f&#45;&gt;2a63c390&#45;0b7c&#45;443b&#45;bc26&#45;308f86b7f286</title>
<path fill="none" stroke="black" d="M415.9,-99.87C431.22,-99.87 446.55,-99.87 461.88,-99.87"/>
<polygon fill="black" stroke="black" points="461.95,-103.37 471.95,-99.87 461.95,-96.37 461.95,-103.37"/>
</g>
<!-- 5681eecf&#45;080e&#45;4f20&#45;ba01&#45;9610e7944434 -->
<g id="node5" class="node">
<title>5681eecf&#45;080e&#45;4f20&#45;ba01&#45;9610e7944434</title>
<polygon fill="#ee0000" stroke="black" points="422,-36 0,-36 0,0 422,0 422,-36"/>
<text text-anchor="middle" x="211" y="-14.3" font-family="Helvetica,sans-Serif" font-size="14.00">✗ Run GitHub Actions for `sweepai/agents/filter_agent.py`</text>
</g>
<!-- 4dc665b2&#45;d513&#45;4714&#45;a3ed&#45;d49bae03ae4f&#45;&gt;5681eecf&#45;080e&#45;4f20&#45;ba01&#45;9610e7944434 -->
<g id="edge1" class="edge">
<title>4dc665b2&#45;d513&#45;4714&#45;a3ed&#45;d49bae03ae4f&#45;&gt;5681eecf&#45;080e&#45;4f20&#45;ba01&#45;9610e7944434</title>
<path fill="none" stroke="black" stroke-dasharray="5,2" d="M239.25,-72.72C234.61,-63.9 229.43,-54.05 224.79,-45.23"/>
<polygon fill="black" stroke="black" points="227.77,-43.37 220.02,-36.15 221.57,-46.63 227.77,-43.37"/>
</g>
<!-- 2a63c390&#45;0b7c&#45;443b&#45;bc26&#45;308f86b7f286&#45;&gt;end -->
<g id="edge5" class="edge">
<title>2a63c390&#45;0b7c&#45;443b&#45;bc26&#45;308f86b7f286&#45;&gt;end</title>
<path fill="none" stroke="black" d="M763.81,-99.87C783.57,-99.87 800.62,-99.87 811.07,-99.87"/>
<polygon fill="black" stroke="black" points="811.35,-103.37 821.35,-99.87 811.35,-96.37 811.35,-103.37"/>
<text text-anchor="middle" x="792.58" y="-106.67" font-family="Helvetica,sans-Serif" font-size="14.00">Finish</text>
</g>
<!-- 927efd7e&#45;1e33&#45;447c&#45;a2bc&#45;3c895391a71d -->
<g id="node6" class="node">
<title>927efd7e&#45;1e33&#45;447c&#45;a2bc&#45;3c895391a71d</title>
<polygon fill="white" stroke="black" points="838,-36 440,-36 440,0 838,0 838,-36"/>
<text text-anchor="middle" x="639" y="-14.3" font-family="Helvetica,sans-Serif" font-size="14.00">▶ Run GitHub Actions for `sweepai/utils/ticket_utils.py`</text>
</g>
<!-- 2a63c390&#45;0b7c&#45;443b&#45;bc26&#45;308f86b7f286&#45;&gt;927efd7e&#45;1e33&#45;447c&#45;a2bc&#45;3c895391a71d -->
<g id="edge3" class="edge">
<title>2a63c390&#45;0b7c&#45;443b&#45;bc26&#45;308f86b7f286&#45;&gt;927efd7e&#45;1e33&#45;447c&#45;a2bc&#45;3c895391a71d</title>
<path fill="none" stroke="black" stroke-dasharray="5,2" d="M624.88,-72.72C627.12,-64.18 629.62,-54.68 631.88,-46.08"/>
<polygon fill="black" stroke="black" points="635.33,-46.71 634.49,-36.15 628.56,-44.93 635.33,-46.71"/>
</g>
</g>
</svg>
