<?xml version="1.0" encoding="UTF-8" standalone="no"?>
<!DOCTYPE svg PUBLIC "-//W3C//DTD SVG 1.1//EN"
 "http://www.w3.org/Graphics/SVG/1.1/DTD/svg11.dtd">
<!-- Generated by graphviz version 2.43.0 (0)
 -->
<!-- Title: %3 Pages: 1 -->
<svg width="503pt" height="238pt"
 viewBox="0.00 0.00 503.00 237.74" xmlns="http://www.w3.org/2000/svg" xmlns:xlink="http://www.w3.org/1999/xlink">
<g id="graph0" class="graph" transform="scale(1 1) rotate(0) translate(36 201.74)">
<title>%3</title>
<polygon fill="dimgray" stroke="transparent" points="-36,36 -36,-201.74 467,-201.74 467,36 -36,36"/>
<text text-anchor="middle" x="215.5" y="-150.54" font-family="Helvetica,sans-Serif" font-size="14.00">Sweep&#39;s Plan &amp; Progress</text>
<!-- start -->
<g id="node1" class="node">
<title>start</title>
</g>
<!-- 3b51523a&#45;5574&#45;4d3e&#45;b7d4&#45;4adcadd2ed50 -->
<g id="node3" class="node">
<title>3b51523a&#45;5574&#45;4d3e&#45;b7d4&#45;4adcadd2ed50</title>
<ellipse fill="yellow" stroke="black" cx="212.5" cy="-99.87" rx="159.61" ry="26.74"/>
<text text-anchor="middle" x="212.5" y="-103.67" font-family="Helvetica,sans-Serif" font-size="14.00">⋯ Modify</text>
<text text-anchor="middle" x="212.5" y="-88.67" font-family="Helvetica,sans-Serif" font-size="14.00">sweepai/handlers/on_ticket.py</text>
</g>
<!-- start&#45;&gt;3b51523a&#45;5574&#45;4d3e&#45;b7d4&#45;4adcadd2ed50 -->
<g id="edge2" class="edge">
<title>start&#45;&gt;3b51523a&#45;5574&#45;4d3e&#45;b7d4&#45;4adcadd2ed50</title>
<path fill="none" stroke="black" d="M1.11,-99.87C4.37,-99.87 20.43,-99.87 42.36,-99.87"/>
<polygon fill="black" stroke="black" points="42.46,-103.37 52.46,-99.87 42.46,-96.37 42.46,-103.37"/>
<text text-anchor="middle" x="26.85" y="-106.67" font-family="Helvetica,sans-Serif" font-size="14.00">Start</text>
</g>
<!-- end -->
<g id="node2" class="node">
<title>end</title>
</g>
<!-- 3b51523a&#45;5574&#45;4d3e&#45;b7d4&#45;4adcadd2ed50&#45;&gt;end -->
<g id="edge3" class="edge">
<title>3b51523a&#45;5574&#45;4d3e&#45;b7d4&#45;4adcadd2ed50&#45;&gt;end</title>
<path fill="none" stroke="black" d="M372.37,-99.87C392.29,-99.87 409.28,-99.87 419.66,-99.87"/>
<polygon fill="black" stroke="black" points="419.85,-103.37 429.85,-99.87 419.85,-96.37 419.85,-103.37"/>
<text text-anchor="middle" x="401.15" y="-106.67" font-family="Helvetica,sans-Serif" font-size="14.00">Finish</text>
</g>
<!-- 2b8becac&#45;5c2a&#45;4128&#45;b899&#45;0ae057c08e6c -->
<g id="node4" class="node">
<title>2b8becac&#45;5c2a&#45;4128&#45;b899&#45;0ae057c08e6c</title>
<polygon fill="white" stroke="black" points="421,-36 4,-36 4,0 421,0 421,-36"/>
<text text-anchor="middle" x="212.5" y="-14.3" font-family="Helvetica,sans-Serif" font-size="14.00">▶ Run GitHub Actions for `sweepai/handlers/on_ticket.py`</text>
</g>
<!-- 3b51523a&#45;5574&#45;4d3e&#45;b7d4&#45;4adcadd2ed50&#45;&gt;2b8becac&#45;5c2a&#45;4128&#45;b899&#45;0ae057c08e6c -->
<g id="edge1" class="edge">
<title>3b51523a&#45;5574&#45;4d3e&#45;b7d4&#45;4adcadd2ed50&#45;&gt;2b8becac&#45;5c2a&#45;4128&#45;b899&#45;0ae057c08e6c</title>
<path fill="none" stroke="black" stroke-dasharray="5,2" d="M212.5,-72.72C212.5,-64.27 212.5,-54.89 212.5,-46.36"/>
<polygon fill="black" stroke="black" points="216,-46.15 212.5,-36.15 209,-46.15 216,-46.15"/>
</g>
</g>
</svg>
