<?xml version="1.0" encoding="UTF-8" standalone="no"?>
<!DOCTYPE svg PUBLIC "-//W3C//DTD SVG 1.1//EN"
 "http://www.w3.org/Graphics/SVG/1.1/DTD/svg11.dtd">
<!-- Generated by graphviz version 2.43.0 (0)
 -->
<!-- Title: %3 Pages: 1 -->
<svg width="533pt" height="238pt"
 viewBox="0.00 0.00 533.00 237.74" xmlns="http://www.w3.org/2000/svg" xmlns:xlink="http://www.w3.org/1999/xlink">
<g id="graph0" class="graph" transform="scale(1 1) rotate(0) translate(36 201.74)">
<title>%3</title>
<polygon fill="dimgray" stroke="transparent" points="-36,36 -36,-201.74 497,-201.74 497,36 -36,36"/>
<text text-anchor="middle" x="230.5" y="-150.54" font-family="Helvetica,sans-Serif" font-size="14.00">Sweep&#39;s Plan &amp; Progress</text>
<!-- start -->
<g id="node1" class="node">
<title>start</title>
</g>
<!-- 52db4cdc&#45;3143&#45;4b38&#45;ad13&#45;d489b8aae6f0 -->
<g id="node3" class="node">
<title>52db4cdc&#45;3143&#45;4b38&#45;ad13&#45;d489b8aae6f0</title>
<ellipse fill="#0ee832" stroke="black" cx="227.5" cy="-99.87" rx="175.23" ry="26.74"/>
<text text-anchor="middle" x="227.5" y="-103.67" font-family="Helvetica,sans-Serif" font-size="14.00">✓ Modify</text>
<text text-anchor="middle" x="227.5" y="-88.67" font-family="Helvetica,sans-Serif" font-size="14.00">sweepai/utils/docker_utils_test.py</text>
</g>
<!-- start&#45;&gt;52db4cdc&#45;3143&#45;4b38&#45;ad13&#45;d489b8aae6f0 -->
<g id="edge2" class="edge">
<title>start&#45;&gt;52db4cdc&#45;3143&#45;4b38&#45;ad13&#45;d489b8aae6f0</title>
<path fill="none" stroke="black" d="M1.15,-99.87C4.47,-99.87 20.2,-99.87 41.94,-99.87"/>
<polygon fill="black" stroke="black" points="41.97,-103.37 51.97,-99.87 41.97,-96.37 41.97,-103.37"/>
<text text-anchor="middle" x="26.57" y="-106.67" font-family="Helvetica,sans-Serif" font-size="14.00">Start</text>
</g>
<!-- end -->
<g id="node2" class="node">
<title>end</title>
</g>
<!-- 52db4cdc&#45;3143&#45;4b38&#45;ad13&#45;d489b8aae6f0&#45;&gt;end -->
<g id="edge3" class="edge">
<title>52db4cdc&#45;3143&#45;4b38&#45;ad13&#45;d489b8aae6f0&#45;&gt;end</title>
<path fill="none" stroke="black" d="M402.9,-99.87C422.83,-99.87 439.63,-99.87 449.85,-99.87"/>
<polygon fill="black" stroke="black" points="449.87,-103.37 459.87,-99.87 449.87,-96.37 449.87,-103.37"/>
<text text-anchor="middle" x="431.43" y="-106.67" font-family="Helvetica,sans-Serif" font-size="14.00">Finish</text>
</g>
<!-- 3040e35d&#45;e860&#45;4deb&#45;beef&#45;9c7a1fe312e7 -->
<g id="node4" class="node">
<title>3040e35d&#45;e860&#45;4deb&#45;beef&#45;9c7a1fe312e7</title>
<polygon fill="yellow" stroke="black" points="449,-36 6,-36 6,0 449,0 449,-36"/>
<text text-anchor="middle" x="227.5" y="-14.3" font-family="Helvetica,sans-Serif" font-size="14.00">⋯ Run GitHub Actions for `sweepai/utils/docker_utils_test.py`</text>
</g>
<!-- 52db4cdc&#45;3143&#45;4b38&#45;ad13&#45;d489b8aae6f0&#45;&gt;3040e35d&#45;e860&#45;4deb&#45;beef&#45;9c7a1fe312e7 -->
<g id="edge1" class="edge">
<title>52db4cdc&#45;3143&#45;4b38&#45;ad13&#45;d489b8aae6f0&#45;&gt;3040e35d&#45;e860&#45;4deb&#45;beef&#45;9c7a1fe312e7</title>
<path fill="none" stroke="black" stroke-dasharray="5,2" d="M227.5,-72.72C227.5,-64.27 227.5,-54.89 227.5,-46.36"/>
<polygon fill="black" stroke="black" points="231,-46.15 227.5,-36.15 224,-46.15 231,-46.15"/>
</g>
</g>
</svg>
