<?xml version="1.0" encoding="UTF-8" standalone="no"?>
<!DOCTYPE svg PUBLIC "-//W3C//DTD SVG 1.1//EN"
 "http://www.w3.org/Graphics/SVG/1.1/DTD/svg11.dtd">
<!-- Generated by graphviz version 2.43.0 (0)
 -->
<!-- Title: %3 Pages: 1 -->
<svg width="914pt" height="238pt"
 viewBox="0.00 0.00 913.50 237.74" xmlns="http://www.w3.org/2000/svg" xmlns:xlink="http://www.w3.org/1999/xlink">
<g id="graph0" class="graph" transform="scale(1 1) rotate(0) translate(36 201.74)">
<title>%3</title>
<polygon fill="dimgray" stroke="transparent" points="-36,36 -36,-201.74 877.5,-201.74 877.5,36 -36,36"/>
<text text-anchor="middle" x="420.75" y="-150.54" font-family="Helvetica,sans-Serif" font-size="14.00">Sweep&#39;s Plan &amp; Progress</text>
<!-- start -->
<g id="node1" class="node">
<title>start</title>
</g>
<!-- d835ddbd&#45;37b6&#45;41a7&#45;b1e1&#45;fa28c94820cc -->
<g id="node3" class="node">
<title>d835ddbd&#45;37b6&#45;41a7&#45;b1e1&#45;fa28c94820cc</title>
<ellipse fill="#0ee832" stroke="black" cx="254" cy="-99.87" rx="162.77" ry="26.74"/>
<text text-anchor="middle" x="254" y="-103.67" font-family="Helvetica,sans-Serif" font-size="14.00">✓ Create</text>
<text text-anchor="middle" x="254" y="-88.67" font-family="Helvetica,sans-Serif" font-size="14.00">sweepai/agents/filter_agent.py</text>
</g>
<!-- start&#45;&gt;d835ddbd&#45;37b6&#45;41a7&#45;b1e1&#45;fa28c94820cc -->
<g id="edge4" class="edge">
<title>start&#45;&gt;d835ddbd&#45;37b6&#45;41a7&#45;b1e1&#45;fa28c94820cc</title>
<path fill="none" stroke="black" d="M39.62,-99.87C42.9,-99.87 59,-99.87 81.02,-99.87"/>
<polygon fill="black" stroke="black" points="81.17,-103.37 91.17,-99.87 81.17,-96.37 81.17,-103.37"/>
<text text-anchor="middle" x="65.43" y="-106.67" font-family="Helvetica,sans-Serif" font-size="14.00">Start</text>
</g>
<!-- end -->
<g id="node2" class="node">
<title>end</title>
</g>
<!-- 9b6ee351&#45;6bb3&#45;4f4e&#45;84a1&#45;bc79144b919b -->
<g id="node4" class="node">
<title>9b6ee351&#45;6bb3&#45;4f4e&#45;84a1&#45;bc79144b919b</title>
<ellipse fill="#0ee832" stroke="black" cx="620" cy="-99.87" rx="145.83" ry="26.74"/>
<text text-anchor="middle" x="620" y="-103.67" font-family="Helvetica,sans-Serif" font-size="14.00">✓ Modify</text>
<text text-anchor="middle" x="620" y="-88.67" font-family="Helvetica,sans-Serif" font-size="14.00">sweepai/utils/ticket_utils.py</text>
</g>
<!-- d835ddbd&#45;37b6&#45;41a7&#45;b1e1&#45;fa28c94820cc&#45;&gt;9b6ee351&#45;6bb3&#45;4f4e&#45;84a1&#45;bc79144b919b -->
<g id="edge2" class="edge">
<title>d835ddbd&#45;37b6&#45;41a7&#45;b1e1&#45;fa28c94820cc&#45;&gt;9b6ee351&#45;6bb3&#45;4f4e&#45;84a1&#45;bc79144b919b</title>
<path fill="none" stroke="black" d="M416.98,-99.87C432.6,-99.87 448.21,-99.87 463.82,-99.87"/>
<polygon fill="black" stroke="black" points="464.08,-103.37 474.08,-99.87 464.08,-96.37 464.08,-103.37"/>
</g>
<!-- b64245c4&#45;8461&#45;4688&#45;b003&#45;7f766992d4e8 -->
<g id="node5" class="node">
<title>b64245c4&#45;8461&#45;4688&#45;b003&#45;7f766992d4e8</title>
<polygon fill="#0ee832" stroke="black" points="422,-36 0,-36 0,0 422,0 422,-36"/>
<text text-anchor="middle" x="211" y="-14.3" font-family="Helvetica,sans-Serif" font-size="14.00">✓ Run GitHub Actions for `sweepai/agents/filter_agent.py`</text>
</g>
<!-- d835ddbd&#45;37b6&#45;41a7&#45;b1e1&#45;fa28c94820cc&#45;&gt;b64245c4&#45;8461&#45;4688&#45;b003&#45;7f766992d4e8 -->
<g id="edge1" class="edge">
<title>d835ddbd&#45;37b6&#45;41a7&#45;b1e1&#45;fa28c94820cc&#45;&gt;b64245c4&#45;8461&#45;4688&#45;b003&#45;7f766992d4e8</title>
<path fill="none" stroke="black" stroke-dasharray="5,2" d="M239.92,-72.72C235.17,-63.9 229.87,-54.05 225.12,-45.23"/>
<polygon fill="black" stroke="black" points="228.05,-43.29 220.23,-36.15 221.89,-46.61 228.05,-43.29"/>
</g>
<!-- 9b6ee351&#45;6bb3&#45;4f4e&#45;84a1&#45;bc79144b919b&#45;&gt;end -->
<g id="edge5" class="edge">
<title>9b6ee351&#45;6bb3&#45;4f4e&#45;84a1&#45;bc79144b919b&#45;&gt;end</title>
<path fill="none" stroke="black" d="M765.81,-99.87C785.57,-99.87 802.62,-99.87 813.07,-99.87"/>
<polygon fill="black" stroke="black" points="813.35,-103.37 823.35,-99.87 813.35,-96.37 813.35,-103.37"/>
<text text-anchor="middle" x="794.58" y="-106.67" font-family="Helvetica,sans-Serif" font-size="14.00">Finish</text>
</g>
<!-- ab663397&#45;f316&#45;4dd0&#45;b0d6&#45;41ded4e16b73 -->
<g id="node6" class="node">
<title>ab663397&#45;f316&#45;4dd0&#45;b0d6&#45;41ded4e16b73</title>
<polygon fill="yellow" stroke="black" points="841.5,-36 440.5,-36 440.5,0 841.5,0 841.5,-36"/>
<text text-anchor="middle" x="641" y="-14.3" font-family="Helvetica,sans-Serif" font-size="14.00">⋯ Run GitHub Actions for `sweepai/utils/ticket_utils.py`</text>
</g>
<!-- 9b6ee351&#45;6bb3&#45;4f4e&#45;84a1&#45;bc79144b919b&#45;&gt;ab663397&#45;f316&#45;4dd0&#45;b0d6&#45;41ded4e16b73 -->
<g id="edge3" class="edge">
<title>9b6ee351&#45;6bb3&#45;4f4e&#45;84a1&#45;bc79144b919b&#45;&gt;ab663397&#45;f316&#45;4dd0&#45;b0d6&#45;41ded4e16b73</title>
<path fill="none" stroke="black" stroke-dasharray="5,2" d="M626.88,-72.72C629.12,-64.18 631.62,-54.68 633.88,-46.08"/>
<polygon fill="black" stroke="black" points="637.33,-46.71 636.49,-36.15 630.56,-44.93 637.33,-46.71"/>
</g>
</g>
</svg>
