<?xml version="1.0" encoding="UTF-8" standalone="no"?>
<!DOCTYPE svg PUBLIC "-//W3C//DTD SVG 1.1//EN"
 "http://www.w3.org/Graphics/SVG/1.1/DTD/svg11.dtd">
<!-- Generated by graphviz version 8.0.3 (0)
 -->
<!-- Pages: 1 -->
<svg width="1386pt" height="238pt"
 viewBox="0.00 0.00 1386.00 237.74" xmlns="http://www.w3.org/2000/svg" xmlns:xlink="http://www.w3.org/1999/xlink">
<g id="graph0" class="graph" transform="scale(1 1) rotate(0) translate(36 201.74)">
<polygon fill="dimgray" stroke="none" points="-36,36 -36,-201.74 1350,-201.74 1350,36 -36,36"/>
<text text-anchor="middle" x="657" y="-150.54" font-family="Helvetica,sans-Serif" font-size="14.00">Sweep&#39;s Plan &amp; Progress</text>
<!-- start -->
<g id="node1" class="node">
<title>start</title>
</g>
<!-- 606a06ae&#45;e1a5&#45;467f&#45;bffd&#45;e0e0260776e9 -->
<g id="node3" class="node">
<title>606a06ae&#45;e1a5&#45;467f&#45;bffd&#45;e0e0260776e9</title>
<ellipse fill="#0ee832" stroke="black" cx="248" cy="-99.87" rx="162.77" ry="26.74"/>
<text text-anchor="middle" x="248" y="-103.67" font-family="Helvetica,sans-Serif" font-size="14.00">✓ Create</text>
<text text-anchor="middle" x="248" y="-88.67" font-family="Helvetica,sans-Serif" font-size="14.00">sweepai/agents/filter_agent.py</text>
</g>
<!-- start&#45;&gt;606a06ae&#45;e1a5&#45;467f&#45;bffd&#45;e0e0260776e9 -->
<g id="edge6" class="edge">
<title>start&#45;&gt;606a06ae&#45;e1a5&#45;467f&#45;bffd&#45;e0e0260776e9</title>
<path fill="none" stroke="black" d="M33.16,-99.87C34.9,-99.87 51.09,-99.87 73.88,-99.87"/>
<polygon fill="black" stroke="black" points="73.79,-103.37 83.79,-99.87 73.79,-96.37 73.79,-103.37"/>
<text text-anchor="middle" x="59.43" y="-106.67" font-family="Helvetica,sans-Serif" font-size="14.00">Start</text>
</g>
<!-- end -->
<g id="node2" class="node">
<title>end</title>
</g>
<!-- b7f6e9df&#45;82ca&#45;436f&#45;a270&#45;2311387768c3 -->
<g id="node4" class="node">
<title>b7f6e9df&#45;82ca&#45;436f&#45;a270&#45;2311387768c3</title>
<ellipse fill="#0ee832" stroke="black" cx="669" cy="-99.87" rx="185.94" ry="26.74"/>
<text text-anchor="middle" x="669" y="-103.67" font-family="Helvetica,sans-Serif" font-size="14.00">✓ Create</text>
<text text-anchor="middle" x="669" y="-88.67" font-family="Helvetica,sans-Serif" font-size="14.00">sweepai/agents/filter_agent_test.py</text>
</g>
<!-- 606a06ae&#45;e1a5&#45;467f&#45;bffd&#45;e0e0260776e9&#45;&gt;b7f6e9df&#45;82ca&#45;436f&#45;a270&#45;2311387768c3 -->
<g id="edge2" class="edge">
<title>606a06ae&#45;e1a5&#45;467f&#45;bffd&#45;e0e0260776e9&#45;&gt;b7f6e9df&#45;82ca&#45;436f&#45;a270&#45;2311387768c3</title>
<path fill="none" stroke="black" d="M411.22,-99.87C431.42,-99.87 451.62,-99.87 471.82,-99.87"/>
<polygon fill="black" stroke="black" points="471.71,-103.37 481.71,-99.87 471.71,-96.37 471.71,-103.37"/>
</g>
<!-- c885f329&#45;9547&#45;4873&#45;aeed&#45;c2ed9b32882b -->
<g id="node6" class="node">
<title>c885f329&#45;9547&#45;4873&#45;aeed&#45;c2ed9b32882b</title>
<polygon fill="#0ee832" stroke="black" points="422,-36 0,-36 0,0 422,0 422,-36"/>
<text text-anchor="middle" x="211" y="-14.3" font-family="Helvetica,sans-Serif" font-size="14.00">✓ Run GitHub Actions for `sweepai/agents/filter_agent.py`</text>
</g>
<!-- 606a06ae&#45;e1a5&#45;467f&#45;bffd&#45;e0e0260776e9&#45;&gt;c885f329&#45;9547&#45;4873&#45;aeed&#45;c2ed9b32882b -->
<g id="edge1" class="edge">
<title>606a06ae&#45;e1a5&#45;467f&#45;bffd&#45;e0e0260776e9&#45;&gt;c885f329&#45;9547&#45;4873&#45;aeed&#45;c2ed9b32882b</title>
<path fill="none" stroke="black" stroke-dasharray="5,2" d="M235.88,-72.72C231.93,-64.18 227.53,-54.68 223.54,-46.08"/>
<polygon fill="black" stroke="black" points="226.32,-44.75 218.94,-37.15 219.97,-47.69 226.32,-44.75"/>
</g>
<!-- 4c7987b5&#45;ebd0&#45;4ffa&#45;91a5&#45;300cb8d6c06d -->
<g id="node5" class="node">
<title>4c7987b5&#45;ebd0&#45;4ffa&#45;91a5&#45;300cb8d6c06d</title>
<ellipse fill="white" stroke="black" cx="1076" cy="-99.87" rx="145.83" ry="26.74"/>
<text text-anchor="middle" x="1076" y="-103.67" font-family="Helvetica,sans-Serif" font-size="14.00">▶ Modify</text>
<text text-anchor="middle" x="1076" y="-88.67" font-family="Helvetica,sans-Serif" font-size="14.00">sweepai/utils/ticket_utils.py</text>
</g>
<!-- b7f6e9df&#45;82ca&#45;436f&#45;a270&#45;2311387768c3&#45;&gt;4c7987b5&#45;ebd0&#45;4ffa&#45;91a5&#45;300cb8d6c06d -->
<g id="edge4" class="edge">
<title>b7f6e9df&#45;82ca&#45;436f&#45;a270&#45;2311387768c3&#45;&gt;4c7987b5&#45;ebd0&#45;4ffa&#45;91a5&#45;300cb8d6c06d</title>
<path fill="none" stroke="black" d="M855.41,-99.87C876.66,-99.87 897.92,-99.87 919.17,-99.87"/>
<polygon fill="black" stroke="black" points="918.94,-103.37 928.94,-99.87 918.94,-96.37 918.94,-103.37"/>
</g>
<!-- 093f742b&#45;79c3&#45;4da0&#45;aa8e&#45;6b9f05d97877 -->
<g id="node7" class="node">
<title>093f742b&#45;79c3&#45;4da0&#45;aa8e&#45;6b9f05d97877</title>
<polygon fill="yellow" stroke="black" points="898,-36 440,-36 440,0 898,0 898,-36"/>
<text text-anchor="middle" x="669" y="-14.3" font-family="Helvetica,sans-Serif" font-size="14.00">⋯ Run GitHub Actions for `sweepai/agents/filter_agent_test.py`</text>
</g>
<!-- b7f6e9df&#45;82ca&#45;436f&#45;a270&#45;2311387768c3&#45;&gt;093f742b&#45;79c3&#45;4da0&#45;aa8e&#45;6b9f05d97877 -->
<g id="edge3" class="edge">
<title>b7f6e9df&#45;82ca&#45;436f&#45;a270&#45;2311387768c3&#45;&gt;093f742b&#45;79c3&#45;4da0&#45;aa8e&#45;6b9f05d97877</title>
<path fill="none" stroke="black" stroke-dasharray="5,2" d="M669,-72.72C669,-64.46 669,-55.31 669,-46.93"/>
<polygon fill="black" stroke="black" points="672.5,-47.15 669,-37.15 665.5,-47.15 672.5,-47.15"/>
</g>
<!-- 4c7987b5&#45;ebd0&#45;4ffa&#45;91a5&#45;300cb8d6c06d&#45;&gt;end -->
<g id="edge7" class="edge">
<title>4c7987b5&#45;ebd0&#45;4ffa&#45;91a5&#45;300cb8d6c06d&#45;&gt;end</title>
<path fill="none" stroke="black" d="M1222.09,-99.87C1241.73,-99.87 1258.66,-99.87 1269.06,-99.87"/>
<polygon fill="black" stroke="black" points="1268.71,-103.37 1278.71,-99.87 1268.71,-96.37 1268.71,-103.37"/>
<text text-anchor="middle" x="1250.58" y="-106.67" font-family="Helvetica,sans-Serif" font-size="14.00">Finish</text>
</g>
<!-- d9069d68&#45;ce3d&#45;41d7&#45;8c75&#45;44bf3acd82b9 -->
<g id="node8" class="node">
<title>d9069d68&#45;ce3d&#45;41d7&#45;8c75&#45;44bf3acd82b9</title>
<polygon fill="white" stroke="black" points="1314,-36 916,-36 916,0 1314,0 1314,-36"/>
<text text-anchor="middle" x="1115" y="-14.3" font-family="Helvetica,sans-Serif" font-size="14.00">▶ Run GitHub Actions for `sweepai/utils/ticket_utils.py`</text>
</g>
<!-- 4c7987b5&#45;ebd0&#45;4ffa&#45;91a5&#45;300cb8d6c06d&#45;&gt;d9069d68&#45;ce3d&#45;41d7&#45;8c75&#45;44bf3acd82b9 -->
<g id="edge5" class="edge">
<title>4c7987b5&#45;ebd0&#45;4ffa&#45;91a5&#45;300cb8d6c06d&#45;&gt;d9069d68&#45;ce3d&#45;41d7&#45;8c75&#45;44bf3acd82b9</title>
<path fill="none" stroke="black" stroke-dasharray="5,2" d="M1088.55,-73.16C1092.78,-64.51 1097.51,-54.83 1101.78,-46.07"/>
<polygon fill="black" stroke="black" points="1105.29,-47.86 1106.53,-37.34 1099,-44.79 1105.29,-47.86"/>
</g>
</g>
</svg>
