<?xml version="1.0" encoding="UTF-8" standalone="no"?>
<!DOCTYPE svg PUBLIC "-//W3C//DTD SVG 1.1//EN"
 "http://www.w3.org/Graphics/SVG/1.1/DTD/svg11.dtd">
<!-- Generated by graphviz version 8.0.3 (0)
 -->
<!-- Pages: 1 -->
<svg width="657pt" height="415pt"
 viewBox="0.00 0.00 656.50 415.48" xmlns="http://www.w3.org/2000/svg" xmlns:xlink="http://www.w3.org/1999/xlink">
<g id="graph0" class="graph" transform="scale(1 1) rotate(0) translate(36 379.48)">
<polygon fill="dimgray" stroke="none" points="-36,36 -36,-379.48 620.5,-379.48 620.5,36 -36,36"/>
<text text-anchor="middle" x="292.25" y="-328.28" font-family="Helvetica,sans-Serif" font-size="14.00">Sweep&#39;s Plan &amp; Progress</text>
<!-- start -->
<g id="node1" class="node">
<title>start</title>
</g>
<!-- b902aaf8&#45;96c7&#45;46c8&#45;90bd&#45;aede5a5ceb77 -->
<g id="node3" class="node">
<title>b902aaf8&#45;96c7&#45;46c8&#45;90bd&#45;aede5a5ceb77</title>
<ellipse fill="#0ee832" stroke="black" cx="369.5" cy="-277.61" rx="84.71" ry="26.74"/>
<text text-anchor="middle" x="369.5" y="-281.41" font-family="Helvetica,sans-Serif" font-size="14.00">✓ Modify</text>
<text text-anchor="middle" x="369.5" y="-266.41" font-family="Helvetica,sans-Serif" font-size="14.00">sweepai/api.py</text>
</g>
<!-- start&#45;&gt;b902aaf8&#45;96c7&#45;46c8&#45;90bd&#45;aede5a5ceb77 -->
<g id="edge5" class="edge">
<title>start&#45;&gt;b902aaf8&#45;96c7&#45;46c8&#45;90bd&#45;aede5a5ceb77</title>
<path fill="none" stroke="black" d="M232.89,-277.61C235.65,-277.61 252.54,-277.61 273.56,-277.61"/>
<polygon fill="black" stroke="black" points="273.53,-281.11 283.53,-277.61 273.53,-274.11 273.53,-281.11"/>
<text text-anchor="middle" x="258.82" y="-284.41" font-family="Helvetica,sans-Serif" font-size="14.00">Start</text>
</g>
<!-- end -->
<g id="node2" class="node">
<title>end</title>
</g>
<!-- b902aaf8&#45;96c7&#45;46c8&#45;90bd&#45;aede5a5ceb77&#45;&gt;end -->
<g id="edge6" class="edge">
<title>b902aaf8&#45;96c7&#45;46c8&#45;90bd&#45;aede5a5ceb77&#45;&gt;end</title>
<path fill="none" stroke="black" d="M454.34,-277.61C473.06,-277.61 490.51,-277.61 501.32,-277.61"/>
<polygon fill="black" stroke="black" points="501.19,-281.11 511.19,-277.61 501.19,-274.11 501.19,-281.11"/>
<text text-anchor="middle" x="483.18" y="-284.41" font-family="Helvetica,sans-Serif" font-size="14.00">Finish</text>
</g>
<!-- cdb328dc&#45;2753&#45;427a&#45;9ea3&#45;341c041be6d0 -->
<g id="node4" class="node">
<title>cdb328dc&#45;2753&#45;427a&#45;9ea3&#45;341c041be6d0</title>
<polygon fill="#ee0000" stroke="black" points="294.5,-213.74 20.5,-213.74 20.5,-177.74 294.5,-177.74 294.5,-213.74"/>
<text text-anchor="middle" x="157.5" y="-192.04" font-family="Helvetica,sans-Serif" font-size="14.00">✗ Ran sandbox for `sweepai/api.py`.</text>
</g>
<!-- b902aaf8&#45;96c7&#45;46c8&#45;90bd&#45;aede5a5ceb77&#45;&gt;cdb328dc&#45;2753&#45;427a&#45;9ea3&#45;341c041be6d0 -->
<g id="edge1" class="edge">
<title>b902aaf8&#45;96c7&#45;46c8&#45;90bd&#45;aede5a5ceb77&#45;&gt;cdb328dc&#45;2753&#45;427a&#45;9ea3&#45;341c041be6d0</title>
<path fill="none" stroke="black" stroke-dasharray="5,2" d="M316,-256.46C284.79,-244.7 245.45,-229.88 213.77,-217.94"/>
<polygon fill="black" stroke="black" points="215.37,-214.43 204.78,-214.18 212.9,-220.98 215.37,-214.43"/>
</g>
<!-- efefdd57&#45;add2&#45;4d8b&#45;a2a4&#45;9a7a67f69e95 -->
<g id="node5" class="node">
<title>efefdd57&#45;add2&#45;4d8b&#45;a2a4&#45;9a7a67f69e95</title>
<polygon fill="white" stroke="black" points="584.5,-213.74 312.5,-213.74 312.5,-177.74 584.5,-177.74 584.5,-213.74"/>
<text text-anchor="middle" x="448.5" y="-192.04" font-family="Helvetica,sans-Serif" font-size="14.00">▶ Ran sandbox for `sweepai/api.py`.</text>
</g>
<!-- b902aaf8&#45;96c7&#45;46c8&#45;90bd&#45;aede5a5ceb77&#45;&gt;efefdd57&#45;add2&#45;4d8b&#45;a2a4&#45;9a7a67f69e95 -->
<g id="edge4" class="edge">
<title>b902aaf8&#45;96c7&#45;46c8&#45;90bd&#45;aede5a5ceb77&#45;&gt;efefdd57&#45;add2&#45;4d8b&#45;a2a4&#45;9a7a67f69e95</title>
<path fill="none" stroke="black" stroke-dasharray="5,2" d="M394.06,-251.78C403.55,-242.19 414.38,-231.24 423.87,-221.64"/>
<polygon fill="black" stroke="black" points="425.92,-224.53 430.46,-214.96 420.94,-219.61 425.92,-224.53"/>
</g>
<!-- cd04f2fa&#45;3070&#45;402c&#45;a3b2&#45;0a96bbf37507 -->
<g id="node6" class="node">
<title>cd04f2fa&#45;3070&#45;402c&#45;a3b2&#45;0a96bbf37507</title>
<ellipse fill="yellow" stroke="black" cx="157.5" cy="-99.87" rx="115.02" ry="26.74"/>
<text text-anchor="middle" x="157.5" y="-103.67" font-family="Helvetica,sans-Serif" font-size="14.00">⋯ Modify</text>
<text text-anchor="middle" x="157.5" y="-88.67" font-family="Helvetica,sans-Serif" font-size="14.00">sweepai/core/chat.py</text>
</g>
<!-- cdb328dc&#45;2753&#45;427a&#45;9ea3&#45;341c041be6d0&#45;&gt;cd04f2fa&#45;3070&#45;402c&#45;a3b2&#45;0a96bbf37507 -->
<g id="edge2" class="edge">
<title>cdb328dc&#45;2753&#45;427a&#45;9ea3&#45;341c041be6d0&#45;&gt;cd04f2fa&#45;3070&#45;402c&#45;a3b2&#45;0a96bbf37507</title>
<path fill="none" stroke="black" d="M157.5,-177.52C157.5,-166.33 157.5,-151.31 157.5,-137.53"/>
<polygon fill="black" stroke="black" points="161,-137.84 157.5,-127.84 154,-137.84 161,-137.84"/>
<text text-anchor="middle" x="255" y="-148.54" font-family="Helvetica,sans-Serif" font-size="14.00">Additional changes required</text>
</g>
<!-- 1194d3bd&#45;b6fa&#45;4936&#45;b87c&#45;407f9876179e -->
<g id="node7" class="node">
<title>1194d3bd&#45;b6fa&#45;4936&#45;b87c&#45;407f9876179e</title>
<polygon fill="white" stroke="black" points="315,-36 0,-36 0,0 315,0 315,-36"/>
<text text-anchor="middle" x="157.5" y="-14.3" font-family="Helvetica,sans-Serif" font-size="14.00">▶ Ran sandbox for `sweepai/core/chat.py`.</text>
</g>
<!-- cd04f2fa&#45;3070&#45;402c&#45;a3b2&#45;0a96bbf37507&#45;&gt;1194d3bd&#45;b6fa&#45;4936&#45;b87c&#45;407f9876179e -->
<g id="edge3" class="edge">
<title>cd04f2fa&#45;3070&#45;402c&#45;a3b2&#45;0a96bbf37507&#45;&gt;1194d3bd&#45;b6fa&#45;4936&#45;b87c&#45;407f9876179e</title>
<path fill="none" stroke="black" stroke-dasharray="5,2" d="M157.5,-72.72C157.5,-64.46 157.5,-55.31 157.5,-46.93"/>
<polygon fill="black" stroke="black" points="161,-47.15 157.5,-37.15 154,-47.15 161,-47.15"/>
</g>
</g>
</svg>
