<?xml version="1.0" encoding="UTF-8" standalone="no"?>
<!DOCTYPE svg PUBLIC "-//W3C//DTD SVG 1.1//EN"
 "http://www.w3.org/Graphics/SVG/1.1/DTD/svg11.dtd">
<!-- Generated by graphviz version 2.43.0 (0)
 -->
<!-- Title: %3 Pages: 1 -->
<svg width="882pt" height="165pt"
 viewBox="0.00 0.00 882.00 164.74" xmlns="http://www.w3.org/2000/svg" xmlns:xlink="http://www.w3.org/1999/xlink">
<g id="graph0" class="graph" transform="scale(1 1) rotate(0) translate(36 128.74)">
<title>%3</title>
<polygon fill="dimgray" stroke="transparent" points="-36,36 -36,-128.74 846,-128.74 846,36 -36,36"/>
<text text-anchor="middle" x="405" y="-77.54" font-family="Helvetica,sans-Serif" font-size="14.00">Sweep&#39;s Plan &amp; Progress</text>
<!-- start -->
<g id="node1" class="node">
<title>start</title>
</g>
<!-- ba32c75d&#45;5b10&#45;4cd0&#45;9f06&#45;5a4f841625a2 -->
<g id="node3" class="node">
<title>ba32c75d&#45;5b10&#45;4cd0&#45;9f06&#45;5a4f841625a2</title>
<ellipse fill="yellow" stroke="black" cx="198.5" cy="-26.87" rx="145.83" ry="26.74"/>
<text text-anchor="middle" x="198.5" y="-30.67" font-family="Helvetica,sans-Serif" font-size="14.00">⋯ Modify</text>
<text text-anchor="middle" x="198.5" y="-15.67" font-family="Helvetica,sans-Serif" font-size="14.00">sweepai/utils/ticket_utils.py</text>
</g>
<!-- start&#45;&gt;ba32c75d&#45;5b10&#45;4cd0&#45;9f06&#45;5a4f841625a2 -->
<g id="edge2" class="edge">
<title>start&#45;&gt;ba32c75d&#45;5b10&#45;4cd0&#45;9f06&#45;5a4f841625a2</title>
<path fill="none" stroke="black" d="M1.07,-26.87C4.26,-26.87 20.6,-26.87 42.63,-26.87"/>
<polygon fill="black" stroke="black" points="42.76,-30.37 52.76,-26.87 42.76,-23.37 42.76,-30.37"/>
<text text-anchor="middle" x="26.92" y="-33.67" font-family="Helvetica,sans-Serif" font-size="14.00">Start</text>
</g>
<!-- end -->
<g id="node2" class="node">
<title>end</title>
</g>
<!-- 699c63e1&#45;7eb3&#45;4aa1&#45;a598&#45;5c3c74d6f3aa -->
<g id="node4" class="node">
<title>699c63e1&#45;7eb3&#45;4aa1&#45;a598&#45;5c3c74d6f3aa</title>
<ellipse fill="white" stroke="black" cx="565.5" cy="-26.87" rx="185.94" ry="26.74"/>
<text text-anchor="middle" x="565.5" y="-30.67" font-family="Helvetica,sans-Serif" font-size="14.00">▶ Create</text>
<text text-anchor="middle" x="565.5" y="-15.67" font-family="Helvetica,sans-Serif" font-size="14.00">sweepai/agents/filter_agent_test.py</text>
</g>
<!-- ba32c75d&#45;5b10&#45;4cd0&#45;9f06&#45;5a4f841625a2&#45;&gt;699c63e1&#45;7eb3&#45;4aa1&#45;a598&#45;5c3c74d6f3aa -->
<g id="edge1" class="edge">
<title>ba32c75d&#45;5b10&#45;4cd0&#45;9f06&#45;5a4f841625a2&#45;&gt;699c63e1&#45;7eb3&#45;4aa1&#45;a598&#45;5c3c74d6f3aa</title>
<path fill="none" stroke="black" d="M344.37,-26.87C352.66,-26.87 360.95,-26.87 369.24,-26.87"/>
<polygon fill="black" stroke="black" points="369.35,-30.37 379.35,-26.87 369.35,-23.37 369.35,-30.37"/>
</g>
<!-- 699c63e1&#45;7eb3&#45;4aa1&#45;a598&#45;5c3c74d6f3aa&#45;&gt;end -->
<g id="edge3" class="edge">
<title>699c63e1&#45;7eb3&#45;4aa1&#45;a598&#45;5c3c74d6f3aa&#45;&gt;end</title>
<path fill="none" stroke="black" d="M751.68,-26.87C771.77,-26.87 788.62,-26.87 798.86,-26.87"/>
<polygon fill="black" stroke="black" points="798.87,-30.37 808.87,-26.87 798.87,-23.37 798.87,-30.37"/>
<text text-anchor="middle" x="780.23" y="-33.67" font-family="Helvetica,sans-Serif" font-size="14.00">Finish</text>
</g>
</g>
</svg>
