<?xml version="1.0" encoding="UTF-8" standalone="no"?>
<!DOCTYPE svg PUBLIC "-//W3C//DTD SVG 1.1//EN"
 "http://www.w3.org/Graphics/SVG/1.1/DTD/svg11.dtd">
<!-- Generated by graphviz version 8.0.3 (0)
 -->
<!-- Pages: 1 -->
<svg width="962pt" height="238pt"
 viewBox="0.00 0.00 961.50 237.74" xmlns="http://www.w3.org/2000/svg" xmlns:xlink="http://www.w3.org/1999/xlink">
<g id="graph0" class="graph" transform="scale(1 1) rotate(0) translate(36 201.74)">
<polygon fill="dimgray" stroke="none" points="-36,36 -36,-201.74 925.5,-201.74 925.5,36 -36,36"/>
<text text-anchor="middle" x="444.75" y="-150.54" font-family="Helvetica,sans-Serif" font-size="14.00">Sweep&#39;s Plan &amp; Progress</text>
<!-- start -->
<g id="node1" class="node">
<title>start</title>
</g>
<!-- ba3759e0&#45;be9e&#45;4ed9&#45;8e22&#45;e2d87c998870 -->
<g id="node3" class="node">
<title>ba3759e0&#45;be9e&#45;4ed9&#45;8e22&#45;e2d87c998870</title>
<ellipse fill="#0ee832" stroke="black" cx="181" cy="-99.87" rx="84.71" ry="26.74"/>
<text text-anchor="middle" x="181" y="-103.67" font-family="Helvetica,sans-Serif" font-size="14.00">✓ Modify</text>
<text text-anchor="middle" x="181" y="-88.67" font-family="Helvetica,sans-Serif" font-size="14.00">sweepai/api.py</text>
</g>
<!-- start&#45;&gt;ba3759e0&#45;be9e&#45;4ed9&#45;8e22&#45;e2d87c998870 -->
<g id="edge6" class="edge">
<title>start&#45;&gt;ba3759e0&#45;be9e&#45;4ed9&#45;8e22&#45;e2d87c998870</title>
<path fill="none" stroke="black" d="M44.39,-99.87C47.15,-99.87 64.04,-99.87 85.06,-99.87"/>
<polygon fill="black" stroke="black" points="85.03,-103.37 95.03,-99.87 85.03,-96.37 85.03,-103.37"/>
<text text-anchor="middle" x="70.32" y="-106.67" font-family="Helvetica,sans-Serif" font-size="14.00">Start</text>
</g>
<!-- end -->
<g id="node2" class="node">
<title>end</title>
</g>
<!-- fc811a72&#45;22f7&#45;444b&#45;b04b&#45;422bf3b7f487 -->
<g id="node4" class="node">
<title>fc811a72&#45;22f7&#45;444b&#45;b04b&#45;422bf3b7f487</title>
<ellipse fill="white" stroke="black" cx="430" cy="-99.87" rx="84.71" ry="26.74"/>
<text text-anchor="middle" x="430" y="-103.67" font-family="Helvetica,sans-Serif" font-size="14.00">▶ Modify</text>
<text text-anchor="middle" x="430" y="-88.67" font-family="Helvetica,sans-Serif" font-size="14.00">sweepai/api.py</text>
</g>
<!-- ba3759e0&#45;be9e&#45;4ed9&#45;8e22&#45;e2d87c998870&#45;&gt;fc811a72&#45;22f7&#45;444b&#45;b04b&#45;422bf3b7f487 -->
<g id="edge2" class="edge">
<title>ba3759e0&#45;be9e&#45;4ed9&#45;8e22&#45;e2d87c998870&#45;&gt;fc811a72&#45;22f7&#45;444b&#45;b04b&#45;422bf3b7f487</title>
<path fill="none" stroke="black" d="M266.11,-99.87C288.77,-99.87 311.43,-99.87 334.09,-99.87"/>
<polygon fill="black" stroke="black" points="333.85,-103.37 343.85,-99.87 333.85,-96.37 333.85,-103.37"/>
</g>
<!-- 7f67cf06&#45;2a2a&#45;4309&#45;a487&#45;277dab8efafc -->
<g id="node6" class="node">
<title>7f67cf06&#45;2a2a&#45;4309&#45;a487&#45;277dab8efafc</title>
<polygon fill="yellow" stroke="black" points="276,-36 0,-36 0,0 276,0 276,-36"/>
<text text-anchor="middle" x="138" y="-14.3" font-family="Helvetica,sans-Serif" font-size="14.00">⋯ Ran sandbox for `sweepai/api.py`.</text>
</g>
<!-- ba3759e0&#45;be9e&#45;4ed9&#45;8e22&#45;e2d87c998870&#45;&gt;7f67cf06&#45;2a2a&#45;4309&#45;a487&#45;277dab8efafc -->
<g id="edge1" class="edge">
<title>ba3759e0&#45;be9e&#45;4ed9&#45;8e22&#45;e2d87c998870&#45;&gt;7f67cf06&#45;2a2a&#45;4309&#45;a487&#45;277dab8efafc</title>
<path fill="none" stroke="black" stroke-dasharray="5,2" d="M167.16,-73.16C162.45,-64.41 157.18,-54.62 152.42,-45.79"/>
<polygon fill="black" stroke="black" points="155.16,-44.48 147.33,-37.34 148.99,-47.8 155.16,-44.48"/>
</g>
<!-- c66a5a25&#45;532b&#45;46f5&#45;9712&#45;f79316e2dbfd -->
<g id="node5" class="node">
<title>c66a5a25&#45;532b&#45;46f5&#45;9712&#45;f79316e2dbfd</title>
<ellipse fill="white" stroke="black" cx="698" cy="-99.87" rx="108.38" ry="26.74"/>
<text text-anchor="middle" x="698" y="-103.67" font-family="Helvetica,sans-Serif" font-size="14.00">▶ Create</text>
<text text-anchor="middle" x="698" y="-88.67" font-family="Helvetica,sans-Serif" font-size="14.00">sweepai/api_test.py</text>
</g>
<!-- fc811a72&#45;22f7&#45;444b&#45;b04b&#45;422bf3b7f487&#45;&gt;c66a5a25&#45;532b&#45;46f5&#45;9712&#45;f79316e2dbfd -->
<g id="edge4" class="edge">
<title>fc811a72&#45;22f7&#45;444b&#45;b04b&#45;422bf3b7f487&#45;&gt;c66a5a25&#45;532b&#45;46f5&#45;9712&#45;f79316e2dbfd</title>
<path fill="none" stroke="black" d="M515.06,-99.87C536.25,-99.87 557.44,-99.87 578.64,-99.87"/>
<polygon fill="black" stroke="black" points="578.38,-103.37 588.38,-99.87 578.38,-96.37 578.38,-103.37"/>
</g>
<!-- 508449ba&#45;8261&#45;4d6a&#45;b644&#45;335454654e39 -->
<g id="node7" class="node">
<title>508449ba&#45;8261&#45;4d6a&#45;b644&#45;335454654e39</title>
<polygon fill="white" stroke="black" points="566,-36 294,-36 294,0 566,0 566,-36"/>
<text text-anchor="middle" x="430" y="-14.3" font-family="Helvetica,sans-Serif" font-size="14.00">▶ Ran sandbox for `sweepai/api.py`.</text>
</g>
<!-- fc811a72&#45;22f7&#45;444b&#45;b04b&#45;422bf3b7f487&#45;&gt;508449ba&#45;8261&#45;4d6a&#45;b644&#45;335454654e39 -->
<g id="edge3" class="edge">
<title>fc811a72&#45;22f7&#45;444b&#45;b04b&#45;422bf3b7f487&#45;&gt;508449ba&#45;8261&#45;4d6a&#45;b644&#45;335454654e39</title>
<path fill="none" stroke="black" stroke-dasharray="5,2" d="M430,-72.72C430,-64.46 430,-55.31 430,-46.93"/>
<polygon fill="black" stroke="black" points="433.5,-47.15 430,-37.15 426.5,-47.15 433.5,-47.15"/>
</g>
<!-- c66a5a25&#45;532b&#45;46f5&#45;9712&#45;f79316e2dbfd&#45;&gt;end -->
<g id="edge7" class="edge">
<title>c66a5a25&#45;532b&#45;46f5&#45;9712&#45;f79316e2dbfd&#45;&gt;end</title>
<path fill="none" stroke="black" d="M806.87,-99.87C825.66,-99.87 842.49,-99.87 852.93,-99.87"/>
<polygon fill="black" stroke="black" points="852.7,-103.37 862.7,-99.87 852.7,-96.37 852.7,-103.37"/>
<text text-anchor="middle" x="834.84" y="-106.67" font-family="Helvetica,sans-Serif" font-size="14.00">Finish</text>
</g>
<!-- 20116720&#45;1d14&#45;48d1&#45;805e&#45;229438a1358e -->
<g id="node8" class="node">
<title>20116720&#45;1d14&#45;48d1&#45;805e&#45;229438a1358e</title>
<polygon fill="white" stroke="black" points="889.5,-36 584.5,-36 584.5,0 889.5,0 889.5,-36"/>
<text text-anchor="middle" x="737" y="-14.3" font-family="Helvetica,sans-Serif" font-size="14.00">▶ Ran sandbox for `sweepai/api_test.py`.</text>
</g>
<!-- c66a5a25&#45;532b&#45;46f5&#45;9712&#45;f79316e2dbfd&#45;&gt;20116720&#45;1d14&#45;48d1&#45;805e&#45;229438a1358e -->
<g id="edge5" class="edge">
<title>c66a5a25&#45;532b&#45;46f5&#45;9712&#45;f79316e2dbfd&#45;&gt;20116720&#45;1d14&#45;48d1&#45;805e&#45;229438a1358e</title>
<path fill="none" stroke="black" stroke-dasharray="5,2" d="M710.55,-73.16C714.78,-64.51 719.51,-54.83 723.78,-46.07"/>
<polygon fill="black" stroke="black" points="727.29,-47.86 728.53,-37.34 721,-44.79 727.29,-47.86"/>
</g>
</g>
</svg>
