<?xml version="1.0" encoding="UTF-8" standalone="no"?>
<!DOCTYPE svg PUBLIC "-//W3C//DTD SVG 1.1//EN"
 "http://www.w3.org/Graphics/SVG/1.1/DTD/svg11.dtd">
<!-- Generated by graphviz version 8.0.3 (0)
 -->
<!-- Pages: 1 -->
<svg width="1387pt" height="238pt"
 viewBox="0.00 0.00 1386.50 237.74" xmlns="http://www.w3.org/2000/svg" xmlns:xlink="http://www.w3.org/1999/xlink">
<g id="graph0" class="graph" transform="scale(1 1) rotate(0) translate(36 201.74)">
<polygon fill="dimgray" stroke="none" points="-36,36 -36,-201.74 1350.5,-201.74 1350.5,36 -36,36"/>
<text text-anchor="middle" x="657.25" y="-150.54" font-family="Helvetica,sans-Serif" font-size="14.00">Sweep&#39;s Plan &amp; Progress</text>
<!-- start -->
<g id="node1" class="node">
<title>start</title>
</g>
<!-- febdec60&#45;b18b&#45;4ff8&#45;95c6&#45;45a0ce89b7c5 -->
<g id="node3" class="node">
<title>febdec60&#45;b18b&#45;4ff8&#45;95c6&#45;45a0ce89b7c5</title>
<ellipse fill="#0ee832" stroke="black" cx="247" cy="-99.87" rx="162.77" ry="26.74"/>
<text text-anchor="middle" x="247" y="-103.67" font-family="Helvetica,sans-Serif" font-size="14.00">✓ Create</text>
<text text-anchor="middle" x="247" y="-88.67" font-family="Helvetica,sans-Serif" font-size="14.00">sweepai/agents/filter_agent.py</text>
</g>
<!-- start&#45;&gt;febdec60&#45;b18b&#45;4ff8&#45;95c6&#45;45a0ce89b7c5 -->
<g id="edge6" class="edge">
<title>start&#45;&gt;febdec60&#45;b18b&#45;4ff8&#45;95c6&#45;45a0ce89b7c5</title>
<path fill="none" stroke="black" d="M32.16,-99.87C33.9,-99.87 50.09,-99.87 72.88,-99.87"/>
<polygon fill="black" stroke="black" points="72.79,-103.37 82.79,-99.87 72.79,-96.37 72.79,-103.37"/>
<text text-anchor="middle" x="58.43" y="-106.67" font-family="Helvetica,sans-Serif" font-size="14.00">Start</text>
</g>
<!-- end -->
<g id="node2" class="node">
<title>end</title>
</g>
<!-- 6fe4530d&#45;3e98&#45;4f9d&#45;914d&#45;ec32a53d1c67 -->
<g id="node4" class="node">
<title>6fe4530d&#45;3e98&#45;4f9d&#45;914d&#45;ec32a53d1c67</title>
<ellipse fill="#0ee832" stroke="black" cx="668" cy="-99.87" rx="185.94" ry="26.74"/>
<text text-anchor="middle" x="668" y="-103.67" font-family="Helvetica,sans-Serif" font-size="14.00">✓ Create</text>
<text text-anchor="middle" x="668" y="-88.67" font-family="Helvetica,sans-Serif" font-size="14.00">sweepai/agents/filter_agent_test.py</text>
</g>
<!-- febdec60&#45;b18b&#45;4ff8&#45;95c6&#45;45a0ce89b7c5&#45;&gt;6fe4530d&#45;3e98&#45;4f9d&#45;914d&#45;ec32a53d1c67 -->
<g id="edge2" class="edge">
<title>febdec60&#45;b18b&#45;4ff8&#45;95c6&#45;45a0ce89b7c5&#45;&gt;6fe4530d&#45;3e98&#45;4f9d&#45;914d&#45;ec32a53d1c67</title>
<path fill="none" stroke="black" d="M410.22,-99.87C430.42,-99.87 450.62,-99.87 470.82,-99.87"/>
<polygon fill="black" stroke="black" points="470.71,-103.37 480.71,-99.87 470.71,-96.37 470.71,-103.37"/>
</g>
<!-- 378af0ef&#45;c748&#45;4ede&#45;a404&#45;953ec5aa7166 -->
<g id="node6" class="node">
<title>378af0ef&#45;c748&#45;4ede&#45;a404&#45;953ec5aa7166</title>
<polygon fill="#0ee832" stroke="black" points="422,-36 0,-36 0,0 422,0 422,-36"/>
<text text-anchor="middle" x="211" y="-14.3" font-family="Helvetica,sans-Serif" font-size="14.00">✓ Run GitHub Actions for `sweepai/agents/filter_agent.py`</text>
</g>
<!-- febdec60&#45;b18b&#45;4ff8&#45;95c6&#45;45a0ce89b7c5&#45;&gt;378af0ef&#45;c748&#45;4ede&#45;a404&#45;953ec5aa7166 -->
<g id="edge1" class="edge">
<title>febdec60&#45;b18b&#45;4ff8&#45;95c6&#45;45a0ce89b7c5&#45;&gt;378af0ef&#45;c748&#45;4ede&#45;a404&#45;953ec5aa7166</title>
<path fill="none" stroke="black" stroke-dasharray="5,2" d="M235.21,-72.72C231.36,-64.18 227.08,-54.68 223.2,-46.08"/>
<polygon fill="black" stroke="black" points="226.03,-44.82 218.73,-37.15 219.65,-47.7 226.03,-44.82"/>
</g>
<!-- f2c8d47a&#45;340b&#45;41ca&#45;be35&#45;f1e66724c46e -->
<g id="node5" class="node">
<title>f2c8d47a&#45;340b&#45;41ca&#45;be35&#45;f1e66724c46e</title>
<ellipse fill="#0ee832" stroke="black" cx="1075" cy="-99.87" rx="145.83" ry="26.74"/>
<text text-anchor="middle" x="1075" y="-103.67" font-family="Helvetica,sans-Serif" font-size="14.00">✓ Modify</text>
<text text-anchor="middle" x="1075" y="-88.67" font-family="Helvetica,sans-Serif" font-size="14.00">sweepai/utils/ticket_utils.py</text>
</g>
<!-- 6fe4530d&#45;3e98&#45;4f9d&#45;914d&#45;ec32a53d1c67&#45;&gt;f2c8d47a&#45;340b&#45;41ca&#45;be35&#45;f1e66724c46e -->
<g id="edge4" class="edge">
<title>6fe4530d&#45;3e98&#45;4f9d&#45;914d&#45;ec32a53d1c67&#45;&gt;f2c8d47a&#45;340b&#45;41ca&#45;be35&#45;f1e66724c46e</title>
<path fill="none" stroke="black" d="M854.41,-99.87C875.66,-99.87 896.92,-99.87 918.17,-99.87"/>
<polygon fill="black" stroke="black" points="917.94,-103.37 927.94,-99.87 917.94,-96.37 917.94,-103.37"/>
</g>
<!-- 2b81e414&#45;bb7c&#45;4db8&#45;b016&#45;86c3d4de2fae -->
<g id="node7" class="node">
<title>2b81e414&#45;bb7c&#45;4db8&#45;b016&#45;86c3d4de2fae</title>
<polygon fill="#0ee832" stroke="black" points="895.5,-36 440.5,-36 440.5,0 895.5,0 895.5,-36"/>
<text text-anchor="middle" x="668" y="-14.3" font-family="Helvetica,sans-Serif" font-size="14.00">✓ Run GitHub Actions for `sweepai/agents/filter_agent_test.py`</text>
</g>
<!-- 6fe4530d&#45;3e98&#45;4f9d&#45;914d&#45;ec32a53d1c67&#45;&gt;2b81e414&#45;bb7c&#45;4db8&#45;b016&#45;86c3d4de2fae -->
<g id="edge3" class="edge">
<title>6fe4530d&#45;3e98&#45;4f9d&#45;914d&#45;ec32a53d1c67&#45;&gt;2b81e414&#45;bb7c&#45;4db8&#45;b016&#45;86c3d4de2fae</title>
<path fill="none" stroke="black" stroke-dasharray="5,2" d="M668,-72.72C668,-64.46 668,-55.31 668,-46.93"/>
<polygon fill="black" stroke="black" points="671.5,-47.15 668,-37.15 664.5,-47.15 671.5,-47.15"/>
</g>
<!-- f2c8d47a&#45;340b&#45;41ca&#45;be35&#45;f1e66724c46e&#45;&gt;end -->
<g id="edge7" class="edge">
<title>f2c8d47a&#45;340b&#45;41ca&#45;be35&#45;f1e66724c46e&#45;&gt;end</title>
<path fill="none" stroke="black" d="M1221.09,-99.87C1240.73,-99.87 1257.66,-99.87 1268.06,-99.87"/>
<polygon fill="black" stroke="black" points="1267.71,-103.37 1277.71,-99.87 1267.71,-96.37 1267.71,-103.37"/>
<text text-anchor="middle" x="1249.58" y="-106.67" font-family="Helvetica,sans-Serif" font-size="14.00">Finish</text>
</g>
<!-- fd3cb271&#45;33f7&#45;41e1&#45;8f96&#45;87838a379873 -->
<g id="node8" class="node">
<title>fd3cb271&#45;33f7&#45;41e1&#45;8f96&#45;87838a379873</title>
<polygon fill="yellow" stroke="black" points="1314.5,-36 913.5,-36 913.5,0 1314.5,0 1314.5,-36"/>
<text text-anchor="middle" x="1114" y="-14.3" font-family="Helvetica,sans-Serif" font-size="14.00">⋯ Run GitHub Actions for `sweepai/utils/ticket_utils.py`</text>
</g>
<!-- f2c8d47a&#45;340b&#45;41ca&#45;be35&#45;f1e66724c46e&#45;&gt;fd3cb271&#45;33f7&#45;41e1&#45;8f96&#45;87838a379873 -->
<g id="edge5" class="edge">
<title>f2c8d47a&#45;340b&#45;41ca&#45;be35&#45;f1e66724c46e&#45;&gt;fd3cb271&#45;33f7&#45;41e1&#45;8f96&#45;87838a379873</title>
<path fill="none" stroke="black" stroke-dasharray="5,2" d="M1087.55,-73.16C1091.78,-64.51 1096.51,-54.83 1100.78,-46.07"/>
<polygon fill="black" stroke="black" points="1104.29,-47.86 1105.53,-37.34 1098,-44.79 1104.29,-47.86"/>
</g>
</g>
</svg>
