<?xml version="1.0" encoding="UTF-8" standalone="no"?>
<!DOCTYPE svg PUBLIC "-//W3C//DTD SVG 1.1//EN"
 "http://www.w3.org/Graphics/SVG/1.1/DTD/svg11.dtd">
<!-- Generated by graphviz version 2.43.0 (0)
 -->
<!-- Title: %3 Pages: 1 -->
<svg width="2098pt" height="415pt"
 viewBox="0.00 0.00 2098.00 415.48" xmlns="http://www.w3.org/2000/svg" xmlns:xlink="http://www.w3.org/1999/xlink">
<g id="graph0" class="graph" transform="scale(1 1) rotate(0) translate(36 379.48)">
<title>%3</title>
<polygon fill="dimgray" stroke="transparent" points="-36,36 -36,-379.48 2062,-379.48 2062,36 -36,36"/>
<text text-anchor="middle" x="1013" y="-328.28" font-family="Helvetica,sans-Serif" font-size="14.00">Sweep&#39;s Plan &amp; Progress</text>
<!-- start -->
<g id="node1" class="node">
<title>start</title>
</g>
<!-- f72be58b&#45;1079&#45;4c24&#45;83cb&#45;f13bb396b209 -->
<g id="node3" class="node">
<title>f72be58b&#45;1079&#45;4c24&#45;83cb&#45;f13bb396b209</title>
<ellipse fill="#0ee832" stroke="black" cx="628.5" cy="-277.61" rx="179.71" ry="26.74"/>
<text text-anchor="middle" x="628.5" y="-281.41" font-family="Helvetica,sans-Serif" font-size="14.00">✓ Modify</text>
<text text-anchor="middle" x="628.5" y="-266.41" font-family="Helvetica,sans-Serif" font-size="14.00">sweepai/handlers/on_comment.py</text>
</g>
<!-- start&#45;&gt;f72be58b&#45;1079&#45;4c24&#45;83cb&#45;f13bb396b209 -->
<g id="edge11" class="edge">
<title>start&#45;&gt;f72be58b&#45;1079&#45;4c24&#45;83cb&#45;f13bb396b209</title>
<path fill="none" stroke="black" d="M397.17,-277.61C400.55,-277.61 416.52,-277.61 438.62,-277.61"/>
<polygon fill="black" stroke="black" points="438.82,-281.11 448.82,-277.61 438.82,-274.11 438.82,-281.11"/>
<text text-anchor="middle" x="422.95" y="-284.41" font-family="Helvetica,sans-Serif" font-size="14.00">Start</text>
</g>
<!-- end -->
<g id="node2" class="node">
<title>end</title>
</g>
<!-- a357cd21&#45;df21&#45;4037&#45;a1b1&#45;66ccb7842f5b -->
<g id="node4" class="node">
<title>a357cd21&#45;df21&#45;4037&#45;a1b1&#45;66ccb7842f5b</title>
<ellipse fill="white" stroke="black" cx="1039.5" cy="-277.61" rx="159.61" ry="26.74"/>
<text text-anchor="middle" x="1039.5" y="-281.41" font-family="Helvetica,sans-Serif" font-size="14.00">▶ Modify</text>
<text text-anchor="middle" x="1039.5" y="-266.41" font-family="Helvetica,sans-Serif" font-size="14.00">sweepai/handlers/on_ticket.py</text>
</g>
<!-- f72be58b&#45;1079&#45;4c24&#45;83cb&#45;f13bb396b209&#45;&gt;a357cd21&#45;df21&#45;4037&#45;a1b1&#45;66ccb7842f5b -->
<g id="edge5" class="edge">
<title>f72be58b&#45;1079&#45;4c24&#45;83cb&#45;f13bb396b209&#45;&gt;a357cd21&#45;df21&#45;4037&#45;a1b1&#45;66ccb7842f5b</title>
<path fill="none" stroke="black" d="M808.31,-277.61C828.75,-277.61 849.19,-277.61 869.62,-277.61"/>
<polygon fill="black" stroke="black" points="869.66,-281.11 879.66,-277.61 869.66,-274.11 869.66,-281.11"/>
</g>
<!-- a87bebe1&#45;f627&#45;41e4&#45;9efb&#45;49bde450afdc -->
<g id="node7" class="node">
<title>a87bebe1&#45;f627&#45;41e4&#45;9efb&#45;49bde450afdc</title>
<polygon fill="#ee0000" stroke="black" points="407,-213.74 0,-213.74 0,-177.74 407,-177.74 407,-213.74"/>
<text text-anchor="middle" x="203.5" y="-192.04" font-family="Helvetica,sans-Serif" font-size="14.00">✗ Ran sandbox for `sweepai/handlers/on_comment.py`.</text>
</g>
<!-- f72be58b&#45;1079&#45;4c24&#45;83cb&#45;f13bb396b209&#45;&gt;a87bebe1&#45;f627&#45;41e4&#45;9efb&#45;49bde450afdc -->
<g id="edge1" class="edge">
<title>f72be58b&#45;1079&#45;4c24&#45;83cb&#45;f13bb396b209&#45;&gt;a87bebe1&#45;f627&#45;41e4&#45;9efb&#45;49bde450afdc</title>
<path fill="none" stroke="black" stroke-dasharray="5,2" d="M519.88,-256.2C453.44,-243.71 369.04,-227.85 304.13,-215.65"/>
<polygon fill="black" stroke="black" points="304.76,-212.21 294.29,-213.8 303.47,-219.09 304.76,-212.21"/>
</g>
<!-- 86849631&#45;7b1e&#45;4059&#45;8f3c&#45;8970bd323b66 -->
<g id="node8" class="node">
<title>86849631&#45;7b1e&#45;4059&#45;8f3c&#45;8970bd323b66</title>
<polygon fill="#ee0000" stroke="black" points="832,-213.74 425,-213.74 425,-177.74 832,-177.74 832,-213.74"/>
<text text-anchor="middle" x="628.5" y="-192.04" font-family="Helvetica,sans-Serif" font-size="14.00">✗ Ran sandbox for `sweepai/handlers/on_comment.py`.</text>
</g>
<!-- f72be58b&#45;1079&#45;4c24&#45;83cb&#45;f13bb396b209&#45;&gt;86849631&#45;7b1e&#45;4059&#45;8f3c&#45;8970bd323b66 -->
<g id="edge4" class="edge">
<title>f72be58b&#45;1079&#45;4c24&#45;83cb&#45;f13bb396b209&#45;&gt;86849631&#45;7b1e&#45;4059&#45;8f3c&#45;8970bd323b66</title>
<path fill="none" stroke="black" stroke-dasharray="5,2" d="M628.5,-250.46C628.5,-242.01 628.5,-232.63 628.5,-224.1"/>
<polygon fill="black" stroke="black" points="632,-223.89 628.5,-213.89 625,-223.89 632,-223.89"/>
</g>
<!-- ede76a57&#45;c14f&#45;496f&#45;8ace&#45;8509d36e1f0a -->
<g id="node5" class="node">
<title>ede76a57&#45;c14f&#45;496f&#45;8ace&#45;8509d36e1f0a</title>
<ellipse fill="white" stroke="black" cx="1426.5" cy="-277.61" rx="145.83" ry="26.74"/>
<text text-anchor="middle" x="1426.5" y="-281.41" font-family="Helvetica,sans-Serif" font-size="14.00">▶ Modify</text>
<text text-anchor="middle" x="1426.5" y="-266.41" font-family="Helvetica,sans-Serif" font-size="14.00">sweepai/core/sweep_bot.py</text>
</g>
<!-- a357cd21&#45;df21&#45;4037&#45;a1b1&#45;66ccb7842f5b&#45;&gt;ede76a57&#45;c14f&#45;496f&#45;8ace&#45;8509d36e1f0a -->
<g id="edge7" class="edge">
<title>a357cd21&#45;df21&#45;4037&#45;a1b1&#45;66ccb7842f5b&#45;&gt;ede76a57&#45;c14f&#45;496f&#45;8ace&#45;8509d36e1f0a</title>
<path fill="none" stroke="black" d="M1199.36,-277.61C1223.04,-277.61 1246.72,-277.61 1270.4,-277.61"/>
<polygon fill="black" stroke="black" points="1270.55,-281.11 1280.55,-277.61 1270.55,-274.11 1270.55,-281.11"/>
</g>
<!-- c61b6839&#45;cff3&#45;465b&#45;aa55&#45;f5223c4337d1 -->
<g id="node9" class="node">
<title>c61b6839&#45;cff3&#45;465b&#45;aa55&#45;f5223c4337d1</title>
<polygon fill="white" stroke="black" points="1228.5,-213.74 850.5,-213.74 850.5,-177.74 1228.5,-177.74 1228.5,-213.74"/>
<text text-anchor="middle" x="1039.5" y="-192.04" font-family="Helvetica,sans-Serif" font-size="14.00">▶ Ran sandbox for `sweepai/handlers/on_ticket.py`.</text>
</g>
<!-- a357cd21&#45;df21&#45;4037&#45;a1b1&#45;66ccb7842f5b&#45;&gt;c61b6839&#45;cff3&#45;465b&#45;aa55&#45;f5223c4337d1 -->
<g id="edge6" class="edge">
<title>a357cd21&#45;df21&#45;4037&#45;a1b1&#45;66ccb7842f5b&#45;&gt;c61b6839&#45;cff3&#45;465b&#45;aa55&#45;f5223c4337d1</title>
<path fill="none" stroke="black" stroke-dasharray="5,2" d="M1039.5,-250.46C1039.5,-242.01 1039.5,-232.63 1039.5,-224.1"/>
<polygon fill="black" stroke="black" points="1043,-223.89 1039.5,-213.89 1036,-223.89 1043,-223.89"/>
</g>
<!-- e9d10c05&#45;39af&#45;40cf&#45;814b&#45;e941fedb183e -->
<g id="node6" class="node">
<title>e9d10c05&#45;39af&#45;40cf&#45;814b&#45;e941fedb183e</title>
<ellipse fill="white" stroke="black" cx="1798.5" cy="-277.61" rx="169" ry="26.74"/>
<text text-anchor="middle" x="1798.5" y="-281.41" font-family="Helvetica,sans-Serif" font-size="14.00">▶ Create</text>
<text text-anchor="middle" x="1798.5" y="-266.41" font-family="Helvetica,sans-Serif" font-size="14.00">sweepai/core/sweep_bot_test.py</text>
</g>
<!-- ede76a57&#45;c14f&#45;496f&#45;8ace&#45;8509d36e1f0a&#45;&gt;e9d10c05&#45;39af&#45;40cf&#45;814b&#45;e941fedb183e -->
<g id="edge9" class="edge">
<title>ede76a57&#45;c14f&#45;496f&#45;8ace&#45;8509d36e1f0a&#45;&gt;e9d10c05&#45;39af&#45;40cf&#45;814b&#45;e941fedb183e</title>
<path fill="none" stroke="black" d="M1572.18,-277.61C1587.77,-277.61 1603.36,-277.61 1618.95,-277.61"/>
<polygon fill="black" stroke="black" points="1619.2,-281.11 1629.2,-277.61 1619.2,-274.11 1619.2,-281.11"/>
</g>
<!-- 216edf46&#45;9677&#45;4d91&#45;abd0&#45;8d3afa8ee17a -->
<g id="node10" class="node">
<title>216edf46&#45;9677&#45;4d91&#45;abd0&#45;8d3afa8ee17a</title>
<polygon fill="white" stroke="black" points="1606,-213.74 1247,-213.74 1247,-177.74 1606,-177.74 1606,-213.74"/>
<text text-anchor="middle" x="1426.5" y="-192.04" font-family="Helvetica,sans-Serif" font-size="14.00">▶ Ran sandbox for `sweepai/core/sweep_bot.py`.</text>
</g>
<!-- ede76a57&#45;c14f&#45;496f&#45;8ace&#45;8509d36e1f0a&#45;&gt;216edf46&#45;9677&#45;4d91&#45;abd0&#45;8d3afa8ee17a -->
<g id="edge8" class="edge">
<title>ede76a57&#45;c14f&#45;496f&#45;8ace&#45;8509d36e1f0a&#45;&gt;216edf46&#45;9677&#45;4d91&#45;abd0&#45;8d3afa8ee17a</title>
<path fill="none" stroke="black" stroke-dasharray="5,2" d="M1426.5,-250.46C1426.5,-242.01 1426.5,-232.63 1426.5,-224.1"/>
<polygon fill="black" stroke="black" points="1430,-223.89 1426.5,-213.89 1423,-223.89 1430,-223.89"/>
</g>
<!-- e9d10c05&#45;39af&#45;40cf&#45;814b&#45;e941fedb183e&#45;&gt;end -->
<g id="edge12" class="edge">
<title>e9d10c05&#45;39af&#45;40cf&#45;814b&#45;e941fedb183e&#45;&gt;end</title>
<path fill="none" stroke="black" d="M1967.63,-277.61C1987.57,-277.61 2004.47,-277.61 2014.77,-277.61"/>
<polygon fill="black" stroke="black" points="2014.86,-281.11 2024.86,-277.61 2014.86,-274.11 2014.86,-281.11"/>
<text text-anchor="middle" x="1996.25" y="-284.41" font-family="Helvetica,sans-Serif" font-size="14.00">Finish</text>
</g>
<!-- aef4e22a&#45;7e47&#45;4c57&#45;8f2e&#45;871becf79ce3 -->
<g id="node11" class="node">
<title>aef4e22a&#45;7e47&#45;4c57&#45;8f2e&#45;871becf79ce3</title>
<polygon fill="white" stroke="black" points="2016.5,-213.74 1624.5,-213.74 1624.5,-177.74 2016.5,-177.74 2016.5,-213.74"/>
<text text-anchor="middle" x="1820.5" y="-192.04" font-family="Helvetica,sans-Serif" font-size="14.00">▶ Ran sandbox for `sweepai/core/sweep_bot_test.py`.</text>
</g>
<!-- e9d10c05&#45;39af&#45;40cf&#45;814b&#45;e941fedb183e&#45;&gt;aef4e22a&#45;7e47&#45;4c57&#45;8f2e&#45;871becf79ce3 -->
<g id="edge10" class="edge">
<title>e9d10c05&#45;39af&#45;40cf&#45;814b&#45;e941fedb183e&#45;&gt;aef4e22a&#45;7e47&#45;4c57&#45;8f2e&#45;871becf79ce3</title>
<path fill="none" stroke="black" stroke-dasharray="5,2" d="M1805.7,-250.46C1808.08,-241.83 1810.73,-232.21 1813.12,-223.53"/>
<polygon fill="black" stroke="black" points="1816.5,-224.46 1815.78,-213.89 1809.75,-222.6 1816.5,-224.46"/>
</g>
<!-- 2cdb64a9&#45;613a&#45;4b8c&#45;a6f9&#45;a6b0fb0cb0bc -->
<g id="node12" class="node">
<title>2cdb64a9&#45;613a&#45;4b8c&#45;a6f9&#45;a6b0fb0cb0bc</title>
<ellipse fill="#0ee832" stroke="black" cx="203.5" cy="-99.87" rx="82.05" ry="26.74"/>
<text text-anchor="middle" x="203.5" y="-103.67" font-family="Helvetica,sans-Serif" font-size="14.00">✓ Modify</text>
<text text-anchor="middle" x="203.5" y="-88.67" font-family="Helvetica,sans-Serif" font-size="14.00">pyproject.toml</text>
</g>
<!-- a87bebe1&#45;f627&#45;41e4&#45;9efb&#45;49bde450afdc&#45;&gt;2cdb64a9&#45;613a&#45;4b8c&#45;a6f9&#45;a6b0fb0cb0bc -->
<g id="edge2" class="edge">
<title>a87bebe1&#45;f627&#45;41e4&#45;9efb&#45;49bde450afdc&#45;&gt;2cdb64a9&#45;613a&#45;4b8c&#45;a6f9&#45;a6b0fb0cb0bc</title>
<path fill="none" stroke="black" d="M203.5,-177.52C203.5,-166.22 203.5,-151.01 203.5,-137.12"/>
<polygon fill="black" stroke="black" points="207,-136.84 203.5,-126.84 200,-136.84 207,-136.84"/>
<text text-anchor="middle" x="301" y="-148.54" font-family="Helvetica,sans-Serif" font-size="14.00">Additional changes required</text>
</g>
<!-- 2e424674&#45;8806&#45;44d6&#45;8d43&#45;fba9d414f7c6 -->
<g id="node13" class="node">
<title>2e424674&#45;8806&#45;44d6&#45;8d43&#45;fba9d414f7c6</title>
<polygon fill="#ee0000" stroke="black" points="338.5,-36 68.5,-36 68.5,0 338.5,0 338.5,-36"/>
<text text-anchor="middle" x="203.5" y="-14.3" font-family="Helvetica,sans-Serif" font-size="14.00">✗ Ran sandbox for `pyproject.toml`.</text>
</g>
<!-- 2cdb64a9&#45;613a&#45;4b8c&#45;a6f9&#45;a6b0fb0cb0bc&#45;&gt;2e424674&#45;8806&#45;44d6&#45;8d43&#45;fba9d414f7c6 -->
<g id="edge3" class="edge">
<title>2cdb64a9&#45;613a&#45;4b8c&#45;a6f9&#45;a6b0fb0cb0bc&#45;&gt;2e424674&#45;8806&#45;44d6&#45;8d43&#45;fba9d414f7c6</title>
<path fill="none" stroke="black" stroke-dasharray="5,2" d="M203.5,-72.72C203.5,-64.27 203.5,-54.89 203.5,-46.36"/>
<polygon fill="black" stroke="black" points="207,-46.15 203.5,-36.15 200,-46.15 207,-46.15"/>
</g>
</g>
</svg>
