<?xml version="1.0" encoding="UTF-8" standalone="no"?>
<!DOCTYPE svg PUBLIC "-//W3C//DTD SVG 1.1//EN"
 "http://www.w3.org/Graphics/SVG/1.1/DTD/svg11.dtd">
<!-- Generated by graphviz version 2.43.0 (0)
 -->
<!-- Title: %3 Pages: 1 -->
<svg width="1382pt" height="238pt"
 viewBox="0.00 0.00 1382.00 237.74" xmlns="http://www.w3.org/2000/svg" xmlns:xlink="http://www.w3.org/1999/xlink">
<g id="graph0" class="graph" transform="scale(1 1) rotate(0) translate(36 201.74)">
<title>%3</title>
<polygon fill="dimgray" stroke="transparent" points="-36,36 -36,-201.74 1346,-201.74 1346,36 -36,36"/>
<text text-anchor="middle" x="655" y="-150.54" font-family="Helvetica,sans-Serif" font-size="14.00">Sweep&#39;s Plan &amp; Progress</text>
<!-- start -->
<g id="node1" class="node">
<title>start</title>
</g>
<!-- 791ec525&#45;3a34&#45;4423&#45;bf49&#45;e6e73e5c98c2 -->
<g id="node3" class="node">
<title>791ec525&#45;3a34&#45;4423&#45;bf49&#45;e6e73e5c98c2</title>
<ellipse fill="#0ee832" stroke="black" cx="247" cy="-99.87" rx="162.77" ry="26.74"/>
<text text-anchor="middle" x="247" y="-103.67" font-family="Helvetica,sans-Serif" font-size="14.00">✓ Create</text>
<text text-anchor="middle" x="247" y="-88.67" font-family="Helvetica,sans-Serif" font-size="14.00">sweepai/agents/filter_agent.py</text>
</g>
<!-- start&#45;&gt;791ec525&#45;3a34&#45;4423&#45;bf49&#45;e6e73e5c98c2 -->
<g id="edge6" class="edge">
<title>start&#45;&gt;791ec525&#45;3a34&#45;4423&#45;bf49&#45;e6e73e5c98c2</title>
<path fill="none" stroke="black" d="M32.62,-99.87C35.9,-99.87 52,-99.87 74.02,-99.87"/>
<polygon fill="black" stroke="black" points="74.17,-103.37 84.17,-99.87 74.17,-96.37 74.17,-103.37"/>
<text text-anchor="middle" x="58.43" y="-106.67" font-family="Helvetica,sans-Serif" font-size="14.00">Start</text>
</g>
<!-- end -->
<g id="node2" class="node">
<title>end</title>
</g>
<!-- 8f57cb5c&#45;a3ce&#45;4954&#45;89e9&#45;b7a6b35fdd53 -->
<g id="node4" class="node">
<title>8f57cb5c&#45;a3ce&#45;4954&#45;89e9&#45;b7a6b35fdd53</title>
<ellipse fill="white" stroke="black" cx="667" cy="-99.87" rx="185.94" ry="26.74"/>
<text text-anchor="middle" x="667" y="-103.67" font-family="Helvetica,sans-Serif" font-size="14.00">▶ Create</text>
<text text-anchor="middle" x="667" y="-88.67" font-family="Helvetica,sans-Serif" font-size="14.00">sweepai/agents/filter_agent_test.py</text>
</g>
<!-- 791ec525&#45;3a34&#45;4423&#45;bf49&#45;e6e73e5c98c2&#45;&gt;8f57cb5c&#45;a3ce&#45;4954&#45;89e9&#45;b7a6b35fdd53 -->
<g id="edge2" class="edge">
<title>791ec525&#45;3a34&#45;4423&#45;bf49&#45;e6e73e5c98c2&#45;&gt;8f57cb5c&#45;a3ce&#45;4954&#45;89e9&#45;b7a6b35fdd53</title>
<path fill="none" stroke="black" d="M409.83,-99.87C430.1,-99.87 450.37,-99.87 470.63,-99.87"/>
<polygon fill="black" stroke="black" points="470.9,-103.37 480.9,-99.87 470.9,-96.37 470.9,-103.37"/>
</g>
<!-- 62907de3&#45;7056&#45;49c4&#45;b779&#45;b195bab83177 -->
<g id="node6" class="node">
<title>62907de3&#45;7056&#45;49c4&#45;b779&#45;b195bab83177</title>
<polygon fill="#0ee832" stroke="black" points="422,-36 0,-36 0,0 422,0 422,-36"/>
<text text-anchor="middle" x="211" y="-14.3" font-family="Helvetica,sans-Serif" font-size="14.00">✓ Run GitHub Actions for `sweepai/agents/filter_agent.py`</text>
</g>
<!-- 791ec525&#45;3a34&#45;4423&#45;bf49&#45;e6e73e5c98c2&#45;&gt;62907de3&#45;7056&#45;49c4&#45;b779&#45;b195bab83177 -->
<g id="edge1" class="edge">
<title>791ec525&#45;3a34&#45;4423&#45;bf49&#45;e6e73e5c98c2&#45;&gt;62907de3&#45;7056&#45;49c4&#45;b779&#45;b195bab83177</title>
<path fill="none" stroke="black" stroke-dasharray="5,2" d="M235.21,-72.72C231.28,-63.99 226.89,-54.26 222.95,-45.51"/>
<polygon fill="black" stroke="black" points="226.03,-43.82 218.73,-36.15 219.65,-46.7 226.03,-43.82"/>
</g>
<!-- ffc3a9ac&#45;f4ef&#45;43b5&#45;9596&#45;ccf6c93eb51f -->
<g id="node5" class="node">
<title>ffc3a9ac&#45;f4ef&#45;43b5&#45;9596&#45;ccf6c93eb51f</title>
<ellipse fill="white" stroke="black" cx="1073" cy="-99.87" rx="145.83" ry="26.74"/>
<text text-anchor="middle" x="1073" y="-103.67" font-family="Helvetica,sans-Serif" font-size="14.00">▶ Modify</text>
<text text-anchor="middle" x="1073" y="-88.67" font-family="Helvetica,sans-Serif" font-size="14.00">sweepai/utils/ticket_utils.py</text>
</g>
<!-- 8f57cb5c&#45;a3ce&#45;4954&#45;89e9&#45;b7a6b35fdd53&#45;&gt;ffc3a9ac&#45;f4ef&#45;43b5&#45;9596&#45;ccf6c93eb51f -->
<g id="edge4" class="edge">
<title>8f57cb5c&#45;a3ce&#45;4954&#45;89e9&#45;b7a6b35fdd53&#45;&gt;ffc3a9ac&#45;f4ef&#45;43b5&#45;9596&#45;ccf6c93eb51f</title>
<path fill="none" stroke="black" d="M853.35,-99.87C874.58,-99.87 895.82,-99.87 917.05,-99.87"/>
<polygon fill="black" stroke="black" points="917.14,-103.37 927.14,-99.87 917.14,-96.37 917.14,-103.37"/>
</g>
<!-- 506b2bc0&#45;e8af&#45;4727&#45;850b&#45;857bd859b8a5 -->
<g id="node7" class="node">
<title>506b2bc0&#45;e8af&#45;4727&#45;850b&#45;857bd859b8a5</title>
<polygon fill="white" stroke="black" points="894,-36 440,-36 440,0 894,0 894,-36"/>
<text text-anchor="middle" x="667" y="-14.3" font-family="Helvetica,sans-Serif" font-size="14.00">▶ Run GitHub Actions for `sweepai/agents/filter_agent_test.py`</text>
</g>
<!-- 8f57cb5c&#45;a3ce&#45;4954&#45;89e9&#45;b7a6b35fdd53&#45;&gt;506b2bc0&#45;e8af&#45;4727&#45;850b&#45;857bd859b8a5 -->
<g id="edge3" class="edge">
<title>8f57cb5c&#45;a3ce&#45;4954&#45;89e9&#45;b7a6b35fdd53&#45;&gt;506b2bc0&#45;e8af&#45;4727&#45;850b&#45;857bd859b8a5</title>
<path fill="none" stroke="black" stroke-dasharray="5,2" d="M667,-72.72C667,-64.27 667,-54.89 667,-46.36"/>
<polygon fill="black" stroke="black" points="670.5,-46.15 667,-36.15 663.5,-46.15 670.5,-46.15"/>
</g>
<!-- ffc3a9ac&#45;f4ef&#45;43b5&#45;9596&#45;ccf6c93eb51f&#45;&gt;end -->
<g id="edge7" class="edge">
<title>ffc3a9ac&#45;f4ef&#45;43b5&#45;9596&#45;ccf6c93eb51f&#45;&gt;end</title>
<path fill="none" stroke="black" d="M1218.81,-99.87C1238.57,-99.87 1255.62,-99.87 1266.07,-99.87"/>
<polygon fill="black" stroke="black" points="1266.35,-103.37 1276.35,-99.87 1266.35,-96.37 1266.35,-103.37"/>
<text text-anchor="middle" x="1247.58" y="-106.67" font-family="Helvetica,sans-Serif" font-size="14.00">Finish</text>
</g>
<!-- 5e032a37&#45;36f2&#45;4655&#45;857a&#45;4de243bc3685 -->
<g id="node8" class="node">
<title>5e032a37&#45;36f2&#45;4655&#45;857a&#45;4de243bc3685</title>
<polygon fill="white" stroke="black" points="1310,-36 912,-36 912,0 1310,0 1310,-36"/>
<text text-anchor="middle" x="1111" y="-14.3" font-family="Helvetica,sans-Serif" font-size="14.00">▶ Run GitHub Actions for `sweepai/utils/ticket_utils.py`</text>
</g>
<!-- ffc3a9ac&#45;f4ef&#45;43b5&#45;9596&#45;ccf6c93eb51f&#45;&gt;5e032a37&#45;36f2&#45;4655&#45;857a&#45;4de243bc3685 -->
<g id="edge5" class="edge">
<title>ffc3a9ac&#45;f4ef&#45;43b5&#45;9596&#45;ccf6c93eb51f&#45;&gt;5e032a37&#45;36f2&#45;4655&#45;857a&#45;4de243bc3685</title>
<path fill="none" stroke="black" stroke-dasharray="5,2" d="M1085.44,-72.72C1089.64,-63.9 1094.32,-54.05 1098.52,-45.23"/>
<polygon fill="black" stroke="black" points="1101.71,-46.68 1102.84,-36.15 1095.39,-43.67 1101.71,-46.68"/>
</g>
</g>
</svg>
