<?xml version="1.0" encoding="UTF-8" standalone="no"?>
<!DOCTYPE svg PUBLIC "-//W3C//DTD SVG 1.1//EN"
 "http://www.w3.org/Graphics/SVG/1.1/DTD/svg11.dtd">
<!-- Generated by graphviz version 2.43.0 (0)
 -->
<!-- Title: %3 Pages: 1 -->
<svg width="940pt" height="238pt"
 viewBox="0.00 0.00 940.00 237.74" xmlns="http://www.w3.org/2000/svg" xmlns:xlink="http://www.w3.org/1999/xlink">
<g id="graph0" class="graph" transform="scale(1 1) rotate(0) translate(36 201.74)">
<title>%3</title>
<polygon fill="dimgray" stroke="transparent" points="-36,36 -36,-201.74 904,-201.74 904,36 -36,36"/>
<text text-anchor="middle" x="434" y="-150.54" font-family="Helvetica,sans-Serif" font-size="14.00">Sweep&#39;s Plan &amp; Progress</text>
<!-- start -->
<g id="node1" class="node">
<title>start</title>
</g>
<!-- 9e85b849&#45;e682&#45;46c7&#45;abdd&#45;dca194a7465e -->
<g id="node3" class="node">
<title>9e85b849&#45;e682&#45;46c7&#45;abdd&#45;dca194a7465e</title>
<ellipse fill="#0ee832" stroke="black" cx="245" cy="-99.87" rx="152.06" ry="26.74"/>
<text text-anchor="middle" x="245" y="-103.67" font-family="Helvetica,sans-Serif" font-size="14.00">✓ Modify</text>
<text text-anchor="middle" x="245" y="-88.67" font-family="Helvetica,sans-Serif" font-size="14.00">sweepai/utils/docker_utils.py</text>
</g>
<!-- start&#45;&gt;9e85b849&#45;e682&#45;46c7&#45;abdd&#45;dca194a7465e -->
<g id="edge4" class="edge">
<title>start&#45;&gt;9e85b849&#45;e682&#45;46c7&#45;abdd&#45;dca194a7465e</title>
<path fill="none" stroke="black" d="M41.59,-99.87C44.79,-99.87 60.89,-99.87 82.73,-99.87"/>
<polygon fill="black" stroke="black" points="82.78,-103.37 92.78,-99.87 82.78,-96.37 82.78,-103.37"/>
<text text-anchor="middle" x="67.24" y="-106.67" font-family="Helvetica,sans-Serif" font-size="14.00">Start</text>
</g>
<!-- end -->
<g id="node2" class="node">
<title>end</title>
</g>
<!-- dbfe1927&#45;c4d9&#45;4dff&#45;8b4e&#45;f520d834bd28 -->
<g id="node4" class="node">
<title>dbfe1927&#45;c4d9&#45;4dff&#45;8b4e&#45;f520d834bd28</title>
<ellipse fill="white" stroke="black" cx="628" cy="-99.87" rx="175.23" ry="26.74"/>
<text text-anchor="middle" x="628" y="-103.67" font-family="Helvetica,sans-Serif" font-size="14.00">▶ Modify</text>
<text text-anchor="middle" x="628" y="-88.67" font-family="Helvetica,sans-Serif" font-size="14.00">sweepai/utils/docker_utils_test.py</text>
</g>
<!-- 9e85b849&#45;e682&#45;46c7&#45;abdd&#45;dca194a7465e&#45;&gt;dbfe1927&#45;c4d9&#45;4dff&#45;8b4e&#45;f520d834bd28 -->
<g id="edge2" class="edge">
<title>9e85b849&#45;e682&#45;46c7&#45;abdd&#45;dca194a7465e&#45;&gt;dbfe1927&#45;c4d9&#45;4dff&#45;8b4e&#45;f520d834bd28</title>
<path fill="none" stroke="black" d="M397.23,-99.87C412.12,-99.87 427.01,-99.87 441.91,-99.87"/>
<polygon fill="black" stroke="black" points="442.22,-103.37 452.22,-99.87 442.22,-96.37 442.22,-103.37"/>
</g>
<!-- 8cbafe2b&#45;6156&#45;4ab3&#45;ab21&#45;628554b1f34f -->
<g id="node5" class="node">
<title>8cbafe2b&#45;6156&#45;4ab3&#45;ab21&#45;628554b1f34f</title>
<polygon fill="yellow" stroke="black" points="410,-36 0,-36 0,0 410,0 410,-36"/>
<text text-anchor="middle" x="205" y="-14.3" font-family="Helvetica,sans-Serif" font-size="14.00">⋯ Run GitHub Actions for `sweepai/utils/docker_utils.py`</text>
</g>
<!-- 9e85b849&#45;e682&#45;46c7&#45;abdd&#45;dca194a7465e&#45;&gt;8cbafe2b&#45;6156&#45;4ab3&#45;ab21&#45;628554b1f34f -->
<g id="edge1" class="edge">
<title>9e85b849&#45;e682&#45;46c7&#45;abdd&#45;dca194a7465e&#45;&gt;8cbafe2b&#45;6156&#45;4ab3&#45;ab21&#45;628554b1f34f</title>
<path fill="none" stroke="black" stroke-dasharray="5,2" d="M231.9,-72.72C227.49,-63.9 222.56,-54.05 218.14,-45.23"/>
<polygon fill="black" stroke="black" points="221.19,-43.52 213.59,-36.15 214.94,-46.66 221.19,-43.52"/>
</g>
<!-- dbfe1927&#45;c4d9&#45;4dff&#45;8b4e&#45;f520d834bd28&#45;&gt;end -->
<g id="edge5" class="edge">
<title>dbfe1927&#45;c4d9&#45;4dff&#45;8b4e&#45;f520d834bd28&#45;&gt;end</title>
<path fill="none" stroke="black" d="M803.4,-99.87C823.33,-99.87 840.13,-99.87 850.35,-99.87"/>
<polygon fill="black" stroke="black" points="850.37,-103.37 860.37,-99.87 850.37,-96.37 850.37,-103.37"/>
<text text-anchor="middle" x="831.93" y="-106.67" font-family="Helvetica,sans-Serif" font-size="14.00">Finish</text>
</g>
<!-- 9049eb6e&#45;eeb5&#45;4dfb&#45;813e&#45;ea8ebebd1ceb -->
<g id="node6" class="node">
<title>9049eb6e&#45;eeb5&#45;4dfb&#45;813e&#45;ea8ebebd1ceb</title>
<polygon fill="white" stroke="black" points="868,-36 428,-36 428,0 868,0 868,-36"/>
<text text-anchor="middle" x="648" y="-14.3" font-family="Helvetica,sans-Serif" font-size="14.00">▶ Run GitHub Actions for `sweepai/utils/docker_utils_test.py`</text>
</g>
<!-- dbfe1927&#45;c4d9&#45;4dff&#45;8b4e&#45;f520d834bd28&#45;&gt;9049eb6e&#45;eeb5&#45;4dfb&#45;813e&#45;ea8ebebd1ceb -->
<g id="edge3" class="edge">
<title>dbfe1927&#45;c4d9&#45;4dff&#45;8b4e&#45;f520d834bd28&#45;&gt;9049eb6e&#45;eeb5&#45;4dfb&#45;813e&#45;ea8ebebd1ceb</title>
<path fill="none" stroke="black" stroke-dasharray="5,2" d="M634.55,-72.72C636.69,-64.18 639.07,-54.68 641.22,-46.08"/>
<polygon fill="black" stroke="black" points="644.67,-46.7 643.71,-36.15 637.88,-45 644.67,-46.7"/>
</g>
</g>
</svg>
