<?xml version="1.0" encoding="UTF-8" standalone="no"?>
<!DOCTYPE svg PUBLIC "-//W3C//DTD SVG 1.1//EN"
 "http://www.w3.org/Graphics/SVG/1.1/DTD/svg11.dtd">
<!-- Generated by graphviz version 8.0.3 (0)
 -->
<!-- Pages: 1 -->
<svg width="2379pt" height="593pt"
 viewBox="0.00 0.00 2379.00 593.22" xmlns="http://www.w3.org/2000/svg" xmlns:xlink="http://www.w3.org/1999/xlink">
<g id="graph0" class="graph" transform="scale(1 1) rotate(0) translate(36 557.22)">
<polygon fill="dimgray" stroke="none" points="-36,36 -36,-557.22 2343,-557.22 2343,36 -36,36"/>
<text text-anchor="middle" x="1153.5" y="-506.02" font-family="Helvetica,sans-Serif" font-size="14.00">Sweep&#39;s Plan &amp; Progress</text>
<!-- start -->
<g id="node1" class="node">
<title>start</title>
</g>
<!-- 777016a4&#45;869c&#45;4802&#45;acb9&#45;e0bec53c7cda -->
<g id="node3" class="node">
<title>777016a4&#45;869c&#45;4802&#45;acb9&#45;e0bec53c7cda</title>
<ellipse fill="#ee0000" stroke="black" cx="970.5" cy="-455.35" rx="159.61" ry="26.74"/>
<text text-anchor="middle" x="970.5" y="-459.15" font-family="Helvetica,sans-Serif" font-size="14.00">✗ Modify</text>
<text text-anchor="middle" x="970.5" y="-444.15" font-family="Helvetica,sans-Serif" font-size="14.00">sweepai/handlers/on_ticket.py</text>
</g>
<!-- start&#45;&gt;777016a4&#45;869c&#45;4802&#45;acb9&#45;e0bec53c7cda -->
<g id="edge22" class="edge">
<title>start&#45;&gt;777016a4&#45;869c&#45;4802&#45;acb9&#45;e0bec53c7cda</title>
<path fill="none" stroke="black" d="M758.65,-455.35C760.39,-455.35 776.75,-455.35 799.67,-455.35"/>
<polygon fill="black" stroke="black" points="799.63,-458.85 809.63,-455.35 799.63,-451.85 799.63,-458.85"/>
<text text-anchor="middle" x="784.85" y="-462.15" font-family="Helvetica,sans-Serif" font-size="14.00">Start</text>
</g>
<!-- end -->
<g id="node2" class="node">
<title>end</title>
</g>
<!-- 6da2bd48&#45;856b&#45;4801&#45;a784&#45;91176a04f6ad -->
<g id="node4" class="node">
<title>6da2bd48&#45;856b&#45;4801&#45;a784&#45;91176a04f6ad</title>
<ellipse fill="#0ee832" stroke="black" cx="1347.5" cy="-455.35" rx="159.61" ry="26.74"/>
<text text-anchor="middle" x="1347.5" y="-459.15" font-family="Helvetica,sans-Serif" font-size="14.00">✓ Modify</text>
<text text-anchor="middle" x="1347.5" y="-444.15" font-family="Helvetica,sans-Serif" font-size="14.00">sweepai/handlers/on_ticket.py</text>
</g>
<!-- 777016a4&#45;869c&#45;4802&#45;acb9&#45;e0bec53c7cda&#45;&gt;6da2bd48&#45;856b&#45;4801&#45;a784&#45;91176a04f6ad -->
<g id="edge2" class="edge">
<title>777016a4&#45;869c&#45;4802&#45;acb9&#45;e0bec53c7cda&#45;&gt;6da2bd48&#45;856b&#45;4801&#45;a784&#45;91176a04f6ad</title>
<path fill="none" stroke="black" d="M1130.28,-455.35C1145.79,-455.35 1161.31,-455.35 1176.82,-455.35"/>
<polygon fill="black" stroke="black" points="1176.56,-458.85 1186.56,-455.35 1176.56,-451.85 1176.56,-458.85"/>
</g>
<!-- da790d63&#45;8e88&#45;40b4&#45;8f69&#45;1ed52323fdfb -->
<g id="node5" class="node">
<title>da790d63&#45;8e88&#45;40b4&#45;8f69&#45;1ed52323fdfb</title>
<polygon fill="#ee0000" stroke="black" points="1139.5,-391.48 759.5,-391.48 759.5,-355.48 1139.5,-355.48 1139.5,-391.48"/>
<text text-anchor="middle" x="949.5" y="-369.78" font-family="Helvetica,sans-Serif" font-size="14.00">✗ Ran sandbox for `sweepai/handlers/on_ticket.py`.</text>
</g>
<!-- 777016a4&#45;869c&#45;4802&#45;acb9&#45;e0bec53c7cda&#45;&gt;da790d63&#45;8e88&#45;40b4&#45;8f69&#45;1ed52323fdfb -->
<g id="edge1" class="edge">
<title>777016a4&#45;869c&#45;4802&#45;acb9&#45;e0bec53c7cda&#45;&gt;da790d63&#45;8e88&#45;40b4&#45;8f69&#45;1ed52323fdfb</title>
<path fill="none" stroke="black" stroke-dasharray="5,2" d="M963.62,-428.2C961.43,-419.85 958.99,-410.58 956.77,-402.13"/>
<polygon fill="black" stroke="black" points="959.94,-401.41 954.01,-392.63 953.17,-403.19 959.94,-401.41"/>
</g>
<!-- 6da2bd48&#45;856b&#45;4801&#45;a784&#45;91176a04f6ad&#45;&gt;end -->
<g id="edge23" class="edge">
<title>6da2bd48&#45;856b&#45;4801&#45;a784&#45;91176a04f6ad&#45;&gt;end</title>
<path fill="none" stroke="black" d="M1507.37,-455.35C1527,-455.35 1543.8,-455.35 1554.22,-455.35"/>
<polygon fill="black" stroke="black" points="1554.21,-458.85 1564.21,-455.35 1554.21,-451.85 1554.21,-458.85"/>
<text text-anchor="middle" x="1536.15" y="-462.15" font-family="Helvetica,sans-Serif" font-size="14.00">Finish</text>
</g>
<!-- b28b1664&#45;a9f4&#45;4ff5&#45;9ceb&#45;6f6dbbefc4d7 -->
<g id="node6" class="node">
<title>b28b1664&#45;a9f4&#45;4ff5&#45;9ceb&#45;6f6dbbefc4d7</title>
<polygon fill="#ee0000" stroke="black" points="1537.5,-391.48 1157.5,-391.48 1157.5,-355.48 1537.5,-355.48 1537.5,-391.48"/>
<text text-anchor="middle" x="1347.5" y="-369.78" font-family="Helvetica,sans-Serif" font-size="14.00">✗ Ran sandbox for `sweepai/handlers/on_ticket.py`.</text>
</g>
<!-- 6da2bd48&#45;856b&#45;4801&#45;a784&#45;91176a04f6ad&#45;&gt;b28b1664&#45;a9f4&#45;4ff5&#45;9ceb&#45;6f6dbbefc4d7 -->
<g id="edge3" class="edge">
<title>6da2bd48&#45;856b&#45;4801&#45;a784&#45;91176a04f6ad&#45;&gt;b28b1664&#45;a9f4&#45;4ff5&#45;9ceb&#45;6f6dbbefc4d7</title>
<path fill="none" stroke="black" stroke-dasharray="5,2" d="M1347.5,-428.2C1347.5,-419.94 1347.5,-410.79 1347.5,-402.41"/>
<polygon fill="black" stroke="black" points="1351,-402.63 1347.5,-392.63 1344,-402.63 1351,-402.63"/>
</g>
<!-- c78a302f&#45;95cd&#45;4149&#45;9e26&#45;497c8ae78a6a -->
<g id="node7" class="node">
<title>c78a302f&#45;95cd&#45;4149&#45;9e26&#45;497c8ae78a6a</title>
<polygon fill="white" stroke="black" points="1933.5,-391.48 1555.5,-391.48 1555.5,-355.48 1933.5,-355.48 1933.5,-391.48"/>
<text text-anchor="middle" x="1744.5" y="-369.78" font-family="Helvetica,sans-Serif" font-size="14.00">▶ Ran sandbox for `sweepai/handlers/on_ticket.py`.</text>
</g>
<!-- 6da2bd48&#45;856b&#45;4801&#45;a784&#45;91176a04f6ad&#45;&gt;c78a302f&#45;95cd&#45;4149&#45;9e26&#45;497c8ae78a6a -->
<g id="edge21" class="edge">
<title>6da2bd48&#45;856b&#45;4801&#45;a784&#45;91176a04f6ad&#45;&gt;c78a302f&#45;95cd&#45;4149&#45;9e26&#45;497c8ae78a6a</title>
<path fill="none" stroke="black" stroke-dasharray="5,2" d="M1447.94,-434.14C1508.94,-421.87 1586.44,-406.28 1646.92,-394.11"/>
<polygon fill="black" stroke="black" points="1647.5,-397.36 1656.62,-391.96 1646.12,-390.5 1647.5,-397.36"/>
</g>
<!-- 1effb80a&#45;afe8&#45;479a&#45;a3e4&#45;fc346d420308 -->
<g id="node8" class="node">
<title>1effb80a&#45;afe8&#45;479a&#45;a3e4&#45;fc346d420308</title>
<ellipse fill="#0ee832" stroke="black" cx="457.5" cy="-277.61" rx="98.08" ry="26.74"/>
<text text-anchor="middle" x="457.5" y="-281.41" font-family="Helvetica,sans-Serif" font-size="14.00">✓ Create</text>
<text text-anchor="middle" x="457.5" y="-266.41" font-family="Helvetica,sans-Serif" font-size="14.00">.trunk/trunk.yaml</text>
</g>
<!-- b28b1664&#45;a9f4&#45;4ff5&#45;9ceb&#45;6f6dbbefc4d7&#45;&gt;1effb80a&#45;afe8&#45;479a&#45;a3e4&#45;fc346d420308 -->
<g id="edge4" class="edge">
<title>b28b1664&#45;a9f4&#45;4ff5&#45;9ceb&#45;6f6dbbefc4d7&#45;&gt;1effb80a&#45;afe8&#45;479a&#45;a3e4&#45;fc346d420308</title>
<path fill="none" stroke="black" d="M1157.13,-356.03C1154.23,-355.84 1151.36,-355.66 1148.5,-355.48 942.96,-342.71 889.25,-367.39 685.5,-337.48 632.7,-329.73 574.47,-314.58 530.07,-301.59"/>
<polygon fill="black" stroke="black" points="531.25,-297.99 520.67,-298.51 529.26,-304.7 531.25,-297.99"/>
<text text-anchor="middle" x="783" y="-326.28" font-family="Helvetica,sans-Serif" font-size="14.00">Additional changes required</text>
</g>
<!-- 4d098d4a&#45;623c&#45;44de&#45;99e8&#45;8bb04522bb86 -->
<g id="node9" class="node">
<title>4d098d4a&#45;623c&#45;44de&#45;99e8&#45;8bb04522bb86</title>
<ellipse fill="white" stroke="black" cx="789.5" cy="-277.61" rx="82.05" ry="26.74"/>
<text text-anchor="middle" x="789.5" y="-281.41" font-family="Helvetica,sans-Serif" font-size="14.00">▶ Create</text>
<text text-anchor="middle" x="789.5" y="-266.41" font-family="Helvetica,sans-Serif" font-size="14.00">.hadolint.yaml</text>
</g>
<!-- b28b1664&#45;a9f4&#45;4ff5&#45;9ceb&#45;6f6dbbefc4d7&#45;&gt;4d098d4a&#45;623c&#45;44de&#45;99e8&#45;8bb04522bb86 -->
<g id="edge9" class="edge">
<title>b28b1664&#45;a9f4&#45;4ff5&#45;9ceb&#45;6f6dbbefc4d7&#45;&gt;4d098d4a&#45;623c&#45;44de&#45;99e8&#45;8bb04522bb86</title>
<path fill="none" stroke="black" d="M1157.12,-356.2C1154.22,-355.96 1151.35,-355.72 1148.5,-355.48 1050.29,-347.29 1023.17,-361.12 927.5,-337.48 898.03,-330.2 866.8,-317.35 841.51,-305.51"/>
<polygon fill="black" stroke="black" points="843.31,-302.01 832.77,-300.86 840.29,-308.33 843.31,-302.01"/>
<text text-anchor="middle" x="1025" y="-326.28" font-family="Helvetica,sans-Serif" font-size="14.00">Additional changes required</text>
</g>
<!-- fef081aa&#45;7234&#45;4238&#45;b14a&#45;80945924107c -->
<g id="node10" class="node">
<title>fef081aa&#45;7234&#45;4238&#45;b14a&#45;80945924107c</title>
<ellipse fill="white" stroke="black" cx="1080.5" cy="-277.61" rx="109.7" ry="26.74"/>
<text text-anchor="middle" x="1080.5" y="-281.41" font-family="Helvetica,sans-Serif" font-size="14.00">▶ Create</text>
<text text-anchor="middle" x="1080.5" y="-266.41" font-family="Helvetica,sans-Serif" font-size="14.00">.markdownlint.yaml</text>
</g>
<!-- b28b1664&#45;a9f4&#45;4ff5&#45;9ceb&#45;6f6dbbefc4d7&#45;&gt;fef081aa&#45;7234&#45;4238&#45;b14a&#45;80945924107c -->
<g id="edge11" class="edge">
<title>b28b1664&#45;a9f4&#45;4ff5&#45;9ceb&#45;6f6dbbefc4d7&#45;&gt;fef081aa&#45;7234&#45;4238&#45;b14a&#45;80945924107c</title>
<path fill="none" stroke="black" d="M1196.98,-355.03C1180.21,-350.46 1163.71,-344.71 1148.5,-337.48 1135.01,-331.07 1122.12,-321.23 1111.25,-311.43"/>
<polygon fill="black" stroke="black" points="1114.03,-309.3 1104.36,-304.99 1109.23,-314.39 1114.03,-309.3"/>
<text text-anchor="middle" x="1246" y="-326.28" font-family="Helvetica,sans-Serif" font-size="14.00">Additional changes required</text>
</g>
<!-- 7c382e05&#45;c357&#45;4c52&#45;aa38&#45;74fa0c0fba75 -->
<g id="node11" class="node">
<title>7c382e05&#45;c357&#45;4c52&#45;aa38&#45;74fa0c0fba75</title>
<ellipse fill="white" stroke="black" cx="1347.5" cy="-277.61" rx="54.39" ry="26.74"/>
<text text-anchor="middle" x="1347.5" y="-281.41" font-family="Helvetica,sans-Serif" font-size="14.00">▶ Create</text>
<text text-anchor="middle" x="1347.5" y="-266.41" font-family="Helvetica,sans-Serif" font-size="14.00">ruff.toml</text>
</g>
<!-- b28b1664&#45;a9f4&#45;4ff5&#45;9ceb&#45;6f6dbbefc4d7&#45;&gt;7c382e05&#45;c357&#45;4c52&#45;aa38&#45;74fa0c0fba75 -->
<g id="edge13" class="edge">
<title>b28b1664&#45;a9f4&#45;4ff5&#45;9ceb&#45;6f6dbbefc4d7&#45;&gt;7c382e05&#45;c357&#45;4c52&#45;aa38&#45;74fa0c0fba75</title>
<path fill="none" stroke="black" d="M1347.5,-355.26C1347.5,-344.07 1347.5,-329.05 1347.5,-315.27"/>
<polygon fill="black" stroke="black" points="1351,-315.58 1347.5,-305.58 1344,-315.58 1351,-315.58"/>
<text text-anchor="middle" x="1445" y="-326.28" font-family="Helvetica,sans-Serif" font-size="14.00">Additional changes required</text>
</g>
<!-- 3af7b6cf&#45;e1ce&#45;4f82&#45;b83a&#45;aa998c800316 -->
<g id="node12" class="node">
<title>3af7b6cf&#45;e1ce&#45;4f82&#45;b83a&#45;aa998c800316</title>
<ellipse fill="white" stroke="black" cx="1587.5" cy="-277.61" rx="75.82" ry="26.74"/>
<text text-anchor="middle" x="1587.5" y="-281.41" font-family="Helvetica,sans-Serif" font-size="14.00">▶ Create</text>
<text text-anchor="middle" x="1587.5" y="-266.41" font-family="Helvetica,sans-Serif" font-size="14.00">.shellcheckrc</text>
</g>
<!-- b28b1664&#45;a9f4&#45;4ff5&#45;9ceb&#45;6f6dbbefc4d7&#45;&gt;3af7b6cf&#45;e1ce&#45;4f82&#45;b83a&#45;aa998c800316 -->
<g id="edge15" class="edge">
<title>b28b1664&#45;a9f4&#45;4ff5&#45;9ceb&#45;6f6dbbefc4d7&#45;&gt;3af7b6cf&#45;e1ce&#45;4f82&#45;b83a&#45;aa998c800316</title>
<path fill="none" stroke="black" d="M1490.14,-355.06C1514.6,-350.26 1535.63,-344.42 1546.5,-337.48 1555.87,-331.5 1563.69,-322.53 1569.9,-313.39"/>
<polygon fill="black" stroke="black" points="1573.25,-315.63 1575.57,-305.29 1567.31,-311.92 1573.25,-315.63"/>
<text text-anchor="middle" x="1660" y="-326.28" font-family="Helvetica,sans-Serif" font-size="14.00">Additional changes required</text>
</g>
<!-- db874f51&#45;5f05&#45;4c7f&#45;99cc&#45;6586d420fb27 -->
<g id="node13" class="node">
<title>db874f51&#45;5f05&#45;4c7f&#45;99cc&#45;6586d420fb27</title>
<ellipse fill="white" stroke="black" cx="1847.5" cy="-277.61" rx="79.81" ry="26.74"/>
<text text-anchor="middle" x="1847.5" y="-281.41" font-family="Helvetica,sans-Serif" font-size="14.00">▶ Create</text>
<text text-anchor="middle" x="1847.5" y="-266.41" font-family="Helvetica,sans-Serif" font-size="14.00">svgo.config.js</text>
</g>
<!-- b28b1664&#45;a9f4&#45;4ff5&#45;9ceb&#45;6f6dbbefc4d7&#45;&gt;db874f51&#45;5f05&#45;4c7f&#45;99cc&#45;6586d420fb27 -->
<g id="edge17" class="edge">
<title>b28b1664&#45;a9f4&#45;4ff5&#45;9ceb&#45;6f6dbbefc4d7&#45;&gt;db874f51&#45;5f05&#45;4c7f&#45;99cc&#45;6586d420fb27</title>
<path fill="none" stroke="black" d="M1537.88,-356.21C1540.78,-355.96 1543.65,-355.72 1546.5,-355.48 1594.27,-351.44 1716.33,-353.56 1761.5,-337.48 1779.15,-331.2 1796.58,-320.37 1811.09,-309.7"/>
<polygon fill="black" stroke="black" points="1812.9,-311.97 1818.73,-303.12 1808.65,-306.4 1812.9,-311.97"/>
<text text-anchor="middle" x="1888" y="-326.28" font-family="Helvetica,sans-Serif" font-size="14.00">Additional changes required</text>
</g>
<!-- 0d9c7738&#45;362e&#45;40c1&#45;86ec&#45;098074656836 -->
<g id="node14" class="node">
<title>0d9c7738&#45;362e&#45;40c1&#45;86ec&#45;098074656836</title>
<ellipse fill="white" stroke="black" cx="2106.5" cy="-277.61" rx="81.13" ry="26.74"/>
<text text-anchor="middle" x="2106.5" y="-281.41" font-family="Helvetica,sans-Serif" font-size="14.00">▶ Create</text>
<text text-anchor="middle" x="2106.5" y="-266.41" font-family="Helvetica,sans-Serif" font-size="14.00">.yamllint.yaml</text>
</g>
<!-- b28b1664&#45;a9f4&#45;4ff5&#45;9ceb&#45;6f6dbbefc4d7&#45;&gt;0d9c7738&#45;362e&#45;40c1&#45;86ec&#45;098074656836 -->
<g id="edge19" class="edge">
<title>b28b1664&#45;a9f4&#45;4ff5&#45;9ceb&#45;6f6dbbefc4d7&#45;&gt;0d9c7738&#45;362e&#45;40c1&#45;86ec&#45;098074656836</title>
<path fill="none" stroke="black" d="M1537.87,-356.04C1540.77,-355.85 1543.65,-355.66 1546.5,-355.48 1644.83,-349.29 1894.12,-362.18 1989.5,-337.48 2014.2,-331.08 2039.73,-318.98 2060.62,-307.41"/>
<polygon fill="black" stroke="black" points="2062.21,-309.96 2069.17,-301.97 2058.75,-303.87 2062.21,-309.96"/>
<text text-anchor="middle" x="2128" y="-326.28" font-family="Helvetica,sans-Serif" font-size="14.00">Additional changes required</text>
</g>
<!-- a2f4d6dd&#45;8386&#45;4ba4&#45;9cc0&#45;9530fdce5359 -->
<g id="node15" class="node">
<title>a2f4d6dd&#45;8386&#45;4ba4&#45;9cc0&#45;9530fdce5359</title>
<polygon fill="#ee0000" stroke="black" points="294,-213.74 1,-213.74 1,-177.74 294,-177.74 294,-213.74"/>
<text text-anchor="middle" x="147.5" y="-192.04" font-family="Helvetica,sans-Serif" font-size="14.00">✗ Ran sandbox for `.trunk/trunk.yaml`.</text>
</g>
<!-- 1effb80a&#45;afe8&#45;479a&#45;a3e4&#45;fc346d420308&#45;&gt;a2f4d6dd&#45;8386&#45;4ba4&#45;9cc0&#45;9530fdce5359 -->
<g id="edge5" class="edge">
<title>1effb80a&#45;afe8&#45;479a&#45;a3e4&#45;fc346d420308&#45;&gt;a2f4d6dd&#45;8386&#45;4ba4&#45;9cc0&#45;9530fdce5359</title>
<path fill="none" stroke="black" stroke-dasharray="5,2" d="M387.54,-258.59C339.45,-246.19 275.52,-229.72 225.74,-216.9"/>
<polygon fill="black" stroke="black" points="226.89,-213.32 216.34,-214.22 225.15,-220.1 226.89,-213.32"/>
</g>
<!-- 61f8cd34&#45;ab8a&#45;4cdf&#45;bdbf&#45;08a904fc04dc -->
<g id="node16" class="node">
<title>61f8cd34&#45;ab8a&#45;4cdf&#45;bdbf&#45;08a904fc04dc</title>
<polygon fill="white" stroke="black" points="603,-213.74 312,-213.74 312,-177.74 603,-177.74 603,-213.74"/>
<text text-anchor="middle" x="457.5" y="-192.04" font-family="Helvetica,sans-Serif" font-size="14.00">▶ Ran sandbox for `.trunk/trunk.yaml`.</text>
</g>
<!-- 1effb80a&#45;afe8&#45;479a&#45;a3e4&#45;fc346d420308&#45;&gt;61f8cd34&#45;ab8a&#45;4cdf&#45;bdbf&#45;08a904fc04dc -->
<g id="edge8" class="edge">
<title>1effb80a&#45;afe8&#45;479a&#45;a3e4&#45;fc346d420308&#45;&gt;61f8cd34&#45;ab8a&#45;4cdf&#45;bdbf&#45;08a904fc04dc</title>
<path fill="none" stroke="black" stroke-dasharray="5,2" d="M457.5,-250.46C457.5,-242.2 457.5,-233.05 457.5,-224.67"/>
<polygon fill="black" stroke="black" points="461,-224.89 457.5,-214.89 454,-224.89 461,-224.89"/>
</g>
<!-- 7efcc62f&#45;ee4e&#45;41bb&#45;a0de&#45;69ae1cfe609b -->
<g id="node17" class="node">
<title>7efcc62f&#45;ee4e&#45;41bb&#45;a0de&#45;69ae1cfe609b</title>
<polygon fill="white" stroke="black" points="889.5,-213.74 621.5,-213.74 621.5,-177.74 889.5,-177.74 889.5,-213.74"/>
<text text-anchor="middle" x="755.5" y="-192.04" font-family="Helvetica,sans-Serif" font-size="14.00">▶ Ran sandbox for `.hadolint.yaml`.</text>
</g>
<!-- 4d098d4a&#45;623c&#45;44de&#45;99e8&#45;8bb04522bb86&#45;&gt;7efcc62f&#45;ee4e&#45;41bb&#45;a0de&#45;69ae1cfe609b -->
<g id="edge10" class="edge">
<title>4d098d4a&#45;623c&#45;44de&#45;99e8&#45;8bb04522bb86&#45;&gt;7efcc62f&#45;ee4e&#45;41bb&#45;a0de&#45;69ae1cfe609b</title>
<path fill="none" stroke="black" stroke-dasharray="5,2" d="M778.56,-250.9C774.91,-242.34 770.84,-232.78 767.15,-224.1"/>
<polygon fill="black" stroke="black" points="770.02,-222.91 762.88,-215.08 763.58,-225.65 770.02,-222.91"/>
</g>
<!-- 9d4b871f&#45;5a32&#45;403a&#45;8c31&#45;f4ddb2609e97 -->
<g id="node18" class="node">
<title>9d4b871f&#45;5a32&#45;403a&#45;8c31&#45;f4ddb2609e97</title>
<polygon fill="white" stroke="black" points="1215,-213.74 908,-213.74 908,-177.74 1215,-177.74 1215,-213.74"/>
<text text-anchor="middle" x="1061.5" y="-192.04" font-family="Helvetica,sans-Serif" font-size="14.00">▶ Ran sandbox for `.markdownlint.yaml`.</text>
</g>
<!-- fef081aa&#45;7234&#45;4238&#45;b14a&#45;80945924107c&#45;&gt;9d4b871f&#45;5a32&#45;403a&#45;8c31&#45;f4ddb2609e97 -->
<g id="edge12" class="edge">
<title>fef081aa&#45;7234&#45;4238&#45;b14a&#45;80945924107c&#45;&gt;9d4b871f&#45;5a32&#45;403a&#45;8c31&#45;f4ddb2609e97</title>
<path fill="none" stroke="black" stroke-dasharray="5,2" d="M1074.28,-250.46C1072.29,-242.11 1070.09,-232.84 1068.08,-224.39"/>
<polygon fill="black" stroke="black" points="1071.3,-223.81 1065.58,-214.89 1064.49,-225.43 1071.3,-223.81"/>
</g>
<!-- b76525f1&#45;284b&#45;4a1a&#45;81ba&#45;ba7df5b2c604 -->
<g id="node19" class="node">
<title>b76525f1&#45;284b&#45;4a1a&#45;81ba&#45;ba7df5b2c604</title>
<polygon fill="white" stroke="black" points="1462,-213.74 1233,-213.74 1233,-177.74 1462,-177.74 1462,-213.74"/>
<text text-anchor="middle" x="1347.5" y="-192.04" font-family="Helvetica,sans-Serif" font-size="14.00">▶ Ran sandbox for `ruff.toml`.</text>
</g>
<!-- 7c382e05&#45;c357&#45;4c52&#45;aa38&#45;74fa0c0fba75&#45;&gt;b76525f1&#45;284b&#45;4a1a&#45;81ba&#45;ba7df5b2c604 -->
<g id="edge14" class="edge">
<title>7c382e05&#45;c357&#45;4c52&#45;aa38&#45;74fa0c0fba75&#45;&gt;b76525f1&#45;284b&#45;4a1a&#45;81ba&#45;ba7df5b2c604</title>
<path fill="none" stroke="black" stroke-dasharray="5,2" d="M1347.5,-250.46C1347.5,-242.2 1347.5,-233.05 1347.5,-224.67"/>
<polygon fill="black" stroke="black" points="1351,-224.89 1347.5,-214.89 1344,-224.89 1351,-224.89"/>
</g>
<!-- 846243c6&#45;9f9c&#45;4280&#45;b68f&#45;d813c7f5482a -->
<g id="node20" class="node">
<title>846243c6&#45;9f9c&#45;4280&#45;b68f&#45;d813c7f5482a</title>
<polygon fill="white" stroke="black" points="1739,-213.74 1480,-213.74 1480,-177.74 1739,-177.74 1739,-213.74"/>
<text text-anchor="middle" x="1609.5" y="-192.04" font-family="Helvetica,sans-Serif" font-size="14.00">▶ Ran sandbox for `.shellcheckrc`.</text>
</g>
<!-- 3af7b6cf&#45;e1ce&#45;4f82&#45;b83a&#45;aa998c800316&#45;&gt;846243c6&#45;9f9c&#45;4280&#45;b68f&#45;d813c7f5482a -->
<g id="edge16" class="edge">
<title>3af7b6cf&#45;e1ce&#45;4f82&#45;b83a&#45;aa998c800316&#45;&gt;846243c6&#45;9f9c&#45;4280&#45;b68f&#45;d813c7f5482a</title>
<path fill="none" stroke="black" stroke-dasharray="5,2" d="M1594.58,-250.9C1596.89,-242.53 1599.46,-233.2 1601.81,-224.67"/>
<polygon fill="black" stroke="black" points="1605.44,-225.65 1604.72,-215.08 1598.69,-223.79 1605.44,-225.65"/>
</g>
<!-- 497ee8b8&#45;e137&#45;4184&#45;95c1&#45;84224a850b7d -->
<g id="node21" class="node">
<title>497ee8b8&#45;e137&#45;4184&#45;95c1&#45;84224a850b7d</title>
<polygon fill="white" stroke="black" points="2022,-213.74 1757,-213.74 1757,-177.74 2022,-177.74 2022,-213.74"/>
<text text-anchor="middle" x="1889.5" y="-192.04" font-family="Helvetica,sans-Serif" font-size="14.00">▶ Ran sandbox for `svgo.config.js`.</text>
</g>
<!-- db874f51&#45;5f05&#45;4c7f&#45;99cc&#45;6586d420fb27&#45;&gt;497ee8b8&#45;e137&#45;4184&#45;95c1&#45;84224a850b7d -->
<g id="edge18" class="edge">
<title>db874f51&#45;5f05&#45;4c7f&#45;99cc&#45;6586d420fb27&#45;&gt;497ee8b8&#45;e137&#45;4184&#45;95c1&#45;84224a850b7d</title>
<path fill="none" stroke="black" stroke-dasharray="5,2" d="M1861.02,-250.9C1865.62,-242.15 1870.77,-232.36 1875.41,-223.53"/>
<polygon fill="black" stroke="black" points="1878.83,-225.56 1880.38,-215.08 1872.63,-222.3 1878.83,-225.56"/>
</g>
<!-- 0f216f21&#45;13e2&#45;44ec&#45;bf19&#45;0e8ce6b5a0b4 -->
<g id="node22" class="node">
<title>0f216f21&#45;13e2&#45;44ec&#45;bf19&#45;0e8ce6b5a0b4</title>
<polygon fill="white" stroke="black" points="2307,-213.74 2040,-213.74 2040,-177.74 2307,-177.74 2307,-213.74"/>
<text text-anchor="middle" x="2173.5" y="-192.04" font-family="Helvetica,sans-Serif" font-size="14.00">▶ Ran sandbox for `.yamllint.yaml`.</text>
</g>
<!-- 0d9c7738&#45;362e&#45;40c1&#45;86ec&#45;098074656836&#45;&gt;0f216f21&#45;13e2&#45;44ec&#45;bf19&#45;0e8ce6b5a0b4 -->
<g id="edge20" class="edge">
<title>0d9c7738&#45;362e&#45;40c1&#45;86ec&#45;098074656836&#45;&gt;0f216f21&#45;13e2&#45;44ec&#45;bf19&#45;0e8ce6b5a0b4</title>
<path fill="none" stroke="black" stroke-dasharray="5,2" d="M2127.7,-251.34C2135.57,-241.96 2144.48,-231.33 2152.35,-221.96"/>
<polygon fill="black" stroke="black" points="2155.46,-224.69 2159.21,-214.78 2150.1,-220.19 2155.46,-224.69"/>
</g>
<!-- afc36005&#45;e8ed&#45;4076&#45;b445&#45;ff1871647da6 -->
<g id="node23" class="node">
<title>afc36005&#45;e8ed&#45;4076&#45;b445&#45;ff1871647da6</title>
<ellipse fill="#ee0000" stroke="black" cx="147.5" cy="-99.87" rx="98.08" ry="26.74"/>
<text text-anchor="middle" x="147.5" y="-103.67" font-family="Helvetica,sans-Serif" font-size="14.00">✗ Modify</text>
<text text-anchor="middle" x="147.5" y="-88.67" font-family="Helvetica,sans-Serif" font-size="14.00">.trunk/trunk.yaml</text>
</g>
<!-- a2f4d6dd&#45;8386&#45;4ba4&#45;9cc0&#45;9530fdce5359&#45;&gt;afc36005&#45;e8ed&#45;4076&#45;b445&#45;ff1871647da6 -->
<g id="edge6" class="edge">
<title>a2f4d6dd&#45;8386&#45;4ba4&#45;9cc0&#45;9530fdce5359&#45;&gt;afc36005&#45;e8ed&#45;4076&#45;b445&#45;ff1871647da6</title>
<path fill="none" stroke="black" d="M147.5,-177.52C147.5,-166.33 147.5,-151.31 147.5,-137.53"/>
<polygon fill="black" stroke="black" points="151,-137.84 147.5,-127.84 144,-137.84 151,-137.84"/>
<text text-anchor="middle" x="245" y="-148.54" font-family="Helvetica,sans-Serif" font-size="14.00">Additional changes required</text>
</g>
<!-- 054fe5f2&#45;1bee&#45;4a9e&#45;940b&#45;7e6e3caecca5 -->
<g id="node24" class="node">
<title>054fe5f2&#45;1bee&#45;4a9e&#45;940b&#45;7e6e3caecca5</title>
<polygon fill="yellow" stroke="black" points="295,-36 0,-36 0,0 295,0 295,-36"/>
<text text-anchor="middle" x="147.5" y="-14.3" font-family="Helvetica,sans-Serif" font-size="14.00">⋯ Ran sandbox for `.trunk/trunk.yaml`.</text>
</g>
<!-- afc36005&#45;e8ed&#45;4076&#45;b445&#45;ff1871647da6&#45;&gt;054fe5f2&#45;1bee&#45;4a9e&#45;940b&#45;7e6e3caecca5 -->
<g id="edge7" class="edge">
<title>afc36005&#45;e8ed&#45;4076&#45;b445&#45;ff1871647da6&#45;&gt;054fe5f2&#45;1bee&#45;4a9e&#45;940b&#45;7e6e3caecca5</title>
<path fill="none" stroke="black" stroke-dasharray="5,2" d="M147.5,-72.72C147.5,-64.46 147.5,-55.31 147.5,-46.93"/>
<polygon fill="black" stroke="black" points="151,-47.15 147.5,-37.15 144,-47.15 151,-47.15"/>
</g>
</g>
</svg>
