<?xml version="1.0" encoding="UTF-8" standalone="no"?>
<!DOCTYPE svg PUBLIC "-//W3C//DTD SVG 1.1//EN"
 "http://www.w3.org/Graphics/SVG/1.1/DTD/svg11.dtd">
<!-- Generated by graphviz version 2.43.0 (0)
 -->
<!-- Title: %3 Pages: 1 -->
<svg width="890pt" height="238pt"
 viewBox="0.00 0.00 890.00 237.74" xmlns="http://www.w3.org/2000/svg" xmlns:xlink="http://www.w3.org/1999/xlink">
<g id="graph0" class="graph" transform="scale(1 1) rotate(0) translate(36 201.74)">
<title>%3</title>
<polygon fill="dimgray" stroke="transparent" points="-36,36 -36,-201.74 854,-201.74 854,36 -36,36"/>
<text text-anchor="middle" x="409" y="-150.54" font-family="Helvetica,sans-Serif" font-size="14.00">Sweep&#39;s Plan &amp; Progress</text>
<!-- start -->
<g id="node1" class="node">
<title>start</title>
</g>
<!-- f392d2b7&#45;6c19&#45;48de&#45;994e&#45;0dc6bfab573a -->
<g id="node3" class="node">
<title>f392d2b7&#45;6c19&#45;48de&#45;994e&#45;0dc6bfab573a</title>
<ellipse fill="yellow" stroke="black" cx="245" cy="-99.87" rx="149.4" ry="26.74"/>
<text text-anchor="middle" x="245" y="-103.67" font-family="Helvetica,sans-Serif" font-size="14.00">⋯ Create</text>
<text text-anchor="middle" x="245" y="-88.67" font-family="Helvetica,sans-Serif" font-size="14.00">sweepai/utils/query_filter.py</text>
</g>
<!-- start&#45;&gt;f392d2b7&#45;6c19&#45;48de&#45;994e&#45;0dc6bfab573a -->
<g id="edge4" class="edge">
<title>start&#45;&gt;f392d2b7&#45;6c19&#45;48de&#45;994e&#45;0dc6bfab573a</title>
<path fill="none" stroke="black" d="M44.58,-99.87C47.77,-99.87 63.9,-99.87 85.73,-99.87"/>
<polygon fill="black" stroke="black" points="85.78,-103.37 95.78,-99.87 85.78,-96.37 85.78,-103.37"/>
<text text-anchor="middle" x="70.15" y="-106.67" font-family="Helvetica,sans-Serif" font-size="14.00">Start</text>
</g>
<!-- end -->
<g id="node2" class="node">
<title>end</title>
</g>
<!-- 8decf055&#45;c5de&#45;44cd&#45;bb2b&#45;343b42d50d11 -->
<g id="node4" class="node">
<title>8decf055&#45;c5de&#45;44cd&#45;bb2b&#45;343b42d50d11</title>
<ellipse fill="white" stroke="black" cx="597" cy="-99.87" rx="145.83" ry="26.74"/>
<text text-anchor="middle" x="597" y="-103.67" font-family="Helvetica,sans-Serif" font-size="14.00">▶ Modify</text>
<text text-anchor="middle" x="597" y="-88.67" font-family="Helvetica,sans-Serif" font-size="14.00">sweepai/utils/ticket_utils.py</text>
</g>
<!-- f392d2b7&#45;6c19&#45;48de&#45;994e&#45;0dc6bfab573a&#45;&gt;8decf055&#45;c5de&#45;44cd&#45;bb2b&#45;343b42d50d11 -->
<g id="edge2" class="edge">
<title>f392d2b7&#45;6c19&#45;48de&#45;994e&#45;0dc6bfab573a&#45;&gt;8decf055&#45;c5de&#45;44cd&#45;bb2b&#45;343b42d50d11</title>
<path fill="none" stroke="black" d="M394.53,-99.87C409.99,-99.87 425.46,-99.87 440.92,-99.87"/>
<polygon fill="black" stroke="black" points="441.08,-103.37 451.08,-99.87 441.08,-96.37 441.08,-103.37"/>
</g>
<!-- 46b37ca3&#45;6ea2&#45;448c&#45;82f9&#45;c65bf676e43c -->
<g id="node5" class="node">
<title>46b37ca3&#45;6ea2&#45;448c&#45;82f9&#45;c65bf676e43c</title>
<polygon fill="white" stroke="black" points="402,-36 0,-36 0,0 402,0 402,-36"/>
<text text-anchor="middle" x="201" y="-14.3" font-family="Helvetica,sans-Serif" font-size="14.00">▶ Run GitHub Actions for `sweepai/utils/query_filter.py`</text>
</g>
<!-- f392d2b7&#45;6c19&#45;48de&#45;994e&#45;0dc6bfab573a&#45;&gt;46b37ca3&#45;6ea2&#45;448c&#45;82f9&#45;c65bf676e43c -->
<g id="edge1" class="edge">
<title>f392d2b7&#45;6c19&#45;48de&#45;994e&#45;0dc6bfab573a&#45;&gt;46b37ca3&#45;6ea2&#45;448c&#45;82f9&#45;c65bf676e43c</title>
<path fill="none" stroke="black" stroke-dasharray="5,2" d="M230.59,-72.72C225.68,-63.8 220.2,-53.84 215.29,-44.95"/>
<polygon fill="black" stroke="black" points="218.34,-43.22 210.45,-36.15 212.21,-46.59 218.34,-43.22"/>
</g>
<!-- 8decf055&#45;c5de&#45;44cd&#45;bb2b&#45;343b42d50d11&#45;&gt;end -->
<g id="edge5" class="edge">
<title>8decf055&#45;c5de&#45;44cd&#45;bb2b&#45;343b42d50d11&#45;&gt;end</title>
<path fill="none" stroke="black" d="M742.81,-99.87C762.57,-99.87 779.62,-99.87 790.07,-99.87"/>
<polygon fill="black" stroke="black" points="790.35,-103.37 800.35,-99.87 790.35,-96.37 790.35,-103.37"/>
<text text-anchor="middle" x="771.58" y="-106.67" font-family="Helvetica,sans-Serif" font-size="14.00">Finish</text>
</g>
<!-- 76fc2770&#45;aae9&#45;49eb&#45;bce7&#45;ddfb13f7684f -->
<g id="node6" class="node">
<title>76fc2770&#45;aae9&#45;49eb&#45;bce7&#45;ddfb13f7684f</title>
<polygon fill="white" stroke="black" points="818,-36 420,-36 420,0 818,0 818,-36"/>
<text text-anchor="middle" x="619" y="-14.3" font-family="Helvetica,sans-Serif" font-size="14.00">▶ Run GitHub Actions for `sweepai/utils/ticket_utils.py`</text>
</g>
<!-- 8decf055&#45;c5de&#45;44cd&#45;bb2b&#45;343b42d50d11&#45;&gt;76fc2770&#45;aae9&#45;49eb&#45;bce7&#45;ddfb13f7684f -->
<g id="edge3" class="edge">
<title>8decf055&#45;c5de&#45;44cd&#45;bb2b&#45;343b42d50d11&#45;&gt;76fc2770&#45;aae9&#45;49eb&#45;bce7&#45;ddfb13f7684f</title>
<path fill="none" stroke="black" stroke-dasharray="5,2" d="M604.2,-72.72C606.58,-64.08 609.23,-54.47 611.62,-45.79"/>
<polygon fill="black" stroke="black" points="615,-46.72 614.28,-36.15 608.25,-44.86 615,-46.72"/>
</g>
</g>
</svg>
