<?xml version="1.0" encoding="UTF-8" standalone="no"?>
<!DOCTYPE svg PUBLIC "-//W3C//DTD SVG 1.1//EN"
 "http://www.w3.org/Graphics/SVG/1.1/DTD/svg11.dtd">
<!-- Generated by graphviz version 8.0.3 (0)
 -->
<!-- Pages: 1 -->
<svg width="1900pt" height="238pt"
 viewBox="0.00 0.00 1899.50 237.74" xmlns="http://www.w3.org/2000/svg" xmlns:xlink="http://www.w3.org/1999/xlink">
<g id="graph0" class="graph" transform="scale(1 1) rotate(0) translate(36 201.74)">
<polygon fill="dimgray" stroke="none" points="-36,36 -36,-201.74 1863.5,-201.74 1863.5,36 -36,36"/>
<text text-anchor="middle" x="913.75" y="-150.54" font-family="Helvetica,sans-Serif" font-size="14.00">Sweep&#39;s Plan &amp; Progress</text>
<!-- start -->
<g id="node1" class="node">
<title>start</title>
</g>
<!-- 6bffb7a1&#45;a6c8&#45;47c0&#45;beff&#45;54049e620f57 -->
<g id="node3" class="node">
<title>6bffb7a1&#45;a6c8&#45;47c0&#45;beff&#45;54049e620f57</title>
<ellipse fill="yellow" stroke="black" cx="270" cy="-99.87" rx="200.64" ry="26.74"/>
<text text-anchor="middle" x="270" y="-103.67" font-family="Helvetica,sans-Serif" font-size="14.00">⋯ Modify</text>
<text text-anchor="middle" x="270" y="-88.67" font-family="Helvetica,sans-Serif" font-size="14.00">sweepai/agents/assistant_functions.py</text>
</g>
<!-- start&#45;&gt;6bffb7a1&#45;a6c8&#45;47c0&#45;beff&#45;54049e620f57 -->
<g id="edge8" class="edge">
<title>start&#45;&gt;6bffb7a1&#45;a6c8&#45;47c0&#45;beff&#45;54049e620f57</title>
<path fill="none" stroke="black" d="M17.41,-99.87C20.1,-99.87 35.82,-99.87 58.2,-99.87"/>
<polygon fill="black" stroke="black" points="57.94,-103.37 67.94,-99.87 57.94,-96.37 57.94,-103.37"/>
<text text-anchor="middle" x="43.34" y="-106.67" font-family="Helvetica,sans-Serif" font-size="14.00">Start</text>
</g>
<!-- end -->
<g id="node2" class="node">
<title>end</title>
</g>
<!-- 072891e9&#45;4892&#45;4249&#45;8f8e&#45;74e136fb23b6 -->
<g id="node4" class="node">
<title>072891e9&#45;4892&#45;4249&#45;8f8e&#45;74e136fb23b6</title>
<ellipse fill="white" stroke="black" cx="713" cy="-99.87" rx="173.9" ry="26.74"/>
<text text-anchor="middle" x="713" y="-103.67" font-family="Helvetica,sans-Serif" font-size="14.00">▶ Modify</text>
<text text-anchor="middle" x="713" y="-88.67" font-family="Helvetica,sans-Serif" font-size="14.00">sweepai/core/context_pruning.py</text>
</g>
<!-- 6bffb7a1&#45;a6c8&#45;47c0&#45;beff&#45;54049e620f57&#45;&gt;072891e9&#45;4892&#45;4249&#45;8f8e&#45;74e136fb23b6 -->
<g id="edge2" class="edge">
<title>6bffb7a1&#45;a6c8&#45;47c0&#45;beff&#45;54049e620f57&#45;&gt;072891e9&#45;4892&#45;4249&#45;8f8e&#45;74e136fb23b6</title>
<path fill="none" stroke="black" d="M470.73,-99.87C489.81,-99.87 508.88,-99.87 527.96,-99.87"/>
<polygon fill="black" stroke="black" points="527.87,-103.37 537.87,-99.87 527.87,-96.37 527.87,-103.37"/>
</g>
<!-- 194d15f1&#45;d4a4&#45;4829&#45;9afc&#45;51bb71bed459 -->
<g id="node7" class="node">
<title>194d15f1&#45;d4a4&#45;4829&#45;9afc&#45;51bb71bed459</title>
<polygon fill="white" stroke="black" points="476,-36 0,-36 0,0 476,0 476,-36"/>
<text text-anchor="middle" x="238" y="-14.3" font-family="Helvetica,sans-Serif" font-size="14.00">▶ Run GitHub Actions for `sweepai/agents/assistant_functions.py`</text>
</g>
<!-- 6bffb7a1&#45;a6c8&#45;47c0&#45;beff&#45;54049e620f57&#45;&gt;194d15f1&#45;d4a4&#45;4829&#45;9afc&#45;51bb71bed459 -->
<g id="edge1" class="edge">
<title>6bffb7a1&#45;a6c8&#45;47c0&#45;beff&#45;54049e620f57&#45;&gt;194d15f1&#45;d4a4&#45;4829&#45;9afc&#45;51bb71bed459</title>
<path fill="none" stroke="black" stroke-dasharray="5,2" d="M259.52,-72.72C256.1,-64.18 252.3,-54.68 248.85,-46.08"/>
<polygon fill="black" stroke="black" points="251.84,-45.13 244.87,-37.15 245.34,-47.73 251.84,-45.13"/>
</g>
<!-- e117d9e3&#45;b357&#45;4ef7&#45;9b50&#45;b966e58b55a6 -->
<g id="node5" class="node">
<title>e117d9e3&#45;b357&#45;4ef7&#45;9b50&#45;b966e58b55a6</title>
<ellipse fill="white" stroke="black" cx="1161" cy="-99.87" rx="164.1" ry="26.74"/>
<text text-anchor="middle" x="1161" y="-103.67" font-family="Helvetica,sans-Serif" font-size="14.00">▶ Modify</text>
<text text-anchor="middle" x="1161" y="-88.67" font-family="Helvetica,sans-Serif" font-size="14.00">sweepai/utils/ctags_chunker.py</text>
</g>
<!-- 072891e9&#45;4892&#45;4249&#45;8f8e&#45;74e136fb23b6&#45;&gt;e117d9e3&#45;b357&#45;4ef7&#45;9b50&#45;b966e58b55a6 -->
<g id="edge4" class="edge">
<title>072891e9&#45;4892&#45;4249&#45;8f8e&#45;74e136fb23b6&#45;&gt;e117d9e3&#45;b357&#45;4ef7&#45;9b50&#45;b966e58b55a6</title>
<path fill="none" stroke="black" d="M887.12,-99.87C920.03,-99.87 952.93,-99.87 985.83,-99.87"/>
<polygon fill="black" stroke="black" points="985.51,-103.37 995.51,-99.87 985.51,-96.37 985.51,-103.37"/>
</g>
<!-- cb0038e0&#45;e4a3&#45;4545&#45;a1d4&#45;8413cc387047 -->
<g id="node8" class="node">
<title>cb0038e0&#45;e4a3&#45;4545&#45;a1d4&#45;8413cc387047</title>
<polygon fill="white" stroke="black" points="931.5,-36 494.5,-36 494.5,0 931.5,0 931.5,-36"/>
<text text-anchor="middle" x="713" y="-14.3" font-family="Helvetica,sans-Serif" font-size="14.00">▶ Run GitHub Actions for `sweepai/core/context_pruning.py`</text>
</g>
<!-- 072891e9&#45;4892&#45;4249&#45;8f8e&#45;74e136fb23b6&#45;&gt;cb0038e0&#45;e4a3&#45;4545&#45;a1d4&#45;8413cc387047 -->
<g id="edge3" class="edge">
<title>072891e9&#45;4892&#45;4249&#45;8f8e&#45;74e136fb23b6&#45;&gt;cb0038e0&#45;e4a3&#45;4545&#45;a1d4&#45;8413cc387047</title>
<path fill="none" stroke="black" stroke-dasharray="5,2" d="M713,-72.72C713,-64.46 713,-55.31 713,-46.93"/>
<polygon fill="black" stroke="black" points="716.5,-47.15 713,-37.15 709.5,-47.15 716.5,-47.15"/>
</g>
<!-- e7475e6d&#45;24db&#45;4699&#45;bd20&#45;04972f8e5aac -->
<g id="node6" class="node">
<title>e7475e6d&#45;24db&#45;4699&#45;bd20&#45;04972f8e5aac</title>
<ellipse fill="white" stroke="black" cx="1572" cy="-99.87" rx="173.9" ry="26.74"/>
<text text-anchor="middle" x="1572" y="-103.67" font-family="Helvetica,sans-Serif" font-size="14.00">▶ Modify</text>
<text text-anchor="middle" x="1572" y="-88.67" font-family="Helvetica,sans-Serif" font-size="14.00">sweepai/core/context_pruning.py</text>
</g>
<!-- e117d9e3&#45;b357&#45;4ef7&#45;9b50&#45;b966e58b55a6&#45;&gt;e7475e6d&#45;24db&#45;4699&#45;bd20&#45;04972f8e5aac -->
<g id="edge6" class="edge">
<title>e117d9e3&#45;b357&#45;4ef7&#45;9b50&#45;b966e58b55a6&#45;&gt;e7475e6d&#45;24db&#45;4699&#45;bd20&#45;04972f8e5aac</title>
<path fill="none" stroke="black" d="M1325.56,-99.87C1345.96,-99.87 1366.36,-99.87 1386.76,-99.87"/>
<polygon fill="black" stroke="black" points="1386.76,-103.37 1396.76,-99.87 1386.76,-96.37 1386.76,-103.37"/>
</g>
<!-- e91f0667&#45;02ea&#45;45c9&#45;abd3&#45;4c0078cfb08f -->
<g id="node9" class="node">
<title>e91f0667&#45;02ea&#45;45c9&#45;abd3&#45;4c0078cfb08f</title>
<polygon fill="white" stroke="black" points="1372.5,-36 949.5,-36 949.5,0 1372.5,0 1372.5,-36"/>
<text text-anchor="middle" x="1161" y="-14.3" font-family="Helvetica,sans-Serif" font-size="14.00">▶ Run GitHub Actions for `sweepai/utils/ctags_chunker.py`</text>
</g>
<!-- e117d9e3&#45;b357&#45;4ef7&#45;9b50&#45;b966e58b55a6&#45;&gt;e91f0667&#45;02ea&#45;45c9&#45;abd3&#45;4c0078cfb08f -->
<g id="edge5" class="edge">
<title>e117d9e3&#45;b357&#45;4ef7&#45;9b50&#45;b966e58b55a6&#45;&gt;e91f0667&#45;02ea&#45;45c9&#45;abd3&#45;4c0078cfb08f</title>
<path fill="none" stroke="black" stroke-dasharray="5,2" d="M1161,-72.72C1161,-64.46 1161,-55.31 1161,-46.93"/>
<polygon fill="black" stroke="black" points="1164.5,-47.15 1161,-37.15 1157.5,-47.15 1164.5,-47.15"/>
</g>
<!-- e7475e6d&#45;24db&#45;4699&#45;bd20&#45;04972f8e5aac&#45;&gt;end -->
<g id="edge9" class="edge">
<title>e7475e6d&#45;24db&#45;4699&#45;bd20&#45;04972f8e5aac&#45;&gt;end</title>
<path fill="none" stroke="black" d="M1746.35,-99.87C1766,-99.87 1782.62,-99.87 1792.9,-99.87"/>
<polygon fill="black" stroke="black" points="1792.72,-103.37 1802.72,-99.87 1792.72,-96.37 1792.72,-103.37"/>
<text text-anchor="middle" x="1774.72" y="-106.67" font-family="Helvetica,sans-Serif" font-size="14.00">Finish</text>
</g>
<!-- a825bc50&#45;b6fd&#45;4a82&#45;a2ee&#45;f510fa454307 -->
<g id="node10" class="node">
<title>a825bc50&#45;b6fd&#45;4a82&#45;a2ee&#45;f510fa454307</title>
<polygon fill="white" stroke="black" points="1827.5,-36 1390.5,-36 1390.5,0 1827.5,0 1827.5,-36"/>
<text text-anchor="middle" x="1609" y="-14.3" font-family="Helvetica,sans-Serif" font-size="14.00">▶ Run GitHub Actions for `sweepai/core/context_pruning.py`</text>
</g>
<!-- e7475e6d&#45;24db&#45;4699&#45;bd20&#45;04972f8e5aac&#45;&gt;a825bc50&#45;b6fd&#45;4a82&#45;a2ee&#45;f510fa454307 -->
<g id="edge7" class="edge">
<title>e7475e6d&#45;24db&#45;4699&#45;bd20&#45;04972f8e5aac&#45;&gt;a825bc50&#45;b6fd&#45;4a82&#45;a2ee&#45;f510fa454307</title>
<path fill="none" stroke="black" stroke-dasharray="5,2" d="M1584.12,-72.72C1588.07,-64.18 1592.47,-54.68 1596.46,-46.08"/>
<polygon fill="black" stroke="black" points="1600.03,-47.69 1601.06,-37.15 1593.68,-44.75 1600.03,-47.69"/>
</g>
</g>
</svg>
