<?xml version="1.0" encoding="UTF-8" standalone="no"?>
<!DOCTYPE svg PUBLIC "-//W3C//DTD SVG 1.1//EN"
 "http://www.w3.org/Graphics/SVG/1.1/DTD/svg11.dtd">
<!-- Generated by graphviz version 8.0.3 (0)
 -->
<!-- Pages: 1 -->
<svg width="668pt" height="238pt"
 viewBox="0.00 0.00 667.50 237.74" xmlns="http://www.w3.org/2000/svg" xmlns:xlink="http://www.w3.org/1999/xlink">
<g id="graph0" class="graph" transform="scale(1 1) rotate(0) translate(36 201.74)">
<polygon fill="dimgray" stroke="none" points="-36,36 -36,-201.74 631.5,-201.74 631.5,36 -36,36"/>
<text text-anchor="middle" x="297.75" y="-150.54" font-family="Helvetica,sans-Serif" font-size="14.00">Sweep&#39;s Plan &amp; Progress</text>
<!-- start -->
<g id="node1" class="node">
<title>start</title>
</g>
<!-- e4ea5a1c&#45;8f8a&#45;48ec&#45;9bd1&#45;c739995b3a30 -->
<g id="node3" class="node">
<title>e4ea5a1c&#45;8f8a&#45;48ec&#45;9bd1&#45;c739995b3a30</title>
<ellipse fill="yellow" stroke="black" cx="175" cy="-99.87" rx="84.71" ry="26.74"/>
<text text-anchor="middle" x="175" y="-103.67" font-family="Helvetica,sans-Serif" font-size="14.00">⋯ Modify</text>
<text text-anchor="middle" x="175" y="-88.67" font-family="Helvetica,sans-Serif" font-size="14.00">sweepai/api.py</text>
</g>
<!-- start&#45;&gt;e4ea5a1c&#45;8f8a&#45;48ec&#45;9bd1&#45;c739995b3a30 -->
<g id="edge4" class="edge">
<title>start&#45;&gt;e4ea5a1c&#45;8f8a&#45;48ec&#45;9bd1&#45;c739995b3a30</title>
<path fill="none" stroke="black" d="M38.39,-99.87C41.15,-99.87 58.04,-99.87 79.06,-99.87"/>
<polygon fill="black" stroke="black" points="79.03,-103.37 89.03,-99.87 79.03,-96.37 79.03,-103.37"/>
<text text-anchor="middle" x="64.32" y="-106.67" font-family="Helvetica,sans-Serif" font-size="14.00">Start</text>
</g>
<!-- end -->
<g id="node2" class="node">
<title>end</title>
</g>
<!-- a49e5010&#45;aa6e&#45;4b66&#45;8327&#45;827f83c96c24 -->
<g id="node4" class="node">
<title>a49e5010&#45;aa6e&#45;4b66&#45;8327&#45;827f83c96c24</title>
<ellipse fill="white" stroke="black" cx="424" cy="-99.87" rx="108.38" ry="26.74"/>
<text text-anchor="middle" x="424" y="-103.67" font-family="Helvetica,sans-Serif" font-size="14.00">▶ Create</text>
<text text-anchor="middle" x="424" y="-88.67" font-family="Helvetica,sans-Serif" font-size="14.00">sweepai/api_test.py</text>
</g>
<!-- e4ea5a1c&#45;8f8a&#45;48ec&#45;9bd1&#45;c739995b3a30&#45;&gt;a49e5010&#45;aa6e&#45;4b66&#45;8327&#45;827f83c96c24 -->
<g id="edge2" class="edge">
<title>e4ea5a1c&#45;8f8a&#45;48ec&#45;9bd1&#45;c739995b3a30&#45;&gt;a49e5010&#45;aa6e&#45;4b66&#45;8327&#45;827f83c96c24</title>
<path fill="none" stroke="black" d="M260.11,-99.87C274.88,-99.87 289.64,-99.87 304.41,-99.87"/>
<polygon fill="black" stroke="black" points="304.17,-103.37 314.17,-99.87 304.17,-96.37 304.17,-103.37"/>
</g>
<!-- d7185fe2&#45;974a&#45;4be3&#45;83bc&#45;036c0dbafb12 -->
<g id="node5" class="node">
<title>d7185fe2&#45;974a&#45;4be3&#45;83bc&#45;036c0dbafb12</title>
<polygon fill="white" stroke="black" points="272,-36 0,-36 0,0 272,0 272,-36"/>
<text text-anchor="middle" x="136" y="-14.3" font-family="Helvetica,sans-Serif" font-size="14.00">▶ Ran sandbox for `sweepai/api.py`.</text>
</g>
<!-- e4ea5a1c&#45;8f8a&#45;48ec&#45;9bd1&#45;c739995b3a30&#45;&gt;d7185fe2&#45;974a&#45;4be3&#45;83bc&#45;036c0dbafb12 -->
<g id="edge1" class="edge">
<title>e4ea5a1c&#45;8f8a&#45;48ec&#45;9bd1&#45;c739995b3a30&#45;&gt;d7185fe2&#45;974a&#45;4be3&#45;83bc&#45;036c0dbafb12</title>
<path fill="none" stroke="black" stroke-dasharray="5,2" d="M162.45,-73.16C158.22,-64.51 153.49,-54.83 149.22,-46.07"/>
<polygon fill="black" stroke="black" points="152,-44.79 144.47,-37.34 145.71,-47.86 152,-44.79"/>
</g>
<!-- a49e5010&#45;aa6e&#45;4b66&#45;8327&#45;827f83c96c24&#45;&gt;end -->
<g id="edge5" class="edge">
<title>a49e5010&#45;aa6e&#45;4b66&#45;8327&#45;827f83c96c24&#45;&gt;end</title>
<path fill="none" stroke="black" d="M532.87,-99.87C551.66,-99.87 568.49,-99.87 578.93,-99.87"/>
<polygon fill="black" stroke="black" points="578.7,-103.37 588.7,-99.87 578.7,-96.37 578.7,-103.37"/>
<text text-anchor="middle" x="560.84" y="-106.67" font-family="Helvetica,sans-Serif" font-size="14.00">Finish</text>
</g>
<!-- 98fdb053&#45;0285&#45;4f7b&#45;afec&#45;2611fe9aaa2e -->
<g id="node6" class="node">
<title>98fdb053&#45;0285&#45;4f7b&#45;afec&#45;2611fe9aaa2e</title>
<polygon fill="white" stroke="black" points="595.5,-36 290.5,-36 290.5,0 595.5,0 595.5,-36"/>
<text text-anchor="middle" x="443" y="-14.3" font-family="Helvetica,sans-Serif" font-size="14.00">▶ Ran sandbox for `sweepai/api_test.py`.</text>
</g>
<!-- a49e5010&#45;aa6e&#45;4b66&#45;8327&#45;827f83c96c24&#45;&gt;98fdb053&#45;0285&#45;4f7b&#45;afec&#45;2611fe9aaa2e -->
<g id="edge3" class="edge">
<title>a49e5010&#45;aa6e&#45;4b66&#45;8327&#45;827f83c96c24&#45;&gt;98fdb053&#45;0285&#45;4f7b&#45;afec&#45;2611fe9aaa2e</title>
<path fill="none" stroke="black" stroke-dasharray="5,2" d="M430.22,-72.72C432.21,-64.37 434.41,-55.1 436.42,-46.65"/>
<polygon fill="black" stroke="black" points="440.01,-47.68 438.92,-37.15 433.2,-46.06 440.01,-47.68"/>
</g>
</g>
</svg>
