<?xml version="1.0" encoding="UTF-8" standalone="no"?>
<!DOCTYPE svg PUBLIC "-//W3C//DTD SVG 1.1//EN"
 "http://www.w3.org/Graphics/SVG/1.1/DTD/svg11.dtd">
<!-- Generated by graphviz version 8.0.3 (0)
 -->
<!-- Pages: 1 -->
<svg width="2310pt" height="771pt"
 viewBox="0.00 0.00 2310.00 770.96" xmlns="http://www.w3.org/2000/svg" xmlns:xlink="http://www.w3.org/1999/xlink">
<g id="graph0" class="graph" transform="scale(1 1) rotate(0) translate(36 734.96)">
<polygon fill="dimgray" stroke="none" points="-36,36 -36,-734.96 2274,-734.96 2274,36 -36,36"/>
<text text-anchor="middle" x="1119" y="-683.76" font-family="Helvetica,sans-Serif" font-size="14.00">Sweep&#39;s Plan &amp; Progress</text>
<!-- start -->
<g id="node1" class="node">
<title>start</title>
</g>
<!-- 2474dc83&#45;d6c9&#45;4095&#45;9ed9&#45;c258eb62d53b -->
<g id="node3" class="node">
<title>2474dc83&#45;d6c9&#45;4095&#45;9ed9&#45;c258eb62d53b</title>
<ellipse fill="#0ee832" stroke="black" cx="1254" cy="-633.09" rx="159.61" ry="26.74"/>
<text text-anchor="middle" x="1254" y="-636.89" font-family="Helvetica,sans-Serif" font-size="14.00">✓ Modify</text>
<text text-anchor="middle" x="1254" y="-621.89" font-family="Helvetica,sans-Serif" font-size="14.00">sweepai/handlers/on_ticket.py</text>
</g>
<!-- start&#45;&gt;2474dc83&#45;d6c9&#45;4095&#45;9ed9&#45;c258eb62d53b -->
<g id="edge19" class="edge">
<title>start&#45;&gt;2474dc83&#45;d6c9&#45;4095&#45;9ed9&#45;c258eb62d53b</title>
<path fill="none" stroke="black" d="M1042.15,-633.09C1043.89,-633.09 1060.25,-633.09 1083.17,-633.09"/>
<polygon fill="black" stroke="black" points="1083.13,-636.59 1093.13,-633.09 1083.13,-629.59 1083.13,-636.59"/>
<text text-anchor="middle" x="1068.35" y="-639.89" font-family="Helvetica,sans-Serif" font-size="14.00">Start</text>
</g>
<!-- end -->
<g id="node2" class="node">
<title>end</title>
</g>
<!-- ed608921&#45;bc70&#45;4f4e&#45;a331&#45;16482b157696 -->
<g id="node4" class="node">
<title>ed608921&#45;bc70&#45;4f4e&#45;a331&#45;16482b157696</title>
<ellipse fill="#0ee832" stroke="black" cx="1652" cy="-633.09" rx="159.61" ry="26.74"/>
<text text-anchor="middle" x="1652" y="-636.89" font-family="Helvetica,sans-Serif" font-size="14.00">✓ Modify</text>
<text text-anchor="middle" x="1652" y="-621.89" font-family="Helvetica,sans-Serif" font-size="14.00">sweepai/handlers/on_ticket.py</text>
</g>
<!-- 2474dc83&#45;d6c9&#45;4095&#45;9ed9&#45;c258eb62d53b&#45;&gt;ed608921&#45;bc70&#45;4f4e&#45;a331&#45;16482b157696 -->
<g id="edge11" class="edge">
<title>2474dc83&#45;d6c9&#45;4095&#45;9ed9&#45;c258eb62d53b&#45;&gt;ed608921&#45;bc70&#45;4f4e&#45;a331&#45;16482b157696</title>
<path fill="none" stroke="black" d="M1413.74,-633.09C1436.14,-633.09 1458.53,-633.09 1480.93,-633.09"/>
<polygon fill="black" stroke="black" points="1480.92,-636.59 1490.92,-633.09 1480.92,-629.59 1480.92,-636.59"/>
</g>
<!-- 03a86e8a&#45;88a6&#45;4998&#45;99f7&#45;e8baca8bd457 -->
<g id="node5" class="node">
<title>03a86e8a&#45;88a6&#45;4998&#45;99f7&#45;e8baca8bd457</title>
<polygon fill="#ee0000" stroke="black" points="1046,-569.22 666,-569.22 666,-533.22 1046,-533.22 1046,-569.22"/>
<text text-anchor="middle" x="856" y="-547.52" font-family="Helvetica,sans-Serif" font-size="14.00">✗ Ran sandbox for `sweepai/handlers/on_ticket.py`.</text>
</g>
<!-- 2474dc83&#45;d6c9&#45;4095&#45;9ed9&#45;c258eb62d53b&#45;&gt;03a86e8a&#45;88a6&#45;4998&#45;99f7&#45;e8baca8bd457 -->
<g id="edge1" class="edge">
<title>2474dc83&#45;d6c9&#45;4095&#45;9ed9&#45;c258eb62d53b&#45;&gt;03a86e8a&#45;88a6&#45;4998&#45;99f7&#45;e8baca8bd457</title>
<path fill="none" stroke="black" stroke-dasharray="5,2" d="M1153.57,-611.94C1092.31,-599.64 1014.37,-584 953.63,-571.81"/>
<polygon fill="black" stroke="black" points="954.37,-568.19 943.88,-569.66 953,-575.05 954.37,-568.19"/>
</g>
<!-- 9d0dcc6f&#45;06ea&#45;4e15&#45;baa3&#45;c4fa4987a2f0 -->
<g id="node6" class="node">
<title>9d0dcc6f&#45;06ea&#45;4e15&#45;baa3&#45;c4fa4987a2f0</title>
<polygon fill="#ee0000" stroke="black" points="1444,-569.22 1064,-569.22 1064,-533.22 1444,-533.22 1444,-569.22"/>
<text text-anchor="middle" x="1254" y="-547.52" font-family="Helvetica,sans-Serif" font-size="14.00">✗ Ran sandbox for `sweepai/handlers/on_ticket.py`.</text>
</g>
<!-- 2474dc83&#45;d6c9&#45;4095&#45;9ed9&#45;c258eb62d53b&#45;&gt;9d0dcc6f&#45;06ea&#45;4e15&#45;baa3&#45;c4fa4987a2f0 -->
<g id="edge10" class="edge">
<title>2474dc83&#45;d6c9&#45;4095&#45;9ed9&#45;c258eb62d53b&#45;&gt;9d0dcc6f&#45;06ea&#45;4e15&#45;baa3&#45;c4fa4987a2f0</title>
<path fill="none" stroke="black" stroke-dasharray="5,2" d="M1254,-605.94C1254,-597.68 1254,-588.53 1254,-580.15"/>
<polygon fill="black" stroke="black" points="1257.5,-580.37 1254,-570.37 1250.5,-580.37 1257.5,-580.37"/>
</g>
<!-- ed608921&#45;bc70&#45;4f4e&#45;a331&#45;16482b157696&#45;&gt;end -->
<g id="edge20" class="edge">
<title>ed608921&#45;bc70&#45;4f4e&#45;a331&#45;16482b157696&#45;&gt;end</title>
<path fill="none" stroke="black" d="M1811.87,-633.09C1831.5,-633.09 1848.3,-633.09 1858.72,-633.09"/>
<polygon fill="black" stroke="black" points="1858.71,-636.59 1868.71,-633.09 1858.71,-629.59 1858.71,-636.59"/>
<text text-anchor="middle" x="1840.65" y="-639.89" font-family="Helvetica,sans-Serif" font-size="14.00">Finish</text>
</g>
<!-- 6c4aa635&#45;4ef4&#45;4dac&#45;b710&#45;d8f3a76e9eeb -->
<g id="node7" class="node">
<title>6c4aa635&#45;4ef4&#45;4dac&#45;b710&#45;d8f3a76e9eeb</title>
<polygon fill="#ee0000" stroke="black" points="1842,-569.22 1462,-569.22 1462,-533.22 1842,-533.22 1842,-569.22"/>
<text text-anchor="middle" x="1652" y="-547.52" font-family="Helvetica,sans-Serif" font-size="14.00">✗ Ran sandbox for `sweepai/handlers/on_ticket.py`.</text>
</g>
<!-- ed608921&#45;bc70&#45;4f4e&#45;a331&#45;16482b157696&#45;&gt;6c4aa635&#45;4ef4&#45;4dac&#45;b710&#45;d8f3a76e9eeb -->
<g id="edge12" class="edge">
<title>ed608921&#45;bc70&#45;4f4e&#45;a331&#45;16482b157696&#45;&gt;6c4aa635&#45;4ef4&#45;4dac&#45;b710&#45;d8f3a76e9eeb</title>
<path fill="none" stroke="black" stroke-dasharray="5,2" d="M1652,-605.94C1652,-597.68 1652,-588.53 1652,-580.15"/>
<polygon fill="black" stroke="black" points="1655.5,-580.37 1652,-570.37 1648.5,-580.37 1655.5,-580.37"/>
</g>
<!-- 8fdc59b2&#45;fc38&#45;44c0&#45;b6ac&#45;db40100b9d55 -->
<g id="node8" class="node">
<title>8fdc59b2&#45;fc38&#45;44c0&#45;b6ac&#45;db40100b9d55</title>
<polygon fill="white" stroke="black" points="2238,-569.22 1860,-569.22 1860,-533.22 2238,-533.22 2238,-569.22"/>
<text text-anchor="middle" x="2049" y="-547.52" font-family="Helvetica,sans-Serif" font-size="14.00">▶ Ran sandbox for `sweepai/handlers/on_ticket.py`.</text>
</g>
<!-- ed608921&#45;bc70&#45;4f4e&#45;a331&#45;16482b157696&#45;&gt;8fdc59b2&#45;fc38&#45;44c0&#45;b6ac&#45;db40100b9d55 -->
<g id="edge18" class="edge">
<title>ed608921&#45;bc70&#45;4f4e&#45;a331&#45;16482b157696&#45;&gt;8fdc59b2&#45;fc38&#45;44c0&#45;b6ac&#45;db40100b9d55</title>
<path fill="none" stroke="black" stroke-dasharray="5,2" d="M1752.44,-611.88C1813.44,-599.61 1890.94,-584.02 1951.42,-571.85"/>
<polygon fill="black" stroke="black" points="1952,-575.1 1961.12,-569.7 1950.62,-568.24 1952,-575.1"/>
</g>
<!-- e8c7c437&#45;6dc5&#45;4579&#45;a46d&#45;0f350f35c565 -->
<g id="node9" class="node">
<title>e8c7c437&#45;6dc5&#45;4579&#45;a46d&#45;0f350f35c565</title>
<ellipse fill="#0ee832" stroke="black" cx="856" cy="-455.35" rx="159.61" ry="26.74"/>
<text text-anchor="middle" x="856" y="-459.15" font-family="Helvetica,sans-Serif" font-size="14.00">✓ Modify</text>
<text text-anchor="middle" x="856" y="-444.15" font-family="Helvetica,sans-Serif" font-size="14.00">sweepai/handlers/on_ticket.py</text>
</g>
<!-- 03a86e8a&#45;88a6&#45;4998&#45;99f7&#45;e8baca8bd457&#45;&gt;e8c7c437&#45;6dc5&#45;4579&#45;a46d&#45;0f350f35c565 -->
<g id="edge2" class="edge">
<title>03a86e8a&#45;88a6&#45;4998&#45;99f7&#45;e8baca8bd457&#45;&gt;e8c7c437&#45;6dc5&#45;4579&#45;a46d&#45;0f350f35c565</title>
<path fill="none" stroke="black" d="M856,-533C856,-521.81 856,-506.79 856,-493.01"/>
<polygon fill="black" stroke="black" points="859.5,-493.32 856,-483.32 852.5,-493.32 859.5,-493.32"/>
<text text-anchor="middle" x="953.5" y="-504.02" font-family="Helvetica,sans-Serif" font-size="14.00">Additional changes required</text>
</g>
<!-- dc971c71&#45;8fb2&#45;449f&#45;82c0&#45;dccaa971aa9d -->
<g id="node10" class="node">
<title>dc971c71&#45;8fb2&#45;449f&#45;82c0&#45;dccaa971aa9d</title>
<ellipse fill="#0ee832" stroke="black" cx="1652" cy="-455.35" rx="159.61" ry="26.74"/>
<text text-anchor="middle" x="1652" y="-459.15" font-family="Helvetica,sans-Serif" font-size="14.00">✓ Modify</text>
<text text-anchor="middle" x="1652" y="-444.15" font-family="Helvetica,sans-Serif" font-size="14.00">sweepai/handlers/on_ticket.py</text>
</g>
<!-- 6c4aa635&#45;4ef4&#45;4dac&#45;b710&#45;d8f3a76e9eeb&#45;&gt;dc971c71&#45;8fb2&#45;449f&#45;82c0&#45;dccaa971aa9d -->
<g id="edge13" class="edge">
<title>6c4aa635&#45;4ef4&#45;4dac&#45;b710&#45;d8f3a76e9eeb&#45;&gt;dc971c71&#45;8fb2&#45;449f&#45;82c0&#45;dccaa971aa9d</title>
<path fill="none" stroke="black" d="M1652,-533C1652,-521.81 1652,-506.79 1652,-493.01"/>
<polygon fill="black" stroke="black" points="1655.5,-493.32 1652,-483.32 1648.5,-493.32 1655.5,-493.32"/>
<text text-anchor="middle" x="1749.5" y="-504.02" font-family="Helvetica,sans-Serif" font-size="14.00">Additional changes required</text>
</g>
<!-- 51ed0060&#45;5ddc&#45;4861&#45;ac15&#45;727156540dfd -->
<g id="node11" class="node">
<title>51ed0060&#45;5ddc&#45;4861&#45;ac15&#45;727156540dfd</title>
<polygon fill="#ee0000" stroke="black" points="678,-391.48 298,-391.48 298,-355.48 678,-355.48 678,-391.48"/>
<text text-anchor="middle" x="488" y="-369.78" font-family="Helvetica,sans-Serif" font-size="14.00">✗ Ran sandbox for `sweepai/handlers/on_ticket.py`.</text>
</g>
<!-- e8c7c437&#45;6dc5&#45;4579&#45;a46d&#45;0f350f35c565&#45;&gt;51ed0060&#45;5ddc&#45;4861&#45;ac15&#45;727156540dfd -->
<g id="edge3" class="edge">
<title>e8c7c437&#45;6dc5&#45;4579&#45;a46d&#45;0f350f35c565&#45;&gt;51ed0060&#45;5ddc&#45;4861&#45;ac15&#45;727156540dfd</title>
<path fill="none" stroke="black" stroke-dasharray="5,2" d="M760.27,-433.57C704.35,-421.44 634.18,-406.21 579.08,-394.25"/>
<polygon fill="black" stroke="black" points="580.14,-390.68 569.62,-391.98 578.65,-397.52 580.14,-390.68"/>
</g>
<!-- 3ebcd283&#45;2cd7&#45;497d&#45;a173&#45;0537e6b1e803 -->
<g id="node12" class="node">
<title>3ebcd283&#45;2cd7&#45;497d&#45;a173&#45;0537e6b1e803</title>
<polygon fill="#ee0000" stroke="black" points="1076,-391.48 696,-391.48 696,-355.48 1076,-355.48 1076,-391.48"/>
<text text-anchor="middle" x="886" y="-369.78" font-family="Helvetica,sans-Serif" font-size="14.00">✗ Ran sandbox for `sweepai/handlers/on_ticket.py`.</text>
</g>
<!-- e8c7c437&#45;6dc5&#45;4579&#45;a46d&#45;0f350f35c565&#45;&gt;3ebcd283&#45;2cd7&#45;497d&#45;a173&#45;0537e6b1e803 -->
<g id="edge9" class="edge">
<title>e8c7c437&#45;6dc5&#45;4579&#45;a46d&#45;0f350f35c565&#45;&gt;3ebcd283&#45;2cd7&#45;497d&#45;a173&#45;0537e6b1e803</title>
<path fill="none" stroke="black" stroke-dasharray="5,2" d="M865.82,-428.2C869,-419.75 872.52,-410.37 875.72,-401.84"/>
<polygon fill="black" stroke="black" points="879.32,-403.22 879.56,-392.63 872.77,-400.76 879.32,-403.22"/>
</g>
<!-- 0f821eab&#45;38df&#45;405a&#45;bdc5&#45;7158f590198b -->
<g id="node13" class="node">
<title>0f821eab&#45;38df&#45;405a&#45;bdc5&#45;7158f590198b</title>
<polygon fill="#ee0000" stroke="black" points="1533,-391.48 1153,-391.48 1153,-355.48 1533,-355.48 1533,-391.48"/>
<text text-anchor="middle" x="1343" y="-369.78" font-family="Helvetica,sans-Serif" font-size="14.00">✗ Ran sandbox for `sweepai/handlers/on_ticket.py`.</text>
</g>
<!-- dc971c71&#45;8fb2&#45;449f&#45;82c0&#45;dccaa971aa9d&#45;&gt;0f821eab&#45;38df&#45;405a&#45;bdc5&#45;7158f590198b -->
<g id="edge14" class="edge">
<title>dc971c71&#45;8fb2&#45;449f&#45;82c0&#45;dccaa971aa9d&#45;&gt;0f821eab&#45;38df&#45;405a&#45;bdc5&#45;7158f590198b</title>
<path fill="none" stroke="black" stroke-dasharray="5,2" d="M1566.75,-432.31C1521.18,-420.54 1465.49,-406.14 1421.07,-394.66"/>
<polygon fill="black" stroke="black" points="1422.17,-391.07 1411.61,-391.96 1420.42,-397.85 1422.17,-391.07"/>
</g>
<!-- 034de01f&#45;4ca3&#45;4c5f&#45;b21a&#45;8bb127222766 -->
<g id="node14" class="node">
<title>034de01f&#45;4ca3&#45;4c5f&#45;b21a&#45;8bb127222766</title>
<polygon fill="white" stroke="black" points="1929,-391.48 1551,-391.48 1551,-355.48 1929,-355.48 1929,-391.48"/>
<text text-anchor="middle" x="1740" y="-369.78" font-family="Helvetica,sans-Serif" font-size="14.00">▶ Ran sandbox for `sweepai/handlers/on_ticket.py`.</text>
</g>
<!-- dc971c71&#45;8fb2&#45;449f&#45;82c0&#45;dccaa971aa9d&#45;&gt;034de01f&#45;4ca3&#45;4c5f&#45;b21a&#45;8bb127222766 -->
<g id="edge17" class="edge">
<title>dc971c71&#45;8fb2&#45;449f&#45;82c0&#45;dccaa971aa9d&#45;&gt;034de01f&#45;4ca3&#45;4c5f&#45;b21a&#45;8bb127222766</title>
<path fill="none" stroke="black" stroke-dasharray="5,2" d="M1680.33,-428.64C1690.79,-419.14 1702.62,-408.4 1712.97,-399.01"/>
<polygon fill="black" stroke="black" points="1714.85,-402.13 1719.9,-392.82 1710.14,-396.95 1714.85,-402.13"/>
</g>
<!-- 9da2e3ed&#45;dd7f&#45;426d&#45;8681&#45;9b881753bdcf -->
<g id="node15" class="node">
<title>9da2e3ed&#45;dd7f&#45;426d&#45;8681&#45;9b881753bdcf</title>
<ellipse fill="#0ee832" stroke="black" cx="488" cy="-277.61" rx="159.61" ry="26.74"/>
<text text-anchor="middle" x="488" y="-281.41" font-family="Helvetica,sans-Serif" font-size="14.00">✓ Modify</text>
<text text-anchor="middle" x="488" y="-266.41" font-family="Helvetica,sans-Serif" font-size="14.00">sweepai/handlers/on_ticket.py</text>
</g>
<!-- 51ed0060&#45;5ddc&#45;4861&#45;ac15&#45;727156540dfd&#45;&gt;9da2e3ed&#45;dd7f&#45;426d&#45;8681&#45;9b881753bdcf -->
<g id="edge4" class="edge">
<title>51ed0060&#45;5ddc&#45;4861&#45;ac15&#45;727156540dfd&#45;&gt;9da2e3ed&#45;dd7f&#45;426d&#45;8681&#45;9b881753bdcf</title>
<path fill="none" stroke="black" d="M488,-355.26C488,-344.07 488,-329.05 488,-315.27"/>
<polygon fill="black" stroke="black" points="491.5,-315.58 488,-305.58 484.5,-315.58 491.5,-315.58"/>
<text text-anchor="middle" x="585.5" y="-326.28" font-family="Helvetica,sans-Serif" font-size="14.00">Additional changes required</text>
</g>
<!-- b7eb1dbc&#45;f691&#45;4994&#45;9de8&#45;fe4d5d1ff6a7 -->
<g id="node16" class="node">
<title>b7eb1dbc&#45;f691&#45;4994&#45;9de8&#45;fe4d5d1ff6a7</title>
<ellipse fill="#0ee832" stroke="black" cx="1343" cy="-277.61" rx="115.02" ry="26.74"/>
<text text-anchor="middle" x="1343" y="-281.41" font-family="Helvetica,sans-Serif" font-size="14.00">✓ Modify</text>
<text text-anchor="middle" x="1343" y="-266.41" font-family="Helvetica,sans-Serif" font-size="14.00">sweepai/core/chat.py</text>
</g>
<!-- 0f821eab&#45;38df&#45;405a&#45;bdc5&#45;7158f590198b&#45;&gt;b7eb1dbc&#45;f691&#45;4994&#45;9de8&#45;fe4d5d1ff6a7 -->
<g id="edge15" class="edge">
<title>0f821eab&#45;38df&#45;405a&#45;bdc5&#45;7158f590198b&#45;&gt;b7eb1dbc&#45;f691&#45;4994&#45;9de8&#45;fe4d5d1ff6a7</title>
<path fill="none" stroke="black" d="M1343,-355.26C1343,-344.07 1343,-329.05 1343,-315.27"/>
<polygon fill="black" stroke="black" points="1346.5,-315.58 1343,-305.58 1339.5,-315.58 1346.5,-315.58"/>
<text text-anchor="middle" x="1440.5" y="-326.28" font-family="Helvetica,sans-Serif" font-size="14.00">Additional changes required</text>
</g>
<!-- 9d3c4d9b&#45;f3cb&#45;42b9&#45;874f&#45;86eae8c8baf5 -->
<g id="node17" class="node">
<title>9d3c4d9b&#45;f3cb&#45;42b9&#45;874f&#45;86eae8c8baf5</title>
<polygon fill="#ee0000" stroke="black" points="380,-213.74 0,-213.74 0,-177.74 380,-177.74 380,-213.74"/>
<text text-anchor="middle" x="190" y="-192.04" font-family="Helvetica,sans-Serif" font-size="14.00">✗ Ran sandbox for `sweepai/handlers/on_ticket.py`.</text>
</g>
<!-- 9da2e3ed&#45;dd7f&#45;426d&#45;8681&#45;9b881753bdcf&#45;&gt;9d3c4d9b&#45;f3cb&#45;42b9&#45;874f&#45;86eae8c8baf5 -->
<g id="edge5" class="edge">
<title>9da2e3ed&#45;dd7f&#45;426d&#45;8681&#45;9b881753bdcf&#45;&gt;9d3c4d9b&#45;f3cb&#45;42b9&#45;874f&#45;86eae8c8baf5</title>
<path fill="none" stroke="black" stroke-dasharray="5,2" d="M404.99,-254.36C361.33,-242.66 308.2,-228.42 265.68,-217.02"/>
<polygon fill="black" stroke="black" points="266.67,-213.4 256.11,-214.19 264.86,-220.16 266.67,-213.4"/>
</g>
<!-- d025db31&#45;73be&#45;4267&#45;aae1&#45;a34cdb2f4d5f -->
<g id="node18" class="node">
<title>d025db31&#45;73be&#45;4267&#45;aae1&#45;a34cdb2f4d5f</title>
<polygon fill="#ee0000" stroke="black" points="778,-213.74 398,-213.74 398,-177.74 778,-177.74 778,-213.74"/>
<text text-anchor="middle" x="588" y="-192.04" font-family="Helvetica,sans-Serif" font-size="14.00">✗ Ran sandbox for `sweepai/handlers/on_ticket.py`.</text>
</g>
<!-- 9da2e3ed&#45;dd7f&#45;426d&#45;8681&#45;9b881753bdcf&#45;&gt;d025db31&#45;73be&#45;4267&#45;aae1&#45;a34cdb2f4d5f -->
<g id="edge8" class="edge">
<title>9da2e3ed&#45;dd7f&#45;426d&#45;8681&#45;9b881753bdcf&#45;&gt;d025db31&#45;73be&#45;4267&#45;aae1&#45;a34cdb2f4d5f</title>
<path fill="none" stroke="black" stroke-dasharray="5,2" d="M519.92,-251.12C532.06,-241.42 545.85,-230.41 557.82,-220.84"/>
<polygon fill="black" stroke="black" points="559.54,-223.15 565.17,-214.17 555.18,-217.68 559.54,-223.15"/>
</g>
<!-- 19234e28&#45;51ba&#45;44c4&#45;bb04&#45;6d8664af6275 -->
<g id="node19" class="node">
<title>19234e28&#45;51ba&#45;44c4&#45;bb04&#45;6d8664af6275</title>
<polygon fill="yellow" stroke="black" points="1502.5,-213.74 1183.5,-213.74 1183.5,-177.74 1502.5,-177.74 1502.5,-213.74"/>
<text text-anchor="middle" x="1343" y="-192.04" font-family="Helvetica,sans-Serif" font-size="14.00">⋯ Ran sandbox for `sweepai/core/chat.py`.</text>
</g>
<!-- b7eb1dbc&#45;f691&#45;4994&#45;9de8&#45;fe4d5d1ff6a7&#45;&gt;19234e28&#45;51ba&#45;44c4&#45;bb04&#45;6d8664af6275 -->
<g id="edge16" class="edge">
<title>b7eb1dbc&#45;f691&#45;4994&#45;9de8&#45;fe4d5d1ff6a7&#45;&gt;19234e28&#45;51ba&#45;44c4&#45;bb04&#45;6d8664af6275</title>
<path fill="none" stroke="black" stroke-dasharray="5,2" d="M1343,-250.46C1343,-242.2 1343,-233.05 1343,-224.67"/>
<polygon fill="black" stroke="black" points="1346.5,-224.89 1343,-214.89 1339.5,-224.89 1346.5,-224.89"/>
</g>
<!-- fb43e704&#45;8398&#45;4fab&#45;a423&#45;caf6360e255c -->
<g id="node20" class="node">
<title>fb43e704&#45;8398&#45;4fab&#45;a423&#45;caf6360e255c</title>
<ellipse fill="#ee0000" stroke="black" cx="190" cy="-99.87" rx="159.61" ry="26.74"/>
<text text-anchor="middle" x="190" y="-103.67" font-family="Helvetica,sans-Serif" font-size="14.00">✗ Modify</text>
<text text-anchor="middle" x="190" y="-88.67" font-family="Helvetica,sans-Serif" font-size="14.00">sweepai/handlers/on_ticket.py</text>
</g>
<!-- 9d3c4d9b&#45;f3cb&#45;42b9&#45;874f&#45;86eae8c8baf5&#45;&gt;fb43e704&#45;8398&#45;4fab&#45;a423&#45;caf6360e255c -->
<g id="edge6" class="edge">
<title>9d3c4d9b&#45;f3cb&#45;42b9&#45;874f&#45;86eae8c8baf5&#45;&gt;fb43e704&#45;8398&#45;4fab&#45;a423&#45;caf6360e255c</title>
<path fill="none" stroke="black" d="M190,-177.52C190,-166.33 190,-151.31 190,-137.53"/>
<polygon fill="black" stroke="black" points="193.5,-137.84 190,-127.84 186.5,-137.84 193.5,-137.84"/>
<text text-anchor="middle" x="287.5" y="-148.54" font-family="Helvetica,sans-Serif" font-size="14.00">Additional changes required</text>
</g>
<!-- 95a397a4&#45;07e2&#45;48ff&#45;bc4c&#45;e69267d0322f -->
<g id="node21" class="node">
<title>95a397a4&#45;07e2&#45;48ff&#45;bc4c&#45;e69267d0322f</title>
<polygon fill="#ee0000" stroke="black" points="380,-36 0,-36 0,0 380,0 380,-36"/>
<text text-anchor="middle" x="190" y="-14.3" font-family="Helvetica,sans-Serif" font-size="14.00">✗ Ran sandbox for `sweepai/handlers/on_ticket.py`.</text>
</g>
<!-- fb43e704&#45;8398&#45;4fab&#45;a423&#45;caf6360e255c&#45;&gt;95a397a4&#45;07e2&#45;48ff&#45;bc4c&#45;e69267d0322f -->
<g id="edge7" class="edge">
<title>fb43e704&#45;8398&#45;4fab&#45;a423&#45;caf6360e255c&#45;&gt;95a397a4&#45;07e2&#45;48ff&#45;bc4c&#45;e69267d0322f</title>
<path fill="none" stroke="black" stroke-dasharray="5,2" d="M190,-72.72C190,-64.46 190,-55.31 190,-46.93"/>
<polygon fill="black" stroke="black" points="193.5,-47.15 190,-37.15 186.5,-47.15 193.5,-47.15"/>
</g>
</g>
</svg>
