<?xml version="1.0" encoding="UTF-8" standalone="no"?>
<!DOCTYPE svg PUBLIC "-//W3C//DTD SVG 1.1//EN"
 "http://www.w3.org/Graphics/SVG/1.1/DTD/svg11.dtd">
<!-- Generated by graphviz version 8.0.3 (0)
 -->
<!-- Pages: 1 -->
<svg width="778pt" height="238pt"
 viewBox="0.00 0.00 777.50 237.74" xmlns="http://www.w3.org/2000/svg" xmlns:xlink="http://www.w3.org/1999/xlink">
<g id="graph0" class="graph" transform="scale(1 1) rotate(0) translate(36 201.74)">
<polygon fill="dimgray" stroke="none" points="-36,36 -36,-201.74 741.5,-201.74 741.5,36 -36,36"/>
<text text-anchor="middle" x="352.75" y="-150.54" font-family="Helvetica,sans-Serif" font-size="14.00">Sweep&#39;s Plan &amp; Progress</text>
<!-- start -->
<g id="node1" class="node">
<title>start</title>
</g>
<!-- 28c39a34&#45;406d&#45;45a4&#45;ab29&#45;a50c5115a0c3 -->
<g id="node3" class="node">
<title>28c39a34&#45;406d&#45;45a4&#45;ab29&#45;a50c5115a0c3</title>
<ellipse fill="yellow" stroke="black" cx="165" cy="-99.87" rx="84.71" ry="26.74"/>
<text text-anchor="middle" x="165" y="-103.67" font-family="Helvetica,sans-Serif" font-size="14.00">⋯ Modify</text>
<text text-anchor="middle" x="165" y="-88.67" font-family="Helvetica,sans-Serif" font-size="14.00">sweepai/api.py</text>
</g>
<!-- start&#45;&gt;28c39a34&#45;406d&#45;45a4&#45;ab29&#45;a50c5115a0c3 -->
<g id="edge4" class="edge">
<title>start&#45;&gt;28c39a34&#45;406d&#45;45a4&#45;ab29&#45;a50c5115a0c3</title>
<path fill="none" stroke="black" d="M28.39,-99.87C31.15,-99.87 48.04,-99.87 69.06,-99.87"/>
<polygon fill="black" stroke="black" points="69.03,-103.37 79.03,-99.87 69.03,-96.37 69.03,-103.37"/>
<text text-anchor="middle" x="54.32" y="-106.67" font-family="Helvetica,sans-Serif" font-size="14.00">Start</text>
</g>
<!-- end -->
<g id="node2" class="node">
<title>end</title>
</g>
<!-- ffad094f&#45;4278&#45;44b3&#45;bad7&#45;77206ef184e8 -->
<g id="node4" class="node">
<title>ffad094f&#45;4278&#45;44b3&#45;bad7&#45;77206ef184e8</title>
<ellipse fill="white" stroke="black" cx="474" cy="-99.87" rx="173.48" ry="26.74"/>
<text text-anchor="middle" x="474" y="-103.67" font-family="Helvetica,sans-Serif" font-size="14.00">▶ Modify</text>
<text text-anchor="middle" x="474" y="-88.67" font-family="Helvetica,sans-Serif" font-size="14.00">sweepai/agents/validate_code.py</text>
</g>
<!-- 28c39a34&#45;406d&#45;45a4&#45;ab29&#45;a50c5115a0c3&#45;&gt;ffad094f&#45;4278&#45;44b3&#45;bad7&#45;77206ef184e8 -->
<g id="edge2" class="edge">
<title>28c39a34&#45;406d&#45;45a4&#45;ab29&#45;a50c5115a0c3&#45;&gt;ffad094f&#45;4278&#45;44b3&#45;bad7&#45;77206ef184e8</title>
<path fill="none" stroke="black" d="M250.1,-99.87C263.32,-99.87 276.55,-99.87 289.78,-99.87"/>
<polygon fill="black" stroke="black" points="289.39,-103.37 299.39,-99.87 289.39,-96.37 289.39,-103.37"/>
</g>
<!-- 18776349&#45;0a57&#45;4084&#45;a0e7&#45;1a29757f4ed2 -->
<g id="node5" class="node">
<title>18776349&#45;0a57&#45;4084&#45;a0e7&#45;1a29757f4ed2</title>
<polygon fill="white" stroke="black" points="272,-36 0,-36 0,0 272,0 272,-36"/>
<text text-anchor="middle" x="136" y="-14.3" font-family="Helvetica,sans-Serif" font-size="14.00">▶ Ran sandbox for `sweepai/api.py`.</text>
</g>
<!-- 28c39a34&#45;406d&#45;45a4&#45;ab29&#45;a50c5115a0c3&#45;&gt;18776349&#45;0a57&#45;4084&#45;a0e7&#45;1a29757f4ed2 -->
<g id="edge1" class="edge">
<title>28c39a34&#45;406d&#45;45a4&#45;ab29&#45;a50c5115a0c3&#45;&gt;18776349&#45;0a57&#45;4084&#45;a0e7&#45;1a29757f4ed2</title>
<path fill="none" stroke="black" stroke-dasharray="5,2" d="M155.66,-73.16C152.59,-64.69 149.16,-55.25 146.04,-46.65"/>
<polygon fill="black" stroke="black" points="149,-45.54 142.29,-37.34 142.42,-47.93 149,-45.54"/>
</g>
<!-- ffad094f&#45;4278&#45;44b3&#45;bad7&#45;77206ef184e8&#45;&gt;end -->
<g id="edge5" class="edge">
<title>ffad094f&#45;4278&#45;44b3&#45;bad7&#45;77206ef184e8&#45;&gt;end</title>
<path fill="none" stroke="black" d="M647.9,-99.87C667.37,-99.87 683.83,-99.87 694.01,-99.87"/>
<polygon fill="black" stroke="black" points="693.72,-103.37 703.72,-99.87 693.72,-96.37 693.72,-103.37"/>
<text text-anchor="middle" x="675.87" y="-106.67" font-family="Helvetica,sans-Serif" font-size="14.00">Finish</text>
</g>
<!-- 97041474&#45;e55a&#45;49b0&#45;85c8&#45;629614bbf29f -->
<g id="node6" class="node">
<title>97041474&#45;e55a&#45;49b0&#45;85c8&#45;629614bbf29f</title>
<polygon fill="white" stroke="black" points="688,-36 290,-36 290,0 688,0 688,-36"/>
<text text-anchor="middle" x="489" y="-14.3" font-family="Helvetica,sans-Serif" font-size="14.00">▶ Ran sandbox for `sweepai/agents/validate_code.py`.</text>
</g>
<!-- ffad094f&#45;4278&#45;44b3&#45;bad7&#45;77206ef184e8&#45;&gt;97041474&#45;e55a&#45;49b0&#45;85c8&#45;629614bbf29f -->
<g id="edge3" class="edge">
<title>ffad094f&#45;4278&#45;44b3&#45;bad7&#45;77206ef184e8&#45;&gt;97041474&#45;e55a&#45;49b0&#45;85c8&#45;629614bbf29f</title>
<path fill="none" stroke="black" stroke-dasharray="5,2" d="M478.91,-72.72C480.46,-64.46 482.18,-55.31 483.75,-46.93"/>
<polygon fill="black" stroke="black" points="487.37,-47.62 485.78,-37.15 480.49,-46.33 487.37,-47.62"/>
</g>
</g>
</svg>
