<?xml version="1.0" encoding="UTF-8" standalone="no"?>
<!DOCTYPE svg PUBLIC "-//W3C//DTD SVG 1.1//EN"
 "http://www.w3.org/Graphics/SVG/1.1/DTD/svg11.dtd">
<!-- Generated by graphviz version 8.0.3 (0)
 -->
<!-- Pages: 1 -->
<svg width="383pt" height="238pt"
 viewBox="0.00 0.00 383.00 237.74" xmlns="http://www.w3.org/2000/svg" xmlns:xlink="http://www.w3.org/1999/xlink">
<g id="graph0" class="graph" transform="scale(1 1) rotate(0) translate(36 201.74)">
<polygon fill="dimgray" stroke="none" points="-36,36 -36,-201.74 347,-201.74 347,36 -36,36"/>
<text text-anchor="middle" x="155.5" y="-150.54" font-family="Helvetica,sans-Serif" font-size="14.00">Sweep&#39;s Plan &amp; Progress</text>
<!-- start -->
<g id="node1" class="node">
<title>start</title>
</g>
<!-- 9c134d63&#45;0cc3&#45;46d3&#45;b278&#45;59b265c0aab1 -->
<g id="node3" class="node">
<title>9c134d63&#45;0cc3&#45;46d3&#45;b278&#45;59b265c0aab1</title>
<ellipse fill="yellow" stroke="black" cx="155.5" cy="-99.87" rx="84.71" ry="26.74"/>
<text text-anchor="middle" x="155.5" y="-103.67" font-family="Helvetica,sans-Serif" font-size="14.00">⋯ Modify</text>
<text text-anchor="middle" x="155.5" y="-88.67" font-family="Helvetica,sans-Serif" font-size="14.00">sweepai/api.py</text>
</g>
<!-- start&#45;&gt;9c134d63&#45;0cc3&#45;46d3&#45;b278&#45;59b265c0aab1 -->
<g id="edge2" class="edge">
<title>start&#45;&gt;9c134d63&#45;0cc3&#45;46d3&#45;b278&#45;59b265c0aab1</title>
<path fill="none" stroke="black" d="M18.89,-99.87C21.65,-99.87 38.54,-99.87 59.56,-99.87"/>
<polygon fill="black" stroke="black" points="59.53,-103.37 69.53,-99.87 59.53,-96.37 59.53,-103.37"/>
<text text-anchor="middle" x="44.82" y="-106.67" font-family="Helvetica,sans-Serif" font-size="14.00">Start</text>
</g>
<!-- end -->
<g id="node2" class="node">
<title>end</title>
</g>
<!-- 9c134d63&#45;0cc3&#45;46d3&#45;b278&#45;59b265c0aab1&#45;&gt;end -->
<g id="edge3" class="edge">
<title>9c134d63&#45;0cc3&#45;46d3&#45;b278&#45;59b265c0aab1&#45;&gt;end</title>
<path fill="none" stroke="black" d="M240.34,-99.87C259.06,-99.87 276.51,-99.87 287.32,-99.87"/>
<polygon fill="black" stroke="black" points="287.19,-103.37 297.19,-99.87 287.19,-96.37 287.19,-103.37"/>
<text text-anchor="middle" x="269.18" y="-106.67" font-family="Helvetica,sans-Serif" font-size="14.00">Finish</text>
</g>
<!-- bef6ae0e&#45;0560&#45;4f4f&#45;83e3&#45;d79ee57eabc9 -->
<g id="node4" class="node">
<title>bef6ae0e&#45;0560&#45;4f4f&#45;83e3&#45;d79ee57eabc9</title>
<polygon fill="white" stroke="black" points="311,-36 0,-36 0,0 311,0 311,-36"/>
<text text-anchor="middle" x="155.5" y="-14.3" font-family="Helvetica,sans-Serif" font-size="14.00">▶ Run GitHub Actions for `sweepai/api.py`</text>
</g>
<!-- 9c134d63&#45;0cc3&#45;46d3&#45;b278&#45;59b265c0aab1&#45;&gt;bef6ae0e&#45;0560&#45;4f4f&#45;83e3&#45;d79ee57eabc9 -->
<g id="edge1" class="edge">
<title>9c134d63&#45;0cc3&#45;46d3&#45;b278&#45;59b265c0aab1&#45;&gt;bef6ae0e&#45;0560&#45;4f4f&#45;83e3&#45;d79ee57eabc9</title>
<path fill="none" stroke="black" stroke-dasharray="5,2" d="M155.5,-72.72C155.5,-64.46 155.5,-55.31 155.5,-46.93"/>
<polygon fill="black" stroke="black" points="159,-47.15 155.5,-37.15 152,-47.15 159,-47.15"/>
</g>
</g>
</svg>
