<?xml version="1.0" encoding="UTF-8" standalone="no"?>
<!DOCTYPE svg PUBLIC "-//W3C//DTD SVG 1.1//EN"
 "http://www.w3.org/Graphics/SVG/1.1/DTD/svg11.dtd">
<!-- Generated by graphviz version 8.0.3 (0)
 -->
<!-- Pages: 1 -->
<svg width="2380pt" height="593pt"
 viewBox="0.00 0.00 2380.00 593.22" xmlns="http://www.w3.org/2000/svg" xmlns:xlink="http://www.w3.org/1999/xlink">
<g id="graph0" class="graph" transform="scale(1 1) rotate(0) translate(36 557.22)">
<polygon fill="dimgray" stroke="none" points="-36,36 -36,-557.22 2344,-557.22 2344,36 -36,36"/>
<text text-anchor="middle" x="1154" y="-506.02" font-family="Helvetica,sans-Serif" font-size="14.00">Sweep&#39;s Plan &amp; Progress</text>
<!-- start -->
<g id="node1" class="node">
<title>start</title>
</g>
<!-- 777016a4&#45;869c&#45;4802&#45;acb9&#45;e0bec53c7cda -->
<g id="node3" class="node">
<title>777016a4&#45;869c&#45;4802&#45;acb9&#45;e0bec53c7cda</title>
<ellipse fill="#ee0000" stroke="black" cx="971.5" cy="-455.35" rx="159.61" ry="26.74"/>
<text text-anchor="middle" x="971.5" y="-459.15" font-family="Helvetica,sans-Serif" font-size="14.00">✗ Modify</text>
<text text-anchor="middle" x="971.5" y="-444.15" font-family="Helvetica,sans-Serif" font-size="14.00">sweepai/handlers/on_ticket.py</text>
</g>
<!-- start&#45;&gt;777016a4&#45;869c&#45;4802&#45;acb9&#45;e0bec53c7cda -->
<g id="edge22" class="edge">
<title>start&#45;&gt;777016a4&#45;869c&#45;4802&#45;acb9&#45;e0bec53c7cda</title>
<path fill="none" stroke="black" d="M759.65,-455.35C761.39,-455.35 777.75,-455.35 800.67,-455.35"/>
<polygon fill="black" stroke="black" points="800.63,-458.85 810.63,-455.35 800.63,-451.85 800.63,-458.85"/>
<text text-anchor="middle" x="785.85" y="-462.15" font-family="Helvetica,sans-Serif" font-size="14.00">Start</text>
</g>
<!-- end -->
<g id="node2" class="node">
<title>end</title>
</g>
<!-- 6da2bd48&#45;856b&#45;4801&#45;a784&#45;91176a04f6ad -->
<g id="node4" class="node">
<title>6da2bd48&#45;856b&#45;4801&#45;a784&#45;91176a04f6ad</title>
<ellipse fill="#0ee832" stroke="black" cx="1348.5" cy="-455.35" rx="159.61" ry="26.74"/>
<text text-anchor="middle" x="1348.5" y="-459.15" font-family="Helvetica,sans-Serif" font-size="14.00">✓ Modify</text>
<text text-anchor="middle" x="1348.5" y="-444.15" font-family="Helvetica,sans-Serif" font-size="14.00">sweepai/handlers/on_ticket.py</text>
</g>
<!-- 777016a4&#45;869c&#45;4802&#45;acb9&#45;e0bec53c7cda&#45;&gt;6da2bd48&#45;856b&#45;4801&#45;a784&#45;91176a04f6ad -->
<g id="edge2" class="edge">
<title>777016a4&#45;869c&#45;4802&#45;acb9&#45;e0bec53c7cda&#45;&gt;6da2bd48&#45;856b&#45;4801&#45;a784&#45;91176a04f6ad</title>
<path fill="none" stroke="black" d="M1131.28,-455.35C1146.79,-455.35 1162.31,-455.35 1177.82,-455.35"/>
<polygon fill="black" stroke="black" points="1177.56,-458.85 1187.56,-455.35 1177.56,-451.85 1177.56,-458.85"/>
</g>
<!-- da790d63&#45;8e88&#45;40b4&#45;8f69&#45;1ed52323fdfb -->
<g id="node5" class="node">
<title>da790d63&#45;8e88&#45;40b4&#45;8f69&#45;1ed52323fdfb</title>
<polygon fill="#ee0000" stroke="black" points="1140.5,-391.48 760.5,-391.48 760.5,-355.48 1140.5,-355.48 1140.5,-391.48"/>
<text text-anchor="middle" x="950.5" y="-369.78" font-family="Helvetica,sans-Serif" font-size="14.00">✗ Ran sandbox for `sweepai/handlers/on_ticket.py`.</text>
</g>
<!-- 777016a4&#45;869c&#45;4802&#45;acb9&#45;e0bec53c7cda&#45;&gt;da790d63&#45;8e88&#45;40b4&#45;8f69&#45;1ed52323fdfb -->
<g id="edge1" class="edge">
<title>777016a4&#45;869c&#45;4802&#45;acb9&#45;e0bec53c7cda&#45;&gt;da790d63&#45;8e88&#45;40b4&#45;8f69&#45;1ed52323fdfb</title>
<path fill="none" stroke="black" stroke-dasharray="5,2" d="M964.62,-428.2C962.43,-419.85 959.99,-410.58 957.77,-402.13"/>
<polygon fill="black" stroke="black" points="960.94,-401.41 955.01,-392.63 954.17,-403.19 960.94,-401.41"/>
</g>
<!-- 6da2bd48&#45;856b&#45;4801&#45;a784&#45;91176a04f6ad&#45;&gt;end -->
<g id="edge23" class="edge">
<title>6da2bd48&#45;856b&#45;4801&#45;a784&#45;91176a04f6ad&#45;&gt;end</title>
<path fill="none" stroke="black" d="M1508.37,-455.35C1528,-455.35 1544.8,-455.35 1555.22,-455.35"/>
<polygon fill="black" stroke="black" points="1555.21,-458.85 1565.21,-455.35 1555.21,-451.85 1555.21,-458.85"/>
<text text-anchor="middle" x="1537.15" y="-462.15" font-family="Helvetica,sans-Serif" font-size="14.00">Finish</text>
</g>
<!-- b28b1664&#45;a9f4&#45;4ff5&#45;9ceb&#45;6f6dbbefc4d7 -->
<g id="node6" class="node">
<title>b28b1664&#45;a9f4&#45;4ff5&#45;9ceb&#45;6f6dbbefc4d7</title>
<polygon fill="#ee0000" stroke="black" points="1538.5,-391.48 1158.5,-391.48 1158.5,-355.48 1538.5,-355.48 1538.5,-391.48"/>
<text text-anchor="middle" x="1348.5" y="-369.78" font-family="Helvetica,sans-Serif" font-size="14.00">✗ Ran sandbox for `sweepai/handlers/on_ticket.py`.</text>
</g>
<!-- 6da2bd48&#45;856b&#45;4801&#45;a784&#45;91176a04f6ad&#45;&gt;b28b1664&#45;a9f4&#45;4ff5&#45;9ceb&#45;6f6dbbefc4d7 -->
<g id="edge3" class="edge">
<title>6da2bd48&#45;856b&#45;4801&#45;a784&#45;91176a04f6ad&#45;&gt;b28b1664&#45;a9f4&#45;4ff5&#45;9ceb&#45;6f6dbbefc4d7</title>
<path fill="none" stroke="black" stroke-dasharray="5,2" d="M1348.5,-428.2C1348.5,-419.94 1348.5,-410.79 1348.5,-402.41"/>
<polygon fill="black" stroke="black" points="1352,-402.63 1348.5,-392.63 1345,-402.63 1352,-402.63"/>
</g>
<!-- c78a302f&#45;95cd&#45;4149&#45;9e26&#45;497c8ae78a6a -->
<g id="node7" class="node">
<title>c78a302f&#45;95cd&#45;4149&#45;9e26&#45;497c8ae78a6a</title>
<polygon fill="white" stroke="black" points="1934.5,-391.48 1556.5,-391.48 1556.5,-355.48 1934.5,-355.48 1934.5,-391.48"/>
<text text-anchor="middle" x="1745.5" y="-369.78" font-family="Helvetica,sans-Serif" font-size="14.00">▶ Ran sandbox for `sweepai/handlers/on_ticket.py`.</text>
</g>
<!-- 6da2bd48&#45;856b&#45;4801&#45;a784&#45;91176a04f6ad&#45;&gt;c78a302f&#45;95cd&#45;4149&#45;9e26&#45;497c8ae78a6a -->
<g id="edge21" class="edge">
<title>6da2bd48&#45;856b&#45;4801&#45;a784&#45;91176a04f6ad&#45;&gt;c78a302f&#45;95cd&#45;4149&#45;9e26&#45;497c8ae78a6a</title>
<path fill="none" stroke="black" stroke-dasharray="5,2" d="M1448.94,-434.14C1509.94,-421.87 1587.44,-406.28 1647.92,-394.11"/>
<polygon fill="black" stroke="black" points="1648.5,-397.36 1657.62,-391.96 1647.12,-390.5 1648.5,-397.36"/>
</g>
<!-- 1effb80a&#45;afe8&#45;479a&#45;a3e4&#45;fc346d420308 -->
<g id="node8" class="node">
<title>1effb80a&#45;afe8&#45;479a&#45;a3e4&#45;fc346d420308</title>
<ellipse fill="#0ee832" stroke="black" cx="457.5" cy="-277.61" rx="98.08" ry="26.74"/>
<text text-anchor="middle" x="457.5" y="-281.41" font-family="Helvetica,sans-Serif" font-size="14.00">✓ Create</text>
<text text-anchor="middle" x="457.5" y="-266.41" font-family="Helvetica,sans-Serif" font-size="14.00">.trunk/trunk.yaml</text>
</g>
<!-- b28b1664&#45;a9f4&#45;4ff5&#45;9ceb&#45;6f6dbbefc4d7&#45;&gt;1effb80a&#45;afe8&#45;479a&#45;a3e4&#45;fc346d420308 -->
<g id="edge4" class="edge">
<title>b28b1664&#45;a9f4&#45;4ff5&#45;9ceb&#45;6f6dbbefc4d7&#45;&gt;1effb80a&#45;afe8&#45;479a&#45;a3e4&#45;fc346d420308</title>
<path fill="none" stroke="black" d="M1158.13,-356.03C1155.23,-355.84 1152.36,-355.66 1149.5,-355.48 943.96,-342.71 890.26,-367.29 686.5,-337.48 633.48,-329.72 574.99,-314.57 530.39,-301.58"/>
<polygon fill="black" stroke="black" points="531.53,-297.97 520.95,-298.5 529.55,-304.69 531.53,-297.97"/>
<text text-anchor="middle" x="784" y="-326.28" font-family="Helvetica,sans-Serif" font-size="14.00">Additional changes required</text>
</g>
<!-- 4d098d4a&#45;623c&#45;44de&#45;99e8&#45;8bb04522bb86 -->
<g id="node9" class="node">
<title>4d098d4a&#45;623c&#45;44de&#45;99e8&#45;8bb04522bb86</title>
<ellipse fill="#ee0000" stroke="black" cx="789.5" cy="-277.61" rx="82.05" ry="26.74"/>
<text text-anchor="middle" x="789.5" y="-281.41" font-family="Helvetica,sans-Serif" font-size="14.00">✗ Create</text>
<text text-anchor="middle" x="789.5" y="-266.41" font-family="Helvetica,sans-Serif" font-size="14.00">.hadolint.yaml</text>
</g>
<!-- b28b1664&#45;a9f4&#45;4ff5&#45;9ceb&#45;6f6dbbefc4d7&#45;&gt;4d098d4a&#45;623c&#45;44de&#45;99e8&#45;8bb04522bb86 -->
<g id="edge9" class="edge">
<title>b28b1664&#45;a9f4&#45;4ff5&#45;9ceb&#45;6f6dbbefc4d7&#45;&gt;4d098d4a&#45;623c&#45;44de&#45;99e8&#45;8bb04522bb86</title>
<path fill="none" stroke="black" d="M1158.12,-356.2C1155.22,-355.96 1152.35,-355.72 1149.5,-355.48 1051.29,-347.29 1024.2,-361 928.5,-337.48 898.84,-330.19 867.38,-317.34 841.91,-305.5"/>
<polygon fill="black" stroke="black" points="843.63,-301.97 833.1,-300.86 840.64,-308.3 843.63,-301.97"/>
<text text-anchor="middle" x="1026" y="-326.28" font-family="Helvetica,sans-Serif" font-size="14.00">Additional changes required</text>
</g>
<!-- fef081aa&#45;7234&#45;4238&#45;b14a&#45;80945924107c -->
<g id="node10" class="node">
<title>fef081aa&#45;7234&#45;4238&#45;b14a&#45;80945924107c</title>
<ellipse fill="white" stroke="black" cx="1081.5" cy="-277.61" rx="109.7" ry="26.74"/>
<text text-anchor="middle" x="1081.5" y="-281.41" font-family="Helvetica,sans-Serif" font-size="14.00">▶ Create</text>
<text text-anchor="middle" x="1081.5" y="-266.41" font-family="Helvetica,sans-Serif" font-size="14.00">.markdownlint.yaml</text>
</g>
<!-- b28b1664&#45;a9f4&#45;4ff5&#45;9ceb&#45;6f6dbbefc4d7&#45;&gt;fef081aa&#45;7234&#45;4238&#45;b14a&#45;80945924107c -->
<g id="edge11" class="edge">
<title>b28b1664&#45;a9f4&#45;4ff5&#45;9ceb&#45;6f6dbbefc4d7&#45;&gt;fef081aa&#45;7234&#45;4238&#45;b14a&#45;80945924107c</title>
<path fill="none" stroke="black" d="M1197.98,-355.03C1181.21,-350.46 1164.71,-344.71 1149.5,-337.48 1136.01,-331.07 1123.12,-321.23 1112.25,-311.43"/>
<polygon fill="black" stroke="black" points="1115.03,-309.3 1105.36,-304.99 1110.23,-314.39 1115.03,-309.3"/>
<text text-anchor="middle" x="1247" y="-326.28" font-family="Helvetica,sans-Serif" font-size="14.00">Additional changes required</text>
</g>
<!-- 7c382e05&#45;c357&#45;4c52&#45;aa38&#45;74fa0c0fba75 -->
<g id="node11" class="node">
<title>7c382e05&#45;c357&#45;4c52&#45;aa38&#45;74fa0c0fba75</title>
<ellipse fill="white" stroke="black" cx="1348.5" cy="-277.61" rx="54.39" ry="26.74"/>
<text text-anchor="middle" x="1348.5" y="-281.41" font-family="Helvetica,sans-Serif" font-size="14.00">▶ Create</text>
<text text-anchor="middle" x="1348.5" y="-266.41" font-family="Helvetica,sans-Serif" font-size="14.00">ruff.toml</text>
</g>
<!-- b28b1664&#45;a9f4&#45;4ff5&#45;9ceb&#45;6f6dbbefc4d7&#45;&gt;7c382e05&#45;c357&#45;4c52&#45;aa38&#45;74fa0c0fba75 -->
<g id="edge13" class="edge">
<title>b28b1664&#45;a9f4&#45;4ff5&#45;9ceb&#45;6f6dbbefc4d7&#45;&gt;7c382e05&#45;c357&#45;4c52&#45;aa38&#45;74fa0c0fba75</title>
<path fill="none" stroke="black" d="M1348.5,-355.26C1348.5,-344.07 1348.5,-329.05 1348.5,-315.27"/>
<polygon fill="black" stroke="black" points="1352,-315.58 1348.5,-305.58 1345,-315.58 1352,-315.58"/>
<text text-anchor="middle" x="1446" y="-326.28" font-family="Helvetica,sans-Serif" font-size="14.00">Additional changes required</text>
</g>
<!-- 3af7b6cf&#45;e1ce&#45;4f82&#45;b83a&#45;aa998c800316 -->
<g id="node12" class="node">
<title>3af7b6cf&#45;e1ce&#45;4f82&#45;b83a&#45;aa998c800316</title>
<ellipse fill="white" stroke="black" cx="1588.5" cy="-277.61" rx="75.82" ry="26.74"/>
<text text-anchor="middle" x="1588.5" y="-281.41" font-family="Helvetica,sans-Serif" font-size="14.00">▶ Create</text>
<text text-anchor="middle" x="1588.5" y="-266.41" font-family="Helvetica,sans-Serif" font-size="14.00">.shellcheckrc</text>
</g>
<!-- b28b1664&#45;a9f4&#45;4ff5&#45;9ceb&#45;6f6dbbefc4d7&#45;&gt;3af7b6cf&#45;e1ce&#45;4f82&#45;b83a&#45;aa998c800316 -->
<g id="edge15" class="edge">
<title>b28b1664&#45;a9f4&#45;4ff5&#45;9ceb&#45;6f6dbbefc4d7&#45;&gt;3af7b6cf&#45;e1ce&#45;4f82&#45;b83a&#45;aa998c800316</title>
<path fill="none" stroke="black" d="M1491.14,-355.06C1515.6,-350.26 1536.63,-344.42 1547.5,-337.48 1556.87,-331.5 1564.69,-322.53 1570.9,-313.39"/>
<polygon fill="black" stroke="black" points="1574.25,-315.63 1576.57,-305.29 1568.31,-311.92 1574.25,-315.63"/>
<text text-anchor="middle" x="1661" y="-326.28" font-family="Helvetica,sans-Serif" font-size="14.00">Additional changes required</text>
</g>
<!-- db874f51&#45;5f05&#45;4c7f&#45;99cc&#45;6586d420fb27 -->
<g id="node13" class="node">
<title>db874f51&#45;5f05&#45;4c7f&#45;99cc&#45;6586d420fb27</title>
<ellipse fill="white" stroke="black" cx="1848.5" cy="-277.61" rx="79.81" ry="26.74"/>
<text text-anchor="middle" x="1848.5" y="-281.41" font-family="Helvetica,sans-Serif" font-size="14.00">▶ Create</text>
<text text-anchor="middle" x="1848.5" y="-266.41" font-family="Helvetica,sans-Serif" font-size="14.00">svgo.config.js</text>
</g>
<!-- b28b1664&#45;a9f4&#45;4ff5&#45;9ceb&#45;6f6dbbefc4d7&#45;&gt;db874f51&#45;5f05&#45;4c7f&#45;99cc&#45;6586d420fb27 -->
<g id="edge17" class="edge">
<title>b28b1664&#45;a9f4&#45;4ff5&#45;9ceb&#45;6f6dbbefc4d7&#45;&gt;db874f51&#45;5f05&#45;4c7f&#45;99cc&#45;6586d420fb27</title>
<path fill="none" stroke="black" d="M1538.88,-356.21C1541.78,-355.96 1544.65,-355.72 1547.5,-355.48 1595.27,-351.44 1717.33,-353.56 1762.5,-337.48 1780.15,-331.2 1797.58,-320.37 1812.09,-309.7"/>
<polygon fill="black" stroke="black" points="1813.9,-311.97 1819.73,-303.12 1809.65,-306.4 1813.9,-311.97"/>
<text text-anchor="middle" x="1889" y="-326.28" font-family="Helvetica,sans-Serif" font-size="14.00">Additional changes required</text>
</g>
<!-- 0d9c7738&#45;362e&#45;40c1&#45;86ec&#45;098074656836 -->
<g id="node14" class="node">
<title>0d9c7738&#45;362e&#45;40c1&#45;86ec&#45;098074656836</title>
<ellipse fill="white" stroke="black" cx="2107.5" cy="-277.61" rx="81.13" ry="26.74"/>
<text text-anchor="middle" x="2107.5" y="-281.41" font-family="Helvetica,sans-Serif" font-size="14.00">▶ Create</text>
<text text-anchor="middle" x="2107.5" y="-266.41" font-family="Helvetica,sans-Serif" font-size="14.00">.yamllint.yaml</text>
</g>
<!-- b28b1664&#45;a9f4&#45;4ff5&#45;9ceb&#45;6f6dbbefc4d7&#45;&gt;0d9c7738&#45;362e&#45;40c1&#45;86ec&#45;098074656836 -->
<g id="edge19" class="edge">
<title>b28b1664&#45;a9f4&#45;4ff5&#45;9ceb&#45;6f6dbbefc4d7&#45;&gt;0d9c7738&#45;362e&#45;40c1&#45;86ec&#45;098074656836</title>
<path fill="none" stroke="black" d="M1538.87,-356.04C1541.77,-355.85 1544.65,-355.66 1547.5,-355.48 1645.83,-349.29 1895.12,-362.18 1990.5,-337.48 2015.2,-331.08 2040.73,-318.98 2061.62,-307.41"/>
<polygon fill="black" stroke="black" points="2063.21,-309.96 2070.17,-301.97 2059.75,-303.87 2063.21,-309.96"/>
<text text-anchor="middle" x="2129" y="-326.28" font-family="Helvetica,sans-Serif" font-size="14.00">Additional changes required</text>
</g>
<!-- a2f4d6dd&#45;8386&#45;4ba4&#45;9cc0&#45;9530fdce5359 -->
<g id="node15" class="node">
<title>a2f4d6dd&#45;8386&#45;4ba4&#45;9cc0&#45;9530fdce5359</title>
<polygon fill="#ee0000" stroke="black" points="293,-213.74 0,-213.74 0,-177.74 293,-177.74 293,-213.74"/>
<text text-anchor="middle" x="146.5" y="-192.04" font-family="Helvetica,sans-Serif" font-size="14.00">✗ Ran sandbox for `.trunk/trunk.yaml`.</text>
</g>
<!-- 1effb80a&#45;afe8&#45;479a&#45;a3e4&#45;fc346d420308&#45;&gt;a2f4d6dd&#45;8386&#45;4ba4&#45;9cc0&#45;9530fdce5359 -->
<g id="edge5" class="edge">
<title>1effb80a&#45;afe8&#45;479a&#45;a3e4&#45;fc346d420308&#45;&gt;a2f4d6dd&#45;8386&#45;4ba4&#45;9cc0&#45;9530fdce5359</title>
<path fill="none" stroke="black" stroke-dasharray="5,2" d="M387.32,-258.59C339.06,-246.19 274.94,-229.72 224.99,-216.9"/>
<polygon fill="black" stroke="black" points="226.11,-213.32 215.56,-214.22 224.37,-220.1 226.11,-213.32"/>
</g>
<!-- 61f8cd34&#45;ab8a&#45;4cdf&#45;bdbf&#45;08a904fc04dc -->
<g id="node16" class="node">
<title>61f8cd34&#45;ab8a&#45;4cdf&#45;bdbf&#45;08a904fc04dc</title>
<polygon fill="#ee0000" stroke="black" points="604,-213.74 311,-213.74 311,-177.74 604,-177.74 604,-213.74"/>
<text text-anchor="middle" x="457.5" y="-192.04" font-family="Helvetica,sans-Serif" font-size="14.00">✗ Ran sandbox for `.trunk/trunk.yaml`.</text>
</g>
<!-- 1effb80a&#45;afe8&#45;479a&#45;a3e4&#45;fc346d420308&#45;&gt;61f8cd34&#45;ab8a&#45;4cdf&#45;bdbf&#45;08a904fc04dc -->
<g id="edge8" class="edge">
<title>1effb80a&#45;afe8&#45;479a&#45;a3e4&#45;fc346d420308&#45;&gt;61f8cd34&#45;ab8a&#45;4cdf&#45;bdbf&#45;08a904fc04dc</title>
<path fill="none" stroke="black" stroke-dasharray="5,2" d="M457.5,-250.46C457.5,-242.2 457.5,-233.05 457.5,-224.67"/>
<polygon fill="black" stroke="black" points="461,-224.89 457.5,-214.89 454,-224.89 461,-224.89"/>
</g>
<!-- 7efcc62f&#45;ee4e&#45;41bb&#45;a0de&#45;69ae1cfe609b -->
<g id="node17" class="node">
<title>7efcc62f&#45;ee4e&#45;41bb&#45;a0de&#45;69ae1cfe609b</title>
<polygon fill="#ee0000" stroke="black" points="891,-213.74 622,-213.74 622,-177.74 891,-177.74 891,-213.74"/>
<text text-anchor="middle" x="756.5" y="-192.04" font-family="Helvetica,sans-Serif" font-size="14.00">✗ Ran sandbox for `.hadolint.yaml`.</text>
</g>
<!-- 4d098d4a&#45;623c&#45;44de&#45;99e8&#45;8bb04522bb86&#45;&gt;7efcc62f&#45;ee4e&#45;41bb&#45;a0de&#45;69ae1cfe609b -->
<g id="edge10" class="edge">
<title>4d098d4a&#45;623c&#45;44de&#45;99e8&#45;8bb04522bb86&#45;&gt;7efcc62f&#45;ee4e&#45;41bb&#45;a0de&#45;69ae1cfe609b</title>
<path fill="none" stroke="black" stroke-dasharray="5,2" d="M778.88,-250.9C775.34,-242.34 771.39,-232.78 767.8,-224.1"/>
<polygon fill="black" stroke="black" points="770.72,-222.98 763.66,-215.08 764.25,-225.66 770.72,-222.98"/>
</g>
<!-- 9d4b871f&#45;5a32&#45;403a&#45;8c31&#45;f4ddb2609e97 -->
<g id="node18" class="node">
<title>9d4b871f&#45;5a32&#45;403a&#45;8c31&#45;f4ddb2609e97</title>
<polygon fill="white" stroke="black" points="1216,-213.74 909,-213.74 909,-177.74 1216,-177.74 1216,-213.74"/>
<text text-anchor="middle" x="1062.5" y="-192.04" font-family="Helvetica,sans-Serif" font-size="14.00">▶ Ran sandbox for `.markdownlint.yaml`.</text>
</g>
<!-- fef081aa&#45;7234&#45;4238&#45;b14a&#45;80945924107c&#45;&gt;9d4b871f&#45;5a32&#45;403a&#45;8c31&#45;f4ddb2609e97 -->
<g id="edge12" class="edge">
<title>fef081aa&#45;7234&#45;4238&#45;b14a&#45;80945924107c&#45;&gt;9d4b871f&#45;5a32&#45;403a&#45;8c31&#45;f4ddb2609e97</title>
<path fill="none" stroke="black" stroke-dasharray="5,2" d="M1075.28,-250.46C1073.29,-242.11 1071.09,-232.84 1069.08,-224.39"/>
<polygon fill="black" stroke="black" points="1072.3,-223.81 1066.58,-214.89 1065.49,-225.43 1072.3,-223.81"/>
</g>
<!-- b76525f1&#45;284b&#45;4a1a&#45;81ba&#45;ba7df5b2c604 -->
<g id="node19" class="node">
<title>b76525f1&#45;284b&#45;4a1a&#45;81ba&#45;ba7df5b2c604</title>
<polygon fill="white" stroke="black" points="1463,-213.74 1234,-213.74 1234,-177.74 1463,-177.74 1463,-213.74"/>
<text text-anchor="middle" x="1348.5" y="-192.04" font-family="Helvetica,sans-Serif" font-size="14.00">▶ Ran sandbox for `ruff.toml`.</text>
</g>
<!-- 7c382e05&#45;c357&#45;4c52&#45;aa38&#45;74fa0c0fba75&#45;&gt;b76525f1&#45;284b&#45;4a1a&#45;81ba&#45;ba7df5b2c604 -->
<g id="edge14" class="edge">
<title>7c382e05&#45;c357&#45;4c52&#45;aa38&#45;74fa0c0fba75&#45;&gt;b76525f1&#45;284b&#45;4a1a&#45;81ba&#45;ba7df5b2c604</title>
<path fill="none" stroke="black" stroke-dasharray="5,2" d="M1348.5,-250.46C1348.5,-242.2 1348.5,-233.05 1348.5,-224.67"/>
<polygon fill="black" stroke="black" points="1352,-224.89 1348.5,-214.89 1345,-224.89 1352,-224.89"/>
</g>
<!-- 846243c6&#45;9f9c&#45;4280&#45;b68f&#45;d813c7f5482a -->
<g id="node20" class="node">
<title>846243c6&#45;9f9c&#45;4280&#45;b68f&#45;d813c7f5482a</title>
<polygon fill="white" stroke="black" points="1740,-213.74 1481,-213.74 1481,-177.74 1740,-177.74 1740,-213.74"/>
<text text-anchor="middle" x="1610.5" y="-192.04" font-family="Helvetica,sans-Serif" font-size="14.00">▶ Ran sandbox for `.shellcheckrc`.</text>
</g>
<!-- 3af7b6cf&#45;e1ce&#45;4f82&#45;b83a&#45;aa998c800316&#45;&gt;846243c6&#45;9f9c&#45;4280&#45;b68f&#45;d813c7f5482a -->
<g id="edge16" class="edge">
<title>3af7b6cf&#45;e1ce&#45;4f82&#45;b83a&#45;aa998c800316&#45;&gt;846243c6&#45;9f9c&#45;4280&#45;b68f&#45;d813c7f5482a</title>
<path fill="none" stroke="black" stroke-dasharray="5,2" d="M1595.58,-250.9C1597.89,-242.53 1600.46,-233.2 1602.81,-224.67"/>
<polygon fill="black" stroke="black" points="1606.44,-225.65 1605.72,-215.08 1599.69,-223.79 1606.44,-225.65"/>
</g>
<!-- 497ee8b8&#45;e137&#45;4184&#45;95c1&#45;84224a850b7d -->
<g id="node21" class="node">
<title>497ee8b8&#45;e137&#45;4184&#45;95c1&#45;84224a850b7d</title>
<polygon fill="white" stroke="black" points="2023,-213.74 1758,-213.74 1758,-177.74 2023,-177.74 2023,-213.74"/>
<text text-anchor="middle" x="1890.5" y="-192.04" font-family="Helvetica,sans-Serif" font-size="14.00">▶ Ran sandbox for `svgo.config.js`.</text>
</g>
<!-- db874f51&#45;5f05&#45;4c7f&#45;99cc&#45;6586d420fb27&#45;&gt;497ee8b8&#45;e137&#45;4184&#45;95c1&#45;84224a850b7d -->
<g id="edge18" class="edge">
<title>db874f51&#45;5f05&#45;4c7f&#45;99cc&#45;6586d420fb27&#45;&gt;497ee8b8&#45;e137&#45;4184&#45;95c1&#45;84224a850b7d</title>
<path fill="none" stroke="black" stroke-dasharray="5,2" d="M1862.02,-250.9C1866.62,-242.15 1871.77,-232.36 1876.41,-223.53"/>
<polygon fill="black" stroke="black" points="1879.83,-225.56 1881.38,-215.08 1873.63,-222.3 1879.83,-225.56"/>
</g>
<!-- 0f216f21&#45;13e2&#45;44ec&#45;bf19&#45;0e8ce6b5a0b4 -->
<g id="node22" class="node">
<title>0f216f21&#45;13e2&#45;44ec&#45;bf19&#45;0e8ce6b5a0b4</title>
<polygon fill="white" stroke="black" points="2308,-213.74 2041,-213.74 2041,-177.74 2308,-177.74 2308,-213.74"/>
<text text-anchor="middle" x="2174.5" y="-192.04" font-family="Helvetica,sans-Serif" font-size="14.00">▶ Ran sandbox for `.yamllint.yaml`.</text>
</g>
<!-- 0d9c7738&#45;362e&#45;40c1&#45;86ec&#45;098074656836&#45;&gt;0f216f21&#45;13e2&#45;44ec&#45;bf19&#45;0e8ce6b5a0b4 -->
<g id="edge20" class="edge">
<title>0d9c7738&#45;362e&#45;40c1&#45;86ec&#45;098074656836&#45;&gt;0f216f21&#45;13e2&#45;44ec&#45;bf19&#45;0e8ce6b5a0b4</title>
<path fill="none" stroke="black" stroke-dasharray="5,2" d="M2128.7,-251.34C2136.57,-241.96 2145.48,-231.33 2153.35,-221.96"/>
<polygon fill="black" stroke="black" points="2156.46,-224.69 2160.21,-214.78 2151.1,-220.19 2156.46,-224.69"/>
</g>
<!-- afc36005&#45;e8ed&#45;4076&#45;b445&#45;ff1871647da6 -->
<g id="node23" class="node">
<title>afc36005&#45;e8ed&#45;4076&#45;b445&#45;ff1871647da6</title>
<ellipse fill="#ee0000" stroke="black" cx="146.5" cy="-99.87" rx="98.08" ry="26.74"/>
<text text-anchor="middle" x="146.5" y="-103.67" font-family="Helvetica,sans-Serif" font-size="14.00">✗ Modify</text>
<text text-anchor="middle" x="146.5" y="-88.67" font-family="Helvetica,sans-Serif" font-size="14.00">.trunk/trunk.yaml</text>
</g>
<!-- a2f4d6dd&#45;8386&#45;4ba4&#45;9cc0&#45;9530fdce5359&#45;&gt;afc36005&#45;e8ed&#45;4076&#45;b445&#45;ff1871647da6 -->
<g id="edge6" class="edge">
<title>a2f4d6dd&#45;8386&#45;4ba4&#45;9cc0&#45;9530fdce5359&#45;&gt;afc36005&#45;e8ed&#45;4076&#45;b445&#45;ff1871647da6</title>
<path fill="none" stroke="black" d="M146.5,-177.52C146.5,-166.33 146.5,-151.31 146.5,-137.53"/>
<polygon fill="black" stroke="black" points="150,-137.84 146.5,-127.84 143,-137.84 150,-137.84"/>
<text text-anchor="middle" x="244" y="-148.54" font-family="Helvetica,sans-Serif" font-size="14.00">Additional changes required</text>
</g>
<!-- 054fe5f2&#45;1bee&#45;4a9e&#45;940b&#45;7e6e3caecca5 -->
<g id="node24" class="node">
<title>054fe5f2&#45;1bee&#45;4a9e&#45;940b&#45;7e6e3caecca5</title>
<polygon fill="#ee0000" stroke="black" points="293,-36 0,-36 0,0 293,0 293,-36"/>
<text text-anchor="middle" x="146.5" y="-14.3" font-family="Helvetica,sans-Serif" font-size="14.00">✗ Ran sandbox for `.trunk/trunk.yaml`.</text>
</g>
<!-- afc36005&#45;e8ed&#45;4076&#45;b445&#45;ff1871647da6&#45;&gt;054fe5f2&#45;1bee&#45;4a9e&#45;940b&#45;7e6e3caecca5 -->
<g id="edge7" class="edge">
<title>afc36005&#45;e8ed&#45;4076&#45;b445&#45;ff1871647da6&#45;&gt;054fe5f2&#45;1bee&#45;4a9e&#45;940b&#45;7e6e3caecca5</title>
<path fill="none" stroke="black" stroke-dasharray="5,2" d="M146.5,-72.72C146.5,-64.46 146.5,-55.31 146.5,-46.93"/>
<polygon fill="black" stroke="black" points="150,-47.15 146.5,-37.15 143,-47.15 150,-47.15"/>
</g>
</g>
</svg>
