<?xml version="1.0" encoding="UTF-8" standalone="no"?>
<!DOCTYPE svg PUBLIC "-//W3C//DTD SVG 1.1//EN"
 "http://www.w3.org/Graphics/SVG/1.1/DTD/svg11.dtd">
<!-- Generated by graphviz version 8.0.3 (0)
 -->
<!-- Pages: 1 -->
<svg width="636pt" height="415pt"
 viewBox="0.00 0.00 636.00 415.48" xmlns="http://www.w3.org/2000/svg" xmlns:xlink="http://www.w3.org/1999/xlink">
<g id="graph0" class="graph" transform="scale(1 1) rotate(0) translate(36 379.48)">
<polygon fill="dimgray" stroke="none" points="-36,36 -36,-379.48 600,-379.48 600,36 -36,36"/>
<text text-anchor="middle" x="282" y="-328.28" font-family="Helvetica,sans-Serif" font-size="14.00">Sweep&#39;s Plan &amp; Progress</text>
<!-- start -->
<g id="node1" class="node">
<title>start</title>
</g>
<!-- b1ec115e&#45;af38&#45;4c50&#45;a719&#45;045a1dfd1ee6 -->
<g id="node3" class="node">
<title>b1ec115e&#45;af38&#45;4c50&#45;a719&#45;045a1dfd1ee6</title>
<ellipse fill="#0ee832" stroke="black" cx="349" cy="-277.61" rx="84.71" ry="26.74"/>
<text text-anchor="middle" x="349" y="-281.41" font-family="Helvetica,sans-Serif" font-size="14.00">✓ Modify</text>
<text text-anchor="middle" x="349" y="-266.41" font-family="Helvetica,sans-Serif" font-size="14.00">sweepai/api.py</text>
</g>
<!-- start&#45;&gt;b1ec115e&#45;af38&#45;4c50&#45;a719&#45;045a1dfd1ee6 -->
<g id="edge5" class="edge">
<title>start&#45;&gt;b1ec115e&#45;af38&#45;4c50&#45;a719&#45;045a1dfd1ee6</title>
<path fill="none" stroke="black" d="M212.39,-277.61C215.15,-277.61 232.04,-277.61 253.06,-277.61"/>
<polygon fill="black" stroke="black" points="253.03,-281.11 263.03,-277.61 253.03,-274.11 253.03,-281.11"/>
<text text-anchor="middle" x="238.32" y="-284.41" font-family="Helvetica,sans-Serif" font-size="14.00">Start</text>
</g>
<!-- end -->
<g id="node2" class="node">
<title>end</title>
</g>
<!-- b1ec115e&#45;af38&#45;4c50&#45;a719&#45;045a1dfd1ee6&#45;&gt;end -->
<g id="edge6" class="edge">
<title>b1ec115e&#45;af38&#45;4c50&#45;a719&#45;045a1dfd1ee6&#45;&gt;end</title>
<path fill="none" stroke="black" d="M433.84,-277.61C452.56,-277.61 470.01,-277.61 480.82,-277.61"/>
<polygon fill="black" stroke="black" points="480.69,-281.11 490.69,-277.61 480.69,-274.11 480.69,-281.11"/>
<text text-anchor="middle" x="462.68" y="-284.41" font-family="Helvetica,sans-Serif" font-size="14.00">Finish</text>
</g>
<!-- 1f38bc63&#45;98e9&#45;4093&#45;b586&#45;d172316bb2c5 -->
<g id="node4" class="node">
<title>1f38bc63&#45;98e9&#45;4093&#45;b586&#45;d172316bb2c5</title>
<polygon fill="#ee0000" stroke="black" points="274,-213.74 0,-213.74 0,-177.74 274,-177.74 274,-213.74"/>
<text text-anchor="middle" x="137" y="-192.04" font-family="Helvetica,sans-Serif" font-size="14.00">✗ Ran sandbox for `sweepai/api.py`.</text>
</g>
<!-- b1ec115e&#45;af38&#45;4c50&#45;a719&#45;045a1dfd1ee6&#45;&gt;1f38bc63&#45;98e9&#45;4093&#45;b586&#45;d172316bb2c5 -->
<g id="edge1" class="edge">
<title>b1ec115e&#45;af38&#45;4c50&#45;a719&#45;045a1dfd1ee6&#45;&gt;1f38bc63&#45;98e9&#45;4093&#45;b586&#45;d172316bb2c5</title>
<path fill="none" stroke="black" stroke-dasharray="5,2" d="M295.5,-256.46C264.29,-244.7 224.95,-229.88 193.27,-217.94"/>
<polygon fill="black" stroke="black" points="194.87,-214.43 184.28,-214.18 192.4,-220.98 194.87,-214.43"/>
</g>
<!-- 283498b7&#45;d733&#45;4aa7&#45;aac6&#45;505ca929363b -->
<g id="node5" class="node">
<title>283498b7&#45;d733&#45;4aa7&#45;aac6&#45;505ca929363b</title>
<polygon fill="white" stroke="black" points="564,-213.74 292,-213.74 292,-177.74 564,-177.74 564,-213.74"/>
<text text-anchor="middle" x="428" y="-192.04" font-family="Helvetica,sans-Serif" font-size="14.00">▶ Ran sandbox for `sweepai/api.py`.</text>
</g>
<!-- b1ec115e&#45;af38&#45;4c50&#45;a719&#45;045a1dfd1ee6&#45;&gt;283498b7&#45;d733&#45;4aa7&#45;aac6&#45;505ca929363b -->
<g id="edge4" class="edge">
<title>b1ec115e&#45;af38&#45;4c50&#45;a719&#45;045a1dfd1ee6&#45;&gt;283498b7&#45;d733&#45;4aa7&#45;aac6&#45;505ca929363b</title>
<path fill="none" stroke="black" stroke-dasharray="5,2" d="M373.56,-251.78C383.05,-242.19 393.88,-231.24 403.37,-221.64"/>
<polygon fill="black" stroke="black" points="405.42,-224.53 409.96,-214.96 400.44,-219.61 405.42,-224.53"/>
</g>
<!-- 482bd8e9&#45;aa1d&#45;4157&#45;925e&#45;38ee52c0120e -->
<g id="node6" class="node">
<title>482bd8e9&#45;aa1d&#45;4157&#45;925e&#45;38ee52c0120e</title>
<ellipse fill="yellow" stroke="black" cx="137" cy="-99.87" rx="84.71" ry="26.74"/>
<text text-anchor="middle" x="137" y="-103.67" font-family="Helvetica,sans-Serif" font-size="14.00">⋯ Modify</text>
<text text-anchor="middle" x="137" y="-88.67" font-family="Helvetica,sans-Serif" font-size="14.00">sweepai/api.py</text>
</g>
<!-- 1f38bc63&#45;98e9&#45;4093&#45;b586&#45;d172316bb2c5&#45;&gt;482bd8e9&#45;aa1d&#45;4157&#45;925e&#45;38ee52c0120e -->
<g id="edge2" class="edge">
<title>1f38bc63&#45;98e9&#45;4093&#45;b586&#45;d172316bb2c5&#45;&gt;482bd8e9&#45;aa1d&#45;4157&#45;925e&#45;38ee52c0120e</title>
<path fill="none" stroke="black" d="M137,-177.52C137,-166.33 137,-151.31 137,-137.53"/>
<polygon fill="black" stroke="black" points="140.5,-137.84 137,-127.84 133.5,-137.84 140.5,-137.84"/>
<text text-anchor="middle" x="234.5" y="-148.54" font-family="Helvetica,sans-Serif" font-size="14.00">Additional changes required</text>
</g>
<!-- 347146dd&#45;ba8f&#45;42d3&#45;b23e&#45;25064922771d -->
<g id="node7" class="node">
<title>347146dd&#45;ba8f&#45;42d3&#45;b23e&#45;25064922771d</title>
<polygon fill="white" stroke="black" points="273,-36 1,-36 1,0 273,0 273,-36"/>
<text text-anchor="middle" x="137" y="-14.3" font-family="Helvetica,sans-Serif" font-size="14.00">▶ Ran sandbox for `sweepai/api.py`.</text>
</g>
<!-- 482bd8e9&#45;aa1d&#45;4157&#45;925e&#45;38ee52c0120e&#45;&gt;347146dd&#45;ba8f&#45;42d3&#45;b23e&#45;25064922771d -->
<g id="edge3" class="edge">
<title>482bd8e9&#45;aa1d&#45;4157&#45;925e&#45;38ee52c0120e&#45;&gt;347146dd&#45;ba8f&#45;42d3&#45;b23e&#45;25064922771d</title>
<path fill="none" stroke="black" stroke-dasharray="5,2" d="M137,-72.72C137,-64.46 137,-55.31 137,-46.93"/>
<polygon fill="black" stroke="black" points="140.5,-47.15 137,-37.15 133.5,-47.15 140.5,-47.15"/>
</g>
</g>
</svg>
