<?xml version="1.0" encoding="UTF-8" standalone="no"?>
<!DOCTYPE svg PUBLIC "-//W3C//DTD SVG 1.1//EN"
 "http://www.w3.org/Graphics/SVG/1.1/DTD/svg11.dtd">
<!-- Generated by graphviz version 8.0.3 (0)
 -->
<!-- Pages: 1 -->
<svg width="989pt" height="415pt"
 viewBox="0.00 0.00 989.00 415.48" xmlns="http://www.w3.org/2000/svg" xmlns:xlink="http://www.w3.org/1999/xlink">
<g id="graph0" class="graph" transform="scale(1 1) rotate(0) translate(36 379.48)">
<polygon fill="dimgray" stroke="none" points="-36,36 -36,-379.48 953,-379.48 953,36 -36,36"/>
<text text-anchor="middle" x="458.5" y="-328.28" font-family="Helvetica,sans-Serif" font-size="14.00">Sweep&#39;s Plan &amp; Progress</text>
<!-- start -->
<g id="node1" class="node">
<title>start</title>
</g>
<!-- 19b0773e&#45;a0dd&#45;4d4a&#45;bc99&#45;f7b0be110d4b -->
<g id="node3" class="node">
<title>19b0773e&#45;a0dd&#45;4d4a&#45;bc99&#45;f7b0be110d4b</title>
<ellipse fill="#0ee832" stroke="black" cx="452.5" cy="-277.61" rx="84.71" ry="26.74"/>
<text text-anchor="middle" x="452.5" y="-281.41" font-family="Helvetica,sans-Serif" font-size="14.00">✓ Modify</text>
<text text-anchor="middle" x="452.5" y="-266.41" font-family="Helvetica,sans-Serif" font-size="14.00">sweepai/api.py</text>
</g>
<!-- start&#45;&gt;19b0773e&#45;a0dd&#45;4d4a&#45;bc99&#45;f7b0be110d4b -->
<g id="edge7" class="edge">
<title>start&#45;&gt;19b0773e&#45;a0dd&#45;4d4a&#45;bc99&#45;f7b0be110d4b</title>
<path fill="none" stroke="black" d="M315.89,-277.61C318.65,-277.61 335.54,-277.61 356.56,-277.61"/>
<polygon fill="black" stroke="black" points="356.53,-281.11 366.53,-277.61 356.53,-274.11 356.53,-281.11"/>
<text text-anchor="middle" x="341.82" y="-284.41" font-family="Helvetica,sans-Serif" font-size="14.00">Start</text>
</g>
<!-- end -->
<g id="node2" class="node">
<title>end</title>
</g>
<!-- ae80fa7f&#45;2018&#45;41e0&#45;8fde&#45;116e5a869112 -->
<g id="node4" class="node">
<title>ae80fa7f&#45;2018&#45;41e0&#45;8fde&#45;116e5a869112</title>
<ellipse fill="#0ee832" stroke="black" cx="722.5" cy="-277.61" rx="108.38" ry="26.74"/>
<text text-anchor="middle" x="722.5" y="-281.41" font-family="Helvetica,sans-Serif" font-size="14.00">✓ Create</text>
<text text-anchor="middle" x="722.5" y="-266.41" font-family="Helvetica,sans-Serif" font-size="14.00">sweepai/api_test.py</text>
</g>
<!-- 19b0773e&#45;a0dd&#45;4d4a&#45;bc99&#45;f7b0be110d4b&#45;&gt;ae80fa7f&#45;2018&#45;41e0&#45;8fde&#45;116e5a869112 -->
<g id="edge5" class="edge">
<title>19b0773e&#45;a0dd&#45;4d4a&#45;bc99&#45;f7b0be110d4b&#45;&gt;ae80fa7f&#45;2018&#45;41e0&#45;8fde&#45;116e5a869112</title>
<path fill="none" stroke="black" d="M537.67,-277.61C559.49,-277.61 581.31,-277.61 603.13,-277.61"/>
<polygon fill="black" stroke="black" points="602.84,-281.11 612.84,-277.61 602.84,-274.11 602.84,-281.11"/>
</g>
<!-- 0e279427&#45;2e3d&#45;4a30&#45;873e&#45;9fdd01c2411d -->
<g id="node5" class="node">
<title>0e279427&#45;2e3d&#45;4a30&#45;873e&#45;9fdd01c2411d</title>
<polygon fill="#ee0000" stroke="black" points="297.5,-213.74 23.5,-213.74 23.5,-177.74 297.5,-177.74 297.5,-213.74"/>
<text text-anchor="middle" x="160.5" y="-192.04" font-family="Helvetica,sans-Serif" font-size="14.00">✗ Ran sandbox for `sweepai/api.py`.</text>
</g>
<!-- 19b0773e&#45;a0dd&#45;4d4a&#45;bc99&#45;f7b0be110d4b&#45;&gt;0e279427&#45;2e3d&#45;4a30&#45;873e&#45;9fdd01c2411d -->
<g id="edge1" class="edge">
<title>19b0773e&#45;a0dd&#45;4d4a&#45;bc99&#45;f7b0be110d4b&#45;&gt;0e279427&#45;2e3d&#45;4a30&#45;873e&#45;9fdd01c2411d</title>
<path fill="none" stroke="black" stroke-dasharray="5,2" d="M389.5,-259.38C344.14,-246.97 282.78,-230.19 234.99,-217.12"/>
<polygon fill="black" stroke="black" points="235.96,-213.48 225.4,-214.22 234.12,-220.23 235.96,-213.48"/>
</g>
<!-- c9ceb009&#45;66a6&#45;47fd&#45;848a&#45;1bed97e105b8 -->
<g id="node6" class="node">
<title>c9ceb009&#45;66a6&#45;47fd&#45;848a&#45;1bed97e105b8</title>
<polygon fill="#ee0000" stroke="black" points="589.5,-213.74 315.5,-213.74 315.5,-177.74 589.5,-177.74 589.5,-213.74"/>
<text text-anchor="middle" x="452.5" y="-192.04" font-family="Helvetica,sans-Serif" font-size="14.00">✗ Ran sandbox for `sweepai/api.py`.</text>
</g>
<!-- 19b0773e&#45;a0dd&#45;4d4a&#45;bc99&#45;f7b0be110d4b&#45;&gt;c9ceb009&#45;66a6&#45;47fd&#45;848a&#45;1bed97e105b8 -->
<g id="edge4" class="edge">
<title>19b0773e&#45;a0dd&#45;4d4a&#45;bc99&#45;f7b0be110d4b&#45;&gt;c9ceb009&#45;66a6&#45;47fd&#45;848a&#45;1bed97e105b8</title>
<path fill="none" stroke="black" stroke-dasharray="5,2" d="M452.5,-250.46C452.5,-242.2 452.5,-233.05 452.5,-224.67"/>
<polygon fill="black" stroke="black" points="456,-224.89 452.5,-214.89 449,-224.89 456,-224.89"/>
</g>
<!-- ae80fa7f&#45;2018&#45;41e0&#45;8fde&#45;116e5a869112&#45;&gt;end -->
<g id="edge8" class="edge">
<title>ae80fa7f&#45;2018&#45;41e0&#45;8fde&#45;116e5a869112&#45;&gt;end</title>
<path fill="none" stroke="black" d="M831.37,-277.61C850.16,-277.61 866.99,-277.61 877.43,-277.61"/>
<polygon fill="black" stroke="black" points="877.2,-281.11 887.2,-277.61 877.2,-274.11 877.2,-281.11"/>
<text text-anchor="middle" x="859.34" y="-284.41" font-family="Helvetica,sans-Serif" font-size="14.00">Finish</text>
</g>
<!-- 1543f3f9&#45;fa81&#45;4749&#45;a76b&#45;154280b873f4 -->
<g id="node7" class="node">
<title>1543f3f9&#45;fa81&#45;4749&#45;a76b&#45;154280b873f4</title>
<polygon fill="yellow" stroke="black" points="917,-213.74 608,-213.74 608,-177.74 917,-177.74 917,-213.74"/>
<text text-anchor="middle" x="762.5" y="-192.04" font-family="Helvetica,sans-Serif" font-size="14.00">⋯ Ran sandbox for `sweepai/api_test.py`.</text>
</g>
<!-- ae80fa7f&#45;2018&#45;41e0&#45;8fde&#45;116e5a869112&#45;&gt;1543f3f9&#45;fa81&#45;4749&#45;a76b&#45;154280b873f4 -->
<g id="edge6" class="edge">
<title>ae80fa7f&#45;2018&#45;41e0&#45;8fde&#45;116e5a869112&#45;&gt;1543f3f9&#45;fa81&#45;4749&#45;a76b&#45;154280b873f4</title>
<path fill="none" stroke="black" stroke-dasharray="5,2" d="M735.38,-250.9C739.71,-242.25 744.56,-232.57 748.94,-223.81"/>
<polygon fill="black" stroke="black" points="752.47,-225.59 753.82,-215.08 746.21,-222.45 752.47,-225.59"/>
</g>
<!-- 9697e3bc&#45;d51f&#45;4db2&#45;bfde&#45;93181385cff1 -->
<g id="node8" class="node">
<title>9697e3bc&#45;d51f&#45;4db2&#45;bfde&#45;93181385cff1</title>
<ellipse fill="#0ee832" stroke="black" cx="160.5" cy="-99.87" rx="118.17" ry="26.74"/>
<text text-anchor="middle" x="160.5" y="-103.67" font-family="Helvetica,sans-Serif" font-size="14.00">✓ Create</text>
<text text-anchor="middle" x="160.5" y="-88.67" font-family="Helvetica,sans-Serif" font-size="14.00">repo/sdk/src/agent.py</text>
</g>
<!-- 0e279427&#45;2e3d&#45;4a30&#45;873e&#45;9fdd01c2411d&#45;&gt;9697e3bc&#45;d51f&#45;4db2&#45;bfde&#45;93181385cff1 -->
<g id="edge2" class="edge">
<title>0e279427&#45;2e3d&#45;4a30&#45;873e&#45;9fdd01c2411d&#45;&gt;9697e3bc&#45;d51f&#45;4db2&#45;bfde&#45;93181385cff1</title>
<path fill="none" stroke="black" d="M160.5,-177.52C160.5,-166.33 160.5,-151.31 160.5,-137.53"/>
<polygon fill="black" stroke="black" points="164,-137.84 160.5,-127.84 157,-137.84 164,-137.84"/>
<text text-anchor="middle" x="258" y="-148.54" font-family="Helvetica,sans-Serif" font-size="14.00">Additional changes required</text>
</g>
<!-- c1683dcb&#45;7a18&#45;4d71&#45;b263&#45;4899a207afda -->
<g id="node9" class="node">
<title>c1683dcb&#45;7a18&#45;4d71&#45;b263&#45;4899a207afda</title>
<polygon fill="#ee0000" stroke="black" points="321,-36 0,-36 0,0 321,0 321,-36"/>
<text text-anchor="middle" x="160.5" y="-14.3" font-family="Helvetica,sans-Serif" font-size="14.00">✗ Ran sandbox for `repo/sdk/src/agent.py`.</text>
</g>
<!-- 9697e3bc&#45;d51f&#45;4db2&#45;bfde&#45;93181385cff1&#45;&gt;c1683dcb&#45;7a18&#45;4d71&#45;b263&#45;4899a207afda -->
<g id="edge3" class="edge">
<title>9697e3bc&#45;d51f&#45;4db2&#45;bfde&#45;93181385cff1&#45;&gt;c1683dcb&#45;7a18&#45;4d71&#45;b263&#45;4899a207afda</title>
<path fill="none" stroke="black" stroke-dasharray="5,2" d="M160.5,-72.72C160.5,-64.46 160.5,-55.31 160.5,-46.93"/>
<polygon fill="black" stroke="black" points="164,-47.15 160.5,-37.15 157,-47.15 164,-47.15"/>
</g>
</g>
</svg>
