<?xml version="1.0" encoding="UTF-8" standalone="no"?>
<!DOCTYPE svg PUBLIC "-//W3C//DTD SVG 1.1//EN"
 "http://www.w3.org/Graphics/SVG/1.1/DTD/svg11.dtd">
<!-- Generated by graphviz version 8.0.3 (0)
 -->
<!-- Pages: 1 -->
<svg width="1390pt" height="771pt"
 viewBox="0.00 0.00 1389.50 770.96" xmlns="http://www.w3.org/2000/svg" xmlns:xlink="http://www.w3.org/1999/xlink">
<g id="graph0" class="graph" transform="scale(1 1) rotate(0) translate(36 734.96)">
<polygon fill="dimgray" stroke="none" points="-36,36 -36,-734.96 1353.5,-734.96 1353.5,36 -36,36"/>
<text text-anchor="middle" x="658.75" y="-683.76" font-family="Helvetica,sans-Serif" font-size="14.00">Sweep&#39;s Plan &amp; Progress</text>
<!-- start -->
<g id="node1" class="node">
<title>start</title>
</g>
<!-- 5b11ec1c&#45;beb0&#45;4f74&#45;bf10&#45;86a5c4bdabe2 -->
<g id="node3" class="node">
<title>5b11ec1c&#45;beb0&#45;4f74&#45;bf10&#45;86a5c4bdabe2</title>
<ellipse fill="#0ee832" stroke="black" cx="947.5" cy="-633.09" rx="159.61" ry="26.74"/>
<text text-anchor="middle" x="947.5" y="-636.89" font-family="Helvetica,sans-Serif" font-size="14.00">✓ Modify</text>
<text text-anchor="middle" x="947.5" y="-621.89" font-family="Helvetica,sans-Serif" font-size="14.00">sweepai/handlers/on_ticket.py</text>
</g>
<!-- start&#45;&gt;5b11ec1c&#45;beb0&#45;4f74&#45;bf10&#45;86a5c4bdabe2 -->
<g id="edge13" class="edge">
<title>start&#45;&gt;5b11ec1c&#45;beb0&#45;4f74&#45;bf10&#45;86a5c4bdabe2</title>
<path fill="none" stroke="black" d="M735.65,-633.09C737.39,-633.09 753.75,-633.09 776.67,-633.09"/>
<polygon fill="black" stroke="black" points="776.63,-636.59 786.63,-633.09 776.63,-629.59 776.63,-636.59"/>
<text text-anchor="middle" x="761.85" y="-639.89" font-family="Helvetica,sans-Serif" font-size="14.00">Start</text>
</g>
<!-- end -->
<g id="node2" class="node">
<title>end</title>
</g>
<!-- 5b11ec1c&#45;beb0&#45;4f74&#45;bf10&#45;86a5c4bdabe2&#45;&gt;end -->
<g id="edge14" class="edge">
<title>5b11ec1c&#45;beb0&#45;4f74&#45;bf10&#45;86a5c4bdabe2&#45;&gt;end</title>
<path fill="none" stroke="black" d="M1107.37,-633.09C1127,-633.09 1143.8,-633.09 1154.22,-633.09"/>
<polygon fill="black" stroke="black" points="1154.21,-636.59 1164.21,-633.09 1154.21,-629.59 1154.21,-636.59"/>
<text text-anchor="middle" x="1136.15" y="-639.89" font-family="Helvetica,sans-Serif" font-size="14.00">Finish</text>
</g>
<!-- 8e0fde05&#45;2279&#45;4579&#45;8605&#45;b83cee5a5a07 -->
<g id="node4" class="node">
<title>8e0fde05&#45;2279&#45;4579&#45;8605&#45;b83cee5a5a07</title>
<polygon fill="#ee0000" stroke="black" points="846.5,-569.22 466.5,-569.22 466.5,-533.22 846.5,-533.22 846.5,-569.22"/>
<text text-anchor="middle" x="656.5" y="-547.52" font-family="Helvetica,sans-Serif" font-size="14.00">✗ Ran sandbox for `sweepai/handlers/on_ticket.py`.</text>
</g>
<!-- 5b11ec1c&#45;beb0&#45;4f74&#45;bf10&#45;86a5c4bdabe2&#45;&gt;8e0fde05&#45;2279&#45;4579&#45;8605&#45;b83cee5a5a07 -->
<g id="edge1" class="edge">
<title>5b11ec1c&#45;beb0&#45;4f74&#45;bf10&#45;86a5c4bdabe2&#45;&gt;8e0fde05&#45;2279&#45;4579&#45;8605&#45;b83cee5a5a07</title>
<path fill="none" stroke="black" stroke-dasharray="5,2" d="M866.05,-609.74C823.52,-598.06 771.86,-583.88 730.47,-572.52"/>
<polygon fill="black" stroke="black" points="731.48,-568.9 720.91,-569.62 729.63,-575.65 731.48,-568.9"/>
</g>
<!-- 25edd5de&#45;5d5c&#45;4d35&#45;b4d1&#45;8d3fd6e7a554 -->
<g id="node5" class="node">
<title>25edd5de&#45;5d5c&#45;4d35&#45;b4d1&#45;8d3fd6e7a554</title>
<polygon fill="white" stroke="black" points="1242.5,-569.22 864.5,-569.22 864.5,-533.22 1242.5,-533.22 1242.5,-569.22"/>
<text text-anchor="middle" x="1053.5" y="-547.52" font-family="Helvetica,sans-Serif" font-size="14.00">▶ Ran sandbox for `sweepai/handlers/on_ticket.py`.</text>
</g>
<!-- 5b11ec1c&#45;beb0&#45;4f74&#45;bf10&#45;86a5c4bdabe2&#45;&gt;25edd5de&#45;5d5c&#45;4d35&#45;b4d1&#45;8d3fd6e7a554 -->
<g id="edge12" class="edge">
<title>5b11ec1c&#45;beb0&#45;4f74&#45;bf10&#45;86a5c4bdabe2&#45;&gt;25edd5de&#45;5d5c&#45;4d35&#45;b4d1&#45;8d3fd6e7a554</title>
<path fill="none" stroke="black" stroke-dasharray="5,2" d="M981.33,-606.6C994.33,-596.81 1009.1,-585.67 1021.88,-576.04"/>
<polygon fill="black" stroke="black" points="1023.48,-578.47 1029.36,-569.65 1019.27,-572.88 1023.48,-578.47"/>
</g>
<!-- 34b40d68&#45;6374&#45;45ef&#45;a882&#45;8e845470bb06 -->
<g id="node6" class="node">
<title>34b40d68&#45;6374&#45;45ef&#45;a882&#45;8e845470bb06</title>
<ellipse fill="#0ee832" stroke="black" cx="656.5" cy="-455.35" rx="195.32" ry="26.74"/>
<text text-anchor="middle" x="656.5" y="-459.15" font-family="Helvetica,sans-Serif" font-size="14.00">✓ Modify</text>
<text text-anchor="middle" x="656.5" y="-444.15" font-family="Helvetica,sans-Serif" font-size="14.00">sweepai/agents/assistant_wrapper.py</text>
</g>
<!-- 8e0fde05&#45;2279&#45;4579&#45;8605&#45;b83cee5a5a07&#45;&gt;34b40d68&#45;6374&#45;45ef&#45;a882&#45;8e845470bb06 -->
<g id="edge2" class="edge">
<title>8e0fde05&#45;2279&#45;4579&#45;8605&#45;b83cee5a5a07&#45;&gt;34b40d68&#45;6374&#45;45ef&#45;a882&#45;8e845470bb06</title>
<path fill="none" stroke="black" d="M656.5,-533C656.5,-521.81 656.5,-506.79 656.5,-493.01"/>
<polygon fill="black" stroke="black" points="660,-493.32 656.5,-483.32 653,-493.32 660,-493.32"/>
<text text-anchor="middle" x="754" y="-504.02" font-family="Helvetica,sans-Serif" font-size="14.00">Additional changes required</text>
</g>
<!-- 5dcbde24&#45;bace&#45;4a21&#45;8d93&#45;13ad8106ad7a -->
<g id="node7" class="node">
<title>5dcbde24&#45;bace&#45;4a21&#45;8d93&#45;13ad8106ad7a</title>
<polygon fill="#ee0000" stroke="black" points="647.5,-391.48 217.5,-391.48 217.5,-355.48 647.5,-355.48 647.5,-391.48"/>
<text text-anchor="middle" x="432.5" y="-369.78" font-family="Helvetica,sans-Serif" font-size="14.00">✗ Ran sandbox for `sweepai/agents/assistant_wrapper.py`.</text>
</g>
<!-- 34b40d68&#45;6374&#45;45ef&#45;a882&#45;8e845470bb06&#45;&gt;5dcbde24&#45;bace&#45;4a21&#45;8d93&#45;13ad8106ad7a -->
<g id="edge3" class="edge">
<title>34b40d68&#45;6374&#45;45ef&#45;a882&#45;8e845470bb06&#45;&gt;5dcbde24&#45;bace&#45;4a21&#45;8d93&#45;13ad8106ad7a</title>
<path fill="none" stroke="black" stroke-dasharray="5,2" d="M588.08,-429.95C557.23,-418.95 521.16,-406.09 491.53,-395.53"/>
<polygon fill="black" stroke="black" points="492.92,-391.95 482.33,-391.89 490.57,-398.55 492.92,-391.95"/>
</g>
<!-- 8eed3e26&#45;a5cb&#45;4ad4&#45;baf8&#45;5710ace55950 -->
<g id="node8" class="node">
<title>8eed3e26&#45;a5cb&#45;4ad4&#45;baf8&#45;5710ace55950</title>
<polygon fill="yellow" stroke="black" points="1097.5,-391.48 665.5,-391.48 665.5,-355.48 1097.5,-355.48 1097.5,-391.48"/>
<text text-anchor="middle" x="881.5" y="-369.78" font-family="Helvetica,sans-Serif" font-size="14.00">⋯ Ran sandbox for `sweepai/agents/assistant_wrapper.py`.</text>
</g>
<!-- 34b40d68&#45;6374&#45;45ef&#45;a882&#45;8e845470bb06&#45;&gt;8eed3e26&#45;a5cb&#45;4ad4&#45;baf8&#45;5710ace55950 -->
<g id="edge11" class="edge">
<title>34b40d68&#45;6374&#45;45ef&#45;a882&#45;8e845470bb06&#45;&gt;8eed3e26&#45;a5cb&#45;4ad4&#45;baf8&#45;5710ace55950</title>
<path fill="none" stroke="black" stroke-dasharray="5,2" d="M725.23,-429.95C756.21,-418.95 792.44,-406.09 822.21,-395.53"/>
<polygon fill="black" stroke="black" points="823.2,-398.53 831.45,-391.89 820.86,-391.94 823.2,-398.53"/>
</g>
<!-- 4ecc6ec1&#45;f778&#45;40b0&#45;b49e&#45;bbd9f2c5d148 -->
<g id="node9" class="node">
<title>4ecc6ec1&#45;f778&#45;40b0&#45;b49e&#45;bbd9f2c5d148</title>
<ellipse fill="#0ee832" stroke="black" cx="231.5" cy="-277.61" rx="188.6" ry="26.74"/>
<text text-anchor="middle" x="231.5" y="-281.41" font-family="Helvetica,sans-Serif" font-size="14.00">✓ Create</text>
<text text-anchor="middle" x="231.5" y="-266.41" font-family="Helvetica,sans-Serif" font-size="14.00">sweepai/services/escrow_handler.py</text>
</g>
<!-- 5dcbde24&#45;bace&#45;4a21&#45;8d93&#45;13ad8106ad7a&#45;&gt;4ecc6ec1&#45;f778&#45;40b0&#45;b49e&#45;bbd9f2c5d148 -->
<g id="edge4" class="edge">
<title>5dcbde24&#45;bace&#45;4a21&#45;8d93&#45;13ad8106ad7a&#45;&gt;4ecc6ec1&#45;f778&#45;40b0&#45;b49e&#45;bbd9f2c5d148</title>
<path fill="none" stroke="black" d="M395.16,-355.04C366.96,-341.87 327.58,-323.48 294.52,-308.04"/>
<polygon fill="black" stroke="black" points="296.47,-304.62 285.93,-303.56 293.51,-310.97 296.47,-304.62"/>
<text text-anchor="middle" x="454" y="-326.28" font-family="Helvetica,sans-Serif" font-size="14.00">Additional changes required</text>
</g>
<!-- d624597b&#45;ee7e&#45;401b&#45;b562&#45;b5c243e02104 -->
<g id="node10" class="node">
<title>d624597b&#45;ee7e&#45;401b&#45;b562&#45;b5c243e02104</title>
<ellipse fill="#0ee832" stroke="black" cx="654.5" cy="-277.61" rx="195.32" ry="26.74"/>
<text text-anchor="middle" x="654.5" y="-281.41" font-family="Helvetica,sans-Serif" font-size="14.00">✓ Modify</text>
<text text-anchor="middle" x="654.5" y="-266.41" font-family="Helvetica,sans-Serif" font-size="14.00">sweepai/agents/assistant_wrapper.py</text>
</g>
<!-- 5dcbde24&#45;bace&#45;4a21&#45;8d93&#45;13ad8106ad7a&#45;&gt;d624597b&#45;ee7e&#45;401b&#45;b562&#45;b5c243e02104 -->
<g id="edge6" class="edge">
<title>5dcbde24&#45;bace&#45;4a21&#45;8d93&#45;13ad8106ad7a&#45;&gt;d624597b&#45;ee7e&#45;401b&#45;b562&#45;b5c243e02104</title>
<path fill="none" stroke="black" d="M505.78,-355C522.42,-350.11 539.8,-344.25 555.5,-337.48 573.15,-329.87 591.51,-319.68 607.55,-309.91"/>
<polygon fill="black" stroke="black" points="609.05,-312.48 615.7,-304.23 605.36,-306.53 609.05,-312.48"/>
<text text-anchor="middle" x="682" y="-326.28" font-family="Helvetica,sans-Serif" font-size="14.00">Additional changes required</text>
</g>
<!-- 41f88d97&#45;4ede&#45;4666&#45;8ac5&#45;a20aaf67387b -->
<g id="node11" class="node">
<title>41f88d97&#45;4ede&#45;4666&#45;8ac5&#45;a20aaf67387b</title>
<polygon fill="#0ee832" stroke="black" points="421,-213.74 0,-213.74 0,-177.74 421,-177.74 421,-213.74"/>
<text text-anchor="middle" x="210.5" y="-192.04" font-family="Helvetica,sans-Serif" font-size="14.00">✓ Ran sandbox for `sweepai/services/escrow_handler.py`.</text>
</g>
<!-- 4ecc6ec1&#45;f778&#45;40b0&#45;b49e&#45;bbd9f2c5d148&#45;&gt;41f88d97&#45;4ede&#45;4666&#45;8ac5&#45;a20aaf67387b -->
<g id="edge5" class="edge">
<title>4ecc6ec1&#45;f778&#45;40b0&#45;b49e&#45;bbd9f2c5d148&#45;&gt;41f88d97&#45;4ede&#45;4666&#45;8ac5&#45;a20aaf67387b</title>
<path fill="none" stroke="black" stroke-dasharray="5,2" d="M224.62,-250.46C222.43,-242.11 219.99,-232.84 217.77,-224.39"/>
<polygon fill="black" stroke="black" points="220.94,-223.67 215.01,-214.89 214.17,-225.45 220.94,-223.67"/>
</g>
<!-- 80380f8e&#45;b834&#45;47cd&#45;9d9f&#45;4d697c2a135d -->
<g id="node12" class="node">
<title>80380f8e&#45;b834&#45;47cd&#45;9d9f&#45;4d697c2a135d</title>
<polygon fill="#ee0000" stroke="black" points="869.5,-213.74 439.5,-213.74 439.5,-177.74 869.5,-177.74 869.5,-213.74"/>
<text text-anchor="middle" x="654.5" y="-192.04" font-family="Helvetica,sans-Serif" font-size="14.00">✗ Ran sandbox for `sweepai/agents/assistant_wrapper.py`.</text>
</g>
<!-- d624597b&#45;ee7e&#45;401b&#45;b562&#45;b5c243e02104&#45;&gt;80380f8e&#45;b834&#45;47cd&#45;9d9f&#45;4d697c2a135d -->
<g id="edge7" class="edge">
<title>d624597b&#45;ee7e&#45;401b&#45;b562&#45;b5c243e02104&#45;&gt;80380f8e&#45;b834&#45;47cd&#45;9d9f&#45;4d697c2a135d</title>
<path fill="none" stroke="black" stroke-dasharray="5,2" d="M654.5,-250.46C654.5,-242.2 654.5,-233.05 654.5,-224.67"/>
<polygon fill="black" stroke="black" points="658,-224.89 654.5,-214.89 651,-224.89 658,-224.89"/>
</g>
<!-- 00a0e6a8&#45;0bd7&#45;4aa3&#45;b706&#45;d82b1d710f22 -->
<g id="node13" class="node">
<title>00a0e6a8&#45;0bd7&#45;4aa3&#45;b706&#45;d82b1d710f22</title>
<polygon fill="#0ee832" stroke="black" points="1317.5,-213.74 887.5,-213.74 887.5,-177.74 1317.5,-177.74 1317.5,-213.74"/>
<text text-anchor="middle" x="1102.5" y="-192.04" font-family="Helvetica,sans-Serif" font-size="14.00">✓ Ran sandbox for `sweepai/agents/assistant_wrapper.py`.</text>
</g>
<!-- d624597b&#45;ee7e&#45;401b&#45;b562&#45;b5c243e02104&#45;&gt;00a0e6a8&#45;0bd7&#45;4aa3&#45;b706&#45;d82b1d710f22 -->
<g id="edge10" class="edge">
<title>d624597b&#45;ee7e&#45;401b&#45;b562&#45;b5c243e02104&#45;&gt;00a0e6a8&#45;0bd7&#45;4aa3&#45;b706&#45;d82b1d710f22</title>
<path fill="none" stroke="black" stroke-dasharray="5,2" d="M771.33,-255.78C840.11,-243.52 926.53,-228.11 993.84,-216.11"/>
<polygon fill="black" stroke="black" points="994.25,-219.42 1003.48,-214.22 993.02,-212.53 994.25,-219.42"/>
</g>
<!-- a9643936&#45;b73e&#45;4fa8&#45;98d8&#45;225f01710991 -->
<g id="node14" class="node">
<title>a9643936&#45;b73e&#45;4fa8&#45;98d8&#45;225f01710991</title>
<ellipse fill="#0ee832" stroke="black" cx="654.5" cy="-99.87" rx="195.32" ry="26.74"/>
<text text-anchor="middle" x="654.5" y="-103.67" font-family="Helvetica,sans-Serif" font-size="14.00">✓ Modify</text>
<text text-anchor="middle" x="654.5" y="-88.67" font-family="Helvetica,sans-Serif" font-size="14.00">sweepai/agents/assistant_wrapper.py</text>
</g>
<!-- 80380f8e&#45;b834&#45;47cd&#45;9d9f&#45;4d697c2a135d&#45;&gt;a9643936&#45;b73e&#45;4fa8&#45;98d8&#45;225f01710991 -->
<g id="edge8" class="edge">
<title>80380f8e&#45;b834&#45;47cd&#45;9d9f&#45;4d697c2a135d&#45;&gt;a9643936&#45;b73e&#45;4fa8&#45;98d8&#45;225f01710991</title>
<path fill="none" stroke="black" d="M654.5,-177.52C654.5,-166.33 654.5,-151.31 654.5,-137.53"/>
<polygon fill="black" stroke="black" points="658,-137.84 654.5,-127.84 651,-137.84 658,-137.84"/>
<text text-anchor="middle" x="752" y="-148.54" font-family="Helvetica,sans-Serif" font-size="14.00">Additional changes required</text>
</g>
<!-- f11262fb&#45;3c25&#45;4722&#45;b371&#45;1968737f4f40 -->
<g id="node15" class="node">
<title>f11262fb&#45;3c25&#45;4722&#45;b371&#45;1968737f4f40</title>
<polygon fill="#0ee832" stroke="black" points="869.5,-36 439.5,-36 439.5,0 869.5,0 869.5,-36"/>
<text text-anchor="middle" x="654.5" y="-14.3" font-family="Helvetica,sans-Serif" font-size="14.00">✓ Ran sandbox for `sweepai/agents/assistant_wrapper.py`.</text>
</g>
<!-- a9643936&#45;b73e&#45;4fa8&#45;98d8&#45;225f01710991&#45;&gt;f11262fb&#45;3c25&#45;4722&#45;b371&#45;1968737f4f40 -->
<g id="edge9" class="edge">
<title>a9643936&#45;b73e&#45;4fa8&#45;98d8&#45;225f01710991&#45;&gt;f11262fb&#45;3c25&#45;4722&#45;b371&#45;1968737f4f40</title>
<path fill="none" stroke="black" stroke-dasharray="5,2" d="M654.5,-72.72C654.5,-64.46 654.5,-55.31 654.5,-46.93"/>
<polygon fill="black" stroke="black" points="658,-47.15 654.5,-37.15 651,-47.15 658,-47.15"/>
</g>
</g>
</svg>
