<?xml version="1.0" encoding="UTF-8" standalone="no"?>
<!DOCTYPE svg PUBLIC "-//W3C//DTD SVG 1.1//EN"
 "http://www.w3.org/Graphics/SVG/1.1/DTD/svg11.dtd">
<!-- Generated by graphviz version 2.43.0 (0)
 -->
<!-- Title: %3 Pages: 1 -->
<svg width="1429pt" height="165pt"
 viewBox="0.00 0.00 1429.00 164.74" xmlns="http://www.w3.org/2000/svg" xmlns:xlink="http://www.w3.org/1999/xlink">
<g id="graph0" class="graph" transform="scale(1 1) rotate(0) translate(36 128.74)">
<title>%3</title>
<polygon fill="dimgray" stroke="transparent" points="-36,36 -36,-128.74 1393,-128.74 1393,36 -36,36"/>
<text text-anchor="middle" x="678.5" y="-77.54" font-family="Helvetica,sans-Serif" font-size="14.00">Sweep&#39;s Plan &amp; Progress</text>
<!-- start -->
<g id="node1" class="node">
<title>start</title>
</g>
<!-- 79eece92&#45;009c&#45;40f7&#45;8ab0&#45;82963d79bcfe -->
<g id="node3" class="node">
<title>79eece92&#45;009c&#45;40f7&#45;8ab0&#45;82963d79bcfe</title>
<ellipse fill="yellow" stroke="black" cx="248.5" cy="-26.87" rx="195.74" ry="26.74"/>
<text text-anchor="middle" x="248.5" y="-30.67" font-family="Helvetica,sans-Serif" font-size="14.00">⋯ Create</text>
<text text-anchor="middle" x="248.5" y="-15.67" font-family="Helvetica,sans-Serif" font-size="14.00">sweepai/agents/query_filter_agent.py</text>
</g>
<!-- start&#45;&gt;79eece92&#45;009c&#45;40f7&#45;8ab0&#45;82963d79bcfe -->
<g id="edge3" class="edge">
<title>start&#45;&gt;79eece92&#45;009c&#45;40f7&#45;8ab0&#45;82963d79bcfe</title>
<path fill="none" stroke="black" d="M1.21,-26.87C4.66,-26.87 20.41,-26.87 42.41,-26.87"/>
<polygon fill="black" stroke="black" points="42.57,-30.37 52.57,-26.87 42.57,-23.37 42.57,-30.37"/>
<text text-anchor="middle" x="26.82" y="-33.67" font-family="Helvetica,sans-Serif" font-size="14.00">Start</text>
</g>
<!-- end -->
<g id="node2" class="node">
<title>end</title>
</g>
<!-- d75cfb78&#45;618d&#45;495b&#45;a5b8&#45;6f78cd8d0f4b -->
<g id="node4" class="node">
<title>d75cfb78&#45;618d&#45;495b&#45;a5b8&#45;6f78cd8d0f4b</title>
<ellipse fill="white" stroke="black" cx="625.5" cy="-26.87" rx="145.83" ry="26.74"/>
<text text-anchor="middle" x="625.5" y="-30.67" font-family="Helvetica,sans-Serif" font-size="14.00">▶ Modify</text>
<text text-anchor="middle" x="625.5" y="-15.67" font-family="Helvetica,sans-Serif" font-size="14.00">sweepai/utils/ticket_utils.py</text>
</g>
<!-- 79eece92&#45;009c&#45;40f7&#45;8ab0&#45;82963d79bcfe&#45;&gt;d75cfb78&#45;618d&#45;495b&#45;a5b8&#45;6f78cd8d0f4b -->
<g id="edge1" class="edge">
<title>79eece92&#45;009c&#45;40f7&#45;8ab0&#45;82963d79bcfe&#45;&gt;d75cfb78&#45;618d&#45;495b&#45;a5b8&#45;6f78cd8d0f4b</title>
<path fill="none" stroke="black" d="M444.73,-26.87C453.01,-26.87 461.3,-26.87 469.58,-26.87"/>
<polygon fill="black" stroke="black" points="469.68,-30.37 479.68,-26.87 469.68,-23.37 469.68,-30.37"/>
</g>
<!-- 7c6e0b8b&#45;e912&#45;49a1&#45;97c8&#45;8ca7423b4740 -->
<g id="node5" class="node">
<title>7c6e0b8b&#45;e912&#45;49a1&#45;97c8&#45;8ca7423b4740</title>
<ellipse fill="white" stroke="black" cx="1052.5" cy="-26.87" rx="246.15" ry="26.74"/>
<text text-anchor="middle" x="1052.5" y="-30.67" font-family="Helvetica,sans-Serif" font-size="14.00">▶ Create</text>
<text text-anchor="middle" x="1052.5" y="-15.67" font-family="Helvetica,sans-Serif" font-size="14.00">sweepai/agents/tests/test_query_filter_agent.py</text>
</g>
<!-- d75cfb78&#45;618d&#45;495b&#45;a5b8&#45;6f78cd8d0f4b&#45;&gt;7c6e0b8b&#45;e912&#45;49a1&#45;97c8&#45;8ca7423b4740 -->
<g id="edge2" class="edge">
<title>d75cfb78&#45;618d&#45;495b&#45;a5b8&#45;6f78cd8d0f4b&#45;&gt;7c6e0b8b&#45;e912&#45;49a1&#45;97c8&#45;8ca7423b4740</title>
<path fill="none" stroke="black" d="M771.45,-26.87C779.71,-26.87 787.97,-26.87 796.23,-26.87"/>
<polygon fill="black" stroke="black" points="796.3,-30.37 806.3,-26.87 796.3,-23.37 796.3,-30.37"/>
</g>
<!-- 7c6e0b8b&#45;e912&#45;49a1&#45;97c8&#45;8ca7423b4740&#45;&gt;end -->
<g id="edge4" class="edge">
<title>7c6e0b8b&#45;e912&#45;49a1&#45;97c8&#45;8ca7423b4740&#45;&gt;end</title>
<path fill="none" stroke="black" d="M1298.6,-26.87C1318.93,-26.87 1335.56,-26.87 1345.7,-26.87"/>
<polygon fill="black" stroke="black" points="1345.89,-30.37 1355.89,-26.87 1345.89,-23.37 1345.89,-30.37"/>
<text text-anchor="middle" x="1327.29" y="-33.67" font-family="Helvetica,sans-Serif" font-size="14.00">Finish</text>
</g>
</g>
</svg>
