<?xml version="1.0" encoding="UTF-8" standalone="no"?>
<!DOCTYPE svg PUBLIC "-//W3C//DTD SVG 1.1//EN"
 "http://www.w3.org/Graphics/SVG/1.1/DTD/svg11.dtd">
<!-- Generated by graphviz version 8.0.3 (0)
 -->
<!-- Pages: 1 -->
<svg width="782pt" height="593pt"
 viewBox="0.00 0.00 782.00 593.22" xmlns="http://www.w3.org/2000/svg" xmlns:xlink="http://www.w3.org/1999/xlink">
<g id="graph0" class="graph" transform="scale(1 1) rotate(0) translate(36 557.22)">
<polygon fill="dimgray" stroke="none" points="-36,36 -36,-557.22 746,-557.22 746,36 -36,36"/>
<text text-anchor="middle" x="355" y="-506.02" font-family="Helvetica,sans-Serif" font-size="14.00">Sweep&#39;s Plan &amp; Progress</text>
<!-- start -->
<g id="node1" class="node">
<title>start</title>
</g>
<!-- b1ec115e&#45;af38&#45;4c50&#45;a719&#45;045a1dfd1ee6 -->
<g id="node3" class="node">
<title>b1ec115e&#45;af38&#45;4c50&#45;a719&#45;045a1dfd1ee6</title>
<ellipse fill="#0ee832" stroke="black" cx="495" cy="-455.35" rx="84.71" ry="26.74"/>
<text text-anchor="middle" x="495" y="-459.15" font-family="Helvetica,sans-Serif" font-size="14.00">✓ Modify</text>
<text text-anchor="middle" x="495" y="-444.15" font-family="Helvetica,sans-Serif" font-size="14.00">sweepai/api.py</text>
</g>
<!-- start&#45;&gt;b1ec115e&#45;af38&#45;4c50&#45;a719&#45;045a1dfd1ee6 -->
<g id="edge8" class="edge">
<title>start&#45;&gt;b1ec115e&#45;af38&#45;4c50&#45;a719&#45;045a1dfd1ee6</title>
<path fill="none" stroke="black" d="M358.39,-455.35C361.15,-455.35 378.04,-455.35 399.06,-455.35"/>
<polygon fill="black" stroke="black" points="399.03,-458.85 409.03,-455.35 399.03,-451.85 399.03,-458.85"/>
<text text-anchor="middle" x="384.32" y="-462.15" font-family="Helvetica,sans-Serif" font-size="14.00">Start</text>
</g>
<!-- end -->
<g id="node2" class="node">
<title>end</title>
</g>
<!-- b1ec115e&#45;af38&#45;4c50&#45;a719&#45;045a1dfd1ee6&#45;&gt;end -->
<g id="edge9" class="edge">
<title>b1ec115e&#45;af38&#45;4c50&#45;a719&#45;045a1dfd1ee6&#45;&gt;end</title>
<path fill="none" stroke="black" d="M579.84,-455.35C598.56,-455.35 616.01,-455.35 626.82,-455.35"/>
<polygon fill="black" stroke="black" points="626.69,-458.85 636.69,-455.35 626.69,-451.85 626.69,-458.85"/>
<text text-anchor="middle" x="608.68" y="-462.15" font-family="Helvetica,sans-Serif" font-size="14.00">Finish</text>
</g>
<!-- 1f38bc63&#45;98e9&#45;4093&#45;b586&#45;d172316bb2c5 -->
<g id="node4" class="node">
<title>1f38bc63&#45;98e9&#45;4093&#45;b586&#45;d172316bb2c5</title>
<polygon fill="#ee0000" stroke="black" points="420,-391.48 146,-391.48 146,-355.48 420,-355.48 420,-391.48"/>
<text text-anchor="middle" x="283" y="-369.78" font-family="Helvetica,sans-Serif" font-size="14.00">✗ Ran sandbox for `sweepai/api.py`.</text>
</g>
<!-- b1ec115e&#45;af38&#45;4c50&#45;a719&#45;045a1dfd1ee6&#45;&gt;1f38bc63&#45;98e9&#45;4093&#45;b586&#45;d172316bb2c5 -->
<g id="edge1" class="edge">
<title>b1ec115e&#45;af38&#45;4c50&#45;a719&#45;045a1dfd1ee6&#45;&gt;1f38bc63&#45;98e9&#45;4093&#45;b586&#45;d172316bb2c5</title>
<path fill="none" stroke="black" stroke-dasharray="5,2" d="M441.5,-434.2C410.29,-422.44 370.95,-407.62 339.27,-395.68"/>
<polygon fill="black" stroke="black" points="340.87,-392.17 330.28,-391.92 338.4,-398.72 340.87,-392.17"/>
</g>
<!-- 283498b7&#45;d733&#45;4aa7&#45;aac6&#45;505ca929363b -->
<g id="node5" class="node">
<title>283498b7&#45;d733&#45;4aa7&#45;aac6&#45;505ca929363b</title>
<polygon fill="white" stroke="black" points="710,-391.48 438,-391.48 438,-355.48 710,-355.48 710,-391.48"/>
<text text-anchor="middle" x="574" y="-369.78" font-family="Helvetica,sans-Serif" font-size="14.00">▶ Ran sandbox for `sweepai/api.py`.</text>
</g>
<!-- b1ec115e&#45;af38&#45;4c50&#45;a719&#45;045a1dfd1ee6&#45;&gt;283498b7&#45;d733&#45;4aa7&#45;aac6&#45;505ca929363b -->
<g id="edge7" class="edge">
<title>b1ec115e&#45;af38&#45;4c50&#45;a719&#45;045a1dfd1ee6&#45;&gt;283498b7&#45;d733&#45;4aa7&#45;aac6&#45;505ca929363b</title>
<path fill="none" stroke="black" stroke-dasharray="5,2" d="M519.56,-429.52C529.05,-419.93 539.88,-408.98 549.37,-399.38"/>
<polygon fill="black" stroke="black" points="551.42,-402.27 555.96,-392.7 546.44,-397.35 551.42,-402.27"/>
</g>
<!-- 482bd8e9&#45;aa1d&#45;4157&#45;925e&#45;38ee52c0120e -->
<g id="node6" class="node">
<title>482bd8e9&#45;aa1d&#45;4157&#45;925e&#45;38ee52c0120e</title>
<ellipse fill="#0ee832" stroke="black" cx="283" cy="-277.61" rx="84.71" ry="26.74"/>
<text text-anchor="middle" x="283" y="-281.41" font-family="Helvetica,sans-Serif" font-size="14.00">✓ Modify</text>
<text text-anchor="middle" x="283" y="-266.41" font-family="Helvetica,sans-Serif" font-size="14.00">sweepai/api.py</text>
</g>
<!-- 1f38bc63&#45;98e9&#45;4093&#45;b586&#45;d172316bb2c5&#45;&gt;482bd8e9&#45;aa1d&#45;4157&#45;925e&#45;38ee52c0120e -->
<g id="edge2" class="edge">
<title>1f38bc63&#45;98e9&#45;4093&#45;b586&#45;d172316bb2c5&#45;&gt;482bd8e9&#45;aa1d&#45;4157&#45;925e&#45;38ee52c0120e</title>
<path fill="none" stroke="black" d="M283,-355.26C283,-344.07 283,-329.05 283,-315.27"/>
<polygon fill="black" stroke="black" points="286.5,-315.58 283,-305.58 279.5,-315.58 286.5,-315.58"/>
<text text-anchor="middle" x="380.5" y="-326.28" font-family="Helvetica,sans-Serif" font-size="14.00">Additional changes required</text>
</g>
<!-- 347146dd&#45;ba8f&#45;42d3&#45;b23e&#45;25064922771d -->
<g id="node7" class="node">
<title>347146dd&#45;ba8f&#45;42d3&#45;b23e&#45;25064922771d</title>
<polygon fill="#ee0000" stroke="black" points="274,-213.74 0,-213.74 0,-177.74 274,-177.74 274,-213.74"/>
<text text-anchor="middle" x="137" y="-192.04" font-family="Helvetica,sans-Serif" font-size="14.00">✗ Ran sandbox for `sweepai/api.py`.</text>
</g>
<!-- 482bd8e9&#45;aa1d&#45;4157&#45;925e&#45;38ee52c0120e&#45;&gt;347146dd&#45;ba8f&#45;42d3&#45;b23e&#45;25064922771d -->
<g id="edge3" class="edge">
<title>482bd8e9&#45;aa1d&#45;4157&#45;925e&#45;38ee52c0120e&#45;&gt;347146dd&#45;ba8f&#45;42d3&#45;b23e&#45;25064922771d</title>
<path fill="none" stroke="black" stroke-dasharray="5,2" d="M241.55,-253.94C221.7,-243.08 198,-230.11 178.18,-219.27"/>
<polygon fill="black" stroke="black" points="180.25,-215.86 169.8,-214.14 176.89,-222.01 180.25,-215.86"/>
</g>
<!-- 95ccb4d7&#45;9414&#45;43fe&#45;8ade&#45;b48ec949c873 -->
<g id="node8" class="node">
<title>95ccb4d7&#45;9414&#45;43fe&#45;8ade&#45;b48ec949c873</title>
<polygon fill="#ee0000" stroke="black" points="566,-213.74 292,-213.74 292,-177.74 566,-177.74 566,-213.74"/>
<text text-anchor="middle" x="429" y="-192.04" font-family="Helvetica,sans-Serif" font-size="14.00">✗ Ran sandbox for `sweepai/api.py`.</text>
</g>
<!-- 482bd8e9&#45;aa1d&#45;4157&#45;925e&#45;38ee52c0120e&#45;&gt;95ccb4d7&#45;9414&#45;43fe&#45;8ade&#45;b48ec949c873 -->
<g id="edge6" class="edge">
<title>482bd8e9&#45;aa1d&#45;4157&#45;925e&#45;38ee52c0120e&#45;&gt;95ccb4d7&#45;9414&#45;43fe&#45;8ade&#45;b48ec949c873</title>
<path fill="none" stroke="black" stroke-dasharray="5,2" d="M324.45,-253.94C344.3,-243.08 368,-230.11 387.82,-219.27"/>
<polygon fill="black" stroke="black" points="389.11,-222.01 396.2,-214.14 385.75,-215.86 389.11,-222.01"/>
</g>
<!-- 6f19b1fe&#45;80c8&#45;4de9&#45;81dd&#45;bc9177cb06eb -->
<g id="node9" class="node">
<title>6f19b1fe&#45;80c8&#45;4de9&#45;81dd&#45;bc9177cb06eb</title>
<ellipse fill="#0ee832" stroke="black" cx="137" cy="-99.87" rx="84.71" ry="26.74"/>
<text text-anchor="middle" x="137" y="-103.67" font-family="Helvetica,sans-Serif" font-size="14.00">✓ Modify</text>
<text text-anchor="middle" x="137" y="-88.67" font-family="Helvetica,sans-Serif" font-size="14.00">sweepai/api.py</text>
</g>
<!-- 347146dd&#45;ba8f&#45;42d3&#45;b23e&#45;25064922771d&#45;&gt;6f19b1fe&#45;80c8&#45;4de9&#45;81dd&#45;bc9177cb06eb -->
<g id="edge4" class="edge">
<title>347146dd&#45;ba8f&#45;42d3&#45;b23e&#45;25064922771d&#45;&gt;6f19b1fe&#45;80c8&#45;4de9&#45;81dd&#45;bc9177cb06eb</title>
<path fill="none" stroke="black" d="M137,-177.52C137,-166.33 137,-151.31 137,-137.53"/>
<polygon fill="black" stroke="black" points="140.5,-137.84 137,-127.84 133.5,-137.84 140.5,-137.84"/>
<text text-anchor="middle" x="234.5" y="-148.54" font-family="Helvetica,sans-Serif" font-size="14.00">Additional changes required</text>
</g>
<!-- 5741aa3e&#45;79c1&#45;42d0&#45;b1c7&#45;86555e20744a -->
<g id="node10" class="node">
<title>5741aa3e&#45;79c1&#45;42d0&#45;b1c7&#45;86555e20744a</title>
<polygon fill="#ee0000" stroke="black" points="274,-36 0,-36 0,0 274,0 274,-36"/>
<text text-anchor="middle" x="137" y="-14.3" font-family="Helvetica,sans-Serif" font-size="14.00">✗ Ran sandbox for `sweepai/api.py`.</text>
</g>
<!-- 6f19b1fe&#45;80c8&#45;4de9&#45;81dd&#45;bc9177cb06eb&#45;&gt;5741aa3e&#45;79c1&#45;42d0&#45;b1c7&#45;86555e20744a -->
<g id="edge5" class="edge">
<title>6f19b1fe&#45;80c8&#45;4de9&#45;81dd&#45;bc9177cb06eb&#45;&gt;5741aa3e&#45;79c1&#45;42d0&#45;b1c7&#45;86555e20744a</title>
<path fill="none" stroke="black" stroke-dasharray="5,2" d="M137,-72.72C137,-64.46 137,-55.31 137,-46.93"/>
<polygon fill="black" stroke="black" points="140.5,-47.15 137,-37.15 133.5,-47.15 140.5,-47.15"/>
</g>
</g>
</svg>
