<?xml version="1.0" encoding="UTF-8" standalone="no"?>
<!DOCTYPE svg PUBLIC "-//W3C//DTD SVG 1.1//EN"
 "http://www.w3.org/Graphics/SVG/1.1/DTD/svg11.dtd">
<!-- Generated by graphviz version 2.43.0 (0)
 -->
<!-- Title: %3 Pages: 1 -->
<svg width="1925pt" height="238pt"
 viewBox="0.00 0.00 1924.50 237.74" xmlns="http://www.w3.org/2000/svg" xmlns:xlink="http://www.w3.org/1999/xlink">
<g id="graph0" class="graph" transform="scale(1 1) rotate(0) translate(36 201.74)">
<title>%3</title>
<polygon fill="dimgray" stroke="transparent" points="-36,36 -36,-201.74 1888.5,-201.74 1888.5,36 -36,36"/>
<text text-anchor="middle" x="926.25" y="-150.54" font-family="Helvetica,sans-Serif" font-size="14.00">Sweep&#39;s Plan &amp; Progress</text>
<!-- start -->
<g id="node1" class="node">
<title>start</title>
</g>
<!-- 72a4c16e&#45;b95e&#45;4a98&#45;aa38&#45;d0fa2b993b70 -->
<g id="node3" class="node">
<title>72a4c16e&#45;b95e&#45;4a98&#45;aa38&#45;d0fa2b993b70</title>
<ellipse fill="yellow" stroke="black" cx="271" cy="-99.87" rx="195.74" ry="26.74"/>
<text text-anchor="middle" x="271" y="-103.67" font-family="Helvetica,sans-Serif" font-size="14.00">⋯ Create</text>
<text text-anchor="middle" x="271" y="-88.67" font-family="Helvetica,sans-Serif" font-size="14.00">sweepai/agents/query_filter_agent.py</text>
</g>
<!-- start&#45;&gt;72a4c16e&#45;b95e&#45;4a98&#45;aa38&#45;d0fa2b993b70 -->
<g id="edge8" class="edge">
<title>start&#45;&gt;72a4c16e&#45;b95e&#45;4a98&#45;aa38&#45;d0fa2b993b70</title>
<path fill="none" stroke="black" d="M23.71,-99.87C27.16,-99.87 42.91,-99.87 64.91,-99.87"/>
<polygon fill="black" stroke="black" points="65.07,-103.37 75.07,-99.87 65.07,-96.37 65.07,-103.37"/>
<text text-anchor="middle" x="49.32" y="-106.67" font-family="Helvetica,sans-Serif" font-size="14.00">Start</text>
</g>
<!-- end -->
<g id="node2" class="node">
<title>end</title>
</g>
<!-- d67f4a4e&#45;3918&#45;4543&#45;a28e&#45;14d9b21853e5 -->
<g id="node4" class="node">
<title>d67f4a4e&#45;3918&#45;4543&#45;a28e&#45;14d9b21853e5</title>
<ellipse fill="white" stroke="black" cx="685" cy="-99.87" rx="145.83" ry="26.74"/>
<text text-anchor="middle" x="685" y="-103.67" font-family="Helvetica,sans-Serif" font-size="14.00">▶ Modify</text>
<text text-anchor="middle" x="685" y="-88.67" font-family="Helvetica,sans-Serif" font-size="14.00">sweepai/utils/ticket_utils.py</text>
</g>
<!-- 72a4c16e&#45;b95e&#45;4a98&#45;aa38&#45;d0fa2b993b70&#45;&gt;d67f4a4e&#45;3918&#45;4543&#45;a28e&#45;14d9b21853e5 -->
<g id="edge2" class="edge">
<title>72a4c16e&#45;b95e&#45;4a98&#45;aa38&#45;d0fa2b993b70&#45;&gt;d67f4a4e&#45;3918&#45;4543&#45;a28e&#45;14d9b21853e5</title>
<path fill="none" stroke="black" d="M467.08,-99.87C487.69,-99.87 508.29,-99.87 528.9,-99.87"/>
<polygon fill="black" stroke="black" points="529.01,-103.37 539.01,-99.87 529.01,-96.37 529.01,-103.37"/>
</g>
<!-- 419af661&#45;50a4&#45;4bb8&#45;9c06&#45;c44611549bf0 -->
<g id="node7" class="node">
<title>419af661&#45;50a4&#45;4bb8&#45;9c06&#45;c44611549bf0</title>
<polygon fill="white" stroke="black" points="468,-36 0,-36 0,0 468,0 468,-36"/>
<text text-anchor="middle" x="234" y="-14.3" font-family="Helvetica,sans-Serif" font-size="14.00">▶ Run GitHub Actions for `sweepai/agents/query_filter_agent.py`</text>
</g>
<!-- 72a4c16e&#45;b95e&#45;4a98&#45;aa38&#45;d0fa2b993b70&#45;&gt;419af661&#45;50a4&#45;4bb8&#45;9c06&#45;c44611549bf0 -->
<g id="edge1" class="edge">
<title>72a4c16e&#45;b95e&#45;4a98&#45;aa38&#45;d0fa2b993b70&#45;&gt;419af661&#45;50a4&#45;4bb8&#45;9c06&#45;c44611549bf0</title>
<path fill="none" stroke="black" stroke-dasharray="5,2" d="M258.88,-72.72C254.8,-63.9 250.24,-54.05 246.15,-45.23"/>
<polygon fill="black" stroke="black" points="249.32,-43.75 241.94,-36.15 242.97,-46.69 249.32,-43.75"/>
</g>
<!-- 0905bbe4&#45;ed95&#45;4282&#45;930c&#45;f447ae6e9e8d -->
<g id="node5" class="node">
<title>0905bbe4&#45;ed95&#45;4282&#45;930c&#45;f447ae6e9e8d</title>
<ellipse fill="white" stroke="black" cx="1153" cy="-99.87" rx="219.41" ry="26.74"/>
<text text-anchor="middle" x="1153" y="-103.67" font-family="Helvetica,sans-Serif" font-size="14.00">▶ Create</text>
<text text-anchor="middle" x="1153" y="-88.67" font-family="Helvetica,sans-Serif" font-size="14.00">sweepai/agents/query_filter_agent_test.py</text>
</g>
<!-- d67f4a4e&#45;3918&#45;4543&#45;a28e&#45;14d9b21853e5&#45;&gt;0905bbe4&#45;ed95&#45;4282&#45;930c&#45;f447ae6e9e8d -->
<g id="edge4" class="edge">
<title>d67f4a4e&#45;3918&#45;4543&#45;a28e&#45;14d9b21853e5&#45;&gt;0905bbe4&#45;ed95&#45;4282&#45;930c&#45;f447ae6e9e8d</title>
<path fill="none" stroke="black" d="M830.79,-99.87C861.74,-99.87 892.69,-99.87 923.64,-99.87"/>
<polygon fill="black" stroke="black" points="923.69,-103.37 933.69,-99.87 923.69,-96.37 923.69,-103.37"/>
</g>
<!-- 17cb9ef9&#45;8114&#45;4e49&#45;b93d&#45;e28c93dfed84 -->
<g id="node8" class="node">
<title>17cb9ef9&#45;8114&#45;4e49&#45;b93d&#45;e28c93dfed84</title>
<polygon fill="white" stroke="black" points="884,-36 486,-36 486,0 884,0 884,-36"/>
<text text-anchor="middle" x="685" y="-14.3" font-family="Helvetica,sans-Serif" font-size="14.00">▶ Run GitHub Actions for `sweepai/utils/ticket_utils.py`</text>
</g>
<!-- d67f4a4e&#45;3918&#45;4543&#45;a28e&#45;14d9b21853e5&#45;&gt;17cb9ef9&#45;8114&#45;4e49&#45;b93d&#45;e28c93dfed84 -->
<g id="edge3" class="edge">
<title>d67f4a4e&#45;3918&#45;4543&#45;a28e&#45;14d9b21853e5&#45;&gt;17cb9ef9&#45;8114&#45;4e49&#45;b93d&#45;e28c93dfed84</title>
<path fill="none" stroke="black" stroke-dasharray="5,2" d="M685,-72.72C685,-64.27 685,-54.89 685,-46.36"/>
<polygon fill="black" stroke="black" points="688.5,-46.15 685,-36.15 681.5,-46.15 688.5,-46.15"/>
</g>
<!-- fcf2f2e6&#45;5010&#45;4c0a&#45;a965&#45;86eb6f4e1dbd -->
<g id="node6" class="node">
<title>fcf2f2e6&#45;5010&#45;4c0a&#45;a965&#45;86eb6f4e1dbd</title>
<ellipse fill="white" stroke="black" cx="1607" cy="-99.87" rx="169" ry="26.74"/>
<text text-anchor="middle" x="1607" y="-103.67" font-family="Helvetica,sans-Serif" font-size="14.00">▶ Create</text>
<text text-anchor="middle" x="1607" y="-88.67" font-family="Helvetica,sans-Serif" font-size="14.00">sweepai/utils/ticket_utils_test.py</text>
</g>
<!-- 0905bbe4&#45;ed95&#45;4282&#45;930c&#45;f447ae6e9e8d&#45;&gt;fcf2f2e6&#45;5010&#45;4c0a&#45;a965&#45;86eb6f4e1dbd -->
<g id="edge6" class="edge">
<title>0905bbe4&#45;ed95&#45;4282&#45;930c&#45;f447ae6e9e8d&#45;&gt;fcf2f2e6&#45;5010&#45;4c0a&#45;a965&#45;86eb6f4e1dbd</title>
<path fill="none" stroke="black" d="M1372.46,-99.87C1390.89,-99.87 1409.31,-99.87 1427.73,-99.87"/>
<polygon fill="black" stroke="black" points="1427.97,-103.37 1437.97,-99.87 1427.97,-96.37 1427.97,-103.37"/>
</g>
<!-- 2b50ed63&#45;6b10&#45;45f7&#45;b1bb&#45;d9a5268423a3 -->
<g id="node9" class="node">
<title>2b50ed63&#45;6b10&#45;45f7&#45;b1bb&#45;d9a5268423a3</title>
<polygon fill="white" stroke="black" points="1403.5,-36 902.5,-36 902.5,0 1403.5,0 1403.5,-36"/>
<text text-anchor="middle" x="1153" y="-14.3" font-family="Helvetica,sans-Serif" font-size="14.00">▶ Run GitHub Actions for `sweepai/agents/query_filter_agent_test.py`</text>
</g>
<!-- 0905bbe4&#45;ed95&#45;4282&#45;930c&#45;f447ae6e9e8d&#45;&gt;2b50ed63&#45;6b10&#45;45f7&#45;b1bb&#45;d9a5268423a3 -->
<g id="edge5" class="edge">
<title>0905bbe4&#45;ed95&#45;4282&#45;930c&#45;f447ae6e9e8d&#45;&gt;2b50ed63&#45;6b10&#45;45f7&#45;b1bb&#45;d9a5268423a3</title>
<path fill="none" stroke="black" stroke-dasharray="5,2" d="M1153,-72.72C1153,-64.27 1153,-54.89 1153,-46.36"/>
<polygon fill="black" stroke="black" points="1156.5,-46.15 1153,-36.15 1149.5,-46.15 1156.5,-46.15"/>
</g>
<!-- fcf2f2e6&#45;5010&#45;4c0a&#45;a965&#45;86eb6f4e1dbd&#45;&gt;end -->
<g id="edge9" class="edge">
<title>fcf2f2e6&#45;5010&#45;4c0a&#45;a965&#45;86eb6f4e1dbd&#45;&gt;end</title>
<path fill="none" stroke="black" d="M1776.13,-99.87C1796.07,-99.87 1812.97,-99.87 1823.27,-99.87"/>
<polygon fill="black" stroke="black" points="1823.36,-103.37 1833.36,-99.87 1823.36,-96.37 1823.36,-103.37"/>
<text text-anchor="middle" x="1804.75" y="-106.67" font-family="Helvetica,sans-Serif" font-size="14.00">Finish</text>
</g>
<!-- ea4bc671&#45;e64a&#45;4fca&#45;8e2a&#45;5ca3b2b53a90 -->
<g id="node10" class="node">
<title>ea4bc671&#45;e64a&#45;4fca&#45;8e2a&#45;5ca3b2b53a90</title>
<polygon fill="white" stroke="black" points="1852.5,-36 1421.5,-36 1421.5,0 1852.5,0 1852.5,-36"/>
<text text-anchor="middle" x="1637" y="-14.3" font-family="Helvetica,sans-Serif" font-size="14.00">▶ Run GitHub Actions for `sweepai/utils/ticket_utils_test.py`</text>
</g>
<!-- fcf2f2e6&#45;5010&#45;4c0a&#45;a965&#45;86eb6f4e1dbd&#45;&gt;ea4bc671&#45;e64a&#45;4fca&#45;8e2a&#45;5ca3b2b53a90 -->
<g id="edge7" class="edge">
<title>fcf2f2e6&#45;5010&#45;4c0a&#45;a965&#45;86eb6f4e1dbd&#45;&gt;ea4bc671&#45;e64a&#45;4fca&#45;8e2a&#45;5ca3b2b53a90</title>
<path fill="none" stroke="black" stroke-dasharray="5,2" d="M1616.82,-72.72C1620.1,-63.99 1623.75,-54.26 1627.04,-45.51"/>
<polygon fill="black" stroke="black" points="1630.32,-46.74 1630.56,-36.15 1623.77,-44.28 1630.32,-46.74"/>
</g>
</g>
</svg>
