<?xml version="1.0" encoding="UTF-8" standalone="no"?>
<!DOCTYPE svg PUBLIC "-//W3C//DTD SVG 1.1//EN"
 "http://www.w3.org/Graphics/SVG/1.1/DTD/svg11.dtd">
<!-- Generated by graphviz version 8.0.3 (0)
 -->
<!-- Pages: 1 -->
<svg width="886pt" height="238pt"
 viewBox="0.00 0.00 886.00 237.74" xmlns="http://www.w3.org/2000/svg" xmlns:xlink="http://www.w3.org/1999/xlink">
<g id="graph0" class="graph" transform="scale(1 1) rotate(0) translate(36 201.74)">
<polygon fill="dimgray" stroke="none" points="-36,36 -36,-201.74 850,-201.74 850,36 -36,36"/>
<text text-anchor="middle" x="407" y="-150.54" font-family="Helvetica,sans-Serif" font-size="14.00">Sweep&#39;s Plan &amp; Progress</text>
<!-- start -->
<g id="node1" class="node">
<title>start</title>
</g>
<!-- 156f41b5&#45;ec41&#45;4233&#45;b949&#45;79e0bf0ee2e6 -->
<g id="node3" class="node">
<title>156f41b5&#45;ec41&#45;4233&#45;b949&#45;79e0bf0ee2e6</title>
<ellipse fill="yellow" stroke="black" cx="212.5" cy="-99.87" rx="159.61" ry="26.74"/>
<text text-anchor="middle" x="212.5" y="-103.67" font-family="Helvetica,sans-Serif" font-size="14.00">⋯ Modify</text>
<text text-anchor="middle" x="212.5" y="-88.67" font-family="Helvetica,sans-Serif" font-size="14.00">sweepai/handlers/on_ticket.py</text>
</g>
<!-- start&#45;&gt;156f41b5&#45;ec41&#45;4233&#45;b949&#45;79e0bf0ee2e6 -->
<g id="edge4" class="edge">
<title>start&#45;&gt;156f41b5&#45;ec41&#45;4233&#45;b949&#45;79e0bf0ee2e6</title>
<path fill="none" stroke="black" d="M0.65,-99.87C2.39,-99.87 18.75,-99.87 41.67,-99.87"/>
<polygon fill="black" stroke="black" points="41.63,-103.37 51.63,-99.87 41.63,-96.37 41.63,-103.37"/>
<text text-anchor="middle" x="26.85" y="-106.67" font-family="Helvetica,sans-Serif" font-size="14.00">Start</text>
</g>
<!-- end -->
<g id="node2" class="node">
<title>end</title>
</g>
<!-- 4564e8b5&#45;2000&#45;4ba2&#45;9c15&#45;c40353b3c878 -->
<g id="node4" class="node">
<title>4564e8b5&#45;2000&#45;4ba2&#45;9c15&#45;c40353b3c878</title>
<ellipse fill="white" stroke="black" cx="586.5" cy="-99.87" rx="169" ry="26.74"/>
<text text-anchor="middle" x="586.5" y="-103.67" font-family="Helvetica,sans-Serif" font-size="14.00">▶ Create</text>
<text text-anchor="middle" x="586.5" y="-88.67" font-family="Helvetica,sans-Serif" font-size="14.00">sweepai/utils/ticket_utils_test.py</text>
</g>
<!-- 156f41b5&#45;ec41&#45;4233&#45;b949&#45;79e0bf0ee2e6&#45;&gt;4564e8b5&#45;2000&#45;4ba2&#45;9c15&#45;c40353b3c878 -->
<g id="edge2" class="edge">
<title>156f41b5&#45;ec41&#45;4233&#45;b949&#45;79e0bf0ee2e6&#45;&gt;4564e8b5&#45;2000&#45;4ba2&#45;9c15&#45;c40353b3c878</title>
<path fill="none" stroke="black" d="M372.47,-99.87C383.77,-99.87 395.07,-99.87 406.37,-99.87"/>
<polygon fill="black" stroke="black" points="406.2,-103.37 416.2,-99.87 406.2,-96.37 406.2,-103.37"/>
</g>
<!-- dead76ba&#45;ae5e&#45;4601&#45;a4b0&#45;a68b30111f97 -->
<g id="node5" class="node">
<title>dead76ba&#45;ae5e&#45;4601&#45;a4b0&#45;a68b30111f97</title>
<polygon fill="white" stroke="black" points="382.5,-36 4.5,-36 4.5,0 382.5,0 382.5,-36"/>
<text text-anchor="middle" x="193.5" y="-14.3" font-family="Helvetica,sans-Serif" font-size="14.00">▶ Ran sandbox for `sweepai/handlers/on_ticket.py`.</text>
</g>
<!-- 156f41b5&#45;ec41&#45;4233&#45;b949&#45;79e0bf0ee2e6&#45;&gt;dead76ba&#45;ae5e&#45;4601&#45;a4b0&#45;a68b30111f97 -->
<g id="edge1" class="edge">
<title>156f41b5&#45;ec41&#45;4233&#45;b949&#45;79e0bf0ee2e6&#45;&gt;dead76ba&#45;ae5e&#45;4601&#45;a4b0&#45;a68b30111f97</title>
<path fill="none" stroke="black" stroke-dasharray="5,2" d="M206.28,-72.72C204.29,-64.37 202.09,-55.1 200.08,-46.65"/>
<polygon fill="black" stroke="black" points="203.3,-46.06 197.58,-37.15 196.49,-47.68 203.3,-46.06"/>
</g>
<!-- 4564e8b5&#45;2000&#45;4ba2&#45;9c15&#45;c40353b3c878&#45;&gt;end -->
<g id="edge5" class="edge">
<title>4564e8b5&#45;2000&#45;4ba2&#45;9c15&#45;c40353b3c878&#45;&gt;end</title>
<path fill="none" stroke="black" d="M755.92,-99.87C775.5,-99.87 792.11,-99.87 802.39,-99.87"/>
<polygon fill="black" stroke="black" points="802.22,-103.37 812.22,-99.87 802.22,-96.37 802.22,-103.37"/>
<text text-anchor="middle" x="784.25" y="-106.67" font-family="Helvetica,sans-Serif" font-size="14.00">Finish</text>
</g>
<!-- 5d58a82f&#45;850c&#45;40e6&#45;b1c0&#45;b2dbe4b7a5e2 -->
<g id="node6" class="node">
<title>5d58a82f&#45;850c&#45;40e6&#45;b1c0&#45;b2dbe4b7a5e2</title>
<polygon fill="white" stroke="black" points="792.5,-36 400.5,-36 400.5,0 792.5,0 792.5,-36"/>
<text text-anchor="middle" x="596.5" y="-14.3" font-family="Helvetica,sans-Serif" font-size="14.00">▶ Ran sandbox for `sweepai/utils/ticket_utils_test.py`.</text>
</g>
<!-- 4564e8b5&#45;2000&#45;4ba2&#45;9c15&#45;c40353b3c878&#45;&gt;5d58a82f&#45;850c&#45;40e6&#45;b1c0&#45;b2dbe4b7a5e2 -->
<g id="edge3" class="edge">
<title>4564e8b5&#45;2000&#45;4ba2&#45;9c15&#45;c40353b3c878&#45;&gt;5d58a82f&#45;850c&#45;40e6&#45;b1c0&#45;b2dbe4b7a5e2</title>
<path fill="none" stroke="black" stroke-dasharray="5,2" d="M589.77,-72.72C590.81,-64.46 591.95,-55.31 593,-46.93"/>
<polygon fill="black" stroke="black" points="596.58,-47.5 594.35,-37.15 589.64,-46.63 596.58,-47.5"/>
</g>
</g>
</svg>
