<?xml version="1.0" encoding="UTF-8" standalone="no"?>
<!DOCTYPE svg PUBLIC "-//W3C//DTD SVG 1.1//EN"
 "http://www.w3.org/Graphics/SVG/1.1/DTD/svg11.dtd">
<!-- Generated by graphviz version 2.43.0 (0)
 -->
<!-- Title: %3 Pages: 1 -->
<svg width="1386pt" height="238pt"
 viewBox="0.00 0.00 1386.00 237.74" xmlns="http://www.w3.org/2000/svg" xmlns:xlink="http://www.w3.org/1999/xlink">
<g id="graph0" class="graph" transform="scale(1 1) rotate(0) translate(36 201.74)">
<title>%3</title>
<polygon fill="dimgray" stroke="transparent" points="-36,36 -36,-201.74 1350,-201.74 1350,36 -36,36"/>
<text text-anchor="middle" x="657" y="-150.54" font-family="Helvetica,sans-Serif" font-size="14.00">Sweep&#39;s Plan &amp; Progress</text>
<!-- start -->
<g id="node1" class="node">
<title>start</title>
</g>
<!-- 76351002&#45;f660&#45;4758&#45;ba0c&#45;7bbbbe8d0c27 -->
<g id="node3" class="node">
<title>76351002&#45;f660&#45;4758&#45;ba0c&#45;7bbbbe8d0c27</title>
<ellipse fill="#0ee832" stroke="black" cx="248" cy="-99.87" rx="162.77" ry="26.74"/>
<text text-anchor="middle" x="248" y="-103.67" font-family="Helvetica,sans-Serif" font-size="14.00">✓ Create</text>
<text text-anchor="middle" x="248" y="-88.67" font-family="Helvetica,sans-Serif" font-size="14.00">sweepai/agents/filter_agent.py</text>
</g>
<!-- start&#45;&gt;76351002&#45;f660&#45;4758&#45;ba0c&#45;7bbbbe8d0c27 -->
<g id="edge6" class="edge">
<title>start&#45;&gt;76351002&#45;f660&#45;4758&#45;ba0c&#45;7bbbbe8d0c27</title>
<path fill="none" stroke="black" d="M33.62,-99.87C36.9,-99.87 53,-99.87 75.02,-99.87"/>
<polygon fill="black" stroke="black" points="75.17,-103.37 85.17,-99.87 75.17,-96.37 75.17,-103.37"/>
<text text-anchor="middle" x="59.43" y="-106.67" font-family="Helvetica,sans-Serif" font-size="14.00">Start</text>
</g>
<!-- end -->
<g id="node2" class="node">
<title>end</title>
</g>
<!-- 99f8e3e4&#45;dce3&#45;431b&#45;8f4d&#45;a23e6e4273ce -->
<g id="node4" class="node">
<title>99f8e3e4&#45;dce3&#45;431b&#45;8f4d&#45;a23e6e4273ce</title>
<ellipse fill="#0ee832" stroke="black" cx="669" cy="-99.87" rx="185.94" ry="26.74"/>
<text text-anchor="middle" x="669" y="-103.67" font-family="Helvetica,sans-Serif" font-size="14.00">✓ Create</text>
<text text-anchor="middle" x="669" y="-88.67" font-family="Helvetica,sans-Serif" font-size="14.00">sweepai/agents/filter_agent_test.py</text>
</g>
<!-- 76351002&#45;f660&#45;4758&#45;ba0c&#45;7bbbbe8d0c27&#45;&gt;99f8e3e4&#45;dce3&#45;431b&#45;8f4d&#45;a23e6e4273ce -->
<g id="edge2" class="edge">
<title>76351002&#45;f660&#45;4758&#45;ba0c&#45;7bbbbe8d0c27&#45;&gt;99f8e3e4&#45;dce3&#45;431b&#45;8f4d&#45;a23e6e4273ce</title>
<path fill="none" stroke="black" d="M410.81,-99.87C431.47,-99.87 452.12,-99.87 472.78,-99.87"/>
<polygon fill="black" stroke="black" points="472.92,-103.37 482.92,-99.87 472.92,-96.37 472.92,-103.37"/>
</g>
<!-- 04d8292c&#45;84de&#45;47b1&#45;8e22&#45;504d54dfc0f7 -->
<g id="node6" class="node">
<title>04d8292c&#45;84de&#45;47b1&#45;8e22&#45;504d54dfc0f7</title>
<polygon fill="#ee0000" stroke="black" points="422,-36 0,-36 0,0 422,0 422,-36"/>
<text text-anchor="middle" x="211" y="-14.3" font-family="Helvetica,sans-Serif" font-size="14.00">✗ Run GitHub Actions for `sweepai/agents/filter_agent.py`</text>
</g>
<!-- 76351002&#45;f660&#45;4758&#45;ba0c&#45;7bbbbe8d0c27&#45;&gt;04d8292c&#45;84de&#45;47b1&#45;8e22&#45;504d54dfc0f7 -->
<g id="edge1" class="edge">
<title>76351002&#45;f660&#45;4758&#45;ba0c&#45;7bbbbe8d0c27&#45;&gt;04d8292c&#45;84de&#45;47b1&#45;8e22&#45;504d54dfc0f7</title>
<path fill="none" stroke="black" stroke-dasharray="5,2" d="M235.88,-72.72C231.8,-63.9 227.24,-54.05 223.15,-45.23"/>
<polygon fill="black" stroke="black" points="226.32,-43.75 218.94,-36.15 219.97,-46.69 226.32,-43.75"/>
</g>
<!-- c08472ba&#45;4e06&#45;4fe3&#45;8e24&#45;5b35931169d8 -->
<g id="node5" class="node">
<title>c08472ba&#45;4e06&#45;4fe3&#45;8e24&#45;5b35931169d8</title>
<ellipse fill="white" stroke="black" cx="1076" cy="-99.87" rx="145.83" ry="26.74"/>
<text text-anchor="middle" x="1076" y="-103.67" font-family="Helvetica,sans-Serif" font-size="14.00">▶ Modify</text>
<text text-anchor="middle" x="1076" y="-88.67" font-family="Helvetica,sans-Serif" font-size="14.00">sweepai/utils/ticket_utils.py</text>
</g>
<!-- 99f8e3e4&#45;dce3&#45;431b&#45;8f4d&#45;a23e6e4273ce&#45;&gt;c08472ba&#45;4e06&#45;4fe3&#45;8e24&#45;5b35931169d8 -->
<g id="edge4" class="edge">
<title>99f8e3e4&#45;dce3&#45;431b&#45;8f4d&#45;a23e6e4273ce&#45;&gt;c08472ba&#45;4e06&#45;4fe3&#45;8e24&#45;5b35931169d8</title>
<path fill="none" stroke="black" d="M855.01,-99.87C876.62,-99.87 898.23,-99.87 919.85,-99.87"/>
<polygon fill="black" stroke="black" points="920.11,-103.37 930.11,-99.87 920.11,-96.37 920.11,-103.37"/>
</g>
<!-- c9c14804&#45;4c3a&#45;4d27&#45;97d4&#45;86f4bca5e543 -->
<g id="node7" class="node">
<title>c9c14804&#45;4c3a&#45;4d27&#45;97d4&#45;86f4bca5e543</title>
<polygon fill="yellow" stroke="black" points="898,-36 440,-36 440,0 898,0 898,-36"/>
<text text-anchor="middle" x="669" y="-14.3" font-family="Helvetica,sans-Serif" font-size="14.00">⋯ Run GitHub Actions for `sweepai/agents/filter_agent_test.py`</text>
</g>
<!-- 99f8e3e4&#45;dce3&#45;431b&#45;8f4d&#45;a23e6e4273ce&#45;&gt;c9c14804&#45;4c3a&#45;4d27&#45;97d4&#45;86f4bca5e543 -->
<g id="edge3" class="edge">
<title>99f8e3e4&#45;dce3&#45;431b&#45;8f4d&#45;a23e6e4273ce&#45;&gt;c9c14804&#45;4c3a&#45;4d27&#45;97d4&#45;86f4bca5e543</title>
<path fill="none" stroke="black" stroke-dasharray="5,2" d="M669,-72.72C669,-64.27 669,-54.89 669,-46.36"/>
<polygon fill="black" stroke="black" points="672.5,-46.15 669,-36.15 665.5,-46.15 672.5,-46.15"/>
</g>
<!-- c08472ba&#45;4e06&#45;4fe3&#45;8e24&#45;5b35931169d8&#45;&gt;end -->
<g id="edge7" class="edge">
<title>c08472ba&#45;4e06&#45;4fe3&#45;8e24&#45;5b35931169d8&#45;&gt;end</title>
<path fill="none" stroke="black" d="M1221.81,-99.87C1241.57,-99.87 1258.62,-99.87 1269.07,-99.87"/>
<polygon fill="black" stroke="black" points="1269.35,-103.37 1279.35,-99.87 1269.35,-96.37 1269.35,-103.37"/>
<text text-anchor="middle" x="1250.58" y="-106.67" font-family="Helvetica,sans-Serif" font-size="14.00">Finish</text>
</g>
<!-- 6deb25fc&#45;2f17&#45;405a&#45;98df&#45;f72ce606ea7b -->
<g id="node8" class="node">
<title>6deb25fc&#45;2f17&#45;405a&#45;98df&#45;f72ce606ea7b</title>
<polygon fill="white" stroke="black" points="1314,-36 916,-36 916,0 1314,0 1314,-36"/>
<text text-anchor="middle" x="1115" y="-14.3" font-family="Helvetica,sans-Serif" font-size="14.00">▶ Run GitHub Actions for `sweepai/utils/ticket_utils.py`</text>
</g>
<!-- c08472ba&#45;4e06&#45;4fe3&#45;8e24&#45;5b35931169d8&#45;&gt;6deb25fc&#45;2f17&#45;405a&#45;98df&#45;f72ce606ea7b -->
<g id="edge5" class="edge">
<title>c08472ba&#45;4e06&#45;4fe3&#45;8e24&#45;5b35931169d8&#45;&gt;6deb25fc&#45;2f17&#45;405a&#45;98df&#45;f72ce606ea7b</title>
<path fill="none" stroke="black" stroke-dasharray="5,2" d="M1088.77,-72.72C1093.08,-63.9 1097.88,-54.05 1102.19,-45.23"/>
<polygon fill="black" stroke="black" points="1105.38,-46.67 1106.63,-36.15 1099.09,-43.6 1105.38,-46.67"/>
</g>
</g>
</svg>
