<?xml version="1.0" encoding="UTF-8" standalone="no"?>
<!DOCTYPE svg PUBLIC "-//W3C//DTD SVG 1.1//EN"
 "http://www.w3.org/Graphics/SVG/1.1/DTD/svg11.dtd">
<!-- Generated by graphviz version 8.0.3 (0)
 -->
<!-- Pages: 1 -->
<svg width="894pt" height="238pt"
 viewBox="0.00 0.00 893.50 237.74" xmlns="http://www.w3.org/2000/svg" xmlns:xlink="http://www.w3.org/1999/xlink">
<g id="graph0" class="graph" transform="scale(1 1) rotate(0) translate(36 201.74)">
<polygon fill="dimgray" stroke="none" points="-36,36 -36,-201.74 857.5,-201.74 857.5,36 -36,36"/>
<text text-anchor="middle" x="410.75" y="-150.54" font-family="Helvetica,sans-Serif" font-size="14.00">Sweep&#39;s Plan &amp; Progress</text>
<!-- start -->
<g id="node1" class="node">
<title>start</title>
</g>
<!-- 4737a5fa&#45;3115&#45;4d0e&#45;8476&#45;4ef8f15e3b2c -->
<g id="node3" class="node">
<title>4737a5fa&#45;3115&#45;4d0e&#45;8476&#45;4ef8f15e3b2c</title>
<ellipse fill="#0ee832" stroke="black" cx="258" cy="-99.87" rx="166.75" ry="26.74"/>
<text text-anchor="middle" x="258" y="-103.67" font-family="Helvetica,sans-Serif" font-size="14.00">✓ Modify</text>
<text text-anchor="middle" x="258" y="-88.67" font-family="Helvetica,sans-Serif" font-size="14.00">sweepai/agents/sweep_yaml.py</text>
</g>
<!-- start&#45;&gt;4737a5fa&#45;3115&#45;4d0e&#45;8476&#45;4ef8f15e3b2c -->
<g id="edge4" class="edge">
<title>start&#45;&gt;4737a5fa&#45;3115&#45;4d0e&#45;8476&#45;4ef8f15e3b2c</title>
<path fill="none" stroke="black" d="M39.16,-99.87C40.92,-99.87 57.12,-99.87 79.98,-99.87"/>
<polygon fill="black" stroke="black" points="79.93,-103.37 89.93,-99.87 79.93,-96.37 79.93,-103.37"/>
<text text-anchor="middle" x="65.31" y="-106.67" font-family="Helvetica,sans-Serif" font-size="14.00">Start</text>
</g>
<!-- end -->
<g id="node2" class="node">
<title>end</title>
</g>
<!-- 86d89273&#45;9a94&#45;40fe&#45;8f29&#45;8d9ad10bc9c4 -->
<g id="node4" class="node">
<title>86d89273&#45;9a94&#45;40fe&#45;8f29&#45;8d9ad10bc9c4</title>
<ellipse fill="white" stroke="black" cx="612" cy="-99.87" rx="130.22" ry="26.74"/>
<text text-anchor="middle" x="612" y="-103.67" font-family="Helvetica,sans-Serif" font-size="14.00">▶ Modify</text>
<text text-anchor="middle" x="612" y="-88.67" font-family="Helvetica,sans-Serif" font-size="14.00">sweepai/config/client.py</text>
</g>
<!-- 4737a5fa&#45;3115&#45;4d0e&#45;8476&#45;4ef8f15e3b2c&#45;&gt;86d89273&#45;9a94&#45;40fe&#45;8f29&#45;8d9ad10bc9c4 -->
<g id="edge2" class="edge">
<title>4737a5fa&#45;3115&#45;4d0e&#45;8476&#45;4ef8f15e3b2c&#45;&gt;86d89273&#45;9a94&#45;40fe&#45;8f29&#45;8d9ad10bc9c4</title>
<path fill="none" stroke="black" d="M424.97,-99.87C440.31,-99.87 455.64,-99.87 470.98,-99.87"/>
<polygon fill="black" stroke="black" points="470.59,-103.37 480.59,-99.87 470.59,-96.37 470.59,-103.37"/>
</g>
<!-- 6f109a51&#45;1360&#45;4734&#45;846e&#45;6ec8a9db11db -->
<g id="node5" class="node">
<title>6f109a51&#45;1360&#45;4734&#45;846e&#45;6ec8a9db11db</title>
<polygon fill="#0ee832" stroke="black" points="428,-36 0,-36 0,0 428,0 428,-36"/>
<text text-anchor="middle" x="214" y="-14.3" font-family="Helvetica,sans-Serif" font-size="14.00">✓ Run GitHub Actions for `sweepai/agents/sweep_yaml.py`</text>
</g>
<!-- 4737a5fa&#45;3115&#45;4d0e&#45;8476&#45;4ef8f15e3b2c&#45;&gt;6f109a51&#45;1360&#45;4734&#45;846e&#45;6ec8a9db11db -->
<g id="edge1" class="edge">
<title>4737a5fa&#45;3115&#45;4d0e&#45;8476&#45;4ef8f15e3b2c&#45;&gt;6f109a51&#45;1360&#45;4734&#45;846e&#45;6ec8a9db11db</title>
<path fill="none" stroke="black" stroke-dasharray="5,2" d="M243.84,-73.16C239.02,-64.41 233.62,-54.62 228.76,-45.79"/>
<polygon fill="black" stroke="black" points="231.44,-44.41 223.55,-37.34 225.31,-47.78 231.44,-44.41"/>
</g>
<!-- 86d89273&#45;9a94&#45;40fe&#45;8f29&#45;8d9ad10bc9c4&#45;&gt;end -->
<g id="edge5" class="edge">
<title>86d89273&#45;9a94&#45;40fe&#45;8f29&#45;8d9ad10bc9c4&#45;&gt;end</title>
<path fill="none" stroke="black" d="M742.57,-99.87C761.84,-99.87 778.68,-99.87 789.05,-99.87"/>
<polygon fill="black" stroke="black" points="788.71,-103.37 798.71,-99.87 788.71,-96.37 788.71,-103.37"/>
<text text-anchor="middle" x="770.8" y="-106.67" font-family="Helvetica,sans-Serif" font-size="14.00">Finish</text>
</g>
<!-- 1e6128c3&#45;7350&#45;4f75&#45;9f86&#45;8847cbbe1a0a -->
<g id="node6" class="node">
<title>1e6128c3&#45;7350&#45;4f75&#45;9f86&#45;8847cbbe1a0a</title>
<polygon fill="white" stroke="black" points="821.5,-36 446.5,-36 446.5,0 821.5,0 821.5,-36"/>
<text text-anchor="middle" x="634" y="-14.3" font-family="Helvetica,sans-Serif" font-size="14.00">▶ Run GitHub Actions for `sweepai/config/client.py`</text>
</g>
<!-- 86d89273&#45;9a94&#45;40fe&#45;8f29&#45;8d9ad10bc9c4&#45;&gt;1e6128c3&#45;7350&#45;4f75&#45;9f86&#45;8847cbbe1a0a -->
<g id="edge3" class="edge">
<title>86d89273&#45;9a94&#45;40fe&#45;8f29&#45;8d9ad10bc9c4&#45;&gt;1e6128c3&#45;7350&#45;4f75&#45;9f86&#45;8847cbbe1a0a</title>
<path fill="none" stroke="black" stroke-dasharray="5,2" d="M619.2,-72.72C621.5,-64.37 624.06,-55.1 626.39,-46.65"/>
<polygon fill="black" stroke="black" points="630,-47.72 629.28,-37.15 623.25,-45.86 630,-47.72"/>
</g>
</g>
</svg>
