<?xml version="1.0" encoding="UTF-8" standalone="no"?>
<!DOCTYPE svg PUBLIC "-//W3C//DTD SVG 1.1//EN"
 "http://www.w3.org/Graphics/SVG/1.1/DTD/svg11.dtd">
<!-- Generated by graphviz version 8.0.3 (0)
 -->
<!-- Pages: 1 -->
<svg width="872pt" height="415pt"
 viewBox="0.00 0.00 872.00 415.48" xmlns="http://www.w3.org/2000/svg" xmlns:xlink="http://www.w3.org/1999/xlink">
<g id="graph0" class="graph" transform="scale(1 1) rotate(0) translate(36 379.48)">
<polygon fill="dimgray" stroke="none" points="-36,36 -36,-379.48 836,-379.48 836,36 -36,36"/>
<text text-anchor="middle" x="400" y="-328.28" font-family="Helvetica,sans-Serif" font-size="14.00">Sweep&#39;s Plan &amp; Progress</text>
<!-- start -->
<g id="node1" class="node">
<title>start</title>
</g>
<!-- 5b11ec1c&#45;beb0&#45;4f74&#45;bf10&#45;86a5c4bdabe2 -->
<g id="node3" class="node">
<title>5b11ec1c&#45;beb0&#45;4f74&#45;bf10&#45;86a5c4bdabe2</title>
<ellipse fill="#0ee832" stroke="black" cx="506" cy="-277.61" rx="159.61" ry="26.74"/>
<text text-anchor="middle" x="506" y="-281.41" font-family="Helvetica,sans-Serif" font-size="14.00">✓ Modify</text>
<text text-anchor="middle" x="506" y="-266.41" font-family="Helvetica,sans-Serif" font-size="14.00">sweepai/handlers/on_ticket.py</text>
</g>
<!-- start&#45;&gt;5b11ec1c&#45;beb0&#45;4f74&#45;bf10&#45;86a5c4bdabe2 -->
<g id="edge5" class="edge">
<title>start&#45;&gt;5b11ec1c&#45;beb0&#45;4f74&#45;bf10&#45;86a5c4bdabe2</title>
<path fill="none" stroke="black" d="M294.15,-277.61C295.89,-277.61 312.25,-277.61 335.17,-277.61"/>
<polygon fill="black" stroke="black" points="335.13,-281.11 345.13,-277.61 335.13,-274.11 335.13,-281.11"/>
<text text-anchor="middle" x="320.35" y="-284.41" font-family="Helvetica,sans-Serif" font-size="14.00">Start</text>
</g>
<!-- end -->
<g id="node2" class="node">
<title>end</title>
</g>
<!-- 5b11ec1c&#45;beb0&#45;4f74&#45;bf10&#45;86a5c4bdabe2&#45;&gt;end -->
<g id="edge6" class="edge">
<title>5b11ec1c&#45;beb0&#45;4f74&#45;bf10&#45;86a5c4bdabe2&#45;&gt;end</title>
<path fill="none" stroke="black" d="M665.87,-277.61C685.5,-277.61 702.3,-277.61 712.72,-277.61"/>
<polygon fill="black" stroke="black" points="712.71,-281.11 722.71,-277.61 712.71,-274.11 712.71,-281.11"/>
<text text-anchor="middle" x="694.65" y="-284.41" font-family="Helvetica,sans-Serif" font-size="14.00">Finish</text>
</g>
<!-- 8e0fde05&#45;2279&#45;4579&#45;8605&#45;b83cee5a5a07 -->
<g id="node4" class="node">
<title>8e0fde05&#45;2279&#45;4579&#45;8605&#45;b83cee5a5a07</title>
<polygon fill="#ee0000" stroke="black" points="404,-213.74 24,-213.74 24,-177.74 404,-177.74 404,-213.74"/>
<text text-anchor="middle" x="214" y="-192.04" font-family="Helvetica,sans-Serif" font-size="14.00">✗ Ran sandbox for `sweepai/handlers/on_ticket.py`.</text>
</g>
<!-- 5b11ec1c&#45;beb0&#45;4f74&#45;bf10&#45;86a5c4bdabe2&#45;&gt;8e0fde05&#45;2279&#45;4579&#45;8605&#45;b83cee5a5a07 -->
<g id="edge1" class="edge">
<title>5b11ec1c&#45;beb0&#45;4f74&#45;bf10&#45;86a5c4bdabe2&#45;&gt;8e0fde05&#45;2279&#45;4579&#45;8605&#45;b83cee5a5a07</title>
<path fill="none" stroke="black" stroke-dasharray="5,2" d="M424.27,-254.26C381.59,-242.58 329.75,-228.4 288.23,-217.04"/>
<polygon fill="black" stroke="black" points="289.2,-213.41 278.63,-214.14 287.35,-220.16 289.2,-213.41"/>
</g>
<!-- 25edd5de&#45;5d5c&#45;4d35&#45;b4d1&#45;8d3fd6e7a554 -->
<g id="node5" class="node">
<title>25edd5de&#45;5d5c&#45;4d35&#45;b4d1&#45;8d3fd6e7a554</title>
<polygon fill="white" stroke="black" points="800,-213.74 422,-213.74 422,-177.74 800,-177.74 800,-213.74"/>
<text text-anchor="middle" x="611" y="-192.04" font-family="Helvetica,sans-Serif" font-size="14.00">▶ Ran sandbox for `sweepai/handlers/on_ticket.py`.</text>
</g>
<!-- 5b11ec1c&#45;beb0&#45;4f74&#45;bf10&#45;86a5c4bdabe2&#45;&gt;25edd5de&#45;5d5c&#45;4d35&#45;b4d1&#45;8d3fd6e7a554 -->
<g id="edge4" class="edge">
<title>5b11ec1c&#45;beb0&#45;4f74&#45;bf10&#45;86a5c4bdabe2&#45;&gt;25edd5de&#45;5d5c&#45;4d35&#45;b4d1&#45;8d3fd6e7a554</title>
<path fill="none" stroke="black" stroke-dasharray="5,2" d="M539.51,-251.12C552.39,-241.33 567.02,-230.19 579.68,-220.56"/>
<polygon fill="black" stroke="black" points="581.24,-223.01 587.08,-214.17 577,-217.44 581.24,-223.01"/>
</g>
<!-- 34b40d68&#45;6374&#45;45ef&#45;a882&#45;8e845470bb06 -->
<g id="node6" class="node">
<title>34b40d68&#45;6374&#45;45ef&#45;a882&#45;8e845470bb06</title>
<ellipse fill="yellow" stroke="black" cx="214" cy="-99.87" rx="195.32" ry="26.74"/>
<text text-anchor="middle" x="214" y="-103.67" font-family="Helvetica,sans-Serif" font-size="14.00">⋯ Modify</text>
<text text-anchor="middle" x="214" y="-88.67" font-family="Helvetica,sans-Serif" font-size="14.00">sweepai/agents/assistant_wrapper.py</text>
</g>
<!-- 8e0fde05&#45;2279&#45;4579&#45;8605&#45;b83cee5a5a07&#45;&gt;34b40d68&#45;6374&#45;45ef&#45;a882&#45;8e845470bb06 -->
<g id="edge2" class="edge">
<title>8e0fde05&#45;2279&#45;4579&#45;8605&#45;b83cee5a5a07&#45;&gt;34b40d68&#45;6374&#45;45ef&#45;a882&#45;8e845470bb06</title>
<path fill="none" stroke="black" d="M214,-177.52C214,-166.33 214,-151.31 214,-137.53"/>
<polygon fill="black" stroke="black" points="217.5,-137.84 214,-127.84 210.5,-137.84 217.5,-137.84"/>
<text text-anchor="middle" x="311.5" y="-148.54" font-family="Helvetica,sans-Serif" font-size="14.00">Additional changes required</text>
</g>
<!-- 5dcbde24&#45;bace&#45;4a21&#45;8d93&#45;13ad8106ad7a -->
<g id="node7" class="node">
<title>5dcbde24&#45;bace&#45;4a21&#45;8d93&#45;13ad8106ad7a</title>
<polygon fill="white" stroke="black" points="428,-36 0,-36 0,0 428,0 428,-36"/>
<text text-anchor="middle" x="214" y="-14.3" font-family="Helvetica,sans-Serif" font-size="14.00">▶ Ran sandbox for `sweepai/agents/assistant_wrapper.py`.</text>
</g>
<!-- 34b40d68&#45;6374&#45;45ef&#45;a882&#45;8e845470bb06&#45;&gt;5dcbde24&#45;bace&#45;4a21&#45;8d93&#45;13ad8106ad7a -->
<g id="edge3" class="edge">
<title>34b40d68&#45;6374&#45;45ef&#45;a882&#45;8e845470bb06&#45;&gt;5dcbde24&#45;bace&#45;4a21&#45;8d93&#45;13ad8106ad7a</title>
<path fill="none" stroke="black" stroke-dasharray="5,2" d="M214,-72.72C214,-64.46 214,-55.31 214,-46.93"/>
<polygon fill="black" stroke="black" points="217.5,-47.15 214,-37.15 210.5,-47.15 217.5,-47.15"/>
</g>
</g>
</svg>
