<?xml version="1.0" encoding="UTF-8" standalone="no"?>
<!DOCTYPE svg PUBLIC "-//W3C//DTD SVG 1.1//EN"
 "http://www.w3.org/Graphics/SVG/1.1/DTD/svg11.dtd">
<!-- Generated by graphviz version 2.43.0 (0)
 -->
<!-- Title: %3 Pages: 1 -->
<svg width="1376pt" height="165pt"
 viewBox="0.00 0.00 1376.00 164.74" xmlns="http://www.w3.org/2000/svg" xmlns:xlink="http://www.w3.org/1999/xlink">
<g id="graph0" class="graph" transform="scale(1 1) rotate(0) translate(36 128.74)">
<title>%3</title>
<polygon fill="dimgray" stroke="transparent" points="-36,36 -36,-128.74 1340,-128.74 1340,36 -36,36"/>
<text text-anchor="middle" x="652" y="-77.54" font-family="Helvetica,sans-Serif" font-size="14.00">Sweep&#39;s Plan &amp; Progress</text>
<!-- start -->
<g id="node1" class="node">
<title>start</title>
</g>
<!-- 0303ff8d&#45;ec7e&#45;467c&#45;9ff4&#45;e6d47c4a6af1 -->
<g id="node3" class="node">
<title>0303ff8d&#45;ec7e&#45;467c&#45;9ff4&#45;e6d47c4a6af1</title>
<ellipse fill="#0ee832" stroke="black" cx="248.5" cy="-26.87" rx="195.74" ry="26.74"/>
<text text-anchor="middle" x="248.5" y="-30.67" font-family="Helvetica,sans-Serif" font-size="14.00">✓ Create</text>
<text text-anchor="middle" x="248.5" y="-15.67" font-family="Helvetica,sans-Serif" font-size="14.00">sweepai/agents/query_filter_agent.py</text>
</g>
<!-- start&#45;&gt;0303ff8d&#45;ec7e&#45;467c&#45;9ff4&#45;e6d47c4a6af1 -->
<g id="edge3" class="edge">
<title>start&#45;&gt;0303ff8d&#45;ec7e&#45;467c&#45;9ff4&#45;e6d47c4a6af1</title>
<path fill="none" stroke="black" d="M1.21,-26.87C4.66,-26.87 20.41,-26.87 42.41,-26.87"/>
<polygon fill="black" stroke="black" points="42.57,-30.37 52.57,-26.87 42.57,-23.37 42.57,-30.37"/>
<text text-anchor="middle" x="26.82" y="-33.67" font-family="Helvetica,sans-Serif" font-size="14.00">Start</text>
</g>
<!-- end -->
<g id="node2" class="node">
<title>end</title>
</g>
<!-- fac1f467&#45;2a60&#45;44e5&#45;a3d9&#45;8a2264d04a07 -->
<g id="node4" class="node">
<title>fac1f467&#45;2a60&#45;44e5&#45;a3d9&#45;8a2264d04a07</title>
<ellipse fill="#0ee832" stroke="black" cx="699.5" cy="-26.87" rx="219.41" ry="26.74"/>
<text text-anchor="middle" x="699.5" y="-30.67" font-family="Helvetica,sans-Serif" font-size="14.00">✓ Create</text>
<text text-anchor="middle" x="699.5" y="-15.67" font-family="Helvetica,sans-Serif" font-size="14.00">sweepai/agents/query_filter_agent_test.py</text>
</g>
<!-- 0303ff8d&#45;ec7e&#45;467c&#45;9ff4&#45;e6d47c4a6af1&#45;&gt;fac1f467&#45;2a60&#45;44e5&#45;a3d9&#45;8a2264d04a07 -->
<g id="edge1" class="edge">
<title>0303ff8d&#45;ec7e&#45;467c&#45;9ff4&#45;e6d47c4a6af1&#45;&gt;fac1f467&#45;2a60&#45;44e5&#45;a3d9&#45;8a2264d04a07</title>
<path fill="none" stroke="black" d="M444.49,-26.87C452.87,-26.87 461.25,-26.87 469.63,-26.87"/>
<polygon fill="black" stroke="black" points="469.85,-30.37 479.85,-26.87 469.85,-23.37 469.85,-30.37"/>
</g>
<!-- ff0cfd2b&#45;1bae&#45;4887&#45;9039&#45;a12281b6e965 -->
<g id="node5" class="node">
<title>ff0cfd2b&#45;1bae&#45;4887&#45;9039&#45;a12281b6e965</title>
<ellipse fill="yellow" stroke="black" cx="1099.5" cy="-26.87" rx="145.83" ry="26.74"/>
<text text-anchor="middle" x="1099.5" y="-30.67" font-family="Helvetica,sans-Serif" font-size="14.00">⋯ Modify</text>
<text text-anchor="middle" x="1099.5" y="-15.67" font-family="Helvetica,sans-Serif" font-size="14.00">sweepai/utils/ticket_utils.py</text>
</g>
<!-- fac1f467&#45;2a60&#45;44e5&#45;a3d9&#45;8a2264d04a07&#45;&gt;ff0cfd2b&#45;1bae&#45;4887&#45;9039&#45;a12281b6e965 -->
<g id="edge2" class="edge">
<title>fac1f467&#45;2a60&#45;44e5&#45;a3d9&#45;8a2264d04a07&#45;&gt;ff0cfd2b&#45;1bae&#45;4887&#45;9039&#45;a12281b6e965</title>
<path fill="none" stroke="black" d="M919.03,-26.87C927.13,-26.87 935.22,-26.87 943.32,-26.87"/>
<polygon fill="black" stroke="black" points="943.57,-30.37 953.57,-26.87 943.57,-23.37 943.57,-30.37"/>
</g>
<!-- ff0cfd2b&#45;1bae&#45;4887&#45;9039&#45;a12281b6e965&#45;&gt;end -->
<g id="edge4" class="edge">
<title>ff0cfd2b&#45;1bae&#45;4887&#45;9039&#45;a12281b6e965&#45;&gt;end</title>
<path fill="none" stroke="black" d="M1245.31,-26.87C1265.07,-26.87 1282.12,-26.87 1292.57,-26.87"/>
<polygon fill="black" stroke="black" points="1292.85,-30.37 1302.85,-26.87 1292.85,-23.37 1292.85,-30.37"/>
<text text-anchor="middle" x="1274.08" y="-33.67" font-family="Helvetica,sans-Serif" font-size="14.00">Finish</text>
</g>
</g>
</svg>
