<?xml version="1.0" encoding="UTF-8" standalone="no"?>
<!DOCTYPE svg PUBLIC "-//W3C//DTD SVG 1.1//EN"
 "http://www.w3.org/Graphics/SVG/1.1/DTD/svg11.dtd">
<!-- Generated by graphviz version 8.0.3 (0)
 -->
<!-- Pages: 1 -->
<svg width="1396pt" height="238pt"
 viewBox="0.00 0.00 1395.50 237.74" xmlns="http://www.w3.org/2000/svg" xmlns:xlink="http://www.w3.org/1999/xlink">
<g id="graph0" class="graph" transform="scale(1 1) rotate(0) translate(36 201.74)">
<polygon fill="dimgray" stroke="none" points="-36,36 -36,-201.74 1359.5,-201.74 1359.5,36 -36,36"/>
<text text-anchor="middle" x="661.75" y="-150.54" font-family="Helvetica,sans-Serif" font-size="14.00">Sweep&#39;s Plan &amp; Progress</text>
<!-- start -->
<g id="node1" class="node">
<title>start</title>
</g>
<!-- e0830dfd&#45;162b&#45;4228&#45;947d&#45;27283e9ccfd7 -->
<g id="node3" class="node">
<title>e0830dfd&#45;162b&#45;4228&#45;947d&#45;27283e9ccfd7</title>
<ellipse fill="#0ee832" stroke="black" cx="226.5" cy="-99.87" rx="164.51" ry="26.74"/>
<text text-anchor="middle" x="226.5" y="-103.67" font-family="Helvetica,sans-Serif" font-size="14.00">✓ Modify</text>
<text text-anchor="middle" x="226.5" y="-88.67" font-family="Helvetica,sans-Serif" font-size="14.00">sweepai/handlers/on_merge.py</text>
</g>
<!-- start&#45;&gt;e0830dfd&#45;162b&#45;4228&#45;947d&#45;27283e9ccfd7 -->
<g id="edge8" class="edge">
<title>start&#45;&gt;e0830dfd&#45;162b&#45;4228&#45;947d&#45;27283e9ccfd7</title>
<path fill="none" stroke="black" d="M9.66,-99.87C11.41,-99.87 27.66,-99.87 50.54,-99.87"/>
<polygon fill="black" stroke="black" points="50.5,-103.37 60.5,-99.87 50.5,-96.37 50.5,-103.37"/>
<text text-anchor="middle" x="35.87" y="-106.67" font-family="Helvetica,sans-Serif" font-size="14.00">Start</text>
</g>
<!-- end -->
<g id="node2" class="node">
<title>end</title>
</g>
<!-- c423e64d&#45;cde2&#45;4ee5&#45;9379&#45;a1efaca3bc3a -->
<g id="node4" class="node">
<title>c423e64d&#45;cde2&#45;4ee5&#45;9379&#45;a1efaca3bc3a</title>
<ellipse fill="white" stroke="black" cx="543.5" cy="-99.87" rx="84.71" ry="26.74"/>
<text text-anchor="middle" x="543.5" y="-103.67" font-family="Helvetica,sans-Serif" font-size="14.00">▶ Modify</text>
<text text-anchor="middle" x="543.5" y="-88.67" font-family="Helvetica,sans-Serif" font-size="14.00">sweepai/api.py</text>
</g>
<!-- e0830dfd&#45;162b&#45;4228&#45;947d&#45;27283e9ccfd7&#45;&gt;c423e64d&#45;cde2&#45;4ee5&#45;9379&#45;a1efaca3bc3a -->
<g id="edge2" class="edge">
<title>e0830dfd&#45;162b&#45;4228&#45;947d&#45;27283e9ccfd7&#45;&gt;c423e64d&#45;cde2&#45;4ee5&#45;9379&#45;a1efaca3bc3a</title>
<path fill="none" stroke="black" d="M391.5,-99.87C410.11,-99.87 428.73,-99.87 447.34,-99.87"/>
<polygon fill="black" stroke="black" points="447.3,-103.37 457.3,-99.87 447.3,-96.37 447.3,-103.37"/>
</g>
<!-- d23ca2b9&#45;c9bd&#45;43ce&#45;bc0f&#45;44d37fb434e7 -->
<g id="node7" class="node">
<title>d23ca2b9&#45;c9bd&#45;43ce&#45;bc0f&#45;44d37fb434e7</title>
<polygon fill="yellow" stroke="black" points="389,-36 0,-36 0,0 389,0 389,-36"/>
<text text-anchor="middle" x="194.5" y="-14.3" font-family="Helvetica,sans-Serif" font-size="14.00">⋯ Ran sandbox for `sweepai/handlers/on_merge.py`.</text>
</g>
<!-- e0830dfd&#45;162b&#45;4228&#45;947d&#45;27283e9ccfd7&#45;&gt;d23ca2b9&#45;c9bd&#45;43ce&#45;bc0f&#45;44d37fb434e7 -->
<g id="edge1" class="edge">
<title>e0830dfd&#45;162b&#45;4228&#45;947d&#45;27283e9ccfd7&#45;&gt;d23ca2b9&#45;c9bd&#45;43ce&#45;bc0f&#45;44d37fb434e7</title>
<path fill="none" stroke="black" stroke-dasharray="5,2" d="M216.02,-72.72C212.6,-64.18 208.8,-54.68 205.35,-46.08"/>
<polygon fill="black" stroke="black" points="208.34,-45.13 201.37,-37.15 201.84,-47.73 208.34,-45.13"/>
</g>
<!-- 43212b2c&#45;fb2b&#45;4f46&#45;b0fc&#45;03ec51d56de5 -->
<g id="node5" class="node">
<title>43212b2c&#45;fb2b&#45;4f46&#45;b0fc&#45;03ec51d56de5</title>
<ellipse fill="white" stroke="black" cx="833.5" cy="-99.87" rx="84.71" ry="26.74"/>
<text text-anchor="middle" x="833.5" y="-103.67" font-family="Helvetica,sans-Serif" font-size="14.00">▶ Modify</text>
<text text-anchor="middle" x="833.5" y="-88.67" font-family="Helvetica,sans-Serif" font-size="14.00">sweepai/api.py</text>
</g>
<!-- c423e64d&#45;cde2&#45;4ee5&#45;9379&#45;a1efaca3bc3a&#45;&gt;43212b2c&#45;fb2b&#45;4f46&#45;b0fc&#45;03ec51d56de5 -->
<g id="edge4" class="edge">
<title>c423e64d&#45;cde2&#45;4ee5&#45;9379&#45;a1efaca3bc3a&#45;&gt;43212b2c&#45;fb2b&#45;4f46&#45;b0fc&#45;03ec51d56de5</title>
<path fill="none" stroke="black" d="M628.46,-99.87C664.91,-99.87 701.36,-99.87 737.81,-99.87"/>
<polygon fill="black" stroke="black" points="737.6,-103.37 747.6,-99.87 737.6,-96.37 737.6,-103.37"/>
</g>
<!-- fa4a221c&#45;181e&#45;4e0b&#45;81d4&#45;31f211f18f9f -->
<g id="node8" class="node">
<title>fa4a221c&#45;181e&#45;4e0b&#45;81d4&#45;31f211f18f9f</title>
<polygon fill="white" stroke="black" points="679.5,-36 407.5,-36 407.5,0 679.5,0 679.5,-36"/>
<text text-anchor="middle" x="543.5" y="-14.3" font-family="Helvetica,sans-Serif" font-size="14.00">▶ Ran sandbox for `sweepai/api.py`.</text>
</g>
<!-- c423e64d&#45;cde2&#45;4ee5&#45;9379&#45;a1efaca3bc3a&#45;&gt;fa4a221c&#45;181e&#45;4e0b&#45;81d4&#45;31f211f18f9f -->
<g id="edge3" class="edge">
<title>c423e64d&#45;cde2&#45;4ee5&#45;9379&#45;a1efaca3bc3a&#45;&gt;fa4a221c&#45;181e&#45;4e0b&#45;81d4&#45;31f211f18f9f</title>
<path fill="none" stroke="black" stroke-dasharray="5,2" d="M543.5,-72.72C543.5,-64.46 543.5,-55.31 543.5,-46.93"/>
<polygon fill="black" stroke="black" points="547,-47.15 543.5,-37.15 540,-47.15 547,-47.15"/>
</g>
<!-- 99efe44a&#45;f5f0&#45;4b9d&#45;82b5&#45;75829189e353 -->
<g id="node6" class="node">
<title>99efe44a&#45;f5f0&#45;4b9d&#45;82b5&#45;75829189e353</title>
<ellipse fill="white" stroke="black" cx="1119.5" cy="-99.87" rx="130.22" ry="26.74"/>
<text text-anchor="middle" x="1119.5" y="-103.67" font-family="Helvetica,sans-Serif" font-size="14.00">▶ Modify</text>
<text text-anchor="middle" x="1119.5" y="-88.67" font-family="Helvetica,sans-Serif" font-size="14.00">sweepai/config/client.py</text>
</g>
<!-- 43212b2c&#45;fb2b&#45;4f46&#45;b0fc&#45;03ec51d56de5&#45;&gt;99efe44a&#45;f5f0&#45;4b9d&#45;82b5&#45;75829189e353 -->
<g id="edge6" class="edge">
<title>43212b2c&#45;fb2b&#45;4f46&#45;b0fc&#45;03ec51d56de5&#45;&gt;99efe44a&#45;f5f0&#45;4b9d&#45;82b5&#45;75829189e353</title>
<path fill="none" stroke="black" d="M918.69,-99.87C938.43,-99.87 958.18,-99.87 977.92,-99.87"/>
<polygon fill="black" stroke="black" points="977.89,-103.37 987.89,-99.87 977.89,-96.37 977.89,-103.37"/>
</g>
<!-- 483e0cc1&#45;c9a0&#45;4bad&#45;8439&#45;e693953d7122 -->
<g id="node9" class="node">
<title>483e0cc1&#45;c9a0&#45;4bad&#45;8439&#45;e693953d7122</title>
<polygon fill="white" stroke="black" points="969.5,-36 697.5,-36 697.5,0 969.5,0 969.5,-36"/>
<text text-anchor="middle" x="833.5" y="-14.3" font-family="Helvetica,sans-Serif" font-size="14.00">▶ Ran sandbox for `sweepai/api.py`.</text>
</g>
<!-- 43212b2c&#45;fb2b&#45;4f46&#45;b0fc&#45;03ec51d56de5&#45;&gt;483e0cc1&#45;c9a0&#45;4bad&#45;8439&#45;e693953d7122 -->
<g id="edge5" class="edge">
<title>43212b2c&#45;fb2b&#45;4f46&#45;b0fc&#45;03ec51d56de5&#45;&gt;483e0cc1&#45;c9a0&#45;4bad&#45;8439&#45;e693953d7122</title>
<path fill="none" stroke="black" stroke-dasharray="5,2" d="M833.5,-72.72C833.5,-64.46 833.5,-55.31 833.5,-46.93"/>
<polygon fill="black" stroke="black" points="837,-47.15 833.5,-37.15 830,-47.15 837,-47.15"/>
</g>
<!-- 99efe44a&#45;f5f0&#45;4b9d&#45;82b5&#45;75829189e353&#45;&gt;end -->
<g id="edge9" class="edge">
<title>99efe44a&#45;f5f0&#45;4b9d&#45;82b5&#45;75829189e353&#45;&gt;end</title>
<path fill="none" stroke="black" d="M1250.07,-99.87C1269.34,-99.87 1286.18,-99.87 1296.55,-99.87"/>
<polygon fill="black" stroke="black" points="1296.21,-103.37 1306.21,-99.87 1296.21,-96.37 1296.21,-103.37"/>
<text text-anchor="middle" x="1278.3" y="-106.67" font-family="Helvetica,sans-Serif" font-size="14.00">Finish</text>
</g>
<!-- 8ca3f64a&#45;8b5b&#45;49ab&#45;b83c&#45;bb663aa888b9 -->
<g id="node10" class="node">
<title>8ca3f64a&#45;8b5b&#45;49ab&#45;b83c&#45;bb663aa888b9</title>
<polygon fill="white" stroke="black" points="1323.5,-36 987.5,-36 987.5,0 1323.5,0 1323.5,-36"/>
<text text-anchor="middle" x="1155.5" y="-14.3" font-family="Helvetica,sans-Serif" font-size="14.00">▶ Ran sandbox for `sweepai/config/client.py`.</text>
</g>
<!-- 99efe44a&#45;f5f0&#45;4b9d&#45;82b5&#45;75829189e353&#45;&gt;8ca3f64a&#45;8b5b&#45;49ab&#45;b83c&#45;bb663aa888b9 -->
<g id="edge7" class="edge">
<title>99efe44a&#45;f5f0&#45;4b9d&#45;82b5&#45;75829189e353&#45;&gt;8ca3f64a&#45;8b5b&#45;49ab&#45;b83c&#45;bb663aa888b9</title>
<path fill="none" stroke="black" stroke-dasharray="5,2" d="M1131.09,-73.16C1134.95,-64.6 1139.26,-55.04 1143.17,-46.36"/>
<polygon fill="black" stroke="black" points="1146.77,-47.89 1147.69,-37.34 1140.39,-45.02 1146.77,-47.89"/>
</g>
</g>
</svg>
