<?xml version="1.0" encoding="UTF-8" standalone="no"?>
<!DOCTYPE svg PUBLIC "-//W3C//DTD SVG 1.1//EN"
 "http://www.w3.org/Graphics/SVG/1.1/DTD/svg11.dtd">
<!-- Generated by graphviz version 2.43.0 (0)
 -->
<!-- Title: %3 Pages: 1 -->
<svg width="1390pt" height="238pt"
 viewBox="0.00 0.00 1389.50 237.74" xmlns="http://www.w3.org/2000/svg" xmlns:xlink="http://www.w3.org/1999/xlink">
<g id="graph0" class="graph" transform="scale(1 1) rotate(0) translate(36 201.74)">
<title>%3</title>
<polygon fill="dimgray" stroke="transparent" points="-36,36 -36,-201.74 1353.5,-201.74 1353.5,36 -36,36"/>
<text text-anchor="middle" x="658.75" y="-150.54" font-family="Helvetica,sans-Serif" font-size="14.00">Sweep&#39;s Plan &amp; Progress</text>
<!-- start -->
<g id="node1" class="node">
<title>start</title>
</g>
<!-- 76351002&#45;f660&#45;4758&#45;ba0c&#45;7bbbbe8d0c27 -->
<g id="node3" class="node">
<title>76351002&#45;f660&#45;4758&#45;ba0c&#45;7bbbbe8d0c27</title>
<ellipse fill="#0ee832" stroke="black" cx="250.5" cy="-99.87" rx="162.77" ry="26.74"/>
<text text-anchor="middle" x="250.5" y="-103.67" font-family="Helvetica,sans-Serif" font-size="14.00">✓ Create</text>
<text text-anchor="middle" x="250.5" y="-88.67" font-family="Helvetica,sans-Serif" font-size="14.00">sweepai/agents/filter_agent.py</text>
</g>
<!-- start&#45;&gt;76351002&#45;f660&#45;4758&#45;ba0c&#45;7bbbbe8d0c27 -->
<g id="edge6" class="edge">
<title>start&#45;&gt;76351002&#45;f660&#45;4758&#45;ba0c&#45;7bbbbe8d0c27</title>
<path fill="none" stroke="black" d="M36.12,-99.87C39.4,-99.87 55.5,-99.87 77.52,-99.87"/>
<polygon fill="black" stroke="black" points="77.67,-103.37 87.67,-99.87 77.67,-96.37 77.67,-103.37"/>
<text text-anchor="middle" x="61.93" y="-106.67" font-family="Helvetica,sans-Serif" font-size="14.00">Start</text>
</g>
<!-- end -->
<g id="node2" class="node">
<title>end</title>
</g>
<!-- 99f8e3e4&#45;dce3&#45;431b&#45;8f4d&#45;a23e6e4273ce -->
<g id="node4" class="node">
<title>99f8e3e4&#45;dce3&#45;431b&#45;8f4d&#45;a23e6e4273ce</title>
<ellipse fill="#0ee832" stroke="black" cx="672.5" cy="-99.87" rx="185.94" ry="26.74"/>
<text text-anchor="middle" x="672.5" y="-103.67" font-family="Helvetica,sans-Serif" font-size="14.00">✓ Create</text>
<text text-anchor="middle" x="672.5" y="-88.67" font-family="Helvetica,sans-Serif" font-size="14.00">sweepai/agents/filter_agent_test.py</text>
</g>
<!-- 76351002&#45;f660&#45;4758&#45;ba0c&#45;7bbbbe8d0c27&#45;&gt;99f8e3e4&#45;dce3&#45;431b&#45;8f4d&#45;a23e6e4273ce -->
<g id="edge2" class="edge">
<title>76351002&#45;f660&#45;4758&#45;ba0c&#45;7bbbbe8d0c27&#45;&gt;99f8e3e4&#45;dce3&#45;431b&#45;8f4d&#45;a23e6e4273ce</title>
<path fill="none" stroke="black" d="M413.28,-99.87C434.34,-99.87 455.39,-99.87 476.44,-99.87"/>
<polygon fill="black" stroke="black" points="476.44,-103.37 486.44,-99.87 476.44,-96.37 476.44,-103.37"/>
</g>
<!-- 04d8292c&#45;84de&#45;47b1&#45;8e22&#45;504d54dfc0f7 -->
<g id="node6" class="node">
<title>04d8292c&#45;84de&#45;47b1&#45;8e22&#45;504d54dfc0f7</title>
<polygon fill="yellow" stroke="black" points="425,-36 0,-36 0,0 425,0 425,-36"/>
<text text-anchor="middle" x="212.5" y="-14.3" font-family="Helvetica,sans-Serif" font-size="14.00">⋯ Run GitHub Actions for `sweepai/agents/filter_agent.py`</text>
</g>
<!-- 76351002&#45;f660&#45;4758&#45;ba0c&#45;7bbbbe8d0c27&#45;&gt;04d8292c&#45;84de&#45;47b1&#45;8e22&#45;504d54dfc0f7 -->
<g id="edge1" class="edge">
<title>76351002&#45;f660&#45;4758&#45;ba0c&#45;7bbbbe8d0c27&#45;&gt;04d8292c&#45;84de&#45;47b1&#45;8e22&#45;504d54dfc0f7</title>
<path fill="none" stroke="black" stroke-dasharray="5,2" d="M238.06,-72.72C233.86,-63.9 229.18,-54.05 224.98,-45.23"/>
<polygon fill="black" stroke="black" points="228.11,-43.67 220.66,-36.15 221.79,-46.68 228.11,-43.67"/>
</g>
<!-- c08472ba&#45;4e06&#45;4fe3&#45;8e24&#45;5b35931169d8 -->
<g id="node5" class="node">
<title>c08472ba&#45;4e06&#45;4fe3&#45;8e24&#45;5b35931169d8</title>
<ellipse fill="white" stroke="black" cx="1079.5" cy="-99.87" rx="145.83" ry="26.74"/>
<text text-anchor="middle" x="1079.5" y="-103.67" font-family="Helvetica,sans-Serif" font-size="14.00">▶ Modify</text>
<text text-anchor="middle" x="1079.5" y="-88.67" font-family="Helvetica,sans-Serif" font-size="14.00">sweepai/utils/ticket_utils.py</text>
</g>
<!-- 99f8e3e4&#45;dce3&#45;431b&#45;8f4d&#45;a23e6e4273ce&#45;&gt;c08472ba&#45;4e06&#45;4fe3&#45;8e24&#45;5b35931169d8 -->
<g id="edge4" class="edge">
<title>99f8e3e4&#45;dce3&#45;431b&#45;8f4d&#45;a23e6e4273ce&#45;&gt;c08472ba&#45;4e06&#45;4fe3&#45;8e24&#45;5b35931169d8</title>
<path fill="none" stroke="black" d="M858.51,-99.87C880.12,-99.87 901.73,-99.87 923.35,-99.87"/>
<polygon fill="black" stroke="black" points="923.61,-103.37 933.61,-99.87 923.61,-96.37 923.61,-103.37"/>
</g>
<!-- c9c14804&#45;4c3a&#45;4d27&#45;97d4&#45;86f4bca5e543 -->
<g id="node7" class="node">
<title>c9c14804&#45;4c3a&#45;4d27&#45;97d4&#45;86f4bca5e543</title>
<polygon fill="yellow" stroke="black" points="901.5,-36 443.5,-36 443.5,0 901.5,0 901.5,-36"/>
<text text-anchor="middle" x="672.5" y="-14.3" font-family="Helvetica,sans-Serif" font-size="14.00">⋯ Run GitHub Actions for `sweepai/agents/filter_agent_test.py`</text>
</g>
<!-- 99f8e3e4&#45;dce3&#45;431b&#45;8f4d&#45;a23e6e4273ce&#45;&gt;c9c14804&#45;4c3a&#45;4d27&#45;97d4&#45;86f4bca5e543 -->
<g id="edge3" class="edge">
<title>99f8e3e4&#45;dce3&#45;431b&#45;8f4d&#45;a23e6e4273ce&#45;&gt;c9c14804&#45;4c3a&#45;4d27&#45;97d4&#45;86f4bca5e543</title>
<path fill="none" stroke="black" stroke-dasharray="5,2" d="M672.5,-72.72C672.5,-64.27 672.5,-54.89 672.5,-46.36"/>
<polygon fill="black" stroke="black" points="676,-46.15 672.5,-36.15 669,-46.15 676,-46.15"/>
</g>
<!-- c08472ba&#45;4e06&#45;4fe3&#45;8e24&#45;5b35931169d8&#45;&gt;end -->
<g id="edge7" class="edge">
<title>c08472ba&#45;4e06&#45;4fe3&#45;8e24&#45;5b35931169d8&#45;&gt;end</title>
<path fill="none" stroke="black" d="M1225.31,-99.87C1245.07,-99.87 1262.12,-99.87 1272.57,-99.87"/>
<polygon fill="black" stroke="black" points="1272.85,-103.37 1282.85,-99.87 1272.85,-96.37 1272.85,-103.37"/>
<text text-anchor="middle" x="1254.08" y="-106.67" font-family="Helvetica,sans-Serif" font-size="14.00">Finish</text>
</g>
<!-- 6deb25fc&#45;2f17&#45;405a&#45;98df&#45;f72ce606ea7b -->
<g id="node8" class="node">
<title>6deb25fc&#45;2f17&#45;405a&#45;98df&#45;f72ce606ea7b</title>
<polygon fill="white" stroke="black" points="1317.5,-36 919.5,-36 919.5,0 1317.5,0 1317.5,-36"/>
<text text-anchor="middle" x="1118.5" y="-14.3" font-family="Helvetica,sans-Serif" font-size="14.00">▶ Run GitHub Actions for `sweepai/utils/ticket_utils.py`</text>
</g>
<!-- c08472ba&#45;4e06&#45;4fe3&#45;8e24&#45;5b35931169d8&#45;&gt;6deb25fc&#45;2f17&#45;405a&#45;98df&#45;f72ce606ea7b -->
<g id="edge5" class="edge">
<title>c08472ba&#45;4e06&#45;4fe3&#45;8e24&#45;5b35931169d8&#45;&gt;6deb25fc&#45;2f17&#45;405a&#45;98df&#45;f72ce606ea7b</title>
<path fill="none" stroke="black" stroke-dasharray="5,2" d="M1092.27,-72.72C1096.58,-63.9 1101.38,-54.05 1105.69,-45.23"/>
<polygon fill="black" stroke="black" points="1108.88,-46.67 1110.13,-36.15 1102.59,-43.6 1108.88,-46.67"/>
</g>
</g>
</svg>
