<?xml version="1.0" encoding="UTF-8" standalone="no"?>
<!DOCTYPE svg PUBLIC "-//W3C//DTD SVG 1.1//EN"
 "http://www.w3.org/Graphics/SVG/1.1/DTD/svg11.dtd">
<!-- Generated by graphviz version 2.43.0 (0)
 -->
<!-- Title: %3 Pages: 1 -->
<svg width="1685pt" height="238pt"
 viewBox="0.00 0.00 1685.00 237.74" xmlns="http://www.w3.org/2000/svg" xmlns:xlink="http://www.w3.org/1999/xlink">
<g id="graph0" class="graph" transform="scale(1 1) rotate(0) translate(36 201.74)">
<title>%3</title>
<polygon fill="dimgray" stroke="transparent" points="-36,36 -36,-201.74 1649,-201.74 1649,36 -36,36"/>
<text text-anchor="middle" x="806.5" y="-150.54" font-family="Helvetica,sans-Serif" font-size="14.00">Sweep&#39;s Plan &amp; Progress</text>
<!-- start -->
<g id="node1" class="node">
<title>start</title>
</g>
<!-- f72be58b&#45;1079&#45;4c24&#45;83cb&#45;f13bb396b209 -->
<g id="node3" class="node">
<title>f72be58b&#45;1079&#45;4c24&#45;83cb&#45;f13bb396b209</title>
<ellipse fill="#0ee832" stroke="black" cx="232.5" cy="-99.87" rx="179.71" ry="26.74"/>
<text text-anchor="middle" x="232.5" y="-103.67" font-family="Helvetica,sans-Serif" font-size="14.00">✓ Modify</text>
<text text-anchor="middle" x="232.5" y="-88.67" font-family="Helvetica,sans-Serif" font-size="14.00">sweepai/handlers/on_comment.py</text>
</g>
<!-- start&#45;&gt;f72be58b&#45;1079&#45;4c24&#45;83cb&#45;f13bb396b209 -->
<g id="edge8" class="edge">
<title>start&#45;&gt;f72be58b&#45;1079&#45;4c24&#45;83cb&#45;f13bb396b209</title>
<path fill="none" stroke="black" d="M1.17,-99.87C4.55,-99.87 20.52,-99.87 42.62,-99.87"/>
<polygon fill="black" stroke="black" points="42.82,-103.37 52.82,-99.87 42.82,-96.37 42.82,-103.37"/>
<text text-anchor="middle" x="26.95" y="-106.67" font-family="Helvetica,sans-Serif" font-size="14.00">Start</text>
</g>
<!-- end -->
<g id="node2" class="node">
<title>end</title>
</g>
<!-- a357cd21&#45;df21&#45;4037&#45;a1b1&#45;66ccb7842f5b -->
<g id="node4" class="node">
<title>a357cd21&#45;df21&#45;4037&#45;a1b1&#45;66ccb7842f5b</title>
<ellipse fill="white" stroke="black" cx="626.5" cy="-99.87" rx="159.61" ry="26.74"/>
<text text-anchor="middle" x="626.5" y="-103.67" font-family="Helvetica,sans-Serif" font-size="14.00">▶ Modify</text>
<text text-anchor="middle" x="626.5" y="-88.67" font-family="Helvetica,sans-Serif" font-size="14.00">sweepai/handlers/on_ticket.py</text>
</g>
<!-- f72be58b&#45;1079&#45;4c24&#45;83cb&#45;f13bb396b209&#45;&gt;a357cd21&#45;df21&#45;4037&#45;a1b1&#45;66ccb7842f5b -->
<g id="edge2" class="edge">
<title>f72be58b&#45;1079&#45;4c24&#45;83cb&#45;f13bb396b209&#45;&gt;a357cd21&#45;df21&#45;4037&#45;a1b1&#45;66ccb7842f5b</title>
<path fill="none" stroke="black" d="M412.19,-99.87C426.92,-99.87 441.66,-99.87 456.4,-99.87"/>
<polygon fill="black" stroke="black" points="456.6,-103.37 466.6,-99.87 456.6,-96.37 456.6,-103.37"/>
</g>
<!-- a87bebe1&#45;f627&#45;41e4&#45;9efb&#45;49bde450afdc -->
<g id="node7" class="node">
<title>a87bebe1&#45;f627&#45;41e4&#45;9efb&#45;49bde450afdc</title>
<polygon fill="yellow" stroke="black" points="419.5,-36 9.5,-36 9.5,0 419.5,0 419.5,-36"/>
<text text-anchor="middle" x="214.5" y="-14.3" font-family="Helvetica,sans-Serif" font-size="14.00">⋯ Ran sandbox for `sweepai/handlers/on_comment.py`.</text>
</g>
<!-- f72be58b&#45;1079&#45;4c24&#45;83cb&#45;f13bb396b209&#45;&gt;a87bebe1&#45;f627&#45;41e4&#45;9efb&#45;49bde450afdc -->
<g id="edge1" class="edge">
<title>f72be58b&#45;1079&#45;4c24&#45;83cb&#45;f13bb396b209&#45;&gt;a87bebe1&#45;f627&#45;41e4&#45;9efb&#45;49bde450afdc</title>
<path fill="none" stroke="black" stroke-dasharray="5,2" d="M226.61,-72.72C224.68,-64.18 222.54,-54.68 220.6,-46.08"/>
<polygon fill="black" stroke="black" points="223.98,-45.13 218.36,-36.15 217.15,-46.67 223.98,-45.13"/>
</g>
<!-- ede76a57&#45;c14f&#45;496f&#45;8ace&#45;8509d36e1f0a -->
<g id="node5" class="node">
<title>ede76a57&#45;c14f&#45;496f&#45;8ace&#45;8509d36e1f0a</title>
<ellipse fill="white" stroke="black" cx="1013.5" cy="-99.87" rx="145.83" ry="26.74"/>
<text text-anchor="middle" x="1013.5" y="-103.67" font-family="Helvetica,sans-Serif" font-size="14.00">▶ Modify</text>
<text text-anchor="middle" x="1013.5" y="-88.67" font-family="Helvetica,sans-Serif" font-size="14.00">sweepai/core/sweep_bot.py</text>
</g>
<!-- a357cd21&#45;df21&#45;4037&#45;a1b1&#45;66ccb7842f5b&#45;&gt;ede76a57&#45;c14f&#45;496f&#45;8ace&#45;8509d36e1f0a -->
<g id="edge4" class="edge">
<title>a357cd21&#45;df21&#45;4037&#45;a1b1&#45;66ccb7842f5b&#45;&gt;ede76a57&#45;c14f&#45;496f&#45;8ace&#45;8509d36e1f0a</title>
<path fill="none" stroke="black" d="M786.36,-99.87C810.04,-99.87 833.72,-99.87 857.4,-99.87"/>
<polygon fill="black" stroke="black" points="857.55,-103.37 867.55,-99.87 857.55,-96.37 857.55,-103.37"/>
</g>
<!-- c61b6839&#45;cff3&#45;465b&#45;aa55&#45;f5223c4337d1 -->
<g id="node8" class="node">
<title>c61b6839&#45;cff3&#45;465b&#45;aa55&#45;f5223c4337d1</title>
<polygon fill="white" stroke="black" points="815.5,-36 437.5,-36 437.5,0 815.5,0 815.5,-36"/>
<text text-anchor="middle" x="626.5" y="-14.3" font-family="Helvetica,sans-Serif" font-size="14.00">▶ Ran sandbox for `sweepai/handlers/on_ticket.py`.</text>
</g>
<!-- a357cd21&#45;df21&#45;4037&#45;a1b1&#45;66ccb7842f5b&#45;&gt;c61b6839&#45;cff3&#45;465b&#45;aa55&#45;f5223c4337d1 -->
<g id="edge3" class="edge">
<title>a357cd21&#45;df21&#45;4037&#45;a1b1&#45;66ccb7842f5b&#45;&gt;c61b6839&#45;cff3&#45;465b&#45;aa55&#45;f5223c4337d1</title>
<path fill="none" stroke="black" stroke-dasharray="5,2" d="M626.5,-72.72C626.5,-64.27 626.5,-54.89 626.5,-46.36"/>
<polygon fill="black" stroke="black" points="630,-46.15 626.5,-36.15 623,-46.15 630,-46.15"/>
</g>
<!-- e9d10c05&#45;39af&#45;40cf&#45;814b&#45;e941fedb183e -->
<g id="node6" class="node">
<title>e9d10c05&#45;39af&#45;40cf&#45;814b&#45;e941fedb183e</title>
<ellipse fill="white" stroke="black" cx="1385.5" cy="-99.87" rx="169" ry="26.74"/>
<text text-anchor="middle" x="1385.5" y="-103.67" font-family="Helvetica,sans-Serif" font-size="14.00">▶ Create</text>
<text text-anchor="middle" x="1385.5" y="-88.67" font-family="Helvetica,sans-Serif" font-size="14.00">sweepai/core/sweep_bot_test.py</text>
</g>
<!-- ede76a57&#45;c14f&#45;496f&#45;8ace&#45;8509d36e1f0a&#45;&gt;e9d10c05&#45;39af&#45;40cf&#45;814b&#45;e941fedb183e -->
<g id="edge6" class="edge">
<title>ede76a57&#45;c14f&#45;496f&#45;8ace&#45;8509d36e1f0a&#45;&gt;e9d10c05&#45;39af&#45;40cf&#45;814b&#45;e941fedb183e</title>
<path fill="none" stroke="black" d="M1159.18,-99.87C1174.77,-99.87 1190.36,-99.87 1205.95,-99.87"/>
<polygon fill="black" stroke="black" points="1206.2,-103.37 1216.2,-99.87 1206.2,-96.37 1206.2,-103.37"/>
</g>
<!-- 216edf46&#45;9677&#45;4d91&#45;abd0&#45;8d3afa8ee17a -->
<g id="node9" class="node">
<title>216edf46&#45;9677&#45;4d91&#45;abd0&#45;8d3afa8ee17a</title>
<polygon fill="white" stroke="black" points="1193,-36 834,-36 834,0 1193,0 1193,-36"/>
<text text-anchor="middle" x="1013.5" y="-14.3" font-family="Helvetica,sans-Serif" font-size="14.00">▶ Ran sandbox for `sweepai/core/sweep_bot.py`.</text>
</g>
<!-- ede76a57&#45;c14f&#45;496f&#45;8ace&#45;8509d36e1f0a&#45;&gt;216edf46&#45;9677&#45;4d91&#45;abd0&#45;8d3afa8ee17a -->
<g id="edge5" class="edge">
<title>ede76a57&#45;c14f&#45;496f&#45;8ace&#45;8509d36e1f0a&#45;&gt;216edf46&#45;9677&#45;4d91&#45;abd0&#45;8d3afa8ee17a</title>
<path fill="none" stroke="black" stroke-dasharray="5,2" d="M1013.5,-72.72C1013.5,-64.27 1013.5,-54.89 1013.5,-46.36"/>
<polygon fill="black" stroke="black" points="1017,-46.15 1013.5,-36.15 1010,-46.15 1017,-46.15"/>
</g>
<!-- e9d10c05&#45;39af&#45;40cf&#45;814b&#45;e941fedb183e&#45;&gt;end -->
<g id="edge9" class="edge">
<title>e9d10c05&#45;39af&#45;40cf&#45;814b&#45;e941fedb183e&#45;&gt;end</title>
<path fill="none" stroke="black" d="M1554.63,-99.87C1574.57,-99.87 1591.47,-99.87 1601.77,-99.87"/>
<polygon fill="black" stroke="black" points="1601.86,-103.37 1611.86,-99.87 1601.86,-96.37 1601.86,-103.37"/>
<text text-anchor="middle" x="1583.25" y="-106.67" font-family="Helvetica,sans-Serif" font-size="14.00">Finish</text>
</g>
<!-- aef4e22a&#45;7e47&#45;4c57&#45;8f2e&#45;871becf79ce3 -->
<g id="node10" class="node">
<title>aef4e22a&#45;7e47&#45;4c57&#45;8f2e&#45;871becf79ce3</title>
<polygon fill="white" stroke="black" points="1603.5,-36 1211.5,-36 1211.5,0 1603.5,0 1603.5,-36"/>
<text text-anchor="middle" x="1407.5" y="-14.3" font-family="Helvetica,sans-Serif" font-size="14.00">▶ Ran sandbox for `sweepai/core/sweep_bot_test.py`.</text>
</g>
<!-- e9d10c05&#45;39af&#45;40cf&#45;814b&#45;e941fedb183e&#45;&gt;aef4e22a&#45;7e47&#45;4c57&#45;8f2e&#45;871becf79ce3 -->
<g id="edge7" class="edge">
<title>e9d10c05&#45;39af&#45;40cf&#45;814b&#45;e941fedb183e&#45;&gt;aef4e22a&#45;7e47&#45;4c57&#45;8f2e&#45;871becf79ce3</title>
<path fill="none" stroke="black" stroke-dasharray="5,2" d="M1392.7,-72.72C1395.08,-64.08 1397.73,-54.47 1400.12,-45.79"/>
<polygon fill="black" stroke="black" points="1403.5,-46.72 1402.78,-36.15 1396.75,-44.86 1403.5,-46.72"/>
</g>
</g>
</svg>
