<?xml version="1.0" encoding="UTF-8" standalone="no"?>
<!DOCTYPE svg PUBLIC "-//W3C//DTD SVG 1.1//EN"
 "http://www.w3.org/Graphics/SVG/1.1/DTD/svg11.dtd">
<!-- Generated by graphviz version 2.43.0 (0)
 -->
<!-- Title: %3 Pages: 1 -->
<svg width="944pt" height="238pt"
 viewBox="0.00 0.00 944.00 237.74" xmlns="http://www.w3.org/2000/svg" xmlns:xlink="http://www.w3.org/1999/xlink">
<g id="graph0" class="graph" transform="scale(1 1) rotate(0) translate(36 201.74)">
<title>%3</title>
<polygon fill="dimgray" stroke="transparent" points="-36,36 -36,-201.74 908,-201.74 908,36 -36,36"/>
<text text-anchor="middle" x="436" y="-150.54" font-family="Helvetica,sans-Serif" font-size="14.00">Sweep&#39;s Plan &amp; Progress</text>
<!-- start -->
<g id="node1" class="node">
<title>start</title>
</g>
<!-- 5216d38c&#45;bd38&#45;45aa&#45;9e6c&#45;015e2af461d1 -->
<g id="node3" class="node">
<title>5216d38c&#45;bd38&#45;45aa&#45;9e6c&#45;015e2af461d1</title>
<ellipse fill="#0ee832" stroke="black" cx="266.5" cy="-99.87" rx="183.7" ry="26.74"/>
<text text-anchor="middle" x="266.5" y="-103.67" font-family="Helvetica,sans-Serif" font-size="14.00">✓ Create</text>
<text text-anchor="middle" x="266.5" y="-88.67" font-family="Helvetica,sans-Serif" font-size="14.00">sweepai/agents/key_term_agent.py</text>
</g>
<!-- start&#45;&gt;5216d38c&#45;bd38&#45;45aa&#45;9e6c&#45;015e2af461d1 -->
<g id="edge4" class="edge">
<title>start&#45;&gt;5216d38c&#45;bd38&#45;45aa&#45;9e6c&#45;015e2af461d1</title>
<path fill="none" stroke="black" d="M31.18,-99.87C34.57,-99.87 50.42,-99.87 72.43,-99.87"/>
<polygon fill="black" stroke="black" points="72.58,-103.37 82.58,-99.87 72.58,-96.37 72.58,-103.37"/>
<text text-anchor="middle" x="56.83" y="-106.67" font-family="Helvetica,sans-Serif" font-size="14.00">Start</text>
</g>
<!-- end -->
<g id="node2" class="node">
<title>end</title>
</g>
<!-- c7741ccc&#45;b897&#45;452f&#45;be53&#45;ac1906762f9a -->
<g id="node4" class="node">
<title>c7741ccc&#45;b897&#45;452f&#45;be53&#45;ac1906762f9a</title>
<ellipse fill="#0ee832" stroke="black" cx="651.5" cy="-99.87" rx="145.83" ry="26.74"/>
<text text-anchor="middle" x="651.5" y="-103.67" font-family="Helvetica,sans-Serif" font-size="14.00">✓ Modify</text>
<text text-anchor="middle" x="651.5" y="-88.67" font-family="Helvetica,sans-Serif" font-size="14.00">sweepai/utils/ticket_utils.py</text>
</g>
<!-- 5216d38c&#45;bd38&#45;45aa&#45;9e6c&#45;015e2af461d1&#45;&gt;c7741ccc&#45;b897&#45;452f&#45;be53&#45;ac1906762f9a -->
<g id="edge2" class="edge">
<title>5216d38c&#45;bd38&#45;45aa&#45;9e6c&#45;015e2af461d1&#45;&gt;c7741ccc&#45;b897&#45;452f&#45;be53&#45;ac1906762f9a</title>
<path fill="none" stroke="black" d="M450.35,-99.87C465.36,-99.87 480.36,-99.87 495.36,-99.87"/>
<polygon fill="black" stroke="black" points="495.75,-103.37 505.75,-99.87 495.75,-96.37 495.75,-103.37"/>
</g>
<!-- 6aa76c96&#45;24ac&#45;4492&#45;bc0b&#45;9a7a6d0d39db -->
<g id="node5" class="node">
<title>6aa76c96&#45;24ac&#45;4492&#45;bc0b&#45;9a7a6d0d39db</title>
<polygon fill="#ee0000" stroke="black" points="453,-36 0,-36 0,0 453,0 453,-36"/>
<text text-anchor="middle" x="226.5" y="-14.3" font-family="Helvetica,sans-Serif" font-size="14.00">✗ Run GitHub Actions for `sweepai/agents/key_term_agent.py`</text>
</g>
<!-- 5216d38c&#45;bd38&#45;45aa&#45;9e6c&#45;015e2af461d1&#45;&gt;6aa76c96&#45;24ac&#45;4492&#45;bc0b&#45;9a7a6d0d39db -->
<g id="edge1" class="edge">
<title>5216d38c&#45;bd38&#45;45aa&#45;9e6c&#45;015e2af461d1&#45;&gt;6aa76c96&#45;24ac&#45;4492&#45;bc0b&#45;9a7a6d0d39db</title>
<path fill="none" stroke="black" stroke-dasharray="5,2" d="M253.4,-72.72C248.99,-63.9 244.06,-54.05 239.64,-45.23"/>
<polygon fill="black" stroke="black" points="242.69,-43.52 235.09,-36.15 236.44,-46.66 242.69,-43.52"/>
</g>
<!-- c7741ccc&#45;b897&#45;452f&#45;be53&#45;ac1906762f9a&#45;&gt;end -->
<g id="edge5" class="edge">
<title>c7741ccc&#45;b897&#45;452f&#45;be53&#45;ac1906762f9a&#45;&gt;end</title>
<path fill="none" stroke="black" d="M797.31,-99.87C817.07,-99.87 834.12,-99.87 844.57,-99.87"/>
<polygon fill="black" stroke="black" points="844.85,-103.37 854.85,-99.87 844.85,-96.37 844.85,-103.37"/>
<text text-anchor="middle" x="826.08" y="-106.67" font-family="Helvetica,sans-Serif" font-size="14.00">Finish</text>
</g>
<!-- 70e7e257&#45;ebf5&#45;48b6&#45;ac71&#45;dc6bf3a457ec -->
<g id="node6" class="node">
<title>70e7e257&#45;ebf5&#45;48b6&#45;ac71&#45;dc6bf3a457ec</title>
<polygon fill="yellow" stroke="black" points="872,-36 471,-36 471,0 872,0 872,-36"/>
<text text-anchor="middle" x="671.5" y="-14.3" font-family="Helvetica,sans-Serif" font-size="14.00">⋯ Run GitHub Actions for `sweepai/utils/ticket_utils.py`</text>
</g>
<!-- c7741ccc&#45;b897&#45;452f&#45;be53&#45;ac1906762f9a&#45;&gt;70e7e257&#45;ebf5&#45;48b6&#45;ac71&#45;dc6bf3a457ec -->
<g id="edge3" class="edge">
<title>c7741ccc&#45;b897&#45;452f&#45;be53&#45;ac1906762f9a&#45;&gt;70e7e257&#45;ebf5&#45;48b6&#45;ac71&#45;dc6bf3a457ec</title>
<path fill="none" stroke="black" stroke-dasharray="5,2" d="M658.05,-72.72C660.19,-64.18 662.57,-54.68 664.72,-46.08"/>
<polygon fill="black" stroke="black" points="668.17,-46.7 667.21,-36.15 661.38,-45 668.17,-46.7"/>
</g>
</g>
</svg>
