<?xml version="1.0" encoding="UTF-8" standalone="no"?>
<!DOCTYPE svg PUBLIC "-//W3C//DTD SVG 1.1//EN"
 "http://www.w3.org/Graphics/SVG/1.1/DTD/svg11.dtd">
<!-- Generated by graphviz version 8.0.3 (0)
 -->
<!-- Pages: 1 -->
<svg width="1672pt" height="593pt"
 viewBox="0.00 0.00 1672.00 593.22" xmlns="http://www.w3.org/2000/svg" xmlns:xlink="http://www.w3.org/1999/xlink">
<g id="graph0" class="graph" transform="scale(1 1) rotate(0) translate(36 557.22)">
<polygon fill="dimgray" stroke="none" points="-36,36 -36,-557.22 1636,-557.22 1636,36 -36,36"/>
<text text-anchor="middle" x="800" y="-506.02" font-family="Helvetica,sans-Serif" font-size="14.00">Sweep&#39;s Plan &amp; Progress</text>
<!-- start -->
<g id="node1" class="node">
<title>start</title>
</g>
<!-- 156f41b5&#45;ec41&#45;4233&#45;b949&#45;79e0bf0ee2e6 -->
<g id="node3" class="node">
<title>156f41b5&#45;ec41&#45;4233&#45;b949&#45;79e0bf0ee2e6</title>
<ellipse fill="#0ee832" stroke="black" cx="588" cy="-455.35" rx="159.61" ry="26.74"/>
<text text-anchor="middle" x="588" y="-459.15" font-family="Helvetica,sans-Serif" font-size="14.00">✓ Modify</text>
<text text-anchor="middle" x="588" y="-444.15" font-family="Helvetica,sans-Serif" font-size="14.00">sweepai/handlers/on_ticket.py</text>
</g>
<!-- start&#45;&gt;156f41b5&#45;ec41&#45;4233&#45;b949&#45;79e0bf0ee2e6 -->
<g id="edge15" class="edge">
<title>start&#45;&gt;156f41b5&#45;ec41&#45;4233&#45;b949&#45;79e0bf0ee2e6</title>
<path fill="none" stroke="black" d="M376.15,-455.35C377.89,-455.35 394.25,-455.35 417.17,-455.35"/>
<polygon fill="black" stroke="black" points="417.13,-458.85 427.13,-455.35 417.13,-451.85 417.13,-458.85"/>
<text text-anchor="middle" x="402.35" y="-462.15" font-family="Helvetica,sans-Serif" font-size="14.00">Start</text>
</g>
<!-- end -->
<g id="node2" class="node">
<title>end</title>
</g>
<!-- 4564e8b5&#45;2000&#45;4ba2&#45;9c15&#45;c40353b3c878 -->
<g id="node4" class="node">
<title>4564e8b5&#45;2000&#45;4ba2&#45;9c15&#45;c40353b3c878</title>
<ellipse fill="#0ee832" stroke="black" cx="993" cy="-455.35" rx="169" ry="26.74"/>
<text text-anchor="middle" x="993" y="-459.15" font-family="Helvetica,sans-Serif" font-size="14.00">✓ Create</text>
<text text-anchor="middle" x="993" y="-444.15" font-family="Helvetica,sans-Serif" font-size="14.00">sweepai/utils/ticket_utils_test.py</text>
</g>
<!-- 156f41b5&#45;ec41&#45;4233&#45;b949&#45;79e0bf0ee2e6&#45;&gt;4564e8b5&#45;2000&#45;4ba2&#45;9c15&#45;c40353b3c878 -->
<g id="edge5" class="edge">
<title>156f41b5&#45;ec41&#45;4233&#45;b949&#45;79e0bf0ee2e6&#45;&gt;4564e8b5&#45;2000&#45;4ba2&#45;9c15&#45;c40353b3c878</title>
<path fill="none" stroke="black" d="M747.79,-455.35C769.6,-455.35 791.41,-455.35 813.23,-455.35"/>
<polygon fill="black" stroke="black" points="812.94,-458.85 822.94,-455.35 812.94,-451.85 812.94,-458.85"/>
</g>
<!-- dead76ba&#45;ae5e&#45;4601&#45;a4b0&#45;a68b30111f97 -->
<g id="node5" class="node">
<title>dead76ba&#45;ae5e&#45;4601&#45;a4b0&#45;a68b30111f97</title>
<polygon fill="#ee0000" stroke="black" points="380,-391.48 0,-391.48 0,-355.48 380,-355.48 380,-391.48"/>
<text text-anchor="middle" x="190" y="-369.78" font-family="Helvetica,sans-Serif" font-size="14.00">✗ Ran sandbox for `sweepai/handlers/on_ticket.py`.</text>
</g>
<!-- 156f41b5&#45;ec41&#45;4233&#45;b949&#45;79e0bf0ee2e6&#45;&gt;dead76ba&#45;ae5e&#45;4601&#45;a4b0&#45;a68b30111f97 -->
<g id="edge1" class="edge">
<title>156f41b5&#45;ec41&#45;4233&#45;b949&#45;79e0bf0ee2e6&#45;&gt;dead76ba&#45;ae5e&#45;4601&#45;a4b0&#45;a68b30111f97</title>
<path fill="none" stroke="black" stroke-dasharray="5,2" d="M487.57,-434.2C426.31,-421.9 348.37,-406.26 287.63,-394.07"/>
<polygon fill="black" stroke="black" points="288.37,-390.45 277.88,-391.92 287,-397.31 288.37,-390.45"/>
</g>
<!-- 3c943d61&#45;d94f&#45;4935&#45;a570&#45;f50e4dcce395 -->
<g id="node6" class="node">
<title>3c943d61&#45;d94f&#45;4935&#45;a570&#45;f50e4dcce395</title>
<polygon fill="#ee0000" stroke="black" points="778,-391.48 398,-391.48 398,-355.48 778,-355.48 778,-391.48"/>
<text text-anchor="middle" x="588" y="-369.78" font-family="Helvetica,sans-Serif" font-size="14.00">✗ Ran sandbox for `sweepai/handlers/on_ticket.py`.</text>
</g>
<!-- 156f41b5&#45;ec41&#45;4233&#45;b949&#45;79e0bf0ee2e6&#45;&gt;3c943d61&#45;d94f&#45;4935&#45;a570&#45;f50e4dcce395 -->
<g id="edge4" class="edge">
<title>156f41b5&#45;ec41&#45;4233&#45;b949&#45;79e0bf0ee2e6&#45;&gt;3c943d61&#45;d94f&#45;4935&#45;a570&#45;f50e4dcce395</title>
<path fill="none" stroke="black" stroke-dasharray="5,2" d="M588,-428.2C588,-419.94 588,-410.79 588,-402.41"/>
<polygon fill="black" stroke="black" points="591.5,-402.63 588,-392.63 584.5,-402.63 591.5,-402.63"/>
</g>
<!-- 4564e8b5&#45;2000&#45;4ba2&#45;9c15&#45;c40353b3c878&#45;&gt;end -->
<g id="edge16" class="edge">
<title>4564e8b5&#45;2000&#45;4ba2&#45;9c15&#45;c40353b3c878&#45;&gt;end</title>
<path fill="none" stroke="black" d="M1162.42,-455.35C1182,-455.35 1198.61,-455.35 1208.89,-455.35"/>
<polygon fill="black" stroke="black" points="1208.72,-458.85 1218.72,-455.35 1208.72,-451.85 1208.72,-458.85"/>
<text text-anchor="middle" x="1190.75" y="-462.15" font-family="Helvetica,sans-Serif" font-size="14.00">Finish</text>
</g>
<!-- 5d58a82f&#45;850c&#45;40e6&#45;b1c0&#45;b2dbe4b7a5e2 -->
<g id="node7" class="node">
<title>5d58a82f&#45;850c&#45;40e6&#45;b1c0&#45;b2dbe4b7a5e2</title>
<polygon fill="#ee0000" stroke="black" points="1189.5,-391.48 796.5,-391.48 796.5,-355.48 1189.5,-355.48 1189.5,-391.48"/>
<text text-anchor="middle" x="993" y="-369.78" font-family="Helvetica,sans-Serif" font-size="14.00">✗ Ran sandbox for `sweepai/utils/ticket_utils_test.py`.</text>
</g>
<!-- 4564e8b5&#45;2000&#45;4ba2&#45;9c15&#45;c40353b3c878&#45;&gt;5d58a82f&#45;850c&#45;40e6&#45;b1c0&#45;b2dbe4b7a5e2 -->
<g id="edge6" class="edge">
<title>4564e8b5&#45;2000&#45;4ba2&#45;9c15&#45;c40353b3c878&#45;&gt;5d58a82f&#45;850c&#45;40e6&#45;b1c0&#45;b2dbe4b7a5e2</title>
<path fill="none" stroke="black" stroke-dasharray="5,2" d="M993,-428.2C993,-419.94 993,-410.79 993,-402.41"/>
<polygon fill="black" stroke="black" points="996.5,-402.63 993,-392.63 989.5,-402.63 996.5,-402.63"/>
</g>
<!-- ba5a60ff&#45;6255&#45;4f74&#45;add9&#45;efc6216e4d8a -->
<g id="node8" class="node">
<title>ba5a60ff&#45;6255&#45;4f74&#45;add9&#45;efc6216e4d8a</title>
<polygon fill="white" stroke="black" points="1600,-391.48 1208,-391.48 1208,-355.48 1600,-355.48 1600,-391.48"/>
<text text-anchor="middle" x="1404" y="-369.78" font-family="Helvetica,sans-Serif" font-size="14.00">▶ Ran sandbox for `sweepai/utils/ticket_utils_test.py`.</text>
</g>
<!-- 4564e8b5&#45;2000&#45;4ba2&#45;9c15&#45;c40353b3c878&#45;&gt;ba5a60ff&#45;6255&#45;4f74&#45;add9&#45;efc6216e4d8a -->
<g id="edge14" class="edge">
<title>4564e8b5&#45;2000&#45;4ba2&#45;9c15&#45;c40353b3c878&#45;&gt;ba5a60ff&#45;6255&#45;4f74&#45;add9&#45;efc6216e4d8a</title>
<path fill="none" stroke="black" stroke-dasharray="5,2" d="M1097.78,-433.99C1160.95,-421.71 1241,-406.16 1303.41,-394.03"/>
<polygon fill="black" stroke="black" points="1303.91,-397.3 1313.06,-391.96 1302.57,-390.43 1303.91,-397.3"/>
</g>
<!-- 9a22e55f&#45;e85e&#45;48a1&#45;a60d&#45;ee6a1f97cc83 -->
<g id="node9" class="node">
<title>9a22e55f&#45;e85e&#45;48a1&#45;a60d&#45;ee6a1f97cc83</title>
<ellipse fill="#0ee832" stroke="black" cx="190" cy="-277.61" rx="159.61" ry="26.74"/>
<text text-anchor="middle" x="190" y="-281.41" font-family="Helvetica,sans-Serif" font-size="14.00">✓ Modify</text>
<text text-anchor="middle" x="190" y="-266.41" font-family="Helvetica,sans-Serif" font-size="14.00">sweepai/handlers/on_ticket.py</text>
</g>
<!-- dead76ba&#45;ae5e&#45;4601&#45;a4b0&#45;a68b30111f97&#45;&gt;9a22e55f&#45;e85e&#45;48a1&#45;a60d&#45;ee6a1f97cc83 -->
<g id="edge2" class="edge">
<title>dead76ba&#45;ae5e&#45;4601&#45;a4b0&#45;a68b30111f97&#45;&gt;9a22e55f&#45;e85e&#45;48a1&#45;a60d&#45;ee6a1f97cc83</title>
<path fill="none" stroke="black" d="M190,-355.26C190,-344.07 190,-329.05 190,-315.27"/>
<polygon fill="black" stroke="black" points="193.5,-315.58 190,-305.58 186.5,-315.58 193.5,-315.58"/>
<text text-anchor="middle" x="287.5" y="-326.28" font-family="Helvetica,sans-Serif" font-size="14.00">Additional changes required</text>
</g>
<!-- afd67110&#45;8fee&#45;488f&#45;9a84&#45;3e9b57b9284a -->
<g id="node10" class="node">
<title>afd67110&#45;8fee&#45;488f&#45;9a84&#45;3e9b57b9284a</title>
<ellipse fill="#0ee832" stroke="black" cx="974" cy="-277.61" rx="145.83" ry="26.74"/>
<text text-anchor="middle" x="974" y="-281.41" font-family="Helvetica,sans-Serif" font-size="14.00">✓ Modify</text>
<text text-anchor="middle" x="974" y="-266.41" font-family="Helvetica,sans-Serif" font-size="14.00">sweepai/utils/ticket_utils.py</text>
</g>
<!-- 5d58a82f&#45;850c&#45;40e6&#45;b1c0&#45;b2dbe4b7a5e2&#45;&gt;afd67110&#45;8fee&#45;488f&#45;9a84&#45;3e9b57b9284a -->
<g id="edge7" class="edge">
<title>5d58a82f&#45;850c&#45;40e6&#45;b1c0&#45;b2dbe4b7a5e2&#45;&gt;afd67110&#45;8fee&#45;488f&#45;9a84&#45;3e9b57b9284a</title>
<path fill="none" stroke="black" d="M989.52,-355.26C987.25,-344.07 984.21,-329.05 981.42,-315.27"/>
<polygon fill="black" stroke="black" points="984.67,-314.69 979.26,-305.58 977.81,-316.07 984.67,-314.69"/>
<text text-anchor="middle" x="1083.5" y="-326.28" font-family="Helvetica,sans-Serif" font-size="14.00">Additional changes required</text>
</g>
<!-- f1a47404&#45;ecd5&#45;4990&#45;a5c3&#45;e128b6769a6b -->
<g id="node11" class="node">
<title>f1a47404&#45;ecd5&#45;4990&#45;a5c3&#45;e128b6769a6b</title>
<ellipse fill="white" stroke="black" cx="1338" cy="-277.61" rx="169" ry="26.74"/>
<text text-anchor="middle" x="1338" y="-281.41" font-family="Helvetica,sans-Serif" font-size="14.00">▶ Modify</text>
<text text-anchor="middle" x="1338" y="-266.41" font-family="Helvetica,sans-Serif" font-size="14.00">sweepai/utils/ticket_utils_test.py</text>
</g>
<!-- 5d58a82f&#45;850c&#45;40e6&#45;b1c0&#45;b2dbe4b7a5e2&#45;&gt;f1a47404&#45;ecd5&#45;4990&#45;a5c3&#45;e128b6769a6b -->
<g id="edge12" class="edge">
<title>5d58a82f&#45;850c&#45;40e6&#45;b1c0&#45;b2dbe4b7a5e2&#45;&gt;f1a47404&#45;ecd5&#45;4990&#45;a5c3&#45;e128b6769a6b</title>
<path fill="none" stroke="black" d="M1108.78,-354.99C1134.1,-350.16 1160.62,-344.33 1185,-337.48 1213.91,-329.36 1244.99,-317.93 1271.52,-307.3"/>
<polygon fill="black" stroke="black" points="1272.51,-310.28 1280.46,-303.28 1269.88,-303.79 1272.51,-310.28"/>
<text text-anchor="middle" x="1325.5" y="-326.28" font-family="Helvetica,sans-Serif" font-size="14.00">Additional changes required</text>
</g>
<!-- 22a09bf5&#45;fbfd&#45;4aeb&#45;9f1b&#45;c7a22719d76a -->
<g id="node12" class="node">
<title>22a09bf5&#45;fbfd&#45;4aeb&#45;9f1b&#45;c7a22719d76a</title>
<polygon fill="#ee0000" stroke="black" points="380,-213.74 0,-213.74 0,-177.74 380,-177.74 380,-213.74"/>
<text text-anchor="middle" x="190" y="-192.04" font-family="Helvetica,sans-Serif" font-size="14.00">✗ Ran sandbox for `sweepai/handlers/on_ticket.py`.</text>
</g>
<!-- 9a22e55f&#45;e85e&#45;48a1&#45;a60d&#45;ee6a1f97cc83&#45;&gt;22a09bf5&#45;fbfd&#45;4aeb&#45;9f1b&#45;c7a22719d76a -->
<g id="edge3" class="edge">
<title>9a22e55f&#45;e85e&#45;48a1&#45;a60d&#45;ee6a1f97cc83&#45;&gt;22a09bf5&#45;fbfd&#45;4aeb&#45;9f1b&#45;c7a22719d76a</title>
<path fill="none" stroke="black" stroke-dasharray="5,2" d="M190,-250.46C190,-242.2 190,-233.05 190,-224.67"/>
<polygon fill="black" stroke="black" points="193.5,-224.89 190,-214.89 186.5,-224.89 193.5,-224.89"/>
</g>
<!-- 1fcd71bd&#45;ad24&#45;4277&#45;9428&#45;acaf5a86013a -->
<g id="node13" class="node">
<title>1fcd71bd&#45;ad24&#45;4277&#45;9428&#45;acaf5a86013a</title>
<polygon fill="#ee0000" stroke="black" points="776,-213.74 416,-213.74 416,-177.74 776,-177.74 776,-213.74"/>
<text text-anchor="middle" x="596" y="-192.04" font-family="Helvetica,sans-Serif" font-size="14.00">✗ Ran sandbox for `sweepai/utils/ticket_utils.py`.</text>
</g>
<!-- afd67110&#45;8fee&#45;488f&#45;9a84&#45;3e9b57b9284a&#45;&gt;1fcd71bd&#45;ad24&#45;4277&#45;9428&#45;acaf5a86013a -->
<g id="edge8" class="edge">
<title>afd67110&#45;8fee&#45;488f&#45;9a84&#45;3e9b57b9284a&#45;&gt;1fcd71bd&#45;ad24&#45;4277&#45;9428&#45;acaf5a86013a</title>
<path fill="none" stroke="black" stroke-dasharray="5,2" d="M880.08,-256.76C821.82,-244.46 747.28,-228.7 689.17,-216.43"/>
<polygon fill="black" stroke="black" points="690.02,-212.82 679.51,-214.18 688.58,-219.67 690.02,-212.82"/>
</g>
<!-- d06e2d21&#45;a39c&#45;42cb&#45;84b0&#45;d3daccc87b43 -->
<g id="node14" class="node">
<title>d06e2d21&#45;a39c&#45;42cb&#45;84b0&#45;d3daccc87b43</title>
<polygon fill="white" stroke="black" points="1153.5,-213.74 794.5,-213.74 794.5,-177.74 1153.5,-177.74 1153.5,-213.74"/>
<text text-anchor="middle" x="974" y="-192.04" font-family="Helvetica,sans-Serif" font-size="14.00">▶ Ran sandbox for `sweepai/utils/ticket_utils.py`.</text>
</g>
<!-- afd67110&#45;8fee&#45;488f&#45;9a84&#45;3e9b57b9284a&#45;&gt;d06e2d21&#45;a39c&#45;42cb&#45;84b0&#45;d3daccc87b43 -->
<g id="edge11" class="edge">
<title>afd67110&#45;8fee&#45;488f&#45;9a84&#45;3e9b57b9284a&#45;&gt;d06e2d21&#45;a39c&#45;42cb&#45;84b0&#45;d3daccc87b43</title>
<path fill="none" stroke="black" stroke-dasharray="5,2" d="M974,-250.46C974,-242.2 974,-233.05 974,-224.67"/>
<polygon fill="black" stroke="black" points="977.5,-224.89 974,-214.89 970.5,-224.89 977.5,-224.89"/>
</g>
<!-- 809a03a1&#45;3885&#45;4a21&#45;a703&#45;a1da9012db30 -->
<g id="node15" class="node">
<title>809a03a1&#45;3885&#45;4a21&#45;a703&#45;a1da9012db30</title>
<polygon fill="white" stroke="black" points="1564,-213.74 1172,-213.74 1172,-177.74 1564,-177.74 1564,-213.74"/>
<text text-anchor="middle" x="1368" y="-192.04" font-family="Helvetica,sans-Serif" font-size="14.00">▶ Ran sandbox for `sweepai/utils/ticket_utils_test.py`.</text>
</g>
<!-- f1a47404&#45;ecd5&#45;4990&#45;a5c3&#45;e128b6769a6b&#45;&gt;809a03a1&#45;3885&#45;4a21&#45;a703&#45;a1da9012db30 -->
<g id="edge13" class="edge">
<title>f1a47404&#45;ecd5&#45;4990&#45;a5c3&#45;e128b6769a6b&#45;&gt;809a03a1&#45;3885&#45;4a21&#45;a703&#45;a1da9012db30</title>
<path fill="none" stroke="black" stroke-dasharray="5,2" d="M1347.82,-250.46C1351,-242.01 1354.52,-232.63 1357.72,-224.1"/>
<polygon fill="black" stroke="black" points="1361.32,-225.48 1361.56,-214.89 1354.77,-223.02 1361.32,-225.48"/>
</g>
<!-- c092bd51&#45;4e7c&#45;44f4&#45;a74d&#45;922e0fb0b6ce -->
<g id="node16" class="node">
<title>c092bd51&#45;4e7c&#45;44f4&#45;a74d&#45;922e0fb0b6ce</title>
<ellipse fill="yellow" stroke="black" cx="596" cy="-99.87" rx="145.83" ry="26.74"/>
<text text-anchor="middle" x="596" y="-103.67" font-family="Helvetica,sans-Serif" font-size="14.00">⋯ Modify</text>
<text text-anchor="middle" x="596" y="-88.67" font-family="Helvetica,sans-Serif" font-size="14.00">sweepai/utils/ticket_utils.py</text>
</g>
<!-- 1fcd71bd&#45;ad24&#45;4277&#45;9428&#45;acaf5a86013a&#45;&gt;c092bd51&#45;4e7c&#45;44f4&#45;a74d&#45;922e0fb0b6ce -->
<g id="edge9" class="edge">
<title>1fcd71bd&#45;ad24&#45;4277&#45;9428&#45;acaf5a86013a&#45;&gt;c092bd51&#45;4e7c&#45;44f4&#45;a74d&#45;922e0fb0b6ce</title>
<path fill="none" stroke="black" d="M596,-177.52C596,-166.33 596,-151.31 596,-137.53"/>
<polygon fill="black" stroke="black" points="599.5,-137.84 596,-127.84 592.5,-137.84 599.5,-137.84"/>
<text text-anchor="middle" x="693.5" y="-148.54" font-family="Helvetica,sans-Serif" font-size="14.00">Additional changes required</text>
</g>
<!-- 72e8db26&#45;007f&#45;4a78&#45;975e&#45;aade4f5a6810 -->
<g id="node17" class="node">
<title>72e8db26&#45;007f&#45;4a78&#45;975e&#45;aade4f5a6810</title>
<polygon fill="white" stroke="black" points="775.5,-36 416.5,-36 416.5,0 775.5,0 775.5,-36"/>
<text text-anchor="middle" x="596" y="-14.3" font-family="Helvetica,sans-Serif" font-size="14.00">▶ Ran sandbox for `sweepai/utils/ticket_utils.py`.</text>
</g>
<!-- c092bd51&#45;4e7c&#45;44f4&#45;a74d&#45;922e0fb0b6ce&#45;&gt;72e8db26&#45;007f&#45;4a78&#45;975e&#45;aade4f5a6810 -->
<g id="edge10" class="edge">
<title>c092bd51&#45;4e7c&#45;44f4&#45;a74d&#45;922e0fb0b6ce&#45;&gt;72e8db26&#45;007f&#45;4a78&#45;975e&#45;aade4f5a6810</title>
<path fill="none" stroke="black" stroke-dasharray="5,2" d="M596,-72.72C596,-64.46 596,-55.31 596,-46.93"/>
<polygon fill="black" stroke="black" points="599.5,-47.15 596,-37.15 592.5,-47.15 599.5,-47.15"/>
</g>
</g>
</svg>
