<?xml version="1.0" encoding="UTF-8" standalone="no"?>
<!DOCTYPE svg PUBLIC "-//W3C//DTD SVG 1.1//EN"
 "http://www.w3.org/Graphics/SVG/1.1/DTD/svg11.dtd">
<!-- Generated by graphviz version 8.0.3 (0)
 -->
<!-- Pages: 1 -->
<svg width="1254pt" height="415pt"
 viewBox="0.00 0.00 1253.50 415.48" xmlns="http://www.w3.org/2000/svg" xmlns:xlink="http://www.w3.org/1999/xlink">
<g id="graph0" class="graph" transform="scale(1 1) rotate(0) translate(36 379.48)">
<polygon fill="dimgray" stroke="none" points="-36,36 -36,-379.48 1217.5,-379.48 1217.5,36 -36,36"/>
<text text-anchor="middle" x="590.75" y="-328.28" font-family="Helvetica,sans-Serif" font-size="14.00">Sweep&#39;s Plan &amp; Progress</text>
<!-- start -->
<g id="node1" class="node">
<title>start</title>
</g>
<!-- 0f9cb259&#45;27d9&#45;47be&#45;a891&#45;5ac4085246ed -->
<g id="node3" class="node">
<title>0f9cb259&#45;27d9&#45;47be&#45;a891&#45;5ac4085246ed</title>
<ellipse fill="#0ee832" stroke="black" cx="587" cy="-277.61" rx="159.61" ry="26.74"/>
<text text-anchor="middle" x="587" y="-281.41" font-family="Helvetica,sans-Serif" font-size="14.00">✓ Modify</text>
<text text-anchor="middle" x="587" y="-266.41" font-family="Helvetica,sans-Serif" font-size="14.00">sweepai/handlers/on_ticket.py</text>
</g>
<!-- start&#45;&gt;0f9cb259&#45;27d9&#45;47be&#45;a891&#45;5ac4085246ed -->
<g id="edge7" class="edge">
<title>start&#45;&gt;0f9cb259&#45;27d9&#45;47be&#45;a891&#45;5ac4085246ed</title>
<path fill="none" stroke="black" d="M375.15,-277.61C376.89,-277.61 393.25,-277.61 416.17,-277.61"/>
<polygon fill="black" stroke="black" points="416.13,-281.11 426.13,-277.61 416.13,-274.11 416.13,-281.11"/>
<text text-anchor="middle" x="401.35" y="-284.41" font-family="Helvetica,sans-Serif" font-size="14.00">Start</text>
</g>
<!-- end -->
<g id="node2" class="node">
<title>end</title>
</g>
<!-- 3c4ec118&#45;15ea&#45;4900&#45;9766&#45;67dcfcabccd7 -->
<g id="node4" class="node">
<title>3c4ec118&#45;15ea&#45;4900&#45;9766&#45;67dcfcabccd7</title>
<ellipse fill="white" stroke="black" cx="963" cy="-277.61" rx="159.61" ry="26.74"/>
<text text-anchor="middle" x="963" y="-281.41" font-family="Helvetica,sans-Serif" font-size="14.00">▶ Modify</text>
<text text-anchor="middle" x="963" y="-266.41" font-family="Helvetica,sans-Serif" font-size="14.00">sweepai/handlers/on_ticket.py</text>
</g>
<!-- 0f9cb259&#45;27d9&#45;47be&#45;a891&#45;5ac4085246ed&#45;&gt;3c4ec118&#45;15ea&#45;4900&#45;9766&#45;67dcfcabccd7 -->
<g id="edge5" class="edge">
<title>0f9cb259&#45;27d9&#45;47be&#45;a891&#45;5ac4085246ed&#45;&gt;3c4ec118&#45;15ea&#45;4900&#45;9766&#45;67dcfcabccd7</title>
<path fill="none" stroke="black" d="M747.09,-277.61C762.14,-277.61 777.18,-277.61 792.22,-277.61"/>
<polygon fill="black" stroke="black" points="792.18,-281.11 802.18,-277.61 792.18,-274.11 792.18,-281.11"/>
</g>
<!-- 24167e0e&#45;e436&#45;438e&#45;a9ae&#45;a15769932587 -->
<g id="node5" class="node">
<title>24167e0e&#45;e436&#45;438e&#45;a9ae&#45;a15769932587</title>
<polygon fill="#ee0000" stroke="black" points="380,-213.74 0,-213.74 0,-177.74 380,-177.74 380,-213.74"/>
<text text-anchor="middle" x="190" y="-192.04" font-family="Helvetica,sans-Serif" font-size="14.00">✗ Ran sandbox for `sweepai/handlers/on_ticket.py`.</text>
</g>
<!-- 0f9cb259&#45;27d9&#45;47be&#45;a891&#45;5ac4085246ed&#45;&gt;24167e0e&#45;e436&#45;438e&#45;a9ae&#45;a15769932587 -->
<g id="edge1" class="edge">
<title>0f9cb259&#45;27d9&#45;47be&#45;a891&#45;5ac4085246ed&#45;&gt;24167e0e&#45;e436&#45;438e&#45;a9ae&#45;a15769932587</title>
<path fill="none" stroke="black" stroke-dasharray="5,2" d="M486.56,-256.4C425.56,-244.13 348.06,-228.54 287.58,-216.37"/>
<polygon fill="black" stroke="black" points="288.38,-212.76 277.88,-214.22 287,-219.62 288.38,-212.76"/>
</g>
<!-- 77961daf&#45;d4e2&#45;4e3d&#45;8e66&#45;70a6b10e6b93 -->
<g id="node6" class="node">
<title>77961daf&#45;d4e2&#45;4e3d&#45;8e66&#45;70a6b10e6b93</title>
<polygon fill="white" stroke="black" points="776,-213.74 398,-213.74 398,-177.74 776,-177.74 776,-213.74"/>
<text text-anchor="middle" x="587" y="-192.04" font-family="Helvetica,sans-Serif" font-size="14.00">▶ Ran sandbox for `sweepai/handlers/on_ticket.py`.</text>
</g>
<!-- 0f9cb259&#45;27d9&#45;47be&#45;a891&#45;5ac4085246ed&#45;&gt;77961daf&#45;d4e2&#45;4e3d&#45;8e66&#45;70a6b10e6b93 -->
<g id="edge4" class="edge">
<title>0f9cb259&#45;27d9&#45;47be&#45;a891&#45;5ac4085246ed&#45;&gt;77961daf&#45;d4e2&#45;4e3d&#45;8e66&#45;70a6b10e6b93</title>
<path fill="none" stroke="black" stroke-dasharray="5,2" d="M587,-250.46C587,-242.2 587,-233.05 587,-224.67"/>
<polygon fill="black" stroke="black" points="590.5,-224.89 587,-214.89 583.5,-224.89 590.5,-224.89"/>
</g>
<!-- 3c4ec118&#45;15ea&#45;4900&#45;9766&#45;67dcfcabccd7&#45;&gt;end -->
<g id="edge8" class="edge">
<title>3c4ec118&#45;15ea&#45;4900&#45;9766&#45;67dcfcabccd7&#45;&gt;end</title>
<path fill="none" stroke="black" d="M1122.87,-277.61C1142.5,-277.61 1159.3,-277.61 1169.72,-277.61"/>
<polygon fill="black" stroke="black" points="1169.71,-281.11 1179.71,-277.61 1169.71,-274.11 1169.71,-281.11"/>
<text text-anchor="middle" x="1151.65" y="-284.41" font-family="Helvetica,sans-Serif" font-size="14.00">Finish</text>
</g>
<!-- e955724d&#45;f394&#45;4da5&#45;85a0&#45;9348e80178b8 -->
<g id="node7" class="node">
<title>e955724d&#45;f394&#45;4da5&#45;85a0&#45;9348e80178b8</title>
<polygon fill="white" stroke="black" points="1172,-213.74 794,-213.74 794,-177.74 1172,-177.74 1172,-213.74"/>
<text text-anchor="middle" x="983" y="-192.04" font-family="Helvetica,sans-Serif" font-size="14.00">▶ Ran sandbox for `sweepai/handlers/on_ticket.py`.</text>
</g>
<!-- 3c4ec118&#45;15ea&#45;4900&#45;9766&#45;67dcfcabccd7&#45;&gt;e955724d&#45;f394&#45;4da5&#45;85a0&#45;9348e80178b8 -->
<g id="edge6" class="edge">
<title>3c4ec118&#45;15ea&#45;4900&#45;9766&#45;67dcfcabccd7&#45;&gt;e955724d&#45;f394&#45;4da5&#45;85a0&#45;9348e80178b8</title>
<path fill="none" stroke="black" stroke-dasharray="5,2" d="M969.55,-250.46C971.64,-242.11 973.96,-232.84 976.08,-224.39"/>
<polygon fill="black" stroke="black" points="979.67,-225.44 978.71,-214.89 972.88,-223.74 979.67,-225.44"/>
</g>
<!-- ad42fee2&#45;a560&#45;4890&#45;a5d0&#45;39d600117370 -->
<g id="node8" class="node">
<title>ad42fee2&#45;a560&#45;4890&#45;a5d0&#45;39d600117370</title>
<ellipse fill="yellow" stroke="black" cx="190" cy="-99.87" rx="159.61" ry="26.74"/>
<text text-anchor="middle" x="190" y="-103.67" font-family="Helvetica,sans-Serif" font-size="14.00">⋯ Modify</text>
<text text-anchor="middle" x="190" y="-88.67" font-family="Helvetica,sans-Serif" font-size="14.00">sweepai/handlers/on_ticket.py</text>
</g>
<!-- 24167e0e&#45;e436&#45;438e&#45;a9ae&#45;a15769932587&#45;&gt;ad42fee2&#45;a560&#45;4890&#45;a5d0&#45;39d600117370 -->
<g id="edge2" class="edge">
<title>24167e0e&#45;e436&#45;438e&#45;a9ae&#45;a15769932587&#45;&gt;ad42fee2&#45;a560&#45;4890&#45;a5d0&#45;39d600117370</title>
<path fill="none" stroke="black" d="M190,-177.52C190,-166.33 190,-151.31 190,-137.53"/>
<polygon fill="black" stroke="black" points="193.5,-137.84 190,-127.84 186.5,-137.84 193.5,-137.84"/>
<text text-anchor="middle" x="287.5" y="-148.54" font-family="Helvetica,sans-Serif" font-size="14.00">Additional changes required</text>
</g>
<!-- 687c1a5f&#45;df84&#45;4d5b&#45;9a0f&#45;2a2141fed398 -->
<g id="node9" class="node">
<title>687c1a5f&#45;df84&#45;4d5b&#45;9a0f&#45;2a2141fed398</title>
<polygon fill="white" stroke="black" points="379,-36 1,-36 1,0 379,0 379,-36"/>
<text text-anchor="middle" x="190" y="-14.3" font-family="Helvetica,sans-Serif" font-size="14.00">▶ Ran sandbox for `sweepai/handlers/on_ticket.py`.</text>
</g>
<!-- ad42fee2&#45;a560&#45;4890&#45;a5d0&#45;39d600117370&#45;&gt;687c1a5f&#45;df84&#45;4d5b&#45;9a0f&#45;2a2141fed398 -->
<g id="edge3" class="edge">
<title>ad42fee2&#45;a560&#45;4890&#45;a5d0&#45;39d600117370&#45;&gt;687c1a5f&#45;df84&#45;4d5b&#45;9a0f&#45;2a2141fed398</title>
<path fill="none" stroke="black" stroke-dasharray="5,2" d="M190,-72.72C190,-64.46 190,-55.31 190,-46.93"/>
<polygon fill="black" stroke="black" points="193.5,-47.15 190,-37.15 186.5,-47.15 193.5,-47.15"/>
</g>
</g>
</svg>
