<?xml version="1.0" encoding="UTF-8" standalone="no"?>
<!DOCTYPE svg PUBLIC "-//W3C//DTD SVG 1.1//EN"
 "http://www.w3.org/Graphics/SVG/1.1/DTD/svg11.dtd">
<!-- Generated by graphviz version 8.0.3 (0)
 -->
<!-- Pages: 1 -->
<svg width="637pt" height="415pt"
 viewBox="0.00 0.00 637.00 415.48" xmlns="http://www.w3.org/2000/svg" xmlns:xlink="http://www.w3.org/1999/xlink">
<g id="graph0" class="graph" transform="scale(1 1) rotate(0) translate(36 379.48)">
<polygon fill="dimgray" stroke="none" points="-36,36 -36,-379.48 601,-379.48 601,36 -36,36"/>
<text text-anchor="middle" x="282.5" y="-328.28" font-family="Helvetica,sans-Serif" font-size="14.00">Sweep&#39;s Plan &amp; Progress</text>
<!-- start -->
<g id="node1" class="node">
<title>start</title>
</g>
<!-- b1ec115e&#45;af38&#45;4c50&#45;a719&#45;045a1dfd1ee6 -->
<g id="node3" class="node">
<title>b1ec115e&#45;af38&#45;4c50&#45;a719&#45;045a1dfd1ee6</title>
<ellipse fill="#0ee832" stroke="black" cx="350" cy="-277.61" rx="84.71" ry="26.74"/>
<text text-anchor="middle" x="350" y="-281.41" font-family="Helvetica,sans-Serif" font-size="14.00">✓ Modify</text>
<text text-anchor="middle" x="350" y="-266.41" font-family="Helvetica,sans-Serif" font-size="14.00">sweepai/api.py</text>
</g>
<!-- start&#45;&gt;b1ec115e&#45;af38&#45;4c50&#45;a719&#45;045a1dfd1ee6 -->
<g id="edge5" class="edge">
<title>start&#45;&gt;b1ec115e&#45;af38&#45;4c50&#45;a719&#45;045a1dfd1ee6</title>
<path fill="none" stroke="black" d="M213.39,-277.61C216.15,-277.61 233.04,-277.61 254.06,-277.61"/>
<polygon fill="black" stroke="black" points="254.03,-281.11 264.03,-277.61 254.03,-274.11 254.03,-281.11"/>
<text text-anchor="middle" x="239.32" y="-284.41" font-family="Helvetica,sans-Serif" font-size="14.00">Start</text>
</g>
<!-- end -->
<g id="node2" class="node">
<title>end</title>
</g>
<!-- b1ec115e&#45;af38&#45;4c50&#45;a719&#45;045a1dfd1ee6&#45;&gt;end -->
<g id="edge6" class="edge">
<title>b1ec115e&#45;af38&#45;4c50&#45;a719&#45;045a1dfd1ee6&#45;&gt;end</title>
<path fill="none" stroke="black" d="M434.84,-277.61C453.56,-277.61 471.01,-277.61 481.82,-277.61"/>
<polygon fill="black" stroke="black" points="481.69,-281.11 491.69,-277.61 481.69,-274.11 481.69,-281.11"/>
<text text-anchor="middle" x="463.68" y="-284.41" font-family="Helvetica,sans-Serif" font-size="14.00">Finish</text>
</g>
<!-- 1f38bc63&#45;98e9&#45;4093&#45;b586&#45;d172316bb2c5 -->
<g id="node4" class="node">
<title>1f38bc63&#45;98e9&#45;4093&#45;b586&#45;d172316bb2c5</title>
<polygon fill="#ee0000" stroke="black" points="275,-213.74 1,-213.74 1,-177.74 275,-177.74 275,-213.74"/>
<text text-anchor="middle" x="138" y="-192.04" font-family="Helvetica,sans-Serif" font-size="14.00">✗ Ran sandbox for `sweepai/api.py`.</text>
</g>
<!-- b1ec115e&#45;af38&#45;4c50&#45;a719&#45;045a1dfd1ee6&#45;&gt;1f38bc63&#45;98e9&#45;4093&#45;b586&#45;d172316bb2c5 -->
<g id="edge1" class="edge">
<title>b1ec115e&#45;af38&#45;4c50&#45;a719&#45;045a1dfd1ee6&#45;&gt;1f38bc63&#45;98e9&#45;4093&#45;b586&#45;d172316bb2c5</title>
<path fill="none" stroke="black" stroke-dasharray="5,2" d="M296.5,-256.46C265.29,-244.7 225.95,-229.88 194.27,-217.94"/>
<polygon fill="black" stroke="black" points="195.87,-214.43 185.28,-214.18 193.4,-220.98 195.87,-214.43"/>
</g>
<!-- 283498b7&#45;d733&#45;4aa7&#45;aac6&#45;505ca929363b -->
<g id="node5" class="node">
<title>283498b7&#45;d733&#45;4aa7&#45;aac6&#45;505ca929363b</title>
<polygon fill="white" stroke="black" points="565,-213.74 293,-213.74 293,-177.74 565,-177.74 565,-213.74"/>
<text text-anchor="middle" x="429" y="-192.04" font-family="Helvetica,sans-Serif" font-size="14.00">▶ Ran sandbox for `sweepai/api.py`.</text>
</g>
<!-- b1ec115e&#45;af38&#45;4c50&#45;a719&#45;045a1dfd1ee6&#45;&gt;283498b7&#45;d733&#45;4aa7&#45;aac6&#45;505ca929363b -->
<g id="edge4" class="edge">
<title>b1ec115e&#45;af38&#45;4c50&#45;a719&#45;045a1dfd1ee6&#45;&gt;283498b7&#45;d733&#45;4aa7&#45;aac6&#45;505ca929363b</title>
<path fill="none" stroke="black" stroke-dasharray="5,2" d="M374.56,-251.78C384.05,-242.19 394.88,-231.24 404.37,-221.64"/>
<polygon fill="black" stroke="black" points="406.42,-224.53 410.96,-214.96 401.44,-219.61 406.42,-224.53"/>
</g>
<!-- 482bd8e9&#45;aa1d&#45;4157&#45;925e&#45;38ee52c0120e -->
<g id="node6" class="node">
<title>482bd8e9&#45;aa1d&#45;4157&#45;925e&#45;38ee52c0120e</title>
<ellipse fill="#0ee832" stroke="black" cx="138" cy="-99.87" rx="84.71" ry="26.74"/>
<text text-anchor="middle" x="138" y="-103.67" font-family="Helvetica,sans-Serif" font-size="14.00">✓ Modify</text>
<text text-anchor="middle" x="138" y="-88.67" font-family="Helvetica,sans-Serif" font-size="14.00">sweepai/api.py</text>
</g>
<!-- 1f38bc63&#45;98e9&#45;4093&#45;b586&#45;d172316bb2c5&#45;&gt;482bd8e9&#45;aa1d&#45;4157&#45;925e&#45;38ee52c0120e -->
<g id="edge2" class="edge">
<title>1f38bc63&#45;98e9&#45;4093&#45;b586&#45;d172316bb2c5&#45;&gt;482bd8e9&#45;aa1d&#45;4157&#45;925e&#45;38ee52c0120e</title>
<path fill="none" stroke="black" d="M138,-177.52C138,-166.33 138,-151.31 138,-137.53"/>
<polygon fill="black" stroke="black" points="141.5,-137.84 138,-127.84 134.5,-137.84 141.5,-137.84"/>
<text text-anchor="middle" x="235.5" y="-148.54" font-family="Helvetica,sans-Serif" font-size="14.00">Additional changes required</text>
</g>
<!-- 347146dd&#45;ba8f&#45;42d3&#45;b23e&#45;25064922771d -->
<g id="node7" class="node">
<title>347146dd&#45;ba8f&#45;42d3&#45;b23e&#45;25064922771d</title>
<polygon fill="yellow" stroke="black" points="276,-36 0,-36 0,0 276,0 276,-36"/>
<text text-anchor="middle" x="138" y="-14.3" font-family="Helvetica,sans-Serif" font-size="14.00">⋯ Ran sandbox for `sweepai/api.py`.</text>
</g>
<!-- 482bd8e9&#45;aa1d&#45;4157&#45;925e&#45;38ee52c0120e&#45;&gt;347146dd&#45;ba8f&#45;42d3&#45;b23e&#45;25064922771d -->
<g id="edge3" class="edge">
<title>482bd8e9&#45;aa1d&#45;4157&#45;925e&#45;38ee52c0120e&#45;&gt;347146dd&#45;ba8f&#45;42d3&#45;b23e&#45;25064922771d</title>
<path fill="none" stroke="black" stroke-dasharray="5,2" d="M138,-72.72C138,-64.46 138,-55.31 138,-46.93"/>
<polygon fill="black" stroke="black" points="141.5,-47.15 138,-37.15 134.5,-47.15 141.5,-47.15"/>
</g>
</g>
</svg>
