<?xml version="1.0" encoding="UTF-8" standalone="no"?>
<!DOCTYPE svg PUBLIC "-//W3C//DTD SVG 1.1//EN"
 "http://www.w3.org/Graphics/SVG/1.1/DTD/svg11.dtd">
<!-- Generated by graphviz version 8.0.3 (0)
 -->
<!-- Pages: 1 -->
<svg width="1310pt" height="593pt"
 viewBox="0.00 0.00 1310.00 593.22" xmlns="http://www.w3.org/2000/svg" xmlns:xlink="http://www.w3.org/1999/xlink">
<g id="graph0" class="graph" transform="scale(1 1) rotate(0) translate(36 557.22)">
<polygon fill="dimgray" stroke="none" points="-36,36 -36,-557.22 1274,-557.22 1274,36 -36,36"/>
<text text-anchor="middle" x="619" y="-506.02" font-family="Helvetica,sans-Serif" font-size="14.00">Sweep&#39;s Plan &amp; Progress</text>
<!-- start -->
<g id="node1" class="node">
<title>start</title>
</g>
<!-- 19b0773e&#45;a0dd&#45;4d4a&#45;bc99&#45;f7b0be110d4b -->
<g id="node3" class="node">
<title>19b0773e&#45;a0dd&#45;4d4a&#45;bc99&#45;f7b0be110d4b</title>
<ellipse fill="#0ee832" stroke="black" cx="452.5" cy="-455.35" rx="84.71" ry="26.74"/>
<text text-anchor="middle" x="452.5" y="-459.15" font-family="Helvetica,sans-Serif" font-size="14.00">✓ Modify</text>
<text text-anchor="middle" x="452.5" y="-444.15" font-family="Helvetica,sans-Serif" font-size="14.00">sweepai/api.py</text>
</g>
<!-- start&#45;&gt;19b0773e&#45;a0dd&#45;4d4a&#45;bc99&#45;f7b0be110d4b -->
<g id="edge13" class="edge">
<title>start&#45;&gt;19b0773e&#45;a0dd&#45;4d4a&#45;bc99&#45;f7b0be110d4b</title>
<path fill="none" stroke="black" d="M315.89,-455.35C318.65,-455.35 335.54,-455.35 356.56,-455.35"/>
<polygon fill="black" stroke="black" points="356.53,-458.85 366.53,-455.35 356.53,-451.85 356.53,-458.85"/>
<text text-anchor="middle" x="341.82" y="-462.15" font-family="Helvetica,sans-Serif" font-size="14.00">Start</text>
</g>
<!-- end -->
<g id="node2" class="node">
<title>end</title>
</g>
<!-- ae80fa7f&#45;2018&#45;41e0&#45;8fde&#45;116e5a869112 -->
<g id="node4" class="node">
<title>ae80fa7f&#45;2018&#45;41e0&#45;8fde&#45;116e5a869112</title>
<ellipse fill="#0ee832" stroke="black" cx="761.5" cy="-455.35" rx="108.38" ry="26.74"/>
<text text-anchor="middle" x="761.5" y="-459.15" font-family="Helvetica,sans-Serif" font-size="14.00">✓ Create</text>
<text text-anchor="middle" x="761.5" y="-444.15" font-family="Helvetica,sans-Serif" font-size="14.00">sweepai/api_test.py</text>
</g>
<!-- 19b0773e&#45;a0dd&#45;4d4a&#45;bc99&#45;f7b0be110d4b&#45;&gt;ae80fa7f&#45;2018&#45;41e0&#45;8fde&#45;116e5a869112 -->
<g id="edge5" class="edge">
<title>19b0773e&#45;a0dd&#45;4d4a&#45;bc99&#45;f7b0be110d4b&#45;&gt;ae80fa7f&#45;2018&#45;41e0&#45;8fde&#45;116e5a869112</title>
<path fill="none" stroke="black" d="M537.6,-455.35C572.47,-455.35 607.35,-455.35 642.22,-455.35"/>
<polygon fill="black" stroke="black" points="642.05,-458.85 652.05,-455.35 642.05,-451.85 642.05,-458.85"/>
</g>
<!-- 0e279427&#45;2e3d&#45;4a30&#45;873e&#45;9fdd01c2411d -->
<g id="node5" class="node">
<title>0e279427&#45;2e3d&#45;4a30&#45;873e&#45;9fdd01c2411d</title>
<polygon fill="#ee0000" stroke="black" points="297.5,-391.48 23.5,-391.48 23.5,-355.48 297.5,-355.48 297.5,-391.48"/>
<text text-anchor="middle" x="160.5" y="-369.78" font-family="Helvetica,sans-Serif" font-size="14.00">✗ Ran sandbox for `sweepai/api.py`.</text>
</g>
<!-- 19b0773e&#45;a0dd&#45;4d4a&#45;bc99&#45;f7b0be110d4b&#45;&gt;0e279427&#45;2e3d&#45;4a30&#45;873e&#45;9fdd01c2411d -->
<g id="edge1" class="edge">
<title>19b0773e&#45;a0dd&#45;4d4a&#45;bc99&#45;f7b0be110d4b&#45;&gt;0e279427&#45;2e3d&#45;4a30&#45;873e&#45;9fdd01c2411d</title>
<path fill="none" stroke="black" stroke-dasharray="5,2" d="M389.5,-437.12C344.14,-424.71 282.78,-407.93 234.99,-394.86"/>
<polygon fill="black" stroke="black" points="235.96,-391.22 225.4,-391.96 234.12,-397.97 235.96,-391.22"/>
</g>
<!-- c9ceb009&#45;66a6&#45;47fd&#45;848a&#45;1bed97e105b8 -->
<g id="node6" class="node">
<title>c9ceb009&#45;66a6&#45;47fd&#45;848a&#45;1bed97e105b8</title>
<polygon fill="#ee0000" stroke="black" points="589.5,-391.48 315.5,-391.48 315.5,-355.48 589.5,-355.48 589.5,-391.48"/>
<text text-anchor="middle" x="452.5" y="-369.78" font-family="Helvetica,sans-Serif" font-size="14.00">✗ Ran sandbox for `sweepai/api.py`.</text>
</g>
<!-- 19b0773e&#45;a0dd&#45;4d4a&#45;bc99&#45;f7b0be110d4b&#45;&gt;c9ceb009&#45;66a6&#45;47fd&#45;848a&#45;1bed97e105b8 -->
<g id="edge4" class="edge">
<title>19b0773e&#45;a0dd&#45;4d4a&#45;bc99&#45;f7b0be110d4b&#45;&gt;c9ceb009&#45;66a6&#45;47fd&#45;848a&#45;1bed97e105b8</title>
<path fill="none" stroke="black" stroke-dasharray="5,2" d="M452.5,-428.2C452.5,-419.94 452.5,-410.79 452.5,-402.41"/>
<polygon fill="black" stroke="black" points="456,-402.63 452.5,-392.63 449,-402.63 456,-402.63"/>
</g>
<!-- ae80fa7f&#45;2018&#45;41e0&#45;8fde&#45;116e5a869112&#45;&gt;end -->
<g id="edge14" class="edge">
<title>ae80fa7f&#45;2018&#45;41e0&#45;8fde&#45;116e5a869112&#45;&gt;end</title>
<path fill="none" stroke="black" d="M870.37,-455.35C889.16,-455.35 905.99,-455.35 916.43,-455.35"/>
<polygon fill="black" stroke="black" points="916.2,-458.85 926.2,-455.35 916.2,-451.85 916.2,-458.85"/>
<text text-anchor="middle" x="898.34" y="-462.15" font-family="Helvetica,sans-Serif" font-size="14.00">Finish</text>
</g>
<!-- 1543f3f9&#45;fa81&#45;4749&#45;a76b&#45;154280b873f4 -->
<g id="node7" class="node">
<title>1543f3f9&#45;fa81&#45;4749&#45;a76b&#45;154280b873f4</title>
<polygon fill="#ee0000" stroke="black" points="915,-391.48 608,-391.48 608,-355.48 915,-355.48 915,-391.48"/>
<text text-anchor="middle" x="761.5" y="-369.78" font-family="Helvetica,sans-Serif" font-size="14.00">✗ Ran sandbox for `sweepai/api_test.py`.</text>
</g>
<!-- ae80fa7f&#45;2018&#45;41e0&#45;8fde&#45;116e5a869112&#45;&gt;1543f3f9&#45;fa81&#45;4749&#45;a76b&#45;154280b873f4 -->
<g id="edge6" class="edge">
<title>ae80fa7f&#45;2018&#45;41e0&#45;8fde&#45;116e5a869112&#45;&gt;1543f3f9&#45;fa81&#45;4749&#45;a76b&#45;154280b873f4</title>
<path fill="none" stroke="black" stroke-dasharray="5,2" d="M761.5,-428.2C761.5,-419.94 761.5,-410.79 761.5,-402.41"/>
<polygon fill="black" stroke="black" points="765,-402.63 761.5,-392.63 758,-402.63 765,-402.63"/>
</g>
<!-- e2c7a940&#45;5dd4&#45;4b32&#45;b1b5&#45;2355bd422117 -->
<g id="node8" class="node">
<title>e2c7a940&#45;5dd4&#45;4b32&#45;b1b5&#45;2355bd422117</title>
<polygon fill="white" stroke="black" points="1238,-391.48 933,-391.48 933,-355.48 1238,-355.48 1238,-391.48"/>
<text text-anchor="middle" x="1085.5" y="-369.78" font-family="Helvetica,sans-Serif" font-size="14.00">▶ Ran sandbox for `sweepai/api_test.py`.</text>
</g>
<!-- ae80fa7f&#45;2018&#45;41e0&#45;8fde&#45;116e5a869112&#45;&gt;e2c7a940&#45;5dd4&#45;4b32&#45;b1b5&#45;2355bd422117 -->
<g id="edge12" class="edge">
<title>ae80fa7f&#45;2018&#45;41e0&#45;8fde&#45;116e5a869112&#45;&gt;e2c7a940&#45;5dd4&#45;4b32&#45;b1b5&#45;2355bd422117</title>
<path fill="none" stroke="black" stroke-dasharray="5,2" d="M836.65,-435.83C886.84,-423.45 952.83,-407.19 1004.24,-394.51"/>
<polygon fill="black" stroke="black" points="1004.78,-397.74 1013.65,-391.95 1003.1,-390.94 1004.78,-397.74"/>
</g>
<!-- 9697e3bc&#45;d51f&#45;4db2&#45;bfde&#45;93181385cff1 -->
<g id="node9" class="node">
<title>9697e3bc&#45;d51f&#45;4db2&#45;bfde&#45;93181385cff1</title>
<ellipse fill="#0ee832" stroke="black" cx="160.5" cy="-277.61" rx="118.17" ry="26.74"/>
<text text-anchor="middle" x="160.5" y="-281.41" font-family="Helvetica,sans-Serif" font-size="14.00">✓ Create</text>
<text text-anchor="middle" x="160.5" y="-266.41" font-family="Helvetica,sans-Serif" font-size="14.00">repo/sdk/src/agent.py</text>
</g>
<!-- 0e279427&#45;2e3d&#45;4a30&#45;873e&#45;9fdd01c2411d&#45;&gt;9697e3bc&#45;d51f&#45;4db2&#45;bfde&#45;93181385cff1 -->
<g id="edge2" class="edge">
<title>0e279427&#45;2e3d&#45;4a30&#45;873e&#45;9fdd01c2411d&#45;&gt;9697e3bc&#45;d51f&#45;4db2&#45;bfde&#45;93181385cff1</title>
<path fill="none" stroke="black" d="M160.5,-355.26C160.5,-344.07 160.5,-329.05 160.5,-315.27"/>
<polygon fill="black" stroke="black" points="164,-315.58 160.5,-305.58 157,-315.58 164,-315.58"/>
<text text-anchor="middle" x="258" y="-326.28" font-family="Helvetica,sans-Serif" font-size="14.00">Additional changes required</text>
</g>
<!-- 374f5312&#45;eb80&#45;47f1&#45;8b9d&#45;381de507f680 -->
<g id="node10" class="node">
<title>374f5312&#45;eb80&#45;47f1&#45;8b9d&#45;381de507f680</title>
<ellipse fill="#0ee832" stroke="black" cx="761.5" cy="-277.61" rx="108.38" ry="26.74"/>
<text text-anchor="middle" x="761.5" y="-281.41" font-family="Helvetica,sans-Serif" font-size="14.00">✓ Modify</text>
<text text-anchor="middle" x="761.5" y="-266.41" font-family="Helvetica,sans-Serif" font-size="14.00">sweepai/api_test.py</text>
</g>
<!-- 1543f3f9&#45;fa81&#45;4749&#45;a76b&#45;154280b873f4&#45;&gt;374f5312&#45;eb80&#45;47f1&#45;8b9d&#45;381de507f680 -->
<g id="edge7" class="edge">
<title>1543f3f9&#45;fa81&#45;4749&#45;a76b&#45;154280b873f4&#45;&gt;374f5312&#45;eb80&#45;47f1&#45;8b9d&#45;381de507f680</title>
<path fill="none" stroke="black" d="M761.5,-355.26C761.5,-344.07 761.5,-329.05 761.5,-315.27"/>
<polygon fill="black" stroke="black" points="765,-315.58 761.5,-305.58 758,-315.58 765,-315.58"/>
<text text-anchor="middle" x="859" y="-326.28" font-family="Helvetica,sans-Serif" font-size="14.00">Additional changes required</text>
</g>
<!-- c1683dcb&#45;7a18&#45;4d71&#45;b263&#45;4899a207afda -->
<g id="node11" class="node">
<title>c1683dcb&#45;7a18&#45;4d71&#45;b263&#45;4899a207afda</title>
<polygon fill="#ee0000" stroke="black" points="321,-213.74 0,-213.74 0,-177.74 321,-177.74 321,-213.74"/>
<text text-anchor="middle" x="160.5" y="-192.04" font-family="Helvetica,sans-Serif" font-size="14.00">✗ Ran sandbox for `repo/sdk/src/agent.py`.</text>
</g>
<!-- 9697e3bc&#45;d51f&#45;4db2&#45;bfde&#45;93181385cff1&#45;&gt;c1683dcb&#45;7a18&#45;4d71&#45;b263&#45;4899a207afda -->
<g id="edge3" class="edge">
<title>9697e3bc&#45;d51f&#45;4db2&#45;bfde&#45;93181385cff1&#45;&gt;c1683dcb&#45;7a18&#45;4d71&#45;b263&#45;4899a207afda</title>
<path fill="none" stroke="black" stroke-dasharray="5,2" d="M160.5,-250.46C160.5,-242.2 160.5,-233.05 160.5,-224.67"/>
<polygon fill="black" stroke="black" points="164,-224.89 160.5,-214.89 157,-224.89 164,-224.89"/>
</g>
<!-- 4d06b94f&#45;3021&#45;4475&#45;ab85&#45;2e25d2fb51f5 -->
<g id="node12" class="node">
<title>4d06b94f&#45;3021&#45;4475&#45;ab85&#45;2e25d2fb51f5</title>
<polygon fill="#ee0000" stroke="black" points="780,-213.74 473,-213.74 473,-177.74 780,-177.74 780,-213.74"/>
<text text-anchor="middle" x="626.5" y="-192.04" font-family="Helvetica,sans-Serif" font-size="14.00">✗ Ran sandbox for `sweepai/api_test.py`.</text>
</g>
<!-- 374f5312&#45;eb80&#45;47f1&#45;8b9d&#45;381de507f680&#45;&gt;4d06b94f&#45;3021&#45;4475&#45;ab85&#45;2e25d2fb51f5 -->
<g id="edge8" class="edge">
<title>374f5312&#45;eb80&#45;47f1&#45;8b9d&#45;381de507f680&#45;&gt;4d06b94f&#45;3021&#45;4475&#45;ab85&#45;2e25d2fb51f5</title>
<path fill="none" stroke="black" stroke-dasharray="5,2" d="M720.63,-252.43C702.95,-241.97 682.37,-229.79 664.97,-219.5"/>
<polygon fill="black" stroke="black" points="667.05,-216.07 656.66,-213.99 663.49,-222.1 667.05,-216.07"/>
</g>
<!-- 91dc6b59&#45;f8a3&#45;4706&#45;9748&#45;73dea71eb6b8 -->
<g id="node13" class="node">
<title>91dc6b59&#45;f8a3&#45;4706&#45;9748&#45;73dea71eb6b8</title>
<polygon fill="white" stroke="black" points="1103,-213.74 798,-213.74 798,-177.74 1103,-177.74 1103,-213.74"/>
<text text-anchor="middle" x="950.5" y="-192.04" font-family="Helvetica,sans-Serif" font-size="14.00">▶ Ran sandbox for `sweepai/api_test.py`.</text>
</g>
<!-- 374f5312&#45;eb80&#45;47f1&#45;8b9d&#45;381de507f680&#45;&gt;91dc6b59&#45;f8a3&#45;4706&#45;9748&#45;73dea71eb6b8 -->
<g id="edge11" class="edge">
<title>374f5312&#45;eb80&#45;47f1&#45;8b9d&#45;381de507f680&#45;&gt;91dc6b59&#45;f8a3&#45;4706&#45;9748&#45;73dea71eb6b8</title>
<path fill="none" stroke="black" stroke-dasharray="5,2" d="M815.15,-253.94C841.55,-242.78 873.22,-229.4 899.28,-218.39"/>
<polygon fill="black" stroke="black" points="900.49,-221.25 908.34,-214.14 897.76,-214.8 900.49,-221.25"/>
</g>
<!-- 985469aa&#45;686b&#45;4d25&#45;823a&#45;976d2db3db23 -->
<g id="node14" class="node">
<title>985469aa&#45;686b&#45;4d25&#45;823a&#45;976d2db3db23</title>
<ellipse fill="yellow" stroke="black" cx="626.5" cy="-99.87" rx="93.18" ry="26.74"/>
<text text-anchor="middle" x="626.5" y="-103.67" font-family="Helvetica,sans-Serif" font-size="14.00">⋯ Modify</text>
<text text-anchor="middle" x="626.5" y="-88.67" font-family="Helvetica,sans-Serif" font-size="14.00">sdk/src/agent.py</text>
</g>
<!-- 4d06b94f&#45;3021&#45;4475&#45;ab85&#45;2e25d2fb51f5&#45;&gt;985469aa&#45;686b&#45;4d25&#45;823a&#45;976d2db3db23 -->
<g id="edge9" class="edge">
<title>4d06b94f&#45;3021&#45;4475&#45;ab85&#45;2e25d2fb51f5&#45;&gt;985469aa&#45;686b&#45;4d25&#45;823a&#45;976d2db3db23</title>
<path fill="none" stroke="black" d="M626.5,-177.52C626.5,-166.33 626.5,-151.31 626.5,-137.53"/>
<polygon fill="black" stroke="black" points="630,-137.84 626.5,-127.84 623,-137.84 630,-137.84"/>
<text text-anchor="middle" x="724" y="-148.54" font-family="Helvetica,sans-Serif" font-size="14.00">Additional changes required</text>
</g>
<!-- cf6b3df4&#45;edb5&#45;4092&#45;8678&#45;ce857bf6abdc -->
<g id="node15" class="node">
<title>cf6b3df4&#45;edb5&#45;4092&#45;8678&#45;ce857bf6abdc</title>
<polygon fill="white" stroke="black" points="768.5,-36 484.5,-36 484.5,0 768.5,0 768.5,-36"/>
<text text-anchor="middle" x="626.5" y="-14.3" font-family="Helvetica,sans-Serif" font-size="14.00">▶ Ran sandbox for `sdk/src/agent.py`.</text>
</g>
<!-- 985469aa&#45;686b&#45;4d25&#45;823a&#45;976d2db3db23&#45;&gt;cf6b3df4&#45;edb5&#45;4092&#45;8678&#45;ce857bf6abdc -->
<g id="edge10" class="edge">
<title>985469aa&#45;686b&#45;4d25&#45;823a&#45;976d2db3db23&#45;&gt;cf6b3df4&#45;edb5&#45;4092&#45;8678&#45;ce857bf6abdc</title>
<path fill="none" stroke="black" stroke-dasharray="5,2" d="M626.5,-72.72C626.5,-64.46 626.5,-55.31 626.5,-46.93"/>
<polygon fill="black" stroke="black" points="630,-47.15 626.5,-37.15 623,-47.15 630,-47.15"/>
</g>
</g>
</svg>
