<?xml version="1.0" encoding="UTF-8" standalone="no"?>
<!DOCTYPE svg PUBLIC "-//W3C//DTD SVG 1.1//EN"
 "http://www.w3.org/Graphics/SVG/1.1/DTD/svg11.dtd">
<!-- Generated by graphviz version 2.43.0 (0)
 -->
<!-- Title: %3 Pages: 1 -->
<svg width="1482pt" height="238pt"
 viewBox="0.00 0.00 1482.00 237.74" xmlns="http://www.w3.org/2000/svg" xmlns:xlink="http://www.w3.org/1999/xlink">
<g id="graph0" class="graph" transform="scale(1 1) rotate(0) translate(36 201.74)">
<title>%3</title>
<polygon fill="dimgray" stroke="transparent" points="-36,36 -36,-201.74 1446,-201.74 1446,36 -36,36"/>
<text text-anchor="middle" x="705" y="-150.54" font-family="Helvetica,sans-Serif" font-size="14.00">Sweep&#39;s Plan &amp; Progress</text>
<!-- start -->
<g id="node1" class="node">
<title>start</title>
</g>
<!-- 829670a0&#45;bd71&#45;4222&#45;9a77&#45;83dcbc11a830 -->
<g id="node3" class="node">
<title>829670a0&#45;bd71&#45;4222&#45;9a77&#45;83dcbc11a830</title>
<ellipse fill="#0ee832" stroke="black" cx="262" cy="-99.87" rx="195.74" ry="26.74"/>
<text text-anchor="middle" x="262" y="-103.67" font-family="Helvetica,sans-Serif" font-size="14.00">✓ Create</text>
<text text-anchor="middle" x="262" y="-88.67" font-family="Helvetica,sans-Serif" font-size="14.00">sweepai/agents/query_filter_agent.py</text>
</g>
<!-- start&#45;&gt;829670a0&#45;bd71&#45;4222&#45;9a77&#45;83dcbc11a830 -->
<g id="edge6" class="edge">
<title>start&#45;&gt;829670a0&#45;bd71&#45;4222&#45;9a77&#45;83dcbc11a830</title>
<path fill="none" stroke="black" d="M14.71,-99.87C18.16,-99.87 33.91,-99.87 55.91,-99.87"/>
<polygon fill="black" stroke="black" points="56.07,-103.37 66.07,-99.87 56.07,-96.37 56.07,-103.37"/>
<text text-anchor="middle" x="40.32" y="-106.67" font-family="Helvetica,sans-Serif" font-size="14.00">Start</text>
</g>
<!-- end -->
<g id="node2" class="node">
<title>end</title>
</g>
<!-- cfbf79ca&#45;7f47&#45;4495&#45;84f8&#45;32f4e43ab7a8 -->
<g id="node4" class="node">
<title>cfbf79ca&#45;7f47&#45;4495&#45;84f8&#45;32f4e43ab7a8</title>
<ellipse fill="#0ee832" stroke="black" cx="741" cy="-99.87" rx="219.41" ry="26.74"/>
<text text-anchor="middle" x="741" y="-103.67" font-family="Helvetica,sans-Serif" font-size="14.00">✓ Create</text>
<text text-anchor="middle" x="741" y="-88.67" font-family="Helvetica,sans-Serif" font-size="14.00">sweepai/agents/test_query_filter_agent.py</text>
</g>
<!-- 829670a0&#45;bd71&#45;4222&#45;9a77&#45;83dcbc11a830&#45;&gt;cfbf79ca&#45;7f47&#45;4495&#45;84f8&#45;32f4e43ab7a8 -->
<g id="edge2" class="edge">
<title>829670a0&#45;bd71&#45;4222&#45;9a77&#45;83dcbc11a830&#45;&gt;cfbf79ca&#45;7f47&#45;4495&#45;84f8&#45;32f4e43ab7a8</title>
<path fill="none" stroke="black" d="M458,-99.87C475.71,-99.87 493.42,-99.87 511.13,-99.87"/>
<polygon fill="black" stroke="black" points="511.56,-103.37 521.56,-99.87 511.56,-96.37 511.56,-103.37"/>
</g>
<!-- 8da552bd&#45;781c&#45;40e1&#45;8957&#45;7809e4ccfcf1 -->
<g id="node6" class="node">
<title>8da552bd&#45;781c&#45;40e1&#45;8957&#45;7809e4ccfcf1</title>
<polygon fill="#0ee832" stroke="black" points="470,-36 0,-36 0,0 470,0 470,-36"/>
<text text-anchor="middle" x="235" y="-14.3" font-family="Helvetica,sans-Serif" font-size="14.00">✓ Run GitHub Actions for `sweepai/agents/query_filter_agent.py`</text>
</g>
<!-- 829670a0&#45;bd71&#45;4222&#45;9a77&#45;83dcbc11a830&#45;&gt;8da552bd&#45;781c&#45;40e1&#45;8957&#45;7809e4ccfcf1 -->
<g id="edge1" class="edge">
<title>829670a0&#45;bd71&#45;4222&#45;9a77&#45;83dcbc11a830&#45;&gt;8da552bd&#45;781c&#45;40e1&#45;8957&#45;7809e4ccfcf1</title>
<path fill="none" stroke="black" stroke-dasharray="5,2" d="M253.16,-72.72C250.24,-64.08 246.99,-54.47 244.06,-45.79"/>
<polygon fill="black" stroke="black" points="247.31,-44.5 240.8,-36.15 240.68,-46.74 247.31,-44.5"/>
</g>
<!-- dea46a3a&#45;988d&#45;4211&#45;b1fa&#45;47d4cdc25031 -->
<g id="node5" class="node">
<title>dea46a3a&#45;988d&#45;4211&#45;b1fa&#45;47d4cdc25031</title>
<ellipse fill="white" stroke="black" cx="1176" cy="-99.87" rx="145.83" ry="26.74"/>
<text text-anchor="middle" x="1176" y="-103.67" font-family="Helvetica,sans-Serif" font-size="14.00">▶ Modify</text>
<text text-anchor="middle" x="1176" y="-88.67" font-family="Helvetica,sans-Serif" font-size="14.00">sweepai/utils/ticket_utils.py</text>
</g>
<!-- cfbf79ca&#45;7f47&#45;4495&#45;84f8&#45;32f4e43ab7a8&#45;&gt;dea46a3a&#45;988d&#45;4211&#45;b1fa&#45;47d4cdc25031 -->
<g id="edge4" class="edge">
<title>cfbf79ca&#45;7f47&#45;4495&#45;84f8&#45;32f4e43ab7a8&#45;&gt;dea46a3a&#45;988d&#45;4211&#45;b1fa&#45;47d4cdc25031</title>
<path fill="none" stroke="black" d="M960.62,-99.87C980.42,-99.87 1000.21,-99.87 1020,-99.87"/>
<polygon fill="black" stroke="black" points="1020.03,-103.37 1030.03,-99.87 1020.03,-96.37 1020.03,-103.37"/>
</g>
<!-- 52f5df5e&#45;7620&#45;4c90&#45;b176&#45;e21b4e86267f -->
<g id="node7" class="node">
<title>52f5df5e&#45;7620&#45;4c90&#45;b176&#45;e21b4e86267f</title>
<polygon fill="yellow" stroke="black" points="993.5,-36 488.5,-36 488.5,0 993.5,0 993.5,-36"/>
<text text-anchor="middle" x="741" y="-14.3" font-family="Helvetica,sans-Serif" font-size="14.00">⋯ Run GitHub Actions for `sweepai/agents/test_query_filter_agent.py`</text>
</g>
<!-- cfbf79ca&#45;7f47&#45;4495&#45;84f8&#45;32f4e43ab7a8&#45;&gt;52f5df5e&#45;7620&#45;4c90&#45;b176&#45;e21b4e86267f -->
<g id="edge3" class="edge">
<title>cfbf79ca&#45;7f47&#45;4495&#45;84f8&#45;32f4e43ab7a8&#45;&gt;52f5df5e&#45;7620&#45;4c90&#45;b176&#45;e21b4e86267f</title>
<path fill="none" stroke="black" stroke-dasharray="5,2" d="M741,-72.72C741,-64.27 741,-54.89 741,-46.36"/>
<polygon fill="black" stroke="black" points="744.5,-46.15 741,-36.15 737.5,-46.15 744.5,-46.15"/>
</g>
<!-- dea46a3a&#45;988d&#45;4211&#45;b1fa&#45;47d4cdc25031&#45;&gt;end -->
<g id="edge7" class="edge">
<title>dea46a3a&#45;988d&#45;4211&#45;b1fa&#45;47d4cdc25031&#45;&gt;end</title>
<path fill="none" stroke="black" d="M1321.81,-99.87C1341.57,-99.87 1358.62,-99.87 1369.07,-99.87"/>
<polygon fill="black" stroke="black" points="1369.35,-103.37 1379.35,-99.87 1369.35,-96.37 1369.35,-103.37"/>
<text text-anchor="middle" x="1350.58" y="-106.67" font-family="Helvetica,sans-Serif" font-size="14.00">Finish</text>
</g>
<!-- fbe6e392&#45;ff8b&#45;4a52&#45;b9ad&#45;32af9ba53667 -->
<g id="node8" class="node">
<title>fbe6e392&#45;ff8b&#45;4a52&#45;b9ad&#45;32af9ba53667</title>
<polygon fill="white" stroke="black" points="1410,-36 1012,-36 1012,0 1410,0 1410,-36"/>
<text text-anchor="middle" x="1211" y="-14.3" font-family="Helvetica,sans-Serif" font-size="14.00">▶ Run GitHub Actions for `sweepai/utils/ticket_utils.py`</text>
</g>
<!-- dea46a3a&#45;988d&#45;4211&#45;b1fa&#45;47d4cdc25031&#45;&gt;fbe6e392&#45;ff8b&#45;4a52&#45;b9ad&#45;32af9ba53667 -->
<g id="edge5" class="edge">
<title>dea46a3a&#45;988d&#45;4211&#45;b1fa&#45;47d4cdc25031&#45;&gt;fbe6e392&#45;ff8b&#45;4a52&#45;b9ad&#45;32af9ba53667</title>
<path fill="none" stroke="black" stroke-dasharray="5,2" d="M1187.46,-72.72C1191.28,-63.99 1195.55,-54.26 1199.38,-45.51"/>
<polygon fill="black" stroke="black" points="1202.68,-46.71 1203.49,-36.15 1196.27,-43.9 1202.68,-46.71"/>
</g>
</g>
</svg>
