<?xml version="1.0" encoding="UTF-8" standalone="no"?>
<!DOCTYPE svg PUBLIC "-//W3C//DTD SVG 1.1//EN"
 "http://www.w3.org/Graphics/SVG/1.1/DTD/svg11.dtd">
<!-- Generated by graphviz version 2.43.0 (0)
 -->
<!-- Title: %3 Pages: 1 -->
<svg width="383pt" height="238pt"
 viewBox="0.00 0.00 383.00 237.74" xmlns="http://www.w3.org/2000/svg" xmlns:xlink="http://www.w3.org/1999/xlink">
<g id="graph0" class="graph" transform="scale(1 1) rotate(0) translate(36 201.74)">
<title>%3</title>
<polygon fill="dimgray" stroke="transparent" points="-36,36 -36,-201.74 347,-201.74 347,36 -36,36"/>
<text text-anchor="middle" x="155.5" y="-150.54" font-family="Helvetica,sans-Serif" font-size="14.00">Sweep&#39;s Plan &amp; Progress</text>
<!-- start -->
<g id="node1" class="node">
<title>start</title>
</g>
<!-- ed4c6ac1&#45;a7a7&#45;41b1&#45;95af&#45;c5a252d4096a -->
<g id="node3" class="node">
<title>ed4c6ac1&#45;a7a7&#45;41b1&#45;95af&#45;c5a252d4096a</title>
<ellipse fill="yellow" stroke="black" cx="155.5" cy="-99.87" rx="84.71" ry="26.74"/>
<text text-anchor="middle" x="155.5" y="-103.67" font-family="Helvetica,sans-Serif" font-size="14.00">⋯ Modify</text>
<text text-anchor="middle" x="155.5" y="-88.67" font-family="Helvetica,sans-Serif" font-size="14.00">sweepai/api.py</text>
</g>
<!-- start&#45;&gt;ed4c6ac1&#45;a7a7&#45;41b1&#45;95af&#45;c5a252d4096a -->
<g id="edge2" class="edge">
<title>start&#45;&gt;ed4c6ac1&#45;a7a7&#45;41b1&#45;95af&#45;c5a252d4096a</title>
<path fill="none" stroke="black" d="M19.37,-99.87C23.29,-99.87 39.92,-99.87 60.28,-99.87"/>
<polygon fill="black" stroke="black" points="60.54,-103.37 70.54,-99.87 60.54,-96.37 60.54,-103.37"/>
<text text-anchor="middle" x="44.82" y="-106.67" font-family="Helvetica,sans-Serif" font-size="14.00">Start</text>
</g>
<!-- end -->
<g id="node2" class="node">
<title>end</title>
</g>
<!-- ed4c6ac1&#45;a7a7&#45;41b1&#45;95af&#45;c5a252d4096a&#45;&gt;end -->
<g id="edge3" class="edge">
<title>ed4c6ac1&#45;a7a7&#45;41b1&#45;95af&#45;c5a252d4096a&#45;&gt;end</title>
<path fill="none" stroke="black" d="M240.75,-99.87C259.4,-99.87 276.75,-99.87 287.46,-99.87"/>
<polygon fill="black" stroke="black" points="287.8,-103.37 297.8,-99.87 287.8,-96.37 287.8,-103.37"/>
<text text-anchor="middle" x="269.18" y="-106.67" font-family="Helvetica,sans-Serif" font-size="14.00">Finish</text>
</g>
<!-- 7ab0b4f9&#45;8532&#45;4622&#45;81af&#45;4fb9c54d70b6 -->
<g id="node4" class="node">
<title>7ab0b4f9&#45;8532&#45;4622&#45;81af&#45;4fb9c54d70b6</title>
<polygon fill="white" stroke="black" points="311,-36 0,-36 0,0 311,0 311,-36"/>
<text text-anchor="middle" x="155.5" y="-14.3" font-family="Helvetica,sans-Serif" font-size="14.00">▶ Run GitHub Actions for `sweepai/api.py`</text>
</g>
<!-- ed4c6ac1&#45;a7a7&#45;41b1&#45;95af&#45;c5a252d4096a&#45;&gt;7ab0b4f9&#45;8532&#45;4622&#45;81af&#45;4fb9c54d70b6 -->
<g id="edge1" class="edge">
<title>ed4c6ac1&#45;a7a7&#45;41b1&#45;95af&#45;c5a252d4096a&#45;&gt;7ab0b4f9&#45;8532&#45;4622&#45;81af&#45;4fb9c54d70b6</title>
<path fill="none" stroke="black" stroke-dasharray="5,2" d="M155.5,-72.72C155.5,-64.27 155.5,-54.89 155.5,-46.36"/>
<polygon fill="black" stroke="black" points="159,-46.15 155.5,-36.15 152,-46.15 159,-46.15"/>
</g>
</g>
</svg>
