<?xml version="1.0" encoding="UTF-8" standalone="no"?>
<!DOCTYPE svg PUBLIC "-//W3C//DTD SVG 1.1//EN"
 "http://www.w3.org/Graphics/SVG/1.1/DTD/svg11.dtd">
<!-- Generated by graphviz version 8.0.3 (0)
 -->
<!-- Pages: 1 -->
<svg width="1672pt" height="771pt"
 viewBox="0.00 0.00 1672.00 770.96" xmlns="http://www.w3.org/2000/svg" xmlns:xlink="http://www.w3.org/1999/xlink">
<g id="graph0" class="graph" transform="scale(1 1) rotate(0) translate(36 734.96)">
<polygon fill="dimgray" stroke="none" points="-36,36 -36,-734.96 1636,-734.96 1636,36 -36,36"/>
<text text-anchor="middle" x="800" y="-683.76" font-family="Helvetica,sans-Serif" font-size="14.00">Sweep&#39;s Plan &amp; Progress</text>
<!-- start -->
<g id="node1" class="node">
<title>start</title>
</g>
<!-- 156f41b5&#45;ec41&#45;4233&#45;b949&#45;79e0bf0ee2e6 -->
<g id="node3" class="node">
<title>156f41b5&#45;ec41&#45;4233&#45;b949&#45;79e0bf0ee2e6</title>
<ellipse fill="#0ee832" stroke="black" cx="588" cy="-633.09" rx="159.61" ry="26.74"/>
<text text-anchor="middle" x="588" y="-636.89" font-family="Helvetica,sans-Serif" font-size="14.00">✓ Modify</text>
<text text-anchor="middle" x="588" y="-621.89" font-family="Helvetica,sans-Serif" font-size="14.00">sweepai/handlers/on_ticket.py</text>
</g>
<!-- start&#45;&gt;156f41b5&#45;ec41&#45;4233&#45;b949&#45;79e0bf0ee2e6 -->
<g id="edge18" class="edge">
<title>start&#45;&gt;156f41b5&#45;ec41&#45;4233&#45;b949&#45;79e0bf0ee2e6</title>
<path fill="none" stroke="black" d="M376.15,-633.09C377.89,-633.09 394.25,-633.09 417.17,-633.09"/>
<polygon fill="black" stroke="black" points="417.13,-636.59 427.13,-633.09 417.13,-629.59 417.13,-636.59"/>
<text text-anchor="middle" x="402.35" y="-639.89" font-family="Helvetica,sans-Serif" font-size="14.00">Start</text>
</g>
<!-- end -->
<g id="node2" class="node">
<title>end</title>
</g>
<!-- 4564e8b5&#45;2000&#45;4ba2&#45;9c15&#45;c40353b3c878 -->
<g id="node4" class="node">
<title>4564e8b5&#45;2000&#45;4ba2&#45;9c15&#45;c40353b3c878</title>
<ellipse fill="#0ee832" stroke="black" cx="993" cy="-633.09" rx="169" ry="26.74"/>
<text text-anchor="middle" x="993" y="-636.89" font-family="Helvetica,sans-Serif" font-size="14.00">✓ Create</text>
<text text-anchor="middle" x="993" y="-621.89" font-family="Helvetica,sans-Serif" font-size="14.00">sweepai/utils/ticket_utils_test.py</text>
</g>
<!-- 156f41b5&#45;ec41&#45;4233&#45;b949&#45;79e0bf0ee2e6&#45;&gt;4564e8b5&#45;2000&#45;4ba2&#45;9c15&#45;c40353b3c878 -->
<g id="edge5" class="edge">
<title>156f41b5&#45;ec41&#45;4233&#45;b949&#45;79e0bf0ee2e6&#45;&gt;4564e8b5&#45;2000&#45;4ba2&#45;9c15&#45;c40353b3c878</title>
<path fill="none" stroke="black" d="M747.79,-633.09C769.6,-633.09 791.41,-633.09 813.23,-633.09"/>
<polygon fill="black" stroke="black" points="812.94,-636.59 822.94,-633.09 812.94,-629.59 812.94,-636.59"/>
</g>
<!-- dead76ba&#45;ae5e&#45;4601&#45;a4b0&#45;a68b30111f97 -->
<g id="node5" class="node">
<title>dead76ba&#45;ae5e&#45;4601&#45;a4b0&#45;a68b30111f97</title>
<polygon fill="#ee0000" stroke="black" points="380,-569.22 0,-569.22 0,-533.22 380,-533.22 380,-569.22"/>
<text text-anchor="middle" x="190" y="-547.52" font-family="Helvetica,sans-Serif" font-size="14.00">✗ Ran sandbox for `sweepai/handlers/on_ticket.py`.</text>
</g>
<!-- 156f41b5&#45;ec41&#45;4233&#45;b949&#45;79e0bf0ee2e6&#45;&gt;dead76ba&#45;ae5e&#45;4601&#45;a4b0&#45;a68b30111f97 -->
<g id="edge1" class="edge">
<title>156f41b5&#45;ec41&#45;4233&#45;b949&#45;79e0bf0ee2e6&#45;&gt;dead76ba&#45;ae5e&#45;4601&#45;a4b0&#45;a68b30111f97</title>
<path fill="none" stroke="black" stroke-dasharray="5,2" d="M487.57,-611.94C426.31,-599.64 348.37,-584 287.63,-571.81"/>
<polygon fill="black" stroke="black" points="288.37,-568.19 277.88,-569.66 287,-575.05 288.37,-568.19"/>
</g>
<!-- 3c943d61&#45;d94f&#45;4935&#45;a570&#45;f50e4dcce395 -->
<g id="node6" class="node">
<title>3c943d61&#45;d94f&#45;4935&#45;a570&#45;f50e4dcce395</title>
<polygon fill="#ee0000" stroke="black" points="778,-569.22 398,-569.22 398,-533.22 778,-533.22 778,-569.22"/>
<text text-anchor="middle" x="588" y="-547.52" font-family="Helvetica,sans-Serif" font-size="14.00">✗ Ran sandbox for `sweepai/handlers/on_ticket.py`.</text>
</g>
<!-- 156f41b5&#45;ec41&#45;4233&#45;b949&#45;79e0bf0ee2e6&#45;&gt;3c943d61&#45;d94f&#45;4935&#45;a570&#45;f50e4dcce395 -->
<g id="edge4" class="edge">
<title>156f41b5&#45;ec41&#45;4233&#45;b949&#45;79e0bf0ee2e6&#45;&gt;3c943d61&#45;d94f&#45;4935&#45;a570&#45;f50e4dcce395</title>
<path fill="none" stroke="black" stroke-dasharray="5,2" d="M588,-605.94C588,-597.68 588,-588.53 588,-580.15"/>
<polygon fill="black" stroke="black" points="591.5,-580.37 588,-570.37 584.5,-580.37 591.5,-580.37"/>
</g>
<!-- 4564e8b5&#45;2000&#45;4ba2&#45;9c15&#45;c40353b3c878&#45;&gt;end -->
<g id="edge19" class="edge">
<title>4564e8b5&#45;2000&#45;4ba2&#45;9c15&#45;c40353b3c878&#45;&gt;end</title>
<path fill="none" stroke="black" d="M1162.42,-633.09C1182,-633.09 1198.61,-633.09 1208.89,-633.09"/>
<polygon fill="black" stroke="black" points="1208.72,-636.59 1218.72,-633.09 1208.72,-629.59 1208.72,-636.59"/>
<text text-anchor="middle" x="1190.75" y="-639.89" font-family="Helvetica,sans-Serif" font-size="14.00">Finish</text>
</g>
<!-- 5d58a82f&#45;850c&#45;40e6&#45;b1c0&#45;b2dbe4b7a5e2 -->
<g id="node7" class="node">
<title>5d58a82f&#45;850c&#45;40e6&#45;b1c0&#45;b2dbe4b7a5e2</title>
<polygon fill="#ee0000" stroke="black" points="1189.5,-569.22 796.5,-569.22 796.5,-533.22 1189.5,-533.22 1189.5,-569.22"/>
<text text-anchor="middle" x="993" y="-547.52" font-family="Helvetica,sans-Serif" font-size="14.00">✗ Ran sandbox for `sweepai/utils/ticket_utils_test.py`.</text>
</g>
<!-- 4564e8b5&#45;2000&#45;4ba2&#45;9c15&#45;c40353b3c878&#45;&gt;5d58a82f&#45;850c&#45;40e6&#45;b1c0&#45;b2dbe4b7a5e2 -->
<g id="edge6" class="edge">
<title>4564e8b5&#45;2000&#45;4ba2&#45;9c15&#45;c40353b3c878&#45;&gt;5d58a82f&#45;850c&#45;40e6&#45;b1c0&#45;b2dbe4b7a5e2</title>
<path fill="none" stroke="black" stroke-dasharray="5,2" d="M993,-605.94C993,-597.68 993,-588.53 993,-580.15"/>
<polygon fill="black" stroke="black" points="996.5,-580.37 993,-570.37 989.5,-580.37 996.5,-580.37"/>
</g>
<!-- ba5a60ff&#45;6255&#45;4f74&#45;add9&#45;efc6216e4d8a -->
<g id="node8" class="node">
<title>ba5a60ff&#45;6255&#45;4f74&#45;add9&#45;efc6216e4d8a</title>
<polygon fill="white" stroke="black" points="1600,-569.22 1208,-569.22 1208,-533.22 1600,-533.22 1600,-569.22"/>
<text text-anchor="middle" x="1404" y="-547.52" font-family="Helvetica,sans-Serif" font-size="14.00">▶ Ran sandbox for `sweepai/utils/ticket_utils_test.py`.</text>
</g>
<!-- 4564e8b5&#45;2000&#45;4ba2&#45;9c15&#45;c40353b3c878&#45;&gt;ba5a60ff&#45;6255&#45;4f74&#45;add9&#45;efc6216e4d8a -->
<g id="edge17" class="edge">
<title>4564e8b5&#45;2000&#45;4ba2&#45;9c15&#45;c40353b3c878&#45;&gt;ba5a60ff&#45;6255&#45;4f74&#45;add9&#45;efc6216e4d8a</title>
<path fill="none" stroke="black" stroke-dasharray="5,2" d="M1097.78,-611.73C1160.95,-599.45 1241,-583.9 1303.41,-571.77"/>
<polygon fill="black" stroke="black" points="1303.91,-575.04 1313.06,-569.7 1302.57,-568.17 1303.91,-575.04"/>
</g>
<!-- 9a22e55f&#45;e85e&#45;48a1&#45;a60d&#45;ee6a1f97cc83 -->
<g id="node9" class="node">
<title>9a22e55f&#45;e85e&#45;48a1&#45;a60d&#45;ee6a1f97cc83</title>
<ellipse fill="#0ee832" stroke="black" cx="190" cy="-455.35" rx="159.61" ry="26.74"/>
<text text-anchor="middle" x="190" y="-459.15" font-family="Helvetica,sans-Serif" font-size="14.00">✓ Modify</text>
<text text-anchor="middle" x="190" y="-444.15" font-family="Helvetica,sans-Serif" font-size="14.00">sweepai/handlers/on_ticket.py</text>
</g>
<!-- dead76ba&#45;ae5e&#45;4601&#45;a4b0&#45;a68b30111f97&#45;&gt;9a22e55f&#45;e85e&#45;48a1&#45;a60d&#45;ee6a1f97cc83 -->
<g id="edge2" class="edge">
<title>dead76ba&#45;ae5e&#45;4601&#45;a4b0&#45;a68b30111f97&#45;&gt;9a22e55f&#45;e85e&#45;48a1&#45;a60d&#45;ee6a1f97cc83</title>
<path fill="none" stroke="black" d="M190,-533C190,-521.81 190,-506.79 190,-493.01"/>
<polygon fill="black" stroke="black" points="193.5,-493.32 190,-483.32 186.5,-493.32 193.5,-493.32"/>
<text text-anchor="middle" x="287.5" y="-504.02" font-family="Helvetica,sans-Serif" font-size="14.00">Additional changes required</text>
</g>
<!-- afd67110&#45;8fee&#45;488f&#45;9a84&#45;3e9b57b9284a -->
<g id="node10" class="node">
<title>afd67110&#45;8fee&#45;488f&#45;9a84&#45;3e9b57b9284a</title>
<ellipse fill="#0ee832" stroke="black" cx="974" cy="-455.35" rx="145.83" ry="26.74"/>
<text text-anchor="middle" x="974" y="-459.15" font-family="Helvetica,sans-Serif" font-size="14.00">✓ Modify</text>
<text text-anchor="middle" x="974" y="-444.15" font-family="Helvetica,sans-Serif" font-size="14.00">sweepai/utils/ticket_utils.py</text>
</g>
<!-- 5d58a82f&#45;850c&#45;40e6&#45;b1c0&#45;b2dbe4b7a5e2&#45;&gt;afd67110&#45;8fee&#45;488f&#45;9a84&#45;3e9b57b9284a -->
<g id="edge7" class="edge">
<title>5d58a82f&#45;850c&#45;40e6&#45;b1c0&#45;b2dbe4b7a5e2&#45;&gt;afd67110&#45;8fee&#45;488f&#45;9a84&#45;3e9b57b9284a</title>
<path fill="none" stroke="black" d="M989.52,-533C987.25,-521.81 984.21,-506.79 981.42,-493.01"/>
<polygon fill="black" stroke="black" points="984.67,-492.43 979.26,-483.32 977.81,-493.81 984.67,-492.43"/>
<text text-anchor="middle" x="1083.5" y="-504.02" font-family="Helvetica,sans-Serif" font-size="14.00">Additional changes required</text>
</g>
<!-- f1a47404&#45;ecd5&#45;4990&#45;a5c3&#45;e128b6769a6b -->
<g id="node11" class="node">
<title>f1a47404&#45;ecd5&#45;4990&#45;a5c3&#45;e128b6769a6b</title>
<ellipse fill="white" stroke="black" cx="1338" cy="-455.35" rx="169" ry="26.74"/>
<text text-anchor="middle" x="1338" y="-459.15" font-family="Helvetica,sans-Serif" font-size="14.00">▶ Modify</text>
<text text-anchor="middle" x="1338" y="-444.15" font-family="Helvetica,sans-Serif" font-size="14.00">sweepai/utils/ticket_utils_test.py</text>
</g>
<!-- 5d58a82f&#45;850c&#45;40e6&#45;b1c0&#45;b2dbe4b7a5e2&#45;&gt;f1a47404&#45;ecd5&#45;4990&#45;a5c3&#45;e128b6769a6b -->
<g id="edge15" class="edge">
<title>5d58a82f&#45;850c&#45;40e6&#45;b1c0&#45;b2dbe4b7a5e2&#45;&gt;f1a47404&#45;ecd5&#45;4990&#45;a5c3&#45;e128b6769a6b</title>
<path fill="none" stroke="black" d="M1108.78,-532.73C1134.1,-527.9 1160.62,-522.07 1185,-515.22 1213.91,-507.1 1244.99,-495.67 1271.52,-485.04"/>
<polygon fill="black" stroke="black" points="1272.51,-488.02 1280.46,-481.02 1269.88,-481.53 1272.51,-488.02"/>
<text text-anchor="middle" x="1325.5" y="-504.02" font-family="Helvetica,sans-Serif" font-size="14.00">Additional changes required</text>
</g>
<!-- 22a09bf5&#45;fbfd&#45;4aeb&#45;9f1b&#45;c7a22719d76a -->
<g id="node12" class="node">
<title>22a09bf5&#45;fbfd&#45;4aeb&#45;9f1b&#45;c7a22719d76a</title>
<polygon fill="#ee0000" stroke="black" points="380,-391.48 0,-391.48 0,-355.48 380,-355.48 380,-391.48"/>
<text text-anchor="middle" x="190" y="-369.78" font-family="Helvetica,sans-Serif" font-size="14.00">✗ Ran sandbox for `sweepai/handlers/on_ticket.py`.</text>
</g>
<!-- 9a22e55f&#45;e85e&#45;48a1&#45;a60d&#45;ee6a1f97cc83&#45;&gt;22a09bf5&#45;fbfd&#45;4aeb&#45;9f1b&#45;c7a22719d76a -->
<g id="edge3" class="edge">
<title>9a22e55f&#45;e85e&#45;48a1&#45;a60d&#45;ee6a1f97cc83&#45;&gt;22a09bf5&#45;fbfd&#45;4aeb&#45;9f1b&#45;c7a22719d76a</title>
<path fill="none" stroke="black" stroke-dasharray="5,2" d="M190,-428.2C190,-419.94 190,-410.79 190,-402.41"/>
<polygon fill="black" stroke="black" points="193.5,-402.63 190,-392.63 186.5,-402.63 193.5,-402.63"/>
</g>
<!-- 1fcd71bd&#45;ad24&#45;4277&#45;9428&#45;acaf5a86013a -->
<g id="node13" class="node">
<title>1fcd71bd&#45;ad24&#45;4277&#45;9428&#45;acaf5a86013a</title>
<polygon fill="#ee0000" stroke="black" points="776,-391.48 416,-391.48 416,-355.48 776,-355.48 776,-391.48"/>
<text text-anchor="middle" x="596" y="-369.78" font-family="Helvetica,sans-Serif" font-size="14.00">✗ Ran sandbox for `sweepai/utils/ticket_utils.py`.</text>
</g>
<!-- afd67110&#45;8fee&#45;488f&#45;9a84&#45;3e9b57b9284a&#45;&gt;1fcd71bd&#45;ad24&#45;4277&#45;9428&#45;acaf5a86013a -->
<g id="edge8" class="edge">
<title>afd67110&#45;8fee&#45;488f&#45;9a84&#45;3e9b57b9284a&#45;&gt;1fcd71bd&#45;ad24&#45;4277&#45;9428&#45;acaf5a86013a</title>
<path fill="none" stroke="black" stroke-dasharray="5,2" d="M880.08,-434.5C821.82,-422.2 747.28,-406.44 689.17,-394.17"/>
<polygon fill="black" stroke="black" points="690.02,-390.56 679.51,-391.92 688.58,-397.41 690.02,-390.56"/>
</g>
<!-- d06e2d21&#45;a39c&#45;42cb&#45;84b0&#45;d3daccc87b43 -->
<g id="node14" class="node">
<title>d06e2d21&#45;a39c&#45;42cb&#45;84b0&#45;d3daccc87b43</title>
<polygon fill="white" stroke="black" points="1153.5,-391.48 794.5,-391.48 794.5,-355.48 1153.5,-355.48 1153.5,-391.48"/>
<text text-anchor="middle" x="974" y="-369.78" font-family="Helvetica,sans-Serif" font-size="14.00">▶ Ran sandbox for `sweepai/utils/ticket_utils.py`.</text>
</g>
<!-- afd67110&#45;8fee&#45;488f&#45;9a84&#45;3e9b57b9284a&#45;&gt;d06e2d21&#45;a39c&#45;42cb&#45;84b0&#45;d3daccc87b43 -->
<g id="edge14" class="edge">
<title>afd67110&#45;8fee&#45;488f&#45;9a84&#45;3e9b57b9284a&#45;&gt;d06e2d21&#45;a39c&#45;42cb&#45;84b0&#45;d3daccc87b43</title>
<path fill="none" stroke="black" stroke-dasharray="5,2" d="M974,-428.2C974,-419.94 974,-410.79 974,-402.41"/>
<polygon fill="black" stroke="black" points="977.5,-402.63 974,-392.63 970.5,-402.63 977.5,-402.63"/>
</g>
<!-- 809a03a1&#45;3885&#45;4a21&#45;a703&#45;a1da9012db30 -->
<g id="node15" class="node">
<title>809a03a1&#45;3885&#45;4a21&#45;a703&#45;a1da9012db30</title>
<polygon fill="white" stroke="black" points="1564,-391.48 1172,-391.48 1172,-355.48 1564,-355.48 1564,-391.48"/>
<text text-anchor="middle" x="1368" y="-369.78" font-family="Helvetica,sans-Serif" font-size="14.00">▶ Ran sandbox for `sweepai/utils/ticket_utils_test.py`.</text>
</g>
<!-- f1a47404&#45;ecd5&#45;4990&#45;a5c3&#45;e128b6769a6b&#45;&gt;809a03a1&#45;3885&#45;4a21&#45;a703&#45;a1da9012db30 -->
<g id="edge16" class="edge">
<title>f1a47404&#45;ecd5&#45;4990&#45;a5c3&#45;e128b6769a6b&#45;&gt;809a03a1&#45;3885&#45;4a21&#45;a703&#45;a1da9012db30</title>
<path fill="none" stroke="black" stroke-dasharray="5,2" d="M1347.82,-428.2C1351,-419.75 1354.52,-410.37 1357.72,-401.84"/>
<polygon fill="black" stroke="black" points="1361.32,-403.22 1361.56,-392.63 1354.77,-400.76 1361.32,-403.22"/>
</g>
<!-- c092bd51&#45;4e7c&#45;44f4&#45;a74d&#45;922e0fb0b6ce -->
<g id="node16" class="node">
<title>c092bd51&#45;4e7c&#45;44f4&#45;a74d&#45;922e0fb0b6ce</title>
<ellipse fill="#0ee832" stroke="black" cx="596" cy="-277.61" rx="145.83" ry="26.74"/>
<text text-anchor="middle" x="596" y="-281.41" font-family="Helvetica,sans-Serif" font-size="14.00">✓ Modify</text>
<text text-anchor="middle" x="596" y="-266.41" font-family="Helvetica,sans-Serif" font-size="14.00">sweepai/utils/ticket_utils.py</text>
</g>
<!-- 1fcd71bd&#45;ad24&#45;4277&#45;9428&#45;acaf5a86013a&#45;&gt;c092bd51&#45;4e7c&#45;44f4&#45;a74d&#45;922e0fb0b6ce -->
<g id="edge9" class="edge">
<title>1fcd71bd&#45;ad24&#45;4277&#45;9428&#45;acaf5a86013a&#45;&gt;c092bd51&#45;4e7c&#45;44f4&#45;a74d&#45;922e0fb0b6ce</title>
<path fill="none" stroke="black" d="M596,-355.26C596,-344.07 596,-329.05 596,-315.27"/>
<polygon fill="black" stroke="black" points="599.5,-315.58 596,-305.58 592.5,-315.58 599.5,-315.58"/>
<text text-anchor="middle" x="693.5" y="-326.28" font-family="Helvetica,sans-Serif" font-size="14.00">Additional changes required</text>
</g>
<!-- 72e8db26&#45;007f&#45;4a78&#45;975e&#45;aade4f5a6810 -->
<g id="node17" class="node">
<title>72e8db26&#45;007f&#45;4a78&#45;975e&#45;aade4f5a6810</title>
<polygon fill="#ee0000" stroke="black" points="587,-213.74 227,-213.74 227,-177.74 587,-177.74 587,-213.74"/>
<text text-anchor="middle" x="407" y="-192.04" font-family="Helvetica,sans-Serif" font-size="14.00">✗ Ran sandbox for `sweepai/utils/ticket_utils.py`.</text>
</g>
<!-- c092bd51&#45;4e7c&#45;44f4&#45;a74d&#45;922e0fb0b6ce&#45;&gt;72e8db26&#45;007f&#45;4a78&#45;975e&#45;aade4f5a6810 -->
<g id="edge10" class="edge">
<title>c092bd51&#45;4e7c&#45;44f4&#45;a74d&#45;922e0fb0b6ce&#45;&gt;72e8db26&#45;007f&#45;4a78&#45;975e&#45;aade4f5a6810</title>
<path fill="none" stroke="black" stroke-dasharray="5,2" d="M539.04,-252.54C513.34,-241.68 483.22,-228.95 458.24,-218.39"/>
<polygon fill="black" stroke="black" points="459.81,-214.84 449.24,-214.17 457.09,-221.28 459.81,-214.84"/>
</g>
<!-- 00e62360&#45;62b0&#45;467a&#45;932b&#45;2a04a9740039 -->
<g id="node18" class="node">
<title>00e62360&#45;62b0&#45;467a&#45;932b&#45;2a04a9740039</title>
<polygon fill="white" stroke="black" points="964.5,-213.74 605.5,-213.74 605.5,-177.74 964.5,-177.74 964.5,-213.74"/>
<text text-anchor="middle" x="785" y="-192.04" font-family="Helvetica,sans-Serif" font-size="14.00">▶ Ran sandbox for `sweepai/utils/ticket_utils.py`.</text>
</g>
<!-- c092bd51&#45;4e7c&#45;44f4&#45;a74d&#45;922e0fb0b6ce&#45;&gt;00e62360&#45;62b0&#45;467a&#45;932b&#45;2a04a9740039 -->
<g id="edge13" class="edge">
<title>c092bd51&#45;4e7c&#45;44f4&#45;a74d&#45;922e0fb0b6ce&#45;&gt;00e62360&#45;62b0&#45;467a&#45;932b&#45;2a04a9740039</title>
<path fill="none" stroke="black" stroke-dasharray="5,2" d="M652.96,-252.54C678.66,-241.68 708.78,-228.95 733.76,-218.39"/>
<polygon fill="black" stroke="black" points="734.91,-221.28 742.76,-214.17 732.19,-214.84 734.91,-221.28"/>
</g>
<!-- 957599b1&#45;7aae&#45;49ad&#45;9630&#45;41f454c4021d -->
<g id="node19" class="node">
<title>957599b1&#45;7aae&#45;49ad&#45;9630&#45;41f454c4021d</title>
<ellipse fill="#ee0000" stroke="black" cx="407" cy="-99.87" rx="195.32" ry="26.74"/>
<text text-anchor="middle" x="407" y="-103.67" font-family="Helvetica,sans-Serif" font-size="14.00">✗ Modify</text>
<text text-anchor="middle" x="407" y="-88.67" font-family="Helvetica,sans-Serif" font-size="14.00">sweepai/agents/assistant_wrapper.py</text>
</g>
<!-- 72e8db26&#45;007f&#45;4a78&#45;975e&#45;aade4f5a6810&#45;&gt;957599b1&#45;7aae&#45;49ad&#45;9630&#45;41f454c4021d -->
<g id="edge11" class="edge">
<title>72e8db26&#45;007f&#45;4a78&#45;975e&#45;aade4f5a6810&#45;&gt;957599b1&#45;7aae&#45;49ad&#45;9630&#45;41f454c4021d</title>
<path fill="none" stroke="black" d="M407,-177.52C407,-166.33 407,-151.31 407,-137.53"/>
<polygon fill="black" stroke="black" points="410.5,-137.84 407,-127.84 403.5,-137.84 410.5,-137.84"/>
<text text-anchor="middle" x="504.5" y="-148.54" font-family="Helvetica,sans-Serif" font-size="14.00">Additional changes required</text>
</g>
<!-- 135c263e&#45;2dee&#45;4738&#45;8b4d&#45;da0c2d797393 -->
<g id="node20" class="node">
<title>135c263e&#45;2dee&#45;4738&#45;8b4d&#45;da0c2d797393</title>
<polygon fill="yellow" stroke="black" points="623,-36 191,-36 191,0 623,0 623,-36"/>
<text text-anchor="middle" x="407" y="-14.3" font-family="Helvetica,sans-Serif" font-size="14.00">⋯ Ran sandbox for `sweepai/agents/assistant_wrapper.py`.</text>
</g>
<!-- 957599b1&#45;7aae&#45;49ad&#45;9630&#45;41f454c4021d&#45;&gt;135c263e&#45;2dee&#45;4738&#45;8b4d&#45;da0c2d797393 -->
<g id="edge12" class="edge">
<title>957599b1&#45;7aae&#45;49ad&#45;9630&#45;41f454c4021d&#45;&gt;135c263e&#45;2dee&#45;4738&#45;8b4d&#45;da0c2d797393</title>
<path fill="none" stroke="black" stroke-dasharray="5,2" d="M407,-72.72C407,-64.46 407,-55.31 407,-46.93"/>
<polygon fill="black" stroke="black" points="410.5,-47.15 407,-37.15 403.5,-47.15 410.5,-47.15"/>
</g>
</g>
</svg>
