<?xml version="1.0" encoding="UTF-8" standalone="no"?>
<!DOCTYPE svg PUBLIC "-//W3C//DTD SVG 1.1//EN"
 "http://www.w3.org/Graphics/SVG/1.1/DTD/svg11.dtd">
<!-- Generated by graphviz version 8.0.3 (0)
 -->
<!-- Pages: 1 -->
<svg width="913pt" height="238pt"
 viewBox="0.00 0.00 913.00 237.74" xmlns="http://www.w3.org/2000/svg" xmlns:xlink="http://www.w3.org/1999/xlink">
<g id="graph0" class="graph" transform="scale(1 1) rotate(0) translate(36 201.74)">
<polygon fill="dimgray" stroke="none" points="-36,36 -36,-201.74 877,-201.74 877,36 -36,36"/>
<text text-anchor="middle" x="420.5" y="-150.54" font-family="Helvetica,sans-Serif" font-size="14.00">Sweep&#39;s Plan &amp; Progress</text>
<!-- start -->
<g id="node1" class="node">
<title>start</title>
</g>
<!-- 91ebb562&#45;d420&#45;4b12&#45;b505&#45;1096e2364eec -->
<g id="node3" class="node">
<title>91ebb562&#45;d420&#45;4b12&#45;b505&#45;1096e2364eec</title>
<ellipse fill="yellow" stroke="black" cx="212.5" cy="-99.87" rx="159.61" ry="26.74"/>
<text text-anchor="middle" x="212.5" y="-103.67" font-family="Helvetica,sans-Serif" font-size="14.00">⋯ Modify</text>
<text text-anchor="middle" x="212.5" y="-88.67" font-family="Helvetica,sans-Serif" font-size="14.00">sweepai/handlers/on_ticket.py</text>
</g>
<!-- start&#45;&gt;91ebb562&#45;d420&#45;4b12&#45;b505&#45;1096e2364eec -->
<g id="edge4" class="edge">
<title>start&#45;&gt;91ebb562&#45;d420&#45;4b12&#45;b505&#45;1096e2364eec</title>
<path fill="none" stroke="black" d="M0.65,-99.87C2.39,-99.87 18.75,-99.87 41.67,-99.87"/>
<polygon fill="black" stroke="black" points="41.63,-103.37 51.63,-99.87 41.63,-96.37 41.63,-103.37"/>
<text text-anchor="middle" x="26.85" y="-106.67" font-family="Helvetica,sans-Serif" font-size="14.00">Start</text>
</g>
<!-- end -->
<g id="node2" class="node">
<title>end</title>
</g>
<!-- 6af6bb1b&#45;5177&#45;40a1&#45;a6be&#45;4f0d70b6ead8 -->
<g id="node4" class="node">
<title>6af6bb1b&#45;5177&#45;40a1&#45;a6be&#45;4f0d70b6ead8</title>
<ellipse fill="white" stroke="black" cx="599.5" cy="-99.87" rx="183.28" ry="26.74"/>
<text text-anchor="middle" x="599.5" y="-103.67" font-family="Helvetica,sans-Serif" font-size="14.00">▶ Modify</text>
<text text-anchor="middle" x="599.5" y="-88.67" font-family="Helvetica,sans-Serif" font-size="14.00">sweepai/handlers/on_ticket_test.py</text>
</g>
<!-- 91ebb562&#45;d420&#45;4b12&#45;b505&#45;1096e2364eec&#45;&gt;6af6bb1b&#45;5177&#45;40a1&#45;a6be&#45;4f0d70b6ead8 -->
<g id="edge2" class="edge">
<title>91ebb562&#45;d420&#45;4b12&#45;b505&#45;1096e2364eec&#45;&gt;6af6bb1b&#45;5177&#45;40a1&#45;a6be&#45;4f0d70b6ead8</title>
<path fill="none" stroke="black" d="M372.36,-99.87C383.23,-99.87 394.1,-99.87 404.97,-99.87"/>
<polygon fill="black" stroke="black" points="404.84,-103.37 414.84,-99.87 404.84,-96.37 404.84,-103.37"/>
</g>
<!-- 81f8ee5e&#45;21fc&#45;4915&#45;86b7&#45;64f6b0f28af0 -->
<g id="node5" class="node">
<title>81f8ee5e&#45;21fc&#45;4915&#45;86b7&#45;64f6b0f28af0</title>
<polygon fill="white" stroke="black" points="384.5,-36 6.5,-36 6.5,0 384.5,0 384.5,-36"/>
<text text-anchor="middle" x="195.5" y="-14.3" font-family="Helvetica,sans-Serif" font-size="14.00">▶ Ran sandbox for `sweepai/handlers/on_ticket.py`.</text>
</g>
<!-- 91ebb562&#45;d420&#45;4b12&#45;b505&#45;1096e2364eec&#45;&gt;81f8ee5e&#45;21fc&#45;4915&#45;86b7&#45;64f6b0f28af0 -->
<g id="edge1" class="edge">
<title>91ebb562&#45;d420&#45;4b12&#45;b505&#45;1096e2364eec&#45;&gt;81f8ee5e&#45;21fc&#45;4915&#45;86b7&#45;64f6b0f28af0</title>
<path fill="none" stroke="black" stroke-dasharray="5,2" d="M206.93,-72.72C205.16,-64.37 203.18,-55.1 201.38,-46.65"/>
<polygon fill="black" stroke="black" points="204.65,-46.2 199.15,-37.15 197.81,-47.66 204.65,-46.2"/>
</g>
<!-- 6af6bb1b&#45;5177&#45;40a1&#45;a6be&#45;4f0d70b6ead8&#45;&gt;end -->
<g id="edge5" class="edge">
<title>6af6bb1b&#45;5177&#45;40a1&#45;a6be&#45;4f0d70b6ead8&#45;&gt;end</title>
<path fill="none" stroke="black" d="M783.08,-99.87C802.74,-99.87 819.28,-99.87 829.49,-99.87"/>
<polygon fill="black" stroke="black" points="829.22,-103.37 839.22,-99.87 829.22,-96.37 829.22,-103.37"/>
<text text-anchor="middle" x="811.32" y="-106.67" font-family="Helvetica,sans-Serif" font-size="14.00">Finish</text>
</g>
<!-- f5fd6815&#45;8b78&#45;4d0b&#45;b00e&#45;5bed563c48d5 -->
<g id="node6" class="node">
<title>f5fd6815&#45;8b78&#45;4d0b&#45;b00e&#45;5bed563c48d5</title>
<polygon fill="white" stroke="black" points="814,-36 403,-36 403,0 814,0 814,-36"/>
<text text-anchor="middle" x="608.5" y="-14.3" font-family="Helvetica,sans-Serif" font-size="14.00">▶ Ran sandbox for `sweepai/handlers/on_ticket_test.py`.</text>
</g>
<!-- 6af6bb1b&#45;5177&#45;40a1&#45;a6be&#45;4f0d70b6ead8&#45;&gt;f5fd6815&#45;8b78&#45;4d0b&#45;b00e&#45;5bed563c48d5 -->
<g id="edge3" class="edge">
<title>6af6bb1b&#45;5177&#45;40a1&#45;a6be&#45;4f0d70b6ead8&#45;&gt;f5fd6815&#45;8b78&#45;4d0b&#45;b00e&#45;5bed563c48d5</title>
<path fill="none" stroke="black" stroke-dasharray="5,2" d="M602.45,-72.72C603.38,-64.46 604.41,-55.31 605.35,-46.93"/>
<polygon fill="black" stroke="black" points="608.93,-47.48 606.57,-37.15 601.97,-46.69 608.93,-47.48"/>
</g>
</g>
</svg>
