<?xml version="1.0" encoding="UTF-8" standalone="no"?>
<!DOCTYPE svg PUBLIC "-//W3C//DTD SVG 1.1//EN"
 "http://www.w3.org/Graphics/SVG/1.1/DTD/svg11.dtd">
<!-- Generated by graphviz version 2.43.0 (0)
 -->
<!-- Title: %3 Pages: 1 -->
<svg width="1802pt" height="238pt"
 viewBox="0.00 0.00 1802.00 237.74" xmlns="http://www.w3.org/2000/svg" xmlns:xlink="http://www.w3.org/1999/xlink">
<g id="graph0" class="graph" transform="scale(1 1) rotate(0) translate(36 201.74)">
<title>%3</title>
<polygon fill="dimgray" stroke="transparent" points="-36,36 -36,-201.74 1766,-201.74 1766,36 -36,36"/>
<text text-anchor="middle" x="865" y="-150.54" font-family="Helvetica,sans-Serif" font-size="14.00">Sweep&#39;s Plan &amp; Progress</text>
<!-- start -->
<g id="node1" class="node">
<title>start</title>
</g>
<!-- a6f069bc&#45;724c&#45;42b3&#45;8a27&#45;db23f12691d3 -->
<g id="node3" class="node">
<title>a6f069bc&#45;724c&#45;42b3&#45;8a27&#45;db23f12691d3</title>
<ellipse fill="#0ee832" stroke="black" cx="244.5" cy="-99.87" rx="145.83" ry="26.74"/>
<text text-anchor="middle" x="244.5" y="-103.67" font-family="Helvetica,sans-Serif" font-size="14.00">✓ Modify</text>
<text text-anchor="middle" x="244.5" y="-88.67" font-family="Helvetica,sans-Serif" font-size="14.00">sweepai/utils/ticket_utils.py</text>
</g>
<!-- start&#45;&gt;a6f069bc&#45;724c&#45;42b3&#45;8a27&#45;db23f12691d3 -->
<g id="edge8" class="edge">
<title>start&#45;&gt;a6f069bc&#45;724c&#45;42b3&#45;8a27&#45;db23f12691d3</title>
<path fill="none" stroke="black" d="M47.07,-99.87C50.26,-99.87 66.6,-99.87 88.63,-99.87"/>
<polygon fill="black" stroke="black" points="88.76,-103.37 98.76,-99.87 88.76,-96.37 88.76,-103.37"/>
<text text-anchor="middle" x="72.92" y="-106.67" font-family="Helvetica,sans-Serif" font-size="14.00">Start</text>
</g>
<!-- end -->
<g id="node2" class="node">
<title>end</title>
</g>
<!-- 7bf9d770&#45;ed7a&#45;4d48&#45;86a1&#45;bd1a9cb80514 -->
<g id="node4" class="node">
<title>7bf9d770&#45;ed7a&#45;4d48&#45;86a1&#45;bd1a9cb80514</title>
<ellipse fill="#0ee832" stroke="black" cx="616.5" cy="-99.87" rx="145.83" ry="26.74"/>
<text text-anchor="middle" x="616.5" y="-103.67" font-family="Helvetica,sans-Serif" font-size="14.00">✓ Modify</text>
<text text-anchor="middle" x="616.5" y="-88.67" font-family="Helvetica,sans-Serif" font-size="14.00">sweepai/utils/ticket_utils.py</text>
</g>
<!-- a6f069bc&#45;724c&#45;42b3&#45;8a27&#45;db23f12691d3&#45;&gt;7bf9d770&#45;ed7a&#45;4d48&#45;86a1&#45;bd1a9cb80514 -->
<g id="edge2" class="edge">
<title>a6f069bc&#45;724c&#45;42b3&#45;8a27&#45;db23f12691d3&#45;&gt;7bf9d770&#45;ed7a&#45;4d48&#45;86a1&#45;bd1a9cb80514</title>
<path fill="none" stroke="black" d="M390.18,-99.87C413.64,-99.87 437.11,-99.87 460.57,-99.87"/>
<polygon fill="black" stroke="black" points="460.63,-103.37 470.63,-99.87 460.63,-96.37 460.63,-103.37"/>
</g>
<!-- 66d5c534&#45;ee4e&#45;4877&#45;a3f0&#45;02a8b453f2a6 -->
<g id="node7" class="node">
<title>66d5c534&#45;ee4e&#45;4877&#45;a3f0&#45;02a8b453f2a6</title>
<polygon fill="#0ee832" stroke="black" points="399,-36 0,-36 0,0 399,0 399,-36"/>
<text text-anchor="middle" x="199.5" y="-14.3" font-family="Helvetica,sans-Serif" font-size="14.00">✓ Run GitHub Actions for `sweepai/utils/ticket_utils.py`</text>
</g>
<!-- a6f069bc&#45;724c&#45;42b3&#45;8a27&#45;db23f12691d3&#45;&gt;66d5c534&#45;ee4e&#45;4877&#45;a3f0&#45;02a8b453f2a6 -->
<g id="edge1" class="edge">
<title>a6f069bc&#45;724c&#45;42b3&#45;8a27&#45;db23f12691d3&#45;&gt;66d5c534&#45;ee4e&#45;4877&#45;a3f0&#45;02a8b453f2a6</title>
<path fill="none" stroke="black" stroke-dasharray="5,2" d="M229.77,-72.72C224.74,-63.8 219.13,-53.84 214.12,-44.95"/>
<polygon fill="black" stroke="black" points="217.12,-43.14 209.16,-36.15 211.02,-46.58 217.12,-43.14"/>
</g>
<!-- 5b3f0c99&#45;3ce9&#45;4a3d&#45;a509&#45;f71b689cf5c1 -->
<g id="node5" class="node">
<title>5b3f0c99&#45;3ce9&#45;4a3d&#45;a509&#45;f71b689cf5c1</title>
<ellipse fill="#0ee832" stroke="black" cx="1045.5" cy="-99.87" rx="162.77" ry="26.74"/>
<text text-anchor="middle" x="1045.5" y="-103.67" font-family="Helvetica,sans-Serif" font-size="14.00">✓ Create</text>
<text text-anchor="middle" x="1045.5" y="-88.67" font-family="Helvetica,sans-Serif" font-size="14.00">sweepai/agents/filter_agent.py</text>
</g>
<!-- 7bf9d770&#45;ed7a&#45;4d48&#45;86a1&#45;bd1a9cb80514&#45;&gt;5b3f0c99&#45;3ce9&#45;4a3d&#45;a509&#45;f71b689cf5c1 -->
<g id="edge4" class="edge">
<title>7bf9d770&#45;ed7a&#45;4d48&#45;86a1&#45;bd1a9cb80514&#45;&gt;5b3f0c99&#45;3ce9&#45;4a3d&#45;a509&#45;f71b689cf5c1</title>
<path fill="none" stroke="black" d="M762.29,-99.87C798.95,-99.87 835.61,-99.87 872.26,-99.87"/>
<polygon fill="black" stroke="black" points="872.6,-103.37 882.6,-99.87 872.6,-96.37 872.6,-103.37"/>
</g>
<!-- e74e7682&#45;9476&#45;4b0f&#45;bf8b&#45;42dce900b8e7 -->
<g id="node8" class="node">
<title>e74e7682&#45;9476&#45;4b0f&#45;bf8b&#45;42dce900b8e7</title>
<polygon fill="#ee0000" stroke="black" points="816,-36 417,-36 417,0 816,0 816,-36"/>
<text text-anchor="middle" x="616.5" y="-14.3" font-family="Helvetica,sans-Serif" font-size="14.00">✗ Run GitHub Actions for `sweepai/utils/ticket_utils.py`</text>
</g>
<!-- 7bf9d770&#45;ed7a&#45;4d48&#45;86a1&#45;bd1a9cb80514&#45;&gt;e74e7682&#45;9476&#45;4b0f&#45;bf8b&#45;42dce900b8e7 -->
<g id="edge3" class="edge">
<title>7bf9d770&#45;ed7a&#45;4d48&#45;86a1&#45;bd1a9cb80514&#45;&gt;e74e7682&#45;9476&#45;4b0f&#45;bf8b&#45;42dce900b8e7</title>
<path fill="none" stroke="black" stroke-dasharray="5,2" d="M616.5,-72.72C616.5,-64.27 616.5,-54.89 616.5,-46.36"/>
<polygon fill="black" stroke="black" points="620,-46.15 616.5,-36.15 613,-46.15 620,-46.15"/>
</g>
<!-- 7d6aa75c&#45;11b8&#45;41c6&#45;bf28&#45;c98bcc671471 -->
<g id="node6" class="node">
<title>7d6aa75c&#45;11b8&#45;41c6&#45;bf28&#45;c98bcc671471</title>
<ellipse fill="#0ee832" stroke="black" cx="1466.5" cy="-99.87" rx="185.94" ry="26.74"/>
<text text-anchor="middle" x="1466.5" y="-103.67" font-family="Helvetica,sans-Serif" font-size="14.00">✓ Create</text>
<text text-anchor="middle" x="1466.5" y="-88.67" font-family="Helvetica,sans-Serif" font-size="14.00">sweepai/agents/filter_agent_test.py</text>
</g>
<!-- 5b3f0c99&#45;3ce9&#45;4a3d&#45;a509&#45;f71b689cf5c1&#45;&gt;7d6aa75c&#45;11b8&#45;41c6&#45;bf28&#45;c98bcc671471 -->
<g id="edge6" class="edge">
<title>5b3f0c99&#45;3ce9&#45;4a3d&#45;a509&#45;f71b689cf5c1&#45;&gt;7d6aa75c&#45;11b8&#45;41c6&#45;bf28&#45;c98bcc671471</title>
<path fill="none" stroke="black" d="M1208.31,-99.87C1228.97,-99.87 1249.62,-99.87 1270.28,-99.87"/>
<polygon fill="black" stroke="black" points="1270.42,-103.37 1280.42,-99.87 1270.42,-96.37 1270.42,-103.37"/>
</g>
<!-- 44f6ab6b&#45;0452&#45;4531&#45;b2f0&#45;f0b2392e6ecd -->
<g id="node9" class="node">
<title>44f6ab6b&#45;0452&#45;4531&#45;b2f0&#45;f0b2392e6ecd</title>
<polygon fill="#ee0000" stroke="black" points="1256.5,-36 834.5,-36 834.5,0 1256.5,0 1256.5,-36"/>
<text text-anchor="middle" x="1045.5" y="-14.3" font-family="Helvetica,sans-Serif" font-size="14.00">✗ Run GitHub Actions for `sweepai/agents/filter_agent.py`</text>
</g>
<!-- 5b3f0c99&#45;3ce9&#45;4a3d&#45;a509&#45;f71b689cf5c1&#45;&gt;44f6ab6b&#45;0452&#45;4531&#45;b2f0&#45;f0b2392e6ecd -->
<g id="edge5" class="edge">
<title>5b3f0c99&#45;3ce9&#45;4a3d&#45;a509&#45;f71b689cf5c1&#45;&gt;44f6ab6b&#45;0452&#45;4531&#45;b2f0&#45;f0b2392e6ecd</title>
<path fill="none" stroke="black" stroke-dasharray="5,2" d="M1045.5,-72.72C1045.5,-64.27 1045.5,-54.89 1045.5,-46.36"/>
<polygon fill="black" stroke="black" points="1049,-46.15 1045.5,-36.15 1042,-46.15 1049,-46.15"/>
</g>
<!-- 7d6aa75c&#45;11b8&#45;41c6&#45;bf28&#45;c98bcc671471&#45;&gt;end -->
<g id="edge9" class="edge">
<title>7d6aa75c&#45;11b8&#45;41c6&#45;bf28&#45;c98bcc671471&#45;&gt;end</title>
<path fill="none" stroke="black" d="M1652.68,-99.87C1672.77,-99.87 1689.62,-99.87 1699.86,-99.87"/>
<polygon fill="black" stroke="black" points="1699.87,-103.37 1709.87,-99.87 1699.87,-96.37 1699.87,-103.37"/>
<text text-anchor="middle" x="1681.23" y="-106.67" font-family="Helvetica,sans-Serif" font-size="14.00">Finish</text>
</g>
<!-- 5ba9f2c6&#45;0a4a&#45;40db&#45;910f&#45;0a4b50c7e150 -->
<g id="node10" class="node">
<title>5ba9f2c6&#45;0a4a&#45;40db&#45;910f&#45;0a4b50c7e150</title>
<polygon fill="#ee0000" stroke="black" points="1730,-36 1275,-36 1275,0 1730,0 1730,-36"/>
<text text-anchor="middle" x="1502.5" y="-14.3" font-family="Helvetica,sans-Serif" font-size="14.00">✗ Run GitHub Actions for `sweepai/agents/filter_agent_test.py`</text>
</g>
<!-- 7d6aa75c&#45;11b8&#45;41c6&#45;bf28&#45;c98bcc671471&#45;&gt;5ba9f2c6&#45;0a4a&#45;40db&#45;910f&#45;0a4b50c7e150 -->
<g id="edge7" class="edge">
<title>7d6aa75c&#45;11b8&#45;41c6&#45;bf28&#45;c98bcc671471&#45;&gt;5ba9f2c6&#45;0a4a&#45;40db&#45;910f&#45;0a4b50c7e150</title>
<path fill="none" stroke="black" stroke-dasharray="5,2" d="M1478.29,-72.72C1482.22,-63.99 1486.61,-54.26 1490.55,-45.51"/>
<polygon fill="black" stroke="black" points="1493.85,-46.7 1494.77,-36.15 1487.47,-43.82 1493.85,-46.7"/>
</g>
</g>
</svg>
