<?xml version="1.0" encoding="UTF-8" standalone="no"?>
<!DOCTYPE svg PUBLIC "-//W3C//DTD SVG 1.1//EN"
 "http://www.w3.org/Graphics/SVG/1.1/DTD/svg11.dtd">
<!-- Generated by graphviz version 8.0.3 (0)
 -->
<!-- Pages: 1 -->
<svg width="910pt" height="238pt"
 viewBox="0.00 0.00 910.00 237.74" xmlns="http://www.w3.org/2000/svg" xmlns:xlink="http://www.w3.org/1999/xlink">
<g id="graph0" class="graph" transform="scale(1 1) rotate(0) translate(36 201.74)">
<polygon fill="dimgray" stroke="none" points="-36,36 -36,-201.74 874,-201.74 874,36 -36,36"/>
<text text-anchor="middle" x="419" y="-150.54" font-family="Helvetica,sans-Serif" font-size="14.00">Sweep&#39;s Plan &amp; Progress</text>
<!-- start -->
<g id="node1" class="node">
<title>start</title>
</g>
<!-- 7d9c269d&#45;2515&#45;4590&#45;b840&#45;9c348a6016e3 -->
<g id="node3" class="node">
<title>7d9c269d&#45;2515&#45;4590&#45;b840&#45;9c348a6016e3</title>
<ellipse fill="#0ee832" stroke="black" cx="253" cy="-99.87" rx="162.77" ry="26.74"/>
<text text-anchor="middle" x="253" y="-103.67" font-family="Helvetica,sans-Serif" font-size="14.00">✓ Create</text>
<text text-anchor="middle" x="253" y="-88.67" font-family="Helvetica,sans-Serif" font-size="14.00">sweepai/agents/filter_agent.py</text>
</g>
<!-- start&#45;&gt;7d9c269d&#45;2515&#45;4590&#45;b840&#45;9c348a6016e3 -->
<g id="edge4" class="edge">
<title>start&#45;&gt;7d9c269d&#45;2515&#45;4590&#45;b840&#45;9c348a6016e3</title>
<path fill="none" stroke="black" d="M38.16,-99.87C39.9,-99.87 56.09,-99.87 78.88,-99.87"/>
<polygon fill="black" stroke="black" points="78.79,-103.37 88.79,-99.87 78.79,-96.37 78.79,-103.37"/>
<text text-anchor="middle" x="64.43" y="-106.67" font-family="Helvetica,sans-Serif" font-size="14.00">Start</text>
</g>
<!-- end -->
<g id="node2" class="node">
<title>end</title>
</g>
<!-- 276a65a0&#45;7f4c&#45;46fc&#45;8766&#45;c3c501c22482 -->
<g id="node4" class="node">
<title>276a65a0&#45;7f4c&#45;46fc&#45;8766&#45;c3c501c22482</title>
<ellipse fill="white" stroke="black" cx="618" cy="-99.87" rx="145.83" ry="26.74"/>
<text text-anchor="middle" x="618" y="-103.67" font-family="Helvetica,sans-Serif" font-size="14.00">▶ Modify</text>
<text text-anchor="middle" x="618" y="-88.67" font-family="Helvetica,sans-Serif" font-size="14.00">sweepai/utils/ticket_utils.py</text>
</g>
<!-- 7d9c269d&#45;2515&#45;4590&#45;b840&#45;9c348a6016e3&#45;&gt;276a65a0&#45;7f4c&#45;46fc&#45;8766&#45;c3c501c22482 -->
<g id="edge2" class="edge">
<title>7d9c269d&#45;2515&#45;4590&#45;b840&#45;9c348a6016e3&#45;&gt;276a65a0&#45;7f4c&#45;46fc&#45;8766&#45;c3c501c22482</title>
<path fill="none" stroke="black" d="M416.25,-99.87C431.15,-99.87 446.06,-99.87 460.96,-99.87"/>
<polygon fill="black" stroke="black" points="460.81,-103.37 470.81,-99.87 460.81,-96.37 460.81,-103.37"/>
</g>
<!-- 4081cd86&#45;0605&#45;46c3&#45;85d2&#45;608a2122e1cd -->
<g id="node5" class="node">
<title>4081cd86&#45;0605&#45;46c3&#45;85d2&#45;608a2122e1cd</title>
<polygon fill="#0ee832" stroke="black" points="422,-36 0,-36 0,0 422,0 422,-36"/>
<text text-anchor="middle" x="211" y="-14.3" font-family="Helvetica,sans-Serif" font-size="14.00">✓ Run GitHub Actions for `sweepai/agents/filter_agent.py`</text>
</g>
<!-- 7d9c269d&#45;2515&#45;4590&#45;b840&#45;9c348a6016e3&#45;&gt;4081cd86&#45;0605&#45;46c3&#45;85d2&#45;608a2122e1cd -->
<g id="edge1" class="edge">
<title>7d9c269d&#45;2515&#45;4590&#45;b840&#45;9c348a6016e3&#45;&gt;4081cd86&#45;0605&#45;46c3&#45;85d2&#45;608a2122e1cd</title>
<path fill="none" stroke="black" stroke-dasharray="5,2" d="M239.48,-73.16C234.88,-64.41 229.73,-54.62 225.09,-45.79"/>
<polygon fill="black" stroke="black" points="227.87,-44.56 220.12,-37.34 221.67,-47.82 227.87,-44.56"/>
</g>
<!-- 276a65a0&#45;7f4c&#45;46fc&#45;8766&#45;c3c501c22482&#45;&gt;end -->
<g id="edge5" class="edge">
<title>276a65a0&#45;7f4c&#45;46fc&#45;8766&#45;c3c501c22482&#45;&gt;end</title>
<path fill="none" stroke="black" d="M764.09,-99.87C783.73,-99.87 800.66,-99.87 811.06,-99.87"/>
<polygon fill="black" stroke="black" points="810.71,-103.37 820.71,-99.87 810.71,-96.37 810.71,-103.37"/>
<text text-anchor="middle" x="792.58" y="-106.67" font-family="Helvetica,sans-Serif" font-size="14.00">Finish</text>
</g>
<!-- e839f0b0&#45;4a76&#45;45fd&#45;9af3&#45;b315d26b2ff2 -->
<g id="node6" class="node">
<title>e839f0b0&#45;4a76&#45;45fd&#45;9af3&#45;b315d26b2ff2</title>
<polygon fill="white" stroke="black" points="838,-36 440,-36 440,0 838,0 838,-36"/>
<text text-anchor="middle" x="639" y="-14.3" font-family="Helvetica,sans-Serif" font-size="14.00">▶ Run GitHub Actions for `sweepai/utils/ticket_utils.py`</text>
</g>
<!-- 276a65a0&#45;7f4c&#45;46fc&#45;8766&#45;c3c501c22482&#45;&gt;e839f0b0&#45;4a76&#45;45fd&#45;9af3&#45;b315d26b2ff2 -->
<g id="edge3" class="edge">
<title>276a65a0&#45;7f4c&#45;46fc&#45;8766&#45;c3c501c22482&#45;&gt;e839f0b0&#45;4a76&#45;45fd&#45;9af3&#45;b315d26b2ff2</title>
<path fill="none" stroke="black" stroke-dasharray="5,2" d="M624.88,-72.72C627.07,-64.37 629.51,-55.1 631.73,-46.65"/>
<polygon fill="black" stroke="black" points="635.33,-47.71 634.49,-37.15 628.56,-45.93 635.33,-47.71"/>
</g>
</g>
</svg>
