<?xml version="1.0" encoding="UTF-8" standalone="no"?>
<!DOCTYPE svg PUBLIC "-//W3C//DTD SVG 1.1//EN"
 "http://www.w3.org/Graphics/SVG/1.1/DTD/svg11.dtd">
<!-- Generated by graphviz version 2.43.0 (0)
 -->
<!-- Title: %3 Pages: 1 -->
<svg width="886pt" height="238pt"
 viewBox="0.00 0.00 886.00 237.74" xmlns="http://www.w3.org/2000/svg" xmlns:xlink="http://www.w3.org/1999/xlink">
<g id="graph0" class="graph" transform="scale(1 1) rotate(0) translate(36 201.74)">
<title>%3</title>
<polygon fill="dimgray" stroke="transparent" points="-36,36 -36,-201.74 850,-201.74 850,36 -36,36"/>
<text text-anchor="middle" x="407" y="-150.54" font-family="Helvetica,sans-Serif" font-size="14.00">Sweep&#39;s Plan &amp; Progress</text>
<!-- start -->
<g id="node1" class="node">
<title>start</title>
</g>
<!-- c202f8d6&#45;3e10&#45;4a37&#45;94b7&#45;db38ab0df780 -->
<g id="node3" class="node">
<title>c202f8d6&#45;3e10&#45;4a37&#45;94b7&#45;db38ab0df780</title>
<ellipse fill="yellow" stroke="black" cx="243" cy="-99.87" rx="145.83" ry="26.74"/>
<text text-anchor="middle" x="243" y="-103.67" font-family="Helvetica,sans-Serif" font-size="14.00">⋯ Modify</text>
<text text-anchor="middle" x="243" y="-88.67" font-family="Helvetica,sans-Serif" font-size="14.00">sweepai/utils/ticket_utils.py</text>
</g>
<!-- start&#45;&gt;c202f8d6&#45;3e10&#45;4a37&#45;94b7&#45;db38ab0df780 -->
<g id="edge4" class="edge">
<title>start&#45;&gt;c202f8d6&#45;3e10&#45;4a37&#45;94b7&#45;db38ab0df780</title>
<path fill="none" stroke="black" d="M45.57,-99.87C48.76,-99.87 65.1,-99.87 87.13,-99.87"/>
<polygon fill="black" stroke="black" points="87.26,-103.37 97.26,-99.87 87.26,-96.37 87.26,-103.37"/>
<text text-anchor="middle" x="71.42" y="-106.67" font-family="Helvetica,sans-Serif" font-size="14.00">Start</text>
</g>
<!-- end -->
<g id="node2" class="node">
<title>end</title>
</g>
<!-- 8b953d48&#45;2c56&#45;4fe9&#45;9774&#45;6672b6665740 -->
<g id="node4" class="node">
<title>8b953d48&#45;2c56&#45;4fe9&#45;9774&#45;6672b6665740</title>
<ellipse fill="white" stroke="black" cx="593" cy="-99.87" rx="145.83" ry="26.74"/>
<text text-anchor="middle" x="593" y="-103.67" font-family="Helvetica,sans-Serif" font-size="14.00">▶ Modify</text>
<text text-anchor="middle" x="593" y="-88.67" font-family="Helvetica,sans-Serif" font-size="14.00">sweepai/utils/ticket_utils.py</text>
</g>
<!-- c202f8d6&#45;3e10&#45;4a37&#45;94b7&#45;db38ab0df780&#45;&gt;8b953d48&#45;2c56&#45;4fe9&#45;9774&#45;6672b6665740 -->
<g id="edge2" class="edge">
<title>c202f8d6&#45;3e10&#45;4a37&#45;94b7&#45;db38ab0df780&#45;&gt;8b953d48&#45;2c56&#45;4fe9&#45;9774&#45;6672b6665740</title>
<path fill="none" stroke="black" d="M388.95,-99.87C405.01,-99.87 421.07,-99.87 437.13,-99.87"/>
<polygon fill="black" stroke="black" points="437.13,-103.37 447.13,-99.87 437.13,-96.37 437.13,-103.37"/>
</g>
<!-- 8500644a&#45;aa0e&#45;4ff1&#45;bd83&#45;fdac585d7154 -->
<g id="node5" class="node">
<title>8500644a&#45;aa0e&#45;4ff1&#45;bd83&#45;fdac585d7154</title>
<polygon fill="white" stroke="black" points="398,-36 0,-36 0,0 398,0 398,-36"/>
<text text-anchor="middle" x="199" y="-14.3" font-family="Helvetica,sans-Serif" font-size="14.00">▶ Run GitHub Actions for `sweepai/utils/ticket_utils.py`</text>
</g>
<!-- c202f8d6&#45;3e10&#45;4a37&#45;94b7&#45;db38ab0df780&#45;&gt;8500644a&#45;aa0e&#45;4ff1&#45;bd83&#45;fdac585d7154 -->
<g id="edge1" class="edge">
<title>c202f8d6&#45;3e10&#45;4a37&#45;94b7&#45;db38ab0df780&#45;&gt;8500644a&#45;aa0e&#45;4ff1&#45;bd83&#45;fdac585d7154</title>
<path fill="none" stroke="black" stroke-dasharray="5,2" d="M228.59,-72.72C223.68,-63.8 218.2,-53.84 213.29,-44.95"/>
<polygon fill="black" stroke="black" points="216.34,-43.22 208.45,-36.15 210.21,-46.59 216.34,-43.22"/>
</g>
<!-- 8b953d48&#45;2c56&#45;4fe9&#45;9774&#45;6672b6665740&#45;&gt;end -->
<g id="edge5" class="edge">
<title>8b953d48&#45;2c56&#45;4fe9&#45;9774&#45;6672b6665740&#45;&gt;end</title>
<path fill="none" stroke="black" d="M738.81,-99.87C758.57,-99.87 775.62,-99.87 786.07,-99.87"/>
<polygon fill="black" stroke="black" points="786.35,-103.37 796.35,-99.87 786.35,-96.37 786.35,-103.37"/>
<text text-anchor="middle" x="767.58" y="-106.67" font-family="Helvetica,sans-Serif" font-size="14.00">Finish</text>
</g>
<!-- 7d479dcd&#45;06fc&#45;42ca&#45;8d7e&#45;0fcbbdc98893 -->
<g id="node6" class="node">
<title>7d479dcd&#45;06fc&#45;42ca&#45;8d7e&#45;0fcbbdc98893</title>
<polygon fill="white" stroke="black" points="814,-36 416,-36 416,0 814,0 814,-36"/>
<text text-anchor="middle" x="615" y="-14.3" font-family="Helvetica,sans-Serif" font-size="14.00">▶ Run GitHub Actions for `sweepai/utils/ticket_utils.py`</text>
</g>
<!-- 8b953d48&#45;2c56&#45;4fe9&#45;9774&#45;6672b6665740&#45;&gt;7d479dcd&#45;06fc&#45;42ca&#45;8d7e&#45;0fcbbdc98893 -->
<g id="edge3" class="edge">
<title>8b953d48&#45;2c56&#45;4fe9&#45;9774&#45;6672b6665740&#45;&gt;7d479dcd&#45;06fc&#45;42ca&#45;8d7e&#45;0fcbbdc98893</title>
<path fill="none" stroke="black" stroke-dasharray="5,2" d="M600.2,-72.72C602.58,-64.08 605.23,-54.47 607.62,-45.79"/>
<polygon fill="black" stroke="black" points="611,-46.72 610.28,-36.15 604.25,-44.86 611,-46.72"/>
</g>
</g>
</svg>
