<?xml version="1.0" encoding="UTF-8" standalone="no"?>
<!DOCTYPE svg PUBLIC "-//W3C//DTD SVG 1.1//EN"
 "http://www.w3.org/Graphics/SVG/1.1/DTD/svg11.dtd">
<!-- Generated by graphviz version 2.43.0 (0)
 -->
<!-- Title: %3 Pages: 1 -->
<svg width="944pt" height="238pt"
 viewBox="0.00 0.00 943.50 237.74" xmlns="http://www.w3.org/2000/svg" xmlns:xlink="http://www.w3.org/1999/xlink">
<g id="graph0" class="graph" transform="scale(1 1) rotate(0) translate(36 201.74)">
<title>%3</title>
<polygon fill="dimgray" stroke="transparent" points="-36,36 -36,-201.74 907.5,-201.74 907.5,36 -36,36"/>
<text text-anchor="middle" x="435.75" y="-150.54" font-family="Helvetica,sans-Serif" font-size="14.00">Sweep&#39;s Plan &amp; Progress</text>
<!-- start -->
<g id="node1" class="node">
<title>start</title>
</g>
<!-- 5216d38c&#45;bd38&#45;45aa&#45;9e6c&#45;015e2af461d1 -->
<g id="node3" class="node">
<title>5216d38c&#45;bd38&#45;45aa&#45;9e6c&#45;015e2af461d1</title>
<ellipse fill="#0ee832" stroke="black" cx="267.5" cy="-99.87" rx="183.7" ry="26.74"/>
<text text-anchor="middle" x="267.5" y="-103.67" font-family="Helvetica,sans-Serif" font-size="14.00">✓ Create</text>
<text text-anchor="middle" x="267.5" y="-88.67" font-family="Helvetica,sans-Serif" font-size="14.00">sweepai/agents/key_term_agent.py</text>
</g>
<!-- start&#45;&gt;5216d38c&#45;bd38&#45;45aa&#45;9e6c&#45;015e2af461d1 -->
<g id="edge4" class="edge">
<title>start&#45;&gt;5216d38c&#45;bd38&#45;45aa&#45;9e6c&#45;015e2af461d1</title>
<path fill="none" stroke="black" d="M32.18,-99.87C35.57,-99.87 51.42,-99.87 73.43,-99.87"/>
<polygon fill="black" stroke="black" points="73.58,-103.37 83.58,-99.87 73.58,-96.37 73.58,-103.37"/>
<text text-anchor="middle" x="57.83" y="-106.67" font-family="Helvetica,sans-Serif" font-size="14.00">Start</text>
</g>
<!-- end -->
<g id="node2" class="node">
<title>end</title>
</g>
<!-- c7741ccc&#45;b897&#45;452f&#45;be53&#45;ac1906762f9a -->
<g id="node4" class="node">
<title>c7741ccc&#45;b897&#45;452f&#45;be53&#45;ac1906762f9a</title>
<ellipse fill="white" stroke="black" cx="652.5" cy="-99.87" rx="145.83" ry="26.74"/>
<text text-anchor="middle" x="652.5" y="-103.67" font-family="Helvetica,sans-Serif" font-size="14.00">▶ Modify</text>
<text text-anchor="middle" x="652.5" y="-88.67" font-family="Helvetica,sans-Serif" font-size="14.00">sweepai/utils/ticket_utils.py</text>
</g>
<!-- 5216d38c&#45;bd38&#45;45aa&#45;9e6c&#45;015e2af461d1&#45;&gt;c7741ccc&#45;b897&#45;452f&#45;be53&#45;ac1906762f9a -->
<g id="edge2" class="edge">
<title>5216d38c&#45;bd38&#45;45aa&#45;9e6c&#45;015e2af461d1&#45;&gt;c7741ccc&#45;b897&#45;452f&#45;be53&#45;ac1906762f9a</title>
<path fill="none" stroke="black" d="M451.35,-99.87C466.36,-99.87 481.36,-99.87 496.36,-99.87"/>
<polygon fill="black" stroke="black" points="496.75,-103.37 506.75,-99.87 496.75,-96.37 496.75,-103.37"/>
</g>
<!-- 6aa76c96&#45;24ac&#45;4492&#45;bc0b&#45;9a7a6d0d39db -->
<g id="node5" class="node">
<title>6aa76c96&#45;24ac&#45;4492&#45;bc0b&#45;9a7a6d0d39db</title>
<polygon fill="yellow" stroke="black" points="455,-36 0,-36 0,0 455,0 455,-36"/>
<text text-anchor="middle" x="227.5" y="-14.3" font-family="Helvetica,sans-Serif" font-size="14.00">⋯ Run GitHub Actions for `sweepai/agents/key_term_agent.py`</text>
</g>
<!-- 5216d38c&#45;bd38&#45;45aa&#45;9e6c&#45;015e2af461d1&#45;&gt;6aa76c96&#45;24ac&#45;4492&#45;bc0b&#45;9a7a6d0d39db -->
<g id="edge1" class="edge">
<title>5216d38c&#45;bd38&#45;45aa&#45;9e6c&#45;015e2af461d1&#45;&gt;6aa76c96&#45;24ac&#45;4492&#45;bc0b&#45;9a7a6d0d39db</title>
<path fill="none" stroke="black" stroke-dasharray="5,2" d="M254.4,-72.72C249.99,-63.9 245.06,-54.05 240.64,-45.23"/>
<polygon fill="black" stroke="black" points="243.69,-43.52 236.09,-36.15 237.44,-46.66 243.69,-43.52"/>
</g>
<!-- c7741ccc&#45;b897&#45;452f&#45;be53&#45;ac1906762f9a&#45;&gt;end -->
<g id="edge5" class="edge">
<title>c7741ccc&#45;b897&#45;452f&#45;be53&#45;ac1906762f9a&#45;&gt;end</title>
<path fill="none" stroke="black" d="M798.31,-99.87C818.07,-99.87 835.12,-99.87 845.57,-99.87"/>
<polygon fill="black" stroke="black" points="845.85,-103.37 855.85,-99.87 845.85,-96.37 845.85,-103.37"/>
<text text-anchor="middle" x="827.08" y="-106.67" font-family="Helvetica,sans-Serif" font-size="14.00">Finish</text>
</g>
<!-- 70e7e257&#45;ebf5&#45;48b6&#45;ac71&#45;dc6bf3a457ec -->
<g id="node6" class="node">
<title>70e7e257&#45;ebf5&#45;48b6&#45;ac71&#45;dc6bf3a457ec</title>
<polygon fill="white" stroke="black" points="871.5,-36 473.5,-36 473.5,0 871.5,0 871.5,-36"/>
<text text-anchor="middle" x="672.5" y="-14.3" font-family="Helvetica,sans-Serif" font-size="14.00">▶ Run GitHub Actions for `sweepai/utils/ticket_utils.py`</text>
</g>
<!-- c7741ccc&#45;b897&#45;452f&#45;be53&#45;ac1906762f9a&#45;&gt;70e7e257&#45;ebf5&#45;48b6&#45;ac71&#45;dc6bf3a457ec -->
<g id="edge3" class="edge">
<title>c7741ccc&#45;b897&#45;452f&#45;be53&#45;ac1906762f9a&#45;&gt;70e7e257&#45;ebf5&#45;48b6&#45;ac71&#45;dc6bf3a457ec</title>
<path fill="none" stroke="black" stroke-dasharray="5,2" d="M659.05,-72.72C661.19,-64.18 663.57,-54.68 665.72,-46.08"/>
<polygon fill="black" stroke="black" points="669.17,-46.7 668.21,-36.15 662.38,-45 669.17,-46.7"/>
</g>
</g>
</svg>
