<?xml version="1.0" encoding="UTF-8" standalone="no"?>
<!DOCTYPE svg PUBLIC "-//W3C//DTD SVG 1.1//EN"
 "http://www.w3.org/Graphics/SVG/1.1/DTD/svg11.dtd">
<!-- Generated by graphviz version 8.0.3 (0)
 -->
<!-- Pages: 1 -->
<svg width="545pt" height="165pt"
 viewBox="0.00 0.00 545.00 164.74" xmlns="http://www.w3.org/2000/svg" xmlns:xlink="http://www.w3.org/1999/xlink">
<g id="graph0" class="graph" transform="scale(1 1) rotate(0) translate(36 128.74)">
<polygon fill="dimgray" stroke="none" points="-36,36 -36,-128.74 509,-128.74 509,36 -36,36"/>
<text text-anchor="middle" x="236.5" y="-77.54" font-family="Helvetica,sans-Serif" font-size="14.00">Sweep&#39;s Plan &amp; Progress</text>
<!-- start -->
<g id="node1" class="node">
<title>start</title>
</g>
<!-- f20c829d&#45;780e&#45;45f4&#45;b6b4&#45;9e2290bc4c4a -->
<g id="node3" class="node">
<title>f20c829d&#45;780e&#45;45f4&#45;b6b4&#45;9e2290bc4c4a</title>
<ellipse fill="#0ee832" stroke="black" cx="233.5" cy="-26.87" rx="181.04" ry="26.74"/>
<text text-anchor="middle" x="233.5" y="-30.67" font-family="Helvetica,sans-Serif" font-size="14.00">✓ Create</text>
<text text-anchor="middle" x="233.5" y="-15.67" font-family="Helvetica,sans-Serif" font-size="14.00">.github/workflows/pre_commit.yml</text>
</g>
<!-- start&#45;&gt;f20c829d&#45;780e&#45;45f4&#45;b6b4&#45;9e2290bc4c4a -->
<g id="edge1" class="edge">
<title>start&#45;&gt;f20c829d&#45;780e&#45;45f4&#45;b6b4&#45;9e2290bc4c4a</title>
<path fill="none" stroke="black" d="M0.67,-26.87C2.46,-26.87 18.37,-26.87 41.11,-26.87"/>
<polygon fill="black" stroke="black" points="41.01,-30.37 51.01,-26.87 41.01,-23.37 41.01,-30.37"/>
<text text-anchor="middle" x="26.74" y="-33.67" font-family="Helvetica,sans-Serif" font-size="14.00">Start</text>
</g>
<!-- end -->
<g id="node2" class="node">
<title>end</title>
</g>
<!-- f20c829d&#45;780e&#45;45f4&#45;b6b4&#45;9e2290bc4c4a&#45;&gt;end -->
<g id="edge2" class="edge">
<title>f20c829d&#45;780e&#45;45f4&#45;b6b4&#45;9e2290bc4c4a&#45;&gt;end</title>
<path fill="none" stroke="black" d="M414.95,-26.87C434.63,-26.87 451.22,-26.87 461.45,-26.87"/>
<polygon fill="black" stroke="black" points="461.22,-30.37 471.22,-26.87 461.22,-23.37 461.22,-30.37"/>
<text text-anchor="middle" x="443.26" y="-33.67" font-family="Helvetica,sans-Serif" font-size="14.00">Finish</text>
</g>
</g>
</svg>
