<?xml version="1.0" encoding="UTF-8" standalone="no"?>
<!DOCTYPE svg PUBLIC "-//W3C//DTD SVG 1.1//EN"
 "http://www.w3.org/Graphics/SVG/1.1/DTD/svg11.dtd">
<!-- Generated by graphviz version 2.43.0 (0)
 -->
<!-- Title: %3 Pages: 1 -->
<svg width="403pt" height="165pt"
 viewBox="0.00 0.00 403.00 164.74" xmlns="http://www.w3.org/2000/svg" xmlns:xlink="http://www.w3.org/1999/xlink">
<g id="graph0" class="graph" transform="scale(1 1) rotate(0) translate(36 128.74)">
<title>%3</title>
<polygon fill="dimgray" stroke="transparent" points="-36,36 -36,-128.74 367,-128.74 367,36 -36,36"/>
<text text-anchor="middle" x="165.5" y="-77.54" font-family="Helvetica,sans-Serif" font-size="14.00">Sweep&#39;s Plan &amp; Progress</text>
<!-- start -->
<g id="node1" class="node">
<title>start</title>
</g>
<!-- 639c4e94&#45;be12&#45;448a&#45;b6dd&#45;fa8636c2d1a0 -->
<g id="node3" class="node">
<title>639c4e94&#45;be12&#45;448a&#45;b6dd&#45;fa8636c2d1a0</title>
<ellipse fill="#0ee832" stroke="black" cx="162.5" cy="-26.87" rx="110.12" ry="26.74"/>
<text text-anchor="middle" x="162.5" y="-30.67" font-family="Helvetica,sans-Serif" font-size="14.00">✓ Modify</text>
<text text-anchor="middle" x="162.5" y="-15.67" font-family="Helvetica,sans-Serif" font-size="14.00">docs/installation.md</text>
</g>
<!-- start&#45;&gt;639c4e94&#45;be12&#45;448a&#45;b6dd&#45;fa8636c2d1a0 -->
<g id="edge1" class="edge">
<title>start&#45;&gt;639c4e94&#45;be12&#45;448a&#45;b6dd&#45;fa8636c2d1a0</title>
<path fill="none" stroke="black" d="M1.22,-26.87C4.77,-26.87 21.02,-26.87 41.93,-26.87"/>
<polygon fill="black" stroke="black" points="42.19,-30.37 52.19,-26.87 42.19,-23.37 42.19,-30.37"/>
<text text-anchor="middle" x="26.6" y="-33.67" font-family="Helvetica,sans-Serif" font-size="14.00">Start</text>
</g>
<!-- end -->
<g id="node2" class="node">
<title>end</title>
</g>
<!-- 639c4e94&#45;be12&#45;448a&#45;b6dd&#45;fa8636c2d1a0&#45;&gt;end -->
<g id="edge2" class="edge">
<title>639c4e94&#45;be12&#45;448a&#45;b6dd&#45;fa8636c2d1a0&#45;&gt;end</title>
<path fill="none" stroke="black" d="M273.15,-26.87C292.08,-26.87 309,-26.87 319.47,-26.87"/>
<polygon fill="black" stroke="black" points="319.83,-30.37 329.83,-26.87 319.83,-23.37 319.83,-30.37"/>
<text text-anchor="middle" x="301.4" y="-33.67" font-family="Helvetica,sans-Serif" font-size="14.00">Finish</text>
</g>
</g>
</svg>
