<?xml version="1.0" encoding="UTF-8" standalone="no"?>
<!DOCTYPE svg PUBLIC "-//W3C//DTD SVG 1.1//EN"
 "http://www.w3.org/Graphics/SVG/1.1/DTD/svg11.dtd">
<!-- Generated by graphviz version 8.0.3 (0)
 -->
<!-- Pages: 1 -->
<svg width="1682pt" height="415pt"
 viewBox="0.00 0.00 1682.00 415.48" xmlns="http://www.w3.org/2000/svg" xmlns:xlink="http://www.w3.org/1999/xlink">
<g id="graph0" class="graph" transform="scale(1 1) rotate(0) translate(36 379.48)">
<polygon fill="dimgray" stroke="none" points="-36,36 -36,-379.48 1646,-379.48 1646,36 -36,36"/>
<text text-anchor="middle" x="805" y="-328.28" font-family="Helvetica,sans-Serif" font-size="14.00">Sweep&#39;s Plan &amp; Progress</text>
<!-- start -->
<g id="node1" class="node">
<title>start</title>
</g>
<!-- 28c39a34&#45;406d&#45;45a4&#45;ab29&#45;a50c5115a0c3 -->
<g id="node3" class="node">
<title>28c39a34&#45;406d&#45;45a4&#45;ab29&#45;a50c5115a0c3</title>
<ellipse fill="#0ee832" stroke="black" cx="1054.5" cy="-277.61" rx="84.71" ry="26.74"/>
<text text-anchor="middle" x="1054.5" y="-281.41" font-family="Helvetica,sans-Serif" font-size="14.00">✓ Modify</text>
<text text-anchor="middle" x="1054.5" y="-266.41" font-family="Helvetica,sans-Serif" font-size="14.00">sweepai/api.py</text>
</g>
<!-- start&#45;&gt;28c39a34&#45;406d&#45;45a4&#45;ab29&#45;a50c5115a0c3 -->
<g id="edge17" class="edge">
<title>start&#45;&gt;28c39a34&#45;406d&#45;45a4&#45;ab29&#45;a50c5115a0c3</title>
<path fill="none" stroke="black" d="M917.89,-277.61C920.65,-277.61 937.54,-277.61 958.56,-277.61"/>
<polygon fill="black" stroke="black" points="958.53,-281.11 968.53,-277.61 958.53,-274.11 958.53,-281.11"/>
<text text-anchor="middle" x="943.82" y="-284.41" font-family="Helvetica,sans-Serif" font-size="14.00">Start</text>
</g>
<!-- end -->
<g id="node2" class="node">
<title>end</title>
</g>
<!-- ffad094f&#45;4278&#45;44b3&#45;bad7&#45;77206ef184e8 -->
<g id="node4" class="node">
<title>ffad094f&#45;4278&#45;44b3&#45;bad7&#45;77206ef184e8</title>
<ellipse fill="white" stroke="black" cx="1378.5" cy="-277.61" rx="173.48" ry="26.74"/>
<text text-anchor="middle" x="1378.5" y="-281.41" font-family="Helvetica,sans-Serif" font-size="14.00">▶ Modify</text>
<text text-anchor="middle" x="1378.5" y="-266.41" font-family="Helvetica,sans-Serif" font-size="14.00">sweepai/agents/validate_code.py</text>
</g>
<!-- 28c39a34&#45;406d&#45;45a4&#45;ab29&#45;a50c5115a0c3&#45;&gt;ffad094f&#45;4278&#45;44b3&#45;bad7&#45;77206ef184e8 -->
<g id="edge15" class="edge">
<title>28c39a34&#45;406d&#45;45a4&#45;ab29&#45;a50c5115a0c3&#45;&gt;ffad094f&#45;4278&#45;44b3&#45;bad7&#45;77206ef184e8</title>
<path fill="none" stroke="black" d="M1139.61,-277.61C1157.73,-277.61 1175.85,-277.61 1193.96,-277.61"/>
<polygon fill="black" stroke="black" points="1193.93,-281.11 1203.93,-277.61 1193.93,-274.11 1193.93,-281.11"/>
</g>
<!-- 18776349&#45;0a57&#45;4084&#45;a0e7&#45;1a29757f4ed2 -->
<g id="node5" class="node">
<title>18776349&#45;0a57&#45;4084&#45;a0e7&#45;1a29757f4ed2</title>
<polygon fill="#ee0000" stroke="black" points="900.5,-213.74 626.5,-213.74 626.5,-177.74 900.5,-177.74 900.5,-213.74"/>
<text text-anchor="middle" x="763.5" y="-192.04" font-family="Helvetica,sans-Serif" font-size="14.00">✗ Ran sandbox for `sweepai/api.py`.</text>
</g>
<!-- 28c39a34&#45;406d&#45;45a4&#45;ab29&#45;a50c5115a0c3&#45;&gt;18776349&#45;0a57&#45;4084&#45;a0e7&#45;1a29757f4ed2 -->
<g id="edge1" class="edge">
<title>28c39a34&#45;406d&#45;45a4&#45;ab29&#45;a50c5115a0c3&#45;&gt;18776349&#45;0a57&#45;4084&#45;a0e7&#45;1a29757f4ed2</title>
<path fill="none" stroke="black" stroke-dasharray="5,2" d="M991.72,-259.38C946.51,-246.97 885.36,-230.19 837.74,-217.12"/>
<polygon fill="black" stroke="black" points="838.75,-213.49 828.18,-214.22 836.89,-220.24 838.75,-213.49"/>
</g>
<!-- 392c6140&#45;b3f7&#45;4f31&#45;804c&#45;0f8b06f1ce49 -->
<g id="node6" class="node">
<title>392c6140&#45;b3f7&#45;4f31&#45;804c&#45;0f8b06f1ce49</title>
<polygon fill="white" stroke="black" points="1190.5,-213.74 918.5,-213.74 918.5,-177.74 1190.5,-177.74 1190.5,-213.74"/>
<text text-anchor="middle" x="1054.5" y="-192.04" font-family="Helvetica,sans-Serif" font-size="14.00">▶ Ran sandbox for `sweepai/api.py`.</text>
</g>
<!-- 28c39a34&#45;406d&#45;45a4&#45;ab29&#45;a50c5115a0c3&#45;&gt;392c6140&#45;b3f7&#45;4f31&#45;804c&#45;0f8b06f1ce49 -->
<g id="edge14" class="edge">
<title>28c39a34&#45;406d&#45;45a4&#45;ab29&#45;a50c5115a0c3&#45;&gt;392c6140&#45;b3f7&#45;4f31&#45;804c&#45;0f8b06f1ce49</title>
<path fill="none" stroke="black" stroke-dasharray="5,2" d="M1054.5,-250.46C1054.5,-242.2 1054.5,-233.05 1054.5,-224.67"/>
<polygon fill="black" stroke="black" points="1058,-224.89 1054.5,-214.89 1051,-224.89 1058,-224.89"/>
</g>
<!-- ffad094f&#45;4278&#45;44b3&#45;bad7&#45;77206ef184e8&#45;&gt;end -->
<g id="edge18" class="edge">
<title>ffad094f&#45;4278&#45;44b3&#45;bad7&#45;77206ef184e8&#45;&gt;end</title>
<path fill="none" stroke="black" d="M1552.4,-277.61C1571.87,-277.61 1588.33,-277.61 1598.51,-277.61"/>
<polygon fill="black" stroke="black" points="1598.22,-281.11 1608.22,-277.61 1598.22,-274.11 1598.22,-281.11"/>
<text text-anchor="middle" x="1580.37" y="-284.41" font-family="Helvetica,sans-Serif" font-size="14.00">Finish</text>
</g>
<!-- 97041474&#45;e55a&#45;49b0&#45;85c8&#45;629614bbf29f -->
<g id="node7" class="node">
<title>97041474&#45;e55a&#45;49b0&#45;85c8&#45;629614bbf29f</title>
<polygon fill="white" stroke="black" points="1606.5,-213.74 1208.5,-213.74 1208.5,-177.74 1606.5,-177.74 1606.5,-213.74"/>
<text text-anchor="middle" x="1407.5" y="-192.04" font-family="Helvetica,sans-Serif" font-size="14.00">▶ Ran sandbox for `sweepai/agents/validate_code.py`.</text>
</g>
<!-- ffad094f&#45;4278&#45;44b3&#45;bad7&#45;77206ef184e8&#45;&gt;97041474&#45;e55a&#45;49b0&#45;85c8&#45;629614bbf29f -->
<g id="edge16" class="edge">
<title>ffad094f&#45;4278&#45;44b3&#45;bad7&#45;77206ef184e8&#45;&gt;97041474&#45;e55a&#45;49b0&#45;85c8&#45;629614bbf29f</title>
<path fill="none" stroke="black" stroke-dasharray="5,2" d="M1388,-250.46C1391.06,-242.01 1394.47,-232.63 1397.57,-224.1"/>
<polygon fill="black" stroke="black" points="1401.15,-225.48 1401.27,-214.89 1394.57,-223.09 1401.15,-225.48"/>
</g>
<!-- 73587245&#45;b8cb&#45;4417&#45;9546&#45;069efce713cb -->
<g id="node8" class="node">
<title>73587245&#45;b8cb&#45;4417&#45;9546&#45;069efce713cb</title>
<ellipse fill="#0ee832" stroke="black" cx="143.5" cy="-99.87" rx="65.52" ry="26.74"/>
<text text-anchor="middle" x="143.5" y="-103.67" font-family="Helvetica,sans-Serif" font-size="14.00">✓ Create</text>
<text text-anchor="middle" x="143.5" y="-88.67" font-family="Helvetica,sans-Serif" font-size="14.00">.black.toml</text>
</g>
<!-- 18776349&#45;0a57&#45;4084&#45;a0e7&#45;1a29757f4ed2&#45;&gt;73587245&#45;b8cb&#45;4417&#45;9546&#45;069efce713cb -->
<g id="edge2" class="edge">
<title>18776349&#45;0a57&#45;4084&#45;a0e7&#45;1a29757f4ed2&#45;&gt;73587245&#45;b8cb&#45;4417&#45;9546&#45;069efce713cb</title>
<path fill="none" stroke="black" d="M626.24,-194.68C490.77,-193.05 293.88,-186 222.5,-159.74 205.78,-153.59 189.58,-142.69 176.25,-131.94"/>
<polygon fill="black" stroke="black" points="178.84,-128.7 168.93,-124.94 174.33,-134.05 178.84,-128.7"/>
<text text-anchor="middle" x="320" y="-148.54" font-family="Helvetica,sans-Serif" font-size="14.00">Additional changes required</text>
</g>
<!-- b9cfef63&#45;80c4&#45;4f91&#45;8234&#45;392d04b79107 -->
<g id="node9" class="node">
<title>b9cfef63&#45;80c4&#45;4f91&#45;8234&#45;392d04b79107</title>
<ellipse fill="white" stroke="black" cx="397.5" cy="-99.87" rx="55.31" ry="26.74"/>
<text text-anchor="middle" x="397.5" y="-103.67" font-family="Helvetica,sans-Serif" font-size="14.00">▶ Create</text>
<text text-anchor="middle" x="397.5" y="-88.67" font-family="Helvetica,sans-Serif" font-size="14.00">.isort.cfg</text>
</g>
<!-- 18776349&#45;0a57&#45;4084&#45;a0e7&#45;1a29757f4ed2&#45;&gt;b9cfef63&#45;80c4&#45;4f91&#45;8234&#45;392d04b79107 -->
<g id="edge4" class="edge">
<title>18776349&#45;0a57&#45;4084&#45;a0e7&#45;1a29757f4ed2&#45;&gt;b9cfef63&#45;80c4&#45;4f91&#45;8234&#45;392d04b79107</title>
<path fill="none" stroke="black" d="M626.02,-191.61C551.4,-187.67 468.09,-178.94 436.5,-159.74 427.17,-154.07 419.61,-145.22 413.72,-136.09"/>
<polygon fill="black" stroke="black" points="416.24,-134.47 408.18,-127.59 410.2,-137.99 416.24,-134.47"/>
<text text-anchor="middle" x="534" y="-148.54" font-family="Helvetica,sans-Serif" font-size="14.00">Additional changes required</text>
</g>
<!-- 43429682&#45;02a2&#45;4348&#45;a907&#45;bc1f06204365 -->
<g id="node10" class="node">
<title>43429682&#45;02a2&#45;4348&#45;a907&#45;bc1f06204365</title>
<ellipse fill="white" stroke="black" cx="636.5" cy="-99.87" rx="59.29" ry="26.74"/>
<text text-anchor="middle" x="636.5" y="-103.67" font-family="Helvetica,sans-Serif" font-size="14.00">▶ Create</text>
<text text-anchor="middle" x="636.5" y="-88.67" font-family="Helvetica,sans-Serif" font-size="14.00">.prettierrc</text>
</g>
<!-- 18776349&#45;0a57&#45;4084&#45;a0e7&#45;1a29757f4ed2&#45;&gt;43429682&#45;02a2&#45;4348&#45;a907&#45;bc1f06204365 -->
<g id="edge6" class="edge">
<title>18776349&#45;0a57&#45;4084&#45;a0e7&#45;1a29757f4ed2&#45;&gt;43429682&#45;02a2&#45;4348&#45;a907&#45;bc1f06204365</title>
<path fill="none" stroke="black" d="M662.59,-177.24C654.61,-172.63 647.38,-166.89 641.5,-159.74 636.39,-153.53 633.95,-145.6 633.01,-137.6"/>
<polygon fill="black" stroke="black" points="636.47,-137.62 632.55,-127.78 629.48,-137.92 636.47,-137.62"/>
<text text-anchor="middle" x="739" y="-148.54" font-family="Helvetica,sans-Serif" font-size="14.00">Additional changes required</text>
</g>
<!-- bdc82258&#45;fbef&#45;474f&#45;b40f&#45;806c93183256 -->
<g id="node11" class="node">
<title>bdc82258&#45;fbef&#45;474f&#45;b40f&#45;806c93183256</title>
<ellipse fill="white" stroke="black" cx="874.5" cy="-99.87" rx="54.39" ry="26.74"/>
<text text-anchor="middle" x="874.5" y="-103.67" font-family="Helvetica,sans-Serif" font-size="14.00">▶ Create</text>
<text text-anchor="middle" x="874.5" y="-88.67" font-family="Helvetica,sans-Serif" font-size="14.00">.shfmt</text>
</g>
<!-- 18776349&#45;0a57&#45;4084&#45;a0e7&#45;1a29757f4ed2&#45;&gt;bdc82258&#45;fbef&#45;474f&#45;b40f&#45;806c93183256 -->
<g id="edge8" class="edge">
<title>18776349&#45;0a57&#45;4084&#45;a0e7&#45;1a29757f4ed2&#45;&gt;bdc82258&#45;fbef&#45;474f&#45;b40f&#45;806c93183256</title>
<path fill="none" stroke="black" d="M813.92,-177.3C823.42,-172.56 832.78,-166.75 840.5,-159.74 847.8,-153.11 853.96,-144.54 858.94,-136"/>
<polygon fill="black" stroke="black" points="862.41,-137.94 864.07,-127.47 856.25,-134.62 862.41,-137.94"/>
<text text-anchor="middle" x="951" y="-148.54" font-family="Helvetica,sans-Serif" font-size="14.00">Additional changes required</text>
</g>
<!-- 76e47e06&#45;1b72&#45;45f7&#45;964c&#45;f737ac1075b9 -->
<g id="node12" class="node">
<title>76e47e06&#45;1b72&#45;45f7&#45;964c&#45;f737ac1075b9</title>
<ellipse fill="white" stroke="black" cx="1110.5" cy="-99.87" rx="60.62" ry="26.74"/>
<text text-anchor="middle" x="1110.5" y="-103.67" font-family="Helvetica,sans-Serif" font-size="14.00">▶ Create</text>
<text text-anchor="middle" x="1110.5" y="-88.67" font-family="Helvetica,sans-Serif" font-size="14.00">taplo.toml</text>
</g>
<!-- 18776349&#45;0a57&#45;4084&#45;a0e7&#45;1a29757f4ed2&#45;&gt;76e47e06&#45;1b72&#45;45f7&#45;964c&#45;f737ac1075b9 -->
<g id="edge10" class="edge">
<title>18776349&#45;0a57&#45;4084&#45;a0e7&#45;1a29757f4ed2&#45;&gt;76e47e06&#45;1b72&#45;45f7&#45;964c&#45;f737ac1075b9</title>
<path fill="none" stroke="black" d="M900.75,-178.61C974.43,-169.87 1050.64,-160.66 1052.5,-159.74 1064.87,-153.66 1076.13,-143.85 1085.37,-133.97"/>
<polygon fill="black" stroke="black" points="1087.64,-136.54 1091.63,-126.73 1082.39,-131.92 1087.64,-136.54"/>
<text text-anchor="middle" x="1171" y="-148.54" font-family="Helvetica,sans-Serif" font-size="14.00">Additional changes required</text>
</g>
<!-- fd62e2b6&#45;fb40&#45;4568&#45;a3ce&#45;6ac65a62b0e5 -->
<g id="node13" class="node">
<title>fd62e2b6&#45;fb40&#45;4568&#45;a3ce&#45;6ac65a62b0e5</title>
<ellipse fill="white" stroke="black" cx="1374.5" cy="-99.87" rx="86.03" ry="26.74"/>
<text text-anchor="middle" x="1374.5" y="-103.67" font-family="Helvetica,sans-Serif" font-size="14.00">▶ Create</text>
<text text-anchor="middle" x="1374.5" y="-88.67" font-family="Helvetica,sans-Serif" font-size="14.00">.trufflehog.json</text>
</g>
<!-- 18776349&#45;0a57&#45;4084&#45;a0e7&#45;1a29757f4ed2&#45;&gt;fd62e2b6&#45;fb40&#45;4568&#45;a3ce&#45;6ac65a62b0e5 -->
<g id="edge12" class="edge">
<title>18776349&#45;0a57&#45;4084&#45;a0e7&#45;1a29757f4ed2&#45;&gt;fd62e2b6&#45;fb40&#45;4568&#45;a3ce&#45;6ac65a62b0e5</title>
<path fill="none" stroke="black" d="M900.64,-178.5C903.62,-178.24 906.58,-177.98 909.5,-177.74 989.99,-171.07 1195.03,-182.56 1272.5,-159.74 1293.71,-153.49 1315.2,-142.02 1332.96,-130.84"/>
<polygon fill="black" stroke="black" points="1334.39,-133.44 1340.88,-125.06 1330.58,-127.56 1334.39,-133.44"/>
<text text-anchor="middle" x="1406" y="-148.54" font-family="Helvetica,sans-Serif" font-size="14.00">Additional changes required</text>
</g>
<!-- 8cb1a50c&#45;b60e&#45;48c4&#45;83ee&#45;e42599c2ec2e -->
<g id="node14" class="node">
<title>8cb1a50c&#45;b60e&#45;48c4&#45;83ee&#45;e42599c2ec2e</title>
<polygon fill="yellow" stroke="black" points="249,-36 0,-36 0,0 249,0 249,-36"/>
<text text-anchor="middle" x="124.5" y="-14.3" font-family="Helvetica,sans-Serif" font-size="14.00">⋯ Ran sandbox for `.black.toml`.</text>
</g>
<!-- 73587245&#45;b8cb&#45;4417&#45;9546&#45;069efce713cb&#45;&gt;8cb1a50c&#45;b60e&#45;48c4&#45;83ee&#45;e42599c2ec2e -->
<g id="edge3" class="edge">
<title>73587245&#45;b8cb&#45;4417&#45;9546&#45;069efce713cb&#45;&gt;8cb1a50c&#45;b60e&#45;48c4&#45;83ee&#45;e42599c2ec2e</title>
<path fill="none" stroke="black" stroke-dasharray="5,2" d="M137.38,-73.16C135.39,-64.79 133.17,-55.46 131.14,-46.93"/>
<polygon fill="black" stroke="black" points="134.34,-46.26 128.62,-37.34 127.53,-47.88 134.34,-46.26"/>
</g>
<!-- 466ebc54&#45;da55&#45;4389&#45;a09d&#45;0a5b19f66653 -->
<g id="node15" class="node">
<title>466ebc54&#45;da55&#45;4389&#45;a09d&#45;0a5b19f66653</title>
<polygon fill="white" stroke="black" points="497.5,-36 267.5,-36 267.5,0 497.5,0 497.5,-36"/>
<text text-anchor="middle" x="382.5" y="-14.3" font-family="Helvetica,sans-Serif" font-size="14.00">▶ Ran sandbox for `.isort.cfg`.</text>
</g>
<!-- b9cfef63&#45;80c4&#45;4f91&#45;8234&#45;392d04b79107&#45;&gt;466ebc54&#45;da55&#45;4389&#45;a09d&#45;0a5b19f66653 -->
<g id="edge5" class="edge">
<title>b9cfef63&#45;80c4&#45;4f91&#45;8234&#45;392d04b79107&#45;&gt;466ebc54&#45;da55&#45;4389&#45;a09d&#45;0a5b19f66653</title>
<path fill="none" stroke="black" stroke-dasharray="5,2" d="M392.67,-73.16C391.1,-64.79 389.35,-55.46 387.75,-46.93"/>
<polygon fill="black" stroke="black" points="391.04,-46.52 385.76,-37.34 384.16,-47.81 391.04,-46.52"/>
</g>
<!-- 310c2a05&#45;3669&#45;4c47&#45;b127&#45;3512d95fbf26 -->
<g id="node16" class="node">
<title>310c2a05&#45;3669&#45;4c47&#45;b127&#45;3512d95fbf26</title>
<polygon fill="white" stroke="black" points="751.5,-36 515.5,-36 515.5,0 751.5,0 751.5,-36"/>
<text text-anchor="middle" x="633.5" y="-14.3" font-family="Helvetica,sans-Serif" font-size="14.00">▶ Ran sandbox for `.prettierrc`.</text>
</g>
<!-- 43429682&#45;02a2&#45;4348&#45;a907&#45;bc1f06204365&#45;&gt;310c2a05&#45;3669&#45;4c47&#45;b127&#45;3512d95fbf26 -->
<g id="edge7" class="edge">
<title>43429682&#45;02a2&#45;4348&#45;a907&#45;bc1f06204365&#45;&gt;310c2a05&#45;3669&#45;4c47&#45;b127&#45;3512d95fbf26</title>
<path fill="none" stroke="black" stroke-dasharray="5,2" d="M635.52,-72.72C635.21,-64.46 634.86,-55.31 634.55,-46.93"/>
<polygon fill="black" stroke="black" points="638.02,-47.01 634.14,-37.15 631.02,-47.27 638.02,-47.01"/>
</g>
<!-- fc33c7e3&#45;f341&#45;4e57&#45;aa62&#45;9981653f01db -->
<g id="node17" class="node">
<title>fc33c7e3&#45;f341&#45;4e57&#45;aa62&#45;9981653f01db</title>
<polygon fill="white" stroke="black" points="983.5,-36 769.5,-36 769.5,0 983.5,0 983.5,-36"/>
<text text-anchor="middle" x="876.5" y="-14.3" font-family="Helvetica,sans-Serif" font-size="14.00">▶ Ran sandbox for `.shfmt`.</text>
</g>
<!-- bdc82258&#45;fbef&#45;474f&#45;b40f&#45;806c93183256&#45;&gt;fc33c7e3&#45;f341&#45;4e57&#45;aa62&#45;9981653f01db -->
<g id="edge9" class="edge">
<title>bdc82258&#45;fbef&#45;474f&#45;b40f&#45;806c93183256&#45;&gt;fc33c7e3&#45;f341&#45;4e57&#45;aa62&#45;9981653f01db</title>
<path fill="none" stroke="black" stroke-dasharray="5,2" d="M875.15,-72.72C875.36,-64.46 875.59,-55.31 875.8,-46.93"/>
<polygon fill="black" stroke="black" points="879.32,-47.23 876.07,-37.15 872.32,-47.06 879.32,-47.23"/>
</g>
<!-- c3882535&#45;2550&#45;4acf&#45;a7fe&#45;73f3007c54cd -->
<g id="node18" class="node">
<title>c3882535&#45;2550&#45;4acf&#45;a7fe&#45;73f3007c54cd</title>
<polygon fill="white" stroke="black" points="1241,-36 1002,-36 1002,0 1241,0 1241,-36"/>
<text text-anchor="middle" x="1121.5" y="-14.3" font-family="Helvetica,sans-Serif" font-size="14.00">▶ Ran sandbox for `taplo.toml`.</text>
</g>
<!-- 76e47e06&#45;1b72&#45;45f7&#45;964c&#45;f737ac1075b9&#45;&gt;c3882535&#45;2550&#45;4acf&#45;a7fe&#45;73f3007c54cd -->
<g id="edge11" class="edge">
<title>76e47e06&#45;1b72&#45;45f7&#45;964c&#45;f737ac1075b9&#45;&gt;c3882535&#45;2550&#45;4acf&#45;a7fe&#45;73f3007c54cd</title>
<path fill="none" stroke="black" stroke-dasharray="5,2" d="M1114.1,-72.72C1115.24,-64.46 1116.5,-55.31 1117.65,-46.93"/>
<polygon fill="black" stroke="black" points="1121.24,-47.53 1119.14,-37.15 1114.31,-46.58 1121.24,-47.53"/>
</g>
<!-- a72366c4&#45;257d&#45;43b9&#45;91ec&#45;03ccbe72d3ad -->
<g id="node19" class="node">
<title>a72366c4&#45;257d&#45;43b9&#45;91ec&#45;03ccbe72d3ad</title>
<polygon fill="white" stroke="black" points="1534,-36 1259,-36 1259,0 1534,0 1534,-36"/>
<text text-anchor="middle" x="1396.5" y="-14.3" font-family="Helvetica,sans-Serif" font-size="14.00">▶ Ran sandbox for `.trufflehog.json`.</text>
</g>
<!-- fd62e2b6&#45;fb40&#45;4568&#45;a3ce&#45;6ac65a62b0e5&#45;&gt;a72366c4&#45;257d&#45;43b9&#45;91ec&#45;03ccbe72d3ad -->
<g id="edge13" class="edge">
<title>fd62e2b6&#45;fb40&#45;4568&#45;a3ce&#45;6ac65a62b0e5&#45;&gt;a72366c4&#45;257d&#45;43b9&#45;91ec&#45;03ccbe72d3ad</title>
<path fill="none" stroke="black" stroke-dasharray="5,2" d="M1381.58,-73.16C1383.89,-64.79 1386.46,-55.46 1388.81,-46.93"/>
<polygon fill="black" stroke="black" points="1392.44,-47.91 1391.72,-37.34 1385.69,-46.05 1392.44,-47.91"/>
</g>
</g>
</svg>
