<?xml version="1.0" encoding="UTF-8" standalone="no"?>
<!DOCTYPE svg PUBLIC "-//W3C//DTD SVG 1.1//EN"
 "http://www.w3.org/Graphics/SVG/1.1/DTD/svg11.dtd">
<!-- Generated by graphviz version 2.43.0 (0)
 -->
<!-- Title: %3 Pages: 1 -->
<svg width="940pt" height="238pt"
 viewBox="0.00 0.00 939.50 237.74" xmlns="http://www.w3.org/2000/svg" xmlns:xlink="http://www.w3.org/1999/xlink">
<g id="graph0" class="graph" transform="scale(1 1) rotate(0) translate(36 201.74)">
<title>%3</title>
<polygon fill="dimgray" stroke="transparent" points="-36,36 -36,-201.74 903.5,-201.74 903.5,36 -36,36"/>
<text text-anchor="middle" x="433.75" y="-150.54" font-family="Helvetica,sans-Serif" font-size="14.00">Sweep&#39;s Plan &amp; Progress</text>
<!-- start -->
<g id="node1" class="node">
<title>start</title>
</g>
<!-- 9e85b849&#45;e682&#45;46c7&#45;abdd&#45;dca194a7465e -->
<g id="node3" class="node">
<title>9e85b849&#45;e682&#45;46c7&#45;abdd&#45;dca194a7465e</title>
<ellipse fill="#0ee832" stroke="black" cx="244" cy="-99.87" rx="152.06" ry="26.74"/>
<text text-anchor="middle" x="244" y="-103.67" font-family="Helvetica,sans-Serif" font-size="14.00">✓ Modify</text>
<text text-anchor="middle" x="244" y="-88.67" font-family="Helvetica,sans-Serif" font-size="14.00">sweepai/utils/docker_utils.py</text>
</g>
<!-- start&#45;&gt;9e85b849&#45;e682&#45;46c7&#45;abdd&#45;dca194a7465e -->
<g id="edge4" class="edge">
<title>start&#45;&gt;9e85b849&#45;e682&#45;46c7&#45;abdd&#45;dca194a7465e</title>
<path fill="none" stroke="black" d="M40.59,-99.87C43.79,-99.87 59.89,-99.87 81.73,-99.87"/>
<polygon fill="black" stroke="black" points="81.78,-103.37 91.78,-99.87 81.78,-96.37 81.78,-103.37"/>
<text text-anchor="middle" x="66.24" y="-106.67" font-family="Helvetica,sans-Serif" font-size="14.00">Start</text>
</g>
<!-- end -->
<g id="node2" class="node">
<title>end</title>
</g>
<!-- dbfe1927&#45;c4d9&#45;4dff&#45;8b4e&#45;f520d834bd28 -->
<g id="node4" class="node">
<title>dbfe1927&#45;c4d9&#45;4dff&#45;8b4e&#45;f520d834bd28</title>
<ellipse fill="#0ee832" stroke="black" cx="627" cy="-99.87" rx="175.23" ry="26.74"/>
<text text-anchor="middle" x="627" y="-103.67" font-family="Helvetica,sans-Serif" font-size="14.00">✓ Modify</text>
<text text-anchor="middle" x="627" y="-88.67" font-family="Helvetica,sans-Serif" font-size="14.00">sweepai/utils/docker_utils_test.py</text>
</g>
<!-- 9e85b849&#45;e682&#45;46c7&#45;abdd&#45;dca194a7465e&#45;&gt;dbfe1927&#45;c4d9&#45;4dff&#45;8b4e&#45;f520d834bd28 -->
<g id="edge2" class="edge">
<title>9e85b849&#45;e682&#45;46c7&#45;abdd&#45;dca194a7465e&#45;&gt;dbfe1927&#45;c4d9&#45;4dff&#45;8b4e&#45;f520d834bd28</title>
<path fill="none" stroke="black" d="M396.23,-99.87C411.12,-99.87 426.01,-99.87 440.91,-99.87"/>
<polygon fill="black" stroke="black" points="441.22,-103.37 451.22,-99.87 441.22,-96.37 441.22,-103.37"/>
</g>
<!-- 8cbafe2b&#45;6156&#45;4ab3&#45;ab21&#45;628554b1f34f -->
<g id="node5" class="node">
<title>8cbafe2b&#45;6156&#45;4ab3&#45;ab21&#45;628554b1f34f</title>
<polygon fill="#0ee832" stroke="black" points="408,-36 0,-36 0,0 408,0 408,-36"/>
<text text-anchor="middle" x="204" y="-14.3" font-family="Helvetica,sans-Serif" font-size="14.00">✓ Run GitHub Actions for `sweepai/utils/docker_utils.py`</text>
</g>
<!-- 9e85b849&#45;e682&#45;46c7&#45;abdd&#45;dca194a7465e&#45;&gt;8cbafe2b&#45;6156&#45;4ab3&#45;ab21&#45;628554b1f34f -->
<g id="edge1" class="edge">
<title>9e85b849&#45;e682&#45;46c7&#45;abdd&#45;dca194a7465e&#45;&gt;8cbafe2b&#45;6156&#45;4ab3&#45;ab21&#45;628554b1f34f</title>
<path fill="none" stroke="black" stroke-dasharray="5,2" d="M230.9,-72.72C226.49,-63.9 221.56,-54.05 217.14,-45.23"/>
<polygon fill="black" stroke="black" points="220.19,-43.52 212.59,-36.15 213.94,-46.66 220.19,-43.52"/>
</g>
<!-- dbfe1927&#45;c4d9&#45;4dff&#45;8b4e&#45;f520d834bd28&#45;&gt;end -->
<g id="edge5" class="edge">
<title>dbfe1927&#45;c4d9&#45;4dff&#45;8b4e&#45;f520d834bd28&#45;&gt;end</title>
<path fill="none" stroke="black" d="M802.4,-99.87C822.33,-99.87 839.13,-99.87 849.35,-99.87"/>
<polygon fill="black" stroke="black" points="849.37,-103.37 859.37,-99.87 849.37,-96.37 849.37,-103.37"/>
<text text-anchor="middle" x="830.93" y="-106.67" font-family="Helvetica,sans-Serif" font-size="14.00">Finish</text>
</g>
<!-- 9049eb6e&#45;eeb5&#45;4dfb&#45;813e&#45;ea8ebebd1ceb -->
<g id="node6" class="node">
<title>9049eb6e&#45;eeb5&#45;4dfb&#45;813e&#45;ea8ebebd1ceb</title>
<polygon fill="#0ee832" stroke="black" points="867.5,-36 426.5,-36 426.5,0 867.5,0 867.5,-36"/>
<text text-anchor="middle" x="647" y="-14.3" font-family="Helvetica,sans-Serif" font-size="14.00">✓ Run GitHub Actions for `sweepai/utils/docker_utils_test.py`</text>
</g>
<!-- dbfe1927&#45;c4d9&#45;4dff&#45;8b4e&#45;f520d834bd28&#45;&gt;9049eb6e&#45;eeb5&#45;4dfb&#45;813e&#45;ea8ebebd1ceb -->
<g id="edge3" class="edge">
<title>dbfe1927&#45;c4d9&#45;4dff&#45;8b4e&#45;f520d834bd28&#45;&gt;9049eb6e&#45;eeb5&#45;4dfb&#45;813e&#45;ea8ebebd1ceb</title>
<path fill="none" stroke="black" stroke-dasharray="5,2" d="M633.55,-72.72C635.69,-64.18 638.07,-54.68 640.22,-46.08"/>
<polygon fill="black" stroke="black" points="643.67,-46.7 642.71,-36.15 636.88,-45 643.67,-46.7"/>
</g>
</g>
</svg>
