<?xml version="1.0" encoding="UTF-8" standalone="no"?>
<!DOCTYPE svg PUBLIC "-//W3C//DTD SVG 1.1//EN"
 "http://www.w3.org/Graphics/SVG/1.1/DTD/svg11.dtd">
<!-- Generated by graphviz version 8.0.3 (0)
 -->
<!-- Pages: 1 -->
<svg width="1749pt" height="165pt"
 viewBox="0.00 0.00 1749.00 164.74" xmlns="http://www.w3.org/2000/svg" xmlns:xlink="http://www.w3.org/1999/xlink">
<g id="graph0" class="graph" transform="scale(1 1) rotate(0) translate(36 128.74)">
<polygon fill="dimgray" stroke="none" points="-36,36 -36,-128.74 1713,-128.74 1713,36 -36,36"/>
<text text-anchor="middle" x="838.5" y="-77.54" font-family="Helvetica,sans-Serif" font-size="14.00">Sweep&#39;s Plan &amp; Progress</text>
<!-- start -->
<g id="node1" class="node">
<title>start</title>
</g>
<!-- 2380fc45&#45;665a&#45;4a2e&#45;9699&#45;f09a76137082 -->
<g id="node3" class="node">
<title>2380fc45&#45;665a&#45;4a2e&#45;9699&#45;f09a76137082</title>
<ellipse fill="yellow" stroke="black" cx="248.5" cy="-26.87" rx="195.74" ry="26.74"/>
<text text-anchor="middle" x="248.5" y="-30.67" font-family="Helvetica,sans-Serif" font-size="14.00">⋯ Create</text>
<text text-anchor="middle" x="248.5" y="-15.67" font-family="Helvetica,sans-Serif" font-size="14.00">sweepai/agents/query_filter_agent.py</text>
</g>
<!-- start&#45;&gt;2380fc45&#45;665a&#45;4a2e&#45;9699&#45;f09a76137082 -->
<g id="edge4" class="edge">
<title>start&#45;&gt;2380fc45&#45;665a&#45;4a2e&#45;9699&#45;f09a76137082</title>
<path fill="none" stroke="black" d="M0.9,-26.87C3.56,-26.87 19.13,-26.87 41.29,-26.87"/>
<polygon fill="black" stroke="black" points="41.29,-30.37 51.29,-26.87 41.29,-23.37 41.29,-30.37"/>
<text text-anchor="middle" x="26.82" y="-33.67" font-family="Helvetica,sans-Serif" font-size="14.00">Start</text>
</g>
<!-- end -->
<g id="node2" class="node">
<title>end</title>
</g>
<!-- b9286892&#45;cdf1&#45;469b&#45;bf96&#45;a1d330f07f2c -->
<g id="node4" class="node">
<title>b9286892&#45;cdf1&#45;469b&#45;bf96&#45;a1d330f07f2c</title>
<ellipse fill="white" stroke="black" cx="625.5" cy="-26.87" rx="145.83" ry="26.74"/>
<text text-anchor="middle" x="625.5" y="-30.67" font-family="Helvetica,sans-Serif" font-size="14.00">▶ Modify</text>
<text text-anchor="middle" x="625.5" y="-15.67" font-family="Helvetica,sans-Serif" font-size="14.00">sweepai/utils/ticket_utils.py</text>
</g>
<!-- 2380fc45&#45;665a&#45;4a2e&#45;9699&#45;f09a76137082&#45;&gt;b9286892&#45;cdf1&#45;469b&#45;bf96&#45;a1d330f07f2c -->
<g id="edge1" class="edge">
<title>2380fc45&#45;665a&#45;4a2e&#45;9699&#45;f09a76137082&#45;&gt;b9286892&#45;cdf1&#45;469b&#45;bf96&#45;a1d330f07f2c</title>
<path fill="none" stroke="black" d="M444.73,-26.87C452.66,-26.87 460.59,-26.87 468.52,-26.87"/>
<polygon fill="black" stroke="black" points="468.33,-30.37 478.33,-26.87 468.33,-23.37 468.33,-30.37"/>
</g>
<!-- ded7107a&#45;41a9&#45;46e9&#45;b3b2&#45;9766bbbd88fc -->
<g id="node5" class="node">
<title>ded7107a&#45;41a9&#45;46e9&#45;b3b2&#45;9766bbbd88fc</title>
<ellipse fill="white" stroke="black" cx="1025.5" cy="-26.87" rx="219.41" ry="26.74"/>
<text text-anchor="middle" x="1025.5" y="-30.67" font-family="Helvetica,sans-Serif" font-size="14.00">▶ Create</text>
<text text-anchor="middle" x="1025.5" y="-15.67" font-family="Helvetica,sans-Serif" font-size="14.00">sweepai/agents/query_filter_agent_test.py</text>
</g>
<!-- b9286892&#45;cdf1&#45;469b&#45;bf96&#45;a1d330f07f2c&#45;&gt;ded7107a&#45;41a9&#45;46e9&#45;b3b2&#45;9766bbbd88fc -->
<g id="edge2" class="edge">
<title>b9286892&#45;cdf1&#45;469b&#45;bf96&#45;a1d330f07f2c&#45;&gt;ded7107a&#45;41a9&#45;46e9&#45;b3b2&#45;9766bbbd88fc</title>
<path fill="none" stroke="black" d="M771.59,-26.87C779.35,-26.87 787.1,-26.87 794.85,-26.87"/>
<polygon fill="black" stroke="black" points="794.81,-30.37 804.81,-26.87 794.81,-23.37 794.81,-30.37"/>
</g>
<!-- 6eaf9a61&#45;2dec&#45;439a&#45;b7b2&#45;68b5d73ed655 -->
<g id="node6" class="node">
<title>6eaf9a61&#45;2dec&#45;439a&#45;b7b2&#45;68b5d73ed655</title>
<ellipse fill="white" stroke="black" cx="1449.5" cy="-26.87" rx="169" ry="26.74"/>
<text text-anchor="middle" x="1449.5" y="-30.67" font-family="Helvetica,sans-Serif" font-size="14.00">▶ Create</text>
<text text-anchor="middle" x="1449.5" y="-15.67" font-family="Helvetica,sans-Serif" font-size="14.00">sweepai/utils/ticket_utils_test.py</text>
</g>
<!-- ded7107a&#45;41a9&#45;46e9&#45;b3b2&#45;9766bbbd88fc&#45;&gt;6eaf9a61&#45;2dec&#45;439a&#45;b7b2&#45;68b5d73ed655 -->
<g id="edge3" class="edge">
<title>ded7107a&#45;41a9&#45;46e9&#45;b3b2&#45;9766bbbd88fc&#45;&gt;6eaf9a61&#45;2dec&#45;439a&#45;b7b2&#45;68b5d73ed655</title>
<path fill="none" stroke="black" d="M1245.37,-26.87C1253.32,-26.87 1261.27,-26.87 1269.21,-26.87"/>
<polygon fill="black" stroke="black" points="1269.05,-30.37 1279.05,-26.87 1269.05,-23.37 1269.05,-30.37"/>
</g>
<!-- 6eaf9a61&#45;2dec&#45;439a&#45;b7b2&#45;68b5d73ed655&#45;&gt;end -->
<g id="edge5" class="edge">
<title>6eaf9a61&#45;2dec&#45;439a&#45;b7b2&#45;68b5d73ed655&#45;&gt;end</title>
<path fill="none" stroke="black" d="M1618.92,-26.87C1638.5,-26.87 1655.11,-26.87 1665.39,-26.87"/>
<polygon fill="black" stroke="black" points="1665.22,-30.37 1675.22,-26.87 1665.22,-23.37 1665.22,-30.37"/>
<text text-anchor="middle" x="1647.25" y="-33.67" font-family="Helvetica,sans-Serif" font-size="14.00">Finish</text>
</g>
</g>
</svg>
