<?xml version="1.0" encoding="UTF-8" standalone="no"?>
<!DOCTYPE svg PUBLIC "-//W3C//DTD SVG 1.1//EN"
 "http://www.w3.org/Graphics/SVG/1.1/DTD/svg11.dtd">
<!-- Generated by graphviz version 2.43.0 (0)
 -->
<!-- Title: %3 Pages: 1 -->
<svg width="1386pt" height="238pt"
 viewBox="0.00 0.00 1386.00 237.74" xmlns="http://www.w3.org/2000/svg" xmlns:xlink="http://www.w3.org/1999/xlink">
<g id="graph0" class="graph" transform="scale(1 1) rotate(0) translate(36 201.74)">
<title>%3</title>
<polygon fill="dimgray" stroke="transparent" points="-36,36 -36,-201.74 1350,-201.74 1350,36 -36,36"/>
<text text-anchor="middle" x="657" y="-150.54" font-family="Helvetica,sans-Serif" font-size="14.00">Sweep&#39;s Plan &amp; Progress</text>
<!-- start -->
<g id="node1" class="node">
<title>start</title>
</g>
<!-- 791ec525&#45;3a34&#45;4423&#45;bf49&#45;e6e73e5c98c2 -->
<g id="node3" class="node">
<title>791ec525&#45;3a34&#45;4423&#45;bf49&#45;e6e73e5c98c2</title>
<ellipse fill="#0ee832" stroke="black" cx="248" cy="-99.87" rx="162.77" ry="26.74"/>
<text text-anchor="middle" x="248" y="-103.67" font-family="Helvetica,sans-Serif" font-size="14.00">✓ Create</text>
<text text-anchor="middle" x="248" y="-88.67" font-family="Helvetica,sans-Serif" font-size="14.00">sweepai/agents/filter_agent.py</text>
</g>
<!-- start&#45;&gt;791ec525&#45;3a34&#45;4423&#45;bf49&#45;e6e73e5c98c2 -->
<g id="edge6" class="edge">
<title>start&#45;&gt;791ec525&#45;3a34&#45;4423&#45;bf49&#45;e6e73e5c98c2</title>
<path fill="none" stroke="black" d="M33.62,-99.87C36.9,-99.87 53,-99.87 75.02,-99.87"/>
<polygon fill="black" stroke="black" points="75.17,-103.37 85.17,-99.87 75.17,-96.37 75.17,-103.37"/>
<text text-anchor="middle" x="59.43" y="-106.67" font-family="Helvetica,sans-Serif" font-size="14.00">Start</text>
</g>
<!-- end -->
<g id="node2" class="node">
<title>end</title>
</g>
<!-- 8f57cb5c&#45;a3ce&#45;4954&#45;89e9&#45;b7a6b35fdd53 -->
<g id="node4" class="node">
<title>8f57cb5c&#45;a3ce&#45;4954&#45;89e9&#45;b7a6b35fdd53</title>
<ellipse fill="#0ee832" stroke="black" cx="669" cy="-99.87" rx="185.94" ry="26.74"/>
<text text-anchor="middle" x="669" y="-103.67" font-family="Helvetica,sans-Serif" font-size="14.00">✓ Create</text>
<text text-anchor="middle" x="669" y="-88.67" font-family="Helvetica,sans-Serif" font-size="14.00">sweepai/agents/filter_agent_test.py</text>
</g>
<!-- 791ec525&#45;3a34&#45;4423&#45;bf49&#45;e6e73e5c98c2&#45;&gt;8f57cb5c&#45;a3ce&#45;4954&#45;89e9&#45;b7a6b35fdd53 -->
<g id="edge2" class="edge">
<title>791ec525&#45;3a34&#45;4423&#45;bf49&#45;e6e73e5c98c2&#45;&gt;8f57cb5c&#45;a3ce&#45;4954&#45;89e9&#45;b7a6b35fdd53</title>
<path fill="none" stroke="black" d="M410.81,-99.87C431.47,-99.87 452.12,-99.87 472.78,-99.87"/>
<polygon fill="black" stroke="black" points="472.92,-103.37 482.92,-99.87 472.92,-96.37 472.92,-103.37"/>
</g>
<!-- 62907de3&#45;7056&#45;49c4&#45;b779&#45;b195bab83177 -->
<g id="node6" class="node">
<title>62907de3&#45;7056&#45;49c4&#45;b779&#45;b195bab83177</title>
<polygon fill="#0ee832" stroke="black" points="422,-36 0,-36 0,0 422,0 422,-36"/>
<text text-anchor="middle" x="211" y="-14.3" font-family="Helvetica,sans-Serif" font-size="14.00">✓ Run GitHub Actions for `sweepai/agents/filter_agent.py`</text>
</g>
<!-- 791ec525&#45;3a34&#45;4423&#45;bf49&#45;e6e73e5c98c2&#45;&gt;62907de3&#45;7056&#45;49c4&#45;b779&#45;b195bab83177 -->
<g id="edge1" class="edge">
<title>791ec525&#45;3a34&#45;4423&#45;bf49&#45;e6e73e5c98c2&#45;&gt;62907de3&#45;7056&#45;49c4&#45;b779&#45;b195bab83177</title>
<path fill="none" stroke="black" stroke-dasharray="5,2" d="M235.88,-72.72C231.8,-63.9 227.24,-54.05 223.15,-45.23"/>
<polygon fill="black" stroke="black" points="226.32,-43.75 218.94,-36.15 219.97,-46.69 226.32,-43.75"/>
</g>
<!-- ffc3a9ac&#45;f4ef&#45;43b5&#45;9596&#45;ccf6c93eb51f -->
<g id="node5" class="node">
<title>ffc3a9ac&#45;f4ef&#45;43b5&#45;9596&#45;ccf6c93eb51f</title>
<ellipse fill="white" stroke="black" cx="1076" cy="-99.87" rx="145.83" ry="26.74"/>
<text text-anchor="middle" x="1076" y="-103.67" font-family="Helvetica,sans-Serif" font-size="14.00">▶ Modify</text>
<text text-anchor="middle" x="1076" y="-88.67" font-family="Helvetica,sans-Serif" font-size="14.00">sweepai/utils/ticket_utils.py</text>
</g>
<!-- 8f57cb5c&#45;a3ce&#45;4954&#45;89e9&#45;b7a6b35fdd53&#45;&gt;ffc3a9ac&#45;f4ef&#45;43b5&#45;9596&#45;ccf6c93eb51f -->
<g id="edge4" class="edge">
<title>8f57cb5c&#45;a3ce&#45;4954&#45;89e9&#45;b7a6b35fdd53&#45;&gt;ffc3a9ac&#45;f4ef&#45;43b5&#45;9596&#45;ccf6c93eb51f</title>
<path fill="none" stroke="black" d="M855.01,-99.87C876.62,-99.87 898.23,-99.87 919.85,-99.87"/>
<polygon fill="black" stroke="black" points="920.11,-103.37 930.11,-99.87 920.11,-96.37 920.11,-103.37"/>
</g>
<!-- 506b2bc0&#45;e8af&#45;4727&#45;850b&#45;857bd859b8a5 -->
<g id="node7" class="node">
<title>506b2bc0&#45;e8af&#45;4727&#45;850b&#45;857bd859b8a5</title>
<polygon fill="yellow" stroke="black" points="898,-36 440,-36 440,0 898,0 898,-36"/>
<text text-anchor="middle" x="669" y="-14.3" font-family="Helvetica,sans-Serif" font-size="14.00">⋯ Run GitHub Actions for `sweepai/agents/filter_agent_test.py`</text>
</g>
<!-- 8f57cb5c&#45;a3ce&#45;4954&#45;89e9&#45;b7a6b35fdd53&#45;&gt;506b2bc0&#45;e8af&#45;4727&#45;850b&#45;857bd859b8a5 -->
<g id="edge3" class="edge">
<title>8f57cb5c&#45;a3ce&#45;4954&#45;89e9&#45;b7a6b35fdd53&#45;&gt;506b2bc0&#45;e8af&#45;4727&#45;850b&#45;857bd859b8a5</title>
<path fill="none" stroke="black" stroke-dasharray="5,2" d="M669,-72.72C669,-64.27 669,-54.89 669,-46.36"/>
<polygon fill="black" stroke="black" points="672.5,-46.15 669,-36.15 665.5,-46.15 672.5,-46.15"/>
</g>
<!-- ffc3a9ac&#45;f4ef&#45;43b5&#45;9596&#45;ccf6c93eb51f&#45;&gt;end -->
<g id="edge7" class="edge">
<title>ffc3a9ac&#45;f4ef&#45;43b5&#45;9596&#45;ccf6c93eb51f&#45;&gt;end</title>
<path fill="none" stroke="black" d="M1221.81,-99.87C1241.57,-99.87 1258.62,-99.87 1269.07,-99.87"/>
<polygon fill="black" stroke="black" points="1269.35,-103.37 1279.35,-99.87 1269.35,-96.37 1269.35,-103.37"/>
<text text-anchor="middle" x="1250.58" y="-106.67" font-family="Helvetica,sans-Serif" font-size="14.00">Finish</text>
</g>
<!-- 5e032a37&#45;36f2&#45;4655&#45;857a&#45;4de243bc3685 -->
<g id="node8" class="node">
<title>5e032a37&#45;36f2&#45;4655&#45;857a&#45;4de243bc3685</title>
<polygon fill="white" stroke="black" points="1314,-36 916,-36 916,0 1314,0 1314,-36"/>
<text text-anchor="middle" x="1115" y="-14.3" font-family="Helvetica,sans-Serif" font-size="14.00">▶ Run GitHub Actions for `sweepai/utils/ticket_utils.py`</text>
</g>
<!-- ffc3a9ac&#45;f4ef&#45;43b5&#45;9596&#45;ccf6c93eb51f&#45;&gt;5e032a37&#45;36f2&#45;4655&#45;857a&#45;4de243bc3685 -->
<g id="edge5" class="edge">
<title>ffc3a9ac&#45;f4ef&#45;43b5&#45;9596&#45;ccf6c93eb51f&#45;&gt;5e032a37&#45;36f2&#45;4655&#45;857a&#45;4de243bc3685</title>
<path fill="none" stroke="black" stroke-dasharray="5,2" d="M1088.77,-72.72C1093.08,-63.9 1097.88,-54.05 1102.19,-45.23"/>
<polygon fill="black" stroke="black" points="1105.38,-46.67 1106.63,-36.15 1099.09,-43.6 1105.38,-46.67"/>
</g>
</g>
</svg>
