<?xml version="1.0" encoding="UTF-8" standalone="no"?>
<!DOCTYPE svg PUBLIC "-//W3C//DTD SVG 1.1//EN"
 "http://www.w3.org/Graphics/SVG/1.1/DTD/svg11.dtd">
<!-- Generated by graphviz version 2.43.0 (0)
 -->
<!-- Title: %3 Pages: 1 -->
<svg width="1480pt" height="238pt"
 viewBox="0.00 0.00 1480.00 237.74" xmlns="http://www.w3.org/2000/svg" xmlns:xlink="http://www.w3.org/1999/xlink">
<g id="graph0" class="graph" transform="scale(1 1) rotate(0) translate(36 201.74)">
<title>%3</title>
<polygon fill="dimgray" stroke="transparent" points="-36,36 -36,-201.74 1444,-201.74 1444,36 -36,36"/>
<text text-anchor="middle" x="704" y="-150.54" font-family="Helvetica,sans-Serif" font-size="14.00">Sweep&#39;s Plan &amp; Progress</text>
<!-- start -->
<g id="node1" class="node">
<title>start</title>
</g>
<!-- 829670a0&#45;bd71&#45;4222&#45;9a77&#45;83dcbc11a830 -->
<g id="node3" class="node">
<title>829670a0&#45;bd71&#45;4222&#45;9a77&#45;83dcbc11a830</title>
<ellipse fill="#0ee832" stroke="black" cx="263" cy="-99.87" rx="195.74" ry="26.74"/>
<text text-anchor="middle" x="263" y="-103.67" font-family="Helvetica,sans-Serif" font-size="14.00">✓ Create</text>
<text text-anchor="middle" x="263" y="-88.67" font-family="Helvetica,sans-Serif" font-size="14.00">sweepai/agents/query_filter_agent.py</text>
</g>
<!-- start&#45;&gt;829670a0&#45;bd71&#45;4222&#45;9a77&#45;83dcbc11a830 -->
<g id="edge6" class="edge">
<title>start&#45;&gt;829670a0&#45;bd71&#45;4222&#45;9a77&#45;83dcbc11a830</title>
<path fill="none" stroke="black" d="M15.71,-99.87C19.16,-99.87 34.91,-99.87 56.91,-99.87"/>
<polygon fill="black" stroke="black" points="57.07,-103.37 67.07,-99.87 57.07,-96.37 57.07,-103.37"/>
<text text-anchor="middle" x="41.32" y="-106.67" font-family="Helvetica,sans-Serif" font-size="14.00">Start</text>
</g>
<!-- end -->
<g id="node2" class="node">
<title>end</title>
</g>
<!-- cfbf79ca&#45;7f47&#45;4495&#45;84f8&#45;32f4e43ab7a8 -->
<g id="node4" class="node">
<title>cfbf79ca&#45;7f47&#45;4495&#45;84f8&#45;32f4e43ab7a8</title>
<ellipse fill="white" stroke="black" cx="741" cy="-99.87" rx="219.41" ry="26.74"/>
<text text-anchor="middle" x="741" y="-103.67" font-family="Helvetica,sans-Serif" font-size="14.00">▶ Create</text>
<text text-anchor="middle" x="741" y="-88.67" font-family="Helvetica,sans-Serif" font-size="14.00">sweepai/agents/test_query_filter_agent.py</text>
</g>
<!-- 829670a0&#45;bd71&#45;4222&#45;9a77&#45;83dcbc11a830&#45;&gt;cfbf79ca&#45;7f47&#45;4495&#45;84f8&#45;32f4e43ab7a8 -->
<g id="edge2" class="edge">
<title>829670a0&#45;bd71&#45;4222&#45;9a77&#45;83dcbc11a830&#45;&gt;cfbf79ca&#45;7f47&#45;4495&#45;84f8&#45;32f4e43ab7a8</title>
<path fill="none" stroke="black" d="M459.05,-99.87C476.47,-99.87 493.89,-99.87 511.3,-99.87"/>
<polygon fill="black" stroke="black" points="511.56,-103.37 521.56,-99.87 511.56,-96.37 511.56,-103.37"/>
</g>
<!-- 8da552bd&#45;781c&#45;40e1&#45;8957&#45;7809e4ccfcf1 -->
<g id="node6" class="node">
<title>8da552bd&#45;781c&#45;40e1&#45;8957&#45;7809e4ccfcf1</title>
<polygon fill="yellow" stroke="black" points="472,-36 0,-36 0,0 472,0 472,-36"/>
<text text-anchor="middle" x="236" y="-14.3" font-family="Helvetica,sans-Serif" font-size="14.00">⋯ Run GitHub Actions for `sweepai/agents/query_filter_agent.py`</text>
</g>
<!-- 829670a0&#45;bd71&#45;4222&#45;9a77&#45;83dcbc11a830&#45;&gt;8da552bd&#45;781c&#45;40e1&#45;8957&#45;7809e4ccfcf1 -->
<g id="edge1" class="edge">
<title>829670a0&#45;bd71&#45;4222&#45;9a77&#45;83dcbc11a830&#45;&gt;8da552bd&#45;781c&#45;40e1&#45;8957&#45;7809e4ccfcf1</title>
<path fill="none" stroke="black" stroke-dasharray="5,2" d="M254.16,-72.72C251.24,-64.08 247.99,-54.47 245.06,-45.79"/>
<polygon fill="black" stroke="black" points="248.31,-44.5 241.8,-36.15 241.68,-46.74 248.31,-44.5"/>
</g>
<!-- dea46a3a&#45;988d&#45;4211&#45;b1fa&#45;47d4cdc25031 -->
<g id="node5" class="node">
<title>dea46a3a&#45;988d&#45;4211&#45;b1fa&#45;47d4cdc25031</title>
<ellipse fill="white" stroke="black" cx="1175" cy="-99.87" rx="145.83" ry="26.74"/>
<text text-anchor="middle" x="1175" y="-103.67" font-family="Helvetica,sans-Serif" font-size="14.00">▶ Modify</text>
<text text-anchor="middle" x="1175" y="-88.67" font-family="Helvetica,sans-Serif" font-size="14.00">sweepai/utils/ticket_utils.py</text>
</g>
<!-- cfbf79ca&#45;7f47&#45;4495&#45;84f8&#45;32f4e43ab7a8&#45;&gt;dea46a3a&#45;988d&#45;4211&#45;b1fa&#45;47d4cdc25031 -->
<g id="edge4" class="edge">
<title>cfbf79ca&#45;7f47&#45;4495&#45;84f8&#45;32f4e43ab7a8&#45;&gt;dea46a3a&#45;988d&#45;4211&#45;b1fa&#45;47d4cdc25031</title>
<path fill="none" stroke="black" d="M960.54,-99.87C980.04,-99.87 999.54,-99.87 1019.04,-99.87"/>
<polygon fill="black" stroke="black" points="1019.24,-103.37 1029.24,-99.87 1019.24,-96.37 1019.24,-103.37"/>
</g>
<!-- 52f5df5e&#45;7620&#45;4c90&#45;b176&#45;e21b4e86267f -->
<g id="node7" class="node">
<title>52f5df5e&#45;7620&#45;4c90&#45;b176&#45;e21b4e86267f</title>
<polygon fill="white" stroke="black" points="991.5,-36 490.5,-36 490.5,0 991.5,0 991.5,-36"/>
<text text-anchor="middle" x="741" y="-14.3" font-family="Helvetica,sans-Serif" font-size="14.00">▶ Run GitHub Actions for `sweepai/agents/test_query_filter_agent.py`</text>
</g>
<!-- cfbf79ca&#45;7f47&#45;4495&#45;84f8&#45;32f4e43ab7a8&#45;&gt;52f5df5e&#45;7620&#45;4c90&#45;b176&#45;e21b4e86267f -->
<g id="edge3" class="edge">
<title>cfbf79ca&#45;7f47&#45;4495&#45;84f8&#45;32f4e43ab7a8&#45;&gt;52f5df5e&#45;7620&#45;4c90&#45;b176&#45;e21b4e86267f</title>
<path fill="none" stroke="black" stroke-dasharray="5,2" d="M741,-72.72C741,-64.27 741,-54.89 741,-46.36"/>
<polygon fill="black" stroke="black" points="744.5,-46.15 741,-36.15 737.5,-46.15 744.5,-46.15"/>
</g>
<!-- dea46a3a&#45;988d&#45;4211&#45;b1fa&#45;47d4cdc25031&#45;&gt;end -->
<g id="edge7" class="edge">
<title>dea46a3a&#45;988d&#45;4211&#45;b1fa&#45;47d4cdc25031&#45;&gt;end</title>
<path fill="none" stroke="black" d="M1320.81,-99.87C1340.57,-99.87 1357.62,-99.87 1368.07,-99.87"/>
<polygon fill="black" stroke="black" points="1368.35,-103.37 1378.35,-99.87 1368.35,-96.37 1368.35,-103.37"/>
<text text-anchor="middle" x="1349.58" y="-106.67" font-family="Helvetica,sans-Serif" font-size="14.00">Finish</text>
</g>
<!-- fbe6e392&#45;ff8b&#45;4a52&#45;b9ad&#45;32af9ba53667 -->
<g id="node8" class="node">
<title>fbe6e392&#45;ff8b&#45;4a52&#45;b9ad&#45;32af9ba53667</title>
<polygon fill="white" stroke="black" points="1408,-36 1010,-36 1010,0 1408,0 1408,-36"/>
<text text-anchor="middle" x="1209" y="-14.3" font-family="Helvetica,sans-Serif" font-size="14.00">▶ Run GitHub Actions for `sweepai/utils/ticket_utils.py`</text>
</g>
<!-- dea46a3a&#45;988d&#45;4211&#45;b1fa&#45;47d4cdc25031&#45;&gt;fbe6e392&#45;ff8b&#45;4a52&#45;b9ad&#45;32af9ba53667 -->
<g id="edge5" class="edge">
<title>dea46a3a&#45;988d&#45;4211&#45;b1fa&#45;47d4cdc25031&#45;&gt;fbe6e392&#45;ff8b&#45;4a52&#45;b9ad&#45;32af9ba53667</title>
<path fill="none" stroke="black" stroke-dasharray="5,2" d="M1186.13,-72.72C1189.85,-63.99 1193.99,-54.26 1197.71,-45.51"/>
<polygon fill="black" stroke="black" points="1201,-46.72 1201.7,-36.15 1194.56,-43.98 1201,-46.72"/>
</g>
</g>
</svg>
