<?xml version="1.0" encoding="UTF-8" standalone="no"?>
<!DOCTYPE svg PUBLIC "-//W3C//DTD SVG 1.1//EN"
 "http://www.w3.org/Graphics/SVG/1.1/DTD/svg11.dtd">
<!-- Generated by graphviz version 2.43.0 (0)
 -->
<!-- Title: %3 Pages: 1 -->
<svg width="1836pt" height="238pt"
 viewBox="0.00 0.00 1835.50 237.74" xmlns="http://www.w3.org/2000/svg" xmlns:xlink="http://www.w3.org/1999/xlink">
<g id="graph0" class="graph" transform="scale(1 1) rotate(0) translate(36 201.74)">
<title>%3</title>
<polygon fill="dimgray" stroke="transparent" points="-36,36 -36,-201.74 1799.5,-201.74 1799.5,36 -36,36"/>
<text text-anchor="middle" x="881.75" y="-150.54" font-family="Helvetica,sans-Serif" font-size="14.00">Sweep&#39;s Plan &amp; Progress</text>
<!-- start -->
<g id="node1" class="node">
<title>start</title>
</g>
<!-- beae3132&#45;5be8&#45;49cf&#45;869e&#45;396eb9398709 -->
<g id="node3" class="node">
<title>beae3132&#45;5be8&#45;49cf&#45;869e&#45;396eb9398709</title>
<ellipse fill="yellow" stroke="black" cx="252.5" cy="-99.87" rx="162.77" ry="26.74"/>
<text text-anchor="middle" x="252.5" y="-103.67" font-family="Helvetica,sans-Serif" font-size="14.00">⋯ Create</text>
<text text-anchor="middle" x="252.5" y="-88.67" font-family="Helvetica,sans-Serif" font-size="14.00">sweepai/agents/filter_agent.py</text>
</g>
<!-- start&#45;&gt;beae3132&#45;5be8&#45;49cf&#45;869e&#45;396eb9398709 -->
<g id="edge8" class="edge">
<title>start&#45;&gt;beae3132&#45;5be8&#45;49cf&#45;869e&#45;396eb9398709</title>
<path fill="none" stroke="black" d="M38.12,-99.87C41.4,-99.87 57.5,-99.87 79.52,-99.87"/>
<polygon fill="black" stroke="black" points="79.67,-103.37 89.67,-99.87 79.67,-96.37 79.67,-103.37"/>
<text text-anchor="middle" x="63.93" y="-106.67" font-family="Helvetica,sans-Serif" font-size="14.00">Start</text>
</g>
<!-- end -->
<g id="node2" class="node">
<title>end</title>
</g>
<!-- c0ed44a3&#45;71f9&#45;4ce1&#45;8e1c&#45;21c86c193127 -->
<g id="node4" class="node">
<title>c0ed44a3&#45;71f9&#45;4ce1&#45;8e1c&#45;21c86c193127</title>
<ellipse fill="white" stroke="black" cx="638.5" cy="-99.87" rx="145.83" ry="26.74"/>
<text text-anchor="middle" x="638.5" y="-103.67" font-family="Helvetica,sans-Serif" font-size="14.00">▶ Modify</text>
<text text-anchor="middle" x="638.5" y="-88.67" font-family="Helvetica,sans-Serif" font-size="14.00">sweepai/utils/ticket_utils.py</text>
</g>
<!-- beae3132&#45;5be8&#45;49cf&#45;869e&#45;396eb9398709&#45;&gt;c0ed44a3&#45;71f9&#45;4ce1&#45;8e1c&#45;21c86c193127 -->
<g id="edge2" class="edge">
<title>beae3132&#45;5be8&#45;49cf&#45;869e&#45;396eb9398709&#45;&gt;c0ed44a3&#45;71f9&#45;4ce1&#45;8e1c&#45;21c86c193127</title>
<path fill="none" stroke="black" d="M415.34,-99.87C437.64,-99.87 459.94,-99.87 482.24,-99.87"/>
<polygon fill="black" stroke="black" points="482.49,-103.37 492.49,-99.87 482.49,-96.37 482.49,-103.37"/>
</g>
<!-- a598cae6&#45;7bda&#45;4021&#45;9d60&#45;d14e57412094 -->
<g id="node7" class="node">
<title>a598cae6&#45;7bda&#45;4021&#45;9d60&#45;d14e57412094</title>
<polygon fill="white" stroke="black" points="421,-36 0,-36 0,0 421,0 421,-36"/>
<text text-anchor="middle" x="210.5" y="-14.3" font-family="Helvetica,sans-Serif" font-size="14.00">▶ Run GitHub Actions for `sweepai/agents/filter_agent.py`</text>
</g>
<!-- beae3132&#45;5be8&#45;49cf&#45;869e&#45;396eb9398709&#45;&gt;a598cae6&#45;7bda&#45;4021&#45;9d60&#45;d14e57412094 -->
<g id="edge1" class="edge">
<title>beae3132&#45;5be8&#45;49cf&#45;869e&#45;396eb9398709&#45;&gt;a598cae6&#45;7bda&#45;4021&#45;9d60&#45;d14e57412094</title>
<path fill="none" stroke="black" stroke-dasharray="5,2" d="M238.75,-72.72C234.11,-63.9 228.93,-54.05 224.29,-45.23"/>
<polygon fill="black" stroke="black" points="227.27,-43.37 219.52,-36.15 221.07,-46.63 227.27,-43.37"/>
</g>
<!-- c6e082ff&#45;e9e9&#45;40b1&#45;8ac8&#45;81d01238e07d -->
<g id="node5" class="node">
<title>c6e082ff&#45;e9e9&#45;40b1&#45;8ac8&#45;81d01238e07d</title>
<ellipse fill="white" stroke="black" cx="1101.5" cy="-99.87" rx="212.68" ry="26.74"/>
<text text-anchor="middle" x="1101.5" y="-103.67" font-family="Helvetica,sans-Serif" font-size="14.00">▶ Create</text>
<text text-anchor="middle" x="1101.5" y="-88.67" font-family="Helvetica,sans-Serif" font-size="14.00">sweepai/agents/tests/test_filter_agent.py</text>
</g>
<!-- c0ed44a3&#45;71f9&#45;4ce1&#45;8e1c&#45;21c86c193127&#45;&gt;c6e082ff&#45;e9e9&#45;40b1&#45;8ac8&#45;81d01238e07d -->
<g id="edge4" class="edge">
<title>c0ed44a3&#45;71f9&#45;4ce1&#45;8e1c&#45;21c86c193127&#45;&gt;c6e082ff&#45;e9e9&#45;40b1&#45;8ac8&#45;81d01238e07d</title>
<path fill="none" stroke="black" d="M784.54,-99.87C815.83,-99.87 847.11,-99.87 878.39,-99.87"/>
<polygon fill="black" stroke="black" points="878.55,-103.37 888.55,-99.87 878.55,-96.37 878.55,-103.37"/>
</g>
<!-- f0eb91a4&#45;1b84&#45;46a8&#45;97dd&#45;2860b94aaa2c -->
<g id="node8" class="node">
<title>f0eb91a4&#45;1b84&#45;46a8&#45;97dd&#45;2860b94aaa2c</title>
<polygon fill="white" stroke="black" points="837.5,-36 439.5,-36 439.5,0 837.5,0 837.5,-36"/>
<text text-anchor="middle" x="638.5" y="-14.3" font-family="Helvetica,sans-Serif" font-size="14.00">▶ Run GitHub Actions for `sweepai/utils/ticket_utils.py`</text>
</g>
<!-- c0ed44a3&#45;71f9&#45;4ce1&#45;8e1c&#45;21c86c193127&#45;&gt;f0eb91a4&#45;1b84&#45;46a8&#45;97dd&#45;2860b94aaa2c -->
<g id="edge3" class="edge">
<title>c0ed44a3&#45;71f9&#45;4ce1&#45;8e1c&#45;21c86c193127&#45;&gt;f0eb91a4&#45;1b84&#45;46a8&#45;97dd&#45;2860b94aaa2c</title>
<path fill="none" stroke="black" stroke-dasharray="5,2" d="M638.5,-72.72C638.5,-64.27 638.5,-54.89 638.5,-46.36"/>
<polygon fill="black" stroke="black" points="642,-46.15 638.5,-36.15 635,-46.15 642,-46.15"/>
</g>
<!-- a3f9a472&#45;5c54&#45;49c9&#45;bf91&#45;2af3164b96d8 -->
<g id="node6" class="node">
<title>a3f9a472&#45;5c54&#45;49c9&#45;bf91&#45;2af3164b96d8</title>
<ellipse fill="white" stroke="black" cx="1530.5" cy="-99.87" rx="145.83" ry="26.74"/>
<text text-anchor="middle" x="1530.5" y="-103.67" font-family="Helvetica,sans-Serif" font-size="14.00">▶ Modify</text>
<text text-anchor="middle" x="1530.5" y="-88.67" font-family="Helvetica,sans-Serif" font-size="14.00">sweepai/utils/ticket_utils.py</text>
</g>
<!-- c6e082ff&#45;e9e9&#45;40b1&#45;8ac8&#45;81d01238e07d&#45;&gt;a3f9a472&#45;5c54&#45;49c9&#45;bf91&#45;2af3164b96d8 -->
<g id="edge6" class="edge">
<title>c6e082ff&#45;e9e9&#45;40b1&#45;8ac8&#45;81d01238e07d&#45;&gt;a3f9a472&#45;5c54&#45;49c9&#45;bf91&#45;2af3164b96d8</title>
<path fill="none" stroke="black" d="M1314.74,-99.87C1334.69,-99.87 1354.64,-99.87 1374.59,-99.87"/>
<polygon fill="black" stroke="black" points="1374.7,-103.37 1384.7,-99.87 1374.7,-96.37 1374.7,-103.37"/>
</g>
<!-- 199f17a3&#45;8e64&#45;4628&#45;a699&#45;c6f6c694766b -->
<g id="node9" class="node">
<title>199f17a3&#45;8e64&#45;4628&#45;a699&#45;c6f6c694766b</title>
<polygon fill="white" stroke="black" points="1347.5,-36 855.5,-36 855.5,0 1347.5,0 1347.5,-36"/>
<text text-anchor="middle" x="1101.5" y="-14.3" font-family="Helvetica,sans-Serif" font-size="14.00">▶ Run GitHub Actions for `sweepai/agents/tests/test_filter_agent.py`</text>
</g>
<!-- c6e082ff&#45;e9e9&#45;40b1&#45;8ac8&#45;81d01238e07d&#45;&gt;199f17a3&#45;8e64&#45;4628&#45;a699&#45;c6f6c694766b -->
<g id="edge5" class="edge">
<title>c6e082ff&#45;e9e9&#45;40b1&#45;8ac8&#45;81d01238e07d&#45;&gt;199f17a3&#45;8e64&#45;4628&#45;a699&#45;c6f6c694766b</title>
<path fill="none" stroke="black" stroke-dasharray="5,2" d="M1101.5,-72.72C1101.5,-64.27 1101.5,-54.89 1101.5,-46.36"/>
<polygon fill="black" stroke="black" points="1105,-46.15 1101.5,-36.15 1098,-46.15 1105,-46.15"/>
</g>
<!-- a3f9a472&#45;5c54&#45;49c9&#45;bf91&#45;2af3164b96d8&#45;&gt;end -->
<g id="edge9" class="edge">
<title>a3f9a472&#45;5c54&#45;49c9&#45;bf91&#45;2af3164b96d8&#45;&gt;end</title>
<path fill="none" stroke="black" d="M1676.31,-99.87C1696.07,-99.87 1713.12,-99.87 1723.57,-99.87"/>
<polygon fill="black" stroke="black" points="1723.85,-103.37 1733.85,-99.87 1723.85,-96.37 1723.85,-103.37"/>
<text text-anchor="middle" x="1705.08" y="-106.67" font-family="Helvetica,sans-Serif" font-size="14.00">Finish</text>
</g>
<!-- 1c0915ce&#45;eb67&#45;4904&#45;beb0&#45;925500cc1b87 -->
<g id="node10" class="node">
<title>1c0915ce&#45;eb67&#45;4904&#45;beb0&#45;925500cc1b87</title>
<polygon fill="white" stroke="black" points="1763.5,-36 1365.5,-36 1365.5,0 1763.5,0 1763.5,-36"/>
<text text-anchor="middle" x="1564.5" y="-14.3" font-family="Helvetica,sans-Serif" font-size="14.00">▶ Run GitHub Actions for `sweepai/utils/ticket_utils.py`</text>
</g>
<!-- a3f9a472&#45;5c54&#45;49c9&#45;bf91&#45;2af3164b96d8&#45;&gt;1c0915ce&#45;eb67&#45;4904&#45;beb0&#45;925500cc1b87 -->
<g id="edge7" class="edge">
<title>a3f9a472&#45;5c54&#45;49c9&#45;bf91&#45;2af3164b96d8&#45;&gt;1c0915ce&#45;eb67&#45;4904&#45;beb0&#45;925500cc1b87</title>
<path fill="none" stroke="black" stroke-dasharray="5,2" d="M1541.63,-72.72C1545.35,-63.99 1549.49,-54.26 1553.21,-45.51"/>
<polygon fill="black" stroke="black" points="1556.5,-46.72 1557.2,-36.15 1550.06,-43.98 1556.5,-46.72"/>
</g>
</g>
</svg>
