<?xml version="1.0" encoding="UTF-8" standalone="no"?>
<!DOCTYPE svg PUBLIC "-//W3C//DTD SVG 1.1//EN"
 "http://www.w3.org/Graphics/SVG/1.1/DTD/svg11.dtd">
<!-- Generated by graphviz version 8.0.3 (0)
 -->
<!-- Pages: 1 -->
<svg width="2342pt" height="771pt"
 viewBox="0.00 0.00 2342.00 770.96" xmlns="http://www.w3.org/2000/svg" xmlns:xlink="http://www.w3.org/1999/xlink">
<g id="graph0" class="graph" transform="scale(1 1) rotate(0) translate(36 734.96)">
<polygon fill="dimgray" stroke="none" points="-36,36 -36,-734.96 2306,-734.96 2306,36 -36,36"/>
<text text-anchor="middle" x="1135" y="-683.76" font-family="Helvetica,sans-Serif" font-size="14.00">Sweep&#39;s Plan &amp; Progress</text>
<!-- start -->
<g id="node1" class="node">
<title>start</title>
</g>
<!-- 2474dc83&#45;d6c9&#45;4095&#45;9ed9&#45;c258eb62d53b -->
<g id="node3" class="node">
<title>2474dc83&#45;d6c9&#45;4095&#45;9ed9&#45;c258eb62d53b</title>
<ellipse fill="#0ee832" stroke="black" cx="1286" cy="-633.09" rx="159.61" ry="26.74"/>
<text text-anchor="middle" x="1286" y="-636.89" font-family="Helvetica,sans-Serif" font-size="14.00">✓ Modify</text>
<text text-anchor="middle" x="1286" y="-621.89" font-family="Helvetica,sans-Serif" font-size="14.00">sweepai/handlers/on_ticket.py</text>
</g>
<!-- start&#45;&gt;2474dc83&#45;d6c9&#45;4095&#45;9ed9&#45;c258eb62d53b -->
<g id="edge25" class="edge">
<title>start&#45;&gt;2474dc83&#45;d6c9&#45;4095&#45;9ed9&#45;c258eb62d53b</title>
<path fill="none" stroke="black" d="M1074.15,-633.09C1075.89,-633.09 1092.25,-633.09 1115.17,-633.09"/>
<polygon fill="black" stroke="black" points="1115.13,-636.59 1125.13,-633.09 1115.13,-629.59 1115.13,-636.59"/>
<text text-anchor="middle" x="1100.35" y="-639.89" font-family="Helvetica,sans-Serif" font-size="14.00">Start</text>
</g>
<!-- end -->
<g id="node2" class="node">
<title>end</title>
</g>
<!-- ed608921&#45;bc70&#45;4f4e&#45;a331&#45;16482b157696 -->
<g id="node4" class="node">
<title>ed608921&#45;bc70&#45;4f4e&#45;a331&#45;16482b157696</title>
<ellipse fill="#0ee832" stroke="black" cx="1684" cy="-633.09" rx="159.61" ry="26.74"/>
<text text-anchor="middle" x="1684" y="-636.89" font-family="Helvetica,sans-Serif" font-size="14.00">✓ Modify</text>
<text text-anchor="middle" x="1684" y="-621.89" font-family="Helvetica,sans-Serif" font-size="14.00">sweepai/handlers/on_ticket.py</text>
</g>
<!-- 2474dc83&#45;d6c9&#45;4095&#45;9ed9&#45;c258eb62d53b&#45;&gt;ed608921&#45;bc70&#45;4f4e&#45;a331&#45;16482b157696 -->
<g id="edge11" class="edge">
<title>2474dc83&#45;d6c9&#45;4095&#45;9ed9&#45;c258eb62d53b&#45;&gt;ed608921&#45;bc70&#45;4f4e&#45;a331&#45;16482b157696</title>
<path fill="none" stroke="black" d="M1445.74,-633.09C1468.14,-633.09 1490.53,-633.09 1512.93,-633.09"/>
<polygon fill="black" stroke="black" points="1512.92,-636.59 1522.92,-633.09 1512.92,-629.59 1512.92,-636.59"/>
</g>
<!-- 03a86e8a&#45;88a6&#45;4998&#45;99f7&#45;e8baca8bd457 -->
<g id="node5" class="node">
<title>03a86e8a&#45;88a6&#45;4998&#45;99f7&#45;e8baca8bd457</title>
<polygon fill="#ee0000" stroke="black" points="1078,-569.22 698,-569.22 698,-533.22 1078,-533.22 1078,-569.22"/>
<text text-anchor="middle" x="888" y="-547.52" font-family="Helvetica,sans-Serif" font-size="14.00">✗ Ran sandbox for `sweepai/handlers/on_ticket.py`.</text>
</g>
<!-- 2474dc83&#45;d6c9&#45;4095&#45;9ed9&#45;c258eb62d53b&#45;&gt;03a86e8a&#45;88a6&#45;4998&#45;99f7&#45;e8baca8bd457 -->
<g id="edge1" class="edge">
<title>2474dc83&#45;d6c9&#45;4095&#45;9ed9&#45;c258eb62d53b&#45;&gt;03a86e8a&#45;88a6&#45;4998&#45;99f7&#45;e8baca8bd457</title>
<path fill="none" stroke="black" stroke-dasharray="5,2" d="M1185.57,-611.94C1124.31,-599.64 1046.37,-584 985.63,-571.81"/>
<polygon fill="black" stroke="black" points="986.37,-568.19 975.88,-569.66 985,-575.05 986.37,-568.19"/>
</g>
<!-- 9d0dcc6f&#45;06ea&#45;4e15&#45;baa3&#45;c4fa4987a2f0 -->
<g id="node6" class="node">
<title>9d0dcc6f&#45;06ea&#45;4e15&#45;baa3&#45;c4fa4987a2f0</title>
<polygon fill="#ee0000" stroke="black" points="1476,-569.22 1096,-569.22 1096,-533.22 1476,-533.22 1476,-569.22"/>
<text text-anchor="middle" x="1286" y="-547.52" font-family="Helvetica,sans-Serif" font-size="14.00">✗ Ran sandbox for `sweepai/handlers/on_ticket.py`.</text>
</g>
<!-- 2474dc83&#45;d6c9&#45;4095&#45;9ed9&#45;c258eb62d53b&#45;&gt;9d0dcc6f&#45;06ea&#45;4e15&#45;baa3&#45;c4fa4987a2f0 -->
<g id="edge10" class="edge">
<title>2474dc83&#45;d6c9&#45;4095&#45;9ed9&#45;c258eb62d53b&#45;&gt;9d0dcc6f&#45;06ea&#45;4e15&#45;baa3&#45;c4fa4987a2f0</title>
<path fill="none" stroke="black" stroke-dasharray="5,2" d="M1286,-605.94C1286,-597.68 1286,-588.53 1286,-580.15"/>
<polygon fill="black" stroke="black" points="1289.5,-580.37 1286,-570.37 1282.5,-580.37 1289.5,-580.37"/>
</g>
<!-- ed608921&#45;bc70&#45;4f4e&#45;a331&#45;16482b157696&#45;&gt;end -->
<g id="edge26" class="edge">
<title>ed608921&#45;bc70&#45;4f4e&#45;a331&#45;16482b157696&#45;&gt;end</title>
<path fill="none" stroke="black" d="M1843.87,-633.09C1863.5,-633.09 1880.3,-633.09 1890.72,-633.09"/>
<polygon fill="black" stroke="black" points="1890.71,-636.59 1900.71,-633.09 1890.71,-629.59 1890.71,-636.59"/>
<text text-anchor="middle" x="1872.65" y="-639.89" font-family="Helvetica,sans-Serif" font-size="14.00">Finish</text>
</g>
<!-- 6c4aa635&#45;4ef4&#45;4dac&#45;b710&#45;d8f3a76e9eeb -->
<g id="node7" class="node">
<title>6c4aa635&#45;4ef4&#45;4dac&#45;b710&#45;d8f3a76e9eeb</title>
<polygon fill="#ee0000" stroke="black" points="1874,-569.22 1494,-569.22 1494,-533.22 1874,-533.22 1874,-569.22"/>
<text text-anchor="middle" x="1684" y="-547.52" font-family="Helvetica,sans-Serif" font-size="14.00">✗ Ran sandbox for `sweepai/handlers/on_ticket.py`.</text>
</g>
<!-- ed608921&#45;bc70&#45;4f4e&#45;a331&#45;16482b157696&#45;&gt;6c4aa635&#45;4ef4&#45;4dac&#45;b710&#45;d8f3a76e9eeb -->
<g id="edge12" class="edge">
<title>ed608921&#45;bc70&#45;4f4e&#45;a331&#45;16482b157696&#45;&gt;6c4aa635&#45;4ef4&#45;4dac&#45;b710&#45;d8f3a76e9eeb</title>
<path fill="none" stroke="black" stroke-dasharray="5,2" d="M1684,-605.94C1684,-597.68 1684,-588.53 1684,-580.15"/>
<polygon fill="black" stroke="black" points="1687.5,-580.37 1684,-570.37 1680.5,-580.37 1687.5,-580.37"/>
</g>
<!-- 8fdc59b2&#45;fc38&#45;44c0&#45;b6ac&#45;db40100b9d55 -->
<g id="node8" class="node">
<title>8fdc59b2&#45;fc38&#45;44c0&#45;b6ac&#45;db40100b9d55</title>
<polygon fill="white" stroke="black" points="2270,-569.22 1892,-569.22 1892,-533.22 2270,-533.22 2270,-569.22"/>
<text text-anchor="middle" x="2081" y="-547.52" font-family="Helvetica,sans-Serif" font-size="14.00">▶ Ran sandbox for `sweepai/handlers/on_ticket.py`.</text>
</g>
<!-- ed608921&#45;bc70&#45;4f4e&#45;a331&#45;16482b157696&#45;&gt;8fdc59b2&#45;fc38&#45;44c0&#45;b6ac&#45;db40100b9d55 -->
<g id="edge24" class="edge">
<title>ed608921&#45;bc70&#45;4f4e&#45;a331&#45;16482b157696&#45;&gt;8fdc59b2&#45;fc38&#45;44c0&#45;b6ac&#45;db40100b9d55</title>
<path fill="none" stroke="black" stroke-dasharray="5,2" d="M1784.44,-611.88C1845.44,-599.61 1922.94,-584.02 1983.42,-571.85"/>
<polygon fill="black" stroke="black" points="1984,-575.1 1993.12,-569.7 1982.62,-568.24 1984,-575.1"/>
</g>
<!-- e8c7c437&#45;6dc5&#45;4579&#45;a46d&#45;0f350f35c565 -->
<g id="node9" class="node">
<title>e8c7c437&#45;6dc5&#45;4579&#45;a46d&#45;0f350f35c565</title>
<ellipse fill="#0ee832" stroke="black" cx="888" cy="-455.35" rx="159.61" ry="26.74"/>
<text text-anchor="middle" x="888" y="-459.15" font-family="Helvetica,sans-Serif" font-size="14.00">✓ Modify</text>
<text text-anchor="middle" x="888" y="-444.15" font-family="Helvetica,sans-Serif" font-size="14.00">sweepai/handlers/on_ticket.py</text>
</g>
<!-- 03a86e8a&#45;88a6&#45;4998&#45;99f7&#45;e8baca8bd457&#45;&gt;e8c7c437&#45;6dc5&#45;4579&#45;a46d&#45;0f350f35c565 -->
<g id="edge2" class="edge">
<title>03a86e8a&#45;88a6&#45;4998&#45;99f7&#45;e8baca8bd457&#45;&gt;e8c7c437&#45;6dc5&#45;4579&#45;a46d&#45;0f350f35c565</title>
<path fill="none" stroke="black" d="M888,-533C888,-521.81 888,-506.79 888,-493.01"/>
<polygon fill="black" stroke="black" points="891.5,-493.32 888,-483.32 884.5,-493.32 891.5,-493.32"/>
<text text-anchor="middle" x="985.5" y="-504.02" font-family="Helvetica,sans-Serif" font-size="14.00">Additional changes required</text>
</g>
<!-- dc971c71&#45;8fb2&#45;449f&#45;82c0&#45;dccaa971aa9d -->
<g id="node10" class="node">
<title>dc971c71&#45;8fb2&#45;449f&#45;82c0&#45;dccaa971aa9d</title>
<ellipse fill="#0ee832" stroke="black" cx="1684" cy="-455.35" rx="159.61" ry="26.74"/>
<text text-anchor="middle" x="1684" y="-459.15" font-family="Helvetica,sans-Serif" font-size="14.00">✓ Modify</text>
<text text-anchor="middle" x="1684" y="-444.15" font-family="Helvetica,sans-Serif" font-size="14.00">sweepai/handlers/on_ticket.py</text>
</g>
<!-- 6c4aa635&#45;4ef4&#45;4dac&#45;b710&#45;d8f3a76e9eeb&#45;&gt;dc971c71&#45;8fb2&#45;449f&#45;82c0&#45;dccaa971aa9d -->
<g id="edge13" class="edge">
<title>6c4aa635&#45;4ef4&#45;4dac&#45;b710&#45;d8f3a76e9eeb&#45;&gt;dc971c71&#45;8fb2&#45;449f&#45;82c0&#45;dccaa971aa9d</title>
<path fill="none" stroke="black" d="M1684,-533C1684,-521.81 1684,-506.79 1684,-493.01"/>
<polygon fill="black" stroke="black" points="1687.5,-493.32 1684,-483.32 1680.5,-493.32 1687.5,-493.32"/>
<text text-anchor="middle" x="1781.5" y="-504.02" font-family="Helvetica,sans-Serif" font-size="14.00">Additional changes required</text>
</g>
<!-- 51ed0060&#45;5ddc&#45;4861&#45;ac15&#45;727156540dfd -->
<g id="node11" class="node">
<title>51ed0060&#45;5ddc&#45;4861&#45;ac15&#45;727156540dfd</title>
<polygon fill="#ee0000" stroke="black" points="710,-391.48 330,-391.48 330,-355.48 710,-355.48 710,-391.48"/>
<text text-anchor="middle" x="520" y="-369.78" font-family="Helvetica,sans-Serif" font-size="14.00">✗ Ran sandbox for `sweepai/handlers/on_ticket.py`.</text>
</g>
<!-- e8c7c437&#45;6dc5&#45;4579&#45;a46d&#45;0f350f35c565&#45;&gt;51ed0060&#45;5ddc&#45;4861&#45;ac15&#45;727156540dfd -->
<g id="edge3" class="edge">
<title>e8c7c437&#45;6dc5&#45;4579&#45;a46d&#45;0f350f35c565&#45;&gt;51ed0060&#45;5ddc&#45;4861&#45;ac15&#45;727156540dfd</title>
<path fill="none" stroke="black" stroke-dasharray="5,2" d="M792.27,-433.57C736.35,-421.44 666.18,-406.21 611.08,-394.25"/>
<polygon fill="black" stroke="black" points="612.14,-390.68 601.62,-391.98 610.65,-397.52 612.14,-390.68"/>
</g>
<!-- 3ebcd283&#45;2cd7&#45;497d&#45;a173&#45;0537e6b1e803 -->
<g id="node12" class="node">
<title>3ebcd283&#45;2cd7&#45;497d&#45;a173&#45;0537e6b1e803</title>
<polygon fill="#ee0000" stroke="black" points="1108,-391.48 728,-391.48 728,-355.48 1108,-355.48 1108,-391.48"/>
<text text-anchor="middle" x="918" y="-369.78" font-family="Helvetica,sans-Serif" font-size="14.00">✗ Ran sandbox for `sweepai/handlers/on_ticket.py`.</text>
</g>
<!-- e8c7c437&#45;6dc5&#45;4579&#45;a46d&#45;0f350f35c565&#45;&gt;3ebcd283&#45;2cd7&#45;497d&#45;a173&#45;0537e6b1e803 -->
<g id="edge9" class="edge">
<title>e8c7c437&#45;6dc5&#45;4579&#45;a46d&#45;0f350f35c565&#45;&gt;3ebcd283&#45;2cd7&#45;497d&#45;a173&#45;0537e6b1e803</title>
<path fill="none" stroke="black" stroke-dasharray="5,2" d="M897.82,-428.2C901,-419.75 904.52,-410.37 907.72,-401.84"/>
<polygon fill="black" stroke="black" points="911.32,-403.22 911.56,-392.63 904.77,-400.76 911.32,-403.22"/>
</g>
<!-- 0f821eab&#45;38df&#45;405a&#45;bdc5&#45;7158f590198b -->
<g id="node13" class="node">
<title>0f821eab&#45;38df&#45;405a&#45;bdc5&#45;7158f590198b</title>
<polygon fill="#ee0000" stroke="black" points="1565,-391.48 1185,-391.48 1185,-355.48 1565,-355.48 1565,-391.48"/>
<text text-anchor="middle" x="1375" y="-369.78" font-family="Helvetica,sans-Serif" font-size="14.00">✗ Ran sandbox for `sweepai/handlers/on_ticket.py`.</text>
</g>
<!-- dc971c71&#45;8fb2&#45;449f&#45;82c0&#45;dccaa971aa9d&#45;&gt;0f821eab&#45;38df&#45;405a&#45;bdc5&#45;7158f590198b -->
<g id="edge14" class="edge">
<title>dc971c71&#45;8fb2&#45;449f&#45;82c0&#45;dccaa971aa9d&#45;&gt;0f821eab&#45;38df&#45;405a&#45;bdc5&#45;7158f590198b</title>
<path fill="none" stroke="black" stroke-dasharray="5,2" d="M1598.75,-432.31C1553.18,-420.54 1497.49,-406.14 1453.07,-394.66"/>
<polygon fill="black" stroke="black" points="1454.17,-391.07 1443.61,-391.96 1452.42,-397.85 1454.17,-391.07"/>
</g>
<!-- 034de01f&#45;4ca3&#45;4c5f&#45;b21a&#45;8bb127222766 -->
<g id="node14" class="node">
<title>034de01f&#45;4ca3&#45;4c5f&#45;b21a&#45;8bb127222766</title>
<polygon fill="white" stroke="black" points="1961,-391.48 1583,-391.48 1583,-355.48 1961,-355.48 1961,-391.48"/>
<text text-anchor="middle" x="1772" y="-369.78" font-family="Helvetica,sans-Serif" font-size="14.00">▶ Ran sandbox for `sweepai/handlers/on_ticket.py`.</text>
</g>
<!-- dc971c71&#45;8fb2&#45;449f&#45;82c0&#45;dccaa971aa9d&#45;&gt;034de01f&#45;4ca3&#45;4c5f&#45;b21a&#45;8bb127222766 -->
<g id="edge23" class="edge">
<title>dc971c71&#45;8fb2&#45;449f&#45;82c0&#45;dccaa971aa9d&#45;&gt;034de01f&#45;4ca3&#45;4c5f&#45;b21a&#45;8bb127222766</title>
<path fill="none" stroke="black" stroke-dasharray="5,2" d="M1712.33,-428.64C1722.79,-419.14 1734.62,-408.4 1744.97,-399.01"/>
<polygon fill="black" stroke="black" points="1746.85,-402.13 1751.9,-392.82 1742.14,-396.95 1746.85,-402.13"/>
</g>
<!-- 9da2e3ed&#45;dd7f&#45;426d&#45;8681&#45;9b881753bdcf -->
<g id="node15" class="node">
<title>9da2e3ed&#45;dd7f&#45;426d&#45;8681&#45;9b881753bdcf</title>
<ellipse fill="#0ee832" stroke="black" cx="520" cy="-277.61" rx="159.61" ry="26.74"/>
<text text-anchor="middle" x="520" y="-281.41" font-family="Helvetica,sans-Serif" font-size="14.00">✓ Modify</text>
<text text-anchor="middle" x="520" y="-266.41" font-family="Helvetica,sans-Serif" font-size="14.00">sweepai/handlers/on_ticket.py</text>
</g>
<!-- 51ed0060&#45;5ddc&#45;4861&#45;ac15&#45;727156540dfd&#45;&gt;9da2e3ed&#45;dd7f&#45;426d&#45;8681&#45;9b881753bdcf -->
<g id="edge4" class="edge">
<title>51ed0060&#45;5ddc&#45;4861&#45;ac15&#45;727156540dfd&#45;&gt;9da2e3ed&#45;dd7f&#45;426d&#45;8681&#45;9b881753bdcf</title>
<path fill="none" stroke="black" d="M520,-355.26C520,-344.07 520,-329.05 520,-315.27"/>
<polygon fill="black" stroke="black" points="523.5,-315.58 520,-305.58 516.5,-315.58 523.5,-315.58"/>
<text text-anchor="middle" x="617.5" y="-326.28" font-family="Helvetica,sans-Serif" font-size="14.00">Additional changes required</text>
</g>
<!-- b7eb1dbc&#45;f691&#45;4994&#45;9de8&#45;fe4d5d1ff6a7 -->
<g id="node16" class="node">
<title>b7eb1dbc&#45;f691&#45;4994&#45;9de8&#45;fe4d5d1ff6a7</title>
<ellipse fill="#0ee832" stroke="black" cx="1375" cy="-277.61" rx="115.02" ry="26.74"/>
<text text-anchor="middle" x="1375" y="-281.41" font-family="Helvetica,sans-Serif" font-size="14.00">✓ Modify</text>
<text text-anchor="middle" x="1375" y="-266.41" font-family="Helvetica,sans-Serif" font-size="14.00">sweepai/core/chat.py</text>
</g>
<!-- 0f821eab&#45;38df&#45;405a&#45;bdc5&#45;7158f590198b&#45;&gt;b7eb1dbc&#45;f691&#45;4994&#45;9de8&#45;fe4d5d1ff6a7 -->
<g id="edge15" class="edge">
<title>0f821eab&#45;38df&#45;405a&#45;bdc5&#45;7158f590198b&#45;&gt;b7eb1dbc&#45;f691&#45;4994&#45;9de8&#45;fe4d5d1ff6a7</title>
<path fill="none" stroke="black" d="M1375,-355.26C1375,-344.07 1375,-329.05 1375,-315.27"/>
<polygon fill="black" stroke="black" points="1378.5,-315.58 1375,-305.58 1371.5,-315.58 1378.5,-315.58"/>
<text text-anchor="middle" x="1472.5" y="-326.28" font-family="Helvetica,sans-Serif" font-size="14.00">Additional changes required</text>
</g>
<!-- 9d3c4d9b&#45;f3cb&#45;42b9&#45;874f&#45;86eae8c8baf5 -->
<g id="node17" class="node">
<title>9d3c4d9b&#45;f3cb&#45;42b9&#45;874f&#45;86eae8c8baf5</title>
<polygon fill="#ee0000" stroke="black" points="380,-213.74 0,-213.74 0,-177.74 380,-177.74 380,-213.74"/>
<text text-anchor="middle" x="190" y="-192.04" font-family="Helvetica,sans-Serif" font-size="14.00">✗ Ran sandbox for `sweepai/handlers/on_ticket.py`.</text>
</g>
<!-- 9da2e3ed&#45;dd7f&#45;426d&#45;8681&#45;9b881753bdcf&#45;&gt;9d3c4d9b&#45;f3cb&#45;42b9&#45;874f&#45;86eae8c8baf5 -->
<g id="edge5" class="edge">
<title>9da2e3ed&#45;dd7f&#45;426d&#45;8681&#45;9b881753bdcf&#45;&gt;9d3c4d9b&#45;f3cb&#45;42b9&#45;874f&#45;86eae8c8baf5</title>
<path fill="none" stroke="black" stroke-dasharray="5,2" d="M431.13,-255.1C381.78,-243.16 320.79,-228.39 272.49,-216.71"/>
<polygon fill="black" stroke="black" points="273.62,-213.14 263.08,-214.18 271.97,-219.94 273.62,-213.14"/>
</g>
<!-- d025db31&#45;73be&#45;4267&#45;aae1&#45;a34cdb2f4d5f -->
<g id="node18" class="node">
<title>d025db31&#45;73be&#45;4267&#45;aae1&#45;a34cdb2f4d5f</title>
<polygon fill="#ee0000" stroke="black" points="778,-213.74 398,-213.74 398,-177.74 778,-177.74 778,-213.74"/>
<text text-anchor="middle" x="588" y="-192.04" font-family="Helvetica,sans-Serif" font-size="14.00">✗ Ran sandbox for `sweepai/handlers/on_ticket.py`.</text>
</g>
<!-- 9da2e3ed&#45;dd7f&#45;426d&#45;8681&#45;9b881753bdcf&#45;&gt;d025db31&#45;73be&#45;4267&#45;aae1&#45;a34cdb2f4d5f -->
<g id="edge8" class="edge">
<title>9da2e3ed&#45;dd7f&#45;426d&#45;8681&#45;9b881753bdcf&#45;&gt;d025db31&#45;73be&#45;4267&#45;aae1&#45;a34cdb2f4d5f</title>
<path fill="none" stroke="black" stroke-dasharray="5,2" d="M541.89,-250.9C549.66,-241.78 558.39,-231.51 566.16,-222.39"/>
<polygon fill="black" stroke="black" points="569.42,-224.96 573.24,-215.08 564.09,-220.42 569.42,-224.96"/>
</g>
<!-- 19234e28&#45;51ba&#45;44c4&#45;bb04&#45;6d8664af6275 -->
<g id="node19" class="node">
<title>19234e28&#45;51ba&#45;44c4&#45;bb04&#45;6d8664af6275</title>
<polygon fill="#ee0000" stroke="black" points="1189.5,-213.74 872.5,-213.74 872.5,-177.74 1189.5,-177.74 1189.5,-213.74"/>
<text text-anchor="middle" x="1031" y="-192.04" font-family="Helvetica,sans-Serif" font-size="14.00">✗ Ran sandbox for `sweepai/core/chat.py`.</text>
</g>
<!-- b7eb1dbc&#45;f691&#45;4994&#45;9de8&#45;fe4d5d1ff6a7&#45;&gt;19234e28&#45;51ba&#45;44c4&#45;bb04&#45;6d8664af6275 -->
<g id="edge16" class="edge">
<title>b7eb1dbc&#45;f691&#45;4994&#45;9de8&#45;fe4d5d1ff6a7&#45;&gt;19234e28&#45;51ba&#45;44c4&#45;bb04&#45;6d8664af6275</title>
<path fill="none" stroke="black" stroke-dasharray="5,2" d="M1295.21,-258.09C1241.81,-245.69 1171.57,-229.38 1116.94,-216.69"/>
<polygon fill="black" stroke="black" points="1117.76,-213.06 1107.23,-214.21 1116.18,-219.88 1117.76,-213.06"/>
</g>
<!-- e2d8c48a&#45;8191&#45;4eb2&#45;b84a&#45;fd9baa51b215 -->
<g id="node20" class="node">
<title>e2d8c48a&#45;8191&#45;4eb2&#45;b84a&#45;fd9baa51b215</title>
<polygon fill="#ee0000" stroke="black" points="1533.5,-213.74 1216.5,-213.74 1216.5,-177.74 1533.5,-177.74 1533.5,-213.74"/>
<text text-anchor="middle" x="1375" y="-192.04" font-family="Helvetica,sans-Serif" font-size="14.00">✗ Ran sandbox for `sweepai/core/chat.py`.</text>
</g>
<!-- b7eb1dbc&#45;f691&#45;4994&#45;9de8&#45;fe4d5d1ff6a7&#45;&gt;e2d8c48a&#45;8191&#45;4eb2&#45;b84a&#45;fd9baa51b215 -->
<g id="edge19" class="edge">
<title>b7eb1dbc&#45;f691&#45;4994&#45;9de8&#45;fe4d5d1ff6a7&#45;&gt;e2d8c48a&#45;8191&#45;4eb2&#45;b84a&#45;fd9baa51b215</title>
<path fill="none" stroke="black" stroke-dasharray="5,2" d="M1375,-250.46C1375,-242.2 1375,-233.05 1375,-224.67"/>
<polygon fill="black" stroke="black" points="1378.5,-224.89 1375,-214.89 1371.5,-224.89 1378.5,-224.89"/>
</g>
<!-- c792b4df&#45;e54b&#45;4810&#45;bfa4&#45;c170c8d0d7b8 -->
<g id="node21" class="node">
<title>c792b4df&#45;e54b&#45;4810&#45;bfa4&#45;c170c8d0d7b8</title>
<polygon fill="white" stroke="black" points="1866.5,-213.74 1551.5,-213.74 1551.5,-177.74 1866.5,-177.74 1866.5,-213.74"/>
<text text-anchor="middle" x="1709" y="-192.04" font-family="Helvetica,sans-Serif" font-size="14.00">▶ Ran sandbox for `sweepai/core/chat.py`.</text>
</g>
<!-- b7eb1dbc&#45;f691&#45;4994&#45;9de8&#45;fe4d5d1ff6a7&#45;&gt;c792b4df&#45;e54b&#45;4810&#45;bfa4&#45;c170c8d0d7b8 -->
<g id="edge22" class="edge">
<title>b7eb1dbc&#45;f691&#45;4994&#45;9de8&#45;fe4d5d1ff6a7&#45;&gt;c792b4df&#45;e54b&#45;4810&#45;bfa4&#45;c170c8d0d7b8</title>
<path fill="none" stroke="black" stroke-dasharray="5,2" d="M1453.73,-257.78C1505.33,-245.44 1572.72,-229.33 1625.29,-216.76"/>
<polygon fill="black" stroke="black" points="1626.03,-219.94 1634.94,-214.21 1624.4,-213.13 1626.03,-219.94"/>
</g>
<!-- fb43e704&#45;8398&#45;4fab&#45;a423&#45;caf6360e255c -->
<g id="node22" class="node">
<title>fb43e704&#45;8398&#45;4fab&#45;a423&#45;caf6360e255c</title>
<ellipse fill="#ee0000" stroke="black" cx="190" cy="-99.87" rx="159.61" ry="26.74"/>
<text text-anchor="middle" x="190" y="-103.67" font-family="Helvetica,sans-Serif" font-size="14.00">✗ Modify</text>
<text text-anchor="middle" x="190" y="-88.67" font-family="Helvetica,sans-Serif" font-size="14.00">sweepai/handlers/on_ticket.py</text>
</g>
<!-- 9d3c4d9b&#45;f3cb&#45;42b9&#45;874f&#45;86eae8c8baf5&#45;&gt;fb43e704&#45;8398&#45;4fab&#45;a423&#45;caf6360e255c -->
<g id="edge6" class="edge">
<title>9d3c4d9b&#45;f3cb&#45;42b9&#45;874f&#45;86eae8c8baf5&#45;&gt;fb43e704&#45;8398&#45;4fab&#45;a423&#45;caf6360e255c</title>
<path fill="none" stroke="black" d="M190,-177.52C190,-166.33 190,-151.31 190,-137.53"/>
<polygon fill="black" stroke="black" points="193.5,-137.84 190,-127.84 186.5,-137.84 193.5,-137.84"/>
<text text-anchor="middle" x="287.5" y="-148.54" font-family="Helvetica,sans-Serif" font-size="14.00">Additional changes required</text>
</g>
<!-- ec46b7d3&#45;affc&#45;4a58&#45;b6af&#45;bf2b1e9fc8d2 -->
<g id="node23" class="node">
<title>ec46b7d3&#45;affc&#45;4a58&#45;b6af&#45;bf2b1e9fc8d2</title>
<ellipse fill="#0ee832" stroke="black" cx="1007" cy="-99.87" rx="167.67" ry="26.74"/>
<text text-anchor="middle" x="1007" y="-103.67" font-family="Helvetica,sans-Serif" font-size="14.00">✓ Create</text>
<text text-anchor="middle" x="1007" y="-88.67" font-family="Helvetica,sans-Serif" font-size="14.00">CI/CD pipeline configuration file</text>
</g>
<!-- 19234e28&#45;51ba&#45;44c4&#45;bb04&#45;6d8664af6275&#45;&gt;ec46b7d3&#45;affc&#45;4a58&#45;b6af&#45;bf2b1e9fc8d2 -->
<g id="edge17" class="edge">
<title>19234e28&#45;51ba&#45;44c4&#45;bb04&#45;6d8664af6275&#45;&gt;ec46b7d3&#45;affc&#45;4a58&#45;b6af&#45;bf2b1e9fc8d2</title>
<path fill="none" stroke="black" d="M1026.6,-177.52C1023.71,-166.22 1019.82,-151.01 1016.27,-137.12"/>
<polygon fill="black" stroke="black" points="1019.51,-136.66 1013.64,-127.84 1012.73,-138.39 1019.51,-136.66"/>
<text text-anchor="middle" x="1119.5" y="-148.54" font-family="Helvetica,sans-Serif" font-size="14.00">Additional changes required</text>
</g>
<!-- 48a839ec&#45;77b5&#45;4185&#45;bbc5&#45;edd69b858d20 -->
<g id="node24" class="node">
<title>48a839ec&#45;77b5&#45;4185&#45;bbc5&#45;edd69b858d20</title>
<ellipse fill="yellow" stroke="black" cx="1387" cy="-99.87" rx="167.67" ry="26.74"/>
<text text-anchor="middle" x="1387" y="-103.67" font-family="Helvetica,sans-Serif" font-size="14.00">⋯ Modify</text>
<text text-anchor="middle" x="1387" y="-88.67" font-family="Helvetica,sans-Serif" font-size="14.00">CI/CD pipeline configuration file</text>
</g>
<!-- e2d8c48a&#45;8191&#45;4eb2&#45;b84a&#45;fd9baa51b215&#45;&gt;48a839ec&#45;77b5&#45;4185&#45;bbc5&#45;edd69b858d20 -->
<g id="edge20" class="edge">
<title>e2d8c48a&#45;8191&#45;4eb2&#45;b84a&#45;fd9baa51b215&#45;&gt;48a839ec&#45;77b5&#45;4185&#45;bbc5&#45;edd69b858d20</title>
<path fill="none" stroke="black" d="M1377.2,-177.52C1378.63,-166.33 1380.55,-151.31 1382.31,-137.53"/>
<polygon fill="black" stroke="black" points="1385.88,-138.2 1383.68,-127.84 1378.94,-137.31 1385.88,-138.2"/>
<text text-anchor="middle" x="1479.5" y="-148.54" font-family="Helvetica,sans-Serif" font-size="14.00">Additional changes required</text>
</g>
<!-- 95a397a4&#45;07e2&#45;48ff&#45;bc4c&#45;e69267d0322f -->
<g id="node25" class="node">
<title>95a397a4&#45;07e2&#45;48ff&#45;bc4c&#45;e69267d0322f</title>
<polygon fill="#ee0000" stroke="black" points="380,-36 0,-36 0,0 380,0 380,-36"/>
<text text-anchor="middle" x="190" y="-14.3" font-family="Helvetica,sans-Serif" font-size="14.00">✗ Ran sandbox for `sweepai/handlers/on_ticket.py`.</text>
</g>
<!-- fb43e704&#45;8398&#45;4fab&#45;a423&#45;caf6360e255c&#45;&gt;95a397a4&#45;07e2&#45;48ff&#45;bc4c&#45;e69267d0322f -->
<g id="edge7" class="edge">
<title>fb43e704&#45;8398&#45;4fab&#45;a423&#45;caf6360e255c&#45;&gt;95a397a4&#45;07e2&#45;48ff&#45;bc4c&#45;e69267d0322f</title>
<path fill="none" stroke="black" stroke-dasharray="5,2" d="M190,-72.72C190,-64.46 190,-55.31 190,-46.93"/>
<polygon fill="black" stroke="black" points="193.5,-47.15 190,-37.15 186.5,-47.15 193.5,-47.15"/>
</g>
<!-- 26e78ab3&#45;f106&#45;4c89&#45;9655&#45;0ec6ff6f06a4 -->
<g id="node26" class="node">
<title>26e78ab3&#45;f106&#45;4c89&#45;9655&#45;0ec6ff6f06a4</title>
<polygon fill="#0ee832" stroke="black" points="1188.5,-36 797.5,-36 797.5,0 1188.5,0 1188.5,-36"/>
<text text-anchor="middle" x="993" y="-14.3" font-family="Helvetica,sans-Serif" font-size="14.00">✓ Ran sandbox for `CI/CD pipeline configuration file`.</text>
</g>
<!-- ec46b7d3&#45;affc&#45;4a58&#45;b6af&#45;bf2b1e9fc8d2&#45;&gt;26e78ab3&#45;f106&#45;4c89&#45;9655&#45;0ec6ff6f06a4 -->
<g id="edge18" class="edge">
<title>ec46b7d3&#45;affc&#45;4a58&#45;b6af&#45;bf2b1e9fc8d2&#45;&gt;26e78ab3&#45;f106&#45;4c89&#45;9655&#45;0ec6ff6f06a4</title>
<path fill="none" stroke="black" stroke-dasharray="5,2" d="M1002.42,-72.72C1000.97,-64.46 999.36,-55.31 997.9,-46.93"/>
<polygon fill="black" stroke="black" points="1001.18,-46.39 996.01,-37.15 994.28,-47.6 1001.18,-46.39"/>
</g>
<!-- 5a8a7608&#45;044a&#45;457f&#45;b2f4&#45;4a53b86504f6 -->
<g id="node27" class="node">
<title>5a8a7608&#45;044a&#45;457f&#45;b2f4&#45;4a53b86504f6</title>
<polygon fill="white" stroke="black" points="1595.5,-36 1206.5,-36 1206.5,0 1595.5,0 1595.5,-36"/>
<text text-anchor="middle" x="1401" y="-14.3" font-family="Helvetica,sans-Serif" font-size="14.00">▶ Ran sandbox for `CI/CD pipeline configuration file`.</text>
</g>
<!-- 48a839ec&#45;77b5&#45;4185&#45;bbc5&#45;edd69b858d20&#45;&gt;5a8a7608&#45;044a&#45;457f&#45;b2f4&#45;4a53b86504f6 -->
<g id="edge21" class="edge">
<title>48a839ec&#45;77b5&#45;4185&#45;bbc5&#45;edd69b858d20&#45;&gt;5a8a7608&#45;044a&#45;457f&#45;b2f4&#45;4a53b86504f6</title>
<path fill="none" stroke="black" stroke-dasharray="5,2" d="M1391.58,-72.72C1393.03,-64.46 1394.64,-55.31 1396.1,-46.93"/>
<polygon fill="black" stroke="black" points="1399.72,-47.6 1397.99,-37.15 1392.82,-46.39 1399.72,-47.6"/>
</g>
</g>
</svg>
