<?xml version="1.0" encoding="UTF-8" standalone="no"?>
<!DOCTYPE svg PUBLIC "-//W3C//DTD SVG 1.1//EN"
 "http://www.w3.org/Graphics/SVG/1.1/DTD/svg11.dtd">
<!-- Generated by graphviz version 2.43.0 (0)
 -->
<!-- Title: %3 Pages: 1 -->
<svg width="2398pt" height="240pt"
 viewBox="0.00 0.00 2398.00 239.74" xmlns="http://www.w3.org/2000/svg" xmlns:xlink="http://www.w3.org/1999/xlink">
<g id="graph0" class="graph" transform="scale(1 1) rotate(0) translate(36 203.74)">
<title>%3</title>
<polygon fill="white" stroke="transparent" points="-36,36 -36,-203.74 2362,-203.74 2362,36 -36,36"/>
<text text-anchor="middle" x="1163" y="-152.54" font-family="Times,serif" font-size="14.00">Sweep&#39;s Plan &amp; Progress</text>
<!-- start -->
<g id="node1" class="node">
<title>start</title>
</g>
<!-- 44268e5e&#45;b7ba&#45;4f49&#45;8562&#45;ca0da50cd37d -->
<g id="node3" class="node">
<title>44268e5e&#45;b7ba&#45;4f49&#45;8562&#45;ca0da50cd37d</title>
<ellipse fill="red" stroke="black" cx="1162.5" cy="-101.87" rx="194.41" ry="26.74"/>
<text text-anchor="middle" x="1162.5" y="-105.67" font-family="Times,serif" font-size="14.00">✗ Modify</text>
<text text-anchor="middle" x="1162.5" y="-90.67" font-family="Times,serif" font-size="14.00">sweepai/utils/comment_utils_test.py</text>
</g>
<!-- start&#45;&gt;44268e5e&#45;b7ba&#45;4f49&#45;8562&#45;ca0da50cd37d -->
<g id="edge9" class="edge">
<title>start&#45;&gt;44268e5e&#45;b7ba&#45;4f49&#45;8562&#45;ca0da50cd37d</title>
<path fill="none" stroke="black" d="M914.21,-101.87C917.78,-101.87 934.44,-101.87 957.57,-101.87"/>
<polygon fill="black" stroke="black" points="957.86,-105.37 967.86,-101.87 957.86,-98.37 957.86,-105.37"/>
<text text-anchor="middle" x="941.02" y="-108.67" font-family="Times,serif" font-size="14.00">Start</text>
</g>
<!-- end -->
<g id="node2" class="node">
<title>end</title>
</g>
<!-- 44268e5e&#45;b7ba&#45;4f49&#45;8562&#45;ca0da50cd37d&#45;&gt;end -->
<g id="edge10" class="edge">
<title>44268e5e&#45;b7ba&#45;4f49&#45;8562&#45;ca0da50cd37d&#45;&gt;end</title>
<path fill="none" stroke="black" d="M1356.96,-101.87C1379.14,-101.87 1397.73,-101.87 1408.73,-101.87"/>
<polygon fill="black" stroke="black" points="1408.81,-105.37 1418.81,-101.87 1408.81,-98.37 1408.81,-105.37"/>
<text text-anchor="middle" x="1387.98" y="-108.67" font-family="Times,serif" font-size="14.00">Finish</text>
</g>
<!-- 101e5dff&#45;c661&#45;40d9&#45;bb9b&#45;4fb7b0b5ea43 -->
<g id="node4" class="node">
<title>101e5dff&#45;c661&#45;40d9&#45;bb9b&#45;4fb7b0b5ea43</title>
<polygon fill="red" stroke="black" points="275,-38 0,-38 0,0 275,0 275,-38"/>
<text text-anchor="middle" x="137.5" y="-22.8" font-family="Times,serif" font-size="14.00">✗ Check</text>
<text text-anchor="middle" x="137.5" y="-7.8" font-family="Times,serif" font-size="14.00">sweepai/utils/comment_utils_test.py</text>
</g>
<!-- 44268e5e&#45;b7ba&#45;4f49&#45;8562&#45;ca0da50cd37d&#45;&gt;101e5dff&#45;c661&#45;40d9&#45;bb9b&#45;4fb7b0b5ea43 -->
<g id="edge1" class="edge">
<title>44268e5e&#45;b7ba&#45;4f49&#45;8562&#45;ca0da50cd37d&#45;&gt;101e5dff&#45;c661&#45;40d9&#45;bb9b&#45;4fb7b0b5ea43</title>
<path fill="none" stroke="black" stroke-dasharray="5,2" d="M1016.97,-84.01C985.83,-80.73 953.09,-77.53 922.5,-75 642.32,-51.8 568.54,-63.36 285.2,-38.12"/>
<polygon fill="black" stroke="black" points="285.3,-34.62 275.03,-37.21 284.67,-41.59 285.3,-34.62"/>
</g>
<!-- b5517287&#45;62a7&#45;42a3&#45;9220&#45;ff2054d58972 -->
<g id="node5" class="node">
<title>b5517287&#45;62a7&#45;42a3&#45;9220&#45;ff2054d58972</title>
<polygon fill="red" stroke="black" points="568,-38 293,-38 293,0 568,0 568,-38"/>
<text text-anchor="middle" x="430.5" y="-22.8" font-family="Times,serif" font-size="14.00">✗ Check</text>
<text text-anchor="middle" x="430.5" y="-7.8" font-family="Times,serif" font-size="14.00">sweepai/utils/comment_utils_test.py</text>
</g>
<!-- 44268e5e&#45;b7ba&#45;4f49&#45;8562&#45;ca0da50cd37d&#45;&gt;b5517287&#45;62a7&#45;42a3&#45;9220&#45;ff2054d58972 -->
<g id="edge2" class="edge">
<title>44268e5e&#45;b7ba&#45;4f49&#45;8562&#45;ca0da50cd37d&#45;&gt;b5517287&#45;62a7&#45;42a3&#45;9220&#45;ff2054d58972</title>
<path fill="none" stroke="black" stroke-dasharray="5,2" d="M1012.71,-84.7C982.83,-81.48 951.67,-78.13 922.5,-75 772.03,-58.85 731.85,-55.81 578.32,-38.2"/>
<polygon fill="black" stroke="black" points="578.38,-34.69 568.05,-37.02 577.58,-41.64 578.38,-34.69"/>
</g>
<!-- a8092f3d&#45;2e9e&#45;4a9b&#45;9a72&#45;9449cf8d0a78 -->
<g id="node6" class="node">
<title>a8092f3d&#45;2e9e&#45;4a9b&#45;9a72&#45;9449cf8d0a78</title>
<polygon fill="red" stroke="black" points="861,-38 586,-38 586,0 861,0 861,-38"/>
<text text-anchor="middle" x="723.5" y="-22.8" font-family="Times,serif" font-size="14.00">✗ Check</text>
<text text-anchor="middle" x="723.5" y="-7.8" font-family="Times,serif" font-size="14.00">sweepai/utils/comment_utils_test.py</text>
</g>
<!-- 44268e5e&#45;b7ba&#45;4f49&#45;8562&#45;ca0da50cd37d&#45;&gt;a8092f3d&#45;2e9e&#45;4a9b&#45;9a72&#45;9449cf8d0a78 -->
<g id="edge3" class="edge">
<title>44268e5e&#45;b7ba&#45;4f49&#45;8562&#45;ca0da50cd37d&#45;&gt;a8092f3d&#45;2e9e&#45;4a9b&#45;9a72&#45;9449cf8d0a78</title>
<path fill="none" stroke="black" stroke-dasharray="5,2" d="M1049.16,-79.99C982.1,-67.64 897.64,-52.08 831.53,-39.9"/>
<polygon fill="black" stroke="black" points="831.97,-36.42 821.5,-38.05 830.7,-43.31 831.97,-36.42"/>
</g>
<!-- 62091956&#45;87a2&#45;4a14&#45;822d&#45;0a831c5a93fc -->
<g id="node7" class="node">
<title>62091956&#45;87a2&#45;4a14&#45;822d&#45;0a831c5a93fc</title>
<polygon fill="red" stroke="black" points="1154,-38 879,-38 879,0 1154,0 1154,-38"/>
<text text-anchor="middle" x="1016.5" y="-22.8" font-family="Times,serif" font-size="14.00">✗ Check</text>
<text text-anchor="middle" x="1016.5" y="-7.8" font-family="Times,serif" font-size="14.00">sweepai/utils/comment_utils_test.py</text>
</g>
<!-- 44268e5e&#45;b7ba&#45;4f49&#45;8562&#45;ca0da50cd37d&#45;&gt;62091956&#45;87a2&#45;4a14&#45;822d&#45;0a831c5a93fc -->
<g id="edge4" class="edge">
<title>44268e5e&#45;b7ba&#45;4f49&#45;8562&#45;ca0da50cd37d&#45;&gt;62091956&#45;87a2&#45;4a14&#45;822d&#45;0a831c5a93fc</title>
<path fill="none" stroke="black" stroke-dasharray="5,2" d="M1117.11,-75.73C1098.26,-65.29 1076.53,-53.25 1058.1,-43.04"/>
<polygon fill="black" stroke="black" points="1059.79,-39.98 1049.35,-38.19 1056.4,-46.1 1059.79,-39.98"/>
</g>
<!-- 3b187acc&#45;eeae&#45;4eef&#45;bb27&#45;d85d776b2f7b -->
<g id="node8" class="node">
<title>3b187acc&#45;eeae&#45;4eef&#45;bb27&#45;d85d776b2f7b</title>
<polygon fill="red" stroke="black" points="1447,-38 1172,-38 1172,0 1447,0 1447,-38"/>
<text text-anchor="middle" x="1309.5" y="-22.8" font-family="Times,serif" font-size="14.00">✗ Check</text>
<text text-anchor="middle" x="1309.5" y="-7.8" font-family="Times,serif" font-size="14.00">sweepai/utils/comment_utils_test.py</text>
</g>
<!-- 44268e5e&#45;b7ba&#45;4f49&#45;8562&#45;ca0da50cd37d&#45;&gt;3b187acc&#45;eeae&#45;4eef&#45;bb27&#45;d85d776b2f7b -->
<g id="edge5" class="edge">
<title>44268e5e&#45;b7ba&#45;4f49&#45;8562&#45;ca0da50cd37d&#45;&gt;3b187acc&#45;eeae&#45;4eef&#45;bb27&#45;d85d776b2f7b</title>
<path fill="none" stroke="black" stroke-dasharray="5,2" d="M1208.21,-75.73C1227.18,-65.29 1249.06,-53.25 1267.61,-43.04"/>
<polygon fill="black" stroke="black" points="1269.35,-46.08 1276.43,-38.19 1265.98,-39.95 1269.35,-46.08"/>
</g>
<!-- dd7511dd&#45;febf&#45;4559&#45;8b59&#45;1b204579691a -->
<g id="node9" class="node">
<title>dd7511dd&#45;febf&#45;4559&#45;8b59&#45;1b204579691a</title>
<polygon fill="red" stroke="black" points="1740,-38 1465,-38 1465,0 1740,0 1740,-38"/>
<text text-anchor="middle" x="1602.5" y="-22.8" font-family="Times,serif" font-size="14.00">✗ Check</text>
<text text-anchor="middle" x="1602.5" y="-7.8" font-family="Times,serif" font-size="14.00">sweepai/utils/comment_utils_test.py</text>
</g>
<!-- 44268e5e&#45;b7ba&#45;4f49&#45;8562&#45;ca0da50cd37d&#45;&gt;dd7511dd&#45;febf&#45;4559&#45;8b59&#45;1b204579691a -->
<g id="edge6" class="edge">
<title>44268e5e&#45;b7ba&#45;4f49&#45;8562&#45;ca0da50cd37d&#45;&gt;dd7511dd&#45;febf&#45;4559&#45;8b59&#45;1b204579691a</title>
<path fill="none" stroke="black" stroke-dasharray="5,2" d="M1276.1,-79.99C1343.31,-67.64 1427.97,-52.08 1494.22,-39.9"/>
<polygon fill="black" stroke="black" points="1495.07,-43.3 1504.28,-38.05 1493.81,-36.42 1495.07,-43.3"/>
</g>
<!-- 842fee69&#45;0e81&#45;4eaa&#45;af03&#45;a30ddb57702f -->
<g id="node10" class="node">
<title>842fee69&#45;0e81&#45;4eaa&#45;af03&#45;a30ddb57702f</title>
<polygon fill="red" stroke="black" points="2033,-38 1758,-38 1758,0 2033,0 2033,-38"/>
<text text-anchor="middle" x="1895.5" y="-22.8" font-family="Times,serif" font-size="14.00">✗ Check</text>
<text text-anchor="middle" x="1895.5" y="-7.8" font-family="Times,serif" font-size="14.00">sweepai/utils/comment_utils_test.py</text>
</g>
<!-- 44268e5e&#45;b7ba&#45;4f49&#45;8562&#45;ca0da50cd37d&#45;&gt;842fee69&#45;0e81&#45;4eaa&#45;af03&#45;a30ddb57702f -->
<g id="edge7" class="edge">
<title>44268e5e&#45;b7ba&#45;4f49&#45;8562&#45;ca0da50cd37d&#45;&gt;842fee69&#45;0e81&#45;4eaa&#45;af03&#45;a30ddb57702f</title>
<path fill="none" stroke="black" stroke-dasharray="5,2" d="M1313.61,-84.92C1453.51,-70.1 1652.59,-48.89 1747.81,-38.07"/>
<polygon fill="black" stroke="black" points="1748.25,-41.54 1757.79,-36.93 1747.46,-34.58 1748.25,-41.54"/>
</g>
<!-- 1894c55b&#45;a5fb&#45;4fd9&#45;bee3&#45;a6d763091273 -->
<g id="node11" class="node">
<title>1894c55b&#45;a5fb&#45;4fd9&#45;bee3&#45;a6d763091273</title>
<polygon fill="yellow" stroke="black" points="2326,-38 2051,-38 2051,0 2326,0 2326,-38"/>
<text text-anchor="middle" x="2188.5" y="-22.8" font-family="Times,serif" font-size="14.00">⋯ Check</text>
<text text-anchor="middle" x="2188.5" y="-7.8" font-family="Times,serif" font-size="14.00">sweepai/utils/comment_utils_test.py</text>
</g>
<!-- 44268e5e&#45;b7ba&#45;4f49&#45;8562&#45;ca0da50cd37d&#45;&gt;1894c55b&#45;a5fb&#45;4fd9&#45;bee3&#45;a6d763091273 -->
<g id="edge8" class="edge">
<title>44268e5e&#45;b7ba&#45;4f49&#45;8562&#45;ca0da50cd37d&#45;&gt;1894c55b&#45;a5fb&#45;4fd9&#45;bee3&#45;a6d763091273</title>
<path fill="none" stroke="black" stroke-dasharray="5,2" d="M1309.99,-84.3C1342.72,-80.94 1377.27,-77.63 1409.5,-75 1686.65,-52.39 1759.57,-63.08 2040.72,-38.03"/>
<polygon fill="black" stroke="black" points="2041.17,-41.51 2050.81,-37.13 2040.54,-34.54 2041.17,-41.51"/>
</g>
</g>
</svg>
