<?xml version="1.0" encoding="UTF-8" standalone="no"?>
<!DOCTYPE svg PUBLIC "-//W3C//DTD SVG 1.1//EN"
 "http://www.w3.org/Graphics/SVG/1.1/DTD/svg11.dtd">
<!-- Generated by graphviz version 2.43.0 (0)
 -->
<!-- Title: %3 Pages: 1 -->
<svg width="1478pt" height="238pt"
 viewBox="0.00 0.00 1477.50 237.74" xmlns="http://www.w3.org/2000/svg" xmlns:xlink="http://www.w3.org/1999/xlink">
<g id="graph0" class="graph" transform="scale(1 1) rotate(0) translate(36 201.74)">
<title>%3</title>
<polygon fill="dimgray" stroke="transparent" points="-36,36 -36,-201.74 1441.5,-201.74 1441.5,36 -36,36"/>
<text text-anchor="middle" x="702.75" y="-150.54" font-family="Helvetica,sans-Serif" font-size="14.00">Sweep&#39;s Plan &amp; Progress</text>
<!-- start -->
<g id="node1" class="node">
<title>start</title>
</g>
<!-- 67756d06&#45;6d52&#45;4c68&#45;8111&#45;1ef74f6a09ee -->
<g id="node3" class="node">
<title>67756d06&#45;6d52&#45;4c68&#45;8111&#45;1ef74f6a09ee</title>
<ellipse fill="#0ee832" stroke="black" cx="272" cy="-99.87" rx="195.74" ry="26.74"/>
<text text-anchor="middle" x="272" y="-103.67" font-family="Helvetica,sans-Serif" font-size="14.00">✓ Create</text>
<text text-anchor="middle" x="272" y="-88.67" font-family="Helvetica,sans-Serif" font-size="14.00">sweepai/agents/query_filter_agent.py</text>
</g>
<!-- start&#45;&gt;67756d06&#45;6d52&#45;4c68&#45;8111&#45;1ef74f6a09ee -->
<g id="edge6" class="edge">
<title>start&#45;&gt;67756d06&#45;6d52&#45;4c68&#45;8111&#45;1ef74f6a09ee</title>
<path fill="none" stroke="black" d="M24.71,-99.87C28.16,-99.87 43.91,-99.87 65.91,-99.87"/>
<polygon fill="black" stroke="black" points="66.07,-103.37 76.07,-99.87 66.07,-96.37 66.07,-103.37"/>
<text text-anchor="middle" x="50.32" y="-106.67" font-family="Helvetica,sans-Serif" font-size="14.00">Start</text>
</g>
<!-- end -->
<g id="node2" class="node">
<title>end</title>
</g>
<!-- e42d898e&#45;d125&#45;4cb2&#45;876a&#45;671bf69f2619 -->
<g id="node4" class="node">
<title>e42d898e&#45;d125&#45;4cb2&#45;876a&#45;671bf69f2619</title>
<ellipse fill="white" stroke="black" cx="687" cy="-99.87" rx="145.83" ry="26.74"/>
<text text-anchor="middle" x="687" y="-103.67" font-family="Helvetica,sans-Serif" font-size="14.00">▶ Modify</text>
<text text-anchor="middle" x="687" y="-88.67" font-family="Helvetica,sans-Serif" font-size="14.00">sweepai/utils/ticket_utils.py</text>
</g>
<!-- 67756d06&#45;6d52&#45;4c68&#45;8111&#45;1ef74f6a09ee&#45;&gt;e42d898e&#45;d125&#45;4cb2&#45;876a&#45;671bf69f2619 -->
<g id="edge2" class="edge">
<title>67756d06&#45;6d52&#45;4c68&#45;8111&#45;1ef74f6a09ee&#45;&gt;e42d898e&#45;d125&#45;4cb2&#45;876a&#45;671bf69f2619</title>
<path fill="none" stroke="black" d="M468.15,-99.87C489.09,-99.87 510.03,-99.87 530.97,-99.87"/>
<polygon fill="black" stroke="black" points="531.24,-103.37 541.24,-99.87 531.24,-96.37 531.24,-103.37"/>
</g>
<!-- b5cdd7be&#45;086e&#45;4c54&#45;9fb8&#45;fb881f7072bd -->
<g id="node6" class="node">
<title>b5cdd7be&#45;086e&#45;4c54&#45;9fb8&#45;fb881f7072bd</title>
<polygon fill="#0ee832" stroke="black" points="470,-36 0,-36 0,0 470,0 470,-36"/>
<text text-anchor="middle" x="235" y="-14.3" font-family="Helvetica,sans-Serif" font-size="14.00">✓ Run GitHub Actions for `sweepai/agents/query_filter_agent.py`</text>
</g>
<!-- 67756d06&#45;6d52&#45;4c68&#45;8111&#45;1ef74f6a09ee&#45;&gt;b5cdd7be&#45;086e&#45;4c54&#45;9fb8&#45;fb881f7072bd -->
<g id="edge1" class="edge">
<title>67756d06&#45;6d52&#45;4c68&#45;8111&#45;1ef74f6a09ee&#45;&gt;b5cdd7be&#45;086e&#45;4c54&#45;9fb8&#45;fb881f7072bd</title>
<path fill="none" stroke="black" stroke-dasharray="5,2" d="M259.88,-72.72C255.8,-63.9 251.24,-54.05 247.15,-45.23"/>
<polygon fill="black" stroke="black" points="250.32,-43.75 242.94,-36.15 243.97,-46.69 250.32,-43.75"/>
</g>
<!-- f6cce74a&#45;dccf&#45;460f&#45;b78f&#45;d8822e64321c -->
<g id="node5" class="node">
<title>f6cce74a&#45;dccf&#45;460f&#45;b78f&#45;d8822e64321c</title>
<ellipse fill="white" stroke="black" cx="1121" cy="-99.87" rx="219.41" ry="26.74"/>
<text text-anchor="middle" x="1121" y="-103.67" font-family="Helvetica,sans-Serif" font-size="14.00">▶ Create</text>
<text text-anchor="middle" x="1121" y="-88.67" font-family="Helvetica,sans-Serif" font-size="14.00">sweepai/agents/query_filter_agent_test.py</text>
</g>
<!-- e42d898e&#45;d125&#45;4cb2&#45;876a&#45;671bf69f2619&#45;&gt;f6cce74a&#45;dccf&#45;460f&#45;b78f&#45;d8822e64321c -->
<g id="edge4" class="edge">
<title>e42d898e&#45;d125&#45;4cb2&#45;876a&#45;671bf69f2619&#45;&gt;f6cce74a&#45;dccf&#45;460f&#45;b78f&#45;d8822e64321c</title>
<path fill="none" stroke="black" d="M832.8,-99.87C852.37,-99.87 871.94,-99.87 891.52,-99.87"/>
<polygon fill="black" stroke="black" points="891.75,-103.37 901.75,-99.87 891.75,-96.37 891.75,-103.37"/>
</g>
<!-- 76700335&#45;983b&#45;4983&#45;8f80&#45;9b3da632494f -->
<g id="node7" class="node">
<title>76700335&#45;983b&#45;4983&#45;8f80&#45;9b3da632494f</title>
<polygon fill="white" stroke="black" points="886,-36 488,-36 488,0 886,0 886,-36"/>
<text text-anchor="middle" x="687" y="-14.3" font-family="Helvetica,sans-Serif" font-size="14.00">▶ Run GitHub Actions for `sweepai/utils/ticket_utils.py`</text>
</g>
<!-- e42d898e&#45;d125&#45;4cb2&#45;876a&#45;671bf69f2619&#45;&gt;76700335&#45;983b&#45;4983&#45;8f80&#45;9b3da632494f -->
<g id="edge3" class="edge">
<title>e42d898e&#45;d125&#45;4cb2&#45;876a&#45;671bf69f2619&#45;&gt;76700335&#45;983b&#45;4983&#45;8f80&#45;9b3da632494f</title>
<path fill="none" stroke="black" stroke-dasharray="5,2" d="M687,-72.72C687,-64.27 687,-54.89 687,-46.36"/>
<polygon fill="black" stroke="black" points="690.5,-46.15 687,-36.15 683.5,-46.15 690.5,-46.15"/>
</g>
<!-- f6cce74a&#45;dccf&#45;460f&#45;b78f&#45;d8822e64321c&#45;&gt;end -->
<g id="edge7" class="edge">
<title>f6cce74a&#45;dccf&#45;460f&#45;b78f&#45;d8822e64321c&#45;&gt;end</title>
<path fill="none" stroke="black" d="M1340.27,-99.87C1360.37,-99.87 1376.98,-99.87 1387.14,-99.87"/>
<polygon fill="black" stroke="black" points="1387.38,-103.37 1397.38,-99.87 1387.38,-96.37 1387.38,-103.37"/>
<text text-anchor="middle" x="1368.85" y="-106.67" font-family="Helvetica,sans-Serif" font-size="14.00">Finish</text>
</g>
<!-- 0beec6ff&#45;4ded&#45;47ee&#45;b59e&#45;8bb25b777177 -->
<g id="node8" class="node">
<title>0beec6ff&#45;4ded&#45;47ee&#45;b59e&#45;8bb25b777177</title>
<polygon fill="white" stroke="black" points="1405.5,-36 904.5,-36 904.5,0 1405.5,0 1405.5,-36"/>
<text text-anchor="middle" x="1155" y="-14.3" font-family="Helvetica,sans-Serif" font-size="14.00">▶ Run GitHub Actions for `sweepai/agents/query_filter_agent_test.py`</text>
</g>
<!-- f6cce74a&#45;dccf&#45;460f&#45;b78f&#45;d8822e64321c&#45;&gt;0beec6ff&#45;4ded&#45;47ee&#45;b59e&#45;8bb25b777177 -->
<g id="edge5" class="edge">
<title>f6cce74a&#45;dccf&#45;460f&#45;b78f&#45;d8822e64321c&#45;&gt;0beec6ff&#45;4ded&#45;47ee&#45;b59e&#45;8bb25b777177</title>
<path fill="none" stroke="black" stroke-dasharray="5,2" d="M1132.13,-72.72C1135.85,-63.99 1139.99,-54.26 1143.71,-45.51"/>
<polygon fill="black" stroke="black" points="1147,-46.72 1147.7,-36.15 1140.56,-43.98 1147,-46.72"/>
</g>
</g>
</svg>
