<?xml version="1.0" encoding="UTF-8" standalone="no"?>
<!DOCTYPE svg PUBLIC "-//W3C//DTD SVG 1.1//EN"
 "http://www.w3.org/Graphics/SVG/1.1/DTD/svg11.dtd">
<!-- Generated by graphviz version 2.43.0 (0)
 -->
<!-- Title: %3 Pages: 1 -->
<svg width="911pt" height="238pt"
 viewBox="0.00 0.00 911.00 237.74" xmlns="http://www.w3.org/2000/svg" xmlns:xlink="http://www.w3.org/1999/xlink">
<g id="graph0" class="graph" transform="scale(1 1) rotate(0) translate(36 201.74)">
<title>%3</title>
<polygon fill="dimgray" stroke="transparent" points="-36,36 -36,-201.74 875,-201.74 875,36 -36,36"/>
<text text-anchor="middle" x="419.5" y="-150.54" font-family="Helvetica,sans-Serif" font-size="14.00">Sweep&#39;s Plan &amp; Progress</text>
<!-- start -->
<g id="node1" class="node">
<title>start</title>
</g>
<!-- a8fd86ea&#45;8704&#45;4209&#45;ad1c&#45;148e977446f4 -->
<g id="node3" class="node">
<title>a8fd86ea&#45;8704&#45;4209&#45;ad1c&#45;148e977446f4</title>
<ellipse fill="yellow" stroke="black" cx="248.5" cy="-99.87" rx="195.74" ry="26.74"/>
<text text-anchor="middle" x="248.5" y="-103.67" font-family="Helvetica,sans-Serif" font-size="14.00">⋯ Create</text>
<text text-anchor="middle" x="248.5" y="-88.67" font-family="Helvetica,sans-Serif" font-size="14.00">sweepai/agents/query_filter_agent.py</text>
</g>
<!-- start&#45;&gt;a8fd86ea&#45;8704&#45;4209&#45;ad1c&#45;148e977446f4 -->
<g id="edge4" class="edge">
<title>start&#45;&gt;a8fd86ea&#45;8704&#45;4209&#45;ad1c&#45;148e977446f4</title>
<path fill="none" stroke="black" d="M1.21,-99.87C4.66,-99.87 20.41,-99.87 42.41,-99.87"/>
<polygon fill="black" stroke="black" points="42.57,-103.37 52.57,-99.87 42.57,-96.37 42.57,-103.37"/>
<text text-anchor="middle" x="26.82" y="-106.67" font-family="Helvetica,sans-Serif" font-size="14.00">Start</text>
</g>
<!-- end -->
<g id="node2" class="node">
<title>end</title>
</g>
<!-- 8a3559d3&#45;80d1&#45;4a72&#45;9c1e&#45;8fedb3d6280c -->
<g id="node4" class="node">
<title>8a3559d3&#45;80d1&#45;4a72&#45;9c1e&#45;8fedb3d6280c</title>
<ellipse fill="white" stroke="black" cx="634.5" cy="-99.87" rx="145.83" ry="26.74"/>
<text text-anchor="middle" x="634.5" y="-103.67" font-family="Helvetica,sans-Serif" font-size="14.00">▶ Modify</text>
<text text-anchor="middle" x="634.5" y="-88.67" font-family="Helvetica,sans-Serif" font-size="14.00">sweepai/utils/ticket_utils.py</text>
</g>
<!-- a8fd86ea&#45;8704&#45;4209&#45;ad1c&#45;148e977446f4&#45;&gt;8a3559d3&#45;80d1&#45;4a72&#45;9c1e&#45;8fedb3d6280c -->
<g id="edge2" class="edge">
<title>a8fd86ea&#45;8704&#45;4209&#45;ad1c&#45;148e977446f4&#45;&gt;8a3559d3&#45;80d1&#45;4a72&#45;9c1e&#45;8fedb3d6280c</title>
<path fill="none" stroke="black" d="M444.52,-99.87C455.9,-99.87 467.28,-99.87 478.67,-99.87"/>
<polygon fill="black" stroke="black" points="478.67,-103.37 488.67,-99.87 478.67,-96.37 478.67,-103.37"/>
</g>
<!-- 497f8ea4&#45;5ef9&#45;49cb&#45;aed0&#45;f541862e4d07 -->
<g id="node5" class="node">
<title>497f8ea4&#45;5ef9&#45;49cb&#45;aed0&#45;f541862e4d07</title>
<polygon fill="white" stroke="black" points="446,-36 17,-36 17,0 446,0 446,-36"/>
<text text-anchor="middle" x="231.5" y="-14.3" font-family="Helvetica,sans-Serif" font-size="14.00">▶ Ran sandbox for `sweepai/agents/query_filter_agent.py`.</text>
</g>
<!-- a8fd86ea&#45;8704&#45;4209&#45;ad1c&#45;148e977446f4&#45;&gt;497f8ea4&#45;5ef9&#45;49cb&#45;aed0&#45;f541862e4d07 -->
<g id="edge1" class="edge">
<title>a8fd86ea&#45;8704&#45;4209&#45;ad1c&#45;148e977446f4&#45;&gt;497f8ea4&#45;5ef9&#45;49cb&#45;aed0&#45;f541862e4d07</title>
<path fill="none" stroke="black" stroke-dasharray="5,2" d="M242.93,-72.72C241.12,-64.18 239.09,-54.68 237.26,-46.08"/>
<polygon fill="black" stroke="black" points="240.65,-45.2 235.15,-36.15 233.81,-46.66 240.65,-45.2"/>
</g>
<!-- 8a3559d3&#45;80d1&#45;4a72&#45;9c1e&#45;8fedb3d6280c&#45;&gt;end -->
<g id="edge5" class="edge">
<title>8a3559d3&#45;80d1&#45;4a72&#45;9c1e&#45;8fedb3d6280c&#45;&gt;end</title>
<path fill="none" stroke="black" d="M780.31,-99.87C800.07,-99.87 817.12,-99.87 827.57,-99.87"/>
<polygon fill="black" stroke="black" points="827.85,-103.37 837.85,-99.87 827.85,-96.37 827.85,-103.37"/>
<text text-anchor="middle" x="809.08" y="-106.67" font-family="Helvetica,sans-Serif" font-size="14.00">Finish</text>
</g>
<!-- 43ade4d2&#45;5f90&#45;4f87&#45;bbb4&#45;564db704902a -->
<g id="node6" class="node">
<title>43ade4d2&#45;5f90&#45;4f87&#45;bbb4&#45;564db704902a</title>
<polygon fill="white" stroke="black" points="823,-36 464,-36 464,0 823,0 823,-36"/>
<text text-anchor="middle" x="643.5" y="-14.3" font-family="Helvetica,sans-Serif" font-size="14.00">▶ Ran sandbox for `sweepai/utils/ticket_utils.py`.</text>
</g>
<!-- 8a3559d3&#45;80d1&#45;4a72&#45;9c1e&#45;8fedb3d6280c&#45;&gt;43ade4d2&#45;5f90&#45;4f87&#45;bbb4&#45;564db704902a -->
<g id="edge3" class="edge">
<title>8a3559d3&#45;80d1&#45;4a72&#45;9c1e&#45;8fedb3d6280c&#45;&gt;43ade4d2&#45;5f90&#45;4f87&#45;bbb4&#45;564db704902a</title>
<path fill="none" stroke="black" stroke-dasharray="5,2" d="M637.45,-72.72C638.4,-64.27 639.46,-54.89 640.42,-46.36"/>
<polygon fill="black" stroke="black" points="643.93,-46.48 641.57,-36.15 636.97,-45.69 643.93,-46.48"/>
</g>
</g>
</svg>
