<?xml version="1.0" encoding="UTF-8" standalone="no"?>
<!DOCTYPE svg PUBLIC "-//W3C//DTD SVG 1.1//EN"
 "http://www.w3.org/Graphics/SVG/1.1/DTD/svg11.dtd">
<!-- Generated by graphviz version 8.0.3 (0)
 -->
<!-- Pages: 1 -->
<svg width="1382pt" height="238pt"
 viewBox="0.00 0.00 1382.00 237.74" xmlns="http://www.w3.org/2000/svg" xmlns:xlink="http://www.w3.org/1999/xlink">
<g id="graph0" class="graph" transform="scale(1 1) rotate(0) translate(36 201.74)">
<polygon fill="dimgray" stroke="none" points="-36,36 -36,-201.74 1346,-201.74 1346,36 -36,36"/>
<text text-anchor="middle" x="655" y="-150.54" font-family="Helvetica,sans-Serif" font-size="14.00">Sweep&#39;s Plan &amp; Progress</text>
<!-- start -->
<g id="node1" class="node">
<title>start</title>
</g>
<!-- 606a06ae&#45;e1a5&#45;467f&#45;bffd&#45;e0e0260776e9 -->
<g id="node3" class="node">
<title>606a06ae&#45;e1a5&#45;467f&#45;bffd&#45;e0e0260776e9</title>
<ellipse fill="#0ee832" stroke="black" cx="247" cy="-99.87" rx="162.77" ry="26.74"/>
<text text-anchor="middle" x="247" y="-103.67" font-family="Helvetica,sans-Serif" font-size="14.00">✓ Create</text>
<text text-anchor="middle" x="247" y="-88.67" font-family="Helvetica,sans-Serif" font-size="14.00">sweepai/agents/filter_agent.py</text>
</g>
<!-- start&#45;&gt;606a06ae&#45;e1a5&#45;467f&#45;bffd&#45;e0e0260776e9 -->
<g id="edge6" class="edge">
<title>start&#45;&gt;606a06ae&#45;e1a5&#45;467f&#45;bffd&#45;e0e0260776e9</title>
<path fill="none" stroke="black" d="M32.16,-99.87C33.9,-99.87 50.09,-99.87 72.88,-99.87"/>
<polygon fill="black" stroke="black" points="72.79,-103.37 82.79,-99.87 72.79,-96.37 72.79,-103.37"/>
<text text-anchor="middle" x="58.43" y="-106.67" font-family="Helvetica,sans-Serif" font-size="14.00">Start</text>
</g>
<!-- end -->
<g id="node2" class="node">
<title>end</title>
</g>
<!-- b7f6e9df&#45;82ca&#45;436f&#45;a270&#45;2311387768c3 -->
<g id="node4" class="node">
<title>b7f6e9df&#45;82ca&#45;436f&#45;a270&#45;2311387768c3</title>
<ellipse fill="white" stroke="black" cx="667" cy="-99.87" rx="185.94" ry="26.74"/>
<text text-anchor="middle" x="667" y="-103.67" font-family="Helvetica,sans-Serif" font-size="14.00">▶ Create</text>
<text text-anchor="middle" x="667" y="-88.67" font-family="Helvetica,sans-Serif" font-size="14.00">sweepai/agents/filter_agent_test.py</text>
</g>
<!-- 606a06ae&#45;e1a5&#45;467f&#45;bffd&#45;e0e0260776e9&#45;&gt;b7f6e9df&#45;82ca&#45;436f&#45;a270&#45;2311387768c3 -->
<g id="edge2" class="edge">
<title>606a06ae&#45;e1a5&#45;467f&#45;bffd&#45;e0e0260776e9&#45;&gt;b7f6e9df&#45;82ca&#45;436f&#45;a270&#45;2311387768c3</title>
<path fill="none" stroke="black" d="M410.24,-99.87C430.15,-99.87 450.06,-99.87 469.97,-99.87"/>
<polygon fill="black" stroke="black" points="469.7,-103.37 479.7,-99.87 469.7,-96.37 469.7,-103.37"/>
</g>
<!-- c885f329&#45;9547&#45;4873&#45;aeed&#45;c2ed9b32882b -->
<g id="node6" class="node">
<title>c885f329&#45;9547&#45;4873&#45;aeed&#45;c2ed9b32882b</title>
<polygon fill="#0ee832" stroke="black" points="422,-36 0,-36 0,0 422,0 422,-36"/>
<text text-anchor="middle" x="211" y="-14.3" font-family="Helvetica,sans-Serif" font-size="14.00">✓ Run GitHub Actions for `sweepai/agents/filter_agent.py`</text>
</g>
<!-- 606a06ae&#45;e1a5&#45;467f&#45;bffd&#45;e0e0260776e9&#45;&gt;c885f329&#45;9547&#45;4873&#45;aeed&#45;c2ed9b32882b -->
<g id="edge1" class="edge">
<title>606a06ae&#45;e1a5&#45;467f&#45;bffd&#45;e0e0260776e9&#45;&gt;c885f329&#45;9547&#45;4873&#45;aeed&#45;c2ed9b32882b</title>
<path fill="none" stroke="black" stroke-dasharray="5,2" d="M235.21,-72.72C231.36,-64.18 227.08,-54.68 223.2,-46.08"/>
<polygon fill="black" stroke="black" points="226.03,-44.82 218.73,-37.15 219.65,-47.7 226.03,-44.82"/>
</g>
<!-- 4c7987b5&#45;ebd0&#45;4ffa&#45;91a5&#45;300cb8d6c06d -->
<g id="node5" class="node">
<title>4c7987b5&#45;ebd0&#45;4ffa&#45;91a5&#45;300cb8d6c06d</title>
<ellipse fill="white" stroke="black" cx="1073" cy="-99.87" rx="145.83" ry="26.74"/>
<text text-anchor="middle" x="1073" y="-103.67" font-family="Helvetica,sans-Serif" font-size="14.00">▶ Modify</text>
<text text-anchor="middle" x="1073" y="-88.67" font-family="Helvetica,sans-Serif" font-size="14.00">sweepai/utils/ticket_utils.py</text>
</g>
<!-- b7f6e9df&#45;82ca&#45;436f&#45;a270&#45;2311387768c3&#45;&gt;4c7987b5&#45;ebd0&#45;4ffa&#45;91a5&#45;300cb8d6c06d -->
<g id="edge4" class="edge">
<title>b7f6e9df&#45;82ca&#45;436f&#45;a270&#45;2311387768c3&#45;&gt;4c7987b5&#45;ebd0&#45;4ffa&#45;91a5&#45;300cb8d6c06d</title>
<path fill="none" stroke="black" d="M853.35,-99.87C874.17,-99.87 894.99,-99.87 915.82,-99.87"/>
<polygon fill="black" stroke="black" points="915.71,-103.37 925.71,-99.87 915.71,-96.37 915.71,-103.37"/>
</g>
<!-- 093f742b&#45;79c3&#45;4da0&#45;aa8e&#45;6b9f05d97877 -->
<g id="node7" class="node">
<title>093f742b&#45;79c3&#45;4da0&#45;aa8e&#45;6b9f05d97877</title>
<polygon fill="white" stroke="black" points="894,-36 440,-36 440,0 894,0 894,-36"/>
<text text-anchor="middle" x="667" y="-14.3" font-family="Helvetica,sans-Serif" font-size="14.00">▶ Run GitHub Actions for `sweepai/agents/filter_agent_test.py`</text>
</g>
<!-- b7f6e9df&#45;82ca&#45;436f&#45;a270&#45;2311387768c3&#45;&gt;093f742b&#45;79c3&#45;4da0&#45;aa8e&#45;6b9f05d97877 -->
<g id="edge3" class="edge">
<title>b7f6e9df&#45;82ca&#45;436f&#45;a270&#45;2311387768c3&#45;&gt;093f742b&#45;79c3&#45;4da0&#45;aa8e&#45;6b9f05d97877</title>
<path fill="none" stroke="black" stroke-dasharray="5,2" d="M667,-72.72C667,-64.46 667,-55.31 667,-46.93"/>
<polygon fill="black" stroke="black" points="670.5,-47.15 667,-37.15 663.5,-47.15 670.5,-47.15"/>
</g>
<!-- 4c7987b5&#45;ebd0&#45;4ffa&#45;91a5&#45;300cb8d6c06d&#45;&gt;end -->
<g id="edge7" class="edge">
<title>4c7987b5&#45;ebd0&#45;4ffa&#45;91a5&#45;300cb8d6c06d&#45;&gt;end</title>
<path fill="none" stroke="black" d="M1219.09,-99.87C1238.73,-99.87 1255.66,-99.87 1266.06,-99.87"/>
<polygon fill="black" stroke="black" points="1265.71,-103.37 1275.71,-99.87 1265.71,-96.37 1265.71,-103.37"/>
<text text-anchor="middle" x="1247.58" y="-106.67" font-family="Helvetica,sans-Serif" font-size="14.00">Finish</text>
</g>
<!-- d9069d68&#45;ce3d&#45;41d7&#45;8c75&#45;44bf3acd82b9 -->
<g id="node8" class="node">
<title>d9069d68&#45;ce3d&#45;41d7&#45;8c75&#45;44bf3acd82b9</title>
<polygon fill="white" stroke="black" points="1310,-36 912,-36 912,0 1310,0 1310,-36"/>
<text text-anchor="middle" x="1111" y="-14.3" font-family="Helvetica,sans-Serif" font-size="14.00">▶ Run GitHub Actions for `sweepai/utils/ticket_utils.py`</text>
</g>
<!-- 4c7987b5&#45;ebd0&#45;4ffa&#45;91a5&#45;300cb8d6c06d&#45;&gt;d9069d68&#45;ce3d&#45;41d7&#45;8c75&#45;44bf3acd82b9 -->
<g id="edge5" class="edge">
<title>4c7987b5&#45;ebd0&#45;4ffa&#45;91a5&#45;300cb8d6c06d&#45;&gt;d9069d68&#45;ce3d&#45;41d7&#45;8c75&#45;44bf3acd82b9</title>
<path fill="none" stroke="black" stroke-dasharray="5,2" d="M1085.23,-73.16C1089.35,-64.51 1093.95,-54.83 1098.12,-46.07"/>
<polygon fill="black" stroke="black" points="1101.62,-47.87 1102.75,-37.34 1095.29,-44.86 1101.62,-47.87"/>
</g>
</g>
</svg>
