<?xml version="1.0" encoding="UTF-8" standalone="no"?>
<!DOCTYPE svg PUBLIC "-//W3C//DTD SVG 1.1//EN"
 "http://www.w3.org/Graphics/SVG/1.1/DTD/svg11.dtd">
<!-- Generated by graphviz version 2.43.0 (0)
 -->
<!-- Title: %3 Pages: 1 -->
<svg width="421pt" height="238pt"
 viewBox="0.00 0.00 421.00 237.74" xmlns="http://www.w3.org/2000/svg" xmlns:xlink="http://www.w3.org/1999/xlink">
<g id="graph0" class="graph" transform="scale(1 1) rotate(0) translate(36 201.74)">
<title>%3</title>
<polygon fill="dimgray" stroke="transparent" points="-36,36 -36,-201.74 385,-201.74 385,36 -36,36"/>
<text text-anchor="middle" x="174.5" y="-150.54" font-family="Helvetica,sans-Serif" font-size="14.00">Sweep&#39;s Plan &amp; Progress</text>
<!-- start -->
<g id="node1" class="node">
<title>start</title>
</g>
<!-- 5a25de51&#45;b81a&#45;47f3&#45;8b3f&#45;12f77c717155 -->
<g id="node3" class="node">
<title>5a25de51&#45;b81a&#45;47f3&#45;8b3f&#45;12f77c717155</title>
<ellipse fill="#0ee832" stroke="black" cx="174.5" cy="-99.87" rx="110.12" ry="26.74"/>
<text text-anchor="middle" x="174.5" y="-103.67" font-family="Helvetica,sans-Serif" font-size="14.00">✓ Modify</text>
<text text-anchor="middle" x="174.5" y="-88.67" font-family="Helvetica,sans-Serif" font-size="14.00">docs/installation.md</text>
</g>
<!-- start&#45;&gt;5a25de51&#45;b81a&#45;47f3&#45;8b3f&#45;12f77c717155 -->
<g id="edge2" class="edge">
<title>start&#45;&gt;5a25de51&#45;b81a&#45;47f3&#45;8b3f&#45;12f77c717155</title>
<path fill="none" stroke="black" d="M13.22,-99.87C16.77,-99.87 33.02,-99.87 53.93,-99.87"/>
<polygon fill="black" stroke="black" points="54.19,-103.37 64.19,-99.87 54.19,-96.37 54.19,-103.37"/>
<text text-anchor="middle" x="38.6" y="-106.67" font-family="Helvetica,sans-Serif" font-size="14.00">Start</text>
</g>
<!-- end -->
<g id="node2" class="node">
<title>end</title>
</g>
<!-- 5a25de51&#45;b81a&#45;47f3&#45;8b3f&#45;12f77c717155&#45;&gt;end -->
<g id="edge3" class="edge">
<title>5a25de51&#45;b81a&#45;47f3&#45;8b3f&#45;12f77c717155&#45;&gt;end</title>
<path fill="none" stroke="black" d="M285.15,-99.87C304.08,-99.87 321,-99.87 331.47,-99.87"/>
<polygon fill="black" stroke="black" points="331.83,-103.37 341.83,-99.87 331.83,-96.37 331.83,-103.37"/>
<text text-anchor="middle" x="313.4" y="-106.67" font-family="Helvetica,sans-Serif" font-size="14.00">Finish</text>
</g>
<!-- 335141c5&#45;3cde&#45;4da3&#45;8b7f&#45;3310cbd86295 -->
<g id="node4" class="node">
<title>335141c5&#45;3cde&#45;4da3&#45;8b7f&#45;3310cbd86295</title>
<polygon fill="#0ee832" stroke="black" points="349,-36 0,-36 0,0 349,0 349,-36"/>
<text text-anchor="middle" x="174.5" y="-14.3" font-family="Helvetica,sans-Serif" font-size="14.00">✓ Run GitHub Actions for `docs/installation.md`</text>
</g>
<!-- 5a25de51&#45;b81a&#45;47f3&#45;8b3f&#45;12f77c717155&#45;&gt;335141c5&#45;3cde&#45;4da3&#45;8b7f&#45;3310cbd86295 -->
<g id="edge1" class="edge">
<title>5a25de51&#45;b81a&#45;47f3&#45;8b3f&#45;12f77c717155&#45;&gt;335141c5&#45;3cde&#45;4da3&#45;8b7f&#45;3310cbd86295</title>
<path fill="none" stroke="black" stroke-dasharray="5,2" d="M174.5,-72.72C174.5,-64.27 174.5,-54.89 174.5,-46.36"/>
<polygon fill="black" stroke="black" points="178,-46.15 174.5,-36.15 171,-46.15 178,-46.15"/>
</g>
</g>
</svg>
