<?xml version="1.0" encoding="UTF-8" standalone="no"?>
<!DOCTYPE svg PUBLIC "-//W3C//DTD SVG 1.1//EN"
 "http://www.w3.org/Graphics/SVG/1.1/DTD/svg11.dtd">
<!-- Generated by graphviz version 2.43.0 (0)
 -->
<!-- Title: %3 Pages: 1 -->
<svg width="1478pt" height="238pt"
 viewBox="0.00 0.00 1478.00 237.74" xmlns="http://www.w3.org/2000/svg" xmlns:xlink="http://www.w3.org/1999/xlink">
<g id="graph0" class="graph" transform="scale(1 1) rotate(0) translate(36 201.74)">
<title>%3</title>
<polygon fill="dimgray" stroke="transparent" points="-36,36 -36,-201.74 1442,-201.74 1442,36 -36,36"/>
<text text-anchor="middle" x="703" y="-150.54" font-family="Helvetica,sans-Serif" font-size="14.00">Sweep&#39;s Plan &amp; Progress</text>
<!-- start -->
<g id="node1" class="node">
<title>start</title>
</g>
<!-- 829670a0&#45;bd71&#45;4222&#45;9a77&#45;83dcbc11a830 -->
<g id="node3" class="node">
<title>829670a0&#45;bd71&#45;4222&#45;9a77&#45;83dcbc11a830</title>
<ellipse fill="#0ee832" stroke="black" cx="261" cy="-99.87" rx="195.74" ry="26.74"/>
<text text-anchor="middle" x="261" y="-103.67" font-family="Helvetica,sans-Serif" font-size="14.00">✓ Create</text>
<text text-anchor="middle" x="261" y="-88.67" font-family="Helvetica,sans-Serif" font-size="14.00">sweepai/agents/query_filter_agent.py</text>
</g>
<!-- start&#45;&gt;829670a0&#45;bd71&#45;4222&#45;9a77&#45;83dcbc11a830 -->
<g id="edge6" class="edge">
<title>start&#45;&gt;829670a0&#45;bd71&#45;4222&#45;9a77&#45;83dcbc11a830</title>
<path fill="none" stroke="black" d="M13.71,-99.87C17.16,-99.87 32.91,-99.87 54.91,-99.87"/>
<polygon fill="black" stroke="black" points="55.07,-103.37 65.07,-99.87 55.07,-96.37 55.07,-103.37"/>
<text text-anchor="middle" x="39.32" y="-106.67" font-family="Helvetica,sans-Serif" font-size="14.00">Start</text>
</g>
<!-- end -->
<g id="node2" class="node">
<title>end</title>
</g>
<!-- cfbf79ca&#45;7f47&#45;4495&#45;84f8&#45;32f4e43ab7a8 -->
<g id="node4" class="node">
<title>cfbf79ca&#45;7f47&#45;4495&#45;84f8&#45;32f4e43ab7a8</title>
<ellipse fill="white" stroke="black" cx="739" cy="-99.87" rx="219.41" ry="26.74"/>
<text text-anchor="middle" x="739" y="-103.67" font-family="Helvetica,sans-Serif" font-size="14.00">▶ Create</text>
<text text-anchor="middle" x="739" y="-88.67" font-family="Helvetica,sans-Serif" font-size="14.00">sweepai/agents/test_query_filter_agent.py</text>
</g>
<!-- 829670a0&#45;bd71&#45;4222&#45;9a77&#45;83dcbc11a830&#45;&gt;cfbf79ca&#45;7f47&#45;4495&#45;84f8&#45;32f4e43ab7a8 -->
<g id="edge2" class="edge">
<title>829670a0&#45;bd71&#45;4222&#45;9a77&#45;83dcbc11a830&#45;&gt;cfbf79ca&#45;7f47&#45;4495&#45;84f8&#45;32f4e43ab7a8</title>
<path fill="none" stroke="black" d="M457.05,-99.87C474.47,-99.87 491.89,-99.87 509.3,-99.87"/>
<polygon fill="black" stroke="black" points="509.56,-103.37 519.56,-99.87 509.56,-96.37 509.56,-103.37"/>
</g>
<!-- 8da552bd&#45;781c&#45;40e1&#45;8957&#45;7809e4ccfcf1 -->
<g id="node6" class="node">
<title>8da552bd&#45;781c&#45;40e1&#45;8957&#45;7809e4ccfcf1</title>
<polygon fill="#0ee832" stroke="black" points="470,-36 0,-36 0,0 470,0 470,-36"/>
<text text-anchor="middle" x="235" y="-14.3" font-family="Helvetica,sans-Serif" font-size="14.00">✓ Run GitHub Actions for `sweepai/agents/query_filter_agent.py`</text>
</g>
<!-- 829670a0&#45;bd71&#45;4222&#45;9a77&#45;83dcbc11a830&#45;&gt;8da552bd&#45;781c&#45;40e1&#45;8957&#45;7809e4ccfcf1 -->
<g id="edge1" class="edge">
<title>829670a0&#45;bd71&#45;4222&#45;9a77&#45;83dcbc11a830&#45;&gt;8da552bd&#45;781c&#45;40e1&#45;8957&#45;7809e4ccfcf1</title>
<path fill="none" stroke="black" stroke-dasharray="5,2" d="M252.49,-72.72C249.68,-64.08 246.55,-54.47 243.72,-45.79"/>
<polygon fill="black" stroke="black" points="247.01,-44.57 240.58,-36.15 240.35,-46.74 247.01,-44.57"/>
</g>
<!-- dea46a3a&#45;988d&#45;4211&#45;b1fa&#45;47d4cdc25031 -->
<g id="node5" class="node">
<title>dea46a3a&#45;988d&#45;4211&#45;b1fa&#45;47d4cdc25031</title>
<ellipse fill="white" stroke="black" cx="1173" cy="-99.87" rx="145.83" ry="26.74"/>
<text text-anchor="middle" x="1173" y="-103.67" font-family="Helvetica,sans-Serif" font-size="14.00">▶ Modify</text>
<text text-anchor="middle" x="1173" y="-88.67" font-family="Helvetica,sans-Serif" font-size="14.00">sweepai/utils/ticket_utils.py</text>
</g>
<!-- cfbf79ca&#45;7f47&#45;4495&#45;84f8&#45;32f4e43ab7a8&#45;&gt;dea46a3a&#45;988d&#45;4211&#45;b1fa&#45;47d4cdc25031 -->
<g id="edge4" class="edge">
<title>cfbf79ca&#45;7f47&#45;4495&#45;84f8&#45;32f4e43ab7a8&#45;&gt;dea46a3a&#45;988d&#45;4211&#45;b1fa&#45;47d4cdc25031</title>
<path fill="none" stroke="black" d="M958.54,-99.87C978.04,-99.87 997.54,-99.87 1017.04,-99.87"/>
<polygon fill="black" stroke="black" points="1017.24,-103.37 1027.24,-99.87 1017.24,-96.37 1017.24,-103.37"/>
</g>
<!-- 52f5df5e&#45;7620&#45;4c90&#45;b176&#45;e21b4e86267f -->
<g id="node7" class="node">
<title>52f5df5e&#45;7620&#45;4c90&#45;b176&#45;e21b4e86267f</title>
<polygon fill="white" stroke="black" points="989.5,-36 488.5,-36 488.5,0 989.5,0 989.5,-36"/>
<text text-anchor="middle" x="739" y="-14.3" font-family="Helvetica,sans-Serif" font-size="14.00">▶ Run GitHub Actions for `sweepai/agents/test_query_filter_agent.py`</text>
</g>
<!-- cfbf79ca&#45;7f47&#45;4495&#45;84f8&#45;32f4e43ab7a8&#45;&gt;52f5df5e&#45;7620&#45;4c90&#45;b176&#45;e21b4e86267f -->
<g id="edge3" class="edge">
<title>cfbf79ca&#45;7f47&#45;4495&#45;84f8&#45;32f4e43ab7a8&#45;&gt;52f5df5e&#45;7620&#45;4c90&#45;b176&#45;e21b4e86267f</title>
<path fill="none" stroke="black" stroke-dasharray="5,2" d="M739,-72.72C739,-64.27 739,-54.89 739,-46.36"/>
<polygon fill="black" stroke="black" points="742.5,-46.15 739,-36.15 735.5,-46.15 742.5,-46.15"/>
</g>
<!-- dea46a3a&#45;988d&#45;4211&#45;b1fa&#45;47d4cdc25031&#45;&gt;end -->
<g id="edge7" class="edge">
<title>dea46a3a&#45;988d&#45;4211&#45;b1fa&#45;47d4cdc25031&#45;&gt;end</title>
<path fill="none" stroke="black" d="M1318.81,-99.87C1338.57,-99.87 1355.62,-99.87 1366.07,-99.87"/>
<polygon fill="black" stroke="black" points="1366.35,-103.37 1376.35,-99.87 1366.35,-96.37 1366.35,-103.37"/>
<text text-anchor="middle" x="1347.58" y="-106.67" font-family="Helvetica,sans-Serif" font-size="14.00">Finish</text>
</g>
<!-- fbe6e392&#45;ff8b&#45;4a52&#45;b9ad&#45;32af9ba53667 -->
<g id="node8" class="node">
<title>fbe6e392&#45;ff8b&#45;4a52&#45;b9ad&#45;32af9ba53667</title>
<polygon fill="white" stroke="black" points="1406,-36 1008,-36 1008,0 1406,0 1406,-36"/>
<text text-anchor="middle" x="1207" y="-14.3" font-family="Helvetica,sans-Serif" font-size="14.00">▶ Run GitHub Actions for `sweepai/utils/ticket_utils.py`</text>
</g>
<!-- dea46a3a&#45;988d&#45;4211&#45;b1fa&#45;47d4cdc25031&#45;&gt;fbe6e392&#45;ff8b&#45;4a52&#45;b9ad&#45;32af9ba53667 -->
<g id="edge5" class="edge">
<title>dea46a3a&#45;988d&#45;4211&#45;b1fa&#45;47d4cdc25031&#45;&gt;fbe6e392&#45;ff8b&#45;4a52&#45;b9ad&#45;32af9ba53667</title>
<path fill="none" stroke="black" stroke-dasharray="5,2" d="M1184.13,-72.72C1187.85,-63.99 1191.99,-54.26 1195.71,-45.51"/>
<polygon fill="black" stroke="black" points="1199,-46.72 1199.7,-36.15 1192.56,-43.98 1199,-46.72"/>
</g>
</g>
</svg>
