<?xml version="1.0" encoding="UTF-8" standalone="no"?>
<!DOCTYPE svg PUBLIC "-//W3C//DTD SVG 1.1//EN"
 "http://www.w3.org/Graphics/SVG/1.1/DTD/svg11.dtd">
<!-- Generated by graphviz version 8.0.3 (0)
 -->
<!-- Pages: 1 -->
<svg width="549pt" height="238pt"
 viewBox="0.00 0.00 549.00 237.74" xmlns="http://www.w3.org/2000/svg" xmlns:xlink="http://www.w3.org/1999/xlink">
<g id="graph0" class="graph" transform="scale(1 1) rotate(0) translate(36 201.74)">
<polygon fill="dimgray" stroke="none" points="-36,36 -36,-201.74 513,-201.74 513,36 -36,36"/>
<text text-anchor="middle" x="238.5" y="-150.54" font-family="Helvetica,sans-Serif" font-size="14.00">Sweep&#39;s Plan &amp; Progress</text>
<!-- start -->
<g id="node1" class="node">
<title>start</title>
</g>
<!-- b93300f9&#45;c765&#45;49b2&#45;b797&#45;e572036172c6 -->
<g id="node3" class="node">
<title>b93300f9&#45;c765&#45;49b2&#45;b797&#45;e572036172c6</title>
<ellipse fill="#0ee832" stroke="black" cx="235.5" cy="-99.87" rx="183.28" ry="26.74"/>
<text text-anchor="middle" x="235.5" y="-103.67" font-family="Helvetica,sans-Serif" font-size="14.00">✓ Modify</text>
<text text-anchor="middle" x="235.5" y="-88.67" font-family="Helvetica,sans-Serif" font-size="14.00">sweepai/core/repo_parsing_utils.py</text>
</g>
<!-- start&#45;&gt;b93300f9&#45;c765&#45;49b2&#45;b797&#45;e572036172c6 -->
<g id="edge2" class="edge">
<title>start&#45;&gt;b93300f9&#45;c765&#45;49b2&#45;b797&#45;e572036172c6</title>
<path fill="none" stroke="black" d="M0.88,-99.87C3.47,-99.87 19,-99.87 40.94,-99.87"/>
<polygon fill="black" stroke="black" points="40.83,-103.37 50.83,-99.87 40.83,-96.37 40.83,-103.37"/>
<text text-anchor="middle" x="26.68" y="-106.67" font-family="Helvetica,sans-Serif" font-size="14.00">Start</text>
</g>
<!-- end -->
<g id="node2" class="node">
<title>end</title>
</g>
<!-- b93300f9&#45;c765&#45;49b2&#45;b797&#45;e572036172c6&#45;&gt;end -->
<g id="edge3" class="edge">
<title>b93300f9&#45;c765&#45;49b2&#45;b797&#45;e572036172c6&#45;&gt;end</title>
<path fill="none" stroke="black" d="M419.08,-99.87C438.74,-99.87 455.28,-99.87 465.49,-99.87"/>
<polygon fill="black" stroke="black" points="465.22,-103.37 475.22,-99.87 465.22,-96.37 465.22,-103.37"/>
<text text-anchor="middle" x="447.32" y="-106.67" font-family="Helvetica,sans-Serif" font-size="14.00">Finish</text>
</g>
<!-- 1e8aba0e&#45;7b88&#45;475b&#45;b9be&#45;973248b2030c -->
<g id="node4" class="node">
<title>1e8aba0e&#45;7b88&#45;475b&#45;b9be&#45;973248b2030c</title>
<polygon fill="#0ee832" stroke="black" points="461.5,-36 9.5,-36 9.5,0 461.5,0 461.5,-36"/>
<text text-anchor="middle" x="235.5" y="-14.3" font-family="Helvetica,sans-Serif" font-size="14.00">✓ Run GitHub Actions for `sweepai/core/repo_parsing_utils.py`</text>
</g>
<!-- b93300f9&#45;c765&#45;49b2&#45;b797&#45;e572036172c6&#45;&gt;1e8aba0e&#45;7b88&#45;475b&#45;b9be&#45;973248b2030c -->
<g id="edge1" class="edge">
<title>b93300f9&#45;c765&#45;49b2&#45;b797&#45;e572036172c6&#45;&gt;1e8aba0e&#45;7b88&#45;475b&#45;b9be&#45;973248b2030c</title>
<path fill="none" stroke="black" stroke-dasharray="5,2" d="M235.5,-72.72C235.5,-64.46 235.5,-55.31 235.5,-46.93"/>
<polygon fill="black" stroke="black" points="239,-47.15 235.5,-37.15 232,-47.15 239,-47.15"/>
</g>
</g>
</svg>
