<?xml version="1.0" encoding="UTF-8" standalone="no"?>
<!DOCTYPE svg PUBLIC "-//W3C//DTD SVG 1.1//EN"
 "http://www.w3.org/Graphics/SVG/1.1/DTD/svg11.dtd">
<!-- Generated by graphviz version 2.43.0 (0)
 -->
<!-- Title: %3 Pages: 1 -->
<svg width="1684pt" height="238pt"
 viewBox="0.00 0.00 1684.00 237.74" xmlns="http://www.w3.org/2000/svg" xmlns:xlink="http://www.w3.org/1999/xlink">
<g id="graph0" class="graph" transform="scale(1 1) rotate(0) translate(36 201.74)">
<title>%3</title>
<polygon fill="dimgray" stroke="transparent" points="-36,36 -36,-201.74 1648,-201.74 1648,36 -36,36"/>
<text text-anchor="middle" x="806" y="-150.54" font-family="Helvetica,sans-Serif" font-size="14.00">Sweep&#39;s Plan &amp; Progress</text>
<!-- start -->
<g id="node1" class="node">
<title>start</title>
</g>
<!-- f72be58b&#45;1079&#45;4c24&#45;83cb&#45;f13bb396b209 -->
<g id="node3" class="node">
<title>f72be58b&#45;1079&#45;4c24&#45;83cb&#45;f13bb396b209</title>
<ellipse fill="yellow" stroke="black" cx="232.5" cy="-99.87" rx="179.71" ry="26.74"/>
<text text-anchor="middle" x="232.5" y="-103.67" font-family="Helvetica,sans-Serif" font-size="14.00">⋯ Modify</text>
<text text-anchor="middle" x="232.5" y="-88.67" font-family="Helvetica,sans-Serif" font-size="14.00">sweepai/handlers/on_comment.py</text>
</g>
<!-- start&#45;&gt;f72be58b&#45;1079&#45;4c24&#45;83cb&#45;f13bb396b209 -->
<g id="edge8" class="edge">
<title>start&#45;&gt;f72be58b&#45;1079&#45;4c24&#45;83cb&#45;f13bb396b209</title>
<path fill="none" stroke="black" d="M1.17,-99.87C4.55,-99.87 20.52,-99.87 42.62,-99.87"/>
<polygon fill="black" stroke="black" points="42.82,-103.37 52.82,-99.87 42.82,-96.37 42.82,-103.37"/>
<text text-anchor="middle" x="26.95" y="-106.67" font-family="Helvetica,sans-Serif" font-size="14.00">Start</text>
</g>
<!-- end -->
<g id="node2" class="node">
<title>end</title>
</g>
<!-- a357cd21&#45;df21&#45;4037&#45;a1b1&#45;66ccb7842f5b -->
<g id="node4" class="node">
<title>a357cd21&#45;df21&#45;4037&#45;a1b1&#45;66ccb7842f5b</title>
<ellipse fill="white" stroke="black" cx="625.5" cy="-99.87" rx="159.61" ry="26.74"/>
<text text-anchor="middle" x="625.5" y="-103.67" font-family="Helvetica,sans-Serif" font-size="14.00">▶ Modify</text>
<text text-anchor="middle" x="625.5" y="-88.67" font-family="Helvetica,sans-Serif" font-size="14.00">sweepai/handlers/on_ticket.py</text>
</g>
<!-- f72be58b&#45;1079&#45;4c24&#45;83cb&#45;f13bb396b209&#45;&gt;a357cd21&#45;df21&#45;4037&#45;a1b1&#45;66ccb7842f5b -->
<g id="edge2" class="edge">
<title>f72be58b&#45;1079&#45;4c24&#45;83cb&#45;f13bb396b209&#45;&gt;a357cd21&#45;df21&#45;4037&#45;a1b1&#45;66ccb7842f5b</title>
<path fill="none" stroke="black" d="M412.11,-99.87C426.56,-99.87 441.01,-99.87 455.46,-99.87"/>
<polygon fill="black" stroke="black" points="455.46,-103.37 465.46,-99.87 455.46,-96.37 455.46,-103.37"/>
</g>
<!-- a87bebe1&#45;f627&#45;41e4&#45;9efb&#45;49bde450afdc -->
<g id="node7" class="node">
<title>a87bebe1&#45;f627&#45;41e4&#45;9efb&#45;49bde450afdc</title>
<polygon fill="white" stroke="black" points="418.5,-36 12.5,-36 12.5,0 418.5,0 418.5,-36"/>
<text text-anchor="middle" x="215.5" y="-14.3" font-family="Helvetica,sans-Serif" font-size="14.00">▶ Ran sandbox for `sweepai/handlers/on_comment.py`.</text>
</g>
<!-- f72be58b&#45;1079&#45;4c24&#45;83cb&#45;f13bb396b209&#45;&gt;a87bebe1&#45;f627&#45;41e4&#45;9efb&#45;49bde450afdc -->
<g id="edge1" class="edge">
<title>f72be58b&#45;1079&#45;4c24&#45;83cb&#45;f13bb396b209&#45;&gt;a87bebe1&#45;f627&#45;41e4&#45;9efb&#45;49bde450afdc</title>
<path fill="none" stroke="black" stroke-dasharray="5,2" d="M226.93,-72.72C225.12,-64.18 223.09,-54.68 221.26,-46.08"/>
<polygon fill="black" stroke="black" points="224.65,-45.2 219.15,-36.15 217.81,-46.66 224.65,-45.2"/>
</g>
<!-- ede76a57&#45;c14f&#45;496f&#45;8ace&#45;8509d36e1f0a -->
<g id="node5" class="node">
<title>ede76a57&#45;c14f&#45;496f&#45;8ace&#45;8509d36e1f0a</title>
<ellipse fill="white" stroke="black" cx="1012.5" cy="-99.87" rx="145.83" ry="26.74"/>
<text text-anchor="middle" x="1012.5" y="-103.67" font-family="Helvetica,sans-Serif" font-size="14.00">▶ Modify</text>
<text text-anchor="middle" x="1012.5" y="-88.67" font-family="Helvetica,sans-Serif" font-size="14.00">sweepai/core/sweep_bot.py</text>
</g>
<!-- a357cd21&#45;df21&#45;4037&#45;a1b1&#45;66ccb7842f5b&#45;&gt;ede76a57&#45;c14f&#45;496f&#45;8ace&#45;8509d36e1f0a -->
<g id="edge4" class="edge">
<title>a357cd21&#45;df21&#45;4037&#45;a1b1&#45;66ccb7842f5b&#45;&gt;ede76a57&#45;c14f&#45;496f&#45;8ace&#45;8509d36e1f0a</title>
<path fill="none" stroke="black" d="M785.36,-99.87C809.04,-99.87 832.72,-99.87 856.4,-99.87"/>
<polygon fill="black" stroke="black" points="856.55,-103.37 866.55,-99.87 856.55,-96.37 856.55,-103.37"/>
</g>
<!-- c61b6839&#45;cff3&#45;465b&#45;aa55&#45;f5223c4337d1 -->
<g id="node8" class="node">
<title>c61b6839&#45;cff3&#45;465b&#45;aa55&#45;f5223c4337d1</title>
<polygon fill="white" stroke="black" points="814.5,-36 436.5,-36 436.5,0 814.5,0 814.5,-36"/>
<text text-anchor="middle" x="625.5" y="-14.3" font-family="Helvetica,sans-Serif" font-size="14.00">▶ Ran sandbox for `sweepai/handlers/on_ticket.py`.</text>
</g>
<!-- a357cd21&#45;df21&#45;4037&#45;a1b1&#45;66ccb7842f5b&#45;&gt;c61b6839&#45;cff3&#45;465b&#45;aa55&#45;f5223c4337d1 -->
<g id="edge3" class="edge">
<title>a357cd21&#45;df21&#45;4037&#45;a1b1&#45;66ccb7842f5b&#45;&gt;c61b6839&#45;cff3&#45;465b&#45;aa55&#45;f5223c4337d1</title>
<path fill="none" stroke="black" stroke-dasharray="5,2" d="M625.5,-72.72C625.5,-64.27 625.5,-54.89 625.5,-46.36"/>
<polygon fill="black" stroke="black" points="629,-46.15 625.5,-36.15 622,-46.15 629,-46.15"/>
</g>
<!-- e9d10c05&#45;39af&#45;40cf&#45;814b&#45;e941fedb183e -->
<g id="node6" class="node">
<title>e9d10c05&#45;39af&#45;40cf&#45;814b&#45;e941fedb183e</title>
<ellipse fill="white" stroke="black" cx="1384.5" cy="-99.87" rx="169" ry="26.74"/>
<text text-anchor="middle" x="1384.5" y="-103.67" font-family="Helvetica,sans-Serif" font-size="14.00">▶ Create</text>
<text text-anchor="middle" x="1384.5" y="-88.67" font-family="Helvetica,sans-Serif" font-size="14.00">sweepai/core/sweep_bot_test.py</text>
</g>
<!-- ede76a57&#45;c14f&#45;496f&#45;8ace&#45;8509d36e1f0a&#45;&gt;e9d10c05&#45;39af&#45;40cf&#45;814b&#45;e941fedb183e -->
<g id="edge6" class="edge">
<title>ede76a57&#45;c14f&#45;496f&#45;8ace&#45;8509d36e1f0a&#45;&gt;e9d10c05&#45;39af&#45;40cf&#45;814b&#45;e941fedb183e</title>
<path fill="none" stroke="black" d="M1158.18,-99.87C1173.77,-99.87 1189.36,-99.87 1204.95,-99.87"/>
<polygon fill="black" stroke="black" points="1205.2,-103.37 1215.2,-99.87 1205.2,-96.37 1205.2,-103.37"/>
</g>
<!-- 216edf46&#45;9677&#45;4d91&#45;abd0&#45;8d3afa8ee17a -->
<g id="node9" class="node">
<title>216edf46&#45;9677&#45;4d91&#45;abd0&#45;8d3afa8ee17a</title>
<polygon fill="white" stroke="black" points="1192,-36 833,-36 833,0 1192,0 1192,-36"/>
<text text-anchor="middle" x="1012.5" y="-14.3" font-family="Helvetica,sans-Serif" font-size="14.00">▶ Ran sandbox for `sweepai/core/sweep_bot.py`.</text>
</g>
<!-- ede76a57&#45;c14f&#45;496f&#45;8ace&#45;8509d36e1f0a&#45;&gt;216edf46&#45;9677&#45;4d91&#45;abd0&#45;8d3afa8ee17a -->
<g id="edge5" class="edge">
<title>ede76a57&#45;c14f&#45;496f&#45;8ace&#45;8509d36e1f0a&#45;&gt;216edf46&#45;9677&#45;4d91&#45;abd0&#45;8d3afa8ee17a</title>
<path fill="none" stroke="black" stroke-dasharray="5,2" d="M1012.5,-72.72C1012.5,-64.27 1012.5,-54.89 1012.5,-46.36"/>
<polygon fill="black" stroke="black" points="1016,-46.15 1012.5,-36.15 1009,-46.15 1016,-46.15"/>
</g>
<!-- e9d10c05&#45;39af&#45;40cf&#45;814b&#45;e941fedb183e&#45;&gt;end -->
<g id="edge9" class="edge">
<title>e9d10c05&#45;39af&#45;40cf&#45;814b&#45;e941fedb183e&#45;&gt;end</title>
<path fill="none" stroke="black" d="M1553.63,-99.87C1573.57,-99.87 1590.47,-99.87 1600.77,-99.87"/>
<polygon fill="black" stroke="black" points="1600.86,-103.37 1610.86,-99.87 1600.86,-96.37 1600.86,-103.37"/>
<text text-anchor="middle" x="1582.25" y="-106.67" font-family="Helvetica,sans-Serif" font-size="14.00">Finish</text>
</g>
<!-- aef4e22a&#45;7e47&#45;4c57&#45;8f2e&#45;871becf79ce3 -->
<g id="node10" class="node">
<title>aef4e22a&#45;7e47&#45;4c57&#45;8f2e&#45;871becf79ce3</title>
<polygon fill="white" stroke="black" points="1602.5,-36 1210.5,-36 1210.5,0 1602.5,0 1602.5,-36"/>
<text text-anchor="middle" x="1406.5" y="-14.3" font-family="Helvetica,sans-Serif" font-size="14.00">▶ Ran sandbox for `sweepai/core/sweep_bot_test.py`.</text>
</g>
<!-- e9d10c05&#45;39af&#45;40cf&#45;814b&#45;e941fedb183e&#45;&gt;aef4e22a&#45;7e47&#45;4c57&#45;8f2e&#45;871becf79ce3 -->
<g id="edge7" class="edge">
<title>e9d10c05&#45;39af&#45;40cf&#45;814b&#45;e941fedb183e&#45;&gt;aef4e22a&#45;7e47&#45;4c57&#45;8f2e&#45;871becf79ce3</title>
<path fill="none" stroke="black" stroke-dasharray="5,2" d="M1391.7,-72.72C1394.08,-64.08 1396.73,-54.47 1399.12,-45.79"/>
<polygon fill="black" stroke="black" points="1402.5,-46.72 1401.78,-36.15 1395.75,-44.86 1402.5,-46.72"/>
</g>
</g>
</svg>
