<?xml version="1.0" encoding="UTF-8" standalone="no"?>
<!DOCTYPE svg PUBLIC "-//W3C//DTD SVG 1.1//EN"
 "http://www.w3.org/Graphics/SVG/1.1/DTD/svg11.dtd">
<!-- Generated by graphviz version 2.43.0 (0)
 -->
<!-- Title: %3 Pages: 1 -->
<svg width="477pt" height="238pt"
 viewBox="0.00 0.00 477.00 237.74" xmlns="http://www.w3.org/2000/svg" xmlns:xlink="http://www.w3.org/1999/xlink">
<g id="graph0" class="graph" transform="scale(1 1) rotate(0) translate(36 201.74)">
<title>%3</title>
<polygon fill="dimgray" stroke="transparent" points="-36,36 -36,-201.74 441,-201.74 441,36 -36,36"/>
<text text-anchor="middle" x="202.5" y="-150.54" font-family="Helvetica,sans-Serif" font-size="14.00">Sweep&#39;s Plan &amp; Progress</text>
<!-- start -->
<g id="node1" class="node">
<title>start</title>
</g>
<!-- a12758ab&#45;d9cb&#45;4c39&#45;a7ca&#45;d1d3253c1524 -->
<g id="node3" class="node">
<title>a12758ab&#45;d9cb&#45;4c39&#45;a7ca&#45;d1d3253c1524</title>
<ellipse fill="#0ee832" stroke="black" cx="200.5" cy="-99.87" rx="145.83" ry="26.74"/>
<text text-anchor="middle" x="200.5" y="-103.67" font-family="Helvetica,sans-Serif" font-size="14.00">✓ Modify</text>
<text text-anchor="middle" x="200.5" y="-88.67" font-family="Helvetica,sans-Serif" font-size="14.00">sweepai/utils/ticket_utils.py</text>
</g>
<!-- start&#45;&gt;a12758ab&#45;d9cb&#45;4c39&#45;a7ca&#45;d1d3253c1524 -->
<g id="edge2" class="edge">
<title>start&#45;&gt;a12758ab&#45;d9cb&#45;4c39&#45;a7ca&#45;d1d3253c1524</title>
<path fill="none" stroke="black" d="M3.07,-99.87C6.26,-99.87 22.6,-99.87 44.63,-99.87"/>
<polygon fill="black" stroke="black" points="44.76,-103.37 54.76,-99.87 44.76,-96.37 44.76,-103.37"/>
<text text-anchor="middle" x="28.92" y="-106.67" font-family="Helvetica,sans-Serif" font-size="14.00">Start</text>
</g>
<!-- end -->
<g id="node2" class="node">
<title>end</title>
</g>
<!-- a12758ab&#45;d9cb&#45;4c39&#45;a7ca&#45;d1d3253c1524&#45;&gt;end -->
<g id="edge3" class="edge">
<title>a12758ab&#45;d9cb&#45;4c39&#45;a7ca&#45;d1d3253c1524&#45;&gt;end</title>
<path fill="none" stroke="black" d="M346.31,-99.87C366.07,-99.87 383.12,-99.87 393.57,-99.87"/>
<polygon fill="black" stroke="black" points="393.85,-103.37 403.85,-99.87 393.85,-96.37 393.85,-103.37"/>
<text text-anchor="middle" x="375.08" y="-106.67" font-family="Helvetica,sans-Serif" font-size="14.00">Finish</text>
</g>
<!-- 3cc19d56&#45;eb26&#45;4bd1&#45;9f40&#45;51bb6ce80dab -->
<g id="node4" class="node">
<title>3cc19d56&#45;eb26&#45;4bd1&#45;9f40&#45;51bb6ce80dab</title>
<polygon fill="yellow" stroke="black" points="401,-36 0,-36 0,0 401,0 401,-36"/>
<text text-anchor="middle" x="200.5" y="-14.3" font-family="Helvetica,sans-Serif" font-size="14.00">⋯ Run GitHub Actions for `sweepai/utils/ticket_utils.py`</text>
</g>
<!-- a12758ab&#45;d9cb&#45;4c39&#45;a7ca&#45;d1d3253c1524&#45;&gt;3cc19d56&#45;eb26&#45;4bd1&#45;9f40&#45;51bb6ce80dab -->
<g id="edge1" class="edge">
<title>a12758ab&#45;d9cb&#45;4c39&#45;a7ca&#45;d1d3253c1524&#45;&gt;3cc19d56&#45;eb26&#45;4bd1&#45;9f40&#45;51bb6ce80dab</title>
<path fill="none" stroke="black" stroke-dasharray="5,2" d="M200.5,-72.72C200.5,-64.27 200.5,-54.89 200.5,-46.36"/>
<polygon fill="black" stroke="black" points="204,-46.15 200.5,-36.15 197,-46.15 204,-46.15"/>
</g>
</g>
</svg>
