<?xml version="1.0" encoding="UTF-8" standalone="no"?>
<!DOCTYPE svg PUBLIC "-//W3C//DTD SVG 1.1//EN"
 "http://www.w3.org/Graphics/SVG/1.1/DTD/svg11.dtd">
<!-- Generated by graphviz version 8.0.3 (0)
 -->
<!-- Pages: 1 -->
<svg width="1197pt" height="238pt"
 viewBox="0.00 0.00 1196.50 237.74" xmlns="http://www.w3.org/2000/svg" xmlns:xlink="http://www.w3.org/1999/xlink">
<g id="graph0" class="graph" transform="scale(1 1) rotate(0) translate(36 201.74)">
<polygon fill="dimgray" stroke="none" points="-36,36 -36,-201.74 1160.5,-201.74 1160.5,36 -36,36"/>
<text text-anchor="middle" x="562.25" y="-150.54" font-family="Helvetica,sans-Serif" font-size="14.00">Sweep&#39;s Plan &amp; Progress</text>
<!-- start -->
<g id="node1" class="node">
<title>start</title>
</g>
<!-- ce2a221c&#45;81cc&#45;480e&#45;a896&#45;46e4fd638eab -->
<g id="node3" class="node">
<title>ce2a221c&#45;81cc&#45;480e&#45;a896&#45;46e4fd638eab</title>
<ellipse fill="#0ee832" stroke="black" cx="237.5" cy="-99.87" rx="128.89" ry="26.74"/>
<text text-anchor="middle" x="237.5" y="-103.67" font-family="Helvetica,sans-Serif" font-size="14.00">✓ Modify</text>
<text text-anchor="middle" x="237.5" y="-88.67" font-family="Helvetica,sans-Serif" font-size="14.00">bin/server/install_full.sh</text>
</g>
<!-- start&#45;&gt;ce2a221c&#45;81cc&#45;480e&#45;a896&#45;46e4fd638eab -->
<g id="edge6" class="edge">
<title>start&#45;&gt;ce2a221c&#45;81cc&#45;480e&#45;a896&#45;46e4fd638eab</title>
<path fill="none" stroke="black" d="M56.63,-99.87C58.27,-99.87 75,-99.87 97.68,-99.87"/>
<polygon fill="black" stroke="black" points="97.49,-103.37 107.49,-99.87 97.49,-96.37 97.49,-103.37"/>
<text text-anchor="middle" x="82.9" y="-106.67" font-family="Helvetica,sans-Serif" font-size="14.00">Start</text>
</g>
<!-- end -->
<g id="node2" class="node">
<title>end</title>
</g>
<!-- 3c8b758d&#45;4602&#45;457a&#45;b2f7&#45;cd40048972f3 -->
<g id="node4" class="node">
<title>3c8b758d&#45;4602&#45;457a&#45;b2f7&#45;cd40048972f3</title>
<ellipse fill="white" stroke="black" cx="586.5" cy="-99.87" rx="135.11" ry="26.74"/>
<text text-anchor="middle" x="586.5" y="-103.67" font-family="Helvetica,sans-Serif" font-size="14.00">▶ Modify</text>
<text text-anchor="middle" x="586.5" y="-88.67" font-family="Helvetica,sans-Serif" font-size="14.00">bin/server/install_light.sh</text>
</g>
<!-- ce2a221c&#45;81cc&#45;480e&#45;a896&#45;46e4fd638eab&#45;&gt;3c8b758d&#45;4602&#45;457a&#45;b2f7&#45;cd40048972f3 -->
<g id="edge2" class="edge">
<title>ce2a221c&#45;81cc&#45;480e&#45;a896&#45;46e4fd638eab&#45;&gt;3c8b758d&#45;4602&#45;457a&#45;b2f7&#45;cd40048972f3</title>
<path fill="none" stroke="black" d="M366.67,-99.87C391.23,-99.87 415.79,-99.87 440.35,-99.87"/>
<polygon fill="black" stroke="black" points="440.25,-103.37 450.25,-99.87 440.25,-96.37 440.25,-103.37"/>
</g>
<!-- 5e45fa3d&#45;b52c&#45;4c2e&#45;8c87&#45;45a419a81167 -->
<g id="node6" class="node">
<title>5e45fa3d&#45;b52c&#45;4c2e&#45;8c87&#45;45a419a81167</title>
<polygon fill="yellow" stroke="black" points="377,-36 0,-36 0,0 377,0 377,-36"/>
<text text-anchor="middle" x="188.5" y="-14.3" font-family="Helvetica,sans-Serif" font-size="14.00">⋯ Run GitHub Actions for `bin/server/install_full.sh`</text>
</g>
<!-- ce2a221c&#45;81cc&#45;480e&#45;a896&#45;46e4fd638eab&#45;&gt;5e45fa3d&#45;b52c&#45;4c2e&#45;8c87&#45;45a419a81167 -->
<g id="edge1" class="edge">
<title>ce2a221c&#45;81cc&#45;480e&#45;a896&#45;46e4fd638eab&#45;&gt;5e45fa3d&#45;b52c&#45;4c2e&#45;8c87&#45;45a419a81167</title>
<path fill="none" stroke="black" stroke-dasharray="5,2" d="M221.73,-73.16C216.3,-64.32 210.22,-54.41 204.76,-45.5"/>
<polygon fill="black" stroke="black" points="207.35,-44.03 199.14,-37.34 201.38,-47.69 207.35,-44.03"/>
</g>
<!-- 1adf9363&#45;95da&#45;4377&#45;8754&#45;0fa722b3806e -->
<g id="node5" class="node">
<title>1adf9363&#45;95da&#45;4377&#45;8754&#45;0fa722b3806e</title>
<ellipse fill="white" stroke="black" cx="907.5" cy="-99.87" rx="96.75" ry="26.74"/>
<text text-anchor="middle" x="907.5" y="-103.67" font-family="Helvetica,sans-Serif" font-size="14.00">▶ Modify</text>
<text text-anchor="middle" x="907.5" y="-88.67" font-family="Helvetica,sans-Serif" font-size="14.00">bin/server/run.sh</text>
</g>
<!-- 3c8b758d&#45;4602&#45;457a&#45;b2f7&#45;cd40048972f3&#45;&gt;1adf9363&#45;95da&#45;4377&#45;8754&#45;0fa722b3806e -->
<g id="edge4" class="edge">
<title>3c8b758d&#45;4602&#45;457a&#45;b2f7&#45;cd40048972f3&#45;&gt;1adf9363&#45;95da&#45;4377&#45;8754&#45;0fa722b3806e</title>
<path fill="none" stroke="black" d="M721.92,-99.87C747.83,-99.87 773.74,-99.87 799.65,-99.87"/>
<polygon fill="black" stroke="black" points="799.36,-103.37 809.36,-99.87 799.36,-96.37 799.36,-103.37"/>
</g>
<!-- 5beeda3b&#45;cafe&#45;4774&#45;8c04&#45;2370c57bf977 -->
<g id="node7" class="node">
<title>5beeda3b&#45;cafe&#45;4774&#45;8c04&#45;2370c57bf977</title>
<polygon fill="white" stroke="black" points="778,-36 395,-36 395,0 778,0 778,-36"/>
<text text-anchor="middle" x="586.5" y="-14.3" font-family="Helvetica,sans-Serif" font-size="14.00">▶ Run GitHub Actions for `bin/server/install_light.sh`</text>
</g>
<!-- 3c8b758d&#45;4602&#45;457a&#45;b2f7&#45;cd40048972f3&#45;&gt;5beeda3b&#45;cafe&#45;4774&#45;8c04&#45;2370c57bf977 -->
<g id="edge3" class="edge">
<title>3c8b758d&#45;4602&#45;457a&#45;b2f7&#45;cd40048972f3&#45;&gt;5beeda3b&#45;cafe&#45;4774&#45;8c04&#45;2370c57bf977</title>
<path fill="none" stroke="black" stroke-dasharray="5,2" d="M586.5,-72.72C586.5,-64.46 586.5,-55.31 586.5,-46.93"/>
<polygon fill="black" stroke="black" points="590,-47.15 586.5,-37.15 583,-47.15 590,-47.15"/>
</g>
<!-- 1adf9363&#45;95da&#45;4377&#45;8754&#45;0fa722b3806e&#45;&gt;end -->
<g id="edge7" class="edge">
<title>1adf9363&#45;95da&#45;4377&#45;8754&#45;0fa722b3806e&#45;&gt;end</title>
<path fill="none" stroke="black" d="M1004.34,-99.87C1023.39,-99.87 1040.77,-99.87 1051.47,-99.87"/>
<polygon fill="black" stroke="black" points="1051.19,-103.37 1061.19,-99.87 1051.19,-96.37 1051.19,-103.37"/>
<text text-anchor="middle" x="1033.19" y="-106.67" font-family="Helvetica,sans-Serif" font-size="14.00">Finish</text>
</g>
<!-- bdf0ee07&#45;2fb3&#45;48b2&#45;b298&#45;65fefb6ffb8d -->
<g id="node8" class="node">
<title>bdf0ee07&#45;2fb3&#45;48b2&#45;b298&#45;65fefb6ffb8d</title>
<polygon fill="white" stroke="black" points="1124.5,-36 796.5,-36 796.5,0 1124.5,0 1124.5,-36"/>
<text text-anchor="middle" x="960.5" y="-14.3" font-family="Helvetica,sans-Serif" font-size="14.00">▶ Run GitHub Actions for `bin/server/run.sh`</text>
</g>
<!-- 1adf9363&#45;95da&#45;4377&#45;8754&#45;0fa722b3806e&#45;&gt;bdf0ee07&#45;2fb3&#45;48b2&#45;b298&#45;65fefb6ffb8d -->
<g id="edge5" class="edge">
<title>1adf9363&#45;95da&#45;4377&#45;8754&#45;0fa722b3806e&#45;&gt;bdf0ee07&#45;2fb3&#45;48b2&#45;b298&#45;65fefb6ffb8d</title>
<path fill="none" stroke="black" stroke-dasharray="5,2" d="M924.56,-73.16C930.49,-64.22 937.14,-54.2 943.1,-45.22"/>
<polygon fill="black" stroke="black" points="946.38,-47.6 949,-37.34 940.55,-43.73 946.38,-47.6"/>
</g>
</g>
</svg>
