<?xml version="1.0" encoding="UTF-8" standalone="no"?>
<!DOCTYPE svg PUBLIC "-//W3C//DTD SVG 1.1//EN"
 "http://www.w3.org/Graphics/SVG/1.1/DTD/svg11.dtd">
<!-- Generated by graphviz version 8.0.3 (0)
 -->
<!-- Pages: 1 -->
<svg width="1243pt" height="165pt"
 viewBox="0.00 0.00 1243.00 164.74" xmlns="http://www.w3.org/2000/svg" xmlns:xlink="http://www.w3.org/1999/xlink">
<g id="graph0" class="graph" transform="scale(1 1) rotate(0) translate(36 128.74)">
<polygon fill="dimgray" stroke="none" points="-36,36 -36,-128.74 1207,-128.74 1207,36 -36,36"/>
<text text-anchor="middle" x="585.5" y="-77.54" font-family="Helvetica,sans-Serif" font-size="14.00">Sweep&#39;s Plan &amp; Progress</text>
<!-- start -->
<g id="node1" class="node">
<title>start</title>
</g>
<!-- 1c947308&#45;43d8&#45;4218&#45;8079&#45;a81587480666 -->
<g id="node3" class="node">
<title>1c947308&#45;43d8&#45;4218&#45;8079&#45;a81587480666</title>
<ellipse fill="#0ee832" stroke="black" cx="215.5" cy="-26.87" rx="162.77" ry="26.74"/>
<text text-anchor="middle" x="215.5" y="-30.67" font-family="Helvetica,sans-Serif" font-size="14.00">✓ Create</text>
<text text-anchor="middle" x="215.5" y="-15.67" font-family="Helvetica,sans-Serif" font-size="14.00">sweepai/agents/filter_agent.py</text>
</g>
<!-- start&#45;&gt;1c947308&#45;43d8&#45;4218&#45;8079&#45;a81587480666 -->
<g id="edge3" class="edge">
<title>start&#45;&gt;1c947308&#45;43d8&#45;4218&#45;8079&#45;a81587480666</title>
<path fill="none" stroke="black" d="M0.66,-26.87C2.4,-26.87 18.59,-26.87 41.38,-26.87"/>
<polygon fill="black" stroke="black" points="41.29,-30.37 51.29,-26.87 41.29,-23.37 41.29,-30.37"/>
<text text-anchor="middle" x="26.93" y="-33.67" font-family="Helvetica,sans-Serif" font-size="14.00">Start</text>
</g>
<!-- end -->
<g id="node2" class="node">
<title>end</title>
</g>
<!-- 3ff3ab67&#45;c6fa&#45;4e66&#45;b174&#45;89ebf36b6ded -->
<g id="node4" class="node">
<title>3ff3ab67&#45;c6fa&#45;4e66&#45;b174&#45;89ebf36b6ded</title>
<ellipse fill="yellow" stroke="black" cx="559.5" cy="-26.87" rx="145.83" ry="26.74"/>
<text text-anchor="middle" x="559.5" y="-30.67" font-family="Helvetica,sans-Serif" font-size="14.00">⋯ Modify</text>
<text text-anchor="middle" x="559.5" y="-15.67" font-family="Helvetica,sans-Serif" font-size="14.00">sweepai/utils/ticket_utils.py</text>
</g>
<!-- 1c947308&#45;43d8&#45;4218&#45;8079&#45;a81587480666&#45;&gt;3ff3ab67&#45;c6fa&#45;4e66&#45;b174&#45;89ebf36b6ded -->
<g id="edge1" class="edge">
<title>1c947308&#45;43d8&#45;4218&#45;8079&#45;a81587480666&#45;&gt;3ff3ab67&#45;c6fa&#45;4e66&#45;b174&#45;89ebf36b6ded</title>
<path fill="none" stroke="black" d="M378.77,-26.87C386.69,-26.87 394.62,-26.87 402.55,-26.87"/>
<polygon fill="black" stroke="black" points="402.36,-30.37 412.36,-26.87 402.36,-23.37 402.36,-30.37"/>
</g>
<!-- 4da58bca&#45;a3fd&#45;4f30&#45;b5e3&#45;99767d20e48f -->
<g id="node5" class="node">
<title>4da58bca&#45;a3fd&#45;4f30&#45;b5e3&#45;99767d20e48f</title>
<ellipse fill="white" stroke="black" cx="926.5" cy="-26.87" rx="185.94" ry="26.74"/>
<text text-anchor="middle" x="926.5" y="-30.67" font-family="Helvetica,sans-Serif" font-size="14.00">▶ Create</text>
<text text-anchor="middle" x="926.5" y="-15.67" font-family="Helvetica,sans-Serif" font-size="14.00">sweepai/agents/filter_agent_test.py</text>
</g>
<!-- 3ff3ab67&#45;c6fa&#45;4e66&#45;b174&#45;89ebf36b6ded&#45;&gt;4da58bca&#45;a3fd&#45;4f30&#45;b5e3&#45;99767d20e48f -->
<g id="edge2" class="edge">
<title>3ff3ab67&#45;c6fa&#45;4e66&#45;b174&#45;89ebf36b6ded&#45;&gt;4da58bca&#45;a3fd&#45;4f30&#45;b5e3&#45;99767d20e48f</title>
<path fill="none" stroke="black" d="M705.73,-26.87C713.63,-26.87 721.54,-26.87 729.44,-26.87"/>
<polygon fill="black" stroke="black" points="729.22,-30.37 739.22,-26.87 729.22,-23.37 729.22,-30.37"/>
</g>
<!-- 4da58bca&#45;a3fd&#45;4f30&#45;b5e3&#45;99767d20e48f&#45;&gt;end -->
<g id="edge4" class="edge">
<title>4da58bca&#45;a3fd&#45;4f30&#45;b5e3&#45;99767d20e48f&#45;&gt;end</title>
<path fill="none" stroke="black" d="M1112.68,-26.87C1132.49,-26.87 1149.14,-26.87 1159.42,-26.87"/>
<polygon fill="black" stroke="black" points="1159.22,-30.37 1169.22,-26.87 1159.22,-23.37 1159.22,-30.37"/>
<text text-anchor="middle" x="1141.23" y="-33.67" font-family="Helvetica,sans-Serif" font-size="14.00">Finish</text>
</g>
</g>
</svg>
