<?xml version="1.0" encoding="UTF-8" standalone="no"?>
<!DOCTYPE svg PUBLIC "-//W3C//DTD SVG 1.1//EN"
 "http://www.w3.org/Graphics/SVG/1.1/DTD/svg11.dtd">
<!-- Generated by graphviz version 8.0.3 (0)
 -->
<!-- Pages: 1 -->
<svg width="2378pt" height="593pt"
 viewBox="0.00 0.00 2378.00 593.22" xmlns="http://www.w3.org/2000/svg" xmlns:xlink="http://www.w3.org/1999/xlink">
<g id="graph0" class="graph" transform="scale(1 1) rotate(0) translate(36 557.22)">
<polygon fill="dimgray" stroke="none" points="-36,36 -36,-557.22 2342,-557.22 2342,36 -36,36"/>
<text text-anchor="middle" x="1153" y="-506.02" font-family="Helvetica,sans-Serif" font-size="14.00">Sweep&#39;s Plan &amp; Progress</text>
<!-- start -->
<g id="node1" class="node">
<title>start</title>
</g>
<!-- 777016a4&#45;869c&#45;4802&#45;acb9&#45;e0bec53c7cda -->
<g id="node3" class="node">
<title>777016a4&#45;869c&#45;4802&#45;acb9&#45;e0bec53c7cda</title>
<ellipse fill="#ee0000" stroke="black" cx="969.5" cy="-455.35" rx="159.61" ry="26.74"/>
<text text-anchor="middle" x="969.5" y="-459.15" font-family="Helvetica,sans-Serif" font-size="14.00">✗ Modify</text>
<text text-anchor="middle" x="969.5" y="-444.15" font-family="Helvetica,sans-Serif" font-size="14.00">sweepai/handlers/on_ticket.py</text>
</g>
<!-- start&#45;&gt;777016a4&#45;869c&#45;4802&#45;acb9&#45;e0bec53c7cda -->
<g id="edge22" class="edge">
<title>start&#45;&gt;777016a4&#45;869c&#45;4802&#45;acb9&#45;e0bec53c7cda</title>
<path fill="none" stroke="black" d="M757.65,-455.35C759.39,-455.35 775.75,-455.35 798.67,-455.35"/>
<polygon fill="black" stroke="black" points="798.63,-458.85 808.63,-455.35 798.63,-451.85 798.63,-458.85"/>
<text text-anchor="middle" x="783.85" y="-462.15" font-family="Helvetica,sans-Serif" font-size="14.00">Start</text>
</g>
<!-- end -->
<g id="node2" class="node">
<title>end</title>
</g>
<!-- 6da2bd48&#45;856b&#45;4801&#45;a784&#45;91176a04f6ad -->
<g id="node4" class="node">
<title>6da2bd48&#45;856b&#45;4801&#45;a784&#45;91176a04f6ad</title>
<ellipse fill="#0ee832" stroke="black" cx="1346.5" cy="-455.35" rx="159.61" ry="26.74"/>
<text text-anchor="middle" x="1346.5" y="-459.15" font-family="Helvetica,sans-Serif" font-size="14.00">✓ Modify</text>
<text text-anchor="middle" x="1346.5" y="-444.15" font-family="Helvetica,sans-Serif" font-size="14.00">sweepai/handlers/on_ticket.py</text>
</g>
<!-- 777016a4&#45;869c&#45;4802&#45;acb9&#45;e0bec53c7cda&#45;&gt;6da2bd48&#45;856b&#45;4801&#45;a784&#45;91176a04f6ad -->
<g id="edge2" class="edge">
<title>777016a4&#45;869c&#45;4802&#45;acb9&#45;e0bec53c7cda&#45;&gt;6da2bd48&#45;856b&#45;4801&#45;a784&#45;91176a04f6ad</title>
<path fill="none" stroke="black" d="M1129.28,-455.35C1144.79,-455.35 1160.31,-455.35 1175.82,-455.35"/>
<polygon fill="black" stroke="black" points="1175.56,-458.85 1185.56,-455.35 1175.56,-451.85 1175.56,-458.85"/>
</g>
<!-- da790d63&#45;8e88&#45;40b4&#45;8f69&#45;1ed52323fdfb -->
<g id="node5" class="node">
<title>da790d63&#45;8e88&#45;40b4&#45;8f69&#45;1ed52323fdfb</title>
<polygon fill="#ee0000" stroke="black" points="1138.5,-391.48 758.5,-391.48 758.5,-355.48 1138.5,-355.48 1138.5,-391.48"/>
<text text-anchor="middle" x="948.5" y="-369.78" font-family="Helvetica,sans-Serif" font-size="14.00">✗ Ran sandbox for `sweepai/handlers/on_ticket.py`.</text>
</g>
<!-- 777016a4&#45;869c&#45;4802&#45;acb9&#45;e0bec53c7cda&#45;&gt;da790d63&#45;8e88&#45;40b4&#45;8f69&#45;1ed52323fdfb -->
<g id="edge1" class="edge">
<title>777016a4&#45;869c&#45;4802&#45;acb9&#45;e0bec53c7cda&#45;&gt;da790d63&#45;8e88&#45;40b4&#45;8f69&#45;1ed52323fdfb</title>
<path fill="none" stroke="black" stroke-dasharray="5,2" d="M962.62,-428.2C960.43,-419.85 957.99,-410.58 955.77,-402.13"/>
<polygon fill="black" stroke="black" points="958.94,-401.41 953.01,-392.63 952.17,-403.19 958.94,-401.41"/>
</g>
<!-- 6da2bd48&#45;856b&#45;4801&#45;a784&#45;91176a04f6ad&#45;&gt;end -->
<g id="edge23" class="edge">
<title>6da2bd48&#45;856b&#45;4801&#45;a784&#45;91176a04f6ad&#45;&gt;end</title>
<path fill="none" stroke="black" d="M1506.37,-455.35C1526,-455.35 1542.8,-455.35 1553.22,-455.35"/>
<polygon fill="black" stroke="black" points="1553.21,-458.85 1563.21,-455.35 1553.21,-451.85 1553.21,-458.85"/>
<text text-anchor="middle" x="1535.15" y="-462.15" font-family="Helvetica,sans-Serif" font-size="14.00">Finish</text>
</g>
<!-- b28b1664&#45;a9f4&#45;4ff5&#45;9ceb&#45;6f6dbbefc4d7 -->
<g id="node6" class="node">
<title>b28b1664&#45;a9f4&#45;4ff5&#45;9ceb&#45;6f6dbbefc4d7</title>
<polygon fill="#ee0000" stroke="black" points="1536.5,-391.48 1156.5,-391.48 1156.5,-355.48 1536.5,-355.48 1536.5,-391.48"/>
<text text-anchor="middle" x="1346.5" y="-369.78" font-family="Helvetica,sans-Serif" font-size="14.00">✗ Ran sandbox for `sweepai/handlers/on_ticket.py`.</text>
</g>
<!-- 6da2bd48&#45;856b&#45;4801&#45;a784&#45;91176a04f6ad&#45;&gt;b28b1664&#45;a9f4&#45;4ff5&#45;9ceb&#45;6f6dbbefc4d7 -->
<g id="edge3" class="edge">
<title>6da2bd48&#45;856b&#45;4801&#45;a784&#45;91176a04f6ad&#45;&gt;b28b1664&#45;a9f4&#45;4ff5&#45;9ceb&#45;6f6dbbefc4d7</title>
<path fill="none" stroke="black" stroke-dasharray="5,2" d="M1346.5,-428.2C1346.5,-419.94 1346.5,-410.79 1346.5,-402.41"/>
<polygon fill="black" stroke="black" points="1350,-402.63 1346.5,-392.63 1343,-402.63 1350,-402.63"/>
</g>
<!-- c78a302f&#45;95cd&#45;4149&#45;9e26&#45;497c8ae78a6a -->
<g id="node7" class="node">
<title>c78a302f&#45;95cd&#45;4149&#45;9e26&#45;497c8ae78a6a</title>
<polygon fill="white" stroke="black" points="1932.5,-391.48 1554.5,-391.48 1554.5,-355.48 1932.5,-355.48 1932.5,-391.48"/>
<text text-anchor="middle" x="1743.5" y="-369.78" font-family="Helvetica,sans-Serif" font-size="14.00">▶ Ran sandbox for `sweepai/handlers/on_ticket.py`.</text>
</g>
<!-- 6da2bd48&#45;856b&#45;4801&#45;a784&#45;91176a04f6ad&#45;&gt;c78a302f&#45;95cd&#45;4149&#45;9e26&#45;497c8ae78a6a -->
<g id="edge21" class="edge">
<title>6da2bd48&#45;856b&#45;4801&#45;a784&#45;91176a04f6ad&#45;&gt;c78a302f&#45;95cd&#45;4149&#45;9e26&#45;497c8ae78a6a</title>
<path fill="none" stroke="black" stroke-dasharray="5,2" d="M1446.94,-434.14C1507.94,-421.87 1585.44,-406.28 1645.92,-394.11"/>
<polygon fill="black" stroke="black" points="1646.5,-397.36 1655.62,-391.96 1645.12,-390.5 1646.5,-397.36"/>
</g>
<!-- 1effb80a&#45;afe8&#45;479a&#45;a3e4&#45;fc346d420308 -->
<g id="node8" class="node">
<title>1effb80a&#45;afe8&#45;479a&#45;a3e4&#45;fc346d420308</title>
<ellipse fill="#0ee832" stroke="black" cx="456.5" cy="-277.61" rx="98.08" ry="26.74"/>
<text text-anchor="middle" x="456.5" y="-281.41" font-family="Helvetica,sans-Serif" font-size="14.00">✓ Create</text>
<text text-anchor="middle" x="456.5" y="-266.41" font-family="Helvetica,sans-Serif" font-size="14.00">.trunk/trunk.yaml</text>
</g>
<!-- b28b1664&#45;a9f4&#45;4ff5&#45;9ceb&#45;6f6dbbefc4d7&#45;&gt;1effb80a&#45;afe8&#45;479a&#45;a3e4&#45;fc346d420308 -->
<g id="edge4" class="edge">
<title>b28b1664&#45;a9f4&#45;4ff5&#45;9ceb&#45;6f6dbbefc4d7&#45;&gt;1effb80a&#45;afe8&#45;479a&#45;a3e4&#45;fc346d420308</title>
<path fill="none" stroke="black" d="M1156.13,-356.03C1153.23,-355.84 1150.36,-355.66 1147.5,-355.48 941.96,-342.71 888.25,-367.39 684.5,-337.48 631.7,-329.73 573.47,-314.58 529.07,-301.59"/>
<polygon fill="black" stroke="black" points="530.25,-297.99 519.67,-298.51 528.26,-304.7 530.25,-297.99"/>
<text text-anchor="middle" x="782" y="-326.28" font-family="Helvetica,sans-Serif" font-size="14.00">Additional changes required</text>
</g>
<!-- 4d098d4a&#45;623c&#45;44de&#45;99e8&#45;8bb04522bb86 -->
<g id="node9" class="node">
<title>4d098d4a&#45;623c&#45;44de&#45;99e8&#45;8bb04522bb86</title>
<ellipse fill="white" stroke="black" cx="788.5" cy="-277.61" rx="82.05" ry="26.74"/>
<text text-anchor="middle" x="788.5" y="-281.41" font-family="Helvetica,sans-Serif" font-size="14.00">▶ Create</text>
<text text-anchor="middle" x="788.5" y="-266.41" font-family="Helvetica,sans-Serif" font-size="14.00">.hadolint.yaml</text>
</g>
<!-- b28b1664&#45;a9f4&#45;4ff5&#45;9ceb&#45;6f6dbbefc4d7&#45;&gt;4d098d4a&#45;623c&#45;44de&#45;99e8&#45;8bb04522bb86 -->
<g id="edge9" class="edge">
<title>b28b1664&#45;a9f4&#45;4ff5&#45;9ceb&#45;6f6dbbefc4d7&#45;&gt;4d098d4a&#45;623c&#45;44de&#45;99e8&#45;8bb04522bb86</title>
<path fill="none" stroke="black" d="M1156.12,-356.2C1153.22,-355.96 1150.35,-355.72 1147.5,-355.48 1049.29,-347.29 1022.17,-361.12 926.5,-337.48 897.03,-330.2 865.8,-317.35 840.51,-305.51"/>
<polygon fill="black" stroke="black" points="842.31,-302.01 831.77,-300.86 839.29,-308.33 842.31,-302.01"/>
<text text-anchor="middle" x="1024" y="-326.28" font-family="Helvetica,sans-Serif" font-size="14.00">Additional changes required</text>
</g>
<!-- fef081aa&#45;7234&#45;4238&#45;b14a&#45;80945924107c -->
<g id="node10" class="node">
<title>fef081aa&#45;7234&#45;4238&#45;b14a&#45;80945924107c</title>
<ellipse fill="white" stroke="black" cx="1079.5" cy="-277.61" rx="109.7" ry="26.74"/>
<text text-anchor="middle" x="1079.5" y="-281.41" font-family="Helvetica,sans-Serif" font-size="14.00">▶ Create</text>
<text text-anchor="middle" x="1079.5" y="-266.41" font-family="Helvetica,sans-Serif" font-size="14.00">.markdownlint.yaml</text>
</g>
<!-- b28b1664&#45;a9f4&#45;4ff5&#45;9ceb&#45;6f6dbbefc4d7&#45;&gt;fef081aa&#45;7234&#45;4238&#45;b14a&#45;80945924107c -->
<g id="edge11" class="edge">
<title>b28b1664&#45;a9f4&#45;4ff5&#45;9ceb&#45;6f6dbbefc4d7&#45;&gt;fef081aa&#45;7234&#45;4238&#45;b14a&#45;80945924107c</title>
<path fill="none" stroke="black" d="M1195.98,-355.03C1179.21,-350.46 1162.71,-344.71 1147.5,-337.48 1134.01,-331.07 1121.12,-321.23 1110.25,-311.43"/>
<polygon fill="black" stroke="black" points="1113.03,-309.3 1103.36,-304.99 1108.23,-314.39 1113.03,-309.3"/>
<text text-anchor="middle" x="1245" y="-326.28" font-family="Helvetica,sans-Serif" font-size="14.00">Additional changes required</text>
</g>
<!-- 7c382e05&#45;c357&#45;4c52&#45;aa38&#45;74fa0c0fba75 -->
<g id="node11" class="node">
<title>7c382e05&#45;c357&#45;4c52&#45;aa38&#45;74fa0c0fba75</title>
<ellipse fill="white" stroke="black" cx="1346.5" cy="-277.61" rx="54.39" ry="26.74"/>
<text text-anchor="middle" x="1346.5" y="-281.41" font-family="Helvetica,sans-Serif" font-size="14.00">▶ Create</text>
<text text-anchor="middle" x="1346.5" y="-266.41" font-family="Helvetica,sans-Serif" font-size="14.00">ruff.toml</text>
</g>
<!-- b28b1664&#45;a9f4&#45;4ff5&#45;9ceb&#45;6f6dbbefc4d7&#45;&gt;7c382e05&#45;c357&#45;4c52&#45;aa38&#45;74fa0c0fba75 -->
<g id="edge13" class="edge">
<title>b28b1664&#45;a9f4&#45;4ff5&#45;9ceb&#45;6f6dbbefc4d7&#45;&gt;7c382e05&#45;c357&#45;4c52&#45;aa38&#45;74fa0c0fba75</title>
<path fill="none" stroke="black" d="M1346.5,-355.26C1346.5,-344.07 1346.5,-329.05 1346.5,-315.27"/>
<polygon fill="black" stroke="black" points="1350,-315.58 1346.5,-305.58 1343,-315.58 1350,-315.58"/>
<text text-anchor="middle" x="1444" y="-326.28" font-family="Helvetica,sans-Serif" font-size="14.00">Additional changes required</text>
</g>
<!-- 3af7b6cf&#45;e1ce&#45;4f82&#45;b83a&#45;aa998c800316 -->
<g id="node12" class="node">
<title>3af7b6cf&#45;e1ce&#45;4f82&#45;b83a&#45;aa998c800316</title>
<ellipse fill="white" stroke="black" cx="1586.5" cy="-277.61" rx="75.82" ry="26.74"/>
<text text-anchor="middle" x="1586.5" y="-281.41" font-family="Helvetica,sans-Serif" font-size="14.00">▶ Create</text>
<text text-anchor="middle" x="1586.5" y="-266.41" font-family="Helvetica,sans-Serif" font-size="14.00">.shellcheckrc</text>
</g>
<!-- b28b1664&#45;a9f4&#45;4ff5&#45;9ceb&#45;6f6dbbefc4d7&#45;&gt;3af7b6cf&#45;e1ce&#45;4f82&#45;b83a&#45;aa998c800316 -->
<g id="edge15" class="edge">
<title>b28b1664&#45;a9f4&#45;4ff5&#45;9ceb&#45;6f6dbbefc4d7&#45;&gt;3af7b6cf&#45;e1ce&#45;4f82&#45;b83a&#45;aa998c800316</title>
<path fill="none" stroke="black" d="M1489.14,-355.06C1513.6,-350.26 1534.63,-344.42 1545.5,-337.48 1554.87,-331.5 1562.69,-322.53 1568.9,-313.39"/>
<polygon fill="black" stroke="black" points="1572.25,-315.63 1574.57,-305.29 1566.31,-311.92 1572.25,-315.63"/>
<text text-anchor="middle" x="1659" y="-326.28" font-family="Helvetica,sans-Serif" font-size="14.00">Additional changes required</text>
</g>
<!-- db874f51&#45;5f05&#45;4c7f&#45;99cc&#45;6586d420fb27 -->
<g id="node13" class="node">
<title>db874f51&#45;5f05&#45;4c7f&#45;99cc&#45;6586d420fb27</title>
<ellipse fill="white" stroke="black" cx="1846.5" cy="-277.61" rx="79.81" ry="26.74"/>
<text text-anchor="middle" x="1846.5" y="-281.41" font-family="Helvetica,sans-Serif" font-size="14.00">▶ Create</text>
<text text-anchor="middle" x="1846.5" y="-266.41" font-family="Helvetica,sans-Serif" font-size="14.00">svgo.config.js</text>
</g>
<!-- b28b1664&#45;a9f4&#45;4ff5&#45;9ceb&#45;6f6dbbefc4d7&#45;&gt;db874f51&#45;5f05&#45;4c7f&#45;99cc&#45;6586d420fb27 -->
<g id="edge17" class="edge">
<title>b28b1664&#45;a9f4&#45;4ff5&#45;9ceb&#45;6f6dbbefc4d7&#45;&gt;db874f51&#45;5f05&#45;4c7f&#45;99cc&#45;6586d420fb27</title>
<path fill="none" stroke="black" d="M1536.88,-356.21C1539.78,-355.96 1542.65,-355.72 1545.5,-355.48 1593.27,-351.44 1715.33,-353.56 1760.5,-337.48 1778.15,-331.2 1795.58,-320.37 1810.09,-309.7"/>
<polygon fill="black" stroke="black" points="1811.9,-311.97 1817.73,-303.12 1807.65,-306.4 1811.9,-311.97"/>
<text text-anchor="middle" x="1887" y="-326.28" font-family="Helvetica,sans-Serif" font-size="14.00">Additional changes required</text>
</g>
<!-- 0d9c7738&#45;362e&#45;40c1&#45;86ec&#45;098074656836 -->
<g id="node14" class="node">
<title>0d9c7738&#45;362e&#45;40c1&#45;86ec&#45;098074656836</title>
<ellipse fill="white" stroke="black" cx="2105.5" cy="-277.61" rx="81.13" ry="26.74"/>
<text text-anchor="middle" x="2105.5" y="-281.41" font-family="Helvetica,sans-Serif" font-size="14.00">▶ Create</text>
<text text-anchor="middle" x="2105.5" y="-266.41" font-family="Helvetica,sans-Serif" font-size="14.00">.yamllint.yaml</text>
</g>
<!-- b28b1664&#45;a9f4&#45;4ff5&#45;9ceb&#45;6f6dbbefc4d7&#45;&gt;0d9c7738&#45;362e&#45;40c1&#45;86ec&#45;098074656836 -->
<g id="edge19" class="edge">
<title>b28b1664&#45;a9f4&#45;4ff5&#45;9ceb&#45;6f6dbbefc4d7&#45;&gt;0d9c7738&#45;362e&#45;40c1&#45;86ec&#45;098074656836</title>
<path fill="none" stroke="black" d="M1536.87,-356.04C1539.77,-355.85 1542.65,-355.66 1545.5,-355.48 1643.83,-349.29 1893.12,-362.18 1988.5,-337.48 2013.2,-331.08 2038.73,-318.98 2059.62,-307.41"/>
<polygon fill="black" stroke="black" points="2061.21,-309.96 2068.17,-301.97 2057.75,-303.87 2061.21,-309.96"/>
<text text-anchor="middle" x="2127" y="-326.28" font-family="Helvetica,sans-Serif" font-size="14.00">Additional changes required</text>
</g>
<!-- a2f4d6dd&#45;8386&#45;4ba4&#45;9cc0&#45;9530fdce5359 -->
<g id="node15" class="node">
<title>a2f4d6dd&#45;8386&#45;4ba4&#45;9cc0&#45;9530fdce5359</title>
<polygon fill="#ee0000" stroke="black" points="293,-213.74 0,-213.74 0,-177.74 293,-177.74 293,-213.74"/>
<text text-anchor="middle" x="146.5" y="-192.04" font-family="Helvetica,sans-Serif" font-size="14.00">✗ Ran sandbox for `.trunk/trunk.yaml`.</text>
</g>
<!-- 1effb80a&#45;afe8&#45;479a&#45;a3e4&#45;fc346d420308&#45;&gt;a2f4d6dd&#45;8386&#45;4ba4&#45;9cc0&#45;9530fdce5359 -->
<g id="edge5" class="edge">
<title>1effb80a&#45;afe8&#45;479a&#45;a3e4&#45;fc346d420308&#45;&gt;a2f4d6dd&#45;8386&#45;4ba4&#45;9cc0&#45;9530fdce5359</title>
<path fill="none" stroke="black" stroke-dasharray="5,2" d="M386.54,-258.59C338.45,-246.19 274.52,-229.72 224.74,-216.9"/>
<polygon fill="black" stroke="black" points="225.89,-213.32 215.34,-214.22 224.15,-220.1 225.89,-213.32"/>
</g>
<!-- 61f8cd34&#45;ab8a&#45;4cdf&#45;bdbf&#45;08a904fc04dc -->
<g id="node16" class="node">
<title>61f8cd34&#45;ab8a&#45;4cdf&#45;bdbf&#45;08a904fc04dc</title>
<polygon fill="white" stroke="black" points="602,-213.74 311,-213.74 311,-177.74 602,-177.74 602,-213.74"/>
<text text-anchor="middle" x="456.5" y="-192.04" font-family="Helvetica,sans-Serif" font-size="14.00">▶ Ran sandbox for `.trunk/trunk.yaml`.</text>
</g>
<!-- 1effb80a&#45;afe8&#45;479a&#45;a3e4&#45;fc346d420308&#45;&gt;61f8cd34&#45;ab8a&#45;4cdf&#45;bdbf&#45;08a904fc04dc -->
<g id="edge8" class="edge">
<title>1effb80a&#45;afe8&#45;479a&#45;a3e4&#45;fc346d420308&#45;&gt;61f8cd34&#45;ab8a&#45;4cdf&#45;bdbf&#45;08a904fc04dc</title>
<path fill="none" stroke="black" stroke-dasharray="5,2" d="M456.5,-250.46C456.5,-242.2 456.5,-233.05 456.5,-224.67"/>
<polygon fill="black" stroke="black" points="460,-224.89 456.5,-214.89 453,-224.89 460,-224.89"/>
</g>
<!-- 7efcc62f&#45;ee4e&#45;41bb&#45;a0de&#45;69ae1cfe609b -->
<g id="node17" class="node">
<title>7efcc62f&#45;ee4e&#45;41bb&#45;a0de&#45;69ae1cfe609b</title>
<polygon fill="white" stroke="black" points="888.5,-213.74 620.5,-213.74 620.5,-177.74 888.5,-177.74 888.5,-213.74"/>
<text text-anchor="middle" x="754.5" y="-192.04" font-family="Helvetica,sans-Serif" font-size="14.00">▶ Ran sandbox for `.hadolint.yaml`.</text>
</g>
<!-- 4d098d4a&#45;623c&#45;44de&#45;99e8&#45;8bb04522bb86&#45;&gt;7efcc62f&#45;ee4e&#45;41bb&#45;a0de&#45;69ae1cfe609b -->
<g id="edge10" class="edge">
<title>4d098d4a&#45;623c&#45;44de&#45;99e8&#45;8bb04522bb86&#45;&gt;7efcc62f&#45;ee4e&#45;41bb&#45;a0de&#45;69ae1cfe609b</title>
<path fill="none" stroke="black" stroke-dasharray="5,2" d="M777.56,-250.9C773.91,-242.34 769.84,-232.78 766.15,-224.1"/>
<polygon fill="black" stroke="black" points="769.02,-222.91 761.88,-215.08 762.58,-225.65 769.02,-222.91"/>
</g>
<!-- 9d4b871f&#45;5a32&#45;403a&#45;8c31&#45;f4ddb2609e97 -->
<g id="node18" class="node">
<title>9d4b871f&#45;5a32&#45;403a&#45;8c31&#45;f4ddb2609e97</title>
<polygon fill="white" stroke="black" points="1214,-213.74 907,-213.74 907,-177.74 1214,-177.74 1214,-213.74"/>
<text text-anchor="middle" x="1060.5" y="-192.04" font-family="Helvetica,sans-Serif" font-size="14.00">▶ Ran sandbox for `.markdownlint.yaml`.</text>
</g>
<!-- fef081aa&#45;7234&#45;4238&#45;b14a&#45;80945924107c&#45;&gt;9d4b871f&#45;5a32&#45;403a&#45;8c31&#45;f4ddb2609e97 -->
<g id="edge12" class="edge">
<title>fef081aa&#45;7234&#45;4238&#45;b14a&#45;80945924107c&#45;&gt;9d4b871f&#45;5a32&#45;403a&#45;8c31&#45;f4ddb2609e97</title>
<path fill="none" stroke="black" stroke-dasharray="5,2" d="M1073.28,-250.46C1071.29,-242.11 1069.09,-232.84 1067.08,-224.39"/>
<polygon fill="black" stroke="black" points="1070.3,-223.81 1064.58,-214.89 1063.49,-225.43 1070.3,-223.81"/>
</g>
<!-- b76525f1&#45;284b&#45;4a1a&#45;81ba&#45;ba7df5b2c604 -->
<g id="node19" class="node">
<title>b76525f1&#45;284b&#45;4a1a&#45;81ba&#45;ba7df5b2c604</title>
<polygon fill="white" stroke="black" points="1461,-213.74 1232,-213.74 1232,-177.74 1461,-177.74 1461,-213.74"/>
<text text-anchor="middle" x="1346.5" y="-192.04" font-family="Helvetica,sans-Serif" font-size="14.00">▶ Ran sandbox for `ruff.toml`.</text>
</g>
<!-- 7c382e05&#45;c357&#45;4c52&#45;aa38&#45;74fa0c0fba75&#45;&gt;b76525f1&#45;284b&#45;4a1a&#45;81ba&#45;ba7df5b2c604 -->
<g id="edge14" class="edge">
<title>7c382e05&#45;c357&#45;4c52&#45;aa38&#45;74fa0c0fba75&#45;&gt;b76525f1&#45;284b&#45;4a1a&#45;81ba&#45;ba7df5b2c604</title>
<path fill="none" stroke="black" stroke-dasharray="5,2" d="M1346.5,-250.46C1346.5,-242.2 1346.5,-233.05 1346.5,-224.67"/>
<polygon fill="black" stroke="black" points="1350,-224.89 1346.5,-214.89 1343,-224.89 1350,-224.89"/>
</g>
<!-- 846243c6&#45;9f9c&#45;4280&#45;b68f&#45;d813c7f5482a -->
<g id="node20" class="node">
<title>846243c6&#45;9f9c&#45;4280&#45;b68f&#45;d813c7f5482a</title>
<polygon fill="white" stroke="black" points="1738,-213.74 1479,-213.74 1479,-177.74 1738,-177.74 1738,-213.74"/>
<text text-anchor="middle" x="1608.5" y="-192.04" font-family="Helvetica,sans-Serif" font-size="14.00">▶ Ran sandbox for `.shellcheckrc`.</text>
</g>
<!-- 3af7b6cf&#45;e1ce&#45;4f82&#45;b83a&#45;aa998c800316&#45;&gt;846243c6&#45;9f9c&#45;4280&#45;b68f&#45;d813c7f5482a -->
<g id="edge16" class="edge">
<title>3af7b6cf&#45;e1ce&#45;4f82&#45;b83a&#45;aa998c800316&#45;&gt;846243c6&#45;9f9c&#45;4280&#45;b68f&#45;d813c7f5482a</title>
<path fill="none" stroke="black" stroke-dasharray="5,2" d="M1593.58,-250.9C1595.89,-242.53 1598.46,-233.2 1600.81,-224.67"/>
<polygon fill="black" stroke="black" points="1604.44,-225.65 1603.72,-215.08 1597.69,-223.79 1604.44,-225.65"/>
</g>
<!-- 497ee8b8&#45;e137&#45;4184&#45;95c1&#45;84224a850b7d -->
<g id="node21" class="node">
<title>497ee8b8&#45;e137&#45;4184&#45;95c1&#45;84224a850b7d</title>
<polygon fill="white" stroke="black" points="2021,-213.74 1756,-213.74 1756,-177.74 2021,-177.74 2021,-213.74"/>
<text text-anchor="middle" x="1888.5" y="-192.04" font-family="Helvetica,sans-Serif" font-size="14.00">▶ Ran sandbox for `svgo.config.js`.</text>
</g>
<!-- db874f51&#45;5f05&#45;4c7f&#45;99cc&#45;6586d420fb27&#45;&gt;497ee8b8&#45;e137&#45;4184&#45;95c1&#45;84224a850b7d -->
<g id="edge18" class="edge">
<title>db874f51&#45;5f05&#45;4c7f&#45;99cc&#45;6586d420fb27&#45;&gt;497ee8b8&#45;e137&#45;4184&#45;95c1&#45;84224a850b7d</title>
<path fill="none" stroke="black" stroke-dasharray="5,2" d="M1860.02,-250.9C1864.62,-242.15 1869.77,-232.36 1874.41,-223.53"/>
<polygon fill="black" stroke="black" points="1877.83,-225.56 1879.38,-215.08 1871.63,-222.3 1877.83,-225.56"/>
</g>
<!-- 0f216f21&#45;13e2&#45;44ec&#45;bf19&#45;0e8ce6b5a0b4 -->
<g id="node22" class="node">
<title>0f216f21&#45;13e2&#45;44ec&#45;bf19&#45;0e8ce6b5a0b4</title>
<polygon fill="white" stroke="black" points="2306,-213.74 2039,-213.74 2039,-177.74 2306,-177.74 2306,-213.74"/>
<text text-anchor="middle" x="2172.5" y="-192.04" font-family="Helvetica,sans-Serif" font-size="14.00">▶ Ran sandbox for `.yamllint.yaml`.</text>
</g>
<!-- 0d9c7738&#45;362e&#45;40c1&#45;86ec&#45;098074656836&#45;&gt;0f216f21&#45;13e2&#45;44ec&#45;bf19&#45;0e8ce6b5a0b4 -->
<g id="edge20" class="edge">
<title>0d9c7738&#45;362e&#45;40c1&#45;86ec&#45;098074656836&#45;&gt;0f216f21&#45;13e2&#45;44ec&#45;bf19&#45;0e8ce6b5a0b4</title>
<path fill="none" stroke="black" stroke-dasharray="5,2" d="M2126.7,-251.34C2134.57,-241.96 2143.48,-231.33 2151.35,-221.96"/>
<polygon fill="black" stroke="black" points="2154.46,-224.69 2158.21,-214.78 2149.1,-220.19 2154.46,-224.69"/>
</g>
<!-- afc36005&#45;e8ed&#45;4076&#45;b445&#45;ff1871647da6 -->
<g id="node23" class="node">
<title>afc36005&#45;e8ed&#45;4076&#45;b445&#45;ff1871647da6</title>
<ellipse fill="yellow" stroke="black" cx="146.5" cy="-99.87" rx="98.08" ry="26.74"/>
<text text-anchor="middle" x="146.5" y="-103.67" font-family="Helvetica,sans-Serif" font-size="14.00">⋯ Modify</text>
<text text-anchor="middle" x="146.5" y="-88.67" font-family="Helvetica,sans-Serif" font-size="14.00">.trunk/trunk.yaml</text>
</g>
<!-- a2f4d6dd&#45;8386&#45;4ba4&#45;9cc0&#45;9530fdce5359&#45;&gt;afc36005&#45;e8ed&#45;4076&#45;b445&#45;ff1871647da6 -->
<g id="edge6" class="edge">
<title>a2f4d6dd&#45;8386&#45;4ba4&#45;9cc0&#45;9530fdce5359&#45;&gt;afc36005&#45;e8ed&#45;4076&#45;b445&#45;ff1871647da6</title>
<path fill="none" stroke="black" d="M146.5,-177.52C146.5,-166.33 146.5,-151.31 146.5,-137.53"/>
<polygon fill="black" stroke="black" points="150,-137.84 146.5,-127.84 143,-137.84 150,-137.84"/>
<text text-anchor="middle" x="244" y="-148.54" font-family="Helvetica,sans-Serif" font-size="14.00">Additional changes required</text>
</g>
<!-- 054fe5f2&#45;1bee&#45;4a9e&#45;940b&#45;7e6e3caecca5 -->
<g id="node24" class="node">
<title>054fe5f2&#45;1bee&#45;4a9e&#45;940b&#45;7e6e3caecca5</title>
<polygon fill="white" stroke="black" points="292,-36 1,-36 1,0 292,0 292,-36"/>
<text text-anchor="middle" x="146.5" y="-14.3" font-family="Helvetica,sans-Serif" font-size="14.00">▶ Ran sandbox for `.trunk/trunk.yaml`.</text>
</g>
<!-- afc36005&#45;e8ed&#45;4076&#45;b445&#45;ff1871647da6&#45;&gt;054fe5f2&#45;1bee&#45;4a9e&#45;940b&#45;7e6e3caecca5 -->
<g id="edge7" class="edge">
<title>afc36005&#45;e8ed&#45;4076&#45;b445&#45;ff1871647da6&#45;&gt;054fe5f2&#45;1bee&#45;4a9e&#45;940b&#45;7e6e3caecca5</title>
<path fill="none" stroke="black" stroke-dasharray="5,2" d="M146.5,-72.72C146.5,-64.46 146.5,-55.31 146.5,-46.93"/>
<polygon fill="black" stroke="black" points="150,-47.15 146.5,-37.15 143,-47.15 150,-47.15"/>
</g>
</g>
</svg>
