<?xml version="1.0" encoding="UTF-8" standalone="no"?>
<!DOCTYPE svg PUBLIC "-//W3C//DTD SVG 1.1//EN"
 "http://www.w3.org/Graphics/SVG/1.1/DTD/svg11.dtd">
<!-- Generated by graphviz version 8.0.3 (0)
 -->
<!-- Pages: 1 -->
<svg width="543pt" height="255pt"
 viewBox="0.00 0.00 543.00 255.48" xmlns="http://www.w3.org/2000/svg" xmlns:xlink="http://www.w3.org/1999/xlink">
<g id="graph0" class="graph" transform="scale(1 1) rotate(0) translate(36 219.48)">
<polygon fill="dimgray" stroke="none" points="-36,36 -36,-219.48 507,-219.48 507,36 -36,36"/>
<text text-anchor="middle" x="235.5" y="-168.28" font-family="Helvetica,sans-Serif" font-size="14.00">Sweep&#39;s Plan &amp; Progress</text>
<!-- start -->
<g id="node1" class="node">
<title>start</title>
</g>
<!-- c93f23db&#45;3e8b&#45;4756&#45;bd20&#45;197cfe7c4845 -->
<g id="node3" class="node">
<title>c93f23db&#45;3e8b&#45;4756&#45;bd20&#45;197cfe7c4845</title>
<ellipse fill="#ee0000" stroke="black" cx="232.5" cy="-117.61" rx="179.71" ry="26.74"/>
<text text-anchor="middle" x="232.5" y="-121.41" font-family="Helvetica,sans-Serif" font-size="14.00">✗ Refactor</text>
<text text-anchor="middle" x="232.5" y="-106.41" font-family="Helvetica,sans-Serif" font-size="14.00">sweepai/agents/complete_code.py</text>
</g>
<!-- start&#45;&gt;c93f23db&#45;3e8b&#45;4756&#45;bd20&#45;197cfe7c4845 -->
<g id="edge2" class="edge">
<title>start&#45;&gt;c93f23db&#45;3e8b&#45;4756&#45;bd20&#45;197cfe7c4845</title>
<path fill="none" stroke="black" d="M0.67,-117.61C2.46,-117.61 18.51,-117.61 41.39,-117.61"/>
<polygon fill="black" stroke="black" points="41.36,-121.11 51.36,-117.61 41.36,-114.11 41.36,-121.11"/>
<text text-anchor="middle" x="26.95" y="-124.41" font-family="Helvetica,sans-Serif" font-size="14.00">Start</text>
</g>
<!-- end -->
<g id="node2" class="node">
<title>end</title>
</g>
<!-- c93f23db&#45;3e8b&#45;4756&#45;bd20&#45;197cfe7c4845&#45;&gt;end -->
<g id="edge3" class="edge">
<title>c93f23db&#45;3e8b&#45;4756&#45;bd20&#45;197cfe7c4845&#45;&gt;end</title>
<path fill="none" stroke="black" d="M412.58,-117.61C432.37,-117.61 449.06,-117.61 459.37,-117.61"/>
<polygon fill="black" stroke="black" points="459.22,-121.11 469.22,-117.61 459.22,-114.11 459.22,-121.11"/>
<text text-anchor="middle" x="441.05" y="-124.41" font-family="Helvetica,sans-Serif" font-size="14.00">Finish</text>
</g>
<!-- ec31ba05&#45;c0c8&#45;4e20&#45;abff&#45;44de7f895cf3 -->
<g id="node4" class="node">
<title>ec31ba05&#45;c0c8&#45;4e20&#45;abff&#45;44de7f895cf3</title>
<ellipse fill="#ee0000" stroke="black" cx="232.5" cy="-26.87" rx="179.71" ry="26.74"/>
<text text-anchor="middle" x="232.5" y="-30.67" font-family="Helvetica,sans-Serif" font-size="14.00">✗ Modify</text>
<text text-anchor="middle" x="232.5" y="-15.67" font-family="Helvetica,sans-Serif" font-size="14.00">sweepai/agents/complete_code.py</text>
</g>
<!-- c93f23db&#45;3e8b&#45;4756&#45;bd20&#45;197cfe7c4845&#45;&gt;ec31ba05&#45;c0c8&#45;4e20&#45;abff&#45;44de7f895cf3 -->
<g id="edge1" class="edge">
<title>c93f23db&#45;3e8b&#45;4756&#45;bd20&#45;197cfe7c4845&#45;&gt;ec31ba05&#45;c0c8&#45;4e20&#45;abff&#45;44de7f895cf3</title>
<path fill="none" stroke="black" d="M232.5,-90.47C232.5,-82.43 232.5,-73.43 232.5,-64.82"/>
<polygon fill="black" stroke="black" points="236,-64.83 232.5,-54.83 229,-64.83 236,-64.83"/>
</g>
</g>
</svg>
