<?xml version="1.0" encoding="UTF-8" standalone="no"?>
<!DOCTYPE svg PUBLIC "-//W3C//DTD SVG 1.1//EN"
 "http://www.w3.org/Graphics/SVG/1.1/DTD/svg11.dtd">
<!-- Generated by graphviz version 8.0.3 (0)
 -->
<!-- Pages: 1 -->
<svg width="1310pt" height="415pt"
 viewBox="0.00 0.00 1310.00 415.48" xmlns="http://www.w3.org/2000/svg" xmlns:xlink="http://www.w3.org/1999/xlink">
<g id="graph0" class="graph" transform="scale(1 1) rotate(0) translate(36 379.48)">
<polygon fill="dimgray" stroke="none" points="-36,36 -36,-379.48 1274,-379.48 1274,36 -36,36"/>
<text text-anchor="middle" x="619" y="-328.28" font-family="Helvetica,sans-Serif" font-size="14.00">Sweep&#39;s Plan &amp; Progress</text>
<!-- start -->
<g id="node1" class="node">
<title>start</title>
</g>
<!-- 19b0773e&#45;a0dd&#45;4d4a&#45;bc99&#45;f7b0be110d4b -->
<g id="node3" class="node">
<title>19b0773e&#45;a0dd&#45;4d4a&#45;bc99&#45;f7b0be110d4b</title>
<ellipse fill="#0ee832" stroke="black" cx="452.5" cy="-277.61" rx="84.71" ry="26.74"/>
<text text-anchor="middle" x="452.5" y="-281.41" font-family="Helvetica,sans-Serif" font-size="14.00">✓ Modify</text>
<text text-anchor="middle" x="452.5" y="-266.41" font-family="Helvetica,sans-Serif" font-size="14.00">sweepai/api.py</text>
</g>
<!-- start&#45;&gt;19b0773e&#45;a0dd&#45;4d4a&#45;bc99&#45;f7b0be110d4b -->
<g id="edge10" class="edge">
<title>start&#45;&gt;19b0773e&#45;a0dd&#45;4d4a&#45;bc99&#45;f7b0be110d4b</title>
<path fill="none" stroke="black" d="M315.89,-277.61C318.65,-277.61 335.54,-277.61 356.56,-277.61"/>
<polygon fill="black" stroke="black" points="356.53,-281.11 366.53,-277.61 356.53,-274.11 356.53,-281.11"/>
<text text-anchor="middle" x="341.82" y="-284.41" font-family="Helvetica,sans-Serif" font-size="14.00">Start</text>
</g>
<!-- end -->
<g id="node2" class="node">
<title>end</title>
</g>
<!-- ae80fa7f&#45;2018&#45;41e0&#45;8fde&#45;116e5a869112 -->
<g id="node4" class="node">
<title>ae80fa7f&#45;2018&#45;41e0&#45;8fde&#45;116e5a869112</title>
<ellipse fill="#0ee832" stroke="black" cx="761.5" cy="-277.61" rx="108.38" ry="26.74"/>
<text text-anchor="middle" x="761.5" y="-281.41" font-family="Helvetica,sans-Serif" font-size="14.00">✓ Create</text>
<text text-anchor="middle" x="761.5" y="-266.41" font-family="Helvetica,sans-Serif" font-size="14.00">sweepai/api_test.py</text>
</g>
<!-- 19b0773e&#45;a0dd&#45;4d4a&#45;bc99&#45;f7b0be110d4b&#45;&gt;ae80fa7f&#45;2018&#45;41e0&#45;8fde&#45;116e5a869112 -->
<g id="edge5" class="edge">
<title>19b0773e&#45;a0dd&#45;4d4a&#45;bc99&#45;f7b0be110d4b&#45;&gt;ae80fa7f&#45;2018&#45;41e0&#45;8fde&#45;116e5a869112</title>
<path fill="none" stroke="black" d="M537.6,-277.61C572.47,-277.61 607.35,-277.61 642.22,-277.61"/>
<polygon fill="black" stroke="black" points="642.05,-281.11 652.05,-277.61 642.05,-274.11 642.05,-281.11"/>
</g>
<!-- 0e279427&#45;2e3d&#45;4a30&#45;873e&#45;9fdd01c2411d -->
<g id="node5" class="node">
<title>0e279427&#45;2e3d&#45;4a30&#45;873e&#45;9fdd01c2411d</title>
<polygon fill="#ee0000" stroke="black" points="297.5,-213.74 23.5,-213.74 23.5,-177.74 297.5,-177.74 297.5,-213.74"/>
<text text-anchor="middle" x="160.5" y="-192.04" font-family="Helvetica,sans-Serif" font-size="14.00">✗ Ran sandbox for `sweepai/api.py`.</text>
</g>
<!-- 19b0773e&#45;a0dd&#45;4d4a&#45;bc99&#45;f7b0be110d4b&#45;&gt;0e279427&#45;2e3d&#45;4a30&#45;873e&#45;9fdd01c2411d -->
<g id="edge1" class="edge">
<title>19b0773e&#45;a0dd&#45;4d4a&#45;bc99&#45;f7b0be110d4b&#45;&gt;0e279427&#45;2e3d&#45;4a30&#45;873e&#45;9fdd01c2411d</title>
<path fill="none" stroke="black" stroke-dasharray="5,2" d="M389.5,-259.38C344.14,-246.97 282.78,-230.19 234.99,-217.12"/>
<polygon fill="black" stroke="black" points="235.96,-213.48 225.4,-214.22 234.12,-220.23 235.96,-213.48"/>
</g>
<!-- c9ceb009&#45;66a6&#45;47fd&#45;848a&#45;1bed97e105b8 -->
<g id="node6" class="node">
<title>c9ceb009&#45;66a6&#45;47fd&#45;848a&#45;1bed97e105b8</title>
<polygon fill="#ee0000" stroke="black" points="589.5,-213.74 315.5,-213.74 315.5,-177.74 589.5,-177.74 589.5,-213.74"/>
<text text-anchor="middle" x="452.5" y="-192.04" font-family="Helvetica,sans-Serif" font-size="14.00">✗ Ran sandbox for `sweepai/api.py`.</text>
</g>
<!-- 19b0773e&#45;a0dd&#45;4d4a&#45;bc99&#45;f7b0be110d4b&#45;&gt;c9ceb009&#45;66a6&#45;47fd&#45;848a&#45;1bed97e105b8 -->
<g id="edge4" class="edge">
<title>19b0773e&#45;a0dd&#45;4d4a&#45;bc99&#45;f7b0be110d4b&#45;&gt;c9ceb009&#45;66a6&#45;47fd&#45;848a&#45;1bed97e105b8</title>
<path fill="none" stroke="black" stroke-dasharray="5,2" d="M452.5,-250.46C452.5,-242.2 452.5,-233.05 452.5,-224.67"/>
<polygon fill="black" stroke="black" points="456,-224.89 452.5,-214.89 449,-224.89 456,-224.89"/>
</g>
<!-- ae80fa7f&#45;2018&#45;41e0&#45;8fde&#45;116e5a869112&#45;&gt;end -->
<g id="edge11" class="edge">
<title>ae80fa7f&#45;2018&#45;41e0&#45;8fde&#45;116e5a869112&#45;&gt;end</title>
<path fill="none" stroke="black" d="M870.37,-277.61C889.16,-277.61 905.99,-277.61 916.43,-277.61"/>
<polygon fill="black" stroke="black" points="916.2,-281.11 926.2,-277.61 916.2,-274.11 916.2,-281.11"/>
<text text-anchor="middle" x="898.34" y="-284.41" font-family="Helvetica,sans-Serif" font-size="14.00">Finish</text>
</g>
<!-- 1543f3f9&#45;fa81&#45;4749&#45;a76b&#45;154280b873f4 -->
<g id="node7" class="node">
<title>1543f3f9&#45;fa81&#45;4749&#45;a76b&#45;154280b873f4</title>
<polygon fill="#ee0000" stroke="black" points="915,-213.74 608,-213.74 608,-177.74 915,-177.74 915,-213.74"/>
<text text-anchor="middle" x="761.5" y="-192.04" font-family="Helvetica,sans-Serif" font-size="14.00">✗ Ran sandbox for `sweepai/api_test.py`.</text>
</g>
<!-- ae80fa7f&#45;2018&#45;41e0&#45;8fde&#45;116e5a869112&#45;&gt;1543f3f9&#45;fa81&#45;4749&#45;a76b&#45;154280b873f4 -->
<g id="edge6" class="edge">
<title>ae80fa7f&#45;2018&#45;41e0&#45;8fde&#45;116e5a869112&#45;&gt;1543f3f9&#45;fa81&#45;4749&#45;a76b&#45;154280b873f4</title>
<path fill="none" stroke="black" stroke-dasharray="5,2" d="M761.5,-250.46C761.5,-242.2 761.5,-233.05 761.5,-224.67"/>
<polygon fill="black" stroke="black" points="765,-224.89 761.5,-214.89 758,-224.89 765,-224.89"/>
</g>
<!-- e2c7a940&#45;5dd4&#45;4b32&#45;b1b5&#45;2355bd422117 -->
<g id="node8" class="node">
<title>e2c7a940&#45;5dd4&#45;4b32&#45;b1b5&#45;2355bd422117</title>
<polygon fill="white" stroke="black" points="1238,-213.74 933,-213.74 933,-177.74 1238,-177.74 1238,-213.74"/>
<text text-anchor="middle" x="1085.5" y="-192.04" font-family="Helvetica,sans-Serif" font-size="14.00">▶ Ran sandbox for `sweepai/api_test.py`.</text>
</g>
<!-- ae80fa7f&#45;2018&#45;41e0&#45;8fde&#45;116e5a869112&#45;&gt;e2c7a940&#45;5dd4&#45;4b32&#45;b1b5&#45;2355bd422117 -->
<g id="edge9" class="edge">
<title>ae80fa7f&#45;2018&#45;41e0&#45;8fde&#45;116e5a869112&#45;&gt;e2c7a940&#45;5dd4&#45;4b32&#45;b1b5&#45;2355bd422117</title>
<path fill="none" stroke="black" stroke-dasharray="5,2" d="M836.65,-258.09C886.84,-245.71 952.83,-229.45 1004.24,-216.77"/>
<polygon fill="black" stroke="black" points="1004.78,-220 1013.65,-214.21 1003.1,-213.2 1004.78,-220"/>
</g>
<!-- 9697e3bc&#45;d51f&#45;4db2&#45;bfde&#45;93181385cff1 -->
<g id="node9" class="node">
<title>9697e3bc&#45;d51f&#45;4db2&#45;bfde&#45;93181385cff1</title>
<ellipse fill="#0ee832" stroke="black" cx="160.5" cy="-99.87" rx="118.17" ry="26.74"/>
<text text-anchor="middle" x="160.5" y="-103.67" font-family="Helvetica,sans-Serif" font-size="14.00">✓ Create</text>
<text text-anchor="middle" x="160.5" y="-88.67" font-family="Helvetica,sans-Serif" font-size="14.00">repo/sdk/src/agent.py</text>
</g>
<!-- 0e279427&#45;2e3d&#45;4a30&#45;873e&#45;9fdd01c2411d&#45;&gt;9697e3bc&#45;d51f&#45;4db2&#45;bfde&#45;93181385cff1 -->
<g id="edge2" class="edge">
<title>0e279427&#45;2e3d&#45;4a30&#45;873e&#45;9fdd01c2411d&#45;&gt;9697e3bc&#45;d51f&#45;4db2&#45;bfde&#45;93181385cff1</title>
<path fill="none" stroke="black" d="M160.5,-177.52C160.5,-166.33 160.5,-151.31 160.5,-137.53"/>
<polygon fill="black" stroke="black" points="164,-137.84 160.5,-127.84 157,-137.84 164,-137.84"/>
<text text-anchor="middle" x="258" y="-148.54" font-family="Helvetica,sans-Serif" font-size="14.00">Additional changes required</text>
</g>
<!-- 374f5312&#45;eb80&#45;47f1&#45;8b9d&#45;381de507f680 -->
<g id="node10" class="node">
<title>374f5312&#45;eb80&#45;47f1&#45;8b9d&#45;381de507f680</title>
<ellipse fill="yellow" stroke="black" cx="761.5" cy="-99.87" rx="108.38" ry="26.74"/>
<text text-anchor="middle" x="761.5" y="-103.67" font-family="Helvetica,sans-Serif" font-size="14.00">⋯ Modify</text>
<text text-anchor="middle" x="761.5" y="-88.67" font-family="Helvetica,sans-Serif" font-size="14.00">sweepai/api_test.py</text>
</g>
<!-- 1543f3f9&#45;fa81&#45;4749&#45;a76b&#45;154280b873f4&#45;&gt;374f5312&#45;eb80&#45;47f1&#45;8b9d&#45;381de507f680 -->
<g id="edge7" class="edge">
<title>1543f3f9&#45;fa81&#45;4749&#45;a76b&#45;154280b873f4&#45;&gt;374f5312&#45;eb80&#45;47f1&#45;8b9d&#45;381de507f680</title>
<path fill="none" stroke="black" d="M761.5,-177.52C761.5,-166.33 761.5,-151.31 761.5,-137.53"/>
<polygon fill="black" stroke="black" points="765,-137.84 761.5,-127.84 758,-137.84 765,-137.84"/>
<text text-anchor="middle" x="859" y="-148.54" font-family="Helvetica,sans-Serif" font-size="14.00">Additional changes required</text>
</g>
<!-- c1683dcb&#45;7a18&#45;4d71&#45;b263&#45;4899a207afda -->
<g id="node11" class="node">
<title>c1683dcb&#45;7a18&#45;4d71&#45;b263&#45;4899a207afda</title>
<polygon fill="#ee0000" stroke="black" points="321,-36 0,-36 0,0 321,0 321,-36"/>
<text text-anchor="middle" x="160.5" y="-14.3" font-family="Helvetica,sans-Serif" font-size="14.00">✗ Ran sandbox for `repo/sdk/src/agent.py`.</text>
</g>
<!-- 9697e3bc&#45;d51f&#45;4db2&#45;bfde&#45;93181385cff1&#45;&gt;c1683dcb&#45;7a18&#45;4d71&#45;b263&#45;4899a207afda -->
<g id="edge3" class="edge">
<title>9697e3bc&#45;d51f&#45;4db2&#45;bfde&#45;93181385cff1&#45;&gt;c1683dcb&#45;7a18&#45;4d71&#45;b263&#45;4899a207afda</title>
<path fill="none" stroke="black" stroke-dasharray="5,2" d="M160.5,-72.72C160.5,-64.46 160.5,-55.31 160.5,-46.93"/>
<polygon fill="black" stroke="black" points="164,-47.15 160.5,-37.15 157,-47.15 164,-47.15"/>
</g>
<!-- 4d06b94f&#45;3021&#45;4475&#45;ab85&#45;2e25d2fb51f5 -->
<g id="node12" class="node">
<title>4d06b94f&#45;3021&#45;4475&#45;ab85&#45;2e25d2fb51f5</title>
<polygon fill="white" stroke="black" points="914,-36 609,-36 609,0 914,0 914,-36"/>
<text text-anchor="middle" x="761.5" y="-14.3" font-family="Helvetica,sans-Serif" font-size="14.00">▶ Ran sandbox for `sweepai/api_test.py`.</text>
</g>
<!-- 374f5312&#45;eb80&#45;47f1&#45;8b9d&#45;381de507f680&#45;&gt;4d06b94f&#45;3021&#45;4475&#45;ab85&#45;2e25d2fb51f5 -->
<g id="edge8" class="edge">
<title>374f5312&#45;eb80&#45;47f1&#45;8b9d&#45;381de507f680&#45;&gt;4d06b94f&#45;3021&#45;4475&#45;ab85&#45;2e25d2fb51f5</title>
<path fill="none" stroke="black" stroke-dasharray="5,2" d="M761.5,-72.72C761.5,-64.46 761.5,-55.31 761.5,-46.93"/>
<polygon fill="black" stroke="black" points="765,-47.15 761.5,-37.15 758,-47.15 765,-47.15"/>
</g>
</g>
</svg>
