<?xml version="1.0" encoding="UTF-8" standalone="no"?>
<!DOCTYPE svg PUBLIC "-//W3C//DTD SVG 1.1//EN"
 "http://www.w3.org/Graphics/SVG/1.1/DTD/svg11.dtd">
<!-- Generated by graphviz version 2.43.0 (0)
 -->
<!-- Title: %3 Pages: 1 -->
<svg width="1476pt" height="238pt"
 viewBox="0.00 0.00 1476.00 237.74" xmlns="http://www.w3.org/2000/svg" xmlns:xlink="http://www.w3.org/1999/xlink">
<g id="graph0" class="graph" transform="scale(1 1) rotate(0) translate(36 201.74)">
<title>%3</title>
<polygon fill="dimgray" stroke="transparent" points="-36,36 -36,-201.74 1440,-201.74 1440,36 -36,36"/>
<text text-anchor="middle" x="702" y="-150.54" font-family="Helvetica,sans-Serif" font-size="14.00">Sweep&#39;s Plan &amp; Progress</text>
<!-- start -->
<g id="node1" class="node">
<title>start</title>
</g>
<!-- 829670a0&#45;bd71&#45;4222&#45;9a77&#45;83dcbc11a830 -->
<g id="node3" class="node">
<title>829670a0&#45;bd71&#45;4222&#45;9a77&#45;83dcbc11a830</title>
<ellipse fill="yellow" stroke="black" cx="260" cy="-99.87" rx="195.74" ry="26.74"/>
<text text-anchor="middle" x="260" y="-103.67" font-family="Helvetica,sans-Serif" font-size="14.00">⋯ Create</text>
<text text-anchor="middle" x="260" y="-88.67" font-family="Helvetica,sans-Serif" font-size="14.00">sweepai/agents/query_filter_agent.py</text>
</g>
<!-- start&#45;&gt;829670a0&#45;bd71&#45;4222&#45;9a77&#45;83dcbc11a830 -->
<g id="edge6" class="edge">
<title>start&#45;&gt;829670a0&#45;bd71&#45;4222&#45;9a77&#45;83dcbc11a830</title>
<path fill="none" stroke="black" d="M12.71,-99.87C16.16,-99.87 31.91,-99.87 53.91,-99.87"/>
<polygon fill="black" stroke="black" points="54.07,-103.37 64.07,-99.87 54.07,-96.37 54.07,-103.37"/>
<text text-anchor="middle" x="38.32" y="-106.67" font-family="Helvetica,sans-Serif" font-size="14.00">Start</text>
</g>
<!-- end -->
<g id="node2" class="node">
<title>end</title>
</g>
<!-- cfbf79ca&#45;7f47&#45;4495&#45;84f8&#45;32f4e43ab7a8 -->
<g id="node4" class="node">
<title>cfbf79ca&#45;7f47&#45;4495&#45;84f8&#45;32f4e43ab7a8</title>
<ellipse fill="white" stroke="black" cx="737" cy="-99.87" rx="219.41" ry="26.74"/>
<text text-anchor="middle" x="737" y="-103.67" font-family="Helvetica,sans-Serif" font-size="14.00">▶ Create</text>
<text text-anchor="middle" x="737" y="-88.67" font-family="Helvetica,sans-Serif" font-size="14.00">sweepai/agents/test_query_filter_agent.py</text>
</g>
<!-- 829670a0&#45;bd71&#45;4222&#45;9a77&#45;83dcbc11a830&#45;&gt;cfbf79ca&#45;7f47&#45;4495&#45;84f8&#45;32f4e43ab7a8 -->
<g id="edge2" class="edge">
<title>829670a0&#45;bd71&#45;4222&#45;9a77&#45;83dcbc11a830&#45;&gt;cfbf79ca&#45;7f47&#45;4495&#45;84f8&#45;32f4e43ab7a8</title>
<path fill="none" stroke="black" d="M456.11,-99.87C473.23,-99.87 490.35,-99.87 507.47,-99.87"/>
<polygon fill="black" stroke="black" points="507.55,-103.37 517.55,-99.87 507.55,-96.37 507.55,-103.37"/>
</g>
<!-- 8da552bd&#45;781c&#45;40e1&#45;8957&#45;7809e4ccfcf1 -->
<g id="node6" class="node">
<title>8da552bd&#45;781c&#45;40e1&#45;8957&#45;7809e4ccfcf1</title>
<polygon fill="white" stroke="black" points="468,-36 0,-36 0,0 468,0 468,-36"/>
<text text-anchor="middle" x="234" y="-14.3" font-family="Helvetica,sans-Serif" font-size="14.00">▶ Run GitHub Actions for `sweepai/agents/query_filter_agent.py`</text>
</g>
<!-- 829670a0&#45;bd71&#45;4222&#45;9a77&#45;83dcbc11a830&#45;&gt;8da552bd&#45;781c&#45;40e1&#45;8957&#45;7809e4ccfcf1 -->
<g id="edge1" class="edge">
<title>829670a0&#45;bd71&#45;4222&#45;9a77&#45;83dcbc11a830&#45;&gt;8da552bd&#45;781c&#45;40e1&#45;8957&#45;7809e4ccfcf1</title>
<path fill="none" stroke="black" stroke-dasharray="5,2" d="M251.49,-72.72C248.68,-64.08 245.55,-54.47 242.72,-45.79"/>
<polygon fill="black" stroke="black" points="246.01,-44.57 239.58,-36.15 239.35,-46.74 246.01,-44.57"/>
</g>
<!-- dea46a3a&#45;988d&#45;4211&#45;b1fa&#45;47d4cdc25031 -->
<g id="node5" class="node">
<title>dea46a3a&#45;988d&#45;4211&#45;b1fa&#45;47d4cdc25031</title>
<ellipse fill="white" stroke="black" cx="1171" cy="-99.87" rx="145.83" ry="26.74"/>
<text text-anchor="middle" x="1171" y="-103.67" font-family="Helvetica,sans-Serif" font-size="14.00">▶ Modify</text>
<text text-anchor="middle" x="1171" y="-88.67" font-family="Helvetica,sans-Serif" font-size="14.00">sweepai/utils/ticket_utils.py</text>
</g>
<!-- cfbf79ca&#45;7f47&#45;4495&#45;84f8&#45;32f4e43ab7a8&#45;&gt;dea46a3a&#45;988d&#45;4211&#45;b1fa&#45;47d4cdc25031 -->
<g id="edge4" class="edge">
<title>cfbf79ca&#45;7f47&#45;4495&#45;84f8&#45;32f4e43ab7a8&#45;&gt;dea46a3a&#45;988d&#45;4211&#45;b1fa&#45;47d4cdc25031</title>
<path fill="none" stroke="black" d="M956.54,-99.87C976.04,-99.87 995.54,-99.87 1015.04,-99.87"/>
<polygon fill="black" stroke="black" points="1015.24,-103.37 1025.24,-99.87 1015.24,-96.37 1015.24,-103.37"/>
</g>
<!-- 52f5df5e&#45;7620&#45;4c90&#45;b176&#45;e21b4e86267f -->
<g id="node7" class="node">
<title>52f5df5e&#45;7620&#45;4c90&#45;b176&#45;e21b4e86267f</title>
<polygon fill="white" stroke="black" points="987.5,-36 486.5,-36 486.5,0 987.5,0 987.5,-36"/>
<text text-anchor="middle" x="737" y="-14.3" font-family="Helvetica,sans-Serif" font-size="14.00">▶ Run GitHub Actions for `sweepai/agents/test_query_filter_agent.py`</text>
</g>
<!-- cfbf79ca&#45;7f47&#45;4495&#45;84f8&#45;32f4e43ab7a8&#45;&gt;52f5df5e&#45;7620&#45;4c90&#45;b176&#45;e21b4e86267f -->
<g id="edge3" class="edge">
<title>cfbf79ca&#45;7f47&#45;4495&#45;84f8&#45;32f4e43ab7a8&#45;&gt;52f5df5e&#45;7620&#45;4c90&#45;b176&#45;e21b4e86267f</title>
<path fill="none" stroke="black" stroke-dasharray="5,2" d="M737,-72.72C737,-64.27 737,-54.89 737,-46.36"/>
<polygon fill="black" stroke="black" points="740.5,-46.15 737,-36.15 733.5,-46.15 740.5,-46.15"/>
</g>
<!-- dea46a3a&#45;988d&#45;4211&#45;b1fa&#45;47d4cdc25031&#45;&gt;end -->
<g id="edge7" class="edge">
<title>dea46a3a&#45;988d&#45;4211&#45;b1fa&#45;47d4cdc25031&#45;&gt;end</title>
<path fill="none" stroke="black" d="M1316.81,-99.87C1336.57,-99.87 1353.62,-99.87 1364.07,-99.87"/>
<polygon fill="black" stroke="black" points="1364.35,-103.37 1374.35,-99.87 1364.35,-96.37 1364.35,-103.37"/>
<text text-anchor="middle" x="1345.58" y="-106.67" font-family="Helvetica,sans-Serif" font-size="14.00">Finish</text>
</g>
<!-- fbe6e392&#45;ff8b&#45;4a52&#45;b9ad&#45;32af9ba53667 -->
<g id="node8" class="node">
<title>fbe6e392&#45;ff8b&#45;4a52&#45;b9ad&#45;32af9ba53667</title>
<polygon fill="white" stroke="black" points="1404,-36 1006,-36 1006,0 1404,0 1404,-36"/>
<text text-anchor="middle" x="1205" y="-14.3" font-family="Helvetica,sans-Serif" font-size="14.00">▶ Run GitHub Actions for `sweepai/utils/ticket_utils.py`</text>
</g>
<!-- dea46a3a&#45;988d&#45;4211&#45;b1fa&#45;47d4cdc25031&#45;&gt;fbe6e392&#45;ff8b&#45;4a52&#45;b9ad&#45;32af9ba53667 -->
<g id="edge5" class="edge">
<title>dea46a3a&#45;988d&#45;4211&#45;b1fa&#45;47d4cdc25031&#45;&gt;fbe6e392&#45;ff8b&#45;4a52&#45;b9ad&#45;32af9ba53667</title>
<path fill="none" stroke="black" stroke-dasharray="5,2" d="M1182.13,-72.72C1185.85,-63.99 1189.99,-54.26 1193.71,-45.51"/>
<polygon fill="black" stroke="black" points="1197,-46.72 1197.7,-36.15 1190.56,-43.98 1197,-46.72"/>
</g>
</g>
</svg>
