<?xml version="1.0" encoding="UTF-8" standalone="no"?>
<!DOCTYPE svg PUBLIC "-//W3C//DTD SVG 1.1//EN"
 "http://www.w3.org/Graphics/SVG/1.1/DTD/svg11.dtd">
<!-- Generated by graphviz version 8.0.3 (0)
 -->
<!-- Pages: 1 -->
<svg width="1538pt" height="165pt"
 viewBox="0.00 0.00 1538.00 164.74" xmlns="http://www.w3.org/2000/svg" xmlns:xlink="http://www.w3.org/1999/xlink">
<g id="graph0" class="graph" transform="scale(1 1) rotate(0) translate(36 128.74)">
<polygon fill="dimgray" stroke="none" points="-36,36 -36,-128.74 1502,-128.74 1502,36 -36,36"/>
<text text-anchor="middle" x="733" y="-77.54" font-family="Helvetica,sans-Serif" font-size="14.00">Sweep&#39;s Plan &amp; Progress</text>
<!-- start -->
<g id="node1" class="node">
<title>start</title>
</g>
<!-- db191a2b&#45;5682&#45;453e&#45;9737&#45;406a96c95e3a -->
<g id="node3" class="node">
<title>db191a2b&#45;5682&#45;453e&#45;9737&#45;406a96c95e3a</title>
<ellipse fill="yellow" stroke="black" cx="215.5" cy="-26.87" rx="162.77" ry="26.74"/>
<text text-anchor="middle" x="215.5" y="-30.67" font-family="Helvetica,sans-Serif" font-size="14.00">⋯ Create</text>
<text text-anchor="middle" x="215.5" y="-15.67" font-family="Helvetica,sans-Serif" font-size="14.00">sweepai/agents/filter_agent.py</text>
</g>
<!-- start&#45;&gt;db191a2b&#45;5682&#45;453e&#45;9737&#45;406a96c95e3a -->
<g id="edge4" class="edge">
<title>start&#45;&gt;db191a2b&#45;5682&#45;453e&#45;9737&#45;406a96c95e3a</title>
<path fill="none" stroke="black" d="M0.66,-26.87C2.4,-26.87 18.59,-26.87 41.38,-26.87"/>
<polygon fill="black" stroke="black" points="41.29,-30.37 51.29,-26.87 41.29,-23.37 41.29,-30.37"/>
<text text-anchor="middle" x="26.93" y="-33.67" font-family="Helvetica,sans-Serif" font-size="14.00">Start</text>
</g>
<!-- end -->
<g id="node2" class="node">
<title>end</title>
</g>
<!-- 8ee6ece6&#45;96a5&#45;4439&#45;b280&#45;2695fabf3d19 -->
<g id="node4" class="node">
<title>8ee6ece6&#45;96a5&#45;4439&#45;b280&#45;2695fabf3d19</title>
<ellipse fill="white" stroke="black" cx="559.5" cy="-26.87" rx="145.83" ry="26.74"/>
<text text-anchor="middle" x="559.5" y="-30.67" font-family="Helvetica,sans-Serif" font-size="14.00">▶ Modify</text>
<text text-anchor="middle" x="559.5" y="-15.67" font-family="Helvetica,sans-Serif" font-size="14.00">sweepai/utils/ticket_utils.py</text>
</g>
<!-- db191a2b&#45;5682&#45;453e&#45;9737&#45;406a96c95e3a&#45;&gt;8ee6ece6&#45;96a5&#45;4439&#45;b280&#45;2695fabf3d19 -->
<g id="edge1" class="edge">
<title>db191a2b&#45;5682&#45;453e&#45;9737&#45;406a96c95e3a&#45;&gt;8ee6ece6&#45;96a5&#45;4439&#45;b280&#45;2695fabf3d19</title>
<path fill="none" stroke="black" d="M378.77,-26.87C386.69,-26.87 394.62,-26.87 402.55,-26.87"/>
<polygon fill="black" stroke="black" points="402.36,-30.37 412.36,-26.87 402.36,-23.37 402.36,-30.37"/>
</g>
<!-- 998ae475&#45;9a14&#45;4e75&#45;bd69&#45;77f83b1691b5 -->
<g id="node5" class="node">
<title>998ae475&#45;9a14&#45;4e75&#45;bd69&#45;77f83b1691b5</title>
<ellipse fill="white" stroke="black" cx="886.5" cy="-26.87" rx="145.83" ry="26.74"/>
<text text-anchor="middle" x="886.5" y="-30.67" font-family="Helvetica,sans-Serif" font-size="14.00">▶ Modify</text>
<text text-anchor="middle" x="886.5" y="-15.67" font-family="Helvetica,sans-Serif" font-size="14.00">sweepai/utils/ticket_utils.py</text>
</g>
<!-- 8ee6ece6&#45;96a5&#45;4439&#45;b280&#45;2695fabf3d19&#45;&gt;998ae475&#45;9a14&#45;4e75&#45;bd69&#45;77f83b1691b5 -->
<g id="edge2" class="edge">
<title>8ee6ece6&#45;96a5&#45;4439&#45;b280&#45;2695fabf3d19&#45;&gt;998ae475&#45;9a14&#45;4e75&#45;bd69&#45;77f83b1691b5</title>
<path fill="none" stroke="black" d="M705.76,-26.87C713.68,-26.87 721.61,-26.87 729.54,-26.87"/>
<polygon fill="black" stroke="black" points="729.35,-30.37 739.35,-26.87 729.35,-23.37 729.35,-30.37"/>
</g>
<!-- ea0d764c&#45;a14c&#45;4fff&#45;b767&#45;88dfd8bb74a8 -->
<g id="node6" class="node">
<title>ea0d764c&#45;a14c&#45;4fff&#45;b767&#45;88dfd8bb74a8</title>
<ellipse fill="white" stroke="black" cx="1237.5" cy="-26.87" rx="169.91" ry="26.74"/>
<text text-anchor="middle" x="1237.5" y="-30.67" font-family="Helvetica,sans-Serif" font-size="14.00">▶ Create</text>
<text text-anchor="middle" x="1237.5" y="-15.67" font-family="Helvetica,sans-Serif" font-size="14.00">tests/agents/test_filter_agent.py</text>
</g>
<!-- 998ae475&#45;9a14&#45;4e75&#45;bd69&#45;77f83b1691b5&#45;&gt;ea0d764c&#45;a14c&#45;4fff&#45;b767&#45;88dfd8bb74a8 -->
<g id="edge3" class="edge">
<title>998ae475&#45;9a14&#45;4e75&#45;bd69&#45;77f83b1691b5&#45;&gt;ea0d764c&#45;a14c&#45;4fff&#45;b767&#45;88dfd8bb74a8</title>
<path fill="none" stroke="black" d="M1032.52,-26.87C1040.5,-26.87 1048.49,-26.87 1056.47,-26.87"/>
<polygon fill="black" stroke="black" points="1056.35,-30.37 1066.35,-26.87 1056.35,-23.37 1056.35,-30.37"/>
</g>
<!-- ea0d764c&#45;a14c&#45;4fff&#45;b767&#45;88dfd8bb74a8&#45;&gt;end -->
<g id="edge5" class="edge">
<title>ea0d764c&#45;a14c&#45;4fff&#45;b767&#45;88dfd8bb74a8&#45;&gt;end</title>
<path fill="none" stroke="black" d="M1407.67,-26.87C1427.33,-26.87 1444.02,-26.87 1454.34,-26.87"/>
<polygon fill="black" stroke="black" points="1454.21,-30.37 1464.21,-26.87 1454.21,-23.37 1454.21,-30.37"/>
<text text-anchor="middle" x="1436.1" y="-33.67" font-family="Helvetica,sans-Serif" font-size="14.00">Finish</text>
</g>
</g>
</svg>
