<?xml version="1.0" encoding="UTF-8" standalone="no"?>
<!DOCTYPE svg PUBLIC "-//W3C//DTD SVG 1.1//EN"
 "http://www.w3.org/Graphics/SVG/1.1/DTD/svg11.dtd">
<!-- Generated by graphviz version 8.0.3 (0)
 -->
<!-- Pages: 1 -->
<svg width="387pt" height="238pt"
 viewBox="0.00 0.00 387.00 237.74" xmlns="http://www.w3.org/2000/svg" xmlns:xlink="http://www.w3.org/1999/xlink">
<g id="graph0" class="graph" transform="scale(1 1) rotate(0) translate(36 201.74)">
<polygon fill="dimgray" stroke="none" points="-36,36 -36,-201.74 351,-201.74 351,36 -36,36"/>
<text text-anchor="middle" x="157.5" y="-150.54" font-family="Helvetica,sans-Serif" font-size="14.00">Sweep&#39;s Plan &amp; Progress</text>
<!-- start -->
<g id="node1" class="node">
<title>start</title>
</g>
<!-- 9699faf0&#45;fdbb&#45;43ef&#45;a0d9&#45;b544c2d14988 -->
<g id="node3" class="node">
<title>9699faf0&#45;fdbb&#45;43ef&#45;a0d9&#45;b544c2d14988</title>
<ellipse fill="#0ee832" stroke="black" cx="157.5" cy="-99.87" rx="84.71" ry="26.74"/>
<text text-anchor="middle" x="157.5" y="-103.67" font-family="Helvetica,sans-Serif" font-size="14.00">✓ Modify</text>
<text text-anchor="middle" x="157.5" y="-88.67" font-family="Helvetica,sans-Serif" font-size="14.00">sweepai/api.py</text>
</g>
<!-- start&#45;&gt;9699faf0&#45;fdbb&#45;43ef&#45;a0d9&#45;b544c2d14988 -->
<g id="edge2" class="edge">
<title>start&#45;&gt;9699faf0&#45;fdbb&#45;43ef&#45;a0d9&#45;b544c2d14988</title>
<path fill="none" stroke="black" d="M20.89,-99.87C23.65,-99.87 40.54,-99.87 61.56,-99.87"/>
<polygon fill="black" stroke="black" points="61.53,-103.37 71.53,-99.87 61.53,-96.37 61.53,-103.37"/>
<text text-anchor="middle" x="46.82" y="-106.67" font-family="Helvetica,sans-Serif" font-size="14.00">Start</text>
</g>
<!-- end -->
<g id="node2" class="node">
<title>end</title>
</g>
<!-- 9699faf0&#45;fdbb&#45;43ef&#45;a0d9&#45;b544c2d14988&#45;&gt;end -->
<g id="edge3" class="edge">
<title>9699faf0&#45;fdbb&#45;43ef&#45;a0d9&#45;b544c2d14988&#45;&gt;end</title>
<path fill="none" stroke="black" d="M242.34,-99.87C261.06,-99.87 278.51,-99.87 289.32,-99.87"/>
<polygon fill="black" stroke="black" points="289.19,-103.37 299.19,-99.87 289.19,-96.37 289.19,-103.37"/>
<text text-anchor="middle" x="271.18" y="-106.67" font-family="Helvetica,sans-Serif" font-size="14.00">Finish</text>
</g>
<!-- 3c1d04dd&#45;4033&#45;445b&#45;9ea3&#45;ae825294517d -->
<g id="node4" class="node">
<title>3c1d04dd&#45;4033&#45;445b&#45;9ea3&#45;ae825294517d</title>
<polygon fill="yellow" stroke="black" points="315,-36 0,-36 0,0 315,0 315,-36"/>
<text text-anchor="middle" x="157.5" y="-14.3" font-family="Helvetica,sans-Serif" font-size="14.00">⋯ Run GitHub Actions for `sweepai/api.py`</text>
</g>
<!-- 9699faf0&#45;fdbb&#45;43ef&#45;a0d9&#45;b544c2d14988&#45;&gt;3c1d04dd&#45;4033&#45;445b&#45;9ea3&#45;ae825294517d -->
<g id="edge1" class="edge">
<title>9699faf0&#45;fdbb&#45;43ef&#45;a0d9&#45;b544c2d14988&#45;&gt;3c1d04dd&#45;4033&#45;445b&#45;9ea3&#45;ae825294517d</title>
<path fill="none" stroke="black" stroke-dasharray="5,2" d="M157.5,-72.72C157.5,-64.46 157.5,-55.31 157.5,-46.93"/>
<polygon fill="black" stroke="black" points="161,-47.15 157.5,-37.15 154,-47.15 161,-47.15"/>
</g>
</g>
</svg>
