<?xml version="1.0" encoding="UTF-8" standalone="no"?>
<!DOCTYPE svg PUBLIC "-//W3C//DTD SVG 1.1//EN"
 "http://www.w3.org/Graphics/SVG/1.1/DTD/svg11.dtd">
<!-- Generated by graphviz version 8.0.3 (0)
 -->
<!-- Pages: 1 -->
<svg width="910pt" height="238pt"
 viewBox="0.00 0.00 909.50 237.74" xmlns="http://www.w3.org/2000/svg" xmlns:xlink="http://www.w3.org/1999/xlink">
<g id="graph0" class="graph" transform="scale(1 1) rotate(0) translate(36 201.74)">
<polygon fill="dimgray" stroke="none" points="-36,36 -36,-201.74 873.5,-201.74 873.5,36 -36,36"/>
<text text-anchor="middle" x="418.75" y="-150.54" font-family="Helvetica,sans-Serif" font-size="14.00">Sweep&#39;s Plan &amp; Progress</text>
<!-- start -->
<g id="node1" class="node">
<title>start</title>
</g>
<!-- 7d9c269d&#45;2515&#45;4590&#45;b840&#45;9c348a6016e3 -->
<g id="node3" class="node">
<title>7d9c269d&#45;2515&#45;4590&#45;b840&#45;9c348a6016e3</title>
<ellipse fill="yellow" stroke="black" cx="252.5" cy="-99.87" rx="162.77" ry="26.74"/>
<text text-anchor="middle" x="252.5" y="-103.67" font-family="Helvetica,sans-Serif" font-size="14.00">⋯ Create</text>
<text text-anchor="middle" x="252.5" y="-88.67" font-family="Helvetica,sans-Serif" font-size="14.00">sweepai/agents/filter_agent.py</text>
</g>
<!-- start&#45;&gt;7d9c269d&#45;2515&#45;4590&#45;b840&#45;9c348a6016e3 -->
<g id="edge4" class="edge">
<title>start&#45;&gt;7d9c269d&#45;2515&#45;4590&#45;b840&#45;9c348a6016e3</title>
<path fill="none" stroke="black" d="M37.66,-99.87C39.4,-99.87 55.59,-99.87 78.38,-99.87"/>
<polygon fill="black" stroke="black" points="78.29,-103.37 88.29,-99.87 78.29,-96.37 78.29,-103.37"/>
<text text-anchor="middle" x="63.93" y="-106.67" font-family="Helvetica,sans-Serif" font-size="14.00">Start</text>
</g>
<!-- end -->
<g id="node2" class="node">
<title>end</title>
</g>
<!-- 276a65a0&#45;7f4c&#45;46fc&#45;8766&#45;c3c501c22482 -->
<g id="node4" class="node">
<title>276a65a0&#45;7f4c&#45;46fc&#45;8766&#45;c3c501c22482</title>
<ellipse fill="white" stroke="black" cx="617.5" cy="-99.87" rx="145.83" ry="26.74"/>
<text text-anchor="middle" x="617.5" y="-103.67" font-family="Helvetica,sans-Serif" font-size="14.00">▶ Modify</text>
<text text-anchor="middle" x="617.5" y="-88.67" font-family="Helvetica,sans-Serif" font-size="14.00">sweepai/utils/ticket_utils.py</text>
</g>
<!-- 7d9c269d&#45;2515&#45;4590&#45;b840&#45;9c348a6016e3&#45;&gt;276a65a0&#45;7f4c&#45;46fc&#45;8766&#45;c3c501c22482 -->
<g id="edge2" class="edge">
<title>7d9c269d&#45;2515&#45;4590&#45;b840&#45;9c348a6016e3&#45;&gt;276a65a0&#45;7f4c&#45;46fc&#45;8766&#45;c3c501c22482</title>
<path fill="none" stroke="black" d="M415.75,-99.87C430.65,-99.87 445.56,-99.87 460.46,-99.87"/>
<polygon fill="black" stroke="black" points="460.31,-103.37 470.31,-99.87 460.31,-96.37 460.31,-103.37"/>
</g>
<!-- 4081cd86&#45;0605&#45;46c3&#45;85d2&#45;608a2122e1cd -->
<g id="node5" class="node">
<title>4081cd86&#45;0605&#45;46c3&#45;85d2&#45;608a2122e1cd</title>
<polygon fill="white" stroke="black" points="421,-36 0,-36 0,0 421,0 421,-36"/>
<text text-anchor="middle" x="210.5" y="-14.3" font-family="Helvetica,sans-Serif" font-size="14.00">▶ Run GitHub Actions for `sweepai/agents/filter_agent.py`</text>
</g>
<!-- 7d9c269d&#45;2515&#45;4590&#45;b840&#45;9c348a6016e3&#45;&gt;4081cd86&#45;0605&#45;46c3&#45;85d2&#45;608a2122e1cd -->
<g id="edge1" class="edge">
<title>7d9c269d&#45;2515&#45;4590&#45;b840&#45;9c348a6016e3&#45;&gt;4081cd86&#45;0605&#45;46c3&#45;85d2&#45;608a2122e1cd</title>
<path fill="none" stroke="black" stroke-dasharray="5,2" d="M238.98,-73.16C234.38,-64.41 229.23,-54.62 224.59,-45.79"/>
<polygon fill="black" stroke="black" points="227.37,-44.56 219.62,-37.34 221.17,-47.82 227.37,-44.56"/>
</g>
<!-- 276a65a0&#45;7f4c&#45;46fc&#45;8766&#45;c3c501c22482&#45;&gt;end -->
<g id="edge5" class="edge">
<title>276a65a0&#45;7f4c&#45;46fc&#45;8766&#45;c3c501c22482&#45;&gt;end</title>
<path fill="none" stroke="black" d="M763.59,-99.87C783.23,-99.87 800.16,-99.87 810.56,-99.87"/>
<polygon fill="black" stroke="black" points="810.21,-103.37 820.21,-99.87 810.21,-96.37 810.21,-103.37"/>
<text text-anchor="middle" x="792.08" y="-106.67" font-family="Helvetica,sans-Serif" font-size="14.00">Finish</text>
</g>
<!-- e839f0b0&#45;4a76&#45;45fd&#45;9af3&#45;b315d26b2ff2 -->
<g id="node6" class="node">
<title>e839f0b0&#45;4a76&#45;45fd&#45;9af3&#45;b315d26b2ff2</title>
<polygon fill="white" stroke="black" points="837.5,-36 439.5,-36 439.5,0 837.5,0 837.5,-36"/>
<text text-anchor="middle" x="638.5" y="-14.3" font-family="Helvetica,sans-Serif" font-size="14.00">▶ Run GitHub Actions for `sweepai/utils/ticket_utils.py`</text>
</g>
<!-- 276a65a0&#45;7f4c&#45;46fc&#45;8766&#45;c3c501c22482&#45;&gt;e839f0b0&#45;4a76&#45;45fd&#45;9af3&#45;b315d26b2ff2 -->
<g id="edge3" class="edge">
<title>276a65a0&#45;7f4c&#45;46fc&#45;8766&#45;c3c501c22482&#45;&gt;e839f0b0&#45;4a76&#45;45fd&#45;9af3&#45;b315d26b2ff2</title>
<path fill="none" stroke="black" stroke-dasharray="5,2" d="M624.38,-72.72C626.57,-64.37 629.01,-55.1 631.23,-46.65"/>
<polygon fill="black" stroke="black" points="634.83,-47.71 633.99,-37.15 628.06,-45.93 634.83,-47.71"/>
</g>
</g>
</svg>
