<?xml version="1.0" encoding="UTF-8" standalone="no"?>
<!DOCTYPE svg PUBLIC "-//W3C//DTD SVG 1.1//EN"
 "http://www.w3.org/Graphics/SVG/1.1/DTD/svg11.dtd">
<!-- Generated by graphviz version 8.0.3 (0)
 -->
<!-- Pages: 1 -->
<svg width="385pt" height="238pt"
 viewBox="0.00 0.00 385.00 237.74" xmlns="http://www.w3.org/2000/svg" xmlns:xlink="http://www.w3.org/1999/xlink">
<g id="graph0" class="graph" transform="scale(1 1) rotate(0) translate(36 201.74)">
<polygon fill="dimgray" stroke="none" points="-36,36 -36,-201.74 349,-201.74 349,36 -36,36"/>
<text text-anchor="middle" x="156.5" y="-150.54" font-family="Helvetica,sans-Serif" font-size="14.00">Sweep&#39;s Plan &amp; Progress</text>
<!-- start -->
<g id="node1" class="node">
<title>start</title>
</g>
<!-- b907948a&#45;d9e8&#45;4f93&#45;9d34&#45;402ee329c356 -->
<g id="node3" class="node">
<title>b907948a&#45;d9e8&#45;4f93&#45;9d34&#45;402ee329c356</title>
<ellipse fill="#0ee832" stroke="black" cx="156.5" cy="-99.87" rx="84.71" ry="26.74"/>
<text text-anchor="middle" x="156.5" y="-103.67" font-family="Helvetica,sans-Serif" font-size="14.00">✓ Modify</text>
<text text-anchor="middle" x="156.5" y="-88.67" font-family="Helvetica,sans-Serif" font-size="14.00">sweepai/api.py</text>
</g>
<!-- start&#45;&gt;b907948a&#45;d9e8&#45;4f93&#45;9d34&#45;402ee329c356 -->
<g id="edge2" class="edge">
<title>start&#45;&gt;b907948a&#45;d9e8&#45;4f93&#45;9d34&#45;402ee329c356</title>
<path fill="none" stroke="black" d="M19.89,-99.87C22.65,-99.87 39.54,-99.87 60.56,-99.87"/>
<polygon fill="black" stroke="black" points="60.53,-103.37 70.53,-99.87 60.53,-96.37 60.53,-103.37"/>
<text text-anchor="middle" x="45.82" y="-106.67" font-family="Helvetica,sans-Serif" font-size="14.00">Start</text>
</g>
<!-- end -->
<g id="node2" class="node">
<title>end</title>
</g>
<!-- b907948a&#45;d9e8&#45;4f93&#45;9d34&#45;402ee329c356&#45;&gt;end -->
<g id="edge3" class="edge">
<title>b907948a&#45;d9e8&#45;4f93&#45;9d34&#45;402ee329c356&#45;&gt;end</title>
<path fill="none" stroke="black" d="M241.34,-99.87C260.06,-99.87 277.51,-99.87 288.32,-99.87"/>
<polygon fill="black" stroke="black" points="288.19,-103.37 298.19,-99.87 288.19,-96.37 288.19,-103.37"/>
<text text-anchor="middle" x="270.18" y="-106.67" font-family="Helvetica,sans-Serif" font-size="14.00">Finish</text>
</g>
<!-- fa5c4055&#45;bc31&#45;4ae0&#45;9a02&#45;d1f3aef67c0a -->
<g id="node4" class="node">
<title>fa5c4055&#45;bc31&#45;4ae0&#45;9a02&#45;d1f3aef67c0a</title>
<polygon fill="#0ee832" stroke="black" points="313,-36 0,-36 0,0 313,0 313,-36"/>
<text text-anchor="middle" x="156.5" y="-14.3" font-family="Helvetica,sans-Serif" font-size="14.00">✓ Run GitHub Actions for `sweepai/api.py`</text>
</g>
<!-- b907948a&#45;d9e8&#45;4f93&#45;9d34&#45;402ee329c356&#45;&gt;fa5c4055&#45;bc31&#45;4ae0&#45;9a02&#45;d1f3aef67c0a -->
<g id="edge1" class="edge">
<title>b907948a&#45;d9e8&#45;4f93&#45;9d34&#45;402ee329c356&#45;&gt;fa5c4055&#45;bc31&#45;4ae0&#45;9a02&#45;d1f3aef67c0a</title>
<path fill="none" stroke="black" stroke-dasharray="5,2" d="M156.5,-72.72C156.5,-64.46 156.5,-55.31 156.5,-46.93"/>
<polygon fill="black" stroke="black" points="160,-47.15 156.5,-37.15 153,-47.15 160,-47.15"/>
</g>
</g>
</svg>
