<?xml version="1.0" encoding="UTF-8" standalone="no"?>
<!DOCTYPE svg PUBLIC "-//W3C//DTD SVG 1.1//EN"
 "http://www.w3.org/Graphics/SVG/1.1/DTD/svg11.dtd">
<!-- Generated by graphviz version 2.43.0 (0)
 -->
<!-- Title: %3 Pages: 1 -->
<svg width="1840pt" height="238pt"
 viewBox="0.00 0.00 1839.50 237.74" xmlns="http://www.w3.org/2000/svg" xmlns:xlink="http://www.w3.org/1999/xlink">
<g id="graph0" class="graph" transform="scale(1 1) rotate(0) translate(36 201.74)">
<title>%3</title>
<polygon fill="dimgray" stroke="transparent" points="-36,36 -36,-201.74 1803.5,-201.74 1803.5,36 -36,36"/>
<text text-anchor="middle" x="883.75" y="-150.54" font-family="Helvetica,sans-Serif" font-size="14.00">Sweep&#39;s Plan &amp; Progress</text>
<!-- start -->
<g id="node1" class="node">
<title>start</title>
</g>
<!-- beae3132&#45;5be8&#45;49cf&#45;869e&#45;396eb9398709 -->
<g id="node3" class="node">
<title>beae3132&#45;5be8&#45;49cf&#45;869e&#45;396eb9398709</title>
<ellipse fill="#0ee832" stroke="black" cx="255.5" cy="-99.87" rx="162.77" ry="26.74"/>
<text text-anchor="middle" x="255.5" y="-103.67" font-family="Helvetica,sans-Serif" font-size="14.00">✓ Create</text>
<text text-anchor="middle" x="255.5" y="-88.67" font-family="Helvetica,sans-Serif" font-size="14.00">sweepai/agents/filter_agent.py</text>
</g>
<!-- start&#45;&gt;beae3132&#45;5be8&#45;49cf&#45;869e&#45;396eb9398709 -->
<g id="edge8" class="edge">
<title>start&#45;&gt;beae3132&#45;5be8&#45;49cf&#45;869e&#45;396eb9398709</title>
<path fill="none" stroke="black" d="M41.12,-99.87C44.4,-99.87 60.5,-99.87 82.52,-99.87"/>
<polygon fill="black" stroke="black" points="82.67,-103.37 92.67,-99.87 82.67,-96.37 82.67,-103.37"/>
<text text-anchor="middle" x="66.93" y="-106.67" font-family="Helvetica,sans-Serif" font-size="14.00">Start</text>
</g>
<!-- end -->
<g id="node2" class="node">
<title>end</title>
</g>
<!-- c0ed44a3&#45;71f9&#45;4ce1&#45;8e1c&#45;21c86c193127 -->
<g id="node4" class="node">
<title>c0ed44a3&#45;71f9&#45;4ce1&#45;8e1c&#45;21c86c193127</title>
<ellipse fill="white" stroke="black" cx="642.5" cy="-99.87" rx="145.83" ry="26.74"/>
<text text-anchor="middle" x="642.5" y="-103.67" font-family="Helvetica,sans-Serif" font-size="14.00">▶ Modify</text>
<text text-anchor="middle" x="642.5" y="-88.67" font-family="Helvetica,sans-Serif" font-size="14.00">sweepai/utils/ticket_utils.py</text>
</g>
<!-- beae3132&#45;5be8&#45;49cf&#45;869e&#45;396eb9398709&#45;&gt;c0ed44a3&#45;71f9&#45;4ce1&#45;8e1c&#45;21c86c193127 -->
<g id="edge2" class="edge">
<title>beae3132&#45;5be8&#45;49cf&#45;869e&#45;396eb9398709&#45;&gt;c0ed44a3&#45;71f9&#45;4ce1&#45;8e1c&#45;21c86c193127</title>
<path fill="none" stroke="black" d="M418.39,-99.87C441.14,-99.87 463.89,-99.87 486.64,-99.87"/>
<polygon fill="black" stroke="black" points="486.74,-103.37 496.74,-99.87 486.74,-96.37 486.74,-103.37"/>
</g>
<!-- a598cae6&#45;7bda&#45;4021&#45;9d60&#45;d14e57412094 -->
<g id="node7" class="node">
<title>a598cae6&#45;7bda&#45;4021&#45;9d60&#45;d14e57412094</title>
<polygon fill="yellow" stroke="black" points="425,-36 0,-36 0,0 425,0 425,-36"/>
<text text-anchor="middle" x="212.5" y="-14.3" font-family="Helvetica,sans-Serif" font-size="14.00">⋯ Run GitHub Actions for `sweepai/agents/filter_agent.py`</text>
</g>
<!-- beae3132&#45;5be8&#45;49cf&#45;869e&#45;396eb9398709&#45;&gt;a598cae6&#45;7bda&#45;4021&#45;9d60&#45;d14e57412094 -->
<g id="edge1" class="edge">
<title>beae3132&#45;5be8&#45;49cf&#45;869e&#45;396eb9398709&#45;&gt;a598cae6&#45;7bda&#45;4021&#45;9d60&#45;d14e57412094</title>
<path fill="none" stroke="black" stroke-dasharray="5,2" d="M241.42,-72.72C236.67,-63.9 231.37,-54.05 226.62,-45.23"/>
<polygon fill="black" stroke="black" points="229.55,-43.29 221.73,-36.15 223.39,-46.61 229.55,-43.29"/>
</g>
<!-- c6e082ff&#45;e9e9&#45;40b1&#45;8ac8&#45;81d01238e07d -->
<g id="node5" class="node">
<title>c6e082ff&#45;e9e9&#45;40b1&#45;8ac8&#45;81d01238e07d</title>
<ellipse fill="white" stroke="black" cx="1105.5" cy="-99.87" rx="212.68" ry="26.74"/>
<text text-anchor="middle" x="1105.5" y="-103.67" font-family="Helvetica,sans-Serif" font-size="14.00">▶ Create</text>
<text text-anchor="middle" x="1105.5" y="-88.67" font-family="Helvetica,sans-Serif" font-size="14.00">sweepai/agents/tests/test_filter_agent.py</text>
</g>
<!-- c0ed44a3&#45;71f9&#45;4ce1&#45;8e1c&#45;21c86c193127&#45;&gt;c6e082ff&#45;e9e9&#45;40b1&#45;8ac8&#45;81d01238e07d -->
<g id="edge4" class="edge">
<title>c0ed44a3&#45;71f9&#45;4ce1&#45;8e1c&#45;21c86c193127&#45;&gt;c6e082ff&#45;e9e9&#45;40b1&#45;8ac8&#45;81d01238e07d</title>
<path fill="none" stroke="black" d="M788.54,-99.87C819.83,-99.87 851.11,-99.87 882.39,-99.87"/>
<polygon fill="black" stroke="black" points="882.55,-103.37 892.55,-99.87 882.55,-96.37 882.55,-103.37"/>
</g>
<!-- f0eb91a4&#45;1b84&#45;46a8&#45;97dd&#45;2860b94aaa2c -->
<g id="node8" class="node">
<title>f0eb91a4&#45;1b84&#45;46a8&#45;97dd&#45;2860b94aaa2c</title>
<polygon fill="white" stroke="black" points="841.5,-36 443.5,-36 443.5,0 841.5,0 841.5,-36"/>
<text text-anchor="middle" x="642.5" y="-14.3" font-family="Helvetica,sans-Serif" font-size="14.00">▶ Run GitHub Actions for `sweepai/utils/ticket_utils.py`</text>
</g>
<!-- c0ed44a3&#45;71f9&#45;4ce1&#45;8e1c&#45;21c86c193127&#45;&gt;f0eb91a4&#45;1b84&#45;46a8&#45;97dd&#45;2860b94aaa2c -->
<g id="edge3" class="edge">
<title>c0ed44a3&#45;71f9&#45;4ce1&#45;8e1c&#45;21c86c193127&#45;&gt;f0eb91a4&#45;1b84&#45;46a8&#45;97dd&#45;2860b94aaa2c</title>
<path fill="none" stroke="black" stroke-dasharray="5,2" d="M642.5,-72.72C642.5,-64.27 642.5,-54.89 642.5,-46.36"/>
<polygon fill="black" stroke="black" points="646,-46.15 642.5,-36.15 639,-46.15 646,-46.15"/>
</g>
<!-- a3f9a472&#45;5c54&#45;49c9&#45;bf91&#45;2af3164b96d8 -->
<g id="node6" class="node">
<title>a3f9a472&#45;5c54&#45;49c9&#45;bf91&#45;2af3164b96d8</title>
<ellipse fill="white" stroke="black" cx="1534.5" cy="-99.87" rx="145.83" ry="26.74"/>
<text text-anchor="middle" x="1534.5" y="-103.67" font-family="Helvetica,sans-Serif" font-size="14.00">▶ Modify</text>
<text text-anchor="middle" x="1534.5" y="-88.67" font-family="Helvetica,sans-Serif" font-size="14.00">sweepai/utils/ticket_utils.py</text>
</g>
<!-- c6e082ff&#45;e9e9&#45;40b1&#45;8ac8&#45;81d01238e07d&#45;&gt;a3f9a472&#45;5c54&#45;49c9&#45;bf91&#45;2af3164b96d8 -->
<g id="edge6" class="edge">
<title>c6e082ff&#45;e9e9&#45;40b1&#45;8ac8&#45;81d01238e07d&#45;&gt;a3f9a472&#45;5c54&#45;49c9&#45;bf91&#45;2af3164b96d8</title>
<path fill="none" stroke="black" d="M1318.74,-99.87C1338.69,-99.87 1358.64,-99.87 1378.59,-99.87"/>
<polygon fill="black" stroke="black" points="1378.7,-103.37 1388.7,-99.87 1378.7,-96.37 1378.7,-103.37"/>
</g>
<!-- 199f17a3&#45;8e64&#45;4628&#45;a699&#45;c6f6c694766b -->
<g id="node9" class="node">
<title>199f17a3&#45;8e64&#45;4628&#45;a699&#45;c6f6c694766b</title>
<polygon fill="white" stroke="black" points="1351.5,-36 859.5,-36 859.5,0 1351.5,0 1351.5,-36"/>
<text text-anchor="middle" x="1105.5" y="-14.3" font-family="Helvetica,sans-Serif" font-size="14.00">▶ Run GitHub Actions for `sweepai/agents/tests/test_filter_agent.py`</text>
</g>
<!-- c6e082ff&#45;e9e9&#45;40b1&#45;8ac8&#45;81d01238e07d&#45;&gt;199f17a3&#45;8e64&#45;4628&#45;a699&#45;c6f6c694766b -->
<g id="edge5" class="edge">
<title>c6e082ff&#45;e9e9&#45;40b1&#45;8ac8&#45;81d01238e07d&#45;&gt;199f17a3&#45;8e64&#45;4628&#45;a699&#45;c6f6c694766b</title>
<path fill="none" stroke="black" stroke-dasharray="5,2" d="M1105.5,-72.72C1105.5,-64.27 1105.5,-54.89 1105.5,-46.36"/>
<polygon fill="black" stroke="black" points="1109,-46.15 1105.5,-36.15 1102,-46.15 1109,-46.15"/>
</g>
<!-- a3f9a472&#45;5c54&#45;49c9&#45;bf91&#45;2af3164b96d8&#45;&gt;end -->
<g id="edge9" class="edge">
<title>a3f9a472&#45;5c54&#45;49c9&#45;bf91&#45;2af3164b96d8&#45;&gt;end</title>
<path fill="none" stroke="black" d="M1680.31,-99.87C1700.07,-99.87 1717.12,-99.87 1727.57,-99.87"/>
<polygon fill="black" stroke="black" points="1727.85,-103.37 1737.85,-99.87 1727.85,-96.37 1727.85,-103.37"/>
<text text-anchor="middle" x="1709.08" y="-106.67" font-family="Helvetica,sans-Serif" font-size="14.00">Finish</text>
</g>
<!-- 1c0915ce&#45;eb67&#45;4904&#45;beb0&#45;925500cc1b87 -->
<g id="node10" class="node">
<title>1c0915ce&#45;eb67&#45;4904&#45;beb0&#45;925500cc1b87</title>
<polygon fill="white" stroke="black" points="1767.5,-36 1369.5,-36 1369.5,0 1767.5,0 1767.5,-36"/>
<text text-anchor="middle" x="1568.5" y="-14.3" font-family="Helvetica,sans-Serif" font-size="14.00">▶ Run GitHub Actions for `sweepai/utils/ticket_utils.py`</text>
</g>
<!-- a3f9a472&#45;5c54&#45;49c9&#45;bf91&#45;2af3164b96d8&#45;&gt;1c0915ce&#45;eb67&#45;4904&#45;beb0&#45;925500cc1b87 -->
<g id="edge7" class="edge">
<title>a3f9a472&#45;5c54&#45;49c9&#45;bf91&#45;2af3164b96d8&#45;&gt;1c0915ce&#45;eb67&#45;4904&#45;beb0&#45;925500cc1b87</title>
<path fill="none" stroke="black" stroke-dasharray="5,2" d="M1545.63,-72.72C1549.35,-63.99 1553.49,-54.26 1557.21,-45.51"/>
<polygon fill="black" stroke="black" points="1560.5,-46.72 1561.2,-36.15 1554.06,-43.98 1560.5,-46.72"/>
</g>
</g>
</svg>
