<?xml version="1.0" encoding="UTF-8" standalone="no"?>
<!DOCTYPE svg PUBLIC "-//W3C//DTD SVG 1.1//EN"
 "http://www.w3.org/Graphics/SVG/1.1/DTD/svg11.dtd">
<!-- Generated by graphviz version 8.0.3 (0)
 -->
<!-- Pages: 1 -->
<svg width="914pt" height="238pt"
 viewBox="0.00 0.00 913.50 237.74" xmlns="http://www.w3.org/2000/svg" xmlns:xlink="http://www.w3.org/1999/xlink">
<g id="graph0" class="graph" transform="scale(1 1) rotate(0) translate(36 201.74)">
<polygon fill="dimgray" stroke="none" points="-36,36 -36,-201.74 877.5,-201.74 877.5,36 -36,36"/>
<text text-anchor="middle" x="420.75" y="-150.54" font-family="Helvetica,sans-Serif" font-size="14.00">Sweep&#39;s Plan &amp; Progress</text>
<!-- start -->
<g id="node1" class="node">
<title>start</title>
</g>
<!-- 7d9c269d&#45;2515&#45;4590&#45;b840&#45;9c348a6016e3 -->
<g id="node3" class="node">
<title>7d9c269d&#45;2515&#45;4590&#45;b840&#45;9c348a6016e3</title>
<ellipse fill="#0ee832" stroke="black" cx="254" cy="-99.87" rx="162.77" ry="26.74"/>
<text text-anchor="middle" x="254" y="-103.67" font-family="Helvetica,sans-Serif" font-size="14.00">✓ Create</text>
<text text-anchor="middle" x="254" y="-88.67" font-family="Helvetica,sans-Serif" font-size="14.00">sweepai/agents/filter_agent.py</text>
</g>
<!-- start&#45;&gt;7d9c269d&#45;2515&#45;4590&#45;b840&#45;9c348a6016e3 -->
<g id="edge4" class="edge">
<title>start&#45;&gt;7d9c269d&#45;2515&#45;4590&#45;b840&#45;9c348a6016e3</title>
<path fill="none" stroke="black" d="M39.16,-99.87C40.9,-99.87 57.09,-99.87 79.88,-99.87"/>
<polygon fill="black" stroke="black" points="79.79,-103.37 89.79,-99.87 79.79,-96.37 79.79,-103.37"/>
<text text-anchor="middle" x="65.43" y="-106.67" font-family="Helvetica,sans-Serif" font-size="14.00">Start</text>
</g>
<!-- end -->
<g id="node2" class="node">
<title>end</title>
</g>
<!-- 276a65a0&#45;7f4c&#45;46fc&#45;8766&#45;c3c501c22482 -->
<g id="node4" class="node">
<title>276a65a0&#45;7f4c&#45;46fc&#45;8766&#45;c3c501c22482</title>
<ellipse fill="#0ee832" stroke="black" cx="620" cy="-99.87" rx="145.83" ry="26.74"/>
<text text-anchor="middle" x="620" y="-103.67" font-family="Helvetica,sans-Serif" font-size="14.00">✓ Modify</text>
<text text-anchor="middle" x="620" y="-88.67" font-family="Helvetica,sans-Serif" font-size="14.00">sweepai/utils/ticket_utils.py</text>
</g>
<!-- 7d9c269d&#45;2515&#45;4590&#45;b840&#45;9c348a6016e3&#45;&gt;276a65a0&#45;7f4c&#45;46fc&#45;8766&#45;c3c501c22482 -->
<g id="edge2" class="edge">
<title>7d9c269d&#45;2515&#45;4590&#45;b840&#45;9c348a6016e3&#45;&gt;276a65a0&#45;7f4c&#45;46fc&#45;8766&#45;c3c501c22482</title>
<path fill="none" stroke="black" d="M416.98,-99.87C432.34,-99.87 447.7,-99.87 463.05,-99.87"/>
<polygon fill="black" stroke="black" points="462.69,-103.37 472.69,-99.87 462.69,-96.37 462.69,-103.37"/>
</g>
<!-- 4081cd86&#45;0605&#45;46c3&#45;85d2&#45;608a2122e1cd -->
<g id="node5" class="node">
<title>4081cd86&#45;0605&#45;46c3&#45;85d2&#45;608a2122e1cd</title>
<polygon fill="#0ee832" stroke="black" points="422,-36 0,-36 0,0 422,0 422,-36"/>
<text text-anchor="middle" x="211" y="-14.3" font-family="Helvetica,sans-Serif" font-size="14.00">✓ Run GitHub Actions for `sweepai/agents/filter_agent.py`</text>
</g>
<!-- 7d9c269d&#45;2515&#45;4590&#45;b840&#45;9c348a6016e3&#45;&gt;4081cd86&#45;0605&#45;46c3&#45;85d2&#45;608a2122e1cd -->
<g id="edge1" class="edge">
<title>7d9c269d&#45;2515&#45;4590&#45;b840&#45;9c348a6016e3&#45;&gt;4081cd86&#45;0605&#45;46c3&#45;85d2&#45;608a2122e1cd</title>
<path fill="none" stroke="black" stroke-dasharray="5,2" d="M240.16,-73.16C235.45,-64.41 230.18,-54.62 225.42,-45.79"/>
<polygon fill="black" stroke="black" points="228.16,-44.48 220.33,-37.34 221.99,-47.8 228.16,-44.48"/>
</g>
<!-- 276a65a0&#45;7f4c&#45;46fc&#45;8766&#45;c3c501c22482&#45;&gt;end -->
<g id="edge5" class="edge">
<title>276a65a0&#45;7f4c&#45;46fc&#45;8766&#45;c3c501c22482&#45;&gt;end</title>
<path fill="none" stroke="black" d="M766.09,-99.87C785.73,-99.87 802.66,-99.87 813.06,-99.87"/>
<polygon fill="black" stroke="black" points="812.71,-103.37 822.71,-99.87 812.71,-96.37 812.71,-103.37"/>
<text text-anchor="middle" x="794.58" y="-106.67" font-family="Helvetica,sans-Serif" font-size="14.00">Finish</text>
</g>
<!-- e839f0b0&#45;4a76&#45;45fd&#45;9af3&#45;b315d26b2ff2 -->
<g id="node6" class="node">
<title>e839f0b0&#45;4a76&#45;45fd&#45;9af3&#45;b315d26b2ff2</title>
<polygon fill="yellow" stroke="black" points="841.5,-36 440.5,-36 440.5,0 841.5,0 841.5,-36"/>
<text text-anchor="middle" x="641" y="-14.3" font-family="Helvetica,sans-Serif" font-size="14.00">⋯ Run GitHub Actions for `sweepai/utils/ticket_utils.py`</text>
</g>
<!-- 276a65a0&#45;7f4c&#45;46fc&#45;8766&#45;c3c501c22482&#45;&gt;e839f0b0&#45;4a76&#45;45fd&#45;9af3&#45;b315d26b2ff2 -->
<g id="edge3" class="edge">
<title>276a65a0&#45;7f4c&#45;46fc&#45;8766&#45;c3c501c22482&#45;&gt;e839f0b0&#45;4a76&#45;45fd&#45;9af3&#45;b315d26b2ff2</title>
<path fill="none" stroke="black" stroke-dasharray="5,2" d="M626.88,-72.72C629.07,-64.37 631.51,-55.1 633.73,-46.65"/>
<polygon fill="black" stroke="black" points="637.33,-47.71 636.49,-37.15 630.56,-45.93 637.33,-47.71"/>
</g>
</g>
</svg>
