<?xml version="1.0" encoding="UTF-8" standalone="no"?>
<!DOCTYPE svg PUBLIC "-//W3C//DTD SVG 1.1//EN"
 "http://www.w3.org/Graphics/SVG/1.1/DTD/svg11.dtd">
<!-- Generated by graphviz version 2.43.0 (0)
 -->
<!-- Title: %3 Pages: 1 -->
<svg width="4449pt" height="240pt"
 viewBox="0.00 0.00 4449.00 239.74" xmlns="http://www.w3.org/2000/svg" xmlns:xlink="http://www.w3.org/1999/xlink">
<g id="graph0" class="graph" transform="scale(1 1) rotate(0) translate(36 203.74)">
<title>%3</title>
<polygon fill="white" stroke="transparent" points="-36,36 -36,-203.74 4413,-203.74 4413,36 -36,36"/>
<text text-anchor="middle" x="2188.5" y="-152.54" font-family="Times,serif" font-size="14.00">Sweep&#39;s Plan &amp; Progress</text>
<!-- start -->
<g id="node1" class="node">
<title>start</title>
</g>
<!-- 44268e5e&#45;b7ba&#45;4f49&#45;8562&#45;ca0da50cd37d -->
<g id="node3" class="node">
<title>44268e5e&#45;b7ba&#45;4f49&#45;8562&#45;ca0da50cd37d</title>
<ellipse fill="red" stroke="black" cx="2188.5" cy="-101.87" rx="194.41" ry="26.74"/>
<text text-anchor="middle" x="2188.5" y="-105.67" font-family="Times,serif" font-size="14.00">✗ Modify</text>
<text text-anchor="middle" x="2188.5" y="-90.67" font-family="Times,serif" font-size="14.00">sweepai/utils/comment_utils_test.py</text>
</g>
<!-- start&#45;&gt;44268e5e&#45;b7ba&#45;4f49&#45;8562&#45;ca0da50cd37d -->
<g id="edge16" class="edge">
<title>start&#45;&gt;44268e5e&#45;b7ba&#45;4f49&#45;8562&#45;ca0da50cd37d</title>
<path fill="none" stroke="black" d="M1940.21,-101.87C1943.78,-101.87 1960.44,-101.87 1983.57,-101.87"/>
<polygon fill="black" stroke="black" points="1983.86,-105.37 1993.86,-101.87 1983.86,-98.37 1983.86,-105.37"/>
<text text-anchor="middle" x="1967.02" y="-108.67" font-family="Times,serif" font-size="14.00">Start</text>
</g>
<!-- end -->
<g id="node2" class="node">
<title>end</title>
</g>
<!-- 44268e5e&#45;b7ba&#45;4f49&#45;8562&#45;ca0da50cd37d&#45;&gt;end -->
<g id="edge17" class="edge">
<title>44268e5e&#45;b7ba&#45;4f49&#45;8562&#45;ca0da50cd37d&#45;&gt;end</title>
<path fill="none" stroke="black" d="M2382.96,-101.87C2405.14,-101.87 2423.73,-101.87 2434.73,-101.87"/>
<polygon fill="black" stroke="black" points="2434.81,-105.37 2444.81,-101.87 2434.81,-98.37 2434.81,-105.37"/>
<text text-anchor="middle" x="2413.98" y="-108.67" font-family="Times,serif" font-size="14.00">Finish</text>
</g>
<!-- 101e5dff&#45;c661&#45;40d9&#45;bb9b&#45;4fb7b0b5ea43 -->
<g id="node4" class="node">
<title>101e5dff&#45;c661&#45;40d9&#45;bb9b&#45;4fb7b0b5ea43</title>
<polygon fill="red" stroke="black" points="275,-38 0,-38 0,0 275,0 275,-38"/>
<text text-anchor="middle" x="137.5" y="-22.8" font-family="Times,serif" font-size="14.00">✗ Check</text>
<text text-anchor="middle" x="137.5" y="-7.8" font-family="Times,serif" font-size="14.00">sweepai/utils/comment_utils_test.py</text>
</g>
<!-- 44268e5e&#45;b7ba&#45;4f49&#45;8562&#45;ca0da50cd37d&#45;&gt;101e5dff&#45;c661&#45;40d9&#45;bb9b&#45;4fb7b0b5ea43 -->
<g id="edge1" class="edge">
<title>44268e5e&#45;b7ba&#45;4f49&#45;8562&#45;ca0da50cd37d&#45;&gt;101e5dff&#45;c661&#45;40d9&#45;bb9b&#45;4fb7b0b5ea43</title>
<path fill="none" stroke="black" stroke-dasharray="5,2" d="M2046.54,-83.43C2014.35,-80.07 1980.29,-76.99 1948.5,-75 1491.54,-46.44 1376.22,-67.85 918.5,-57 639.54,-50.39 566.73,-59.31 285.12,-38.08"/>
<polygon fill="black" stroke="black" points="285.25,-34.58 275.02,-37.31 284.72,-41.56 285.25,-34.58"/>
</g>
<!-- b5517287&#45;62a7&#45;42a3&#45;9220&#45;ff2054d58972 -->
<g id="node5" class="node">
<title>b5517287&#45;62a7&#45;42a3&#45;9220&#45;ff2054d58972</title>
<polygon fill="red" stroke="black" points="568,-38 293,-38 293,0 568,0 568,-38"/>
<text text-anchor="middle" x="430.5" y="-22.8" font-family="Times,serif" font-size="14.00">✗ Check</text>
<text text-anchor="middle" x="430.5" y="-7.8" font-family="Times,serif" font-size="14.00">sweepai/utils/comment_utils_test.py</text>
</g>
<!-- 44268e5e&#45;b7ba&#45;4f49&#45;8562&#45;ca0da50cd37d&#45;&gt;b5517287&#45;62a7&#45;42a3&#45;9220&#45;ff2054d58972 -->
<g id="edge2" class="edge">
<title>44268e5e&#45;b7ba&#45;4f49&#45;8562&#45;ca0da50cd37d&#45;&gt;b5517287&#45;62a7&#45;42a3&#45;9220&#45;ff2054d58972</title>
<path fill="none" stroke="black" stroke-dasharray="5,2" d="M2045.9,-83.54C2013.9,-80.19 1980.07,-77.09 1948.5,-75 1343.25,-34.98 1186.49,-83.82 578.36,-38.1"/>
<polygon fill="black" stroke="black" points="578.25,-34.58 568.02,-37.32 577.72,-41.56 578.25,-34.58"/>
</g>
<!-- a8092f3d&#45;2e9e&#45;4a9b&#45;9a72&#45;9449cf8d0a78 -->
<g id="node6" class="node">
<title>a8092f3d&#45;2e9e&#45;4a9b&#45;9a72&#45;9449cf8d0a78</title>
<polygon fill="red" stroke="black" points="861,-38 586,-38 586,0 861,0 861,-38"/>
<text text-anchor="middle" x="723.5" y="-22.8" font-family="Times,serif" font-size="14.00">✗ Check</text>
<text text-anchor="middle" x="723.5" y="-7.8" font-family="Times,serif" font-size="14.00">sweepai/utils/comment_utils_test.py</text>
</g>
<!-- 44268e5e&#45;b7ba&#45;4f49&#45;8562&#45;ca0da50cd37d&#45;&gt;a8092f3d&#45;2e9e&#45;4a9b&#45;9a72&#45;9449cf8d0a78 -->
<g id="edge3" class="edge">
<title>44268e5e&#45;b7ba&#45;4f49&#45;8562&#45;ca0da50cd37d&#45;&gt;a8092f3d&#45;2e9e&#45;4a9b&#45;9a72&#45;9449cf8d0a78</title>
<path fill="none" stroke="black" stroke-dasharray="5,2" d="M2045.25,-83.7C2013.43,-80.37 1979.85,-77.22 1948.5,-75 1473.25,-41.28 1349.61,-75.13 871.31,-38.1"/>
<polygon fill="black" stroke="black" points="871.26,-34.59 861.02,-37.3 870.72,-41.57 871.26,-34.59"/>
</g>
<!-- 62091956&#45;87a2&#45;4a14&#45;822d&#45;0a831c5a93fc -->
<g id="node7" class="node">
<title>62091956&#45;87a2&#45;4a14&#45;822d&#45;0a831c5a93fc</title>
<polygon fill="red" stroke="black" points="1154,-38 879,-38 879,0 1154,0 1154,-38"/>
<text text-anchor="middle" x="1016.5" y="-22.8" font-family="Times,serif" font-size="14.00">✗ Check</text>
<text text-anchor="middle" x="1016.5" y="-7.8" font-family="Times,serif" font-size="14.00">sweepai/utils/comment_utils_test.py</text>
</g>
<!-- 44268e5e&#45;b7ba&#45;4f49&#45;8562&#45;ca0da50cd37d&#45;&gt;62091956&#45;87a2&#45;4a14&#45;822d&#45;0a831c5a93fc -->
<g id="edge4" class="edge">
<title>44268e5e&#45;b7ba&#45;4f49&#45;8562&#45;ca0da50cd37d&#45;&gt;62091956&#45;87a2&#45;4a14&#45;822d&#45;0a831c5a93fc</title>
<path fill="none" stroke="black" stroke-dasharray="5,2" d="M2043.95,-83.86C2012.52,-80.56 1979.42,-77.39 1948.5,-75 1603.14,-48.28 1512.68,-67.27 1164.15,-38.1"/>
<polygon fill="black" stroke="black" points="1164.28,-34.6 1154.02,-37.25 1163.69,-41.58 1164.28,-34.6"/>
</g>
<!-- 3b187acc&#45;eeae&#45;4eef&#45;bb27&#45;d85d776b2f7b -->
<g id="node8" class="node">
<title>3b187acc&#45;eeae&#45;4eef&#45;bb27&#45;d85d776b2f7b</title>
<polygon fill="red" stroke="black" points="1447,-38 1172,-38 1172,0 1447,0 1447,-38"/>
<text text-anchor="middle" x="1309.5" y="-22.8" font-family="Times,serif" font-size="14.00">✗ Check</text>
<text text-anchor="middle" x="1309.5" y="-7.8" font-family="Times,serif" font-size="14.00">sweepai/utils/comment_utils_test.py</text>
</g>
<!-- 44268e5e&#45;b7ba&#45;4f49&#45;8562&#45;ca0da50cd37d&#45;&gt;3b187acc&#45;eeae&#45;4eef&#45;bb27&#45;d85d776b2f7b -->
<g id="edge5" class="edge">
<title>44268e5e&#45;b7ba&#45;4f49&#45;8562&#45;ca0da50cd37d&#45;&gt;3b187acc&#45;eeae&#45;4eef&#45;bb27&#45;d85d776b2f7b</title>
<path fill="none" stroke="black" stroke-dasharray="5,2" d="M2041.34,-84.24C2010.68,-80.99 1978.55,-77.75 1948.5,-75 1733,-55.3 1675.87,-59.54 1457.23,-38.15"/>
<polygon fill="black" stroke="black" points="1457.33,-34.64 1447.03,-37.14 1456.64,-41.61 1457.33,-34.64"/>
</g>
<!-- dd7511dd&#45;febf&#45;4559&#45;8b59&#45;1b204579691a -->
<g id="node9" class="node">
<title>dd7511dd&#45;febf&#45;4559&#45;8b59&#45;1b204579691a</title>
<polygon fill="red" stroke="black" points="1740,-38 1465,-38 1465,0 1740,0 1740,-38"/>
<text text-anchor="middle" x="1602.5" y="-22.8" font-family="Times,serif" font-size="14.00">✗ Check</text>
<text text-anchor="middle" x="1602.5" y="-7.8" font-family="Times,serif" font-size="14.00">sweepai/utils/comment_utils_test.py</text>
</g>
<!-- 44268e5e&#45;b7ba&#45;4f49&#45;8562&#45;ca0da50cd37d&#45;&gt;dd7511dd&#45;febf&#45;4559&#45;8b59&#45;1b204579691a -->
<g id="edge6" class="edge">
<title>44268e5e&#45;b7ba&#45;4f49&#45;8562&#45;ca0da50cd37d&#45;&gt;dd7511dd&#45;febf&#45;4559&#45;8b59&#45;1b204579691a</title>
<path fill="none" stroke="black" stroke-dasharray="5,2" d="M2054.43,-82.37C1961.27,-69.51 1837.37,-52.41 1742.87,-39.37"/>
<polygon fill="black" stroke="black" points="1743.33,-35.9 1732.95,-38 1742.38,-42.84 1743.33,-35.9"/>
</g>
<!-- 842fee69&#45;0e81&#45;4eaa&#45;af03&#45;a30ddb57702f -->
<g id="node10" class="node">
<title>842fee69&#45;0e81&#45;4eaa&#45;af03&#45;a30ddb57702f</title>
<polygon fill="red" stroke="black" points="2033,-38 1758,-38 1758,0 2033,0 2033,-38"/>
<text text-anchor="middle" x="1895.5" y="-22.8" font-family="Times,serif" font-size="14.00">✗ Check</text>
<text text-anchor="middle" x="1895.5" y="-7.8" font-family="Times,serif" font-size="14.00">sweepai/utils/comment_utils_test.py</text>
</g>
<!-- 44268e5e&#45;b7ba&#45;4f49&#45;8562&#45;ca0da50cd37d&#45;&gt;842fee69&#45;0e81&#45;4eaa&#45;af03&#45;a30ddb57702f -->
<g id="edge7" class="edge">
<title>44268e5e&#45;b7ba&#45;4f49&#45;8562&#45;ca0da50cd37d&#45;&gt;842fee69&#45;0e81&#45;4eaa&#45;af03&#45;a30ddb57702f</title>
<path fill="none" stroke="black" stroke-dasharray="5,2" d="M2104.15,-77.59C2062.13,-65.99 2011.75,-52.09 1971.02,-40.84"/>
<polygon fill="black" stroke="black" points="1971.72,-37.41 1961.15,-38.12 1969.86,-44.15 1971.72,-37.41"/>
</g>
<!-- 1894c55b&#45;a5fb&#45;4fd9&#45;bee3&#45;a6d763091273 -->
<g id="node11" class="node">
<title>1894c55b&#45;a5fb&#45;4fd9&#45;bee3&#45;a6d763091273</title>
<polygon fill="red" stroke="black" points="2326,-38 2051,-38 2051,0 2326,0 2326,-38"/>
<text text-anchor="middle" x="2188.5" y="-22.8" font-family="Times,serif" font-size="14.00">✗ Check</text>
<text text-anchor="middle" x="2188.5" y="-7.8" font-family="Times,serif" font-size="14.00">sweepai/utils/comment_utils_test.py</text>
</g>
<!-- 44268e5e&#45;b7ba&#45;4f49&#45;8562&#45;ca0da50cd37d&#45;&gt;1894c55b&#45;a5fb&#45;4fd9&#45;bee3&#45;a6d763091273 -->
<g id="edge8" class="edge">
<title>44268e5e&#45;b7ba&#45;4f49&#45;8562&#45;ca0da50cd37d&#45;&gt;1894c55b&#45;a5fb&#45;4fd9&#45;bee3&#45;a6d763091273</title>
<path fill="none" stroke="black" stroke-dasharray="5,2" d="M2188.5,-74.84C2188.5,-66.3 2188.5,-56.78 2188.5,-48.1"/>
<polygon fill="black" stroke="black" points="2192,-48.05 2188.5,-38.05 2185,-48.05 2192,-48.05"/>
</g>
<!-- 8e3612d0&#45;9e1a&#45;40d7&#45;9cfe&#45;f5b0809907d3 -->
<g id="node12" class="node">
<title>8e3612d0&#45;9e1a&#45;40d7&#45;9cfe&#45;f5b0809907d3</title>
<polygon fill="red" stroke="black" points="2619,-38 2344,-38 2344,0 2619,0 2619,-38"/>
<text text-anchor="middle" x="2481.5" y="-22.8" font-family="Times,serif" font-size="14.00">✗ Check</text>
<text text-anchor="middle" x="2481.5" y="-7.8" font-family="Times,serif" font-size="14.00">sweepai/utils/comment_utils_test.py</text>
</g>
<!-- 44268e5e&#45;b7ba&#45;4f49&#45;8562&#45;ca0da50cd37d&#45;&gt;8e3612d0&#45;9e1a&#45;40d7&#45;9cfe&#45;f5b0809907d3 -->
<g id="edge9" class="edge">
<title>44268e5e&#45;b7ba&#45;4f49&#45;8562&#45;ca0da50cd37d&#45;&gt;8e3612d0&#45;9e1a&#45;40d7&#45;9cfe&#45;f5b0809907d3</title>
<path fill="none" stroke="black" stroke-dasharray="5,2" d="M2272.85,-77.59C2314.87,-65.99 2365.25,-52.09 2405.98,-40.84"/>
<polygon fill="black" stroke="black" points="2407.14,-44.15 2415.85,-38.12 2405.28,-37.41 2407.14,-44.15"/>
</g>
<!-- 4c75c1c6&#45;6e36&#45;4b0c&#45;b7e1&#45;4e28285188fd -->
<g id="node13" class="node">
<title>4c75c1c6&#45;6e36&#45;4b0c&#45;b7e1&#45;4e28285188fd</title>
<polygon fill="red" stroke="black" points="2912,-38 2637,-38 2637,0 2912,0 2912,-38"/>
<text text-anchor="middle" x="2774.5" y="-22.8" font-family="Times,serif" font-size="14.00">✗ Check</text>
<text text-anchor="middle" x="2774.5" y="-7.8" font-family="Times,serif" font-size="14.00">sweepai/utils/comment_utils_test.py</text>
</g>
<!-- 44268e5e&#45;b7ba&#45;4f49&#45;8562&#45;ca0da50cd37d&#45;&gt;4c75c1c6&#45;6e36&#45;4b0c&#45;b7e1&#45;4e28285188fd -->
<g id="edge10" class="edge">
<title>44268e5e&#45;b7ba&#45;4f49&#45;8562&#45;ca0da50cd37d&#45;&gt;4c75c1c6&#45;6e36&#45;4b0c&#45;b7e1&#45;4e28285188fd</title>
<path fill="none" stroke="black" stroke-dasharray="5,2" d="M2322.57,-82.37C2415.73,-69.51 2539.63,-52.41 2634.13,-39.37"/>
<polygon fill="black" stroke="black" points="2634.62,-42.84 2644.05,-38 2633.67,-35.9 2634.62,-42.84"/>
</g>
<!-- 629c5040&#45;a64b&#45;42d6&#45;bce1&#45;ba1513e3a51d -->
<g id="node14" class="node">
<title>629c5040&#45;a64b&#45;42d6&#45;bce1&#45;ba1513e3a51d</title>
<polygon fill="red" stroke="black" points="3205,-38 2930,-38 2930,0 3205,0 3205,-38"/>
<text text-anchor="middle" x="3067.5" y="-22.8" font-family="Times,serif" font-size="14.00">✗ Check</text>
<text text-anchor="middle" x="3067.5" y="-7.8" font-family="Times,serif" font-size="14.00">sweepai/utils/comment_utils_test.py</text>
</g>
<!-- 44268e5e&#45;b7ba&#45;4f49&#45;8562&#45;ca0da50cd37d&#45;&gt;629c5040&#45;a64b&#45;42d6&#45;bce1&#45;ba1513e3a51d -->
<g id="edge11" class="edge">
<title>44268e5e&#45;b7ba&#45;4f49&#45;8562&#45;ca0da50cd37d&#45;&gt;629c5040&#45;a64b&#45;42d6&#45;bce1&#45;ba1513e3a51d</title>
<path fill="none" stroke="black" stroke-dasharray="5,2" d="M2337.66,-84.56C2369.91,-81.23 2403.83,-77.87 2435.5,-75 2647.54,-55.81 2703.69,-59.25 2919.73,-38.05"/>
<polygon fill="black" stroke="black" points="2920.2,-41.52 2929.81,-37.05 2919.51,-34.55 2920.2,-41.52"/>
</g>
<!-- 971276f9&#45;ecdc&#45;42be&#45;98fa&#45;f718612bbf5a -->
<g id="node15" class="node">
<title>971276f9&#45;ecdc&#45;42be&#45;98fa&#45;f718612bbf5a</title>
<polygon fill="red" stroke="black" points="3498,-38 3223,-38 3223,0 3498,0 3498,-38"/>
<text text-anchor="middle" x="3360.5" y="-22.8" font-family="Times,serif" font-size="14.00">✗ Check</text>
<text text-anchor="middle" x="3360.5" y="-7.8" font-family="Times,serif" font-size="14.00">sweepai/utils/comment_utils_test.py</text>
</g>
<!-- 44268e5e&#45;b7ba&#45;4f49&#45;8562&#45;ca0da50cd37d&#45;&gt;971276f9&#45;ecdc&#45;42be&#45;98fa&#45;f718612bbf5a -->
<g id="edge12" class="edge">
<title>44268e5e&#45;b7ba&#45;4f49&#45;8562&#45;ca0da50cd37d&#45;&gt;971276f9&#45;ecdc&#45;42be&#45;98fa&#45;f718612bbf5a</title>
<path fill="none" stroke="black" stroke-dasharray="5,2" d="M2334.98,-84.14C2368.01,-80.75 2402.93,-77.48 2435.5,-75 2777.38,-48.99 2866.87,-66.93 3212.77,-38.02"/>
<polygon fill="black" stroke="black" points="3213.15,-41.5 3222.82,-37.17 3212.56,-34.53 3213.15,-41.5"/>
</g>
<!-- 00e2c49a&#45;6177&#45;4a9b&#45;8992&#45;3cd2c771fb79 -->
<g id="node16" class="node">
<title>00e2c49a&#45;6177&#45;4a9b&#45;8992&#45;3cd2c771fb79</title>
<polygon fill="red" stroke="black" points="3791,-38 3516,-38 3516,0 3791,0 3791,-38"/>
<text text-anchor="middle" x="3653.5" y="-22.8" font-family="Times,serif" font-size="14.00">✗ Check</text>
<text text-anchor="middle" x="3653.5" y="-7.8" font-family="Times,serif" font-size="14.00">sweepai/utils/comment_utils_test.py</text>
</g>
<!-- 44268e5e&#45;b7ba&#45;4f49&#45;8562&#45;ca0da50cd37d&#45;&gt;00e2c49a&#45;6177&#45;4a9b&#45;8992&#45;3cd2c771fb79 -->
<g id="edge13" class="edge">
<title>44268e5e&#45;b7ba&#45;4f49&#45;8562&#45;ca0da50cd37d&#45;&gt;00e2c49a&#45;6177&#45;4a9b&#45;8992&#45;3cd2c771fb79</title>
<path fill="none" stroke="black" stroke-dasharray="5,2" d="M2333.65,-83.96C2367.07,-80.54 2402.49,-77.3 2435.5,-75 2907.27,-42.19 3029.94,-74.73 3505.59,-38.02"/>
<polygon fill="black" stroke="black" points="3506.12,-41.49 3515.82,-37.23 3505.58,-34.51 3506.12,-41.49"/>
</g>
<!-- a881ee93&#45;4d7e&#45;44fd&#45;b7a3&#45;a069cbe2d0a2 -->
<g id="node17" class="node">
<title>a881ee93&#45;4d7e&#45;44fd&#45;b7a3&#45;a069cbe2d0a2</title>
<polygon fill="red" stroke="black" points="4084,-38 3809,-38 3809,0 4084,0 4084,-38"/>
<text text-anchor="middle" x="3946.5" y="-22.8" font-family="Times,serif" font-size="14.00">✗ Check</text>
<text text-anchor="middle" x="3946.5" y="-7.8" font-family="Times,serif" font-size="14.00">sweepai/utils/comment_utils_test.py</text>
</g>
<!-- 44268e5e&#45;b7ba&#45;4f49&#45;8562&#45;ca0da50cd37d&#45;&gt;a881ee93&#45;4d7e&#45;44fd&#45;b7a3&#45;a069cbe2d0a2 -->
<g id="edge14" class="edge">
<title>44268e5e&#45;b7ba&#45;4f49&#45;8562&#45;ca0da50cd37d&#45;&gt;a881ee93&#45;4d7e&#45;44fd&#45;b7a3&#45;a069cbe2d0a2</title>
<path fill="none" stroke="black" stroke-dasharray="5,2" d="M2332.66,-83.83C2366.36,-80.39 2402.15,-77.16 2435.5,-75 3037.28,-35.97 3193.04,-83.24 3798.52,-38.03"/>
<polygon fill="black" stroke="black" points="3799.11,-41.49 3808.82,-37.25 3798.59,-34.51 3799.11,-41.49"/>
</g>
<!-- 1cb15d57&#45;4d9c&#45;44a9&#45;b3c8&#45;bd33f589ec8f -->
<g id="node18" class="node">
<title>1cb15d57&#45;4d9c&#45;44a9&#45;b3c8&#45;bd33f589ec8f</title>
<polygon fill="yellow" stroke="black" points="4377,-38 4102,-38 4102,0 4377,0 4377,-38"/>
<text text-anchor="middle" x="4239.5" y="-22.8" font-family="Times,serif" font-size="14.00">⋯ Check</text>
<text text-anchor="middle" x="4239.5" y="-7.8" font-family="Times,serif" font-size="14.00">sweepai/utils/comment_utils_test.py</text>
</g>
<!-- 44268e5e&#45;b7ba&#45;4f49&#45;8562&#45;ca0da50cd37d&#45;&gt;1cb15d57&#45;4d9c&#45;44a9&#45;b3c8&#45;bd33f589ec8f -->
<g id="edge15" class="edge">
<title>44268e5e&#45;b7ba&#45;4f49&#45;8562&#45;ca0da50cd37d&#45;&gt;1cb15d57&#45;4d9c&#45;44a9&#45;b3c8&#45;bd33f589ec8f</title>
<path fill="none" stroke="black" stroke-dasharray="5,2" d="M2332,-83.71C2365.89,-80.25 2401.93,-77.05 2435.5,-75 2894.72,-47.01 3010.56,-68.02 3470.5,-57 3743.62,-50.45 3815,-58.84 4091.48,-38.03"/>
<polygon fill="black" stroke="black" points="4092.12,-41.49 4101.82,-37.25 4091.59,-34.51 4092.12,-41.49"/>
</g>
</g>
</svg>
