<?xml version="1.0" encoding="UTF-8" standalone="no"?>
<!DOCTYPE svg PUBLIC "-//W3C//DTD SVG 1.1//EN"
 "http://www.w3.org/Graphics/SVG/1.1/DTD/svg11.dtd">
<!-- Generated by graphviz version 8.0.3 (0)
 -->
<!-- Pages: 1 -->
<svg width="914pt" height="238pt"
 viewBox="0.00 0.00 914.00 237.74" xmlns="http://www.w3.org/2000/svg" xmlns:xlink="http://www.w3.org/1999/xlink">
<g id="graph0" class="graph" transform="scale(1 1) rotate(0) translate(36 201.74)">
<polygon fill="dimgray" stroke="none" points="-36,36 -36,-201.74 878,-201.74 878,36 -36,36"/>
<text text-anchor="middle" x="421" y="-150.54" font-family="Helvetica,sans-Serif" font-size="14.00">Sweep&#39;s Plan &amp; Progress</text>
<!-- start -->
<g id="node1" class="node">
<title>start</title>
</g>
<!-- f1d39306&#45;2ac0&#45;4ce6&#45;a7d8&#45;be13c2923c79 -->
<g id="node3" class="node">
<title>f1d39306&#45;2ac0&#45;4ce6&#45;a7d8&#45;be13c2923c79</title>
<ellipse fill="#0ee832" stroke="black" cx="212.5" cy="-99.87" rx="159.61" ry="26.74"/>
<text text-anchor="middle" x="212.5" y="-103.67" font-family="Helvetica,sans-Serif" font-size="14.00">✓ Modify</text>
<text text-anchor="middle" x="212.5" y="-88.67" font-family="Helvetica,sans-Serif" font-size="14.00">sweepai/handlers/on_ticket.py</text>
</g>
<!-- start&#45;&gt;f1d39306&#45;2ac0&#45;4ce6&#45;a7d8&#45;be13c2923c79 -->
<g id="edge4" class="edge">
<title>start&#45;&gt;f1d39306&#45;2ac0&#45;4ce6&#45;a7d8&#45;be13c2923c79</title>
<path fill="none" stroke="black" d="M0.65,-99.87C2.39,-99.87 18.75,-99.87 41.67,-99.87"/>
<polygon fill="black" stroke="black" points="41.63,-103.37 51.63,-99.87 41.63,-96.37 41.63,-103.37"/>
<text text-anchor="middle" x="26.85" y="-106.67" font-family="Helvetica,sans-Serif" font-size="14.00">Start</text>
</g>
<!-- end -->
<g id="node2" class="node">
<title>end</title>
</g>
<!-- ef325dcc&#45;7aa4&#45;408a&#45;acb7&#45;d66ccf0e1bf2 -->
<g id="node4" class="node">
<title>ef325dcc&#45;7aa4&#45;408a&#45;acb7&#45;d66ccf0e1bf2</title>
<ellipse fill="white" stroke="black" cx="600.5" cy="-99.87" rx="183.28" ry="26.74"/>
<text text-anchor="middle" x="600.5" y="-103.67" font-family="Helvetica,sans-Serif" font-size="14.00">▶ Modify</text>
<text text-anchor="middle" x="600.5" y="-88.67" font-family="Helvetica,sans-Serif" font-size="14.00">sweepai/handlers/on_ticket_test.py</text>
</g>
<!-- f1d39306&#45;2ac0&#45;4ce6&#45;a7d8&#45;be13c2923c79&#45;&gt;ef325dcc&#45;7aa4&#45;408a&#45;acb7&#45;d66ccf0e1bf2 -->
<g id="edge2" class="edge">
<title>f1d39306&#45;2ac0&#45;4ce6&#45;a7d8&#45;be13c2923c79&#45;&gt;ef325dcc&#45;7aa4&#45;408a&#45;acb7&#45;d66ccf0e1bf2</title>
<path fill="none" stroke="black" d="M372.4,-99.87C383.65,-99.87 394.91,-99.87 406.16,-99.87"/>
<polygon fill="black" stroke="black" points="405.95,-103.37 415.95,-99.87 405.95,-96.37 405.95,-103.37"/>
</g>
<!-- b6f36ba7&#45;aaa9&#45;4208&#45;b98f&#45;afd2ee360b53 -->
<g id="node5" class="node">
<title>b6f36ba7&#45;aaa9&#45;4208&#45;b98f&#45;afd2ee360b53</title>
<polygon fill="yellow" stroke="black" points="385.5,-36 3.5,-36 3.5,0 385.5,0 385.5,-36"/>
<text text-anchor="middle" x="194.5" y="-14.3" font-family="Helvetica,sans-Serif" font-size="14.00">⋯ Ran sandbox for `sweepai/handlers/on_ticket.py`.</text>
</g>
<!-- f1d39306&#45;2ac0&#45;4ce6&#45;a7d8&#45;be13c2923c79&#45;&gt;b6f36ba7&#45;aaa9&#45;4208&#45;b98f&#45;afd2ee360b53 -->
<g id="edge1" class="edge">
<title>f1d39306&#45;2ac0&#45;4ce6&#45;a7d8&#45;be13c2923c79&#45;&gt;b6f36ba7&#45;aaa9&#45;4208&#45;b98f&#45;afd2ee360b53</title>
<path fill="none" stroke="black" stroke-dasharray="5,2" d="M206.61,-72.72C204.72,-64.37 202.64,-55.1 200.73,-46.65"/>
<polygon fill="black" stroke="black" points="203.98,-46.13 198.36,-37.15 197.15,-47.67 203.98,-46.13"/>
</g>
<!-- ef325dcc&#45;7aa4&#45;408a&#45;acb7&#45;d66ccf0e1bf2&#45;&gt;end -->
<g id="edge5" class="edge">
<title>ef325dcc&#45;7aa4&#45;408a&#45;acb7&#45;d66ccf0e1bf2&#45;&gt;end</title>
<path fill="none" stroke="black" d="M784.08,-99.87C803.74,-99.87 820.28,-99.87 830.49,-99.87"/>
<polygon fill="black" stroke="black" points="830.22,-103.37 840.22,-99.87 830.22,-96.37 830.22,-103.37"/>
<text text-anchor="middle" x="812.32" y="-106.67" font-family="Helvetica,sans-Serif" font-size="14.00">Finish</text>
</g>
<!-- db7e7da6&#45;4f11&#45;4ba8&#45;81a0&#45;38e37a986932 -->
<g id="node6" class="node">
<title>db7e7da6&#45;4f11&#45;4ba8&#45;81a0&#45;38e37a986932</title>
<polygon fill="white" stroke="black" points="815,-36 404,-36 404,0 815,0 815,-36"/>
<text text-anchor="middle" x="609.5" y="-14.3" font-family="Helvetica,sans-Serif" font-size="14.00">▶ Ran sandbox for `sweepai/handlers/on_ticket_test.py`.</text>
</g>
<!-- ef325dcc&#45;7aa4&#45;408a&#45;acb7&#45;d66ccf0e1bf2&#45;&gt;db7e7da6&#45;4f11&#45;4ba8&#45;81a0&#45;38e37a986932 -->
<g id="edge3" class="edge">
<title>ef325dcc&#45;7aa4&#45;408a&#45;acb7&#45;d66ccf0e1bf2&#45;&gt;db7e7da6&#45;4f11&#45;4ba8&#45;81a0&#45;38e37a986932</title>
<path fill="none" stroke="black" stroke-dasharray="5,2" d="M603.45,-72.72C604.38,-64.46 605.41,-55.31 606.35,-46.93"/>
<polygon fill="black" stroke="black" points="609.93,-47.48 607.57,-37.15 602.97,-46.69 609.93,-47.48"/>
</g>
</g>
</svg>
