<?xml version="1.0" encoding="UTF-8" standalone="no"?>
<!DOCTYPE svg PUBLIC "-//W3C//DTD SVG 1.1//EN"
 "http://www.w3.org/Graphics/SVG/1.1/DTD/svg11.dtd">
<!-- Generated by graphviz version 2.43.0 (0)
 -->
<!-- Title: %3 Pages: 1 -->
<svg width="962pt" height="238pt"
 viewBox="0.00 0.00 961.50 237.74" xmlns="http://www.w3.org/2000/svg" xmlns:xlink="http://www.w3.org/1999/xlink">
<g id="graph0" class="graph" transform="scale(1 1) rotate(0) translate(36 201.74)">
<title>%3</title>
<polygon fill="dimgray" stroke="transparent" points="-36,36 -36,-201.74 925.5,-201.74 925.5,36 -36,36"/>
<text text-anchor="middle" x="444.75" y="-150.54" font-family="Helvetica,sans-Serif" font-size="14.00">Sweep&#39;s Plan &amp; Progress</text>
<!-- start -->
<g id="node1" class="node">
<title>start</title>
</g>
<!-- 2c9313a5&#45;f613&#45;43bf&#45;84ee&#45;ccd38f2c524c -->
<g id="node3" class="node">
<title>2c9313a5&#45;f613&#45;43bf&#45;84ee&#45;ccd38f2c524c</title>
<ellipse fill="#0ee832" stroke="black" cx="273" cy="-99.87" rx="195.74" ry="26.74"/>
<text text-anchor="middle" x="273" y="-103.67" font-family="Helvetica,sans-Serif" font-size="14.00">✓ Create</text>
<text text-anchor="middle" x="273" y="-88.67" font-family="Helvetica,sans-Serif" font-size="14.00">sweepai/agents/query_filter_agent.py</text>
</g>
<!-- start&#45;&gt;2c9313a5&#45;f613&#45;43bf&#45;84ee&#45;ccd38f2c524c -->
<g id="edge4" class="edge">
<title>start&#45;&gt;2c9313a5&#45;f613&#45;43bf&#45;84ee&#45;ccd38f2c524c</title>
<path fill="none" stroke="black" d="M25.71,-99.87C29.16,-99.87 44.91,-99.87 66.91,-99.87"/>
<polygon fill="black" stroke="black" points="67.07,-103.37 77.07,-99.87 67.07,-96.37 67.07,-103.37"/>
<text text-anchor="middle" x="51.32" y="-106.67" font-family="Helvetica,sans-Serif" font-size="14.00">Start</text>
</g>
<!-- end -->
<g id="node2" class="node">
<title>end</title>
</g>
<!-- 1211a1c2&#45;b7ac&#45;45ae&#45;9ded&#45;abf88afa7c16 -->
<g id="node4" class="node">
<title>1211a1c2&#45;b7ac&#45;45ae&#45;9ded&#45;abf88afa7c16</title>
<ellipse fill="#0ee832" stroke="black" cx="670" cy="-99.87" rx="145.83" ry="26.74"/>
<text text-anchor="middle" x="670" y="-103.67" font-family="Helvetica,sans-Serif" font-size="14.00">✓ Modify</text>
<text text-anchor="middle" x="670" y="-88.67" font-family="Helvetica,sans-Serif" font-size="14.00">sweepai/utils/ticket_utils.py</text>
</g>
<!-- 2c9313a5&#45;f613&#45;43bf&#45;84ee&#45;ccd38f2c524c&#45;&gt;1211a1c2&#45;b7ac&#45;45ae&#45;9ded&#45;abf88afa7c16 -->
<g id="edge2" class="edge">
<title>2c9313a5&#45;f613&#45;43bf&#45;84ee&#45;ccd38f2c524c&#45;&gt;1211a1c2&#45;b7ac&#45;45ae&#45;9ded&#45;abf88afa7c16</title>
<path fill="none" stroke="black" d="M469.17,-99.87C484.05,-99.87 498.92,-99.87 513.79,-99.87"/>
<polygon fill="black" stroke="black" points="514.09,-103.37 524.09,-99.87 514.09,-96.37 514.09,-103.37"/>
</g>
<!-- 658c9e6a&#45;cdb5&#45;4415&#45;b8f5&#45;95d54bf19001 -->
<g id="node5" class="node">
<title>658c9e6a&#45;cdb5&#45;4415&#45;b8f5&#45;95d54bf19001</title>
<polygon fill="#0ee832" stroke="black" points="470,-36 0,-36 0,0 470,0 470,-36"/>
<text text-anchor="middle" x="235" y="-14.3" font-family="Helvetica,sans-Serif" font-size="14.00">✓ Run GitHub Actions for `sweepai/agents/query_filter_agent.py`</text>
</g>
<!-- 2c9313a5&#45;f613&#45;43bf&#45;84ee&#45;ccd38f2c524c&#45;&gt;658c9e6a&#45;cdb5&#45;4415&#45;b8f5&#45;95d54bf19001 -->
<g id="edge1" class="edge">
<title>2c9313a5&#45;f613&#45;43bf&#45;84ee&#45;ccd38f2c524c&#45;&gt;658c9e6a&#45;cdb5&#45;4415&#45;b8f5&#45;95d54bf19001</title>
<path fill="none" stroke="black" stroke-dasharray="5,2" d="M260.56,-72.72C256.36,-63.9 251.68,-54.05 247.48,-45.23"/>
<polygon fill="black" stroke="black" points="250.61,-43.67 243.16,-36.15 244.29,-46.68 250.61,-43.67"/>
</g>
<!-- 1211a1c2&#45;b7ac&#45;45ae&#45;9ded&#45;abf88afa7c16&#45;&gt;end -->
<g id="edge5" class="edge">
<title>1211a1c2&#45;b7ac&#45;45ae&#45;9ded&#45;abf88afa7c16&#45;&gt;end</title>
<path fill="none" stroke="black" d="M815.81,-99.87C835.57,-99.87 852.62,-99.87 863.07,-99.87"/>
<polygon fill="black" stroke="black" points="863.35,-103.37 873.35,-99.87 863.35,-96.37 863.35,-103.37"/>
<text text-anchor="middle" x="844.58" y="-106.67" font-family="Helvetica,sans-Serif" font-size="14.00">Finish</text>
</g>
<!-- 1e152747&#45;b46c&#45;4e21&#45;baf7&#45;6ff2b45bf3fc -->
<g id="node6" class="node">
<title>1e152747&#45;b46c&#45;4e21&#45;baf7&#45;6ff2b45bf3fc</title>
<polygon fill="yellow" stroke="black" points="889.5,-36 488.5,-36 488.5,0 889.5,0 889.5,-36"/>
<text text-anchor="middle" x="689" y="-14.3" font-family="Helvetica,sans-Serif" font-size="14.00">⋯ Run GitHub Actions for `sweepai/utils/ticket_utils.py`</text>
</g>
<!-- 1211a1c2&#45;b7ac&#45;45ae&#45;9ded&#45;abf88afa7c16&#45;&gt;1e152747&#45;b46c&#45;4e21&#45;baf7&#45;6ff2b45bf3fc -->
<g id="edge3" class="edge">
<title>1211a1c2&#45;b7ac&#45;45ae&#45;9ded&#45;abf88afa7c16&#45;&gt;1e152747&#45;b46c&#45;4e21&#45;baf7&#45;6ff2b45bf3fc</title>
<path fill="none" stroke="black" stroke-dasharray="5,2" d="M676.22,-72.72C678.25,-64.18 680.51,-54.68 682.56,-46.08"/>
<polygon fill="black" stroke="black" points="686.01,-46.68 684.92,-36.15 679.2,-45.06 686.01,-46.68"/>
</g>
</g>
</svg>
