<?xml version="1.0" encoding="UTF-8" standalone="no"?>
<!DOCTYPE svg PUBLIC "-//W3C//DTD SVG 1.1//EN"
 "http://www.w3.org/Graphics/SVG/1.1/DTD/svg11.dtd">
<!-- Generated by graphviz version 2.43.0 (0)
 -->
<!-- Title: %3 Pages: 1 -->
<svg width="1263pt" height="238pt"
 viewBox="0.00 0.00 1263.00 237.74" xmlns="http://www.w3.org/2000/svg" xmlns:xlink="http://www.w3.org/1999/xlink">
<g id="graph0" class="graph" transform="scale(1 1) rotate(0) translate(36 201.74)">
<title>%3</title>
<polygon fill="dimgray" stroke="transparent" points="-36,36 -36,-201.74 1227,-201.74 1227,36 -36,36"/>
<text text-anchor="middle" x="595.5" y="-150.54" font-family="Helvetica,sans-Serif" font-size="14.00">Sweep&#39;s Plan &amp; Progress</text>
<!-- start -->
<g id="node1" class="node">
<title>start</title>
</g>
<!-- 284da7b5&#45;7746&#45;43df&#45;8046&#45;d25fa354cc6f -->
<g id="node3" class="node">
<title>284da7b5&#45;7746&#45;43df&#45;8046&#45;d25fa354cc6f</title>
<ellipse fill="yellow" stroke="black" cx="212.5" cy="-99.87" rx="159.61" ry="26.74"/>
<text text-anchor="middle" x="212.5" y="-103.67" font-family="Helvetica,sans-Serif" font-size="14.00">⋯ Modify</text>
<text text-anchor="middle" x="212.5" y="-88.67" font-family="Helvetica,sans-Serif" font-size="14.00">sweepai/handlers/on_ticket.py</text>
</g>
<!-- start&#45;&gt;284da7b5&#45;7746&#45;43df&#45;8046&#45;d25fa354cc6f -->
<g id="edge6" class="edge">
<title>start&#45;&gt;284da7b5&#45;7746&#45;43df&#45;8046&#45;d25fa354cc6f</title>
<path fill="none" stroke="black" d="M1.11,-99.87C4.37,-99.87 20.43,-99.87 42.36,-99.87"/>
<polygon fill="black" stroke="black" points="42.46,-103.37 52.46,-99.87 42.46,-96.37 42.46,-103.37"/>
<text text-anchor="middle" x="26.85" y="-106.67" font-family="Helvetica,sans-Serif" font-size="14.00">Start</text>
</g>
<!-- end -->
<g id="node2" class="node">
<title>end</title>
</g>
<!-- e8678251&#45;ac59&#45;42ed&#45;9601&#45;deada62f1e96 -->
<g id="node4" class="node">
<title>e8678251&#45;ac59&#45;42ed&#45;9601&#45;deada62f1e96</title>
<ellipse fill="white" stroke="black" cx="605.5" cy="-99.87" rx="179.71" ry="26.74"/>
<text text-anchor="middle" x="605.5" y="-103.67" font-family="Helvetica,sans-Serif" font-size="14.00">▶ Modify</text>
<text text-anchor="middle" x="605.5" y="-88.67" font-family="Helvetica,sans-Serif" font-size="14.00">sweepai/handlers/on_comment.py</text>
</g>
<!-- 284da7b5&#45;7746&#45;43df&#45;8046&#45;d25fa354cc6f&#45;&gt;e8678251&#45;ac59&#45;42ed&#45;9601&#45;deada62f1e96 -->
<g id="edge2" class="edge">
<title>284da7b5&#45;7746&#45;43df&#45;8046&#45;d25fa354cc6f&#45;&gt;e8678251&#45;ac59&#45;42ed&#45;9601&#45;deada62f1e96</title>
<path fill="none" stroke="black" d="M372.54,-99.87C386.82,-99.87 401.1,-99.87 415.38,-99.87"/>
<polygon fill="black" stroke="black" points="415.78,-103.37 425.78,-99.87 415.77,-96.37 415.78,-103.37"/>
</g>
<!-- 27071045&#45;d06d&#45;4e5e&#45;b065&#45;847ce7b7093e -->
<g id="node6" class="node">
<title>27071045&#45;d06d&#45;4e5e&#45;b065&#45;847ce7b7093e</title>
<polygon fill="white" stroke="black" points="384.5,-36 6.5,-36 6.5,0 384.5,0 384.5,-36"/>
<text text-anchor="middle" x="195.5" y="-14.3" font-family="Helvetica,sans-Serif" font-size="14.00">▶ Ran sandbox for `sweepai/handlers/on_ticket.py`.</text>
</g>
<!-- 284da7b5&#45;7746&#45;43df&#45;8046&#45;d25fa354cc6f&#45;&gt;27071045&#45;d06d&#45;4e5e&#45;b065&#45;847ce7b7093e -->
<g id="edge1" class="edge">
<title>284da7b5&#45;7746&#45;43df&#45;8046&#45;d25fa354cc6f&#45;&gt;27071045&#45;d06d&#45;4e5e&#45;b065&#45;847ce7b7093e</title>
<path fill="none" stroke="black" stroke-dasharray="5,2" d="M206.93,-72.72C205.12,-64.18 203.09,-54.68 201.26,-46.08"/>
<polygon fill="black" stroke="black" points="204.65,-45.2 199.15,-36.15 197.81,-46.66 204.65,-45.2"/>
</g>
<!-- 2f666f7b&#45;ae05&#45;457f&#45;b1f0&#45;7784e119069d -->
<g id="node5" class="node">
<title>2f666f7b&#45;ae05&#45;457f&#45;b1f0&#45;7784e119069d</title>
<ellipse fill="white" stroke="black" cx="986.5" cy="-99.87" rx="145.83" ry="26.74"/>
<text text-anchor="middle" x="986.5" y="-103.67" font-family="Helvetica,sans-Serif" font-size="14.00">▶ Modify</text>
<text text-anchor="middle" x="986.5" y="-88.67" font-family="Helvetica,sans-Serif" font-size="14.00">sweepai/core/sweep_bot.py</text>
</g>
<!-- e8678251&#45;ac59&#45;42ed&#45;9601&#45;deada62f1e96&#45;&gt;2f666f7b&#45;ae05&#45;457f&#45;b1f0&#45;7784e119069d -->
<g id="edge4" class="edge">
<title>e8678251&#45;ac59&#45;42ed&#45;9601&#45;deada62f1e96&#45;&gt;2f666f7b&#45;ae05&#45;457f&#45;b1f0&#45;7784e119069d</title>
<path fill="none" stroke="black" d="M785.21,-99.87C800.22,-99.87 815.24,-99.87 830.25,-99.87"/>
<polygon fill="black" stroke="black" points="830.64,-103.37 840.64,-99.87 830.64,-96.37 830.64,-103.37"/>
</g>
<!-- 5f553661&#45;d00e&#45;4b45&#45;8cee&#45;48d9cd063436 -->
<g id="node7" class="node">
<title>5f553661&#45;d00e&#45;4b45&#45;8cee&#45;48d9cd063436</title>
<polygon fill="white" stroke="black" points="808.5,-36 402.5,-36 402.5,0 808.5,0 808.5,-36"/>
<text text-anchor="middle" x="605.5" y="-14.3" font-family="Helvetica,sans-Serif" font-size="14.00">▶ Ran sandbox for `sweepai/handlers/on_comment.py`.</text>
</g>
<!-- e8678251&#45;ac59&#45;42ed&#45;9601&#45;deada62f1e96&#45;&gt;5f553661&#45;d00e&#45;4b45&#45;8cee&#45;48d9cd063436 -->
<g id="edge3" class="edge">
<title>e8678251&#45;ac59&#45;42ed&#45;9601&#45;deada62f1e96&#45;&gt;5f553661&#45;d00e&#45;4b45&#45;8cee&#45;48d9cd063436</title>
<path fill="none" stroke="black" stroke-dasharray="5,2" d="M605.5,-72.72C605.5,-64.27 605.5,-54.89 605.5,-46.36"/>
<polygon fill="black" stroke="black" points="609,-46.15 605.5,-36.15 602,-46.15 609,-46.15"/>
</g>
<!-- 2f666f7b&#45;ae05&#45;457f&#45;b1f0&#45;7784e119069d&#45;&gt;end -->
<g id="edge7" class="edge">
<title>2f666f7b&#45;ae05&#45;457f&#45;b1f0&#45;7784e119069d&#45;&gt;end</title>
<path fill="none" stroke="black" d="M1132.31,-99.87C1152.07,-99.87 1169.12,-99.87 1179.57,-99.87"/>
<polygon fill="black" stroke="black" points="1179.85,-103.37 1189.85,-99.87 1179.85,-96.37 1179.85,-103.37"/>
<text text-anchor="middle" x="1161.08" y="-106.67" font-family="Helvetica,sans-Serif" font-size="14.00">Finish</text>
</g>
<!-- 98ccc02e&#45;b850&#45;4111&#45;9725&#45;21d415fa90e7 -->
<g id="node8" class="node">
<title>98ccc02e&#45;b850&#45;4111&#45;9725&#45;21d415fa90e7</title>
<polygon fill="white" stroke="black" points="1186,-36 827,-36 827,0 1186,0 1186,-36"/>
<text text-anchor="middle" x="1006.5" y="-14.3" font-family="Helvetica,sans-Serif" font-size="14.00">▶ Ran sandbox for `sweepai/core/sweep_bot.py`.</text>
</g>
<!-- 2f666f7b&#45;ae05&#45;457f&#45;b1f0&#45;7784e119069d&#45;&gt;98ccc02e&#45;b850&#45;4111&#45;9725&#45;21d415fa90e7 -->
<g id="edge5" class="edge">
<title>2f666f7b&#45;ae05&#45;457f&#45;b1f0&#45;7784e119069d&#45;&gt;98ccc02e&#45;b850&#45;4111&#45;9725&#45;21d415fa90e7</title>
<path fill="none" stroke="black" stroke-dasharray="5,2" d="M993.05,-72.72C995.19,-64.18 997.57,-54.68 999.72,-46.08"/>
<polygon fill="black" stroke="black" points="1003.17,-46.7 1002.21,-36.15 996.38,-45 1003.17,-46.7"/>
</g>
</g>
</svg>
