<?xml version="1.0" encoding="UTF-8" standalone="no"?>
<!DOCTYPE svg PUBLIC "-//W3C//DTD SVG 1.1//EN"
 "http://www.w3.org/Graphics/SVG/1.1/DTD/svg11.dtd">
<!-- Generated by graphviz version 8.0.3 (0)
 -->
<!-- Pages: 1 -->
<svg width="585pt" height="238pt"
 viewBox="0.00 0.00 585.00 237.74" xmlns="http://www.w3.org/2000/svg" xmlns:xlink="http://www.w3.org/1999/xlink">
<g id="graph0" class="graph" transform="scale(1 1) rotate(0) translate(36 201.74)">
<polygon fill="dimgray" stroke="none" points="-36,36 -36,-201.74 549,-201.74 549,36 -36,36"/>
<text text-anchor="middle" x="256.5" y="-150.54" font-family="Helvetica,sans-Serif" font-size="14.00">Sweep&#39;s Plan &amp; Progress</text>
<!-- start -->
<g id="node1" class="node">
<title>start</title>
</g>
<!-- 0c08f465&#45;fac7&#45;46e1&#45;a04b&#45;4229c6ac587c -->
<g id="node3" class="node">
<title>0c08f465&#45;fac7&#45;46e1&#45;a04b&#45;4229c6ac587c</title>
<ellipse fill="yellow" stroke="black" cx="253.5" cy="-99.87" rx="200.64" ry="26.74"/>
<text text-anchor="middle" x="253.5" y="-103.67" font-family="Helvetica,sans-Serif" font-size="14.00">⋯ Modify</text>
<text text-anchor="middle" x="253.5" y="-88.67" font-family="Helvetica,sans-Serif" font-size="14.00">sweepai/agents/assistant_functions.py</text>
</g>
<!-- start&#45;&gt;0c08f465&#45;fac7&#45;46e1&#45;a04b&#45;4229c6ac587c -->
<g id="edge2" class="edge">
<title>start&#45;&gt;0c08f465&#45;fac7&#45;46e1&#45;a04b&#45;4229c6ac587c</title>
<path fill="none" stroke="black" d="M0.91,-99.87C3.6,-99.87 19.32,-99.87 41.7,-99.87"/>
<polygon fill="black" stroke="black" points="41.44,-103.37 51.44,-99.87 41.44,-96.37 41.44,-103.37"/>
<text text-anchor="middle" x="26.84" y="-106.67" font-family="Helvetica,sans-Serif" font-size="14.00">Start</text>
</g>
<!-- end -->
<g id="node2" class="node">
<title>end</title>
</g>
<!-- 0c08f465&#45;fac7&#45;46e1&#45;a04b&#45;4229c6ac587c&#45;&gt;end -->
<g id="edge3" class="edge">
<title>0c08f465&#45;fac7&#45;46e1&#45;a04b&#45;4229c6ac587c&#45;&gt;end</title>
<path fill="none" stroke="black" d="M454.38,-99.87C474.41,-99.87 491.13,-99.87 501.42,-99.87"/>
<polygon fill="black" stroke="black" points="501.22,-103.37 511.22,-99.87 501.22,-96.37 501.22,-103.37"/>
<text text-anchor="middle" x="483.16" y="-106.67" font-family="Helvetica,sans-Serif" font-size="14.00">Finish</text>
</g>
<!-- 842ec60a&#45;b351&#45;498e&#45;a0b1&#45;6c826110f852 -->
<g id="node4" class="node">
<title>842ec60a&#45;b351&#45;498e&#45;a0b1&#45;6c826110f852</title>
<polygon fill="white" stroke="black" points="491.5,-36 15.5,-36 15.5,0 491.5,0 491.5,-36"/>
<text text-anchor="middle" x="253.5" y="-14.3" font-family="Helvetica,sans-Serif" font-size="14.00">▶ Run GitHub Actions for `sweepai/agents/assistant_functions.py`</text>
</g>
<!-- 0c08f465&#45;fac7&#45;46e1&#45;a04b&#45;4229c6ac587c&#45;&gt;842ec60a&#45;b351&#45;498e&#45;a0b1&#45;6c826110f852 -->
<g id="edge1" class="edge">
<title>0c08f465&#45;fac7&#45;46e1&#45;a04b&#45;4229c6ac587c&#45;&gt;842ec60a&#45;b351&#45;498e&#45;a0b1&#45;6c826110f852</title>
<path fill="none" stroke="black" stroke-dasharray="5,2" d="M253.5,-72.72C253.5,-64.46 253.5,-55.31 253.5,-46.93"/>
<polygon fill="black" stroke="black" points="257,-47.15 253.5,-37.15 250,-47.15 257,-47.15"/>
</g>
</g>
</svg>
