<?xml version="1.0" encoding="UTF-8" standalone="no"?>
<!DOCTYPE svg PUBLIC "-//W3C//DTD SVG 1.1//EN"
 "http://www.w3.org/Graphics/SVG/1.1/DTD/svg11.dtd">
<!-- Generated by graphviz version 8.0.3 (0)
 -->
<!-- Pages: 1 -->
<svg width="1274pt" height="415pt"
 viewBox="0.00 0.00 1273.50 415.48" xmlns="http://www.w3.org/2000/svg" xmlns:xlink="http://www.w3.org/1999/xlink">
<g id="graph0" class="graph" transform="scale(1 1) rotate(0) translate(36 379.48)">
<polygon fill="dimgray" stroke="none" points="-36,36 -36,-379.48 1237.5,-379.48 1237.5,36 -36,36"/>
<text text-anchor="middle" x="600.75" y="-328.28" font-family="Helvetica,sans-Serif" font-size="14.00">Sweep&#39;s Plan &amp; Progress</text>
<!-- start -->
<g id="node1" class="node">
<title>start</title>
</g>
<!-- 156f41b5&#45;ec41&#45;4233&#45;b949&#45;79e0bf0ee2e6 -->
<g id="node3" class="node">
<title>156f41b5&#45;ec41&#45;4233&#45;b949&#45;79e0bf0ee2e6</title>
<ellipse fill="#0ee832" stroke="black" cx="589" cy="-277.61" rx="159.61" ry="26.74"/>
<text text-anchor="middle" x="589" y="-281.41" font-family="Helvetica,sans-Serif" font-size="14.00">✓ Modify</text>
<text text-anchor="middle" x="589" y="-266.41" font-family="Helvetica,sans-Serif" font-size="14.00">sweepai/handlers/on_ticket.py</text>
</g>
<!-- start&#45;&gt;156f41b5&#45;ec41&#45;4233&#45;b949&#45;79e0bf0ee2e6 -->
<g id="edge7" class="edge">
<title>start&#45;&gt;156f41b5&#45;ec41&#45;4233&#45;b949&#45;79e0bf0ee2e6</title>
<path fill="none" stroke="black" d="M377.15,-277.61C378.89,-277.61 395.25,-277.61 418.17,-277.61"/>
<polygon fill="black" stroke="black" points="418.13,-281.11 428.13,-277.61 418.13,-274.11 418.13,-281.11"/>
<text text-anchor="middle" x="403.35" y="-284.41" font-family="Helvetica,sans-Serif" font-size="14.00">Start</text>
</g>
<!-- end -->
<g id="node2" class="node">
<title>end</title>
</g>
<!-- 4564e8b5&#45;2000&#45;4ba2&#45;9c15&#45;c40353b3c878 -->
<g id="node4" class="node">
<title>4564e8b5&#45;2000&#45;4ba2&#45;9c15&#45;c40353b3c878</title>
<ellipse fill="white" stroke="black" cx="974" cy="-277.61" rx="169" ry="26.74"/>
<text text-anchor="middle" x="974" y="-281.41" font-family="Helvetica,sans-Serif" font-size="14.00">▶ Create</text>
<text text-anchor="middle" x="974" y="-266.41" font-family="Helvetica,sans-Serif" font-size="14.00">sweepai/utils/ticket_utils_test.py</text>
</g>
<!-- 156f41b5&#45;ec41&#45;4233&#45;b949&#45;79e0bf0ee2e6&#45;&gt;4564e8b5&#45;2000&#45;4ba2&#45;9c15&#45;c40353b3c878 -->
<g id="edge5" class="edge">
<title>156f41b5&#45;ec41&#45;4233&#45;b949&#45;79e0bf0ee2e6&#45;&gt;4564e8b5&#45;2000&#45;4ba2&#45;9c15&#45;c40353b3c878</title>
<path fill="none" stroke="black" d="M748.79,-277.61C763.77,-277.61 778.76,-277.61 793.74,-277.61"/>
<polygon fill="black" stroke="black" points="793.65,-281.11 803.65,-277.61 793.65,-274.11 793.65,-281.11"/>
</g>
<!-- dead76ba&#45;ae5e&#45;4601&#45;a4b0&#45;a68b30111f97 -->
<g id="node5" class="node">
<title>dead76ba&#45;ae5e&#45;4601&#45;a4b0&#45;a68b30111f97</title>
<polygon fill="#ee0000" stroke="black" points="380,-213.74 0,-213.74 0,-177.74 380,-177.74 380,-213.74"/>
<text text-anchor="middle" x="190" y="-192.04" font-family="Helvetica,sans-Serif" font-size="14.00">✗ Ran sandbox for `sweepai/handlers/on_ticket.py`.</text>
</g>
<!-- 156f41b5&#45;ec41&#45;4233&#45;b949&#45;79e0bf0ee2e6&#45;&gt;dead76ba&#45;ae5e&#45;4601&#45;a4b0&#45;a68b30111f97 -->
<g id="edge1" class="edge">
<title>156f41b5&#45;ec41&#45;4233&#45;b949&#45;79e0bf0ee2e6&#45;&gt;dead76ba&#45;ae5e&#45;4601&#45;a4b0&#45;a68b30111f97</title>
<path fill="none" stroke="black" stroke-dasharray="5,2" d="M488.32,-256.46C426.9,-244.16 348.77,-228.52 287.87,-216.33"/>
<polygon fill="black" stroke="black" points="288.59,-212.71 278.1,-214.18 287.22,-219.57 288.59,-212.71"/>
</g>
<!-- 3c943d61&#45;d94f&#45;4935&#45;a570&#45;f50e4dcce395 -->
<g id="node6" class="node">
<title>3c943d61&#45;d94f&#45;4935&#45;a570&#45;f50e4dcce395</title>
<polygon fill="yellow" stroke="black" points="780,-213.74 398,-213.74 398,-177.74 780,-177.74 780,-213.74"/>
<text text-anchor="middle" x="589" y="-192.04" font-family="Helvetica,sans-Serif" font-size="14.00">⋯ Ran sandbox for `sweepai/handlers/on_ticket.py`.</text>
</g>
<!-- 156f41b5&#45;ec41&#45;4233&#45;b949&#45;79e0bf0ee2e6&#45;&gt;3c943d61&#45;d94f&#45;4935&#45;a570&#45;f50e4dcce395 -->
<g id="edge4" class="edge">
<title>156f41b5&#45;ec41&#45;4233&#45;b949&#45;79e0bf0ee2e6&#45;&gt;3c943d61&#45;d94f&#45;4935&#45;a570&#45;f50e4dcce395</title>
<path fill="none" stroke="black" stroke-dasharray="5,2" d="M589,-250.46C589,-242.2 589,-233.05 589,-224.67"/>
<polygon fill="black" stroke="black" points="592.5,-224.89 589,-214.89 585.5,-224.89 592.5,-224.89"/>
</g>
<!-- 4564e8b5&#45;2000&#45;4ba2&#45;9c15&#45;c40353b3c878&#45;&gt;end -->
<g id="edge8" class="edge">
<title>4564e8b5&#45;2000&#45;4ba2&#45;9c15&#45;c40353b3c878&#45;&gt;end</title>
<path fill="none" stroke="black" d="M1143.42,-277.61C1163,-277.61 1179.61,-277.61 1189.89,-277.61"/>
<polygon fill="black" stroke="black" points="1189.72,-281.11 1199.72,-277.61 1189.72,-274.11 1189.72,-281.11"/>
<text text-anchor="middle" x="1171.75" y="-284.41" font-family="Helvetica,sans-Serif" font-size="14.00">Finish</text>
</g>
<!-- 5d58a82f&#45;850c&#45;40e6&#45;b1c0&#45;b2dbe4b7a5e2 -->
<g id="node7" class="node">
<title>5d58a82f&#45;850c&#45;40e6&#45;b1c0&#45;b2dbe4b7a5e2</title>
<polygon fill="white" stroke="black" points="1190,-213.74 798,-213.74 798,-177.74 1190,-177.74 1190,-213.74"/>
<text text-anchor="middle" x="994" y="-192.04" font-family="Helvetica,sans-Serif" font-size="14.00">▶ Ran sandbox for `sweepai/utils/ticket_utils_test.py`.</text>
</g>
<!-- 4564e8b5&#45;2000&#45;4ba2&#45;9c15&#45;c40353b3c878&#45;&gt;5d58a82f&#45;850c&#45;40e6&#45;b1c0&#45;b2dbe4b7a5e2 -->
<g id="edge6" class="edge">
<title>4564e8b5&#45;2000&#45;4ba2&#45;9c15&#45;c40353b3c878&#45;&gt;5d58a82f&#45;850c&#45;40e6&#45;b1c0&#45;b2dbe4b7a5e2</title>
<path fill="none" stroke="black" stroke-dasharray="5,2" d="M980.55,-250.46C982.64,-242.11 984.96,-232.84 987.08,-224.39"/>
<polygon fill="black" stroke="black" points="990.67,-225.44 989.71,-214.89 983.88,-223.74 990.67,-225.44"/>
</g>
<!-- 9a22e55f&#45;e85e&#45;48a1&#45;a60d&#45;ee6a1f97cc83 -->
<g id="node8" class="node">
<title>9a22e55f&#45;e85e&#45;48a1&#45;a60d&#45;ee6a1f97cc83</title>
<ellipse fill="#0ee832" stroke="black" cx="190" cy="-99.87" rx="159.61" ry="26.74"/>
<text text-anchor="middle" x="190" y="-103.67" font-family="Helvetica,sans-Serif" font-size="14.00">✓ Modify</text>
<text text-anchor="middle" x="190" y="-88.67" font-family="Helvetica,sans-Serif" font-size="14.00">sweepai/handlers/on_ticket.py</text>
</g>
<!-- dead76ba&#45;ae5e&#45;4601&#45;a4b0&#45;a68b30111f97&#45;&gt;9a22e55f&#45;e85e&#45;48a1&#45;a60d&#45;ee6a1f97cc83 -->
<g id="edge2" class="edge">
<title>dead76ba&#45;ae5e&#45;4601&#45;a4b0&#45;a68b30111f97&#45;&gt;9a22e55f&#45;e85e&#45;48a1&#45;a60d&#45;ee6a1f97cc83</title>
<path fill="none" stroke="black" d="M190,-177.52C190,-166.33 190,-151.31 190,-137.53"/>
<polygon fill="black" stroke="black" points="193.5,-137.84 190,-127.84 186.5,-137.84 193.5,-137.84"/>
<text text-anchor="middle" x="287.5" y="-148.54" font-family="Helvetica,sans-Serif" font-size="14.00">Additional changes required</text>
</g>
<!-- 22a09bf5&#45;fbfd&#45;4aeb&#45;9f1b&#45;c7a22719d76a -->
<g id="node9" class="node">
<title>22a09bf5&#45;fbfd&#45;4aeb&#45;9f1b&#45;c7a22719d76a</title>
<polygon fill="#ee0000" stroke="black" points="380,-36 0,-36 0,0 380,0 380,-36"/>
<text text-anchor="middle" x="190" y="-14.3" font-family="Helvetica,sans-Serif" font-size="14.00">✗ Ran sandbox for `sweepai/handlers/on_ticket.py`.</text>
</g>
<!-- 9a22e55f&#45;e85e&#45;48a1&#45;a60d&#45;ee6a1f97cc83&#45;&gt;22a09bf5&#45;fbfd&#45;4aeb&#45;9f1b&#45;c7a22719d76a -->
<g id="edge3" class="edge">
<title>9a22e55f&#45;e85e&#45;48a1&#45;a60d&#45;ee6a1f97cc83&#45;&gt;22a09bf5&#45;fbfd&#45;4aeb&#45;9f1b&#45;c7a22719d76a</title>
<path fill="none" stroke="black" stroke-dasharray="5,2" d="M190,-72.72C190,-64.46 190,-55.31 190,-46.93"/>
<polygon fill="black" stroke="black" points="193.5,-47.15 190,-37.15 186.5,-47.15 193.5,-47.15"/>
</g>
</g>
</svg>
