<?xml version="1.0" encoding="UTF-8" standalone="no"?>
<!DOCTYPE svg PUBLIC "-//W3C//DTD SVG 1.1//EN"
 "http://www.w3.org/Graphics/SVG/1.1/DTD/svg11.dtd">
<!-- Generated by graphviz version 8.0.3 (0)
 -->
<!-- Pages: 1 -->
<svg width="543pt" height="238pt"
 viewBox="0.00 0.00 543.00 237.74" xmlns="http://www.w3.org/2000/svg" xmlns:xlink="http://www.w3.org/1999/xlink">
<g id="graph0" class="graph" transform="scale(1 1) rotate(0) translate(36 201.74)">
<polygon fill="dimgray" stroke="none" points="-36,36 -36,-201.74 507,-201.74 507,36 -36,36"/>
<text text-anchor="middle" x="235.5" y="-150.54" font-family="Helvetica,sans-Serif" font-size="14.00">Sweep&#39;s Plan &amp; Progress</text>
<!-- start -->
<g id="node1" class="node">
<title>start</title>
</g>
<!-- cf8630f0&#45;0bd3&#45;425f&#45;b2bf&#45;991ac22b94e8 -->
<g id="node3" class="node">
<title>cf8630f0&#45;0bd3&#45;425f&#45;b2bf&#45;991ac22b94e8</title>
<ellipse fill="#ee0000" stroke="black" cx="232.5" cy="-99.87" rx="179.71" ry="26.74"/>
<text text-anchor="middle" x="232.5" y="-103.67" font-family="Helvetica,sans-Serif" font-size="14.00">✗ Modify</text>
<text text-anchor="middle" x="232.5" y="-88.67" font-family="Helvetica,sans-Serif" font-size="14.00">sweepai/agents/complete_code.py</text>
</g>
<!-- start&#45;&gt;cf8630f0&#45;0bd3&#45;425f&#45;b2bf&#45;991ac22b94e8 -->
<g id="edge2" class="edge">
<title>start&#45;&gt;cf8630f0&#45;0bd3&#45;425f&#45;b2bf&#45;991ac22b94e8</title>
<path fill="none" stroke="black" d="M0.67,-99.87C2.46,-99.87 18.51,-99.87 41.39,-99.87"/>
<polygon fill="black" stroke="black" points="41.36,-103.37 51.36,-99.87 41.36,-96.37 41.36,-103.37"/>
<text text-anchor="middle" x="26.95" y="-106.67" font-family="Helvetica,sans-Serif" font-size="14.00">Start</text>
</g>
<!-- end -->
<g id="node2" class="node">
<title>end</title>
</g>
<!-- cf8630f0&#45;0bd3&#45;425f&#45;b2bf&#45;991ac22b94e8&#45;&gt;end -->
<g id="edge3" class="edge">
<title>cf8630f0&#45;0bd3&#45;425f&#45;b2bf&#45;991ac22b94e8&#45;&gt;end</title>
<path fill="none" stroke="black" d="M412.58,-99.87C432.37,-99.87 449.06,-99.87 459.37,-99.87"/>
<polygon fill="black" stroke="black" points="459.22,-103.37 469.22,-99.87 459.22,-96.37 459.22,-103.37"/>
<text text-anchor="middle" x="441.05" y="-106.67" font-family="Helvetica,sans-Serif" font-size="14.00">Finish</text>
</g>
<!-- 6ef343db&#45;d2ec&#45;42de&#45;8319&#45;8e099d0dd0b5 -->
<g id="node4" class="node">
<title>6ef343db&#45;d2ec&#45;42de&#45;8319&#45;8e099d0dd0b5</title>
<polygon fill="yellow" stroke="black" points="437.5,-36 27.5,-36 27.5,0 437.5,0 437.5,-36"/>
<text text-anchor="middle" x="232.5" y="-14.3" font-family="Helvetica,sans-Serif" font-size="14.00">⋯ Ran sandbox for `sweepai/agents/complete_code.py`.</text>
</g>
<!-- cf8630f0&#45;0bd3&#45;425f&#45;b2bf&#45;991ac22b94e8&#45;&gt;6ef343db&#45;d2ec&#45;42de&#45;8319&#45;8e099d0dd0b5 -->
<g id="edge1" class="edge">
<title>cf8630f0&#45;0bd3&#45;425f&#45;b2bf&#45;991ac22b94e8&#45;&gt;6ef343db&#45;d2ec&#45;42de&#45;8319&#45;8e099d0dd0b5</title>
<path fill="none" stroke="black" stroke-dasharray="5,2" d="M232.5,-72.72C232.5,-64.46 232.5,-55.31 232.5,-46.93"/>
<polygon fill="black" stroke="black" points="236,-47.15 232.5,-37.15 229,-47.15 236,-47.15"/>
</g>
</g>
</svg>
