<?xml version="1.0" encoding="UTF-8" standalone="no"?>
<!DOCTYPE svg PUBLIC "-//W3C//DTD SVG 1.1//EN"
 "http://www.w3.org/Graphics/SVG/1.1/DTD/svg11.dtd">
<!-- Generated by graphviz version 2.43.0 (0)
 -->
<!-- Title: %3 Pages: 1 -->
<svg width="912pt" height="238pt"
 viewBox="0.00 0.00 911.50 237.74" xmlns="http://www.w3.org/2000/svg" xmlns:xlink="http://www.w3.org/1999/xlink">
<g id="graph0" class="graph" transform="scale(1 1) rotate(0) translate(36 201.74)">
<title>%3</title>
<polygon fill="dimgray" stroke="transparent" points="-36,36 -36,-201.74 875.5,-201.74 875.5,36 -36,36"/>
<text text-anchor="middle" x="419.75" y="-150.54" font-family="Helvetica,sans-Serif" font-size="14.00">Sweep&#39;s Plan &amp; Progress</text>
<!-- start -->
<g id="node1" class="node">
<title>start</title>
</g>
<!-- d835ddbd&#45;37b6&#45;41a7&#45;b1e1&#45;fa28c94820cc -->
<g id="node3" class="node">
<title>d835ddbd&#45;37b6&#45;41a7&#45;b1e1&#45;fa28c94820cc</title>
<ellipse fill="#0ee832" stroke="black" cx="253" cy="-99.87" rx="162.77" ry="26.74"/>
<text text-anchor="middle" x="253" y="-103.67" font-family="Helvetica,sans-Serif" font-size="14.00">✓ Create</text>
<text text-anchor="middle" x="253" y="-88.67" font-family="Helvetica,sans-Serif" font-size="14.00">sweepai/agents/filter_agent.py</text>
</g>
<!-- start&#45;&gt;d835ddbd&#45;37b6&#45;41a7&#45;b1e1&#45;fa28c94820cc -->
<g id="edge4" class="edge">
<title>start&#45;&gt;d835ddbd&#45;37b6&#45;41a7&#45;b1e1&#45;fa28c94820cc</title>
<path fill="none" stroke="black" d="M38.62,-99.87C41.9,-99.87 58,-99.87 80.02,-99.87"/>
<polygon fill="black" stroke="black" points="80.17,-103.37 90.17,-99.87 80.17,-96.37 80.17,-103.37"/>
<text text-anchor="middle" x="64.43" y="-106.67" font-family="Helvetica,sans-Serif" font-size="14.00">Start</text>
</g>
<!-- end -->
<g id="node2" class="node">
<title>end</title>
</g>
<!-- 9b6ee351&#45;6bb3&#45;4f4e&#45;84a1&#45;bc79144b919b -->
<g id="node4" class="node">
<title>9b6ee351&#45;6bb3&#45;4f4e&#45;84a1&#45;bc79144b919b</title>
<ellipse fill="#0ee832" stroke="black" cx="619" cy="-99.87" rx="145.83" ry="26.74"/>
<text text-anchor="middle" x="619" y="-103.67" font-family="Helvetica,sans-Serif" font-size="14.00">✓ Modify</text>
<text text-anchor="middle" x="619" y="-88.67" font-family="Helvetica,sans-Serif" font-size="14.00">sweepai/utils/ticket_utils.py</text>
</g>
<!-- d835ddbd&#45;37b6&#45;41a7&#45;b1e1&#45;fa28c94820cc&#45;&gt;9b6ee351&#45;6bb3&#45;4f4e&#45;84a1&#45;bc79144b919b -->
<g id="edge2" class="edge">
<title>d835ddbd&#45;37b6&#45;41a7&#45;b1e1&#45;fa28c94820cc&#45;&gt;9b6ee351&#45;6bb3&#45;4f4e&#45;84a1&#45;bc79144b919b</title>
<path fill="none" stroke="black" d="M415.98,-99.87C431.6,-99.87 447.21,-99.87 462.82,-99.87"/>
<polygon fill="black" stroke="black" points="463.08,-103.37 473.08,-99.87 463.08,-96.37 463.08,-103.37"/>
</g>
<!-- b64245c4&#45;8461&#45;4688&#45;b003&#45;7f766992d4e8 -->
<g id="node5" class="node">
<title>b64245c4&#45;8461&#45;4688&#45;b003&#45;7f766992d4e8</title>
<polygon fill="#0ee832" stroke="black" points="422,-36 0,-36 0,0 422,0 422,-36"/>
<text text-anchor="middle" x="211" y="-14.3" font-family="Helvetica,sans-Serif" font-size="14.00">✓ Run GitHub Actions for `sweepai/agents/filter_agent.py`</text>
</g>
<!-- d835ddbd&#45;37b6&#45;41a7&#45;b1e1&#45;fa28c94820cc&#45;&gt;b64245c4&#45;8461&#45;4688&#45;b003&#45;7f766992d4e8 -->
<g id="edge1" class="edge">
<title>d835ddbd&#45;37b6&#45;41a7&#45;b1e1&#45;fa28c94820cc&#45;&gt;b64245c4&#45;8461&#45;4688&#45;b003&#45;7f766992d4e8</title>
<path fill="none" stroke="black" stroke-dasharray="5,2" d="M239.25,-72.72C234.61,-63.9 229.43,-54.05 224.79,-45.23"/>
<polygon fill="black" stroke="black" points="227.77,-43.37 220.02,-36.15 221.57,-46.63 227.77,-43.37"/>
</g>
<!-- 9b6ee351&#45;6bb3&#45;4f4e&#45;84a1&#45;bc79144b919b&#45;&gt;end -->
<g id="edge5" class="edge">
<title>9b6ee351&#45;6bb3&#45;4f4e&#45;84a1&#45;bc79144b919b&#45;&gt;end</title>
<path fill="none" stroke="black" d="M764.81,-99.87C784.57,-99.87 801.62,-99.87 812.07,-99.87"/>
<polygon fill="black" stroke="black" points="812.35,-103.37 822.35,-99.87 812.35,-96.37 812.35,-103.37"/>
<text text-anchor="middle" x="793.58" y="-106.67" font-family="Helvetica,sans-Serif" font-size="14.00">Finish</text>
</g>
<!-- ab663397&#45;f316&#45;4dd0&#45;b0d6&#45;41ded4e16b73 -->
<g id="node6" class="node">
<title>ab663397&#45;f316&#45;4dd0&#45;b0d6&#45;41ded4e16b73</title>
<polygon fill="#0ee832" stroke="black" points="839.5,-36 440.5,-36 440.5,0 839.5,0 839.5,-36"/>
<text text-anchor="middle" x="640" y="-14.3" font-family="Helvetica,sans-Serif" font-size="14.00">✓ Run GitHub Actions for `sweepai/utils/ticket_utils.py`</text>
</g>
<!-- 9b6ee351&#45;6bb3&#45;4f4e&#45;84a1&#45;bc79144b919b&#45;&gt;ab663397&#45;f316&#45;4dd0&#45;b0d6&#45;41ded4e16b73 -->
<g id="edge3" class="edge">
<title>9b6ee351&#45;6bb3&#45;4f4e&#45;84a1&#45;bc79144b919b&#45;&gt;ab663397&#45;f316&#45;4dd0&#45;b0d6&#45;41ded4e16b73</title>
<path fill="none" stroke="black" stroke-dasharray="5,2" d="M625.88,-72.72C628.12,-64.18 630.62,-54.68 632.88,-46.08"/>
<polygon fill="black" stroke="black" points="636.33,-46.71 635.49,-36.15 629.56,-44.93 636.33,-46.71"/>
</g>
</g>
</svg>
