<?xml version="1.0" encoding="UTF-8" standalone="no"?>
<!DOCTYPE svg PUBLIC "-//W3C//DTD SVG 1.1//EN"
 "http://www.w3.org/Graphics/SVG/1.1/DTD/svg11.dtd">
<!-- Generated by graphviz version 2.43.0 (0)
 -->
<!-- Title: %3 Pages: 1 -->
<svg width="1483pt" height="238pt"
 viewBox="0.00 0.00 1482.50 237.74" xmlns="http://www.w3.org/2000/svg" xmlns:xlink="http://www.w3.org/1999/xlink">
<g id="graph0" class="graph" transform="scale(1 1) rotate(0) translate(36 201.74)">
<title>%3</title>
<polygon fill="dimgray" stroke="transparent" points="-36,36 -36,-201.74 1446.5,-201.74 1446.5,36 -36,36"/>
<text text-anchor="middle" x="705.25" y="-150.54" font-family="Helvetica,sans-Serif" font-size="14.00">Sweep&#39;s Plan &amp; Progress</text>
<!-- start -->
<g id="node1" class="node">
<title>start</title>
</g>
<!-- b5feb549&#45;ba0c&#45;4fd3&#45;a5ed&#45;19e9b0df2728 -->
<g id="node3" class="node">
<title>b5feb549&#45;ba0c&#45;4fd3&#45;a5ed&#45;19e9b0df2728</title>
<ellipse fill="#0ee832" stroke="black" cx="262" cy="-99.87" rx="195.74" ry="26.74"/>
<text text-anchor="middle" x="262" y="-103.67" font-family="Helvetica,sans-Serif" font-size="14.00">✓ Create</text>
<text text-anchor="middle" x="262" y="-88.67" font-family="Helvetica,sans-Serif" font-size="14.00">sweepai/agents/query_filter_agent.py</text>
</g>
<!-- start&#45;&gt;b5feb549&#45;ba0c&#45;4fd3&#45;a5ed&#45;19e9b0df2728 -->
<g id="edge6" class="edge">
<title>start&#45;&gt;b5feb549&#45;ba0c&#45;4fd3&#45;a5ed&#45;19e9b0df2728</title>
<path fill="none" stroke="black" d="M14.71,-99.87C18.16,-99.87 33.91,-99.87 55.91,-99.87"/>
<polygon fill="black" stroke="black" points="56.07,-103.37 66.07,-99.87 56.07,-96.37 56.07,-103.37"/>
<text text-anchor="middle" x="40.32" y="-106.67" font-family="Helvetica,sans-Serif" font-size="14.00">Start</text>
</g>
<!-- end -->
<g id="node2" class="node">
<title>end</title>
</g>
<!-- bb4bb31e&#45;995b&#45;4ab0&#45;9c00&#45;5ce7954172bb -->
<g id="node4" class="node">
<title>bb4bb31e&#45;995b&#45;4ab0&#45;9c00&#45;5ce7954172bb</title>
<ellipse fill="#0ee832" stroke="black" cx="740" cy="-99.87" rx="219.41" ry="26.74"/>
<text text-anchor="middle" x="740" y="-103.67" font-family="Helvetica,sans-Serif" font-size="14.00">✓ Create</text>
<text text-anchor="middle" x="740" y="-88.67" font-family="Helvetica,sans-Serif" font-size="14.00">sweepai/agents/query_filter_agent_test.py</text>
</g>
<!-- b5feb549&#45;ba0c&#45;4fd3&#45;a5ed&#45;19e9b0df2728&#45;&gt;bb4bb31e&#45;995b&#45;4ab0&#45;9c00&#45;5ce7954172bb -->
<g id="edge2" class="edge">
<title>b5feb549&#45;ba0c&#45;4fd3&#45;a5ed&#45;19e9b0df2728&#45;&gt;bb4bb31e&#45;995b&#45;4ab0&#45;9c00&#45;5ce7954172bb</title>
<path fill="none" stroke="black" d="M458.05,-99.87C475.47,-99.87 492.89,-99.87 510.3,-99.87"/>
<polygon fill="black" stroke="black" points="510.56,-103.37 520.56,-99.87 510.56,-96.37 510.56,-103.37"/>
</g>
<!-- 551cc0c9&#45;6fb0&#45;4da0&#45;92c4&#45;95d23260a0ae -->
<g id="node6" class="node">
<title>551cc0c9&#45;6fb0&#45;4da0&#45;92c4&#45;95d23260a0ae</title>
<polygon fill="#0ee832" stroke="black" points="470,-36 0,-36 0,0 470,0 470,-36"/>
<text text-anchor="middle" x="235" y="-14.3" font-family="Helvetica,sans-Serif" font-size="14.00">✓ Run GitHub Actions for `sweepai/agents/query_filter_agent.py`</text>
</g>
<!-- b5feb549&#45;ba0c&#45;4fd3&#45;a5ed&#45;19e9b0df2728&#45;&gt;551cc0c9&#45;6fb0&#45;4da0&#45;92c4&#45;95d23260a0ae -->
<g id="edge1" class="edge">
<title>b5feb549&#45;ba0c&#45;4fd3&#45;a5ed&#45;19e9b0df2728&#45;&gt;551cc0c9&#45;6fb0&#45;4da0&#45;92c4&#45;95d23260a0ae</title>
<path fill="none" stroke="black" stroke-dasharray="5,2" d="M253.16,-72.72C250.24,-64.08 246.99,-54.47 244.06,-45.79"/>
<polygon fill="black" stroke="black" points="247.31,-44.5 240.8,-36.15 240.68,-46.74 247.31,-44.5"/>
</g>
<!-- 5c7c79f9&#45;b3cc&#45;43d7&#45;b938&#45;81eb5cb9bc29 -->
<g id="node5" class="node">
<title>5c7c79f9&#45;b3cc&#45;43d7&#45;b938&#45;81eb5cb9bc29</title>
<ellipse fill="#0ee832" stroke="black" cx="1175" cy="-99.87" rx="145.83" ry="26.74"/>
<text text-anchor="middle" x="1175" y="-103.67" font-family="Helvetica,sans-Serif" font-size="14.00">✓ Modify</text>
<text text-anchor="middle" x="1175" y="-88.67" font-family="Helvetica,sans-Serif" font-size="14.00">sweepai/utils/ticket_utils.py</text>
</g>
<!-- bb4bb31e&#45;995b&#45;4ab0&#45;9c00&#45;5ce7954172bb&#45;&gt;5c7c79f9&#45;b3cc&#45;43d7&#45;b938&#45;81eb5cb9bc29 -->
<g id="edge4" class="edge">
<title>bb4bb31e&#45;995b&#45;4ab0&#45;9c00&#45;5ce7954172bb&#45;&gt;5c7c79f9&#45;b3cc&#45;43d7&#45;b938&#45;81eb5cb9bc29</title>
<path fill="none" stroke="black" d="M959.62,-99.87C979.42,-99.87 999.21,-99.87 1019,-99.87"/>
<polygon fill="black" stroke="black" points="1019.03,-103.37 1029.03,-99.87 1019.03,-96.37 1019.03,-103.37"/>
</g>
<!-- d3238d1b&#45;41dc&#45;4a60&#45;b950&#45;e71d88d7a903 -->
<g id="node7" class="node">
<title>d3238d1b&#45;41dc&#45;4a60&#45;b950&#45;e71d88d7a903</title>
<polygon fill="#0ee832" stroke="black" points="991.5,-36 488.5,-36 488.5,0 991.5,0 991.5,-36"/>
<text text-anchor="middle" x="740" y="-14.3" font-family="Helvetica,sans-Serif" font-size="14.00">✓ Run GitHub Actions for `sweepai/agents/query_filter_agent_test.py`</text>
</g>
<!-- bb4bb31e&#45;995b&#45;4ab0&#45;9c00&#45;5ce7954172bb&#45;&gt;d3238d1b&#45;41dc&#45;4a60&#45;b950&#45;e71d88d7a903 -->
<g id="edge3" class="edge">
<title>bb4bb31e&#45;995b&#45;4ab0&#45;9c00&#45;5ce7954172bb&#45;&gt;d3238d1b&#45;41dc&#45;4a60&#45;b950&#45;e71d88d7a903</title>
<path fill="none" stroke="black" stroke-dasharray="5,2" d="M740,-72.72C740,-64.27 740,-54.89 740,-46.36"/>
<polygon fill="black" stroke="black" points="743.5,-46.15 740,-36.15 736.5,-46.15 743.5,-46.15"/>
</g>
<!-- 5c7c79f9&#45;b3cc&#45;43d7&#45;b938&#45;81eb5cb9bc29&#45;&gt;end -->
<g id="edge7" class="edge">
<title>5c7c79f9&#45;b3cc&#45;43d7&#45;b938&#45;81eb5cb9bc29&#45;&gt;end</title>
<path fill="none" stroke="black" d="M1320.81,-99.87C1340.57,-99.87 1357.62,-99.87 1368.07,-99.87"/>
<polygon fill="black" stroke="black" points="1368.35,-103.37 1378.35,-99.87 1368.35,-96.37 1368.35,-103.37"/>
<text text-anchor="middle" x="1349.58" y="-106.67" font-family="Helvetica,sans-Serif" font-size="14.00">Finish</text>
</g>
<!-- c643b0f6&#45;4ec7&#45;45bc&#45;a9e9&#45;7a6d95b2fe33 -->
<g id="node8" class="node">
<title>c643b0f6&#45;4ec7&#45;45bc&#45;a9e9&#45;7a6d95b2fe33</title>
<polygon fill="yellow" stroke="black" points="1410.5,-36 1009.5,-36 1009.5,0 1410.5,0 1410.5,-36"/>
<text text-anchor="middle" x="1210" y="-14.3" font-family="Helvetica,sans-Serif" font-size="14.00">⋯ Run GitHub Actions for `sweepai/utils/ticket_utils.py`</text>
</g>
<!-- 5c7c79f9&#45;b3cc&#45;43d7&#45;b938&#45;81eb5cb9bc29&#45;&gt;c643b0f6&#45;4ec7&#45;45bc&#45;a9e9&#45;7a6d95b2fe33 -->
<g id="edge5" class="edge">
<title>5c7c79f9&#45;b3cc&#45;43d7&#45;b938&#45;81eb5cb9bc29&#45;&gt;c643b0f6&#45;4ec7&#45;45bc&#45;a9e9&#45;7a6d95b2fe33</title>
<path fill="none" stroke="black" stroke-dasharray="5,2" d="M1186.46,-72.72C1190.28,-63.99 1194.55,-54.26 1198.38,-45.51"/>
<polygon fill="black" stroke="black" points="1201.68,-46.71 1202.49,-36.15 1195.27,-43.9 1201.68,-46.71"/>
</g>
</g>
</svg>
