<?xml version="1.0" encoding="UTF-8" standalone="no"?>
<!DOCTYPE svg PUBLIC "-//W3C//DTD SVG 1.1//EN"
 "http://www.w3.org/Graphics/SVG/1.1/DTD/svg11.dtd">
<!-- Generated by graphviz version 2.43.0 (0)
 -->
<!-- Title: %3 Pages: 1 -->
<svg width="1382pt" height="238pt"
 viewBox="0.00 0.00 1381.50 237.74" xmlns="http://www.w3.org/2000/svg" xmlns:xlink="http://www.w3.org/1999/xlink">
<g id="graph0" class="graph" transform="scale(1 1) rotate(0) translate(36 201.74)">
<title>%3</title>
<polygon fill="dimgray" stroke="transparent" points="-36,36 -36,-201.74 1345.5,-201.74 1345.5,36 -36,36"/>
<text text-anchor="middle" x="654.75" y="-150.54" font-family="Helvetica,sans-Serif" font-size="14.00">Sweep&#39;s Plan &amp; Progress</text>
<!-- start -->
<g id="node1" class="node">
<title>start</title>
</g>
<!-- 76351002&#45;f660&#45;4758&#45;ba0c&#45;7bbbbe8d0c27 -->
<g id="node3" class="node">
<title>76351002&#45;f660&#45;4758&#45;ba0c&#45;7bbbbe8d0c27</title>
<ellipse fill="yellow" stroke="black" cx="246.5" cy="-99.87" rx="162.77" ry="26.74"/>
<text text-anchor="middle" x="246.5" y="-103.67" font-family="Helvetica,sans-Serif" font-size="14.00">⋯ Create</text>
<text text-anchor="middle" x="246.5" y="-88.67" font-family="Helvetica,sans-Serif" font-size="14.00">sweepai/agents/filter_agent.py</text>
</g>
<!-- start&#45;&gt;76351002&#45;f660&#45;4758&#45;ba0c&#45;7bbbbe8d0c27 -->
<g id="edge6" class="edge">
<title>start&#45;&gt;76351002&#45;f660&#45;4758&#45;ba0c&#45;7bbbbe8d0c27</title>
<path fill="none" stroke="black" d="M32.12,-99.87C35.4,-99.87 51.5,-99.87 73.52,-99.87"/>
<polygon fill="black" stroke="black" points="73.67,-103.37 83.67,-99.87 73.67,-96.37 73.67,-103.37"/>
<text text-anchor="middle" x="57.93" y="-106.67" font-family="Helvetica,sans-Serif" font-size="14.00">Start</text>
</g>
<!-- end -->
<g id="node2" class="node">
<title>end</title>
</g>
<!-- 99f8e3e4&#45;dce3&#45;431b&#45;8f4d&#45;a23e6e4273ce -->
<g id="node4" class="node">
<title>99f8e3e4&#45;dce3&#45;431b&#45;8f4d&#45;a23e6e4273ce</title>
<ellipse fill="white" stroke="black" cx="666.5" cy="-99.87" rx="185.94" ry="26.74"/>
<text text-anchor="middle" x="666.5" y="-103.67" font-family="Helvetica,sans-Serif" font-size="14.00">▶ Create</text>
<text text-anchor="middle" x="666.5" y="-88.67" font-family="Helvetica,sans-Serif" font-size="14.00">sweepai/agents/filter_agent_test.py</text>
</g>
<!-- 76351002&#45;f660&#45;4758&#45;ba0c&#45;7bbbbe8d0c27&#45;&gt;99f8e3e4&#45;dce3&#45;431b&#45;8f4d&#45;a23e6e4273ce -->
<g id="edge2" class="edge">
<title>76351002&#45;f660&#45;4758&#45;ba0c&#45;7bbbbe8d0c27&#45;&gt;99f8e3e4&#45;dce3&#45;431b&#45;8f4d&#45;a23e6e4273ce</title>
<path fill="none" stroke="black" d="M409.33,-99.87C429.6,-99.87 449.87,-99.87 470.13,-99.87"/>
<polygon fill="black" stroke="black" points="470.4,-103.37 480.4,-99.87 470.4,-96.37 470.4,-103.37"/>
</g>
<!-- 04d8292c&#45;84de&#45;47b1&#45;8e22&#45;504d54dfc0f7 -->
<g id="node6" class="node">
<title>04d8292c&#45;84de&#45;47b1&#45;8e22&#45;504d54dfc0f7</title>
<polygon fill="white" stroke="black" points="421,-36 0,-36 0,0 421,0 421,-36"/>
<text text-anchor="middle" x="210.5" y="-14.3" font-family="Helvetica,sans-Serif" font-size="14.00">▶ Run GitHub Actions for `sweepai/agents/filter_agent.py`</text>
</g>
<!-- 76351002&#45;f660&#45;4758&#45;ba0c&#45;7bbbbe8d0c27&#45;&gt;04d8292c&#45;84de&#45;47b1&#45;8e22&#45;504d54dfc0f7 -->
<g id="edge1" class="edge">
<title>76351002&#45;f660&#45;4758&#45;ba0c&#45;7bbbbe8d0c27&#45;&gt;04d8292c&#45;84de&#45;47b1&#45;8e22&#45;504d54dfc0f7</title>
<path fill="none" stroke="black" stroke-dasharray="5,2" d="M234.71,-72.72C230.78,-63.99 226.39,-54.26 222.45,-45.51"/>
<polygon fill="black" stroke="black" points="225.53,-43.82 218.23,-36.15 219.15,-46.7 225.53,-43.82"/>
</g>
<!-- c08472ba&#45;4e06&#45;4fe3&#45;8e24&#45;5b35931169d8 -->
<g id="node5" class="node">
<title>c08472ba&#45;4e06&#45;4fe3&#45;8e24&#45;5b35931169d8</title>
<ellipse fill="white" stroke="black" cx="1072.5" cy="-99.87" rx="145.83" ry="26.74"/>
<text text-anchor="middle" x="1072.5" y="-103.67" font-family="Helvetica,sans-Serif" font-size="14.00">▶ Modify</text>
<text text-anchor="middle" x="1072.5" y="-88.67" font-family="Helvetica,sans-Serif" font-size="14.00">sweepai/utils/ticket_utils.py</text>
</g>
<!-- 99f8e3e4&#45;dce3&#45;431b&#45;8f4d&#45;a23e6e4273ce&#45;&gt;c08472ba&#45;4e06&#45;4fe3&#45;8e24&#45;5b35931169d8 -->
<g id="edge4" class="edge">
<title>99f8e3e4&#45;dce3&#45;431b&#45;8f4d&#45;a23e6e4273ce&#45;&gt;c08472ba&#45;4e06&#45;4fe3&#45;8e24&#45;5b35931169d8</title>
<path fill="none" stroke="black" d="M852.85,-99.87C874.08,-99.87 895.32,-99.87 916.55,-99.87"/>
<polygon fill="black" stroke="black" points="916.64,-103.37 926.64,-99.87 916.64,-96.37 916.64,-103.37"/>
</g>
<!-- c9c14804&#45;4c3a&#45;4d27&#45;97d4&#45;86f4bca5e543 -->
<g id="node7" class="node">
<title>c9c14804&#45;4c3a&#45;4d27&#45;97d4&#45;86f4bca5e543</title>
<polygon fill="white" stroke="black" points="893.5,-36 439.5,-36 439.5,0 893.5,0 893.5,-36"/>
<text text-anchor="middle" x="666.5" y="-14.3" font-family="Helvetica,sans-Serif" font-size="14.00">▶ Run GitHub Actions for `sweepai/agents/filter_agent_test.py`</text>
</g>
<!-- 99f8e3e4&#45;dce3&#45;431b&#45;8f4d&#45;a23e6e4273ce&#45;&gt;c9c14804&#45;4c3a&#45;4d27&#45;97d4&#45;86f4bca5e543 -->
<g id="edge3" class="edge">
<title>99f8e3e4&#45;dce3&#45;431b&#45;8f4d&#45;a23e6e4273ce&#45;&gt;c9c14804&#45;4c3a&#45;4d27&#45;97d4&#45;86f4bca5e543</title>
<path fill="none" stroke="black" stroke-dasharray="5,2" d="M666.5,-72.72C666.5,-64.27 666.5,-54.89 666.5,-46.36"/>
<polygon fill="black" stroke="black" points="670,-46.15 666.5,-36.15 663,-46.15 670,-46.15"/>
</g>
<!-- c08472ba&#45;4e06&#45;4fe3&#45;8e24&#45;5b35931169d8&#45;&gt;end -->
<g id="edge7" class="edge">
<title>c08472ba&#45;4e06&#45;4fe3&#45;8e24&#45;5b35931169d8&#45;&gt;end</title>
<path fill="none" stroke="black" d="M1218.31,-99.87C1238.07,-99.87 1255.12,-99.87 1265.57,-99.87"/>
<polygon fill="black" stroke="black" points="1265.85,-103.37 1275.85,-99.87 1265.85,-96.37 1265.85,-103.37"/>
<text text-anchor="middle" x="1247.08" y="-106.67" font-family="Helvetica,sans-Serif" font-size="14.00">Finish</text>
</g>
<!-- 6deb25fc&#45;2f17&#45;405a&#45;98df&#45;f72ce606ea7b -->
<g id="node8" class="node">
<title>6deb25fc&#45;2f17&#45;405a&#45;98df&#45;f72ce606ea7b</title>
<polygon fill="white" stroke="black" points="1309.5,-36 911.5,-36 911.5,0 1309.5,0 1309.5,-36"/>
<text text-anchor="middle" x="1110.5" y="-14.3" font-family="Helvetica,sans-Serif" font-size="14.00">▶ Run GitHub Actions for `sweepai/utils/ticket_utils.py`</text>
</g>
<!-- c08472ba&#45;4e06&#45;4fe3&#45;8e24&#45;5b35931169d8&#45;&gt;6deb25fc&#45;2f17&#45;405a&#45;98df&#45;f72ce606ea7b -->
<g id="edge5" class="edge">
<title>c08472ba&#45;4e06&#45;4fe3&#45;8e24&#45;5b35931169d8&#45;&gt;6deb25fc&#45;2f17&#45;405a&#45;98df&#45;f72ce606ea7b</title>
<path fill="none" stroke="black" stroke-dasharray="5,2" d="M1084.94,-72.72C1089.14,-63.9 1093.82,-54.05 1098.02,-45.23"/>
<polygon fill="black" stroke="black" points="1101.21,-46.68 1102.34,-36.15 1094.89,-43.67 1101.21,-46.68"/>
</g>
</g>
</svg>
