<?xml version="1.0" encoding="UTF-8" standalone="no"?>
<!DOCTYPE svg PUBLIC "-//W3C//DTD SVG 1.1//EN"
 "http://www.w3.org/Graphics/SVG/1.1/DTD/svg11.dtd">
<!-- Generated by graphviz version 2.43.0 (0)
 -->
<!-- Title: %3 Pages: 1 -->
<svg width="507pt" height="238pt"
 viewBox="0.00 0.00 507.00 237.74" xmlns="http://www.w3.org/2000/svg" xmlns:xlink="http://www.w3.org/1999/xlink">
<g id="graph0" class="graph" transform="scale(1 1) rotate(0) translate(36 201.74)">
<title>%3</title>
<polygon fill="dimgray" stroke="transparent" points="-36,36 -36,-201.74 471,-201.74 471,36 -36,36"/>
<text text-anchor="middle" x="217.5" y="-150.54" font-family="Helvetica,sans-Serif" font-size="14.00">Sweep&#39;s Plan &amp; Progress</text>
<!-- start -->
<g id="node1" class="node">
<title>start</title>
</g>
<!-- 35935538&#45;df25&#45;4a52&#45;88be&#45;b70e7698d251 -->
<g id="node3" class="node">
<title>35935538&#45;df25&#45;4a52&#45;88be&#45;b70e7698d251</title>
<ellipse fill="yellow" stroke="black" cx="214.5" cy="-99.87" rx="161.85" ry="26.74"/>
<text text-anchor="middle" x="214.5" y="-103.67" font-family="Helvetica,sans-Serif" font-size="14.00">⋯ Modify</text>
<text text-anchor="middle" x="214.5" y="-88.67" font-family="Helvetica,sans-Serif" font-size="14.00">sweepai/core/lexical_search.py</text>
</g>
<!-- start&#45;&gt;35935538&#45;df25&#45;4a52&#45;88be&#45;b70e7698d251 -->
<g id="edge2" class="edge">
<title>start&#45;&gt;35935538&#45;df25&#45;4a52&#45;88be&#45;b70e7698d251</title>
<path fill="none" stroke="black" d="M1.11,-99.87C4.38,-99.87 20.41,-99.87 42.33,-99.87"/>
<polygon fill="black" stroke="black" points="42.42,-103.37 52.42,-99.87 42.42,-96.37 42.42,-103.37"/>
<text text-anchor="middle" x="26.79" y="-106.67" font-family="Helvetica,sans-Serif" font-size="14.00">Start</text>
</g>
<!-- end -->
<g id="node2" class="node">
<title>end</title>
</g>
<!-- 35935538&#45;df25&#45;4a52&#45;88be&#45;b70e7698d251&#45;&gt;end -->
<g id="edge3" class="edge">
<title>35935538&#45;df25&#45;4a52&#45;88be&#45;b70e7698d251&#45;&gt;end</title>
<path fill="none" stroke="black" d="M376.7,-99.87C396.54,-99.87 413.44,-99.87 423.74,-99.87"/>
<polygon fill="black" stroke="black" points="423.86,-103.37 433.86,-99.87 423.86,-96.37 423.86,-103.37"/>
<text text-anchor="middle" x="405.21" y="-106.67" font-family="Helvetica,sans-Serif" font-size="14.00">Finish</text>
</g>
<!-- ced5438e&#45;e965&#45;4b23&#45;8bf6&#45;e533eb42ca51 -->
<g id="node4" class="node">
<title>ced5438e&#45;e965&#45;4b23&#45;8bf6&#45;e533eb42ca51</title>
<polygon fill="white" stroke="black" points="424.5,-36 4.5,-36 4.5,0 424.5,0 424.5,-36"/>
<text text-anchor="middle" x="214.5" y="-14.3" font-family="Helvetica,sans-Serif" font-size="14.00">▶ Run GitHub Actions for `sweepai/core/lexical_search.py`</text>
</g>
<!-- 35935538&#45;df25&#45;4a52&#45;88be&#45;b70e7698d251&#45;&gt;ced5438e&#45;e965&#45;4b23&#45;8bf6&#45;e533eb42ca51 -->
<g id="edge1" class="edge">
<title>35935538&#45;df25&#45;4a52&#45;88be&#45;b70e7698d251&#45;&gt;ced5438e&#45;e965&#45;4b23&#45;8bf6&#45;e533eb42ca51</title>
<path fill="none" stroke="black" stroke-dasharray="5,2" d="M214.5,-72.72C214.5,-64.27 214.5,-54.89 214.5,-46.36"/>
<polygon fill="black" stroke="black" points="218,-46.15 214.5,-36.15 211,-46.15 218,-46.15"/>
</g>
</g>
</svg>
