<?xml version="1.0" encoding="UTF-8" standalone="no"?>
<!DOCTYPE svg PUBLIC "-//W3C//DTD SVG 1.1//EN"
 "http://www.w3.org/Graphics/SVG/1.1/DTD/svg11.dtd">
<!-- Generated by graphviz version 8.0.3 (0)
 -->
<!-- Pages: 1 -->
<svg width="2030pt" height="771pt"
 viewBox="0.00 0.00 2030.00 770.96" xmlns="http://www.w3.org/2000/svg" xmlns:xlink="http://www.w3.org/1999/xlink">
<g id="graph0" class="graph" transform="scale(1 1) rotate(0) translate(36 734.96)">
<polygon fill="dimgray" stroke="none" points="-36,36 -36,-734.96 1994,-734.96 1994,36 -36,36"/>
<text text-anchor="middle" x="979" y="-683.76" font-family="Helvetica,sans-Serif" font-size="14.00">Sweep&#39;s Plan &amp; Progress</text>
<!-- start -->
<g id="node1" class="node">
<title>start</title>
</g>
<!-- 2474dc83&#45;d6c9&#45;4095&#45;9ed9&#45;c258eb62d53b -->
<g id="node3" class="node">
<title>2474dc83&#45;d6c9&#45;4095&#45;9ed9&#45;c258eb62d53b</title>
<ellipse fill="#0ee832" stroke="black" cx="974" cy="-633.09" rx="159.61" ry="26.74"/>
<text text-anchor="middle" x="974" y="-636.89" font-family="Helvetica,sans-Serif" font-size="14.00">✓ Modify</text>
<text text-anchor="middle" x="974" y="-621.89" font-family="Helvetica,sans-Serif" font-size="14.00">sweepai/handlers/on_ticket.py</text>
</g>
<!-- start&#45;&gt;2474dc83&#45;d6c9&#45;4095&#45;9ed9&#45;c258eb62d53b -->
<g id="edge16" class="edge">
<title>start&#45;&gt;2474dc83&#45;d6c9&#45;4095&#45;9ed9&#45;c258eb62d53b</title>
<path fill="none" stroke="black" d="M762.15,-633.09C763.89,-633.09 780.25,-633.09 803.17,-633.09"/>
<polygon fill="black" stroke="black" points="803.13,-636.59 813.13,-633.09 803.13,-629.59 803.13,-636.59"/>
<text text-anchor="middle" x="788.35" y="-639.89" font-family="Helvetica,sans-Serif" font-size="14.00">Start</text>
</g>
<!-- end -->
<g id="node2" class="node">
<title>end</title>
</g>
<!-- ed608921&#45;bc70&#45;4f4e&#45;a331&#45;16482b157696 -->
<g id="node4" class="node">
<title>ed608921&#45;bc70&#45;4f4e&#45;a331&#45;16482b157696</title>
<ellipse fill="#0ee832" stroke="black" cx="1372" cy="-633.09" rx="159.61" ry="26.74"/>
<text text-anchor="middle" x="1372" y="-636.89" font-family="Helvetica,sans-Serif" font-size="14.00">✓ Modify</text>
<text text-anchor="middle" x="1372" y="-621.89" font-family="Helvetica,sans-Serif" font-size="14.00">sweepai/handlers/on_ticket.py</text>
</g>
<!-- 2474dc83&#45;d6c9&#45;4095&#45;9ed9&#45;c258eb62d53b&#45;&gt;ed608921&#45;bc70&#45;4f4e&#45;a331&#45;16482b157696 -->
<g id="edge11" class="edge">
<title>2474dc83&#45;d6c9&#45;4095&#45;9ed9&#45;c258eb62d53b&#45;&gt;ed608921&#45;bc70&#45;4f4e&#45;a331&#45;16482b157696</title>
<path fill="none" stroke="black" d="M1133.74,-633.09C1156.14,-633.09 1178.53,-633.09 1200.93,-633.09"/>
<polygon fill="black" stroke="black" points="1200.92,-636.59 1210.92,-633.09 1200.92,-629.59 1200.92,-636.59"/>
</g>
<!-- 03a86e8a&#45;88a6&#45;4998&#45;99f7&#45;e8baca8bd457 -->
<g id="node5" class="node">
<title>03a86e8a&#45;88a6&#45;4998&#45;99f7&#45;e8baca8bd457</title>
<polygon fill="#ee0000" stroke="black" points="766,-569.22 386,-569.22 386,-533.22 766,-533.22 766,-569.22"/>
<text text-anchor="middle" x="576" y="-547.52" font-family="Helvetica,sans-Serif" font-size="14.00">✗ Ran sandbox for `sweepai/handlers/on_ticket.py`.</text>
</g>
<!-- 2474dc83&#45;d6c9&#45;4095&#45;9ed9&#45;c258eb62d53b&#45;&gt;03a86e8a&#45;88a6&#45;4998&#45;99f7&#45;e8baca8bd457 -->
<g id="edge1" class="edge">
<title>2474dc83&#45;d6c9&#45;4095&#45;9ed9&#45;c258eb62d53b&#45;&gt;03a86e8a&#45;88a6&#45;4998&#45;99f7&#45;e8baca8bd457</title>
<path fill="none" stroke="black" stroke-dasharray="5,2" d="M873.57,-611.94C812.31,-599.64 734.37,-584 673.63,-571.81"/>
<polygon fill="black" stroke="black" points="674.37,-568.19 663.88,-569.66 673,-575.05 674.37,-568.19"/>
</g>
<!-- 9d0dcc6f&#45;06ea&#45;4e15&#45;baa3&#45;c4fa4987a2f0 -->
<g id="node6" class="node">
<title>9d0dcc6f&#45;06ea&#45;4e15&#45;baa3&#45;c4fa4987a2f0</title>
<polygon fill="#ee0000" stroke="black" points="1164,-569.22 784,-569.22 784,-533.22 1164,-533.22 1164,-569.22"/>
<text text-anchor="middle" x="974" y="-547.52" font-family="Helvetica,sans-Serif" font-size="14.00">✗ Ran sandbox for `sweepai/handlers/on_ticket.py`.</text>
</g>
<!-- 2474dc83&#45;d6c9&#45;4095&#45;9ed9&#45;c258eb62d53b&#45;&gt;9d0dcc6f&#45;06ea&#45;4e15&#45;baa3&#45;c4fa4987a2f0 -->
<g id="edge10" class="edge">
<title>2474dc83&#45;d6c9&#45;4095&#45;9ed9&#45;c258eb62d53b&#45;&gt;9d0dcc6f&#45;06ea&#45;4e15&#45;baa3&#45;c4fa4987a2f0</title>
<path fill="none" stroke="black" stroke-dasharray="5,2" d="M974,-605.94C974,-597.68 974,-588.53 974,-580.15"/>
<polygon fill="black" stroke="black" points="977.5,-580.37 974,-570.37 970.5,-580.37 977.5,-580.37"/>
</g>
<!-- ed608921&#45;bc70&#45;4f4e&#45;a331&#45;16482b157696&#45;&gt;end -->
<g id="edge17" class="edge">
<title>ed608921&#45;bc70&#45;4f4e&#45;a331&#45;16482b157696&#45;&gt;end</title>
<path fill="none" stroke="black" d="M1531.87,-633.09C1551.5,-633.09 1568.3,-633.09 1578.72,-633.09"/>
<polygon fill="black" stroke="black" points="1578.71,-636.59 1588.71,-633.09 1578.71,-629.59 1578.71,-636.59"/>
<text text-anchor="middle" x="1560.65" y="-639.89" font-family="Helvetica,sans-Serif" font-size="14.00">Finish</text>
</g>
<!-- 6c4aa635&#45;4ef4&#45;4dac&#45;b710&#45;d8f3a76e9eeb -->
<g id="node7" class="node">
<title>6c4aa635&#45;4ef4&#45;4dac&#45;b710&#45;d8f3a76e9eeb</title>
<polygon fill="#ee0000" stroke="black" points="1562,-569.22 1182,-569.22 1182,-533.22 1562,-533.22 1562,-569.22"/>
<text text-anchor="middle" x="1372" y="-547.52" font-family="Helvetica,sans-Serif" font-size="14.00">✗ Ran sandbox for `sweepai/handlers/on_ticket.py`.</text>
</g>
<!-- ed608921&#45;bc70&#45;4f4e&#45;a331&#45;16482b157696&#45;&gt;6c4aa635&#45;4ef4&#45;4dac&#45;b710&#45;d8f3a76e9eeb -->
<g id="edge12" class="edge">
<title>ed608921&#45;bc70&#45;4f4e&#45;a331&#45;16482b157696&#45;&gt;6c4aa635&#45;4ef4&#45;4dac&#45;b710&#45;d8f3a76e9eeb</title>
<path fill="none" stroke="black" stroke-dasharray="5,2" d="M1372,-605.94C1372,-597.68 1372,-588.53 1372,-580.15"/>
<polygon fill="black" stroke="black" points="1375.5,-580.37 1372,-570.37 1368.5,-580.37 1375.5,-580.37"/>
</g>
<!-- 8fdc59b2&#45;fc38&#45;44c0&#45;b6ac&#45;db40100b9d55 -->
<g id="node8" class="node">
<title>8fdc59b2&#45;fc38&#45;44c0&#45;b6ac&#45;db40100b9d55</title>
<polygon fill="white" stroke="black" points="1958,-569.22 1580,-569.22 1580,-533.22 1958,-533.22 1958,-569.22"/>
<text text-anchor="middle" x="1769" y="-547.52" font-family="Helvetica,sans-Serif" font-size="14.00">▶ Ran sandbox for `sweepai/handlers/on_ticket.py`.</text>
</g>
<!-- ed608921&#45;bc70&#45;4f4e&#45;a331&#45;16482b157696&#45;&gt;8fdc59b2&#45;fc38&#45;44c0&#45;b6ac&#45;db40100b9d55 -->
<g id="edge15" class="edge">
<title>ed608921&#45;bc70&#45;4f4e&#45;a331&#45;16482b157696&#45;&gt;8fdc59b2&#45;fc38&#45;44c0&#45;b6ac&#45;db40100b9d55</title>
<path fill="none" stroke="black" stroke-dasharray="5,2" d="M1472.44,-611.88C1533.44,-599.61 1610.94,-584.02 1671.42,-571.85"/>
<polygon fill="black" stroke="black" points="1672,-575.1 1681.12,-569.7 1670.62,-568.24 1672,-575.1"/>
</g>
<!-- e8c7c437&#45;6dc5&#45;4579&#45;a46d&#45;0f350f35c565 -->
<g id="node9" class="node">
<title>e8c7c437&#45;6dc5&#45;4579&#45;a46d&#45;0f350f35c565</title>
<ellipse fill="#0ee832" stroke="black" cx="576" cy="-455.35" rx="159.61" ry="26.74"/>
<text text-anchor="middle" x="576" y="-459.15" font-family="Helvetica,sans-Serif" font-size="14.00">✓ Modify</text>
<text text-anchor="middle" x="576" y="-444.15" font-family="Helvetica,sans-Serif" font-size="14.00">sweepai/handlers/on_ticket.py</text>
</g>
<!-- 03a86e8a&#45;88a6&#45;4998&#45;99f7&#45;e8baca8bd457&#45;&gt;e8c7c437&#45;6dc5&#45;4579&#45;a46d&#45;0f350f35c565 -->
<g id="edge2" class="edge">
<title>03a86e8a&#45;88a6&#45;4998&#45;99f7&#45;e8baca8bd457&#45;&gt;e8c7c437&#45;6dc5&#45;4579&#45;a46d&#45;0f350f35c565</title>
<path fill="none" stroke="black" d="M576,-533C576,-521.81 576,-506.79 576,-493.01"/>
<polygon fill="black" stroke="black" points="579.5,-493.32 576,-483.32 572.5,-493.32 579.5,-493.32"/>
<text text-anchor="middle" x="673.5" y="-504.02" font-family="Helvetica,sans-Serif" font-size="14.00">Additional changes required</text>
</g>
<!-- dc971c71&#45;8fb2&#45;449f&#45;82c0&#45;dccaa971aa9d -->
<g id="node10" class="node">
<title>dc971c71&#45;8fb2&#45;449f&#45;82c0&#45;dccaa971aa9d</title>
<ellipse fill="#0ee832" stroke="black" cx="1372" cy="-455.35" rx="159.61" ry="26.74"/>
<text text-anchor="middle" x="1372" y="-459.15" font-family="Helvetica,sans-Serif" font-size="14.00">✓ Modify</text>
<text text-anchor="middle" x="1372" y="-444.15" font-family="Helvetica,sans-Serif" font-size="14.00">sweepai/handlers/on_ticket.py</text>
</g>
<!-- 6c4aa635&#45;4ef4&#45;4dac&#45;b710&#45;d8f3a76e9eeb&#45;&gt;dc971c71&#45;8fb2&#45;449f&#45;82c0&#45;dccaa971aa9d -->
<g id="edge13" class="edge">
<title>6c4aa635&#45;4ef4&#45;4dac&#45;b710&#45;d8f3a76e9eeb&#45;&gt;dc971c71&#45;8fb2&#45;449f&#45;82c0&#45;dccaa971aa9d</title>
<path fill="none" stroke="black" d="M1372,-533C1372,-521.81 1372,-506.79 1372,-493.01"/>
<polygon fill="black" stroke="black" points="1375.5,-493.32 1372,-483.32 1368.5,-493.32 1375.5,-493.32"/>
<text text-anchor="middle" x="1469.5" y="-504.02" font-family="Helvetica,sans-Serif" font-size="14.00">Additional changes required</text>
</g>
<!-- 51ed0060&#45;5ddc&#45;4861&#45;ac15&#45;727156540dfd -->
<g id="node11" class="node">
<title>51ed0060&#45;5ddc&#45;4861&#45;ac15&#45;727156540dfd</title>
<polygon fill="#ee0000" stroke="black" points="579,-391.48 199,-391.48 199,-355.48 579,-355.48 579,-391.48"/>
<text text-anchor="middle" x="389" y="-369.78" font-family="Helvetica,sans-Serif" font-size="14.00">✗ Ran sandbox for `sweepai/handlers/on_ticket.py`.</text>
</g>
<!-- e8c7c437&#45;6dc5&#45;4579&#45;a46d&#45;0f350f35c565&#45;&gt;51ed0060&#45;5ddc&#45;4861&#45;ac15&#45;727156540dfd -->
<g id="edge3" class="edge">
<title>e8c7c437&#45;6dc5&#45;4579&#45;a46d&#45;0f350f35c565&#45;&gt;51ed0060&#45;5ddc&#45;4861&#45;ac15&#45;727156540dfd</title>
<path fill="none" stroke="black" stroke-dasharray="5,2" d="M518.88,-429.95C493.58,-419.15 464.07,-406.54 439.58,-396.08"/>
<polygon fill="black" stroke="black" points="441.33,-392.6 430.76,-391.89 438.59,-399.04 441.33,-392.6"/>
</g>
<!-- 3ebcd283&#45;2cd7&#45;497d&#45;a173&#45;0537e6b1e803 -->
<g id="node12" class="node">
<title>3ebcd283&#45;2cd7&#45;497d&#45;a173&#45;0537e6b1e803</title>
<polygon fill="#ee0000" stroke="black" points="977,-391.48 597,-391.48 597,-355.48 977,-355.48 977,-391.48"/>
<text text-anchor="middle" x="787" y="-369.78" font-family="Helvetica,sans-Serif" font-size="14.00">✗ Ran sandbox for `sweepai/handlers/on_ticket.py`.</text>
</g>
<!-- e8c7c437&#45;6dc5&#45;4579&#45;a46d&#45;0f350f35c565&#45;&gt;3ebcd283&#45;2cd7&#45;497d&#45;a173&#45;0537e6b1e803 -->
<g id="edge9" class="edge">
<title>e8c7c437&#45;6dc5&#45;4579&#45;a46d&#45;0f350f35c565&#45;&gt;3ebcd283&#45;2cd7&#45;497d&#45;a173&#45;0537e6b1e803</title>
<path fill="none" stroke="black" stroke-dasharray="5,2" d="M639.31,-430.39C668.39,-419.38 702.59,-406.43 730.76,-395.77"/>
<polygon fill="black" stroke="black" points="731.73,-398.77 739.84,-391.95 729.25,-392.22 731.73,-398.77"/>
</g>
<!-- 0f821eab&#45;38df&#45;405a&#45;bdc5&#45;7158f590198b -->
<g id="node13" class="node">
<title>0f821eab&#45;38df&#45;405a&#45;bdc5&#45;7158f590198b</title>
<polygon fill="yellow" stroke="black" points="1563,-391.48 1181,-391.48 1181,-355.48 1563,-355.48 1563,-391.48"/>
<text text-anchor="middle" x="1372" y="-369.78" font-family="Helvetica,sans-Serif" font-size="14.00">⋯ Ran sandbox for `sweepai/handlers/on_ticket.py`.</text>
</g>
<!-- dc971c71&#45;8fb2&#45;449f&#45;82c0&#45;dccaa971aa9d&#45;&gt;0f821eab&#45;38df&#45;405a&#45;bdc5&#45;7158f590198b -->
<g id="edge14" class="edge">
<title>dc971c71&#45;8fb2&#45;449f&#45;82c0&#45;dccaa971aa9d&#45;&gt;0f821eab&#45;38df&#45;405a&#45;bdc5&#45;7158f590198b</title>
<path fill="none" stroke="black" stroke-dasharray="5,2" d="M1372,-428.2C1372,-419.94 1372,-410.79 1372,-402.41"/>
<polygon fill="black" stroke="black" points="1375.5,-402.63 1372,-392.63 1368.5,-402.63 1375.5,-402.63"/>
</g>
<!-- 9da2e3ed&#45;dd7f&#45;426d&#45;8681&#45;9b881753bdcf -->
<g id="node14" class="node">
<title>9da2e3ed&#45;dd7f&#45;426d&#45;8681&#45;9b881753bdcf</title>
<ellipse fill="#0ee832" stroke="black" cx="389" cy="-277.61" rx="159.61" ry="26.74"/>
<text text-anchor="middle" x="389" y="-281.41" font-family="Helvetica,sans-Serif" font-size="14.00">✓ Modify</text>
<text text-anchor="middle" x="389" y="-266.41" font-family="Helvetica,sans-Serif" font-size="14.00">sweepai/handlers/on_ticket.py</text>
</g>
<!-- 51ed0060&#45;5ddc&#45;4861&#45;ac15&#45;727156540dfd&#45;&gt;9da2e3ed&#45;dd7f&#45;426d&#45;8681&#45;9b881753bdcf -->
<g id="edge4" class="edge">
<title>51ed0060&#45;5ddc&#45;4861&#45;ac15&#45;727156540dfd&#45;&gt;9da2e3ed&#45;dd7f&#45;426d&#45;8681&#45;9b881753bdcf</title>
<path fill="none" stroke="black" d="M389,-355.26C389,-344.07 389,-329.05 389,-315.27"/>
<polygon fill="black" stroke="black" points="392.5,-315.58 389,-305.58 385.5,-315.58 392.5,-315.58"/>
<text text-anchor="middle" x="486.5" y="-326.28" font-family="Helvetica,sans-Serif" font-size="14.00">Additional changes required</text>
</g>
<!-- 9d3c4d9b&#45;f3cb&#45;42b9&#45;874f&#45;86eae8c8baf5 -->
<g id="node15" class="node">
<title>9d3c4d9b&#45;f3cb&#45;42b9&#45;874f&#45;86eae8c8baf5</title>
<polygon fill="#ee0000" stroke="black" points="380,-213.74 0,-213.74 0,-177.74 380,-177.74 380,-213.74"/>
<text text-anchor="middle" x="190" y="-192.04" font-family="Helvetica,sans-Serif" font-size="14.00">✗ Ran sandbox for `sweepai/handlers/on_ticket.py`.</text>
</g>
<!-- 9da2e3ed&#45;dd7f&#45;426d&#45;8681&#45;9b881753bdcf&#45;&gt;9d3c4d9b&#45;f3cb&#45;42b9&#45;874f&#45;86eae8c8baf5 -->
<g id="edge5" class="edge">
<title>9da2e3ed&#45;dd7f&#45;426d&#45;8681&#45;9b881753bdcf&#45;&gt;9d3c4d9b&#45;f3cb&#45;42b9&#45;874f&#45;86eae8c8baf5</title>
<path fill="none" stroke="black" stroke-dasharray="5,2" d="M328.75,-252.43C301.59,-241.53 269.77,-228.76 243.46,-218.2"/>
<polygon fill="black" stroke="black" points="244.89,-214.6 234.3,-214.12 242.28,-221.09 244.89,-214.6"/>
</g>
<!-- d025db31&#45;73be&#45;4267&#45;aae1&#45;a34cdb2f4d5f -->
<g id="node16" class="node">
<title>d025db31&#45;73be&#45;4267&#45;aae1&#45;a34cdb2f4d5f</title>
<polygon fill="#ee0000" stroke="black" points="778,-213.74 398,-213.74 398,-177.74 778,-177.74 778,-213.74"/>
<text text-anchor="middle" x="588" y="-192.04" font-family="Helvetica,sans-Serif" font-size="14.00">✗ Ran sandbox for `sweepai/handlers/on_ticket.py`.</text>
</g>
<!-- 9da2e3ed&#45;dd7f&#45;426d&#45;8681&#45;9b881753bdcf&#45;&gt;d025db31&#45;73be&#45;4267&#45;aae1&#45;a34cdb2f4d5f -->
<g id="edge8" class="edge">
<title>9da2e3ed&#45;dd7f&#45;426d&#45;8681&#45;9b881753bdcf&#45;&gt;d025db31&#45;73be&#45;4267&#45;aae1&#45;a34cdb2f4d5f</title>
<path fill="none" stroke="black" stroke-dasharray="5,2" d="M449.25,-252.43C476.41,-241.53 508.23,-228.76 534.54,-218.2"/>
<polygon fill="black" stroke="black" points="535.72,-221.09 543.7,-214.12 533.11,-214.6 535.72,-221.09"/>
</g>
<!-- fb43e704&#45;8398&#45;4fab&#45;a423&#45;caf6360e255c -->
<g id="node17" class="node">
<title>fb43e704&#45;8398&#45;4fab&#45;a423&#45;caf6360e255c</title>
<ellipse fill="#ee0000" stroke="black" cx="190" cy="-99.87" rx="159.61" ry="26.74"/>
<text text-anchor="middle" x="190" y="-103.67" font-family="Helvetica,sans-Serif" font-size="14.00">✗ Modify</text>
<text text-anchor="middle" x="190" y="-88.67" font-family="Helvetica,sans-Serif" font-size="14.00">sweepai/handlers/on_ticket.py</text>
</g>
<!-- 9d3c4d9b&#45;f3cb&#45;42b9&#45;874f&#45;86eae8c8baf5&#45;&gt;fb43e704&#45;8398&#45;4fab&#45;a423&#45;caf6360e255c -->
<g id="edge6" class="edge">
<title>9d3c4d9b&#45;f3cb&#45;42b9&#45;874f&#45;86eae8c8baf5&#45;&gt;fb43e704&#45;8398&#45;4fab&#45;a423&#45;caf6360e255c</title>
<path fill="none" stroke="black" d="M190,-177.52C190,-166.33 190,-151.31 190,-137.53"/>
<polygon fill="black" stroke="black" points="193.5,-137.84 190,-127.84 186.5,-137.84 193.5,-137.84"/>
<text text-anchor="middle" x="287.5" y="-148.54" font-family="Helvetica,sans-Serif" font-size="14.00">Additional changes required</text>
</g>
<!-- 95a397a4&#45;07e2&#45;48ff&#45;bc4c&#45;e69267d0322f -->
<g id="node18" class="node">
<title>95a397a4&#45;07e2&#45;48ff&#45;bc4c&#45;e69267d0322f</title>
<polygon fill="#ee0000" stroke="black" points="380,-36 0,-36 0,0 380,0 380,-36"/>
<text text-anchor="middle" x="190" y="-14.3" font-family="Helvetica,sans-Serif" font-size="14.00">✗ Ran sandbox for `sweepai/handlers/on_ticket.py`.</text>
</g>
<!-- fb43e704&#45;8398&#45;4fab&#45;a423&#45;caf6360e255c&#45;&gt;95a397a4&#45;07e2&#45;48ff&#45;bc4c&#45;e69267d0322f -->
<g id="edge7" class="edge">
<title>fb43e704&#45;8398&#45;4fab&#45;a423&#45;caf6360e255c&#45;&gt;95a397a4&#45;07e2&#45;48ff&#45;bc4c&#45;e69267d0322f</title>
<path fill="none" stroke="black" stroke-dasharray="5,2" d="M190,-72.72C190,-64.46 190,-55.31 190,-46.93"/>
<polygon fill="black" stroke="black" points="193.5,-47.15 190,-37.15 186.5,-47.15 193.5,-47.15"/>
</g>
</g>
</svg>
