<?xml version="1.0" encoding="UTF-8" standalone="no"?>
<!DOCTYPE svg PUBLIC "-//W3C//DTD SVG 1.1//EN"
 "http://www.w3.org/Graphics/SVG/1.1/DTD/svg11.dtd">
<!-- Generated by graphviz version 8.0.3 (0)
 -->
<!-- Pages: 1 -->
<svg width="958pt" height="238pt"
 viewBox="0.00 0.00 957.50 237.74" xmlns="http://www.w3.org/2000/svg" xmlns:xlink="http://www.w3.org/1999/xlink">
<g id="graph0" class="graph" transform="scale(1 1) rotate(0) translate(36 201.74)">
<polygon fill="dimgray" stroke="none" points="-36,36 -36,-201.74 921.5,-201.74 921.5,36 -36,36"/>
<text text-anchor="middle" x="442.75" y="-150.54" font-family="Helvetica,sans-Serif" font-size="14.00">Sweep&#39;s Plan &amp; Progress</text>
<!-- start -->
<g id="node1" class="node">
<title>start</title>
</g>
<!-- ba3759e0&#45;be9e&#45;4ed9&#45;8e22&#45;e2d87c998870 -->
<g id="node3" class="node">
<title>ba3759e0&#45;be9e&#45;4ed9&#45;8e22&#45;e2d87c998870</title>
<ellipse fill="yellow" stroke="black" cx="178" cy="-99.87" rx="84.71" ry="26.74"/>
<text text-anchor="middle" x="178" y="-103.67" font-family="Helvetica,sans-Serif" font-size="14.00">⋯ Modify</text>
<text text-anchor="middle" x="178" y="-88.67" font-family="Helvetica,sans-Serif" font-size="14.00">sweepai/api.py</text>
</g>
<!-- start&#45;&gt;ba3759e0&#45;be9e&#45;4ed9&#45;8e22&#45;e2d87c998870 -->
<g id="edge6" class="edge">
<title>start&#45;&gt;ba3759e0&#45;be9e&#45;4ed9&#45;8e22&#45;e2d87c998870</title>
<path fill="none" stroke="black" d="M41.39,-99.87C44.15,-99.87 61.04,-99.87 82.06,-99.87"/>
<polygon fill="black" stroke="black" points="82.03,-103.37 92.03,-99.87 82.03,-96.37 82.03,-103.37"/>
<text text-anchor="middle" x="67.32" y="-106.67" font-family="Helvetica,sans-Serif" font-size="14.00">Start</text>
</g>
<!-- end -->
<g id="node2" class="node">
<title>end</title>
</g>
<!-- fc811a72&#45;22f7&#45;444b&#45;b04b&#45;422bf3b7f487 -->
<g id="node4" class="node">
<title>fc811a72&#45;22f7&#45;444b&#45;b04b&#45;422bf3b7f487</title>
<ellipse fill="white" stroke="black" cx="426" cy="-99.87" rx="84.71" ry="26.74"/>
<text text-anchor="middle" x="426" y="-103.67" font-family="Helvetica,sans-Serif" font-size="14.00">▶ Modify</text>
<text text-anchor="middle" x="426" y="-88.67" font-family="Helvetica,sans-Serif" font-size="14.00">sweepai/api.py</text>
</g>
<!-- ba3759e0&#45;be9e&#45;4ed9&#45;8e22&#45;e2d87c998870&#45;&gt;fc811a72&#45;22f7&#45;444b&#45;b04b&#45;422bf3b7f487 -->
<g id="edge2" class="edge">
<title>ba3759e0&#45;be9e&#45;4ed9&#45;8e22&#45;e2d87c998870&#45;&gt;fc811a72&#45;22f7&#45;444b&#45;b04b&#45;422bf3b7f487</title>
<path fill="none" stroke="black" d="M262.77,-99.87C285.14,-99.87 307.52,-99.87 329.89,-99.87"/>
<polygon fill="black" stroke="black" points="329.88,-103.37 339.88,-99.87 329.88,-96.37 329.88,-103.37"/>
</g>
<!-- 7f67cf06&#45;2a2a&#45;4309&#45;a487&#45;277dab8efafc -->
<g id="node6" class="node">
<title>7f67cf06&#45;2a2a&#45;4309&#45;a487&#45;277dab8efafc</title>
<polygon fill="white" stroke="black" points="272,-36 0,-36 0,0 272,0 272,-36"/>
<text text-anchor="middle" x="136" y="-14.3" font-family="Helvetica,sans-Serif" font-size="14.00">▶ Ran sandbox for `sweepai/api.py`.</text>
</g>
<!-- ba3759e0&#45;be9e&#45;4ed9&#45;8e22&#45;e2d87c998870&#45;&gt;7f67cf06&#45;2a2a&#45;4309&#45;a487&#45;277dab8efafc -->
<g id="edge1" class="edge">
<title>ba3759e0&#45;be9e&#45;4ed9&#45;8e22&#45;e2d87c998870&#45;&gt;7f67cf06&#45;2a2a&#45;4309&#45;a487&#45;277dab8efafc</title>
<path fill="none" stroke="black" stroke-dasharray="5,2" d="M164.48,-73.16C159.88,-64.41 154.73,-54.62 150.09,-45.79"/>
<polygon fill="black" stroke="black" points="152.87,-44.56 145.12,-37.34 146.67,-47.82 152.87,-44.56"/>
</g>
<!-- c66a5a25&#45;532b&#45;46f5&#45;9712&#45;f79316e2dbfd -->
<g id="node5" class="node">
<title>c66a5a25&#45;532b&#45;46f5&#45;9712&#45;f79316e2dbfd</title>
<ellipse fill="white" stroke="black" cx="694" cy="-99.87" rx="108.38" ry="26.74"/>
<text text-anchor="middle" x="694" y="-103.67" font-family="Helvetica,sans-Serif" font-size="14.00">▶ Create</text>
<text text-anchor="middle" x="694" y="-88.67" font-family="Helvetica,sans-Serif" font-size="14.00">sweepai/api_test.py</text>
</g>
<!-- fc811a72&#45;22f7&#45;444b&#45;b04b&#45;422bf3b7f487&#45;&gt;c66a5a25&#45;532b&#45;46f5&#45;9712&#45;f79316e2dbfd -->
<g id="edge4" class="edge">
<title>fc811a72&#45;22f7&#45;444b&#45;b04b&#45;422bf3b7f487&#45;&gt;c66a5a25&#45;532b&#45;46f5&#45;9712&#45;f79316e2dbfd</title>
<path fill="none" stroke="black" d="M511.06,-99.87C532.25,-99.87 553.44,-99.87 574.64,-99.87"/>
<polygon fill="black" stroke="black" points="574.38,-103.37 584.38,-99.87 574.38,-96.37 574.38,-103.37"/>
</g>
<!-- 508449ba&#45;8261&#45;4d6a&#45;b644&#45;335454654e39 -->
<g id="node7" class="node">
<title>508449ba&#45;8261&#45;4d6a&#45;b644&#45;335454654e39</title>
<polygon fill="white" stroke="black" points="562,-36 290,-36 290,0 562,0 562,-36"/>
<text text-anchor="middle" x="426" y="-14.3" font-family="Helvetica,sans-Serif" font-size="14.00">▶ Ran sandbox for `sweepai/api.py`.</text>
</g>
<!-- fc811a72&#45;22f7&#45;444b&#45;b04b&#45;422bf3b7f487&#45;&gt;508449ba&#45;8261&#45;4d6a&#45;b644&#45;335454654e39 -->
<g id="edge3" class="edge">
<title>fc811a72&#45;22f7&#45;444b&#45;b04b&#45;422bf3b7f487&#45;&gt;508449ba&#45;8261&#45;4d6a&#45;b644&#45;335454654e39</title>
<path fill="none" stroke="black" stroke-dasharray="5,2" d="M426,-72.72C426,-64.46 426,-55.31 426,-46.93"/>
<polygon fill="black" stroke="black" points="429.5,-47.15 426,-37.15 422.5,-47.15 429.5,-47.15"/>
</g>
<!-- c66a5a25&#45;532b&#45;46f5&#45;9712&#45;f79316e2dbfd&#45;&gt;end -->
<g id="edge7" class="edge">
<title>c66a5a25&#45;532b&#45;46f5&#45;9712&#45;f79316e2dbfd&#45;&gt;end</title>
<path fill="none" stroke="black" d="M802.87,-99.87C821.66,-99.87 838.49,-99.87 848.93,-99.87"/>
<polygon fill="black" stroke="black" points="848.7,-103.37 858.7,-99.87 848.7,-96.37 848.7,-103.37"/>
<text text-anchor="middle" x="830.84" y="-106.67" font-family="Helvetica,sans-Serif" font-size="14.00">Finish</text>
</g>
<!-- 20116720&#45;1d14&#45;48d1&#45;805e&#45;229438a1358e -->
<g id="node8" class="node">
<title>20116720&#45;1d14&#45;48d1&#45;805e&#45;229438a1358e</title>
<polygon fill="white" stroke="black" points="885.5,-36 580.5,-36 580.5,0 885.5,0 885.5,-36"/>
<text text-anchor="middle" x="733" y="-14.3" font-family="Helvetica,sans-Serif" font-size="14.00">▶ Ran sandbox for `sweepai/api_test.py`.</text>
</g>
<!-- c66a5a25&#45;532b&#45;46f5&#45;9712&#45;f79316e2dbfd&#45;&gt;20116720&#45;1d14&#45;48d1&#45;805e&#45;229438a1358e -->
<g id="edge5" class="edge">
<title>c66a5a25&#45;532b&#45;46f5&#45;9712&#45;f79316e2dbfd&#45;&gt;20116720&#45;1d14&#45;48d1&#45;805e&#45;229438a1358e</title>
<path fill="none" stroke="black" stroke-dasharray="5,2" d="M706.55,-73.16C710.78,-64.51 715.51,-54.83 719.78,-46.07"/>
<polygon fill="black" stroke="black" points="723.29,-47.86 724.53,-37.34 717,-44.79 723.29,-47.86"/>
</g>
</g>
</svg>
