<?xml version="1.0" encoding="UTF-8" standalone="no"?>
<!DOCTYPE svg PUBLIC "-//W3C//DTD SVG 1.1//EN"
 "http://www.w3.org/Graphics/SVG/1.1/DTD/svg11.dtd">
<!-- Generated by graphviz version 2.43.0 (0)
 -->
<!-- Title: %3 Pages: 1 -->
<svg width="531pt" height="238pt"
 viewBox="0.00 0.00 531.00 237.74" xmlns="http://www.w3.org/2000/svg" xmlns:xlink="http://www.w3.org/1999/xlink">
<g id="graph0" class="graph" transform="scale(1 1) rotate(0) translate(36 201.74)">
<title>%3</title>
<polygon fill="dimgray" stroke="transparent" points="-36,36 -36,-201.74 495,-201.74 495,36 -36,36"/>
<text text-anchor="middle" x="229.5" y="-150.54" font-family="Helvetica,sans-Serif" font-size="14.00">Sweep&#39;s Plan &amp; Progress</text>
<!-- start -->
<g id="node1" class="node">
<title>start</title>
</g>
<!-- c6b9024b&#45;e6ea&#45;4fa0&#45;a287&#45;bda3ee7e3981 -->
<g id="node3" class="node">
<title>c6b9024b&#45;e6ea&#45;4fa0&#45;a287&#45;bda3ee7e3981</title>
<ellipse fill="#0ee832" stroke="black" cx="226.5" cy="-99.87" rx="173.9" ry="26.74"/>
<text text-anchor="middle" x="226.5" y="-103.67" font-family="Helvetica,sans-Serif" font-size="14.00">✓ Modify</text>
<text text-anchor="middle" x="226.5" y="-88.67" font-family="Helvetica,sans-Serif" font-size="14.00">sweepai/core/context_pruning.py</text>
</g>
<!-- start&#45;&gt;c6b9024b&#45;e6ea&#45;4fa0&#45;a287&#45;bda3ee7e3981 -->
<g id="edge2" class="edge">
<title>start&#45;&gt;c6b9024b&#45;e6ea&#45;4fa0&#45;a287&#45;bda3ee7e3981</title>
<path fill="none" stroke="black" d="M1.15,-99.87C4.47,-99.87 20.32,-99.87 42.2,-99.87"/>
<polygon fill="black" stroke="black" points="42.29,-103.37 52.29,-99.87 42.29,-96.37 42.29,-103.37"/>
<text text-anchor="middle" x="26.78" y="-106.67" font-family="Helvetica,sans-Serif" font-size="14.00">Start</text>
</g>
<!-- end -->
<g id="node2" class="node">
<title>end</title>
</g>
<!-- c6b9024b&#45;e6ea&#45;4fa0&#45;a287&#45;bda3ee7e3981&#45;&gt;end -->
<g id="edge3" class="edge">
<title>c6b9024b&#45;e6ea&#45;4fa0&#45;a287&#45;bda3ee7e3981&#45;&gt;end</title>
<path fill="none" stroke="black" d="M400.56,-99.87C420.57,-99.87 437.48,-99.87 447.78,-99.87"/>
<polygon fill="black" stroke="black" points="447.86,-103.37 457.86,-99.87 447.86,-96.37 447.86,-103.37"/>
<text text-anchor="middle" x="429.22" y="-106.67" font-family="Helvetica,sans-Serif" font-size="14.00">Finish</text>
</g>
<!-- efd65e52&#45;091d&#45;4418&#45;82b0&#45;c8e40aef7025 -->
<g id="node4" class="node">
<title>efd65e52&#45;091d&#45;4418&#45;82b0&#45;c8e40aef7025</title>
<polygon fill="yellow" stroke="black" points="447,-36 6,-36 6,0 447,0 447,-36"/>
<text text-anchor="middle" x="226.5" y="-14.3" font-family="Helvetica,sans-Serif" font-size="14.00">⋯ Run GitHub Actions for `sweepai/core/context_pruning.py`</text>
</g>
<!-- c6b9024b&#45;e6ea&#45;4fa0&#45;a287&#45;bda3ee7e3981&#45;&gt;efd65e52&#45;091d&#45;4418&#45;82b0&#45;c8e40aef7025 -->
<g id="edge1" class="edge">
<title>c6b9024b&#45;e6ea&#45;4fa0&#45;a287&#45;bda3ee7e3981&#45;&gt;efd65e52&#45;091d&#45;4418&#45;82b0&#45;c8e40aef7025</title>
<path fill="none" stroke="black" stroke-dasharray="5,2" d="M226.5,-72.72C226.5,-64.27 226.5,-54.89 226.5,-46.36"/>
<polygon fill="black" stroke="black" points="230,-46.15 226.5,-36.15 223,-46.15 230,-46.15"/>
</g>
</g>
</svg>
