<?xml version="1.0" encoding="UTF-8" standalone="no"?>
<!DOCTYPE svg PUBLIC "-//W3C//DTD SVG 1.1//EN"
 "http://www.w3.org/Graphics/SVG/1.1/DTD/svg11.dtd">
<!-- Generated by graphviz version 2.43.0 (0)
 -->
<!-- Title: %3 Pages: 1 -->
<svg width="888pt" height="238pt"
 viewBox="0.00 0.00 888.00 237.74" xmlns="http://www.w3.org/2000/svg" xmlns:xlink="http://www.w3.org/1999/xlink">
<g id="graph0" class="graph" transform="scale(1 1) rotate(0) translate(36 201.74)">
<title>%3</title>
<polygon fill="dimgray" stroke="transparent" points="-36,36 -36,-201.74 852,-201.74 852,36 -36,36"/>
<text text-anchor="middle" x="408" y="-150.54" font-family="Helvetica,sans-Serif" font-size="14.00">Sweep&#39;s Plan &amp; Progress</text>
<!-- start -->
<g id="node1" class="node">
<title>start</title>
</g>
<!-- c202f8d6&#45;3e10&#45;4a37&#45;94b7&#45;db38ab0df780 -->
<g id="node3" class="node">
<title>c202f8d6&#45;3e10&#45;4a37&#45;94b7&#45;db38ab0df780</title>
<ellipse fill="#0ee832" stroke="black" cx="244.5" cy="-99.87" rx="145.83" ry="26.74"/>
<text text-anchor="middle" x="244.5" y="-103.67" font-family="Helvetica,sans-Serif" font-size="14.00">✓ Modify</text>
<text text-anchor="middle" x="244.5" y="-88.67" font-family="Helvetica,sans-Serif" font-size="14.00">sweepai/utils/ticket_utils.py</text>
</g>
<!-- start&#45;&gt;c202f8d6&#45;3e10&#45;4a37&#45;94b7&#45;db38ab0df780 -->
<g id="edge4" class="edge">
<title>start&#45;&gt;c202f8d6&#45;3e10&#45;4a37&#45;94b7&#45;db38ab0df780</title>
<path fill="none" stroke="black" d="M47.07,-99.87C50.26,-99.87 66.6,-99.87 88.63,-99.87"/>
<polygon fill="black" stroke="black" points="88.76,-103.37 98.76,-99.87 88.76,-96.37 88.76,-103.37"/>
<text text-anchor="middle" x="72.92" y="-106.67" font-family="Helvetica,sans-Serif" font-size="14.00">Start</text>
</g>
<!-- end -->
<g id="node2" class="node">
<title>end</title>
</g>
<!-- 8b953d48&#45;2c56&#45;4fe9&#45;9774&#45;6672b6665740 -->
<g id="node4" class="node">
<title>8b953d48&#45;2c56&#45;4fe9&#45;9774&#45;6672b6665740</title>
<ellipse fill="#ee0000" stroke="black" cx="594.5" cy="-99.87" rx="145.83" ry="26.74"/>
<text text-anchor="middle" x="594.5" y="-103.67" font-family="Helvetica,sans-Serif" font-size="14.00">✗ Modify</text>
<text text-anchor="middle" x="594.5" y="-88.67" font-family="Helvetica,sans-Serif" font-size="14.00">sweepai/utils/ticket_utils.py</text>
</g>
<!-- c202f8d6&#45;3e10&#45;4a37&#45;94b7&#45;db38ab0df780&#45;&gt;8b953d48&#45;2c56&#45;4fe9&#45;9774&#45;6672b6665740 -->
<g id="edge2" class="edge">
<title>c202f8d6&#45;3e10&#45;4a37&#45;94b7&#45;db38ab0df780&#45;&gt;8b953d48&#45;2c56&#45;4fe9&#45;9774&#45;6672b6665740</title>
<path fill="none" stroke="black" d="M390.45,-99.87C406.51,-99.87 422.57,-99.87 438.63,-99.87"/>
<polygon fill="black" stroke="black" points="438.63,-103.37 448.63,-99.87 438.63,-96.37 438.63,-103.37"/>
</g>
<!-- 8500644a&#45;aa0e&#45;4ff1&#45;bd83&#45;fdac585d7154 -->
<g id="node5" class="node">
<title>8500644a&#45;aa0e&#45;4ff1&#45;bd83&#45;fdac585d7154</title>
<polygon fill="#ee0000" stroke="black" points="399,-36 0,-36 0,0 399,0 399,-36"/>
<text text-anchor="middle" x="199.5" y="-14.3" font-family="Helvetica,sans-Serif" font-size="14.00">✗ Run GitHub Actions for `sweepai/utils/ticket_utils.py`</text>
</g>
<!-- c202f8d6&#45;3e10&#45;4a37&#45;94b7&#45;db38ab0df780&#45;&gt;8500644a&#45;aa0e&#45;4ff1&#45;bd83&#45;fdac585d7154 -->
<g id="edge1" class="edge">
<title>c202f8d6&#45;3e10&#45;4a37&#45;94b7&#45;db38ab0df780&#45;&gt;8500644a&#45;aa0e&#45;4ff1&#45;bd83&#45;fdac585d7154</title>
<path fill="none" stroke="black" stroke-dasharray="5,2" d="M229.77,-72.72C224.74,-63.8 219.13,-53.84 214.12,-44.95"/>
<polygon fill="black" stroke="black" points="217.12,-43.14 209.16,-36.15 211.02,-46.58 217.12,-43.14"/>
</g>
<!-- 8b953d48&#45;2c56&#45;4fe9&#45;9774&#45;6672b6665740&#45;&gt;end -->
<g id="edge5" class="edge">
<title>8b953d48&#45;2c56&#45;4fe9&#45;9774&#45;6672b6665740&#45;&gt;end</title>
<path fill="none" stroke="black" d="M740.31,-99.87C760.07,-99.87 777.12,-99.87 787.57,-99.87"/>
<polygon fill="black" stroke="black" points="787.85,-103.37 797.85,-99.87 787.85,-96.37 787.85,-103.37"/>
<text text-anchor="middle" x="769.08" y="-106.67" font-family="Helvetica,sans-Serif" font-size="14.00">Finish</text>
</g>
<!-- 7d479dcd&#45;06fc&#45;42ca&#45;8d7e&#45;0fcbbdc98893 -->
<g id="node6" class="node">
<title>7d479dcd&#45;06fc&#45;42ca&#45;8d7e&#45;0fcbbdc98893</title>
<polygon fill="#ee0000" stroke="black" points="816,-36 417,-36 417,0 816,0 816,-36"/>
<text text-anchor="middle" x="616.5" y="-14.3" font-family="Helvetica,sans-Serif" font-size="14.00">✗ Run GitHub Actions for `sweepai/utils/ticket_utils.py`</text>
</g>
<!-- 8b953d48&#45;2c56&#45;4fe9&#45;9774&#45;6672b6665740&#45;&gt;7d479dcd&#45;06fc&#45;42ca&#45;8d7e&#45;0fcbbdc98893 -->
<g id="edge3" class="edge">
<title>8b953d48&#45;2c56&#45;4fe9&#45;9774&#45;6672b6665740&#45;&gt;7d479dcd&#45;06fc&#45;42ca&#45;8d7e&#45;0fcbbdc98893</title>
<path fill="none" stroke="black" stroke-dasharray="5,2" d="M601.7,-72.72C604.08,-64.08 606.73,-54.47 609.12,-45.79"/>
<polygon fill="black" stroke="black" points="612.5,-46.72 611.78,-36.15 605.75,-44.86 612.5,-46.72"/>
</g>
</g>
</svg>
