<?xml version="1.0" encoding="UTF-8" standalone="no"?>
<!DOCTYPE svg PUBLIC "-//W3C//DTD SVG 1.1//EN"
 "http://www.w3.org/Graphics/SVG/1.1/DTD/svg11.dtd">
<!-- Generated by graphviz version 2.43.0 (0)
 -->
<!-- Title: %3 Pages: 1 -->
<svg width="1777pt" height="238pt"
 viewBox="0.00 0.00 1776.50 237.74" xmlns="http://www.w3.org/2000/svg" xmlns:xlink="http://www.w3.org/1999/xlink">
<g id="graph0" class="graph" transform="scale(1 1) rotate(0) translate(36 201.74)">
<title>%3</title>
<polygon fill="dimgray" stroke="transparent" points="-36,36 -36,-201.74 1740.5,-201.74 1740.5,36 -36,36"/>
<text text-anchor="middle" x="852.25" y="-150.54" font-family="Helvetica,sans-Serif" font-size="14.00">Sweep&#39;s Plan &amp; Progress</text>
<!-- start -->
<g id="node1" class="node">
<title>start</title>
</g>
<!-- b42e5702&#45;d5b3&#45;4af3&#45;828b&#45;3eb68ff400ad -->
<g id="node3" class="node">
<title>b42e5702&#45;d5b3&#45;4af3&#45;828b&#45;3eb68ff400ad</title>
<ellipse fill="yellow" stroke="black" cx="246.5" cy="-99.87" rx="151.14" ry="26.74"/>
<text text-anchor="middle" x="246.5" y="-103.67" font-family="Helvetica,sans-Serif" font-size="14.00">⋯ Modify</text>
<text text-anchor="middle" x="246.5" y="-88.67" font-family="Helvetica,sans-Serif" font-size="14.00">sweepai/utils/github_utils.py</text>
</g>
<!-- start&#45;&gt;b42e5702&#45;d5b3&#45;4af3&#45;828b&#45;3eb68ff400ad -->
<g id="edge8" class="edge">
<title>start&#45;&gt;b42e5702&#45;d5b3&#45;4af3&#45;828b&#45;3eb68ff400ad</title>
<path fill="none" stroke="black" d="M44.08,-99.87C47.27,-99.87 63.29,-99.87 85.03,-99.87"/>
<polygon fill="black" stroke="black" points="85.03,-103.37 95.03,-99.87 85.03,-96.37 85.03,-103.37"/>
<text text-anchor="middle" x="69.59" y="-106.67" font-family="Helvetica,sans-Serif" font-size="14.00">Start</text>
</g>
<!-- end -->
<g id="node2" class="node">
<title>end</title>
</g>
<!-- 1558c615&#45;7ac2&#45;4258&#45;b96a&#45;5e74f7af314b -->
<g id="node4" class="node">
<title>1558c615&#45;7ac2&#45;4258&#45;b96a&#45;5e74f7af314b</title>
<ellipse fill="white" stroke="black" cx="616.5" cy="-99.87" rx="138.69" ry="26.74"/>
<text text-anchor="middle" x="616.5" y="-103.67" font-family="Helvetica,sans-Serif" font-size="14.00">▶ Modify</text>
<text text-anchor="middle" x="616.5" y="-88.67" font-family="Helvetica,sans-Serif" font-size="14.00">sweepai/utils/tree_utils.py</text>
</g>
<!-- b42e5702&#45;d5b3&#45;4af3&#45;828b&#45;3eb68ff400ad&#45;&gt;1558c615&#45;7ac2&#45;4258&#45;b96a&#45;5e74f7af314b -->
<g id="edge2" class="edge">
<title>b42e5702&#45;d5b3&#45;4af3&#45;828b&#45;3eb68ff400ad&#45;&gt;1558c615&#45;7ac2&#45;4258&#45;b96a&#45;5e74f7af314b</title>
<path fill="none" stroke="black" d="M397.9,-99.87C421.08,-99.87 444.26,-99.87 467.45,-99.87"/>
<polygon fill="black" stroke="black" points="467.74,-103.37 477.74,-99.87 467.74,-96.37 467.74,-103.37"/>
</g>
<!-- ffa8daef&#45;161c&#45;431c&#45;a015&#45;6c53adaf9bb6 -->
<g id="node7" class="node">
<title>ffa8daef&#45;161c&#45;431c&#45;a015&#45;6c53adaf9bb6</title>
<polygon fill="white" stroke="black" points="405,-36 0,-36 0,0 405,0 405,-36"/>
<text text-anchor="middle" x="202.5" y="-14.3" font-family="Helvetica,sans-Serif" font-size="14.00">▶ Run GitHub Actions for `sweepai/utils/github_utils.py`</text>
</g>
<!-- b42e5702&#45;d5b3&#45;4af3&#45;828b&#45;3eb68ff400ad&#45;&gt;ffa8daef&#45;161c&#45;431c&#45;a015&#45;6c53adaf9bb6 -->
<g id="edge1" class="edge">
<title>b42e5702&#45;d5b3&#45;4af3&#45;828b&#45;3eb68ff400ad&#45;&gt;ffa8daef&#45;161c&#45;431c&#45;a015&#45;6c53adaf9bb6</title>
<path fill="none" stroke="black" stroke-dasharray="5,2" d="M232.09,-72.72C227.18,-63.8 221.7,-53.84 216.79,-44.95"/>
<polygon fill="black" stroke="black" points="219.84,-43.22 211.95,-36.15 213.71,-46.59 219.84,-43.22"/>
</g>
<!-- a5f0edd5&#45;8e56&#45;4472&#45;b411&#45;adaa412ce89f -->
<g id="node5" class="node">
<title>a5f0edd5&#45;8e56&#45;4472&#45;b411&#45;adaa412ce89f</title>
<ellipse fill="white" stroke="black" cx="1047.5" cy="-99.87" rx="174.81" ry="26.74"/>
<text text-anchor="middle" x="1047.5" y="-103.67" font-family="Helvetica,sans-Serif" font-size="14.00">▶ Modify</text>
<text text-anchor="middle" x="1047.5" y="-88.67" font-family="Helvetica,sans-Serif" font-size="14.00">sweepai/utils/github_utils_test.py</text>
</g>
<!-- 1558c615&#45;7ac2&#45;4258&#45;b96a&#45;5e74f7af314b&#45;&gt;a5f0edd5&#45;8e56&#45;4472&#45;b411&#45;adaa412ce89f -->
<g id="edge4" class="edge">
<title>1558c615&#45;7ac2&#45;4258&#45;b96a&#45;5e74f7af314b&#45;&gt;a5f0edd5&#45;8e56&#45;4472&#45;b411&#45;adaa412ce89f</title>
<path fill="none" stroke="black" d="M755.4,-99.87C791.12,-99.87 826.84,-99.87 862.56,-99.87"/>
<polygon fill="black" stroke="black" points="862.64,-103.37 872.64,-99.87 862.64,-96.37 862.64,-103.37"/>
</g>
<!-- 550dc4cf&#45;1ea8&#45;4bcf&#45;acb7&#45;276b3c7c8f63 -->
<g id="node8" class="node">
<title>550dc4cf&#45;1ea8&#45;4bcf&#45;acb7&#45;276b3c7c8f63</title>
<polygon fill="white" stroke="black" points="810,-36 423,-36 423,0 810,0 810,-36"/>
<text text-anchor="middle" x="616.5" y="-14.3" font-family="Helvetica,sans-Serif" font-size="14.00">▶ Run GitHub Actions for `sweepai/utils/tree_utils.py`</text>
</g>
<!-- 1558c615&#45;7ac2&#45;4258&#45;b96a&#45;5e74f7af314b&#45;&gt;550dc4cf&#45;1ea8&#45;4bcf&#45;acb7&#45;276b3c7c8f63 -->
<g id="edge3" class="edge">
<title>1558c615&#45;7ac2&#45;4258&#45;b96a&#45;5e74f7af314b&#45;&gt;550dc4cf&#45;1ea8&#45;4bcf&#45;acb7&#45;276b3c7c8f63</title>
<path fill="none" stroke="black" stroke-dasharray="5,2" d="M616.5,-72.72C616.5,-64.27 616.5,-54.89 616.5,-46.36"/>
<polygon fill="black" stroke="black" points="620,-46.15 616.5,-36.15 613,-46.15 620,-46.15"/>
</g>
<!-- 43e6ca00&#45;be37&#45;4bb5&#45;979d&#45;b987252f051a -->
<g id="node6" class="node">
<title>43e6ca00&#45;be37&#45;4bb5&#45;979d&#45;b987252f051a</title>
<ellipse fill="white" stroke="black" cx="1457.5" cy="-99.87" rx="161.85" ry="26.74"/>
<text text-anchor="middle" x="1457.5" y="-103.67" font-family="Helvetica,sans-Serif" font-size="14.00">▶ Create</text>
<text text-anchor="middle" x="1457.5" y="-88.67" font-family="Helvetica,sans-Serif" font-size="14.00">sweepai/utils/tree_utils_test.py</text>
</g>
<!-- a5f0edd5&#45;8e56&#45;4472&#45;b411&#45;adaa412ce89f&#45;&gt;43e6ca00&#45;be37&#45;4bb5&#45;979d&#45;b987252f051a -->
<g id="edge6" class="edge">
<title>a5f0edd5&#45;8e56&#45;4472&#45;b411&#45;adaa412ce89f&#45;&gt;43e6ca00&#45;be37&#45;4bb5&#45;979d&#45;b987252f051a</title>
<path fill="none" stroke="black" d="M1222.47,-99.87C1243.38,-99.87 1264.29,-99.87 1285.19,-99.87"/>
<polygon fill="black" stroke="black" points="1285.46,-103.37 1295.46,-99.87 1285.46,-96.37 1285.46,-103.37"/>
</g>
<!-- bc6cabf1&#45;a99c&#45;4c87&#45;8020&#45;b0b4ab688cbb -->
<g id="node9" class="node">
<title>bc6cabf1&#45;a99c&#45;4c87&#45;8020&#45;b0b4ab688cbb</title>
<polygon fill="white" stroke="black" points="1266.5,-36 828.5,-36 828.5,0 1266.5,0 1266.5,-36"/>
<text text-anchor="middle" x="1047.5" y="-14.3" font-family="Helvetica,sans-Serif" font-size="14.00">▶ Run GitHub Actions for `sweepai/utils/github_utils_test.py`</text>
</g>
<!-- a5f0edd5&#45;8e56&#45;4472&#45;b411&#45;adaa412ce89f&#45;&gt;bc6cabf1&#45;a99c&#45;4c87&#45;8020&#45;b0b4ab688cbb -->
<g id="edge5" class="edge">
<title>a5f0edd5&#45;8e56&#45;4472&#45;b411&#45;adaa412ce89f&#45;&gt;bc6cabf1&#45;a99c&#45;4c87&#45;8020&#45;b0b4ab688cbb</title>
<path fill="none" stroke="black" stroke-dasharray="5,2" d="M1047.5,-72.72C1047.5,-64.27 1047.5,-54.89 1047.5,-46.36"/>
<polygon fill="black" stroke="black" points="1051,-46.15 1047.5,-36.15 1044,-46.15 1051,-46.15"/>
</g>
<!-- 43e6ca00&#45;be37&#45;4bb5&#45;979d&#45;b987252f051a&#45;&gt;end -->
<g id="edge9" class="edge">
<title>43e6ca00&#45;be37&#45;4bb5&#45;979d&#45;b987252f051a&#45;&gt;end</title>
<path fill="none" stroke="black" d="M1619.7,-99.87C1639.54,-99.87 1656.44,-99.87 1666.74,-99.87"/>
<polygon fill="black" stroke="black" points="1666.86,-103.37 1676.86,-99.87 1666.86,-96.37 1666.86,-103.37"/>
<text text-anchor="middle" x="1648.21" y="-106.67" font-family="Helvetica,sans-Serif" font-size="14.00">Finish</text>
</g>
<!-- d64e6429&#45;c22e&#45;4f7c&#45;885a&#45;46136e412284 -->
<g id="node10" class="node">
<title>d64e6429&#45;c22e&#45;4f7c&#45;885a&#45;46136e412284</title>
<polygon fill="white" stroke="black" points="1704.5,-36 1284.5,-36 1284.5,0 1704.5,0 1704.5,-36"/>
<text text-anchor="middle" x="1494.5" y="-14.3" font-family="Helvetica,sans-Serif" font-size="14.00">▶ Run GitHub Actions for `sweepai/utils/tree_utils_test.py`</text>
</g>
<!-- 43e6ca00&#45;be37&#45;4bb5&#45;979d&#45;b987252f051a&#45;&gt;d64e6429&#45;c22e&#45;4f7c&#45;885a&#45;46136e412284 -->
<g id="edge7" class="edge">
<title>43e6ca00&#45;be37&#45;4bb5&#45;979d&#45;b987252f051a&#45;&gt;d64e6429&#45;c22e&#45;4f7c&#45;885a&#45;46136e412284</title>
<path fill="none" stroke="black" stroke-dasharray="5,2" d="M1469.62,-72.72C1473.7,-63.9 1478.26,-54.05 1482.35,-45.23"/>
<polygon fill="black" stroke="black" points="1485.53,-46.69 1486.56,-36.15 1479.18,-43.75 1485.53,-46.69"/>
</g>
</g>
</svg>
