<?xml version="1.0" encoding="UTF-8" standalone="no"?>
<!DOCTYPE svg PUBLIC "-//W3C//DTD SVG 1.1//EN"
 "http://www.w3.org/Graphics/SVG/1.1/DTD/svg11.dtd">
<!-- Generated by graphviz version 8.0.3 (0)
 -->
<!-- Pages: 1 -->
<svg width="503pt" height="165pt"
 viewBox="0.00 0.00 503.00 164.74" xmlns="http://www.w3.org/2000/svg" xmlns:xlink="http://www.w3.org/1999/xlink">
<g id="graph0" class="graph" transform="scale(1 1) rotate(0) translate(36 128.74)">
<polygon fill="dimgray" stroke="none" points="-36,36 -36,-128.74 467,-128.74 467,36 -36,36"/>
<text text-anchor="middle" x="215.5" y="-77.54" font-family="Helvetica,sans-Serif" font-size="14.00">Sweep&#39;s Plan &amp; Progress</text>
<!-- start -->
<g id="node1" class="node">
<title>start</title>
</g>
<!-- 5e58d2ad&#45;0915&#45;4359&#45;a1c8&#45;1ab4ea5c91e6 -->
<g id="node3" class="node">
<title>5e58d2ad&#45;0915&#45;4359&#45;a1c8&#45;1ab4ea5c91e6</title>
<ellipse fill="yellow" stroke="black" cx="212.5" cy="-26.87" rx="159.61" ry="26.74"/>
<text text-anchor="middle" x="212.5" y="-30.67" font-family="Helvetica,sans-Serif" font-size="14.00">⋯ Modify</text>
<text text-anchor="middle" x="212.5" y="-15.67" font-family="Helvetica,sans-Serif" font-size="14.00">sweepai/handlers/on_ticket.py</text>
</g>
<!-- start&#45;&gt;5e58d2ad&#45;0915&#45;4359&#45;a1c8&#45;1ab4ea5c91e6 -->
<g id="edge1" class="edge">
<title>start&#45;&gt;5e58d2ad&#45;0915&#45;4359&#45;a1c8&#45;1ab4ea5c91e6</title>
<path fill="none" stroke="black" d="M0.65,-26.87C2.39,-26.87 18.75,-26.87 41.67,-26.87"/>
<polygon fill="black" stroke="black" points="41.63,-30.37 51.63,-26.87 41.63,-23.37 41.63,-30.37"/>
<text text-anchor="middle" x="26.85" y="-33.67" font-family="Helvetica,sans-Serif" font-size="14.00">Start</text>
</g>
<!-- end -->
<g id="node2" class="node">
<title>end</title>
</g>
<!-- 5e58d2ad&#45;0915&#45;4359&#45;a1c8&#45;1ab4ea5c91e6&#45;&gt;end -->
<g id="edge2" class="edge">
<title>5e58d2ad&#45;0915&#45;4359&#45;a1c8&#45;1ab4ea5c91e6&#45;&gt;end</title>
<path fill="none" stroke="black" d="M372.37,-26.87C392,-26.87 408.8,-26.87 419.22,-26.87"/>
<polygon fill="black" stroke="black" points="419.21,-30.37 429.21,-26.87 419.21,-23.37 419.21,-30.37"/>
<text text-anchor="middle" x="401.15" y="-33.67" font-family="Helvetica,sans-Serif" font-size="14.00">Finish</text>
</g>
</g>
</svg>
