<?xml version="1.0" encoding="UTF-8" standalone="no"?>
<!DOCTYPE svg PUBLIC "-//W3C//DTD SVG 1.1//EN"
 "http://www.w3.org/Graphics/SVG/1.1/DTD/svg11.dtd">
<!-- Generated by graphviz version 8.0.3 (0)
 -->
<!-- Pages: 1 -->
<svg width="2071pt" height="415pt"
 viewBox="0.00 0.00 2071.00 415.48" xmlns="http://www.w3.org/2000/svg" xmlns:xlink="http://www.w3.org/1999/xlink">
<g id="graph0" class="graph" transform="scale(1 1) rotate(0) translate(36 379.48)">
<polygon fill="dimgray" stroke="none" points="-36,36 -36,-379.48 2035,-379.48 2035,36 -36,36"/>
<text text-anchor="middle" x="999.5" y="-328.28" font-family="Helvetica,sans-Serif" font-size="14.00">Sweep&#39;s Plan &amp; Progress</text>
<!-- start -->
<g id="node1" class="node">
<title>start</title>
</g>
<!-- 777016a4&#45;869c&#45;4802&#45;acb9&#45;e0bec53c7cda -->
<g id="node3" class="node">
<title>777016a4&#45;869c&#45;4802&#45;acb9&#45;e0bec53c7cda</title>
<ellipse fill="#ee0000" stroke="black" cx="662.5" cy="-277.61" rx="159.61" ry="26.74"/>
<text text-anchor="middle" x="662.5" y="-281.41" font-family="Helvetica,sans-Serif" font-size="14.00">✗ Modify</text>
<text text-anchor="middle" x="662.5" y="-266.41" font-family="Helvetica,sans-Serif" font-size="14.00">sweepai/handlers/on_ticket.py</text>
</g>
<!-- start&#45;&gt;777016a4&#45;869c&#45;4802&#45;acb9&#45;e0bec53c7cda -->
<g id="edge19" class="edge">
<title>start&#45;&gt;777016a4&#45;869c&#45;4802&#45;acb9&#45;e0bec53c7cda</title>
<path fill="none" stroke="black" d="M450.65,-277.61C452.39,-277.61 468.75,-277.61 491.67,-277.61"/>
<polygon fill="black" stroke="black" points="491.63,-281.11 501.63,-277.61 491.63,-274.11 491.63,-281.11"/>
<text text-anchor="middle" x="476.85" y="-284.41" font-family="Helvetica,sans-Serif" font-size="14.00">Start</text>
</g>
<!-- end -->
<g id="node2" class="node">
<title>end</title>
</g>
<!-- 6da2bd48&#45;856b&#45;4801&#45;a784&#45;91176a04f6ad -->
<g id="node4" class="node">
<title>6da2bd48&#45;856b&#45;4801&#45;a784&#45;91176a04f6ad</title>
<ellipse fill="#0ee832" stroke="black" cx="1039.5" cy="-277.61" rx="159.61" ry="26.74"/>
<text text-anchor="middle" x="1039.5" y="-281.41" font-family="Helvetica,sans-Serif" font-size="14.00">✓ Modify</text>
<text text-anchor="middle" x="1039.5" y="-266.41" font-family="Helvetica,sans-Serif" font-size="14.00">sweepai/handlers/on_ticket.py</text>
</g>
<!-- 777016a4&#45;869c&#45;4802&#45;acb9&#45;e0bec53c7cda&#45;&gt;6da2bd48&#45;856b&#45;4801&#45;a784&#45;91176a04f6ad -->
<g id="edge2" class="edge">
<title>777016a4&#45;869c&#45;4802&#45;acb9&#45;e0bec53c7cda&#45;&gt;6da2bd48&#45;856b&#45;4801&#45;a784&#45;91176a04f6ad</title>
<path fill="none" stroke="black" d="M822.28,-277.61C837.79,-277.61 853.31,-277.61 868.82,-277.61"/>
<polygon fill="black" stroke="black" points="868.56,-281.11 878.56,-277.61 868.56,-274.11 868.56,-281.11"/>
</g>
<!-- da790d63&#45;8e88&#45;40b4&#45;8f69&#45;1ed52323fdfb -->
<g id="node5" class="node">
<title>da790d63&#45;8e88&#45;40b4&#45;8f69&#45;1ed52323fdfb</title>
<polygon fill="#ee0000" stroke="black" points="831.5,-213.74 451.5,-213.74 451.5,-177.74 831.5,-177.74 831.5,-213.74"/>
<text text-anchor="middle" x="641.5" y="-192.04" font-family="Helvetica,sans-Serif" font-size="14.00">✗ Ran sandbox for `sweepai/handlers/on_ticket.py`.</text>
</g>
<!-- 777016a4&#45;869c&#45;4802&#45;acb9&#45;e0bec53c7cda&#45;&gt;da790d63&#45;8e88&#45;40b4&#45;8f69&#45;1ed52323fdfb -->
<g id="edge1" class="edge">
<title>777016a4&#45;869c&#45;4802&#45;acb9&#45;e0bec53c7cda&#45;&gt;da790d63&#45;8e88&#45;40b4&#45;8f69&#45;1ed52323fdfb</title>
<path fill="none" stroke="black" stroke-dasharray="5,2" d="M655.62,-250.46C653.43,-242.11 650.99,-232.84 648.77,-224.39"/>
<polygon fill="black" stroke="black" points="651.94,-223.67 646.01,-214.89 645.17,-225.45 651.94,-223.67"/>
</g>
<!-- 6da2bd48&#45;856b&#45;4801&#45;a784&#45;91176a04f6ad&#45;&gt;end -->
<g id="edge20" class="edge">
<title>6da2bd48&#45;856b&#45;4801&#45;a784&#45;91176a04f6ad&#45;&gt;end</title>
<path fill="none" stroke="black" d="M1199.37,-277.61C1219,-277.61 1235.8,-277.61 1246.22,-277.61"/>
<polygon fill="black" stroke="black" points="1246.21,-281.11 1256.21,-277.61 1246.21,-274.11 1246.21,-281.11"/>
<text text-anchor="middle" x="1228.15" y="-284.41" font-family="Helvetica,sans-Serif" font-size="14.00">Finish</text>
</g>
<!-- b28b1664&#45;a9f4&#45;4ff5&#45;9ceb&#45;6f6dbbefc4d7 -->
<g id="node6" class="node">
<title>b28b1664&#45;a9f4&#45;4ff5&#45;9ceb&#45;6f6dbbefc4d7</title>
<polygon fill="#ee0000" stroke="black" points="1229.5,-213.74 849.5,-213.74 849.5,-177.74 1229.5,-177.74 1229.5,-213.74"/>
<text text-anchor="middle" x="1039.5" y="-192.04" font-family="Helvetica,sans-Serif" font-size="14.00">✗ Ran sandbox for `sweepai/handlers/on_ticket.py`.</text>
</g>
<!-- 6da2bd48&#45;856b&#45;4801&#45;a784&#45;91176a04f6ad&#45;&gt;b28b1664&#45;a9f4&#45;4ff5&#45;9ceb&#45;6f6dbbefc4d7 -->
<g id="edge3" class="edge">
<title>6da2bd48&#45;856b&#45;4801&#45;a784&#45;91176a04f6ad&#45;&gt;b28b1664&#45;a9f4&#45;4ff5&#45;9ceb&#45;6f6dbbefc4d7</title>
<path fill="none" stroke="black" stroke-dasharray="5,2" d="M1039.5,-250.46C1039.5,-242.2 1039.5,-233.05 1039.5,-224.67"/>
<polygon fill="black" stroke="black" points="1043,-224.89 1039.5,-214.89 1036,-224.89 1043,-224.89"/>
</g>
<!-- c78a302f&#45;95cd&#45;4149&#45;9e26&#45;497c8ae78a6a -->
<g id="node7" class="node">
<title>c78a302f&#45;95cd&#45;4149&#45;9e26&#45;497c8ae78a6a</title>
<polygon fill="white" stroke="black" points="1625.5,-213.74 1247.5,-213.74 1247.5,-177.74 1625.5,-177.74 1625.5,-213.74"/>
<text text-anchor="middle" x="1436.5" y="-192.04" font-family="Helvetica,sans-Serif" font-size="14.00">▶ Ran sandbox for `sweepai/handlers/on_ticket.py`.</text>
</g>
<!-- 6da2bd48&#45;856b&#45;4801&#45;a784&#45;91176a04f6ad&#45;&gt;c78a302f&#45;95cd&#45;4149&#45;9e26&#45;497c8ae78a6a -->
<g id="edge18" class="edge">
<title>6da2bd48&#45;856b&#45;4801&#45;a784&#45;91176a04f6ad&#45;&gt;c78a302f&#45;95cd&#45;4149&#45;9e26&#45;497c8ae78a6a</title>
<path fill="none" stroke="black" stroke-dasharray="5,2" d="M1139.94,-256.4C1200.94,-244.13 1278.44,-228.54 1338.92,-216.37"/>
<polygon fill="black" stroke="black" points="1339.5,-219.62 1348.62,-214.22 1338.12,-212.76 1339.5,-219.62"/>
</g>
<!-- 1effb80a&#45;afe8&#45;479a&#45;a3e4&#45;fc346d420308 -->
<g id="node8" class="node">
<title>1effb80a&#45;afe8&#45;479a&#45;a3e4&#45;fc346d420308</title>
<ellipse fill="#0ee832" stroke="black" cx="202.5" cy="-99.87" rx="98.08" ry="26.74"/>
<text text-anchor="middle" x="202.5" y="-103.67" font-family="Helvetica,sans-Serif" font-size="14.00">✓ Create</text>
<text text-anchor="middle" x="202.5" y="-88.67" font-family="Helvetica,sans-Serif" font-size="14.00">.trunk/trunk.yaml</text>
</g>
<!-- b28b1664&#45;a9f4&#45;4ff5&#45;9ceb&#45;6f6dbbefc4d7&#45;&gt;1effb80a&#45;afe8&#45;479a&#45;a3e4&#45;fc346d420308 -->
<g id="edge4" class="edge">
<title>b28b1664&#45;a9f4&#45;4ff5&#45;9ceb&#45;6f6dbbefc4d7&#45;&gt;1effb80a&#45;afe8&#45;479a&#45;a3e4&#45;fc346d420308</title>
<path fill="none" stroke="black" d="M849.13,-178.29C846.23,-178.1 843.36,-177.92 840.5,-177.74 736.18,-171.29 473.19,-179.24 370.5,-159.74 333.92,-152.79 294.57,-139.35 263.15,-127.06"/>
<polygon fill="black" stroke="black" points="264.83,-123.56 254.24,-123.12 262.24,-130.07 264.83,-123.56"/>
<text text-anchor="middle" x="468" y="-148.54" font-family="Helvetica,sans-Serif" font-size="14.00">Additional changes required</text>
</g>
<!-- 4d098d4a&#45;623c&#45;44de&#45;99e8&#45;8bb04522bb86 -->
<g id="node9" class="node">
<title>4d098d4a&#45;623c&#45;44de&#45;99e8&#45;8bb04522bb86</title>
<ellipse fill="white" stroke="black" cx="455.5" cy="-99.87" rx="82.05" ry="26.74"/>
<text text-anchor="middle" x="455.5" y="-103.67" font-family="Helvetica,sans-Serif" font-size="14.00">▶ Create</text>
<text text-anchor="middle" x="455.5" y="-88.67" font-family="Helvetica,sans-Serif" font-size="14.00">.hadolint.yaml</text>
</g>
<!-- b28b1664&#45;a9f4&#45;4ff5&#45;9ceb&#45;6f6dbbefc4d7&#45;&gt;4d098d4a&#45;623c&#45;44de&#45;99e8&#45;8bb04522bb86 -->
<g id="edge6" class="edge">
<title>b28b1664&#45;a9f4&#45;4ff5&#45;9ceb&#45;6f6dbbefc4d7&#45;&gt;4d098d4a&#45;623c&#45;44de&#45;99e8&#45;8bb04522bb86</title>
<path fill="none" stroke="black" d="M849.12,-178.46C846.22,-178.22 843.35,-177.98 840.5,-177.74 742.74,-169.56 716.4,-180.4 620.5,-159.74 584.01,-151.88 544.59,-138.03 513.43,-125.73"/>
<polygon fill="black" stroke="black" points="515.21,-122.27 504.62,-121.81 512.6,-128.77 515.21,-122.27"/>
<text text-anchor="middle" x="718" y="-148.54" font-family="Helvetica,sans-Serif" font-size="14.00">Additional changes required</text>
</g>
<!-- fef081aa&#45;7234&#45;4238&#45;b14a&#45;80945924107c -->
<g id="node10" class="node">
<title>fef081aa&#45;7234&#45;4238&#45;b14a&#45;80945924107c</title>
<ellipse fill="white" stroke="black" cx="778.5" cy="-99.87" rx="109.7" ry="26.74"/>
<text text-anchor="middle" x="778.5" y="-103.67" font-family="Helvetica,sans-Serif" font-size="14.00">▶ Create</text>
<text text-anchor="middle" x="778.5" y="-88.67" font-family="Helvetica,sans-Serif" font-size="14.00">.markdownlint.yaml</text>
</g>
<!-- b28b1664&#45;a9f4&#45;4ff5&#45;9ceb&#45;6f6dbbefc4d7&#45;&gt;fef081aa&#45;7234&#45;4238&#45;b14a&#45;80945924107c -->
<g id="edge8" class="edge">
<title>b28b1664&#45;a9f4&#45;4ff5&#45;9ceb&#45;6f6dbbefc4d7&#45;&gt;fef081aa&#45;7234&#45;4238&#45;b14a&#45;80945924107c</title>
<path fill="none" stroke="black" d="M886.3,-177.31C870.4,-172.72 854.83,-166.96 840.5,-159.74 828.05,-153.47 816.4,-143.88 806.62,-134.25"/>
<polygon fill="black" stroke="black" points="809.68,-132.33 800.21,-127.57 804.64,-137.2 809.68,-132.33"/>
<text text-anchor="middle" x="938" y="-148.54" font-family="Helvetica,sans-Serif" font-size="14.00">Additional changes required</text>
</g>
<!-- 7c382e05&#45;c357&#45;4c52&#45;aa38&#45;74fa0c0fba75 -->
<g id="node11" class="node">
<title>7c382e05&#45;c357&#45;4c52&#45;aa38&#45;74fa0c0fba75</title>
<ellipse fill="white" stroke="black" cx="1039.5" cy="-99.87" rx="54.39" ry="26.74"/>
<text text-anchor="middle" x="1039.5" y="-103.67" font-family="Helvetica,sans-Serif" font-size="14.00">▶ Create</text>
<text text-anchor="middle" x="1039.5" y="-88.67" font-family="Helvetica,sans-Serif" font-size="14.00">ruff.toml</text>
</g>
<!-- b28b1664&#45;a9f4&#45;4ff5&#45;9ceb&#45;6f6dbbefc4d7&#45;&gt;7c382e05&#45;c357&#45;4c52&#45;aa38&#45;74fa0c0fba75 -->
<g id="edge10" class="edge">
<title>b28b1664&#45;a9f4&#45;4ff5&#45;9ceb&#45;6f6dbbefc4d7&#45;&gt;7c382e05&#45;c357&#45;4c52&#45;aa38&#45;74fa0c0fba75</title>
<path fill="none" stroke="black" d="M1039.5,-177.52C1039.5,-166.33 1039.5,-151.31 1039.5,-137.53"/>
<polygon fill="black" stroke="black" points="1043,-137.84 1039.5,-127.84 1036,-137.84 1043,-137.84"/>
<text text-anchor="middle" x="1137" y="-148.54" font-family="Helvetica,sans-Serif" font-size="14.00">Additional changes required</text>
</g>
<!-- 3af7b6cf&#45;e1ce&#45;4f82&#45;b83a&#45;aa998c800316 -->
<g id="node12" class="node">
<title>3af7b6cf&#45;e1ce&#45;4f82&#45;b83a&#45;aa998c800316</title>
<ellipse fill="white" stroke="black" cx="1279.5" cy="-99.87" rx="75.82" ry="26.74"/>
<text text-anchor="middle" x="1279.5" y="-103.67" font-family="Helvetica,sans-Serif" font-size="14.00">▶ Create</text>
<text text-anchor="middle" x="1279.5" y="-88.67" font-family="Helvetica,sans-Serif" font-size="14.00">.shellcheckrc</text>
</g>
<!-- b28b1664&#45;a9f4&#45;4ff5&#45;9ceb&#45;6f6dbbefc4d7&#45;&gt;3af7b6cf&#45;e1ce&#45;4f82&#45;b83a&#45;aa998c800316 -->
<g id="edge12" class="edge">
<title>b28b1664&#45;a9f4&#45;4ff5&#45;9ceb&#45;6f6dbbefc4d7&#45;&gt;3af7b6cf&#45;e1ce&#45;4f82&#45;b83a&#45;aa998c800316</title>
<path fill="none" stroke="black" d="M1182.14,-177.32C1206.6,-172.52 1227.63,-166.68 1238.5,-159.74 1247.87,-153.76 1255.69,-144.79 1261.9,-135.65"/>
<polygon fill="black" stroke="black" points="1265.25,-137.89 1267.57,-127.55 1259.31,-134.18 1265.25,-137.89"/>
<text text-anchor="middle" x="1352" y="-148.54" font-family="Helvetica,sans-Serif" font-size="14.00">Additional changes required</text>
</g>
<!-- db874f51&#45;5f05&#45;4c7f&#45;99cc&#45;6586d420fb27 -->
<g id="node13" class="node">
<title>db874f51&#45;5f05&#45;4c7f&#45;99cc&#45;6586d420fb27</title>
<ellipse fill="white" stroke="black" cx="1539.5" cy="-99.87" rx="79.81" ry="26.74"/>
<text text-anchor="middle" x="1539.5" y="-103.67" font-family="Helvetica,sans-Serif" font-size="14.00">▶ Create</text>
<text text-anchor="middle" x="1539.5" y="-88.67" font-family="Helvetica,sans-Serif" font-size="14.00">svgo.config.js</text>
</g>
<!-- b28b1664&#45;a9f4&#45;4ff5&#45;9ceb&#45;6f6dbbefc4d7&#45;&gt;db874f51&#45;5f05&#45;4c7f&#45;99cc&#45;6586d420fb27 -->
<g id="edge14" class="edge">
<title>b28b1664&#45;a9f4&#45;4ff5&#45;9ceb&#45;6f6dbbefc4d7&#45;&gt;db874f51&#45;5f05&#45;4c7f&#45;99cc&#45;6586d420fb27</title>
<path fill="none" stroke="black" d="M1229.88,-178.47C1232.78,-178.22 1235.65,-177.98 1238.5,-177.74 1286.27,-173.7 1408.33,-175.81 1453.5,-159.74 1471.15,-153.46 1488.58,-142.63 1503.09,-131.96"/>
<polygon fill="black" stroke="black" points="1504.9,-134.23 1510.73,-125.38 1500.65,-128.66 1504.9,-134.23"/>
<text text-anchor="middle" x="1580" y="-148.54" font-family="Helvetica,sans-Serif" font-size="14.00">Additional changes required</text>
</g>
<!-- 0d9c7738&#45;362e&#45;40c1&#45;86ec&#45;098074656836 -->
<g id="node14" class="node">
<title>0d9c7738&#45;362e&#45;40c1&#45;86ec&#45;098074656836</title>
<ellipse fill="white" stroke="black" cx="1798.5" cy="-99.87" rx="81.13" ry="26.74"/>
<text text-anchor="middle" x="1798.5" y="-103.67" font-family="Helvetica,sans-Serif" font-size="14.00">▶ Create</text>
<text text-anchor="middle" x="1798.5" y="-88.67" font-family="Helvetica,sans-Serif" font-size="14.00">.yamllint.yaml</text>
</g>
<!-- b28b1664&#45;a9f4&#45;4ff5&#45;9ceb&#45;6f6dbbefc4d7&#45;&gt;0d9c7738&#45;362e&#45;40c1&#45;86ec&#45;098074656836 -->
<g id="edge16" class="edge">
<title>b28b1664&#45;a9f4&#45;4ff5&#45;9ceb&#45;6f6dbbefc4d7&#45;&gt;0d9c7738&#45;362e&#45;40c1&#45;86ec&#45;098074656836</title>
<path fill="none" stroke="black" d="M1229.87,-178.3C1232.77,-178.11 1235.65,-177.92 1238.5,-177.74 1336.83,-171.55 1586.12,-184.44 1681.5,-159.74 1706.2,-153.34 1731.73,-141.24 1752.62,-129.67"/>
<polygon fill="black" stroke="black" points="1754.21,-132.22 1761.17,-124.23 1750.75,-126.13 1754.21,-132.22"/>
<text text-anchor="middle" x="1820" y="-148.54" font-family="Helvetica,sans-Serif" font-size="14.00">Additional changes required</text>
</g>
<!-- a2f4d6dd&#45;8386&#45;4ba4&#45;9cc0&#45;9530fdce5359 -->
<g id="node15" class="node">
<title>a2f4d6dd&#45;8386&#45;4ba4&#45;9cc0&#45;9530fdce5359</title>
<polygon fill="yellow" stroke="black" points="295,-36 0,-36 0,0 295,0 295,-36"/>
<text text-anchor="middle" x="147.5" y="-14.3" font-family="Helvetica,sans-Serif" font-size="14.00">⋯ Ran sandbox for `.trunk/trunk.yaml`.</text>
</g>
<!-- 1effb80a&#45;afe8&#45;479a&#45;a3e4&#45;fc346d420308&#45;&gt;a2f4d6dd&#45;8386&#45;4ba4&#45;9cc0&#45;9530fdce5359 -->
<g id="edge5" class="edge">
<title>1effb80a&#45;afe8&#45;479a&#45;a3e4&#45;fc346d420308&#45;&gt;a2f4d6dd&#45;8386&#45;4ba4&#45;9cc0&#45;9530fdce5359</title>
<path fill="none" stroke="black" stroke-dasharray="5,2" d="M184.79,-73.16C178.64,-64.22 171.74,-54.2 165.56,-45.22"/>
<polygon fill="black" stroke="black" points="167.99,-43.59 159.44,-37.34 162.23,-47.56 167.99,-43.59"/>
</g>
<!-- 7efcc62f&#45;ee4e&#45;41bb&#45;a0de&#45;69ae1cfe609b -->
<g id="node16" class="node">
<title>7efcc62f&#45;ee4e&#45;41bb&#45;a0de&#45;69ae1cfe609b</title>
<polygon fill="white" stroke="black" points="581.5,-36 313.5,-36 313.5,0 581.5,0 581.5,-36"/>
<text text-anchor="middle" x="447.5" y="-14.3" font-family="Helvetica,sans-Serif" font-size="14.00">▶ Ran sandbox for `.hadolint.yaml`.</text>
</g>
<!-- 4d098d4a&#45;623c&#45;44de&#45;99e8&#45;8bb04522bb86&#45;&gt;7efcc62f&#45;ee4e&#45;41bb&#45;a0de&#45;69ae1cfe609b -->
<g id="edge7" class="edge">
<title>4d098d4a&#45;623c&#45;44de&#45;99e8&#45;8bb04522bb86&#45;&gt;7efcc62f&#45;ee4e&#45;41bb&#45;a0de&#45;69ae1cfe609b</title>
<path fill="none" stroke="black" stroke-dasharray="5,2" d="M452.88,-72.72C452.05,-64.46 451.14,-55.31 450.3,-46.93"/>
<polygon fill="black" stroke="black" points="453.7,-46.75 449.22,-37.15 446.73,-47.45 453.7,-46.75"/>
</g>
<!-- 9d4b871f&#45;5a32&#45;403a&#45;8c31&#45;f4ddb2609e97 -->
<g id="node17" class="node">
<title>9d4b871f&#45;5a32&#45;403a&#45;8c31&#45;f4ddb2609e97</title>
<polygon fill="white" stroke="black" points="907,-36 600,-36 600,0 907,0 907,-36"/>
<text text-anchor="middle" x="753.5" y="-14.3" font-family="Helvetica,sans-Serif" font-size="14.00">▶ Ran sandbox for `.markdownlint.yaml`.</text>
</g>
<!-- fef081aa&#45;7234&#45;4238&#45;b14a&#45;80945924107c&#45;&gt;9d4b871f&#45;5a32&#45;403a&#45;8c31&#45;f4ddb2609e97 -->
<g id="edge9" class="edge">
<title>fef081aa&#45;7234&#45;4238&#45;b14a&#45;80945924107c&#45;&gt;9d4b871f&#45;5a32&#45;403a&#45;8c31&#45;f4ddb2609e97</title>
<path fill="none" stroke="black" stroke-dasharray="5,2" d="M770.31,-72.72C767.67,-64.27 764.73,-54.89 762.06,-46.36"/>
<polygon fill="black" stroke="black" points="765.19,-45.64 758.87,-37.15 758.51,-47.74 765.19,-45.64"/>
</g>
<!-- b76525f1&#45;284b&#45;4a1a&#45;81ba&#45;ba7df5b2c604 -->
<g id="node18" class="node">
<title>b76525f1&#45;284b&#45;4a1a&#45;81ba&#45;ba7df5b2c604</title>
<polygon fill="white" stroke="black" points="1154,-36 925,-36 925,0 1154,0 1154,-36"/>
<text text-anchor="middle" x="1039.5" y="-14.3" font-family="Helvetica,sans-Serif" font-size="14.00">▶ Ran sandbox for `ruff.toml`.</text>
</g>
<!-- 7c382e05&#45;c357&#45;4c52&#45;aa38&#45;74fa0c0fba75&#45;&gt;b76525f1&#45;284b&#45;4a1a&#45;81ba&#45;ba7df5b2c604 -->
<g id="edge11" class="edge">
<title>7c382e05&#45;c357&#45;4c52&#45;aa38&#45;74fa0c0fba75&#45;&gt;b76525f1&#45;284b&#45;4a1a&#45;81ba&#45;ba7df5b2c604</title>
<path fill="none" stroke="black" stroke-dasharray="5,2" d="M1039.5,-72.72C1039.5,-64.46 1039.5,-55.31 1039.5,-46.93"/>
<polygon fill="black" stroke="black" points="1043,-47.15 1039.5,-37.15 1036,-47.15 1043,-47.15"/>
</g>
<!-- 846243c6&#45;9f9c&#45;4280&#45;b68f&#45;d813c7f5482a -->
<g id="node19" class="node">
<title>846243c6&#45;9f9c&#45;4280&#45;b68f&#45;d813c7f5482a</title>
<polygon fill="white" stroke="black" points="1431,-36 1172,-36 1172,0 1431,0 1431,-36"/>
<text text-anchor="middle" x="1301.5" y="-14.3" font-family="Helvetica,sans-Serif" font-size="14.00">▶ Ran sandbox for `.shellcheckrc`.</text>
</g>
<!-- 3af7b6cf&#45;e1ce&#45;4f82&#45;b83a&#45;aa998c800316&#45;&gt;846243c6&#45;9f9c&#45;4280&#45;b68f&#45;d813c7f5482a -->
<g id="edge13" class="edge">
<title>3af7b6cf&#45;e1ce&#45;4f82&#45;b83a&#45;aa998c800316&#45;&gt;846243c6&#45;9f9c&#45;4280&#45;b68f&#45;d813c7f5482a</title>
<path fill="none" stroke="black" stroke-dasharray="5,2" d="M1286.58,-73.16C1288.89,-64.79 1291.46,-55.46 1293.81,-46.93"/>
<polygon fill="black" stroke="black" points="1297.44,-47.91 1296.72,-37.34 1290.69,-46.05 1297.44,-47.91"/>
</g>
<!-- 497ee8b8&#45;e137&#45;4184&#45;95c1&#45;84224a850b7d -->
<g id="node20" class="node">
<title>497ee8b8&#45;e137&#45;4184&#45;95c1&#45;84224a850b7d</title>
<polygon fill="white" stroke="black" points="1714,-36 1449,-36 1449,0 1714,0 1714,-36"/>
<text text-anchor="middle" x="1581.5" y="-14.3" font-family="Helvetica,sans-Serif" font-size="14.00">▶ Ran sandbox for `svgo.config.js`.</text>
</g>
<!-- db874f51&#45;5f05&#45;4c7f&#45;99cc&#45;6586d420fb27&#45;&gt;497ee8b8&#45;e137&#45;4184&#45;95c1&#45;84224a850b7d -->
<g id="edge15" class="edge">
<title>db874f51&#45;5f05&#45;4c7f&#45;99cc&#45;6586d420fb27&#45;&gt;497ee8b8&#45;e137&#45;4184&#45;95c1&#45;84224a850b7d</title>
<path fill="none" stroke="black" stroke-dasharray="5,2" d="M1553.02,-73.16C1557.62,-64.41 1562.77,-54.62 1567.41,-45.79"/>
<polygon fill="black" stroke="black" points="1570.83,-47.82 1572.38,-37.34 1564.63,-44.56 1570.83,-47.82"/>
</g>
<!-- 0f216f21&#45;13e2&#45;44ec&#45;bf19&#45;0e8ce6b5a0b4 -->
<g id="node21" class="node">
<title>0f216f21&#45;13e2&#45;44ec&#45;bf19&#45;0e8ce6b5a0b4</title>
<polygon fill="white" stroke="black" points="1999,-36 1732,-36 1732,0 1999,0 1999,-36"/>
<text text-anchor="middle" x="1865.5" y="-14.3" font-family="Helvetica,sans-Serif" font-size="14.00">▶ Ran sandbox for `.yamllint.yaml`.</text>
</g>
<!-- 0d9c7738&#45;362e&#45;40c1&#45;86ec&#45;098074656836&#45;&gt;0f216f21&#45;13e2&#45;44ec&#45;bf19&#45;0e8ce6b5a0b4 -->
<g id="edge17" class="edge">
<title>0d9c7738&#45;362e&#45;40c1&#45;86ec&#45;098074656836&#45;&gt;0f216f21&#45;13e2&#45;44ec&#45;bf19&#45;0e8ce6b5a0b4</title>
<path fill="none" stroke="black" stroke-dasharray="5,2" d="M1819.7,-73.6C1827.57,-64.22 1836.48,-53.59 1844.35,-44.22"/>
<polygon fill="black" stroke="black" points="1847.46,-46.95 1851.21,-37.04 1842.1,-42.45 1847.46,-46.95"/>
</g>
</g>
</svg>
