<?xml version="1.0" encoding="UTF-8" standalone="no"?>
<!DOCTYPE svg PUBLIC "-//W3C//DTD SVG 1.1//EN"
 "http://www.w3.org/Graphics/SVG/1.1/DTD/svg11.dtd">
<!-- Generated by graphviz version 8.0.3 (0)
 -->
<!-- Pages: 1 -->
<svg width="354pt" height="238pt"
 viewBox="0.00 0.00 353.50 237.74" xmlns="http://www.w3.org/2000/svg" xmlns:xlink="http://www.w3.org/1999/xlink">
<g id="graph0" class="graph" transform="scale(1 1) rotate(0) translate(36 201.74)">
<polygon fill="dimgray" stroke="none" points="-36,36 -36,-201.74 317.5,-201.74 317.5,36 -36,36"/>
<text text-anchor="middle" x="140.75" y="-150.54" font-family="Helvetica,sans-Serif" font-size="14.00">Sweep&#39;s Plan &amp; Progress</text>
<!-- start -->
<g id="node1" class="node">
<title>start</title>
</g>
<!-- 72b960c6&#45;f457&#45;4536&#45;8349&#45;b9acecdb797d -->
<g id="node3" class="node">
<title>72b960c6&#45;f457&#45;4536&#45;8349&#45;b9acecdb797d</title>
<ellipse fill="#0ee832" stroke="black" cx="138" cy="-99.87" rx="84.71" ry="26.74"/>
<text text-anchor="middle" x="138" y="-103.67" font-family="Helvetica,sans-Serif" font-size="14.00">✓ Modify</text>
<text text-anchor="middle" x="138" y="-88.67" font-family="Helvetica,sans-Serif" font-size="14.00">sweepai/api.py</text>
</g>
<!-- start&#45;&gt;72b960c6&#45;f457&#45;4536&#45;8349&#45;b9acecdb797d -->
<g id="edge2" class="edge">
<title>start&#45;&gt;72b960c6&#45;f457&#45;4536&#45;8349&#45;b9acecdb797d</title>
<path fill="none" stroke="black" d="M1.39,-99.87C4.15,-99.87 21.04,-99.87 42.06,-99.87"/>
<polygon fill="black" stroke="black" points="42.03,-103.37 52.03,-99.87 42.03,-96.37 42.03,-103.37"/>
<text text-anchor="middle" x="27.32" y="-106.67" font-family="Helvetica,sans-Serif" font-size="14.00">Start</text>
</g>
<!-- end -->
<g id="node2" class="node">
<title>end</title>
</g>
<!-- 72b960c6&#45;f457&#45;4536&#45;8349&#45;b9acecdb797d&#45;&gt;end -->
<g id="edge3" class="edge">
<title>72b960c6&#45;f457&#45;4536&#45;8349&#45;b9acecdb797d&#45;&gt;end</title>
<path fill="none" stroke="black" d="M222.84,-99.87C241.56,-99.87 259.01,-99.87 269.82,-99.87"/>
<polygon fill="black" stroke="black" points="269.69,-103.37 279.69,-99.87 269.69,-96.37 269.69,-103.37"/>
<text text-anchor="middle" x="251.68" y="-106.67" font-family="Helvetica,sans-Serif" font-size="14.00">Finish</text>
</g>
<!-- 19b5b4ca&#45;ac22&#45;43c9&#45;8ae5&#45;dfb429631701 -->
<g id="node4" class="node">
<title>19b5b4ca&#45;ac22&#45;43c9&#45;8ae5&#45;dfb429631701</title>
<polygon fill="yellow" stroke="black" points="276,-36 0,-36 0,0 276,0 276,-36"/>
<text text-anchor="middle" x="138" y="-14.3" font-family="Helvetica,sans-Serif" font-size="14.00">⋯ Ran sandbox for `sweepai/api.py`.</text>
</g>
<!-- 72b960c6&#45;f457&#45;4536&#45;8349&#45;b9acecdb797d&#45;&gt;19b5b4ca&#45;ac22&#45;43c9&#45;8ae5&#45;dfb429631701 -->
<g id="edge1" class="edge">
<title>72b960c6&#45;f457&#45;4536&#45;8349&#45;b9acecdb797d&#45;&gt;19b5b4ca&#45;ac22&#45;43c9&#45;8ae5&#45;dfb429631701</title>
<path fill="none" stroke="black" stroke-dasharray="5,2" d="M138,-72.72C138,-64.46 138,-55.31 138,-46.93"/>
<polygon fill="black" stroke="black" points="141.5,-47.15 138,-37.15 134.5,-47.15 141.5,-47.15"/>
</g>
</g>
</svg>
