<?xml version="1.0" encoding="UTF-8" standalone="no"?>
<!DOCTYPE svg PUBLIC "-//W3C//DTD SVG 1.1//EN"
 "http://www.w3.org/Graphics/SVG/1.1/DTD/svg11.dtd">
<!-- Generated by graphviz version 8.0.3 (0)
 -->
<!-- Pages: 1 -->
<svg width="869pt" height="238pt"
 viewBox="0.00 0.00 869.00 237.74" xmlns="http://www.w3.org/2000/svg" xmlns:xlink="http://www.w3.org/1999/xlink">
<g id="graph0" class="graph" transform="scale(1 1) rotate(0) translate(36 201.74)">
<polygon fill="dimgray" stroke="none" points="-36,36 -36,-201.74 833,-201.74 833,36 -36,36"/>
<text text-anchor="middle" x="398.5" y="-150.54" font-family="Helvetica,sans-Serif" font-size="14.00">Sweep&#39;s Plan &amp; Progress</text>
<!-- start -->
<g id="node1" class="node">
<title>start</title>
</g>
<!-- 2474dc83&#45;d6c9&#45;4095&#45;9ed9&#45;c258eb62d53b -->
<g id="node3" class="node">
<title>2474dc83&#45;d6c9&#45;4095&#45;9ed9&#45;c258eb62d53b</title>
<ellipse fill="#0ee832" stroke="black" cx="212.5" cy="-99.87" rx="159.61" ry="26.74"/>
<text text-anchor="middle" x="212.5" y="-103.67" font-family="Helvetica,sans-Serif" font-size="14.00">✓ Modify</text>
<text text-anchor="middle" x="212.5" y="-88.67" font-family="Helvetica,sans-Serif" font-size="14.00">sweepai/handlers/on_ticket.py</text>
</g>
<!-- start&#45;&gt;2474dc83&#45;d6c9&#45;4095&#45;9ed9&#45;c258eb62d53b -->
<g id="edge4" class="edge">
<title>start&#45;&gt;2474dc83&#45;d6c9&#45;4095&#45;9ed9&#45;c258eb62d53b</title>
<path fill="none" stroke="black" d="M0.65,-99.87C2.39,-99.87 18.75,-99.87 41.67,-99.87"/>
<polygon fill="black" stroke="black" points="41.63,-103.37 51.63,-99.87 41.63,-96.37 41.63,-103.37"/>
<text text-anchor="middle" x="26.85" y="-106.67" font-family="Helvetica,sans-Serif" font-size="14.00">Start</text>
</g>
<!-- end -->
<g id="node2" class="node">
<title>end</title>
</g>
<!-- ed608921&#45;bc70&#45;4f4e&#45;a331&#45;16482b157696 -->
<g id="node4" class="node">
<title>ed608921&#45;bc70&#45;4f4e&#45;a331&#45;16482b157696</title>
<ellipse fill="white" stroke="black" cx="578.5" cy="-99.87" rx="159.61" ry="26.74"/>
<text text-anchor="middle" x="578.5" y="-103.67" font-family="Helvetica,sans-Serif" font-size="14.00">▶ Modify</text>
<text text-anchor="middle" x="578.5" y="-88.67" font-family="Helvetica,sans-Serif" font-size="14.00">sweepai/handlers/on_ticket.py</text>
</g>
<!-- 2474dc83&#45;d6c9&#45;4095&#45;9ed9&#45;c258eb62d53b&#45;&gt;ed608921&#45;bc70&#45;4f4e&#45;a331&#45;16482b157696 -->
<g id="edge2" class="edge">
<title>2474dc83&#45;d6c9&#45;4095&#45;9ed9&#45;c258eb62d53b&#45;&gt;ed608921&#45;bc70&#45;4f4e&#45;a331&#45;16482b157696</title>
<path fill="none" stroke="black" d="M372.27,-99.87C384.09,-99.87 395.91,-99.87 407.73,-99.87"/>
<polygon fill="black" stroke="black" points="407.59,-103.37 417.59,-99.87 407.59,-96.37 407.59,-103.37"/>
</g>
<!-- 03a86e8a&#45;88a6&#45;4998&#45;99f7&#45;e8baca8bd457 -->
<g id="node5" class="node">
<title>03a86e8a&#45;88a6&#45;4998&#45;99f7&#45;e8baca8bd457</title>
<polygon fill="yellow" stroke="black" points="382.5,-36 0.5,-36 0.5,0 382.5,0 382.5,-36"/>
<text text-anchor="middle" x="191.5" y="-14.3" font-family="Helvetica,sans-Serif" font-size="14.00">⋯ Ran sandbox for `sweepai/handlers/on_ticket.py`.</text>
</g>
<!-- 2474dc83&#45;d6c9&#45;4095&#45;9ed9&#45;c258eb62d53b&#45;&gt;03a86e8a&#45;88a6&#45;4998&#45;99f7&#45;e8baca8bd457 -->
<g id="edge1" class="edge">
<title>2474dc83&#45;d6c9&#45;4095&#45;9ed9&#45;c258eb62d53b&#45;&gt;03a86e8a&#45;88a6&#45;4998&#45;99f7&#45;e8baca8bd457</title>
<path fill="none" stroke="black" stroke-dasharray="5,2" d="M205.62,-72.72C203.43,-64.37 200.99,-55.1 198.77,-46.65"/>
<polygon fill="black" stroke="black" points="201.94,-45.93 196.01,-37.15 195.17,-47.71 201.94,-45.93"/>
</g>
<!-- ed608921&#45;bc70&#45;4f4e&#45;a331&#45;16482b157696&#45;&gt;end -->
<g id="edge5" class="edge">
<title>ed608921&#45;bc70&#45;4f4e&#45;a331&#45;16482b157696&#45;&gt;end</title>
<path fill="none" stroke="black" d="M738.37,-99.87C758,-99.87 774.8,-99.87 785.22,-99.87"/>
<polygon fill="black" stroke="black" points="785.21,-103.37 795.21,-99.87 785.21,-96.37 785.21,-103.37"/>
<text text-anchor="middle" x="767.15" y="-106.67" font-family="Helvetica,sans-Serif" font-size="14.00">Finish</text>
</g>
<!-- 6c4aa635&#45;4ef4&#45;4dac&#45;b710&#45;d8f3a76e9eeb -->
<g id="node6" class="node">
<title>6c4aa635&#45;4ef4&#45;4dac&#45;b710&#45;d8f3a76e9eeb</title>
<polygon fill="white" stroke="black" points="778.5,-36 400.5,-36 400.5,0 778.5,0 778.5,-36"/>
<text text-anchor="middle" x="589.5" y="-14.3" font-family="Helvetica,sans-Serif" font-size="14.00">▶ Ran sandbox for `sweepai/handlers/on_ticket.py`.</text>
</g>
<!-- ed608921&#45;bc70&#45;4f4e&#45;a331&#45;16482b157696&#45;&gt;6c4aa635&#45;4ef4&#45;4dac&#45;b710&#45;d8f3a76e9eeb -->
<g id="edge3" class="edge">
<title>ed608921&#45;bc70&#45;4f4e&#45;a331&#45;16482b157696&#45;&gt;6c4aa635&#45;4ef4&#45;4dac&#45;b710&#45;d8f3a76e9eeb</title>
<path fill="none" stroke="black" stroke-dasharray="5,2" d="M582.1,-72.72C583.24,-64.46 584.5,-55.31 585.65,-46.93"/>
<polygon fill="black" stroke="black" points="589.24,-47.53 587.14,-37.15 582.31,-46.58 589.24,-47.53"/>
</g>
</g>
</svg>
