<?xml version="1.0" encoding="UTF-8" standalone="no"?>
<!DOCTYPE svg PUBLIC "-//W3C//DTD SVG 1.1//EN"
 "http://www.w3.org/Graphics/SVG/1.1/DTD/svg11.dtd">
<!-- Generated by graphviz version 8.0.3 (0)
 -->
<!-- Pages: 1 -->
<svg width="1243pt" height="165pt"
 viewBox="0.00 0.00 1243.00 164.74" xmlns="http://www.w3.org/2000/svg" xmlns:xlink="http://www.w3.org/1999/xlink">
<g id="graph0" class="graph" transform="scale(1 1) rotate(0) translate(36 128.74)">
<polygon fill="dimgray" stroke="none" points="-36,36 -36,-128.74 1207,-128.74 1207,36 -36,36"/>
<text text-anchor="middle" x="585.5" y="-77.54" font-family="Helvetica,sans-Serif" font-size="14.00">Sweep&#39;s Plan &amp; Progress</text>
<!-- start -->
<g id="node1" class="node">
<title>start</title>
</g>
<!-- 06de7d39&#45;64d3&#45;486f&#45;bb63&#45;09f88d6b12ca -->
<g id="node3" class="node">
<title>06de7d39&#45;64d3&#45;486f&#45;bb63&#45;09f88d6b12ca</title>
<ellipse fill="#0ee832" stroke="black" cx="215.5" cy="-26.87" rx="162.77" ry="26.74"/>
<text text-anchor="middle" x="215.5" y="-30.67" font-family="Helvetica,sans-Serif" font-size="14.00">✓ Create</text>
<text text-anchor="middle" x="215.5" y="-15.67" font-family="Helvetica,sans-Serif" font-size="14.00">sweepai/agents/filter_agent.py</text>
</g>
<!-- start&#45;&gt;06de7d39&#45;64d3&#45;486f&#45;bb63&#45;09f88d6b12ca -->
<g id="edge3" class="edge">
<title>start&#45;&gt;06de7d39&#45;64d3&#45;486f&#45;bb63&#45;09f88d6b12ca</title>
<path fill="none" stroke="black" d="M0.66,-26.87C2.4,-26.87 18.59,-26.87 41.38,-26.87"/>
<polygon fill="black" stroke="black" points="41.29,-30.37 51.29,-26.87 41.29,-23.37 41.29,-30.37"/>
<text text-anchor="middle" x="26.93" y="-33.67" font-family="Helvetica,sans-Serif" font-size="14.00">Start</text>
</g>
<!-- end -->
<g id="node2" class="node">
<title>end</title>
</g>
<!-- 41a3c03b&#45;e3cc&#45;4588&#45;aaf5&#45;32034cb5eef4 -->
<g id="node4" class="node">
<title>41a3c03b&#45;e3cc&#45;4588&#45;aaf5&#45;32034cb5eef4</title>
<ellipse fill="yellow" stroke="black" cx="599.5" cy="-26.87" rx="185.94" ry="26.74"/>
<text text-anchor="middle" x="599.5" y="-30.67" font-family="Helvetica,sans-Serif" font-size="14.00">⋯ Create</text>
<text text-anchor="middle" x="599.5" y="-15.67" font-family="Helvetica,sans-Serif" font-size="14.00">sweepai/agents/filter_agent_test.py</text>
</g>
<!-- 06de7d39&#45;64d3&#45;486f&#45;bb63&#45;09f88d6b12ca&#45;&gt;41a3c03b&#45;e3cc&#45;4588&#45;aaf5&#45;32034cb5eef4 -->
<g id="edge1" class="edge">
<title>06de7d39&#45;64d3&#45;486f&#45;bb63&#45;09f88d6b12ca&#45;&gt;41a3c03b&#45;e3cc&#45;4588&#45;aaf5&#45;32034cb5eef4</title>
<path fill="none" stroke="black" d="M378.62,-26.87C386.53,-26.87 394.44,-26.87 402.35,-26.87"/>
<polygon fill="black" stroke="black" points="402.14,-30.37 412.14,-26.87 402.14,-23.37 402.14,-30.37"/>
</g>
<!-- fcddb238&#45;9ff7&#45;451e&#45;b016&#45;0f23e96931ee -->
<g id="node5" class="node">
<title>fcddb238&#45;9ff7&#45;451e&#45;b016&#45;0f23e96931ee</title>
<ellipse fill="white" stroke="black" cx="966.5" cy="-26.87" rx="145.83" ry="26.74"/>
<text text-anchor="middle" x="966.5" y="-30.67" font-family="Helvetica,sans-Serif" font-size="14.00">▶ Modify</text>
<text text-anchor="middle" x="966.5" y="-15.67" font-family="Helvetica,sans-Serif" font-size="14.00">sweepai/utils/ticket_utils.py</text>
</g>
<!-- 41a3c03b&#45;e3cc&#45;4588&#45;aaf5&#45;32034cb5eef4&#45;&gt;fcddb238&#45;9ff7&#45;451e&#45;b016&#45;0f23e96931ee -->
<g id="edge2" class="edge">
<title>41a3c03b&#45;e3cc&#45;4588&#45;aaf5&#45;32034cb5eef4&#45;&gt;fcddb238&#45;9ff7&#45;451e&#45;b016&#45;0f23e96931ee</title>
<path fill="none" stroke="black" d="M785.87,-26.87C793.79,-26.87 801.71,-26.87 809.64,-26.87"/>
<polygon fill="black" stroke="black" points="809.44,-30.37 819.44,-26.87 809.44,-23.37 809.44,-30.37"/>
</g>
<!-- fcddb238&#45;9ff7&#45;451e&#45;b016&#45;0f23e96931ee&#45;&gt;end -->
<g id="edge4" class="edge">
<title>fcddb238&#45;9ff7&#45;451e&#45;b016&#45;0f23e96931ee&#45;&gt;end</title>
<path fill="none" stroke="black" d="M1112.59,-26.87C1132.23,-26.87 1149.16,-26.87 1159.56,-26.87"/>
<polygon fill="black" stroke="black" points="1159.21,-30.37 1169.21,-26.87 1159.21,-23.37 1159.21,-30.37"/>
<text text-anchor="middle" x="1141.08" y="-33.67" font-family="Helvetica,sans-Serif" font-size="14.00">Finish</text>
</g>
</g>
</svg>
