<?xml version="1.0" encoding="UTF-8" standalone="no"?>
<!DOCTYPE svg PUBLIC "-//W3C//DTD SVG 1.1//EN"
 "http://www.w3.org/Graphics/SVG/1.1/DTD/svg11.dtd">
<!-- Generated by graphviz version 8.0.3 (0)
 -->
<!-- Pages: 1 -->
<svg width="1386pt" height="238pt"
 viewBox="0.00 0.00 1386.00 237.74" xmlns="http://www.w3.org/2000/svg" xmlns:xlink="http://www.w3.org/1999/xlink">
<g id="graph0" class="graph" transform="scale(1 1) rotate(0) translate(36 201.74)">
<polygon fill="dimgray" stroke="none" points="-36,36 -36,-201.74 1350,-201.74 1350,36 -36,36"/>
<text text-anchor="middle" x="657" y="-150.54" font-family="Helvetica,sans-Serif" font-size="14.00">Sweep&#39;s Plan &amp; Progress</text>
<!-- start -->
<g id="node1" class="node">
<title>start</title>
</g>
<!-- febdec60&#45;b18b&#45;4ff8&#45;95c6&#45;45a0ce89b7c5 -->
<g id="node3" class="node">
<title>febdec60&#45;b18b&#45;4ff8&#45;95c6&#45;45a0ce89b7c5</title>
<ellipse fill="#0ee832" stroke="black" cx="248" cy="-99.87" rx="162.77" ry="26.74"/>
<text text-anchor="middle" x="248" y="-103.67" font-family="Helvetica,sans-Serif" font-size="14.00">✓ Create</text>
<text text-anchor="middle" x="248" y="-88.67" font-family="Helvetica,sans-Serif" font-size="14.00">sweepai/agents/filter_agent.py</text>
</g>
<!-- start&#45;&gt;febdec60&#45;b18b&#45;4ff8&#45;95c6&#45;45a0ce89b7c5 -->
<g id="edge6" class="edge">
<title>start&#45;&gt;febdec60&#45;b18b&#45;4ff8&#45;95c6&#45;45a0ce89b7c5</title>
<path fill="none" stroke="black" d="M33.16,-99.87C34.9,-99.87 51.09,-99.87 73.88,-99.87"/>
<polygon fill="black" stroke="black" points="73.79,-103.37 83.79,-99.87 73.79,-96.37 73.79,-103.37"/>
<text text-anchor="middle" x="59.43" y="-106.67" font-family="Helvetica,sans-Serif" font-size="14.00">Start</text>
</g>
<!-- end -->
<g id="node2" class="node">
<title>end</title>
</g>
<!-- 6fe4530d&#45;3e98&#45;4f9d&#45;914d&#45;ec32a53d1c67 -->
<g id="node4" class="node">
<title>6fe4530d&#45;3e98&#45;4f9d&#45;914d&#45;ec32a53d1c67</title>
<ellipse fill="#0ee832" stroke="black" cx="669" cy="-99.87" rx="185.94" ry="26.74"/>
<text text-anchor="middle" x="669" y="-103.67" font-family="Helvetica,sans-Serif" font-size="14.00">✓ Create</text>
<text text-anchor="middle" x="669" y="-88.67" font-family="Helvetica,sans-Serif" font-size="14.00">sweepai/agents/filter_agent_test.py</text>
</g>
<!-- febdec60&#45;b18b&#45;4ff8&#45;95c6&#45;45a0ce89b7c5&#45;&gt;6fe4530d&#45;3e98&#45;4f9d&#45;914d&#45;ec32a53d1c67 -->
<g id="edge2" class="edge">
<title>febdec60&#45;b18b&#45;4ff8&#45;95c6&#45;45a0ce89b7c5&#45;&gt;6fe4530d&#45;3e98&#45;4f9d&#45;914d&#45;ec32a53d1c67</title>
<path fill="none" stroke="black" d="M411.22,-99.87C431.42,-99.87 451.62,-99.87 471.82,-99.87"/>
<polygon fill="black" stroke="black" points="471.71,-103.37 481.71,-99.87 471.71,-96.37 471.71,-103.37"/>
</g>
<!-- 378af0ef&#45;c748&#45;4ede&#45;a404&#45;953ec5aa7166 -->
<g id="node6" class="node">
<title>378af0ef&#45;c748&#45;4ede&#45;a404&#45;953ec5aa7166</title>
<polygon fill="#0ee832" stroke="black" points="422,-36 0,-36 0,0 422,0 422,-36"/>
<text text-anchor="middle" x="211" y="-14.3" font-family="Helvetica,sans-Serif" font-size="14.00">✓ Run GitHub Actions for `sweepai/agents/filter_agent.py`</text>
</g>
<!-- febdec60&#45;b18b&#45;4ff8&#45;95c6&#45;45a0ce89b7c5&#45;&gt;378af0ef&#45;c748&#45;4ede&#45;a404&#45;953ec5aa7166 -->
<g id="edge1" class="edge">
<title>febdec60&#45;b18b&#45;4ff8&#45;95c6&#45;45a0ce89b7c5&#45;&gt;378af0ef&#45;c748&#45;4ede&#45;a404&#45;953ec5aa7166</title>
<path fill="none" stroke="black" stroke-dasharray="5,2" d="M235.88,-72.72C231.93,-64.18 227.53,-54.68 223.54,-46.08"/>
<polygon fill="black" stroke="black" points="226.32,-44.75 218.94,-37.15 219.97,-47.69 226.32,-44.75"/>
</g>
<!-- f2c8d47a&#45;340b&#45;41ca&#45;be35&#45;f1e66724c46e -->
<g id="node5" class="node">
<title>f2c8d47a&#45;340b&#45;41ca&#45;be35&#45;f1e66724c46e</title>
<ellipse fill="white" stroke="black" cx="1076" cy="-99.87" rx="145.83" ry="26.74"/>
<text text-anchor="middle" x="1076" y="-103.67" font-family="Helvetica,sans-Serif" font-size="14.00">▶ Modify</text>
<text text-anchor="middle" x="1076" y="-88.67" font-family="Helvetica,sans-Serif" font-size="14.00">sweepai/utils/ticket_utils.py</text>
</g>
<!-- 6fe4530d&#45;3e98&#45;4f9d&#45;914d&#45;ec32a53d1c67&#45;&gt;f2c8d47a&#45;340b&#45;41ca&#45;be35&#45;f1e66724c46e -->
<g id="edge4" class="edge">
<title>6fe4530d&#45;3e98&#45;4f9d&#45;914d&#45;ec32a53d1c67&#45;&gt;f2c8d47a&#45;340b&#45;41ca&#45;be35&#45;f1e66724c46e</title>
<path fill="none" stroke="black" d="M855.41,-99.87C876.66,-99.87 897.92,-99.87 919.17,-99.87"/>
<polygon fill="black" stroke="black" points="918.94,-103.37 928.94,-99.87 918.94,-96.37 918.94,-103.37"/>
</g>
<!-- 2b81e414&#45;bb7c&#45;4db8&#45;b016&#45;86c3d4de2fae -->
<g id="node7" class="node">
<title>2b81e414&#45;bb7c&#45;4db8&#45;b016&#45;86c3d4de2fae</title>
<polygon fill="yellow" stroke="black" points="898,-36 440,-36 440,0 898,0 898,-36"/>
<text text-anchor="middle" x="669" y="-14.3" font-family="Helvetica,sans-Serif" font-size="14.00">⋯ Run GitHub Actions for `sweepai/agents/filter_agent_test.py`</text>
</g>
<!-- 6fe4530d&#45;3e98&#45;4f9d&#45;914d&#45;ec32a53d1c67&#45;&gt;2b81e414&#45;bb7c&#45;4db8&#45;b016&#45;86c3d4de2fae -->
<g id="edge3" class="edge">
<title>6fe4530d&#45;3e98&#45;4f9d&#45;914d&#45;ec32a53d1c67&#45;&gt;2b81e414&#45;bb7c&#45;4db8&#45;b016&#45;86c3d4de2fae</title>
<path fill="none" stroke="black" stroke-dasharray="5,2" d="M669,-72.72C669,-64.46 669,-55.31 669,-46.93"/>
<polygon fill="black" stroke="black" points="672.5,-47.15 669,-37.15 665.5,-47.15 672.5,-47.15"/>
</g>
<!-- f2c8d47a&#45;340b&#45;41ca&#45;be35&#45;f1e66724c46e&#45;&gt;end -->
<g id="edge7" class="edge">
<title>f2c8d47a&#45;340b&#45;41ca&#45;be35&#45;f1e66724c46e&#45;&gt;end</title>
<path fill="none" stroke="black" d="M1222.09,-99.87C1241.73,-99.87 1258.66,-99.87 1269.06,-99.87"/>
<polygon fill="black" stroke="black" points="1268.71,-103.37 1278.71,-99.87 1268.71,-96.37 1268.71,-103.37"/>
<text text-anchor="middle" x="1250.58" y="-106.67" font-family="Helvetica,sans-Serif" font-size="14.00">Finish</text>
</g>
<!-- fd3cb271&#45;33f7&#45;41e1&#45;8f96&#45;87838a379873 -->
<g id="node8" class="node">
<title>fd3cb271&#45;33f7&#45;41e1&#45;8f96&#45;87838a379873</title>
<polygon fill="white" stroke="black" points="1314,-36 916,-36 916,0 1314,0 1314,-36"/>
<text text-anchor="middle" x="1115" y="-14.3" font-family="Helvetica,sans-Serif" font-size="14.00">▶ Run GitHub Actions for `sweepai/utils/ticket_utils.py`</text>
</g>
<!-- f2c8d47a&#45;340b&#45;41ca&#45;be35&#45;f1e66724c46e&#45;&gt;fd3cb271&#45;33f7&#45;41e1&#45;8f96&#45;87838a379873 -->
<g id="edge5" class="edge">
<title>f2c8d47a&#45;340b&#45;41ca&#45;be35&#45;f1e66724c46e&#45;&gt;fd3cb271&#45;33f7&#45;41e1&#45;8f96&#45;87838a379873</title>
<path fill="none" stroke="black" stroke-dasharray="5,2" d="M1088.55,-73.16C1092.78,-64.51 1097.51,-54.83 1101.78,-46.07"/>
<polygon fill="black" stroke="black" points="1105.29,-47.86 1106.53,-37.34 1099,-44.79 1105.29,-47.86"/>
</g>
</g>
</svg>
