<?xml version="1.0" encoding="UTF-8" standalone="no"?>
<!DOCTYPE svg PUBLIC "-//W3C//DTD SVG 1.1//EN"
 "http://www.w3.org/Graphics/SVG/1.1/DTD/svg11.dtd">
<!-- Generated by graphviz version 2.43.0 (0)
 -->
<!-- Title: %3 Pages: 1 -->
<svg width="367pt" height="238pt"
 viewBox="0.00 0.00 367.00 237.74" xmlns="http://www.w3.org/2000/svg" xmlns:xlink="http://www.w3.org/1999/xlink">
<g id="graph0" class="graph" transform="scale(1 1) rotate(0) translate(36 201.74)">
<title>%3</title>
<polygon fill="dimgray" stroke="transparent" points="-36,36 -36,-201.74 331,-201.74 331,36 -36,36"/>
<text text-anchor="middle" x="147.5" y="-150.54" font-family="Helvetica,sans-Serif" font-size="14.00">Sweep&#39;s Plan &amp; Progress</text>
<!-- start -->
<g id="node1" class="node">
<title>start</title>
</g>
<!-- 9c1c6066&#45;341b&#45;4f3a&#45;947b&#45;23a3d6eca733 -->
<g id="node3" class="node">
<title>9c1c6066&#45;341b&#45;4f3a&#45;947b&#45;23a3d6eca733</title>
<ellipse fill="yellow" stroke="black" cx="147.5" cy="-99.87" rx="73.58" ry="26.74"/>
<text text-anchor="middle" x="147.5" y="-103.67" font-family="Helvetica,sans-Serif" font-size="14.00">⋯ Modify</text>
<text text-anchor="middle" x="147.5" y="-88.67" font-family="Helvetica,sans-Serif" font-size="14.00">README.md</text>
</g>
<!-- start&#45;&gt;9c1c6066&#45;341b&#45;4f3a&#45;947b&#45;23a3d6eca733 -->
<g id="edge2" class="edge">
<title>start&#45;&gt;9c1c6066&#45;341b&#45;4f3a&#45;947b&#45;23a3d6eca733</title>
<path fill="none" stroke="black" d="M22.3,-99.87C26.14,-99.87 43.24,-99.87 63.62,-99.87"/>
<polygon fill="black" stroke="black" points="63.85,-103.37 73.85,-99.87 63.85,-96.37 63.85,-103.37"/>
<text text-anchor="middle" x="47.98" y="-106.67" font-family="Helvetica,sans-Serif" font-size="14.00">Start</text>
</g>
<!-- end -->
<g id="node2" class="node">
<title>end</title>
</g>
<!-- 9c1c6066&#45;341b&#45;4f3a&#45;947b&#45;23a3d6eca733&#45;&gt;end -->
<g id="edge3" class="edge">
<title>9c1c6066&#45;341b&#45;4f3a&#45;947b&#45;23a3d6eca733&#45;&gt;end</title>
<path fill="none" stroke="black" d="M221.22,-99.87C239.84,-99.87 257.64,-99.87 268.56,-99.87"/>
<polygon fill="black" stroke="black" points="268.78,-103.37 278.78,-99.87 268.78,-96.37 268.78,-103.37"/>
<text text-anchor="middle" x="250.02" y="-106.67" font-family="Helvetica,sans-Serif" font-size="14.00">Finish</text>
</g>
<!-- 04bdbe1c&#45;65a4&#45;4c1f&#45;a04a&#45;16aa55edb539 -->
<g id="node4" class="node">
<title>04bdbe1c&#45;65a4&#45;4c1f&#45;a04a&#45;16aa55edb539</title>
<polygon fill="white" stroke="black" points="295,-36 0,-36 0,0 295,0 295,-36"/>
<text text-anchor="middle" x="147.5" y="-14.3" font-family="Helvetica,sans-Serif" font-size="14.00">▶ Run GitHub Actions for `README.md`</text>
</g>
<!-- 9c1c6066&#45;341b&#45;4f3a&#45;947b&#45;23a3d6eca733&#45;&gt;04bdbe1c&#45;65a4&#45;4c1f&#45;a04a&#45;16aa55edb539 -->
<g id="edge1" class="edge">
<title>9c1c6066&#45;341b&#45;4f3a&#45;947b&#45;23a3d6eca733&#45;&gt;04bdbe1c&#45;65a4&#45;4c1f&#45;a04a&#45;16aa55edb539</title>
<path fill="none" stroke="black" stroke-dasharray="5,2" d="M147.5,-72.72C147.5,-64.27 147.5,-54.89 147.5,-46.36"/>
<polygon fill="black" stroke="black" points="151,-46.15 147.5,-36.15 144,-46.15 151,-46.15"/>
</g>
</g>
</svg>
