<?xml version="1.0" encoding="UTF-8" standalone="no"?>
<!DOCTYPE svg PUBLIC "-//W3C//DTD SVG 1.1//EN"
 "http://www.w3.org/Graphics/SVG/1.1/DTD/svg11.dtd">
<!-- Generated by graphviz version 8.0.3 (0)
 -->
<!-- Pages: 1 -->
<svg width="781pt" height="593pt"
 viewBox="0.00 0.00 781.00 593.22" xmlns="http://www.w3.org/2000/svg" xmlns:xlink="http://www.w3.org/1999/xlink">
<g id="graph0" class="graph" transform="scale(1 1) rotate(0) translate(36 557.22)">
<polygon fill="dimgray" stroke="none" points="-36,36 -36,-557.22 745,-557.22 745,36 -36,36"/>
<text text-anchor="middle" x="354.5" y="-506.02" font-family="Helvetica,sans-Serif" font-size="14.00">Sweep&#39;s Plan &amp; Progress</text>
<!-- start -->
<g id="node1" class="node">
<title>start</title>
</g>
<!-- b1ec115e&#45;af38&#45;4c50&#45;a719&#45;045a1dfd1ee6 -->
<g id="node3" class="node">
<title>b1ec115e&#45;af38&#45;4c50&#45;a719&#45;045a1dfd1ee6</title>
<ellipse fill="#0ee832" stroke="black" cx="494" cy="-455.35" rx="84.71" ry="26.74"/>
<text text-anchor="middle" x="494" y="-459.15" font-family="Helvetica,sans-Serif" font-size="14.00">✓ Modify</text>
<text text-anchor="middle" x="494" y="-444.15" font-family="Helvetica,sans-Serif" font-size="14.00">sweepai/api.py</text>
</g>
<!-- start&#45;&gt;b1ec115e&#45;af38&#45;4c50&#45;a719&#45;045a1dfd1ee6 -->
<g id="edge8" class="edge">
<title>start&#45;&gt;b1ec115e&#45;af38&#45;4c50&#45;a719&#45;045a1dfd1ee6</title>
<path fill="none" stroke="black" d="M357.39,-455.35C360.15,-455.35 377.04,-455.35 398.06,-455.35"/>
<polygon fill="black" stroke="black" points="398.03,-458.85 408.03,-455.35 398.03,-451.85 398.03,-458.85"/>
<text text-anchor="middle" x="383.32" y="-462.15" font-family="Helvetica,sans-Serif" font-size="14.00">Start</text>
</g>
<!-- end -->
<g id="node2" class="node">
<title>end</title>
</g>
<!-- b1ec115e&#45;af38&#45;4c50&#45;a719&#45;045a1dfd1ee6&#45;&gt;end -->
<g id="edge9" class="edge">
<title>b1ec115e&#45;af38&#45;4c50&#45;a719&#45;045a1dfd1ee6&#45;&gt;end</title>
<path fill="none" stroke="black" d="M578.84,-455.35C597.56,-455.35 615.01,-455.35 625.82,-455.35"/>
<polygon fill="black" stroke="black" points="625.69,-458.85 635.69,-455.35 625.69,-451.85 625.69,-458.85"/>
<text text-anchor="middle" x="607.68" y="-462.15" font-family="Helvetica,sans-Serif" font-size="14.00">Finish</text>
</g>
<!-- 1f38bc63&#45;98e9&#45;4093&#45;b586&#45;d172316bb2c5 -->
<g id="node4" class="node">
<title>1f38bc63&#45;98e9&#45;4093&#45;b586&#45;d172316bb2c5</title>
<polygon fill="#ee0000" stroke="black" points="419,-391.48 145,-391.48 145,-355.48 419,-355.48 419,-391.48"/>
<text text-anchor="middle" x="282" y="-369.78" font-family="Helvetica,sans-Serif" font-size="14.00">✗ Ran sandbox for `sweepai/api.py`.</text>
</g>
<!-- b1ec115e&#45;af38&#45;4c50&#45;a719&#45;045a1dfd1ee6&#45;&gt;1f38bc63&#45;98e9&#45;4093&#45;b586&#45;d172316bb2c5 -->
<g id="edge1" class="edge">
<title>b1ec115e&#45;af38&#45;4c50&#45;a719&#45;045a1dfd1ee6&#45;&gt;1f38bc63&#45;98e9&#45;4093&#45;b586&#45;d172316bb2c5</title>
<path fill="none" stroke="black" stroke-dasharray="5,2" d="M440.5,-434.2C409.29,-422.44 369.95,-407.62 338.27,-395.68"/>
<polygon fill="black" stroke="black" points="339.87,-392.17 329.28,-391.92 337.4,-398.72 339.87,-392.17"/>
</g>
<!-- 283498b7&#45;d733&#45;4aa7&#45;aac6&#45;505ca929363b -->
<g id="node5" class="node">
<title>283498b7&#45;d733&#45;4aa7&#45;aac6&#45;505ca929363b</title>
<polygon fill="white" stroke="black" points="709,-391.48 437,-391.48 437,-355.48 709,-355.48 709,-391.48"/>
<text text-anchor="middle" x="573" y="-369.78" font-family="Helvetica,sans-Serif" font-size="14.00">▶ Ran sandbox for `sweepai/api.py`.</text>
</g>
<!-- b1ec115e&#45;af38&#45;4c50&#45;a719&#45;045a1dfd1ee6&#45;&gt;283498b7&#45;d733&#45;4aa7&#45;aac6&#45;505ca929363b -->
<g id="edge7" class="edge">
<title>b1ec115e&#45;af38&#45;4c50&#45;a719&#45;045a1dfd1ee6&#45;&gt;283498b7&#45;d733&#45;4aa7&#45;aac6&#45;505ca929363b</title>
<path fill="none" stroke="black" stroke-dasharray="5,2" d="M518.56,-429.52C528.05,-419.93 538.88,-408.98 548.37,-399.38"/>
<polygon fill="black" stroke="black" points="550.42,-402.27 554.96,-392.7 545.44,-397.35 550.42,-402.27"/>
</g>
<!-- 482bd8e9&#45;aa1d&#45;4157&#45;925e&#45;38ee52c0120e -->
<g id="node6" class="node">
<title>482bd8e9&#45;aa1d&#45;4157&#45;925e&#45;38ee52c0120e</title>
<ellipse fill="#0ee832" stroke="black" cx="282" cy="-277.61" rx="84.71" ry="26.74"/>
<text text-anchor="middle" x="282" y="-281.41" font-family="Helvetica,sans-Serif" font-size="14.00">✓ Modify</text>
<text text-anchor="middle" x="282" y="-266.41" font-family="Helvetica,sans-Serif" font-size="14.00">sweepai/api.py</text>
</g>
<!-- 1f38bc63&#45;98e9&#45;4093&#45;b586&#45;d172316bb2c5&#45;&gt;482bd8e9&#45;aa1d&#45;4157&#45;925e&#45;38ee52c0120e -->
<g id="edge2" class="edge">
<title>1f38bc63&#45;98e9&#45;4093&#45;b586&#45;d172316bb2c5&#45;&gt;482bd8e9&#45;aa1d&#45;4157&#45;925e&#45;38ee52c0120e</title>
<path fill="none" stroke="black" d="M282,-355.26C282,-344.07 282,-329.05 282,-315.27"/>
<polygon fill="black" stroke="black" points="285.5,-315.58 282,-305.58 278.5,-315.58 285.5,-315.58"/>
<text text-anchor="middle" x="379.5" y="-326.28" font-family="Helvetica,sans-Serif" font-size="14.00">Additional changes required</text>
</g>
<!-- 347146dd&#45;ba8f&#45;42d3&#45;b23e&#45;25064922771d -->
<g id="node7" class="node">
<title>347146dd&#45;ba8f&#45;42d3&#45;b23e&#45;25064922771d</title>
<polygon fill="#ee0000" stroke="black" points="274,-213.74 0,-213.74 0,-177.74 274,-177.74 274,-213.74"/>
<text text-anchor="middle" x="137" y="-192.04" font-family="Helvetica,sans-Serif" font-size="14.00">✗ Ran sandbox for `sweepai/api.py`.</text>
</g>
<!-- 482bd8e9&#45;aa1d&#45;4157&#45;925e&#45;38ee52c0120e&#45;&gt;347146dd&#45;ba8f&#45;42d3&#45;b23e&#45;25064922771d -->
<g id="edge3" class="edge">
<title>482bd8e9&#45;aa1d&#45;4157&#45;925e&#45;38ee52c0120e&#45;&gt;347146dd&#45;ba8f&#45;42d3&#45;b23e&#45;25064922771d</title>
<path fill="none" stroke="black" stroke-dasharray="5,2" d="M240.84,-253.94C221.21,-243.13 197.79,-230.23 178.17,-219.42"/>
<polygon fill="black" stroke="black" points="180.03,-215.89 169.58,-214.14 176.65,-222.03 180.03,-215.89"/>
</g>
<!-- 95ccb4d7&#45;9414&#45;43fe&#45;8ade&#45;b48ec949c873 -->
<g id="node8" class="node">
<title>95ccb4d7&#45;9414&#45;43fe&#45;8ade&#45;b48ec949c873</title>
<polygon fill="white" stroke="black" points="564,-213.74 292,-213.74 292,-177.74 564,-177.74 564,-213.74"/>
<text text-anchor="middle" x="428" y="-192.04" font-family="Helvetica,sans-Serif" font-size="14.00">▶ Ran sandbox for `sweepai/api.py`.</text>
</g>
<!-- 482bd8e9&#45;aa1d&#45;4157&#45;925e&#45;38ee52c0120e&#45;&gt;95ccb4d7&#45;9414&#45;43fe&#45;8ade&#45;b48ec949c873 -->
<g id="edge6" class="edge">
<title>482bd8e9&#45;aa1d&#45;4157&#45;925e&#45;38ee52c0120e&#45;&gt;95ccb4d7&#45;9414&#45;43fe&#45;8ade&#45;b48ec949c873</title>
<path fill="none" stroke="black" stroke-dasharray="5,2" d="M323.45,-253.94C343.3,-243.08 367,-230.11 386.82,-219.27"/>
<polygon fill="black" stroke="black" points="388.11,-222.01 395.2,-214.14 384.75,-215.86 388.11,-222.01"/>
</g>
<!-- 6f19b1fe&#45;80c8&#45;4de9&#45;81dd&#45;bc9177cb06eb -->
<g id="node9" class="node">
<title>6f19b1fe&#45;80c8&#45;4de9&#45;81dd&#45;bc9177cb06eb</title>
<ellipse fill="yellow" stroke="black" cx="137" cy="-99.87" rx="84.71" ry="26.74"/>
<text text-anchor="middle" x="137" y="-103.67" font-family="Helvetica,sans-Serif" font-size="14.00">⋯ Modify</text>
<text text-anchor="middle" x="137" y="-88.67" font-family="Helvetica,sans-Serif" font-size="14.00">sweepai/api.py</text>
</g>
<!-- 347146dd&#45;ba8f&#45;42d3&#45;b23e&#45;25064922771d&#45;&gt;6f19b1fe&#45;80c8&#45;4de9&#45;81dd&#45;bc9177cb06eb -->
<g id="edge4" class="edge">
<title>347146dd&#45;ba8f&#45;42d3&#45;b23e&#45;25064922771d&#45;&gt;6f19b1fe&#45;80c8&#45;4de9&#45;81dd&#45;bc9177cb06eb</title>
<path fill="none" stroke="black" d="M137,-177.52C137,-166.33 137,-151.31 137,-137.53"/>
<polygon fill="black" stroke="black" points="140.5,-137.84 137,-127.84 133.5,-137.84 140.5,-137.84"/>
<text text-anchor="middle" x="234.5" y="-148.54" font-family="Helvetica,sans-Serif" font-size="14.00">Additional changes required</text>
</g>
<!-- 5741aa3e&#45;79c1&#45;42d0&#45;b1c7&#45;86555e20744a -->
<g id="node10" class="node">
<title>5741aa3e&#45;79c1&#45;42d0&#45;b1c7&#45;86555e20744a</title>
<polygon fill="white" stroke="black" points="273,-36 1,-36 1,0 273,0 273,-36"/>
<text text-anchor="middle" x="137" y="-14.3" font-family="Helvetica,sans-Serif" font-size="14.00">▶ Ran sandbox for `sweepai/api.py`.</text>
</g>
<!-- 6f19b1fe&#45;80c8&#45;4de9&#45;81dd&#45;bc9177cb06eb&#45;&gt;5741aa3e&#45;79c1&#45;42d0&#45;b1c7&#45;86555e20744a -->
<g id="edge5" class="edge">
<title>6f19b1fe&#45;80c8&#45;4de9&#45;81dd&#45;bc9177cb06eb&#45;&gt;5741aa3e&#45;79c1&#45;42d0&#45;b1c7&#45;86555e20744a</title>
<path fill="none" stroke="black" stroke-dasharray="5,2" d="M137,-72.72C137,-64.46 137,-55.31 137,-46.93"/>
<polygon fill="black" stroke="black" points="140.5,-47.15 137,-37.15 133.5,-47.15 140.5,-47.15"/>
</g>
</g>
</svg>
