<?xml version="1.0" encoding="UTF-8" standalone="no"?>
<!DOCTYPE svg PUBLIC "-//W3C//DTD SVG 1.1//EN"
 "http://www.w3.org/Graphics/SVG/1.1/DTD/svg11.dtd">
<!-- Generated by graphviz version 2.43.0 (0)
 -->
<!-- Title: %3 Pages: 1 -->
<svg width="1375pt" height="165pt"
 viewBox="0.00 0.00 1375.00 164.74" xmlns="http://www.w3.org/2000/svg" xmlns:xlink="http://www.w3.org/1999/xlink">
<g id="graph0" class="graph" transform="scale(1 1) rotate(0) translate(36 128.74)">
<title>%3</title>
<polygon fill="dimgray" stroke="transparent" points="-36,36 -36,-128.74 1339,-128.74 1339,36 -36,36"/>
<text text-anchor="middle" x="651.5" y="-77.54" font-family="Helvetica,sans-Serif" font-size="14.00">Sweep&#39;s Plan &amp; Progress</text>
<!-- start -->
<g id="node1" class="node">
<title>start</title>
</g>
<!-- 8a1c0e29&#45;8c6e&#45;4b51&#45;a976&#45;ed073543a961 -->
<g id="node3" class="node">
<title>8a1c0e29&#45;8c6e&#45;4b51&#45;a976&#45;ed073543a961</title>
<ellipse fill="#0ee832" stroke="black" cx="248.5" cy="-26.87" rx="195.74" ry="26.74"/>
<text text-anchor="middle" x="248.5" y="-30.67" font-family="Helvetica,sans-Serif" font-size="14.00">✓ Create</text>
<text text-anchor="middle" x="248.5" y="-15.67" font-family="Helvetica,sans-Serif" font-size="14.00">sweepai/agents/query_filter_agent.py</text>
</g>
<!-- start&#45;&gt;8a1c0e29&#45;8c6e&#45;4b51&#45;a976&#45;ed073543a961 -->
<g id="edge3" class="edge">
<title>start&#45;&gt;8a1c0e29&#45;8c6e&#45;4b51&#45;a976&#45;ed073543a961</title>
<path fill="none" stroke="black" d="M1.21,-26.87C4.66,-26.87 20.41,-26.87 42.41,-26.87"/>
<polygon fill="black" stroke="black" points="42.57,-30.37 52.57,-26.87 42.57,-23.37 42.57,-30.37"/>
<text text-anchor="middle" x="26.82" y="-33.67" font-family="Helvetica,sans-Serif" font-size="14.00">Start</text>
</g>
<!-- end -->
<g id="node2" class="node">
<title>end</title>
</g>
<!-- 6ef03fb4&#45;f7d5&#45;477d&#45;83ab&#45;d266059fac9f -->
<g id="node4" class="node">
<title>6ef03fb4&#45;f7d5&#45;477d&#45;83ab&#45;d266059fac9f</title>
<ellipse fill="yellow" stroke="black" cx="625.5" cy="-26.87" rx="145.83" ry="26.74"/>
<text text-anchor="middle" x="625.5" y="-30.67" font-family="Helvetica,sans-Serif" font-size="14.00">⋯ Modify</text>
<text text-anchor="middle" x="625.5" y="-15.67" font-family="Helvetica,sans-Serif" font-size="14.00">sweepai/utils/ticket_utils.py</text>
</g>
<!-- 8a1c0e29&#45;8c6e&#45;4b51&#45;a976&#45;ed073543a961&#45;&gt;6ef03fb4&#45;f7d5&#45;477d&#45;83ab&#45;d266059fac9f -->
<g id="edge1" class="edge">
<title>8a1c0e29&#45;8c6e&#45;4b51&#45;a976&#45;ed073543a961&#45;&gt;6ef03fb4&#45;f7d5&#45;477d&#45;83ab&#45;d266059fac9f</title>
<path fill="none" stroke="black" d="M444.73,-26.87C453.01,-26.87 461.3,-26.87 469.58,-26.87"/>
<polygon fill="black" stroke="black" points="469.68,-30.37 479.68,-26.87 469.68,-23.37 469.68,-30.37"/>
</g>
<!-- 8334b2ab&#45;c751&#45;4cb5&#45;ac4a&#45;7dc083dcec34 -->
<g id="node5" class="node">
<title>8334b2ab&#45;c751&#45;4cb5&#45;ac4a&#45;7dc083dcec34</title>
<ellipse fill="white" stroke="black" cx="1025.5" cy="-26.87" rx="219.41" ry="26.74"/>
<text text-anchor="middle" x="1025.5" y="-30.67" font-family="Helvetica,sans-Serif" font-size="14.00">▶ Create</text>
<text text-anchor="middle" x="1025.5" y="-15.67" font-family="Helvetica,sans-Serif" font-size="14.00">sweepai/agents/query_filter_agent_test.py</text>
</g>
<!-- 6ef03fb4&#45;f7d5&#45;477d&#45;83ab&#45;d266059fac9f&#45;&gt;8334b2ab&#45;c751&#45;4cb5&#45;ac4a&#45;7dc083dcec34 -->
<g id="edge2" class="edge">
<title>6ef03fb4&#45;f7d5&#45;477d&#45;83ab&#45;d266059fac9f&#45;&gt;8334b2ab&#45;c751&#45;4cb5&#45;ac4a&#45;7dc083dcec34</title>
<path fill="none" stroke="black" d="M771.2,-26.87C779.44,-26.87 787.68,-26.87 795.92,-26.87"/>
<polygon fill="black" stroke="black" points="795.97,-30.37 805.97,-26.87 795.97,-23.37 795.97,-30.37"/>
</g>
<!-- 8334b2ab&#45;c751&#45;4cb5&#45;ac4a&#45;7dc083dcec34&#45;&gt;end -->
<g id="edge4" class="edge">
<title>8334b2ab&#45;c751&#45;4cb5&#45;ac4a&#45;7dc083dcec34&#45;&gt;end</title>
<path fill="none" stroke="black" d="M1244.77,-26.87C1264.87,-26.87 1281.48,-26.87 1291.64,-26.87"/>
<polygon fill="black" stroke="black" points="1291.88,-30.37 1301.88,-26.87 1291.88,-23.37 1291.88,-30.37"/>
<text text-anchor="middle" x="1273.35" y="-33.67" font-family="Helvetica,sans-Serif" font-size="14.00">Finish</text>
</g>
</g>
</svg>
