<?xml version="1.0" encoding="UTF-8" standalone="no"?>
<!DOCTYPE svg PUBLIC "-//W3C//DTD SVG 1.1//EN"
 "http://www.w3.org/Graphics/SVG/1.1/DTD/svg11.dtd">
<!-- Generated by graphviz version 8.0.3 (0)
 -->
<!-- Pages: 1 -->
<svg width="503pt" height="238pt"
 viewBox="0.00 0.00 503.00 237.74" xmlns="http://www.w3.org/2000/svg" xmlns:xlink="http://www.w3.org/1999/xlink">
<g id="graph0" class="graph" transform="scale(1 1) rotate(0) translate(36 201.74)">
<polygon fill="dimgray" stroke="none" points="-36,36 -36,-201.74 467,-201.74 467,36 -36,36"/>
<text text-anchor="middle" x="215.5" y="-150.54" font-family="Helvetica,sans-Serif" font-size="14.00">Sweep&#39;s Plan &amp; Progress</text>
<!-- start -->
<g id="node1" class="node">
<title>start</title>
</g>
<!-- 2a344ab3&#45;48fb&#45;4764&#45;91be&#45;077123ce1d2d -->
<g id="node3" class="node">
<title>2a344ab3&#45;48fb&#45;4764&#45;91be&#45;077123ce1d2d</title>
<ellipse fill="#0ee832" stroke="black" cx="212.5" cy="-99.87" rx="159.61" ry="26.74"/>
<text text-anchor="middle" x="212.5" y="-103.67" font-family="Helvetica,sans-Serif" font-size="14.00">✓ Modify</text>
<text text-anchor="middle" x="212.5" y="-88.67" font-family="Helvetica,sans-Serif" font-size="14.00">sweepai/handlers/on_ticket.py</text>
</g>
<!-- start&#45;&gt;2a344ab3&#45;48fb&#45;4764&#45;91be&#45;077123ce1d2d -->
<g id="edge2" class="edge">
<title>start&#45;&gt;2a344ab3&#45;48fb&#45;4764&#45;91be&#45;077123ce1d2d</title>
<path fill="none" stroke="black" d="M0.65,-99.87C2.39,-99.87 18.75,-99.87 41.67,-99.87"/>
<polygon fill="black" stroke="black" points="41.63,-103.37 51.63,-99.87 41.63,-96.37 41.63,-103.37"/>
<text text-anchor="middle" x="26.85" y="-106.67" font-family="Helvetica,sans-Serif" font-size="14.00">Start</text>
</g>
<!-- end -->
<g id="node2" class="node">
<title>end</title>
</g>
<!-- 2a344ab3&#45;48fb&#45;4764&#45;91be&#45;077123ce1d2d&#45;&gt;end -->
<g id="edge3" class="edge">
<title>2a344ab3&#45;48fb&#45;4764&#45;91be&#45;077123ce1d2d&#45;&gt;end</title>
<path fill="none" stroke="black" d="M372.37,-99.87C392,-99.87 408.8,-99.87 419.22,-99.87"/>
<polygon fill="black" stroke="black" points="419.21,-103.37 429.21,-99.87 419.21,-96.37 419.21,-103.37"/>
<text text-anchor="middle" x="401.15" y="-106.67" font-family="Helvetica,sans-Serif" font-size="14.00">Finish</text>
</g>
<!-- 713ff784&#45;24be&#45;4cb5&#45;b676&#45;4c0ac5ebceb6 -->
<g id="node4" class="node">
<title>713ff784&#45;24be&#45;4cb5&#45;b676&#45;4c0ac5ebceb6</title>
<polygon fill="#0ee832" stroke="black" points="402.5,-36 22.5,-36 22.5,0 402.5,0 402.5,-36"/>
<text text-anchor="middle" x="212.5" y="-14.3" font-family="Helvetica,sans-Serif" font-size="14.00">✓ Ran sandbox for `sweepai/handlers/on_ticket.py`.</text>
</g>
<!-- 2a344ab3&#45;48fb&#45;4764&#45;91be&#45;077123ce1d2d&#45;&gt;713ff784&#45;24be&#45;4cb5&#45;b676&#45;4c0ac5ebceb6 -->
<g id="edge1" class="edge">
<title>2a344ab3&#45;48fb&#45;4764&#45;91be&#45;077123ce1d2d&#45;&gt;713ff784&#45;24be&#45;4cb5&#45;b676&#45;4c0ac5ebceb6</title>
<path fill="none" stroke="black" stroke-dasharray="5,2" d="M212.5,-72.72C212.5,-64.46 212.5,-55.31 212.5,-46.93"/>
<polygon fill="black" stroke="black" points="216,-47.15 212.5,-37.15 209,-47.15 216,-47.15"/>
</g>
</g>
</svg>
