<?xml version="1.0" encoding="UTF-8" standalone="no"?>
<!DOCTYPE svg PUBLIC "-//W3C//DTD SVG 1.1//EN"
 "http://www.w3.org/Graphics/SVG/1.1/DTD/svg11.dtd">
<!-- Generated by graphviz version 2.43.0 (0)
 -->
<!-- Title: %3 Pages: 1 -->
<svg width="4156pt" height="240pt"
 viewBox="0.00 0.00 4156.00 239.74" xmlns="http://www.w3.org/2000/svg" xmlns:xlink="http://www.w3.org/1999/xlink">
<g id="graph0" class="graph" transform="scale(1 1) rotate(0) translate(36 203.74)">
<title>%3</title>
<polygon fill="white" stroke="transparent" points="-36,36 -36,-203.74 4120,-203.74 4120,36 -36,36"/>
<text text-anchor="middle" x="2042" y="-152.54" font-family="Times,serif" font-size="14.00">Sweep&#39;s Plan &amp; Progress</text>
<!-- start -->
<g id="node1" class="node">
<title>start</title>
</g>
<!-- 44268e5e&#45;b7ba&#45;4f49&#45;8562&#45;ca0da50cd37d -->
<g id="node3" class="node">
<title>44268e5e&#45;b7ba&#45;4f49&#45;8562&#45;ca0da50cd37d</title>
<ellipse fill="red" stroke="black" cx="2041.5" cy="-101.87" rx="194.41" ry="26.74"/>
<text text-anchor="middle" x="2041.5" y="-105.67" font-family="Times,serif" font-size="14.00">✗ Modify</text>
<text text-anchor="middle" x="2041.5" y="-90.67" font-family="Times,serif" font-size="14.00">sweepai/utils/comment_utils_test.py</text>
</g>
<!-- start&#45;&gt;44268e5e&#45;b7ba&#45;4f49&#45;8562&#45;ca0da50cd37d -->
<g id="edge15" class="edge">
<title>start&#45;&gt;44268e5e&#45;b7ba&#45;4f49&#45;8562&#45;ca0da50cd37d</title>
<path fill="none" stroke="black" d="M1793.21,-101.87C1796.78,-101.87 1813.44,-101.87 1836.57,-101.87"/>
<polygon fill="black" stroke="black" points="1836.86,-105.37 1846.86,-101.87 1836.86,-98.37 1836.86,-105.37"/>
<text text-anchor="middle" x="1820.02" y="-108.67" font-family="Times,serif" font-size="14.00">Start</text>
</g>
<!-- end -->
<g id="node2" class="node">
<title>end</title>
</g>
<!-- 44268e5e&#45;b7ba&#45;4f49&#45;8562&#45;ca0da50cd37d&#45;&gt;end -->
<g id="edge16" class="edge">
<title>44268e5e&#45;b7ba&#45;4f49&#45;8562&#45;ca0da50cd37d&#45;&gt;end</title>
<path fill="none" stroke="black" d="M2235.96,-101.87C2258.14,-101.87 2276.73,-101.87 2287.73,-101.87"/>
<polygon fill="black" stroke="black" points="2287.81,-105.37 2297.81,-101.87 2287.81,-98.37 2287.81,-105.37"/>
<text text-anchor="middle" x="2266.98" y="-108.67" font-family="Times,serif" font-size="14.00">Finish</text>
</g>
<!-- 101e5dff&#45;c661&#45;40d9&#45;bb9b&#45;4fb7b0b5ea43 -->
<g id="node4" class="node">
<title>101e5dff&#45;c661&#45;40d9&#45;bb9b&#45;4fb7b0b5ea43</title>
<polygon fill="red" stroke="black" points="275,-38 0,-38 0,0 275,0 275,-38"/>
<text text-anchor="middle" x="137.5" y="-22.8" font-family="Times,serif" font-size="14.00">✗ Check</text>
<text text-anchor="middle" x="137.5" y="-7.8" font-family="Times,serif" font-size="14.00">sweepai/utils/comment_utils_test.py</text>
</g>
<!-- 44268e5e&#45;b7ba&#45;4f49&#45;8562&#45;ca0da50cd37d&#45;&gt;101e5dff&#45;c661&#45;40d9&#45;bb9b&#45;4fb7b0b5ea43 -->
<g id="edge1" class="edge">
<title>44268e5e&#45;b7ba&#45;4f49&#45;8562&#45;ca0da50cd37d&#45;&gt;101e5dff&#45;c661&#45;40d9&#45;bb9b&#45;4fb7b0b5ea43</title>
<path fill="none" stroke="black" stroke-dasharray="5,2" d="M1899.22,-83.47C1867.13,-80.12 1833.18,-77.03 1801.5,-75 1131.47,-32.06 958.19,-88.69 285.46,-38.11"/>
<polygon fill="black" stroke="black" points="285.25,-34.58 275.02,-37.32 284.72,-41.56 285.25,-34.58"/>
</g>
<!-- b5517287&#45;62a7&#45;42a3&#45;9220&#45;ff2054d58972 -->
<g id="node5" class="node">
<title>b5517287&#45;62a7&#45;42a3&#45;9220&#45;ff2054d58972</title>
<polygon fill="red" stroke="black" points="568,-38 293,-38 293,0 568,0 568,-38"/>
<text text-anchor="middle" x="430.5" y="-22.8" font-family="Times,serif" font-size="14.00">✗ Check</text>
<text text-anchor="middle" x="430.5" y="-7.8" font-family="Times,serif" font-size="14.00">sweepai/utils/comment_utils_test.py</text>
</g>
<!-- 44268e5e&#45;b7ba&#45;4f49&#45;8562&#45;ca0da50cd37d&#45;&gt;b5517287&#45;62a7&#45;42a3&#45;9220&#45;ff2054d58972 -->
<g id="edge2" class="edge">
<title>44268e5e&#45;b7ba&#45;4f49&#45;8562&#45;ca0da50cd37d&#45;&gt;b5517287&#45;62a7&#45;42a3&#45;9220&#45;ff2054d58972</title>
<path fill="none" stroke="black" stroke-dasharray="5,2" d="M1898.57,-83.63C1866.66,-80.3 1832.96,-77.17 1801.5,-75 1261.41,-37.79 1121.31,-79.08 578.07,-38.08"/>
<polygon fill="black" stroke="black" points="578.25,-34.58 568.02,-37.31 577.72,-41.56 578.25,-34.58"/>
</g>
<!-- a8092f3d&#45;2e9e&#45;4a9b&#45;9a72&#45;9449cf8d0a78 -->
<g id="node6" class="node">
<title>a8092f3d&#45;2e9e&#45;4a9b&#45;9a72&#45;9449cf8d0a78</title>
<polygon fill="red" stroke="black" points="861,-38 586,-38 586,0 861,0 861,-38"/>
<text text-anchor="middle" x="723.5" y="-22.8" font-family="Times,serif" font-size="14.00">✗ Check</text>
<text text-anchor="middle" x="723.5" y="-7.8" font-family="Times,serif" font-size="14.00">sweepai/utils/comment_utils_test.py</text>
</g>
<!-- 44268e5e&#45;b7ba&#45;4f49&#45;8562&#45;ca0da50cd37d&#45;&gt;a8092f3d&#45;2e9e&#45;4a9b&#45;9a72&#45;9449cf8d0a78 -->
<g id="edge3" class="edge">
<title>44268e5e&#45;b7ba&#45;4f49&#45;8562&#45;ca0da50cd37d&#45;&gt;a8092f3d&#45;2e9e&#45;4a9b&#45;9a72&#45;9449cf8d0a78</title>
<path fill="none" stroke="black" stroke-dasharray="5,2" d="M1897.6,-83.76C1865.98,-80.44 1832.64,-77.29 1801.5,-75 1391.4,-44.79 1284.4,-71.18 871.15,-38.1"/>
<polygon fill="black" stroke="black" points="871.27,-34.59 861.02,-37.28 870.71,-41.57 871.27,-34.59"/>
</g>
<!-- 62091956&#45;87a2&#45;4a14&#45;822d&#45;0a831c5a93fc -->
<g id="node7" class="node">
<title>62091956&#45;87a2&#45;4a14&#45;822d&#45;0a831c5a93fc</title>
<polygon fill="red" stroke="black" points="1154,-38 879,-38 879,0 1154,0 1154,-38"/>
<text text-anchor="middle" x="1016.5" y="-22.8" font-family="Times,serif" font-size="14.00">✗ Check</text>
<text text-anchor="middle" x="1016.5" y="-7.8" font-family="Times,serif" font-size="14.00">sweepai/utils/comment_utils_test.py</text>
</g>
<!-- 44268e5e&#45;b7ba&#45;4f49&#45;8562&#45;ca0da50cd37d&#45;&gt;62091956&#45;87a2&#45;4a14&#45;822d&#45;0a831c5a93fc -->
<g id="edge4" class="edge">
<title>44268e5e&#45;b7ba&#45;4f49&#45;8562&#45;ca0da50cd37d&#45;&gt;62091956&#45;87a2&#45;4a14&#45;822d&#45;0a831c5a93fc</title>
<path fill="none" stroke="black" stroke-dasharray="5,2" d="M1895.97,-84.01C1864.83,-80.73 1832.09,-77.53 1801.5,-75 1521.32,-51.8 1447.54,-63.36 1164.2,-38.12"/>
<polygon fill="black" stroke="black" points="1164.3,-34.62 1154.03,-37.21 1163.67,-41.59 1164.3,-34.62"/>
</g>
<!-- 3b187acc&#45;eeae&#45;4eef&#45;bb27&#45;d85d776b2f7b -->
<g id="node8" class="node">
<title>3b187acc&#45;eeae&#45;4eef&#45;bb27&#45;d85d776b2f7b</title>
<polygon fill="red" stroke="black" points="1447,-38 1172,-38 1172,0 1447,0 1447,-38"/>
<text text-anchor="middle" x="1309.5" y="-22.8" font-family="Times,serif" font-size="14.00">✗ Check</text>
<text text-anchor="middle" x="1309.5" y="-7.8" font-family="Times,serif" font-size="14.00">sweepai/utils/comment_utils_test.py</text>
</g>
<!-- 44268e5e&#45;b7ba&#45;4f49&#45;8562&#45;ca0da50cd37d&#45;&gt;3b187acc&#45;eeae&#45;4eef&#45;bb27&#45;d85d776b2f7b -->
<g id="edge5" class="edge">
<title>44268e5e&#45;b7ba&#45;4f49&#45;8562&#45;ca0da50cd37d&#45;&gt;3b187acc&#45;eeae&#45;4eef&#45;bb27&#45;d85d776b2f7b</title>
<path fill="none" stroke="black" stroke-dasharray="5,2" d="M1891.71,-84.7C1861.83,-81.48 1830.67,-78.13 1801.5,-75 1651.03,-58.85 1610.85,-55.81 1457.32,-38.2"/>
<polygon fill="black" stroke="black" points="1457.38,-34.69 1447.05,-37.02 1456.58,-41.64 1457.38,-34.69"/>
</g>
<!-- dd7511dd&#45;febf&#45;4559&#45;8b59&#45;1b204579691a -->
<g id="node9" class="node">
<title>dd7511dd&#45;febf&#45;4559&#45;8b59&#45;1b204579691a</title>
<polygon fill="red" stroke="black" points="1740,-38 1465,-38 1465,0 1740,0 1740,-38"/>
<text text-anchor="middle" x="1602.5" y="-22.8" font-family="Times,serif" font-size="14.00">✗ Check</text>
<text text-anchor="middle" x="1602.5" y="-7.8" font-family="Times,serif" font-size="14.00">sweepai/utils/comment_utils_test.py</text>
</g>
<!-- 44268e5e&#45;b7ba&#45;4f49&#45;8562&#45;ca0da50cd37d&#45;&gt;dd7511dd&#45;febf&#45;4559&#45;8b59&#45;1b204579691a -->
<g id="edge6" class="edge">
<title>44268e5e&#45;b7ba&#45;4f49&#45;8562&#45;ca0da50cd37d&#45;&gt;dd7511dd&#45;febf&#45;4559&#45;8b59&#45;1b204579691a</title>
<path fill="none" stroke="black" stroke-dasharray="5,2" d="M1928.16,-79.99C1861.1,-67.64 1776.64,-52.08 1710.53,-39.9"/>
<polygon fill="black" stroke="black" points="1710.97,-36.42 1700.5,-38.05 1709.7,-43.31 1710.97,-36.42"/>
</g>
<!-- 842fee69&#45;0e81&#45;4eaa&#45;af03&#45;a30ddb57702f -->
<g id="node10" class="node">
<title>842fee69&#45;0e81&#45;4eaa&#45;af03&#45;a30ddb57702f</title>
<polygon fill="red" stroke="black" points="2033,-38 1758,-38 1758,0 2033,0 2033,-38"/>
<text text-anchor="middle" x="1895.5" y="-22.8" font-family="Times,serif" font-size="14.00">✗ Check</text>
<text text-anchor="middle" x="1895.5" y="-7.8" font-family="Times,serif" font-size="14.00">sweepai/utils/comment_utils_test.py</text>
</g>
<!-- 44268e5e&#45;b7ba&#45;4f49&#45;8562&#45;ca0da50cd37d&#45;&gt;842fee69&#45;0e81&#45;4eaa&#45;af03&#45;a30ddb57702f -->
<g id="edge7" class="edge">
<title>44268e5e&#45;b7ba&#45;4f49&#45;8562&#45;ca0da50cd37d&#45;&gt;842fee69&#45;0e81&#45;4eaa&#45;af03&#45;a30ddb57702f</title>
<path fill="none" stroke="black" stroke-dasharray="5,2" d="M1996.11,-75.73C1977.26,-65.29 1955.53,-53.25 1937.1,-43.04"/>
<polygon fill="black" stroke="black" points="1938.79,-39.98 1928.35,-38.19 1935.4,-46.1 1938.79,-39.98"/>
</g>
<!-- 1894c55b&#45;a5fb&#45;4fd9&#45;bee3&#45;a6d763091273 -->
<g id="node11" class="node">
<title>1894c55b&#45;a5fb&#45;4fd9&#45;bee3&#45;a6d763091273</title>
<polygon fill="red" stroke="black" points="2326,-38 2051,-38 2051,0 2326,0 2326,-38"/>
<text text-anchor="middle" x="2188.5" y="-22.8" font-family="Times,serif" font-size="14.00">✗ Check</text>
<text text-anchor="middle" x="2188.5" y="-7.8" font-family="Times,serif" font-size="14.00">sweepai/utils/comment_utils_test.py</text>
</g>
<!-- 44268e5e&#45;b7ba&#45;4f49&#45;8562&#45;ca0da50cd37d&#45;&gt;1894c55b&#45;a5fb&#45;4fd9&#45;bee3&#45;a6d763091273 -->
<g id="edge8" class="edge">
<title>44268e5e&#45;b7ba&#45;4f49&#45;8562&#45;ca0da50cd37d&#45;&gt;1894c55b&#45;a5fb&#45;4fd9&#45;bee3&#45;a6d763091273</title>
<path fill="none" stroke="black" stroke-dasharray="5,2" d="M2087.21,-75.73C2106.18,-65.29 2128.06,-53.25 2146.61,-43.04"/>
<polygon fill="black" stroke="black" points="2148.35,-46.08 2155.43,-38.19 2144.98,-39.95 2148.35,-46.08"/>
</g>
<!-- 8e3612d0&#45;9e1a&#45;40d7&#45;9cfe&#45;f5b0809907d3 -->
<g id="node12" class="node">
<title>8e3612d0&#45;9e1a&#45;40d7&#45;9cfe&#45;f5b0809907d3</title>
<polygon fill="red" stroke="black" points="2619,-38 2344,-38 2344,0 2619,0 2619,-38"/>
<text text-anchor="middle" x="2481.5" y="-22.8" font-family="Times,serif" font-size="14.00">✗ Check</text>
<text text-anchor="middle" x="2481.5" y="-7.8" font-family="Times,serif" font-size="14.00">sweepai/utils/comment_utils_test.py</text>
</g>
<!-- 44268e5e&#45;b7ba&#45;4f49&#45;8562&#45;ca0da50cd37d&#45;&gt;8e3612d0&#45;9e1a&#45;40d7&#45;9cfe&#45;f5b0809907d3 -->
<g id="edge9" class="edge">
<title>44268e5e&#45;b7ba&#45;4f49&#45;8562&#45;ca0da50cd37d&#45;&gt;8e3612d0&#45;9e1a&#45;40d7&#45;9cfe&#45;f5b0809907d3</title>
<path fill="none" stroke="black" stroke-dasharray="5,2" d="M2155.1,-79.99C2222.31,-67.64 2306.97,-52.08 2373.22,-39.9"/>
<polygon fill="black" stroke="black" points="2374.07,-43.3 2383.28,-38.05 2372.81,-36.42 2374.07,-43.3"/>
</g>
<!-- 4c75c1c6&#45;6e36&#45;4b0c&#45;b7e1&#45;4e28285188fd -->
<g id="node13" class="node">
<title>4c75c1c6&#45;6e36&#45;4b0c&#45;b7e1&#45;4e28285188fd</title>
<polygon fill="red" stroke="black" points="2912,-38 2637,-38 2637,0 2912,0 2912,-38"/>
<text text-anchor="middle" x="2774.5" y="-22.8" font-family="Times,serif" font-size="14.00">✗ Check</text>
<text text-anchor="middle" x="2774.5" y="-7.8" font-family="Times,serif" font-size="14.00">sweepai/utils/comment_utils_test.py</text>
</g>
<!-- 44268e5e&#45;b7ba&#45;4f49&#45;8562&#45;ca0da50cd37d&#45;&gt;4c75c1c6&#45;6e36&#45;4b0c&#45;b7e1&#45;4e28285188fd -->
<g id="edge10" class="edge">
<title>44268e5e&#45;b7ba&#45;4f49&#45;8562&#45;ca0da50cd37d&#45;&gt;4c75c1c6&#45;6e36&#45;4b0c&#45;b7e1&#45;4e28285188fd</title>
<path fill="none" stroke="black" stroke-dasharray="5,2" d="M2192.61,-84.92C2332.51,-70.1 2531.59,-48.89 2626.81,-38.07"/>
<polygon fill="black" stroke="black" points="2627.25,-41.54 2636.79,-36.93 2626.46,-34.58 2627.25,-41.54"/>
</g>
<!-- 629c5040&#45;a64b&#45;42d6&#45;bce1&#45;ba1513e3a51d -->
<g id="node14" class="node">
<title>629c5040&#45;a64b&#45;42d6&#45;bce1&#45;ba1513e3a51d</title>
<polygon fill="red" stroke="black" points="3205,-38 2930,-38 2930,0 3205,0 3205,-38"/>
<text text-anchor="middle" x="3067.5" y="-22.8" font-family="Times,serif" font-size="14.00">✗ Check</text>
<text text-anchor="middle" x="3067.5" y="-7.8" font-family="Times,serif" font-size="14.00">sweepai/utils/comment_utils_test.py</text>
</g>
<!-- 44268e5e&#45;b7ba&#45;4f49&#45;8562&#45;ca0da50cd37d&#45;&gt;629c5040&#45;a64b&#45;42d6&#45;bce1&#45;ba1513e3a51d -->
<g id="edge11" class="edge">
<title>44268e5e&#45;b7ba&#45;4f49&#45;8562&#45;ca0da50cd37d&#45;&gt;629c5040&#45;a64b&#45;42d6&#45;bce1&#45;ba1513e3a51d</title>
<path fill="none" stroke="black" stroke-dasharray="5,2" d="M2188.99,-84.3C2221.72,-80.94 2256.27,-77.63 2288.5,-75 2565.65,-52.39 2638.57,-63.08 2919.72,-38.03"/>
<polygon fill="black" stroke="black" points="2920.17,-41.51 2929.81,-37.13 2919.54,-34.54 2920.17,-41.51"/>
</g>
<!-- 971276f9&#45;ecdc&#45;42be&#45;98fa&#45;f718612bbf5a -->
<g id="node15" class="node">
<title>971276f9&#45;ecdc&#45;42be&#45;98fa&#45;f718612bbf5a</title>
<polygon fill="red" stroke="black" points="3498,-38 3223,-38 3223,0 3498,0 3498,-38"/>
<text text-anchor="middle" x="3360.5" y="-22.8" font-family="Times,serif" font-size="14.00">✗ Check</text>
<text text-anchor="middle" x="3360.5" y="-7.8" font-family="Times,serif" font-size="14.00">sweepai/utils/comment_utils_test.py</text>
</g>
<!-- 44268e5e&#45;b7ba&#45;4f49&#45;8562&#45;ca0da50cd37d&#45;&gt;971276f9&#45;ecdc&#45;42be&#45;98fa&#45;f718612bbf5a -->
<g id="edge12" class="edge">
<title>44268e5e&#45;b7ba&#45;4f49&#45;8562&#45;ca0da50cd37d&#45;&gt;971276f9&#45;ecdc&#45;42be&#45;98fa&#45;f718612bbf5a</title>
<path fill="none" stroke="black" stroke-dasharray="5,2" d="M2187.32,-84.02C2220.54,-80.62 2255.71,-77.37 2288.5,-75 2695.56,-45.57 2801.7,-70.84 3212.74,-38.02"/>
<polygon fill="black" stroke="black" points="3213.13,-41.5 3222.82,-37.21 3212.57,-34.52 3213.13,-41.5"/>
</g>
<!-- 00e2c49a&#45;6177&#45;4a9b&#45;8992&#45;3cd2c771fb79 -->
<g id="node16" class="node">
<title>00e2c49a&#45;6177&#45;4a9b&#45;8992&#45;3cd2c771fb79</title>
<polygon fill="red" stroke="black" points="3791,-38 3516,-38 3516,0 3791,0 3791,-38"/>
<text text-anchor="middle" x="3653.5" y="-22.8" font-family="Times,serif" font-size="14.00">✗ Check</text>
<text text-anchor="middle" x="3653.5" y="-7.8" font-family="Times,serif" font-size="14.00">sweepai/utils/comment_utils_test.py</text>
</g>
<!-- 44268e5e&#45;b7ba&#45;4f49&#45;8562&#45;ca0da50cd37d&#45;&gt;00e2c49a&#45;6177&#45;4a9b&#45;8992&#45;3cd2c771fb79 -->
<g id="edge13" class="edge">
<title>44268e5e&#45;b7ba&#45;4f49&#45;8562&#45;ca0da50cd37d&#45;&gt;00e2c49a&#45;6177&#45;4a9b&#45;8992&#45;3cd2c771fb79</title>
<path fill="none" stroke="black" stroke-dasharray="5,2" d="M2186.32,-83.89C2219.83,-80.47 2255.38,-77.23 2288.5,-75 2825.56,-38.77 2964.79,-78.68 3505.81,-38"/>
<polygon fill="black" stroke="black" points="3506.12,-41.49 3515.82,-37.25 3505.59,-34.51 3506.12,-41.49"/>
</g>
<!-- a881ee93&#45;4d7e&#45;44fd&#45;b7a3&#45;a069cbe2d0a2 -->
<g id="node17" class="node">
<title>a881ee93&#45;4d7e&#45;44fd&#45;b7a3&#45;a069cbe2d0a2</title>
<polygon fill="yellow" stroke="black" points="4084,-38 3809,-38 3809,0 4084,0 4084,-38"/>
<text text-anchor="middle" x="3946.5" y="-22.8" font-family="Times,serif" font-size="14.00">⋯ Check</text>
<text text-anchor="middle" x="3946.5" y="-7.8" font-family="Times,serif" font-size="14.00">sweepai/utils/comment_utils_test.py</text>
</g>
<!-- 44268e5e&#45;b7ba&#45;4f49&#45;8562&#45;ca0da50cd37d&#45;&gt;a881ee93&#45;4d7e&#45;44fd&#45;b7a3&#45;a069cbe2d0a2 -->
<g id="edge14" class="edge">
<title>44268e5e&#45;b7ba&#45;4f49&#45;8562&#45;ca0da50cd37d&#45;&gt;a881ee93&#45;4d7e&#45;44fd&#45;b7a3&#45;a069cbe2d0a2</title>
<path fill="none" stroke="black" stroke-dasharray="5,2" d="M2185.33,-83.76C2219.12,-80.3 2255.04,-77.1 2288.5,-75 2955.51,-33.22 3127.9,-88.21 3798.42,-38.03"/>
<polygon fill="black" stroke="black" points="3799.11,-41.49 3808.82,-37.25 3798.59,-34.51 3799.11,-41.49"/>
</g>
</g>
</svg>
