<?xml version="1.0" encoding="UTF-8" standalone="no"?>
<!DOCTYPE svg PUBLIC "-//W3C//DTD SVG 1.1//EN"
 "http://www.w3.org/Graphics/SVG/1.1/DTD/svg11.dtd">
<!-- Generated by graphviz version 2.43.0 (0)
 -->
<!-- Title: %3 Pages: 1 -->
<svg width="960pt" height="238pt"
 viewBox="0.00 0.00 960.00 237.74" xmlns="http://www.w3.org/2000/svg" xmlns:xlink="http://www.w3.org/1999/xlink">
<g id="graph0" class="graph" transform="scale(1 1) rotate(0) translate(36 201.74)">
<title>%3</title>
<polygon fill="dimgray" stroke="transparent" points="-36,36 -36,-201.74 924,-201.74 924,36 -36,36"/>
<text text-anchor="middle" x="444" y="-150.54" font-family="Helvetica,sans-Serif" font-size="14.00">Sweep&#39;s Plan &amp; Progress</text>
<!-- start -->
<g id="node1" class="node">
<title>start</title>
</g>
<!-- 001e21f0&#45;e3be&#45;4bde&#45;8d6d&#45;24fc57732562 -->
<g id="node3" class="node">
<title>001e21f0&#45;e3be&#45;4bde&#45;8d6d&#45;24fc57732562</title>
<ellipse fill="#0ee832" stroke="black" cx="274" cy="-99.87" rx="195.74" ry="26.74"/>
<text text-anchor="middle" x="274" y="-103.67" font-family="Helvetica,sans-Serif" font-size="14.00">✓ Create</text>
<text text-anchor="middle" x="274" y="-88.67" font-family="Helvetica,sans-Serif" font-size="14.00">sweepai/agents/query_filter_agent.py</text>
</g>
<!-- start&#45;&gt;001e21f0&#45;e3be&#45;4bde&#45;8d6d&#45;24fc57732562 -->
<g id="edge4" class="edge">
<title>start&#45;&gt;001e21f0&#45;e3be&#45;4bde&#45;8d6d&#45;24fc57732562</title>
<path fill="none" stroke="black" d="M26.71,-99.87C30.16,-99.87 45.91,-99.87 67.91,-99.87"/>
<polygon fill="black" stroke="black" points="68.07,-103.37 78.07,-99.87 68.07,-96.37 68.07,-103.37"/>
<text text-anchor="middle" x="52.32" y="-106.67" font-family="Helvetica,sans-Serif" font-size="14.00">Start</text>
</g>
<!-- end -->
<g id="node2" class="node">
<title>end</title>
</g>
<!-- b394e9b4&#45;0133&#45;4b1c&#45;b1c0&#45;13361462d809 -->
<g id="node4" class="node">
<title>b394e9b4&#45;0133&#45;4b1c&#45;b1c0&#45;13361462d809</title>
<ellipse fill="white" stroke="black" cx="670" cy="-99.87" rx="145.83" ry="26.74"/>
<text text-anchor="middle" x="670" y="-103.67" font-family="Helvetica,sans-Serif" font-size="14.00">▶ Modify</text>
<text text-anchor="middle" x="670" y="-88.67" font-family="Helvetica,sans-Serif" font-size="14.00">sweepai/utils/ticket_utils.py</text>
</g>
<!-- 001e21f0&#45;e3be&#45;4bde&#45;8d6d&#45;24fc57732562&#45;&gt;b394e9b4&#45;0133&#45;4b1c&#45;b1c0&#45;13361462d809 -->
<g id="edge2" class="edge">
<title>001e21f0&#45;e3be&#45;4bde&#45;8d6d&#45;24fc57732562&#45;&gt;b394e9b4&#45;0133&#45;4b1c&#45;b1c0&#45;13361462d809</title>
<path fill="none" stroke="black" d="M470.07,-99.87C484.66,-99.87 499.26,-99.87 513.85,-99.87"/>
<polygon fill="black" stroke="black" points="513.95,-103.37 523.95,-99.87 513.95,-96.37 513.95,-103.37"/>
</g>
<!-- 3749ba6f&#45;a061&#45;4505&#45;b45e&#45;a1a4e6a4d7c4 -->
<g id="node5" class="node">
<title>3749ba6f&#45;a061&#45;4505&#45;b45e&#45;a1a4e6a4d7c4</title>
<polygon fill="yellow" stroke="black" points="472,-36 0,-36 0,0 472,0 472,-36"/>
<text text-anchor="middle" x="236" y="-14.3" font-family="Helvetica,sans-Serif" font-size="14.00">⋯ Run GitHub Actions for `sweepai/agents/query_filter_agent.py`</text>
</g>
<!-- 001e21f0&#45;e3be&#45;4bde&#45;8d6d&#45;24fc57732562&#45;&gt;3749ba6f&#45;a061&#45;4505&#45;b45e&#45;a1a4e6a4d7c4 -->
<g id="edge1" class="edge">
<title>001e21f0&#45;e3be&#45;4bde&#45;8d6d&#45;24fc57732562&#45;&gt;3749ba6f&#45;a061&#45;4505&#45;b45e&#45;a1a4e6a4d7c4</title>
<path fill="none" stroke="black" stroke-dasharray="5,2" d="M261.56,-72.72C257.36,-63.9 252.68,-54.05 248.48,-45.23"/>
<polygon fill="black" stroke="black" points="251.61,-43.67 244.16,-36.15 245.29,-46.68 251.61,-43.67"/>
</g>
<!-- b394e9b4&#45;0133&#45;4b1c&#45;b1c0&#45;13361462d809&#45;&gt;end -->
<g id="edge5" class="edge">
<title>b394e9b4&#45;0133&#45;4b1c&#45;b1c0&#45;13361462d809&#45;&gt;end</title>
<path fill="none" stroke="black" d="M815.81,-99.87C835.57,-99.87 852.62,-99.87 863.07,-99.87"/>
<polygon fill="black" stroke="black" points="863.35,-103.37 873.35,-99.87 863.35,-96.37 863.35,-103.37"/>
<text text-anchor="middle" x="844.58" y="-106.67" font-family="Helvetica,sans-Serif" font-size="14.00">Finish</text>
</g>
<!-- b413ab0a&#45;dec9&#45;4300&#45;9912&#45;38ad46c61aaa -->
<g id="node6" class="node">
<title>b413ab0a&#45;dec9&#45;4300&#45;9912&#45;38ad46c61aaa</title>
<polygon fill="white" stroke="black" points="888,-36 490,-36 490,0 888,0 888,-36"/>
<text text-anchor="middle" x="689" y="-14.3" font-family="Helvetica,sans-Serif" font-size="14.00">▶ Run GitHub Actions for `sweepai/utils/ticket_utils.py`</text>
</g>
<!-- b394e9b4&#45;0133&#45;4b1c&#45;b1c0&#45;13361462d809&#45;&gt;b413ab0a&#45;dec9&#45;4300&#45;9912&#45;38ad46c61aaa -->
<g id="edge3" class="edge">
<title>b394e9b4&#45;0133&#45;4b1c&#45;b1c0&#45;13361462d809&#45;&gt;b413ab0a&#45;dec9&#45;4300&#45;9912&#45;38ad46c61aaa</title>
<path fill="none" stroke="black" stroke-dasharray="5,2" d="M676.22,-72.72C678.25,-64.18 680.51,-54.68 682.56,-46.08"/>
<polygon fill="black" stroke="black" points="686.01,-46.68 684.92,-36.15 679.2,-45.06 686.01,-46.68"/>
</g>
</g>
</svg>
