<?xml version="1.0" encoding="UTF-8" standalone="no"?>
<!DOCTYPE svg PUBLIC "-//W3C//DTD SVG 1.1//EN"
 "http://www.w3.org/Graphics/SVG/1.1/DTD/svg11.dtd">
<!-- Generated by graphviz version 8.0.3 (0)
 -->
<!-- Pages: 1 -->
<svg width="2385pt" height="593pt"
 viewBox="0.00 0.00 2385.00 593.22" xmlns="http://www.w3.org/2000/svg" xmlns:xlink="http://www.w3.org/1999/xlink">
<g id="graph0" class="graph" transform="scale(1 1) rotate(0) translate(36 557.22)">
<polygon fill="dimgray" stroke="none" points="-36,36 -36,-557.22 2349,-557.22 2349,36 -36,36"/>
<text text-anchor="middle" x="1156.5" y="-506.02" font-family="Helvetica,sans-Serif" font-size="14.00">Sweep&#39;s Plan &amp; Progress</text>
<!-- start -->
<g id="node1" class="node">
<title>start</title>
</g>
<!-- 777016a4&#45;869c&#45;4802&#45;acb9&#45;e0bec53c7cda -->
<g id="node3" class="node">
<title>777016a4&#45;869c&#45;4802&#45;acb9&#45;e0bec53c7cda</title>
<ellipse fill="#ee0000" stroke="black" cx="973.5" cy="-455.35" rx="159.61" ry="26.74"/>
<text text-anchor="middle" x="973.5" y="-459.15" font-family="Helvetica,sans-Serif" font-size="14.00">✗ Modify</text>
<text text-anchor="middle" x="973.5" y="-444.15" font-family="Helvetica,sans-Serif" font-size="14.00">sweepai/handlers/on_ticket.py</text>
</g>
<!-- start&#45;&gt;777016a4&#45;869c&#45;4802&#45;acb9&#45;e0bec53c7cda -->
<g id="edge22" class="edge">
<title>start&#45;&gt;777016a4&#45;869c&#45;4802&#45;acb9&#45;e0bec53c7cda</title>
<path fill="none" stroke="black" d="M761.65,-455.35C763.39,-455.35 779.75,-455.35 802.67,-455.35"/>
<polygon fill="black" stroke="black" points="802.63,-458.85 812.63,-455.35 802.63,-451.85 802.63,-458.85"/>
<text text-anchor="middle" x="787.85" y="-462.15" font-family="Helvetica,sans-Serif" font-size="14.00">Start</text>
</g>
<!-- end -->
<g id="node2" class="node">
<title>end</title>
</g>
<!-- 6da2bd48&#45;856b&#45;4801&#45;a784&#45;91176a04f6ad -->
<g id="node4" class="node">
<title>6da2bd48&#45;856b&#45;4801&#45;a784&#45;91176a04f6ad</title>
<ellipse fill="#0ee832" stroke="black" cx="1350.5" cy="-455.35" rx="159.61" ry="26.74"/>
<text text-anchor="middle" x="1350.5" y="-459.15" font-family="Helvetica,sans-Serif" font-size="14.00">✓ Modify</text>
<text text-anchor="middle" x="1350.5" y="-444.15" font-family="Helvetica,sans-Serif" font-size="14.00">sweepai/handlers/on_ticket.py</text>
</g>
<!-- 777016a4&#45;869c&#45;4802&#45;acb9&#45;e0bec53c7cda&#45;&gt;6da2bd48&#45;856b&#45;4801&#45;a784&#45;91176a04f6ad -->
<g id="edge2" class="edge">
<title>777016a4&#45;869c&#45;4802&#45;acb9&#45;e0bec53c7cda&#45;&gt;6da2bd48&#45;856b&#45;4801&#45;a784&#45;91176a04f6ad</title>
<path fill="none" stroke="black" d="M1133.28,-455.35C1148.79,-455.35 1164.31,-455.35 1179.82,-455.35"/>
<polygon fill="black" stroke="black" points="1179.56,-458.85 1189.56,-455.35 1179.56,-451.85 1179.56,-458.85"/>
</g>
<!-- da790d63&#45;8e88&#45;40b4&#45;8f69&#45;1ed52323fdfb -->
<g id="node5" class="node">
<title>da790d63&#45;8e88&#45;40b4&#45;8f69&#45;1ed52323fdfb</title>
<polygon fill="#ee0000" stroke="black" points="1142.5,-391.48 762.5,-391.48 762.5,-355.48 1142.5,-355.48 1142.5,-391.48"/>
<text text-anchor="middle" x="952.5" y="-369.78" font-family="Helvetica,sans-Serif" font-size="14.00">✗ Ran sandbox for `sweepai/handlers/on_ticket.py`.</text>
</g>
<!-- 777016a4&#45;869c&#45;4802&#45;acb9&#45;e0bec53c7cda&#45;&gt;da790d63&#45;8e88&#45;40b4&#45;8f69&#45;1ed52323fdfb -->
<g id="edge1" class="edge">
<title>777016a4&#45;869c&#45;4802&#45;acb9&#45;e0bec53c7cda&#45;&gt;da790d63&#45;8e88&#45;40b4&#45;8f69&#45;1ed52323fdfb</title>
<path fill="none" stroke="black" stroke-dasharray="5,2" d="M966.62,-428.2C964.43,-419.85 961.99,-410.58 959.77,-402.13"/>
<polygon fill="black" stroke="black" points="962.94,-401.41 957.01,-392.63 956.17,-403.19 962.94,-401.41"/>
</g>
<!-- 6da2bd48&#45;856b&#45;4801&#45;a784&#45;91176a04f6ad&#45;&gt;end -->
<g id="edge23" class="edge">
<title>6da2bd48&#45;856b&#45;4801&#45;a784&#45;91176a04f6ad&#45;&gt;end</title>
<path fill="none" stroke="black" d="M1510.37,-455.35C1530,-455.35 1546.8,-455.35 1557.22,-455.35"/>
<polygon fill="black" stroke="black" points="1557.21,-458.85 1567.21,-455.35 1557.21,-451.85 1557.21,-458.85"/>
<text text-anchor="middle" x="1539.15" y="-462.15" font-family="Helvetica,sans-Serif" font-size="14.00">Finish</text>
</g>
<!-- b28b1664&#45;a9f4&#45;4ff5&#45;9ceb&#45;6f6dbbefc4d7 -->
<g id="node6" class="node">
<title>b28b1664&#45;a9f4&#45;4ff5&#45;9ceb&#45;6f6dbbefc4d7</title>
<polygon fill="#ee0000" stroke="black" points="1540.5,-391.48 1160.5,-391.48 1160.5,-355.48 1540.5,-355.48 1540.5,-391.48"/>
<text text-anchor="middle" x="1350.5" y="-369.78" font-family="Helvetica,sans-Serif" font-size="14.00">✗ Ran sandbox for `sweepai/handlers/on_ticket.py`.</text>
</g>
<!-- 6da2bd48&#45;856b&#45;4801&#45;a784&#45;91176a04f6ad&#45;&gt;b28b1664&#45;a9f4&#45;4ff5&#45;9ceb&#45;6f6dbbefc4d7 -->
<g id="edge3" class="edge">
<title>6da2bd48&#45;856b&#45;4801&#45;a784&#45;91176a04f6ad&#45;&gt;b28b1664&#45;a9f4&#45;4ff5&#45;9ceb&#45;6f6dbbefc4d7</title>
<path fill="none" stroke="black" stroke-dasharray="5,2" d="M1350.5,-428.2C1350.5,-419.94 1350.5,-410.79 1350.5,-402.41"/>
<polygon fill="black" stroke="black" points="1354,-402.63 1350.5,-392.63 1347,-402.63 1354,-402.63"/>
</g>
<!-- c78a302f&#45;95cd&#45;4149&#45;9e26&#45;497c8ae78a6a -->
<g id="node7" class="node">
<title>c78a302f&#45;95cd&#45;4149&#45;9e26&#45;497c8ae78a6a</title>
<polygon fill="white" stroke="black" points="1936.5,-391.48 1558.5,-391.48 1558.5,-355.48 1936.5,-355.48 1936.5,-391.48"/>
<text text-anchor="middle" x="1747.5" y="-369.78" font-family="Helvetica,sans-Serif" font-size="14.00">▶ Ran sandbox for `sweepai/handlers/on_ticket.py`.</text>
</g>
<!-- 6da2bd48&#45;856b&#45;4801&#45;a784&#45;91176a04f6ad&#45;&gt;c78a302f&#45;95cd&#45;4149&#45;9e26&#45;497c8ae78a6a -->
<g id="edge21" class="edge">
<title>6da2bd48&#45;856b&#45;4801&#45;a784&#45;91176a04f6ad&#45;&gt;c78a302f&#45;95cd&#45;4149&#45;9e26&#45;497c8ae78a6a</title>
<path fill="none" stroke="black" stroke-dasharray="5,2" d="M1450.94,-434.14C1511.94,-421.87 1589.44,-406.28 1649.92,-394.11"/>
<polygon fill="black" stroke="black" points="1650.5,-397.36 1659.62,-391.96 1649.12,-390.5 1650.5,-397.36"/>
</g>
<!-- 1effb80a&#45;afe8&#45;479a&#45;a3e4&#45;fc346d420308 -->
<g id="node8" class="node">
<title>1effb80a&#45;afe8&#45;479a&#45;a3e4&#45;fc346d420308</title>
<ellipse fill="#0ee832" stroke="black" cx="457.5" cy="-277.61" rx="98.08" ry="26.74"/>
<text text-anchor="middle" x="457.5" y="-281.41" font-family="Helvetica,sans-Serif" font-size="14.00">✓ Create</text>
<text text-anchor="middle" x="457.5" y="-266.41" font-family="Helvetica,sans-Serif" font-size="14.00">.trunk/trunk.yaml</text>
</g>
<!-- b28b1664&#45;a9f4&#45;4ff5&#45;9ceb&#45;6f6dbbefc4d7&#45;&gt;1effb80a&#45;afe8&#45;479a&#45;a3e4&#45;fc346d420308 -->
<g id="edge4" class="edge">
<title>b28b1664&#45;a9f4&#45;4ff5&#45;9ceb&#45;6f6dbbefc4d7&#45;&gt;1effb80a&#45;afe8&#45;479a&#45;a3e4&#45;fc346d420308</title>
<path fill="none" stroke="black" d="M1160.13,-356.03C1157.23,-355.84 1154.36,-355.66 1151.5,-355.48 945.52,-342.69 891.72,-367.23 687.5,-337.48 634.26,-329.72 575.51,-314.57 530.72,-301.58"/>
<polygon fill="black" stroke="black" points="531.81,-297.96 521.22,-298.5 529.84,-304.68 531.81,-297.96"/>
<text text-anchor="middle" x="785" y="-326.28" font-family="Helvetica,sans-Serif" font-size="14.00">Additional changes required</text>
</g>
<!-- 4d098d4a&#45;623c&#45;44de&#45;99e8&#45;8bb04522bb86 -->
<g id="node9" class="node">
<title>4d098d4a&#45;623c&#45;44de&#45;99e8&#45;8bb04522bb86</title>
<ellipse fill="#ee0000" stroke="black" cx="790.5" cy="-277.61" rx="82.05" ry="26.74"/>
<text text-anchor="middle" x="790.5" y="-281.41" font-family="Helvetica,sans-Serif" font-size="14.00">✗ Create</text>
<text text-anchor="middle" x="790.5" y="-266.41" font-family="Helvetica,sans-Serif" font-size="14.00">.hadolint.yaml</text>
</g>
<!-- b28b1664&#45;a9f4&#45;4ff5&#45;9ceb&#45;6f6dbbefc4d7&#45;&gt;4d098d4a&#45;623c&#45;44de&#45;99e8&#45;8bb04522bb86 -->
<g id="edge9" class="edge">
<title>b28b1664&#45;a9f4&#45;4ff5&#45;9ceb&#45;6f6dbbefc4d7&#45;&gt;4d098d4a&#45;623c&#45;44de&#45;99e8&#45;8bb04522bb86</title>
<path fill="none" stroke="black" d="M1160.12,-356.2C1157.22,-355.96 1154.35,-355.72 1151.5,-355.48 1052.85,-347.27 1025.64,-361.08 929.5,-337.48 899.84,-330.2 868.38,-317.35 842.91,-305.51"/>
<polygon fill="black" stroke="black" points="844.63,-301.98 834.1,-300.86 841.64,-308.3 844.63,-301.98"/>
<text text-anchor="middle" x="1027" y="-326.28" font-family="Helvetica,sans-Serif" font-size="14.00">Additional changes required</text>
</g>
<!-- fef081aa&#45;7234&#45;4238&#45;b14a&#45;80945924107c -->
<g id="node10" class="node">
<title>fef081aa&#45;7234&#45;4238&#45;b14a&#45;80945924107c</title>
<ellipse fill="#ee0000" stroke="black" cx="1082.5" cy="-277.61" rx="109.7" ry="26.74"/>
<text text-anchor="middle" x="1082.5" y="-281.41" font-family="Helvetica,sans-Serif" font-size="14.00">✗ Create</text>
<text text-anchor="middle" x="1082.5" y="-266.41" font-family="Helvetica,sans-Serif" font-size="14.00">.markdownlint.yaml</text>
</g>
<!-- b28b1664&#45;a9f4&#45;4ff5&#45;9ceb&#45;6f6dbbefc4d7&#45;&gt;fef081aa&#45;7234&#45;4238&#45;b14a&#45;80945924107c -->
<g id="edge11" class="edge">
<title>b28b1664&#45;a9f4&#45;4ff5&#45;9ceb&#45;6f6dbbefc4d7&#45;&gt;fef081aa&#45;7234&#45;4238&#45;b14a&#45;80945924107c</title>
<path fill="none" stroke="black" d="M1200.29,-354.99C1183.42,-350.43 1166.81,-344.69 1151.5,-337.48 1137.88,-331.06 1124.8,-321.23 1113.77,-311.42"/>
<polygon fill="black" stroke="black" points="1116.47,-309.22 1106.76,-304.98 1111.71,-314.35 1116.47,-309.22"/>
<text text-anchor="middle" x="1249" y="-326.28" font-family="Helvetica,sans-Serif" font-size="14.00">Additional changes required</text>
</g>
<!-- 7c382e05&#45;c357&#45;4c52&#45;aa38&#45;74fa0c0fba75 -->
<g id="node11" class="node">
<title>7c382e05&#45;c357&#45;4c52&#45;aa38&#45;74fa0c0fba75</title>
<ellipse fill="#ee0000" stroke="black" cx="1350.5" cy="-277.61" rx="55.31" ry="26.74"/>
<text text-anchor="middle" x="1350.5" y="-281.41" font-family="Helvetica,sans-Serif" font-size="14.00">✗ Create</text>
<text text-anchor="middle" x="1350.5" y="-266.41" font-family="Helvetica,sans-Serif" font-size="14.00">ruff.toml</text>
</g>
<!-- b28b1664&#45;a9f4&#45;4ff5&#45;9ceb&#45;6f6dbbefc4d7&#45;&gt;7c382e05&#45;c357&#45;4c52&#45;aa38&#45;74fa0c0fba75 -->
<g id="edge13" class="edge">
<title>b28b1664&#45;a9f4&#45;4ff5&#45;9ceb&#45;6f6dbbefc4d7&#45;&gt;7c382e05&#45;c357&#45;4c52&#45;aa38&#45;74fa0c0fba75</title>
<path fill="none" stroke="black" d="M1350.5,-355.26C1350.5,-344.07 1350.5,-329.05 1350.5,-315.27"/>
<polygon fill="black" stroke="black" points="1354,-315.58 1350.5,-305.58 1347,-315.58 1354,-315.58"/>
<text text-anchor="middle" x="1448" y="-326.28" font-family="Helvetica,sans-Serif" font-size="14.00">Additional changes required</text>
</g>
<!-- 3af7b6cf&#45;e1ce&#45;4f82&#45;b83a&#45;aa998c800316 -->
<g id="node12" class="node">
<title>3af7b6cf&#45;e1ce&#45;4f82&#45;b83a&#45;aa998c800316</title>
<ellipse fill="#ee0000" stroke="black" cx="1591.5" cy="-277.61" rx="75.82" ry="26.74"/>
<text text-anchor="middle" x="1591.5" y="-281.41" font-family="Helvetica,sans-Serif" font-size="14.00">✗ Create</text>
<text text-anchor="middle" x="1591.5" y="-266.41" font-family="Helvetica,sans-Serif" font-size="14.00">.shellcheckrc</text>
</g>
<!-- b28b1664&#45;a9f4&#45;4ff5&#45;9ceb&#45;6f6dbbefc4d7&#45;&gt;3af7b6cf&#45;e1ce&#45;4f82&#45;b83a&#45;aa998c800316 -->
<g id="edge15" class="edge">
<title>b28b1664&#45;a9f4&#45;4ff5&#45;9ceb&#45;6f6dbbefc4d7&#45;&gt;3af7b6cf&#45;e1ce&#45;4f82&#45;b83a&#45;aa998c800316</title>
<path fill="none" stroke="black" d="M1492.58,-355.06C1517.26,-350.25 1538.52,-344.4 1549.5,-337.48 1558.98,-331.5 1566.95,-322.54 1573.32,-313.4"/>
<polygon fill="black" stroke="black" points="1576.7,-315.61 1579.15,-305.3 1570.81,-311.83 1576.7,-315.61"/>
<text text-anchor="middle" x="1664" y="-326.28" font-family="Helvetica,sans-Serif" font-size="14.00">Additional changes required</text>
</g>
<!-- db874f51&#45;5f05&#45;4c7f&#45;99cc&#45;6586d420fb27 -->
<g id="node13" class="node">
<title>db874f51&#45;5f05&#45;4c7f&#45;99cc&#45;6586d420fb27</title>
<ellipse fill="#ee0000" stroke="black" cx="1852.5" cy="-277.61" rx="79.81" ry="26.74"/>
<text text-anchor="middle" x="1852.5" y="-281.41" font-family="Helvetica,sans-Serif" font-size="14.00">✗ Create</text>
<text text-anchor="middle" x="1852.5" y="-266.41" font-family="Helvetica,sans-Serif" font-size="14.00">svgo.config.js</text>
</g>
<!-- b28b1664&#45;a9f4&#45;4ff5&#45;9ceb&#45;6f6dbbefc4d7&#45;&gt;db874f51&#45;5f05&#45;4c7f&#45;99cc&#45;6586d420fb27 -->
<g id="edge17" class="edge">
<title>b28b1664&#45;a9f4&#45;4ff5&#45;9ceb&#45;6f6dbbefc4d7&#45;&gt;db874f51&#45;5f05&#45;4c7f&#45;99cc&#45;6586d420fb27</title>
<path fill="none" stroke="black" d="M1540.88,-356.21C1543.78,-355.96 1546.65,-355.72 1549.5,-355.48 1597.5,-351.43 1720.08,-353.5 1765.5,-337.48 1783.45,-331.15 1801.22,-320.2 1815.97,-309.45"/>
<polygon fill="black" stroke="black" points="1817.88,-311.64 1823.75,-302.82 1813.66,-306.06 1817.88,-311.64"/>
<text text-anchor="middle" x="1892" y="-326.28" font-family="Helvetica,sans-Serif" font-size="14.00">Additional changes required</text>
</g>
<!-- 0d9c7738&#45;362e&#45;40c1&#45;86ec&#45;098074656836 -->
<g id="node14" class="node">
<title>0d9c7738&#45;362e&#45;40c1&#45;86ec&#45;098074656836</title>
<ellipse fill="white" stroke="black" cx="2111.5" cy="-277.61" rx="81.13" ry="26.74"/>
<text text-anchor="middle" x="2111.5" y="-281.41" font-family="Helvetica,sans-Serif" font-size="14.00">▶ Create</text>
<text text-anchor="middle" x="2111.5" y="-266.41" font-family="Helvetica,sans-Serif" font-size="14.00">.yamllint.yaml</text>
</g>
<!-- b28b1664&#45;a9f4&#45;4ff5&#45;9ceb&#45;6f6dbbefc4d7&#45;&gt;0d9c7738&#45;362e&#45;40c1&#45;86ec&#45;098074656836 -->
<g id="edge19" class="edge">
<title>b28b1664&#45;a9f4&#45;4ff5&#45;9ceb&#45;6f6dbbefc4d7&#45;&gt;0d9c7738&#45;362e&#45;40c1&#45;86ec&#45;098074656836</title>
<path fill="none" stroke="black" d="M1540.87,-356.04C1543.77,-355.85 1546.65,-355.66 1549.5,-355.48 1648.05,-349.28 1897.86,-362.07 1993.5,-337.48 2018.59,-331.03 2044.56,-318.78 2065.72,-307.11"/>
<polygon fill="black" stroke="black" points="2067.11,-309.79 2074.09,-301.82 2063.66,-303.69 2067.11,-309.79"/>
<text text-anchor="middle" x="2132" y="-326.28" font-family="Helvetica,sans-Serif" font-size="14.00">Additional changes required</text>
</g>
<!-- a2f4d6dd&#45;8386&#45;4ba4&#45;9cc0&#45;9530fdce5359 -->
<g id="node15" class="node">
<title>a2f4d6dd&#45;8386&#45;4ba4&#45;9cc0&#45;9530fdce5359</title>
<polygon fill="#ee0000" stroke="black" points="293,-213.74 0,-213.74 0,-177.74 293,-177.74 293,-213.74"/>
<text text-anchor="middle" x="146.5" y="-192.04" font-family="Helvetica,sans-Serif" font-size="14.00">✗ Ran sandbox for `.trunk/trunk.yaml`.</text>
</g>
<!-- 1effb80a&#45;afe8&#45;479a&#45;a3e4&#45;fc346d420308&#45;&gt;a2f4d6dd&#45;8386&#45;4ba4&#45;9cc0&#45;9530fdce5359 -->
<g id="edge5" class="edge">
<title>1effb80a&#45;afe8&#45;479a&#45;a3e4&#45;fc346d420308&#45;&gt;a2f4d6dd&#45;8386&#45;4ba4&#45;9cc0&#45;9530fdce5359</title>
<path fill="none" stroke="black" stroke-dasharray="5,2" d="M387.32,-258.59C339.06,-246.19 274.94,-229.72 224.99,-216.9"/>
<polygon fill="black" stroke="black" points="226.11,-213.32 215.56,-214.22 224.37,-220.1 226.11,-213.32"/>
</g>
<!-- 61f8cd34&#45;ab8a&#45;4cdf&#45;bdbf&#45;08a904fc04dc -->
<g id="node16" class="node">
<title>61f8cd34&#45;ab8a&#45;4cdf&#45;bdbf&#45;08a904fc04dc</title>
<polygon fill="#ee0000" stroke="black" points="604,-213.74 311,-213.74 311,-177.74 604,-177.74 604,-213.74"/>
<text text-anchor="middle" x="457.5" y="-192.04" font-family="Helvetica,sans-Serif" font-size="14.00">✗ Ran sandbox for `.trunk/trunk.yaml`.</text>
</g>
<!-- 1effb80a&#45;afe8&#45;479a&#45;a3e4&#45;fc346d420308&#45;&gt;61f8cd34&#45;ab8a&#45;4cdf&#45;bdbf&#45;08a904fc04dc -->
<g id="edge8" class="edge">
<title>1effb80a&#45;afe8&#45;479a&#45;a3e4&#45;fc346d420308&#45;&gt;61f8cd34&#45;ab8a&#45;4cdf&#45;bdbf&#45;08a904fc04dc</title>
<path fill="none" stroke="black" stroke-dasharray="5,2" d="M457.5,-250.46C457.5,-242.2 457.5,-233.05 457.5,-224.67"/>
<polygon fill="black" stroke="black" points="461,-224.89 457.5,-214.89 454,-224.89 461,-224.89"/>
</g>
<!-- 7efcc62f&#45;ee4e&#45;41bb&#45;a0de&#45;69ae1cfe609b -->
<g id="node17" class="node">
<title>7efcc62f&#45;ee4e&#45;41bb&#45;a0de&#45;69ae1cfe609b</title>
<polygon fill="#ee0000" stroke="black" points="891,-213.74 622,-213.74 622,-177.74 891,-177.74 891,-213.74"/>
<text text-anchor="middle" x="756.5" y="-192.04" font-family="Helvetica,sans-Serif" font-size="14.00">✗ Ran sandbox for `.hadolint.yaml`.</text>
</g>
<!-- 4d098d4a&#45;623c&#45;44de&#45;99e8&#45;8bb04522bb86&#45;&gt;7efcc62f&#45;ee4e&#45;41bb&#45;a0de&#45;69ae1cfe609b -->
<g id="edge10" class="edge">
<title>4d098d4a&#45;623c&#45;44de&#45;99e8&#45;8bb04522bb86&#45;&gt;7efcc62f&#45;ee4e&#45;41bb&#45;a0de&#45;69ae1cfe609b</title>
<path fill="none" stroke="black" stroke-dasharray="5,2" d="M779.56,-250.9C775.91,-242.34 771.84,-232.78 768.15,-224.1"/>
<polygon fill="black" stroke="black" points="771.02,-222.91 763.88,-215.08 764.58,-225.65 771.02,-222.91"/>
</g>
<!-- 9d4b871f&#45;5a32&#45;403a&#45;8c31&#45;f4ddb2609e97 -->
<g id="node18" class="node">
<title>9d4b871f&#45;5a32&#45;403a&#45;8c31&#45;f4ddb2609e97</title>
<polygon fill="#ee0000" stroke="black" points="1217.5,-213.74 909.5,-213.74 909.5,-177.74 1217.5,-177.74 1217.5,-213.74"/>
<text text-anchor="middle" x="1063.5" y="-192.04" font-family="Helvetica,sans-Serif" font-size="14.00">✗ Ran sandbox for `.markdownlint.yaml`.</text>
</g>
<!-- fef081aa&#45;7234&#45;4238&#45;b14a&#45;80945924107c&#45;&gt;9d4b871f&#45;5a32&#45;403a&#45;8c31&#45;f4ddb2609e97 -->
<g id="edge12" class="edge">
<title>fef081aa&#45;7234&#45;4238&#45;b14a&#45;80945924107c&#45;&gt;9d4b871f&#45;5a32&#45;403a&#45;8c31&#45;f4ddb2609e97</title>
<path fill="none" stroke="black" stroke-dasharray="5,2" d="M1076.28,-250.46C1074.29,-242.11 1072.09,-232.84 1070.08,-224.39"/>
<polygon fill="black" stroke="black" points="1073.3,-223.81 1067.58,-214.89 1066.49,-225.43 1073.3,-223.81"/>
</g>
<!-- b76525f1&#45;284b&#45;4a1a&#45;81ba&#45;ba7df5b2c604 -->
<g id="node19" class="node">
<title>b76525f1&#45;284b&#45;4a1a&#45;81ba&#45;ba7df5b2c604</title>
<polygon fill="#ee0000" stroke="black" points="1465.5,-213.74 1235.5,-213.74 1235.5,-177.74 1465.5,-177.74 1465.5,-213.74"/>
<text text-anchor="middle" x="1350.5" y="-192.04" font-family="Helvetica,sans-Serif" font-size="14.00">✗ Ran sandbox for `ruff.toml`.</text>
</g>
<!-- 7c382e05&#45;c357&#45;4c52&#45;aa38&#45;74fa0c0fba75&#45;&gt;b76525f1&#45;284b&#45;4a1a&#45;81ba&#45;ba7df5b2c604 -->
<g id="edge14" class="edge">
<title>7c382e05&#45;c357&#45;4c52&#45;aa38&#45;74fa0c0fba75&#45;&gt;b76525f1&#45;284b&#45;4a1a&#45;81ba&#45;ba7df5b2c604</title>
<path fill="none" stroke="black" stroke-dasharray="5,2" d="M1350.5,-250.46C1350.5,-242.2 1350.5,-233.05 1350.5,-224.67"/>
<polygon fill="black" stroke="black" points="1354,-224.89 1350.5,-214.89 1347,-224.89 1354,-224.89"/>
</g>
<!-- 846243c6&#45;9f9c&#45;4280&#45;b68f&#45;d813c7f5482a -->
<g id="node20" class="node">
<title>846243c6&#45;9f9c&#45;4280&#45;b68f&#45;d813c7f5482a</title>
<polygon fill="#ee0000" stroke="black" points="1743.5,-213.74 1483.5,-213.74 1483.5,-177.74 1743.5,-177.74 1743.5,-213.74"/>
<text text-anchor="middle" x="1613.5" y="-192.04" font-family="Helvetica,sans-Serif" font-size="14.00">✗ Ran sandbox for `.shellcheckrc`.</text>
</g>
<!-- 3af7b6cf&#45;e1ce&#45;4f82&#45;b83a&#45;aa998c800316&#45;&gt;846243c6&#45;9f9c&#45;4280&#45;b68f&#45;d813c7f5482a -->
<g id="edge16" class="edge">
<title>3af7b6cf&#45;e1ce&#45;4f82&#45;b83a&#45;aa998c800316&#45;&gt;846243c6&#45;9f9c&#45;4280&#45;b68f&#45;d813c7f5482a</title>
<path fill="none" stroke="black" stroke-dasharray="5,2" d="M1598.58,-250.9C1600.89,-242.53 1603.46,-233.2 1605.81,-224.67"/>
<polygon fill="black" stroke="black" points="1609.44,-225.65 1608.72,-215.08 1602.69,-223.79 1609.44,-225.65"/>
</g>
<!-- 497ee8b8&#45;e137&#45;4184&#45;95c1&#45;84224a850b7d -->
<g id="node21" class="node">
<title>497ee8b8&#45;e137&#45;4184&#45;95c1&#45;84224a850b7d</title>
<polygon fill="#ee0000" stroke="black" points="2027.5,-213.74 1761.5,-213.74 1761.5,-177.74 2027.5,-177.74 2027.5,-213.74"/>
<text text-anchor="middle" x="1894.5" y="-192.04" font-family="Helvetica,sans-Serif" font-size="14.00">✗ Ran sandbox for `svgo.config.js`.</text>
</g>
<!-- db874f51&#45;5f05&#45;4c7f&#45;99cc&#45;6586d420fb27&#45;&gt;497ee8b8&#45;e137&#45;4184&#45;95c1&#45;84224a850b7d -->
<g id="edge18" class="edge">
<title>db874f51&#45;5f05&#45;4c7f&#45;99cc&#45;6586d420fb27&#45;&gt;497ee8b8&#45;e137&#45;4184&#45;95c1&#45;84224a850b7d</title>
<path fill="none" stroke="black" stroke-dasharray="5,2" d="M1866.02,-250.9C1870.62,-242.15 1875.77,-232.36 1880.41,-223.53"/>
<polygon fill="black" stroke="black" points="1883.83,-225.56 1885.38,-215.08 1877.63,-222.3 1883.83,-225.56"/>
</g>
<!-- 0f216f21&#45;13e2&#45;44ec&#45;bf19&#45;0e8ce6b5a0b4 -->
<g id="node22" class="node">
<title>0f216f21&#45;13e2&#45;44ec&#45;bf19&#45;0e8ce6b5a0b4</title>
<polygon fill="white" stroke="black" points="2313,-213.74 2046,-213.74 2046,-177.74 2313,-177.74 2313,-213.74"/>
<text text-anchor="middle" x="2179.5" y="-192.04" font-family="Helvetica,sans-Serif" font-size="14.00">▶ Ran sandbox for `.yamllint.yaml`.</text>
</g>
<!-- 0d9c7738&#45;362e&#45;40c1&#45;86ec&#45;098074656836&#45;&gt;0f216f21&#45;13e2&#45;44ec&#45;bf19&#45;0e8ce6b5a0b4 -->
<g id="edge20" class="edge">
<title>0d9c7738&#45;362e&#45;40c1&#45;86ec&#45;098074656836&#45;&gt;0f216f21&#45;13e2&#45;44ec&#45;bf19&#45;0e8ce6b5a0b4</title>
<path fill="none" stroke="black" stroke-dasharray="5,2" d="M2133.02,-251.34C2141,-241.96 2150.05,-231.33 2158.03,-221.96"/>
<polygon fill="black" stroke="black" points="2161.18,-224.66 2165,-214.78 2155.85,-220.12 2161.18,-224.66"/>
</g>
<!-- afc36005&#45;e8ed&#45;4076&#45;b445&#45;ff1871647da6 -->
<g id="node23" class="node">
<title>afc36005&#45;e8ed&#45;4076&#45;b445&#45;ff1871647da6</title>
<ellipse fill="#ee0000" stroke="black" cx="146.5" cy="-99.87" rx="98.08" ry="26.74"/>
<text text-anchor="middle" x="146.5" y="-103.67" font-family="Helvetica,sans-Serif" font-size="14.00">✗ Modify</text>
<text text-anchor="middle" x="146.5" y="-88.67" font-family="Helvetica,sans-Serif" font-size="14.00">.trunk/trunk.yaml</text>
</g>
<!-- a2f4d6dd&#45;8386&#45;4ba4&#45;9cc0&#45;9530fdce5359&#45;&gt;afc36005&#45;e8ed&#45;4076&#45;b445&#45;ff1871647da6 -->
<g id="edge6" class="edge">
<title>a2f4d6dd&#45;8386&#45;4ba4&#45;9cc0&#45;9530fdce5359&#45;&gt;afc36005&#45;e8ed&#45;4076&#45;b445&#45;ff1871647da6</title>
<path fill="none" stroke="black" d="M146.5,-177.52C146.5,-166.33 146.5,-151.31 146.5,-137.53"/>
<polygon fill="black" stroke="black" points="150,-137.84 146.5,-127.84 143,-137.84 150,-137.84"/>
<text text-anchor="middle" x="244" y="-148.54" font-family="Helvetica,sans-Serif" font-size="14.00">Additional changes required</text>
</g>
<!-- 054fe5f2&#45;1bee&#45;4a9e&#45;940b&#45;7e6e3caecca5 -->
<g id="node24" class="node">
<title>054fe5f2&#45;1bee&#45;4a9e&#45;940b&#45;7e6e3caecca5</title>
<polygon fill="#ee0000" stroke="black" points="293,-36 0,-36 0,0 293,0 293,-36"/>
<text text-anchor="middle" x="146.5" y="-14.3" font-family="Helvetica,sans-Serif" font-size="14.00">✗ Ran sandbox for `.trunk/trunk.yaml`.</text>
</g>
<!-- afc36005&#45;e8ed&#45;4076&#45;b445&#45;ff1871647da6&#45;&gt;054fe5f2&#45;1bee&#45;4a9e&#45;940b&#45;7e6e3caecca5 -->
<g id="edge7" class="edge">
<title>afc36005&#45;e8ed&#45;4076&#45;b445&#45;ff1871647da6&#45;&gt;054fe5f2&#45;1bee&#45;4a9e&#45;940b&#45;7e6e3caecca5</title>
<path fill="none" stroke="black" stroke-dasharray="5,2" d="M146.5,-72.72C146.5,-64.46 146.5,-55.31 146.5,-46.93"/>
<polygon fill="black" stroke="black" points="150,-47.15 146.5,-37.15 143,-47.15 150,-47.15"/>
</g>
</g>
</svg>
