<?xml version="1.0" encoding="UTF-8" standalone="no"?>
<!DOCTYPE svg PUBLIC "-//W3C//DTD SVG 1.1//EN"
 "http://www.w3.org/Graphics/SVG/1.1/DTD/svg11.dtd">
<!-- Generated by graphviz version 2.43.0 (0)
 -->
<!-- Title: %3 Pages: 1 -->
<svg width="972pt" height="238pt"
 viewBox="0.00 0.00 972.00 237.74" xmlns="http://www.w3.org/2000/svg" xmlns:xlink="http://www.w3.org/1999/xlink">
<g id="graph0" class="graph" transform="scale(1 1) rotate(0) translate(36 201.74)">
<title>%3</title>
<polygon fill="dimgray" stroke="transparent" points="-36,36 -36,-201.74 936,-201.74 936,36 -36,36"/>
<text text-anchor="middle" x="450" y="-150.54" font-family="Helvetica,sans-Serif" font-size="14.00">Sweep&#39;s Plan &amp; Progress</text>
<!-- start -->
<g id="node1" class="node">
<title>start</title>
</g>
<!-- 737cc1a9&#45;00eb&#45;4310&#45;a0a7&#45;7e430ee68d62 -->
<g id="node3" class="node">
<title>737cc1a9&#45;00eb&#45;4310&#45;a0a7&#45;7e430ee68d62</title>
<ellipse fill="yellow" stroke="black" cx="243.5" cy="-99.87" rx="159.61" ry="26.74"/>
<text text-anchor="middle" x="243.5" y="-103.67" font-family="Helvetica,sans-Serif" font-size="14.00">⋯ Modify</text>
<text text-anchor="middle" x="243.5" y="-88.67" font-family="Helvetica,sans-Serif" font-size="14.00">sweepai/handlers/on_ticket.py</text>
</g>
<!-- start&#45;&gt;737cc1a9&#45;00eb&#45;4310&#45;a0a7&#45;7e430ee68d62 -->
<g id="edge4" class="edge">
<title>start&#45;&gt;737cc1a9&#45;00eb&#45;4310&#45;a0a7&#45;7e430ee68d62</title>
<path fill="none" stroke="black" d="M32.11,-99.87C35.37,-99.87 51.43,-99.87 73.36,-99.87"/>
<polygon fill="black" stroke="black" points="73.46,-103.37 83.46,-99.87 73.46,-96.37 73.46,-103.37"/>
<text text-anchor="middle" x="57.85" y="-106.67" font-family="Helvetica,sans-Serif" font-size="14.00">Start</text>
</g>
<!-- end -->
<g id="node2" class="node">
<title>end</title>
</g>
<!-- 3c40c639&#45;8bdc&#45;40fb&#45;8f56&#45;4961be7fd139 -->
<g id="node4" class="node">
<title>3c40c639&#45;8bdc&#45;40fb&#45;8f56&#45;4961be7fd139</title>
<ellipse fill="white" stroke="black" cx="649.5" cy="-99.87" rx="192.17" ry="26.74"/>
<text text-anchor="middle" x="649.5" y="-103.67" font-family="Helvetica,sans-Serif" font-size="14.00">▶ Modify</text>
<text text-anchor="middle" x="649.5" y="-88.67" font-family="Helvetica,sans-Serif" font-size="14.00">sweepai/handlers/on_button_click.py</text>
</g>
<!-- 737cc1a9&#45;00eb&#45;4310&#45;a0a7&#45;7e430ee68d62&#45;&gt;3c40c639&#45;8bdc&#45;40fb&#45;8f56&#45;4961be7fd139 -->
<g id="edge2" class="edge">
<title>737cc1a9&#45;00eb&#45;4310&#45;a0a7&#45;7e430ee68d62&#45;&gt;3c40c639&#45;8bdc&#45;40fb&#45;8f56&#45;4961be7fd139</title>
<path fill="none" stroke="black" d="M403.68,-99.87C417.97,-99.87 432.27,-99.87 446.56,-99.87"/>
<polygon fill="black" stroke="black" points="446.97,-103.37 456.97,-99.87 446.97,-96.37 446.97,-103.37"/>
</g>
<!-- 7818de70&#45;321c&#45;4ea4&#45;8e11&#45;f6494f7a1649 -->
<g id="node5" class="node">
<title>7818de70&#45;321c&#45;4ea4&#45;8e11&#45;f6494f7a1649</title>
<polygon fill="white" stroke="black" points="417,-36 0,-36 0,0 417,0 417,-36"/>
<text text-anchor="middle" x="208.5" y="-14.3" font-family="Helvetica,sans-Serif" font-size="14.00">▶ Run GitHub Actions for `sweepai/handlers/on_ticket.py`</text>
</g>
<!-- 737cc1a9&#45;00eb&#45;4310&#45;a0a7&#45;7e430ee68d62&#45;&gt;7818de70&#45;321c&#45;4ea4&#45;8e11&#45;f6494f7a1649 -->
<g id="edge1" class="edge">
<title>737cc1a9&#45;00eb&#45;4310&#45;a0a7&#45;7e430ee68d62&#45;&gt;7818de70&#45;321c&#45;4ea4&#45;8e11&#45;f6494f7a1649</title>
<path fill="none" stroke="black" stroke-dasharray="5,2" d="M232.04,-72.72C228.22,-63.99 223.95,-54.26 220.12,-45.51"/>
<polygon fill="black" stroke="black" points="223.23,-43.9 216.01,-36.15 216.82,-46.71 223.23,-43.9"/>
</g>
<!-- 3c40c639&#45;8bdc&#45;40fb&#45;8f56&#45;4961be7fd139&#45;&gt;end -->
<g id="edge5" class="edge">
<title>3c40c639&#45;8bdc&#45;40fb&#45;8f56&#45;4961be7fd139&#45;&gt;end</title>
<path fill="none" stroke="black" d="M842.14,-99.87C861.92,-99.87 878.46,-99.87 888.62,-99.87"/>
<polygon fill="black" stroke="black" points="888.88,-103.37 898.88,-99.87 888.88,-96.37 888.88,-103.37"/>
<text text-anchor="middle" x="870.42" y="-106.67" font-family="Helvetica,sans-Serif" font-size="14.00">Finish</text>
</g>
<!-- 818dd526&#45;d0cd&#45;4abe&#45;9c6b&#45;19887ac99305 -->
<g id="node6" class="node">
<title>818dd526&#45;d0cd&#45;4abe&#45;9c6b&#45;19887ac99305</title>
<polygon fill="white" stroke="black" points="898,-36 435,-36 435,0 898,0 898,-36"/>
<text text-anchor="middle" x="666.5" y="-14.3" font-family="Helvetica,sans-Serif" font-size="14.00">▶ Run GitHub Actions for `sweepai/handlers/on_button_click.py`</text>
</g>
<!-- 3c40c639&#45;8bdc&#45;40fb&#45;8f56&#45;4961be7fd139&#45;&gt;818dd526&#45;d0cd&#45;4abe&#45;9c6b&#45;19887ac99305 -->
<g id="edge3" class="edge">
<title>3c40c639&#45;8bdc&#45;40fb&#45;8f56&#45;4961be7fd139&#45;&gt;818dd526&#45;d0cd&#45;4abe&#45;9c6b&#45;19887ac99305</title>
<path fill="none" stroke="black" stroke-dasharray="5,2" d="M655.07,-72.72C656.88,-64.18 658.91,-54.68 660.74,-46.08"/>
<polygon fill="black" stroke="black" points="664.19,-46.66 662.85,-36.15 657.35,-45.2 664.19,-46.66"/>
</g>
</g>
</svg>
