<?xml version="1.0" encoding="UTF-8" standalone="no"?>
<!DOCTYPE svg PUBLIC "-//W3C//DTD SVG 1.1//EN"
 "http://www.w3.org/Graphics/SVG/1.1/DTD/svg11.dtd">
<!-- Generated by graphviz version 8.0.3 (0)
 -->
<!-- Pages: 1 -->
<svg width="869pt" height="238pt"
 viewBox="0.00 0.00 869.00 237.74" xmlns="http://www.w3.org/2000/svg" xmlns:xlink="http://www.w3.org/1999/xlink">
<g id="graph0" class="graph" transform="scale(1 1) rotate(0) translate(36 201.74)">
<polygon fill="dimgray" stroke="none" points="-36,36 -36,-201.74 833,-201.74 833,36 -36,36"/>
<text text-anchor="middle" x="398.5" y="-150.54" font-family="Helvetica,sans-Serif" font-size="14.00">Sweep&#39;s Plan &amp; Progress</text>
<!-- start -->
<g id="node1" class="node">
<title>start</title>
</g>
<!-- 777016a4&#45;869c&#45;4802&#45;acb9&#45;e0bec53c7cda -->
<g id="node3" class="node">
<title>777016a4&#45;869c&#45;4802&#45;acb9&#45;e0bec53c7cda</title>
<ellipse fill="yellow" stroke="black" cx="212.5" cy="-99.87" rx="159.61" ry="26.74"/>
<text text-anchor="middle" x="212.5" y="-103.67" font-family="Helvetica,sans-Serif" font-size="14.00">⋯ Modify</text>
<text text-anchor="middle" x="212.5" y="-88.67" font-family="Helvetica,sans-Serif" font-size="14.00">sweepai/handlers/on_ticket.py</text>
</g>
<!-- start&#45;&gt;777016a4&#45;869c&#45;4802&#45;acb9&#45;e0bec53c7cda -->
<g id="edge4" class="edge">
<title>start&#45;&gt;777016a4&#45;869c&#45;4802&#45;acb9&#45;e0bec53c7cda</title>
<path fill="none" stroke="black" d="M0.65,-99.87C2.39,-99.87 18.75,-99.87 41.67,-99.87"/>
<polygon fill="black" stroke="black" points="41.63,-103.37 51.63,-99.87 41.63,-96.37 41.63,-103.37"/>
<text text-anchor="middle" x="26.85" y="-106.67" font-family="Helvetica,sans-Serif" font-size="14.00">Start</text>
</g>
<!-- end -->
<g id="node2" class="node">
<title>end</title>
</g>
<!-- 6da2bd48&#45;856b&#45;4801&#45;a784&#45;91176a04f6ad -->
<g id="node4" class="node">
<title>6da2bd48&#45;856b&#45;4801&#45;a784&#45;91176a04f6ad</title>
<ellipse fill="white" stroke="black" cx="578.5" cy="-99.87" rx="159.61" ry="26.74"/>
<text text-anchor="middle" x="578.5" y="-103.67" font-family="Helvetica,sans-Serif" font-size="14.00">▶ Modify</text>
<text text-anchor="middle" x="578.5" y="-88.67" font-family="Helvetica,sans-Serif" font-size="14.00">sweepai/handlers/on_ticket.py</text>
</g>
<!-- 777016a4&#45;869c&#45;4802&#45;acb9&#45;e0bec53c7cda&#45;&gt;6da2bd48&#45;856b&#45;4801&#45;a784&#45;91176a04f6ad -->
<g id="edge2" class="edge">
<title>777016a4&#45;869c&#45;4802&#45;acb9&#45;e0bec53c7cda&#45;&gt;6da2bd48&#45;856b&#45;4801&#45;a784&#45;91176a04f6ad</title>
<path fill="none" stroke="black" d="M372.27,-99.87C384.09,-99.87 395.91,-99.87 407.73,-99.87"/>
<polygon fill="black" stroke="black" points="407.59,-103.37 417.59,-99.87 407.59,-96.37 407.59,-103.37"/>
</g>
<!-- da790d63&#45;8e88&#45;40b4&#45;8f69&#45;1ed52323fdfb -->
<g id="node5" class="node">
<title>da790d63&#45;8e88&#45;40b4&#45;8f69&#45;1ed52323fdfb</title>
<polygon fill="white" stroke="black" points="381.5,-36 3.5,-36 3.5,0 381.5,0 381.5,-36"/>
<text text-anchor="middle" x="192.5" y="-14.3" font-family="Helvetica,sans-Serif" font-size="14.00">▶ Ran sandbox for `sweepai/handlers/on_ticket.py`.</text>
</g>
<!-- 777016a4&#45;869c&#45;4802&#45;acb9&#45;e0bec53c7cda&#45;&gt;da790d63&#45;8e88&#45;40b4&#45;8f69&#45;1ed52323fdfb -->
<g id="edge1" class="edge">
<title>777016a4&#45;869c&#45;4802&#45;acb9&#45;e0bec53c7cda&#45;&gt;da790d63&#45;8e88&#45;40b4&#45;8f69&#45;1ed52323fdfb</title>
<path fill="none" stroke="black" stroke-dasharray="5,2" d="M205.95,-72.72C203.86,-64.37 201.54,-55.1 199.42,-46.65"/>
<polygon fill="black" stroke="black" points="202.62,-46 196.79,-37.15 195.83,-47.7 202.62,-46"/>
</g>
<!-- 6da2bd48&#45;856b&#45;4801&#45;a784&#45;91176a04f6ad&#45;&gt;end -->
<g id="edge5" class="edge">
<title>6da2bd48&#45;856b&#45;4801&#45;a784&#45;91176a04f6ad&#45;&gt;end</title>
<path fill="none" stroke="black" d="M738.37,-99.87C758,-99.87 774.8,-99.87 785.22,-99.87"/>
<polygon fill="black" stroke="black" points="785.21,-103.37 795.21,-99.87 785.21,-96.37 785.21,-103.37"/>
<text text-anchor="middle" x="767.15" y="-106.67" font-family="Helvetica,sans-Serif" font-size="14.00">Finish</text>
</g>
<!-- b28b1664&#45;a9f4&#45;4ff5&#45;9ceb&#45;6f6dbbefc4d7 -->
<g id="node6" class="node">
<title>b28b1664&#45;a9f4&#45;4ff5&#45;9ceb&#45;6f6dbbefc4d7</title>
<polygon fill="white" stroke="black" points="777.5,-36 399.5,-36 399.5,0 777.5,0 777.5,-36"/>
<text text-anchor="middle" x="588.5" y="-14.3" font-family="Helvetica,sans-Serif" font-size="14.00">▶ Ran sandbox for `sweepai/handlers/on_ticket.py`.</text>
</g>
<!-- 6da2bd48&#45;856b&#45;4801&#45;a784&#45;91176a04f6ad&#45;&gt;b28b1664&#45;a9f4&#45;4ff5&#45;9ceb&#45;6f6dbbefc4d7 -->
<g id="edge3" class="edge">
<title>6da2bd48&#45;856b&#45;4801&#45;a784&#45;91176a04f6ad&#45;&gt;b28b1664&#45;a9f4&#45;4ff5&#45;9ceb&#45;6f6dbbefc4d7</title>
<path fill="none" stroke="black" stroke-dasharray="5,2" d="M581.77,-72.72C582.81,-64.46 583.95,-55.31 585,-46.93"/>
<polygon fill="black" stroke="black" points="588.58,-47.5 586.35,-37.15 581.64,-46.63 588.58,-47.5"/>
</g>
</g>
</svg>
