<?xml version="1.0" encoding="UTF-8" standalone="no"?>
<!DOCTYPE svg PUBLIC "-//W3C//DTD SVG 1.1//EN"
 "http://www.w3.org/Graphics/SVG/1.1/DTD/svg11.dtd">
<!-- Generated by graphviz version 8.0.3 (0)
 -->
<!-- Pages: 1 -->
<svg width="634pt" height="238pt"
 viewBox="0.00 0.00 634.00 237.74" xmlns="http://www.w3.org/2000/svg" xmlns:xlink="http://www.w3.org/1999/xlink">
<g id="graph0" class="graph" transform="scale(1 1) rotate(0) translate(36 201.74)">
<polygon fill="dimgray" stroke="none" points="-36,36 -36,-201.74 598,-201.74 598,36 -36,36"/>
<text text-anchor="middle" x="281" y="-150.54" font-family="Helvetica,sans-Serif" font-size="14.00">Sweep&#39;s Plan &amp; Progress</text>
<!-- start -->
<g id="node1" class="node">
<title>start</title>
</g>
<!-- ff8de305&#45;e7f9&#45;47a5&#45;ad1f&#45;83706058035c -->
<g id="node3" class="node">
<title>ff8de305&#45;e7f9&#45;47a5&#45;ad1f&#45;83706058035c</title>
<ellipse fill="yellow" stroke="black" cx="178" cy="-99.87" rx="84.71" ry="26.74"/>
<text text-anchor="middle" x="178" y="-103.67" font-family="Helvetica,sans-Serif" font-size="14.00">⋯ Modify</text>
<text text-anchor="middle" x="178" y="-88.67" font-family="Helvetica,sans-Serif" font-size="14.00">sweepai/api.py</text>
</g>
<!-- start&#45;&gt;ff8de305&#45;e7f9&#45;47a5&#45;ad1f&#45;83706058035c -->
<g id="edge4" class="edge">
<title>start&#45;&gt;ff8de305&#45;e7f9&#45;47a5&#45;ad1f&#45;83706058035c</title>
<path fill="none" stroke="black" d="M41.39,-99.87C44.15,-99.87 61.04,-99.87 82.06,-99.87"/>
<polygon fill="black" stroke="black" points="82.03,-103.37 92.03,-99.87 82.03,-96.37 82.03,-103.37"/>
<text text-anchor="middle" x="67.32" y="-106.67" font-family="Helvetica,sans-Serif" font-size="14.00">Start</text>
</g>
<!-- end -->
<g id="node2" class="node">
<title>end</title>
</g>
<!-- 31f2613f&#45;4248&#45;4cc5&#45;bdc8&#45;862ffbb83174 -->
<g id="node4" class="node">
<title>31f2613f&#45;4248&#45;4cc5&#45;bdc8&#45;862ffbb83174</title>
<ellipse fill="white" stroke="black" cx="405" cy="-99.87" rx="84.71" ry="26.74"/>
<text text-anchor="middle" x="405" y="-103.67" font-family="Helvetica,sans-Serif" font-size="14.00">▶ Modify</text>
<text text-anchor="middle" x="405" y="-88.67" font-family="Helvetica,sans-Serif" font-size="14.00">sweepai/api.py</text>
</g>
<!-- ff8de305&#45;e7f9&#45;47a5&#45;ad1f&#45;83706058035c&#45;&gt;31f2613f&#45;4248&#45;4cc5&#45;bdc8&#45;862ffbb83174 -->
<g id="edge2" class="edge">
<title>ff8de305&#45;e7f9&#45;47a5&#45;ad1f&#45;83706058035c&#45;&gt;31f2613f&#45;4248&#45;4cc5&#45;bdc8&#45;862ffbb83174</title>
<path fill="none" stroke="black" d="M263.12,-99.87C278.51,-99.87 293.89,-99.87 309.28,-99.87"/>
<polygon fill="black" stroke="black" points="308.93,-103.37 318.93,-99.87 308.93,-96.37 308.93,-103.37"/>
</g>
<!-- 25c5578e&#45;0fb3&#45;4b36&#45;b346&#45;a12ce8188267 -->
<g id="node5" class="node">
<title>25c5578e&#45;0fb3&#45;4b36&#45;b346&#45;a12ce8188267</title>
<polygon fill="white" stroke="black" points="272,-36 0,-36 0,0 272,0 272,-36"/>
<text text-anchor="middle" x="136" y="-14.3" font-family="Helvetica,sans-Serif" font-size="14.00">▶ Ran sandbox for `sweepai/api.py`.</text>
</g>
<!-- ff8de305&#45;e7f9&#45;47a5&#45;ad1f&#45;83706058035c&#45;&gt;25c5578e&#45;0fb3&#45;4b36&#45;b346&#45;a12ce8188267 -->
<g id="edge1" class="edge">
<title>ff8de305&#45;e7f9&#45;47a5&#45;ad1f&#45;83706058035c&#45;&gt;25c5578e&#45;0fb3&#45;4b36&#45;b346&#45;a12ce8188267</title>
<path fill="none" stroke="black" stroke-dasharray="5,2" d="M164.48,-73.16C159.88,-64.41 154.73,-54.62 150.09,-45.79"/>
<polygon fill="black" stroke="black" points="152.87,-44.56 145.12,-37.34 146.67,-47.82 152.87,-44.56"/>
</g>
<!-- 31f2613f&#45;4248&#45;4cc5&#45;bdc8&#45;862ffbb83174&#45;&gt;end -->
<g id="edge5" class="edge">
<title>31f2613f&#45;4248&#45;4cc5&#45;bdc8&#45;862ffbb83174&#45;&gt;end</title>
<path fill="none" stroke="black" d="M489.84,-99.87C508.56,-99.87 526.01,-99.87 536.82,-99.87"/>
<polygon fill="black" stroke="black" points="536.69,-103.37 546.69,-99.87 536.69,-96.37 536.69,-103.37"/>
<text text-anchor="middle" x="518.68" y="-106.67" font-family="Helvetica,sans-Serif" font-size="14.00">Finish</text>
</g>
<!-- 8cec56e8&#45;2455&#45;4f5c&#45;a22e&#45;891e193a62ad -->
<g id="node6" class="node">
<title>8cec56e8&#45;2455&#45;4f5c&#45;a22e&#45;891e193a62ad</title>
<polygon fill="white" stroke="black" points="562,-36 290,-36 290,0 562,0 562,-36"/>
<text text-anchor="middle" x="426" y="-14.3" font-family="Helvetica,sans-Serif" font-size="14.00">▶ Ran sandbox for `sweepai/api.py`.</text>
</g>
<!-- 31f2613f&#45;4248&#45;4cc5&#45;bdc8&#45;862ffbb83174&#45;&gt;8cec56e8&#45;2455&#45;4f5c&#45;a22e&#45;891e193a62ad -->
<g id="edge3" class="edge">
<title>31f2613f&#45;4248&#45;4cc5&#45;bdc8&#45;862ffbb83174&#45;&gt;8cec56e8&#45;2455&#45;4f5c&#45;a22e&#45;891e193a62ad</title>
<path fill="none" stroke="black" stroke-dasharray="5,2" d="M411.76,-73.16C413.96,-64.79 416.41,-55.46 418.66,-46.93"/>
<polygon fill="black" stroke="black" points="422.28,-47.9 421.44,-37.34 415.51,-46.12 422.28,-47.9"/>
</g>
</g>
</svg>
