<?xml version="1.0" encoding="UTF-8" standalone="no"?>
<!DOCTYPE svg PUBLIC "-//W3C//DTD SVG 1.1//EN"
 "http://www.w3.org/Graphics/SVG/1.1/DTD/svg11.dtd">
<!-- Generated by graphviz version 8.0.3 (0)
 -->
<!-- Pages: 1 -->
<svg width="984pt" height="415pt"
 viewBox="0.00 0.00 984.00 415.48" xmlns="http://www.w3.org/2000/svg" xmlns:xlink="http://www.w3.org/1999/xlink">
<g id="graph0" class="graph" transform="scale(1 1) rotate(0) translate(36 379.48)">
<polygon fill="dimgray" stroke="none" points="-36,36 -36,-379.48 948,-379.48 948,36 -36,36"/>
<text text-anchor="middle" x="456" y="-328.28" font-family="Helvetica,sans-Serif" font-size="14.00">Sweep&#39;s Plan &amp; Progress</text>
<!-- start -->
<g id="node1" class="node">
<title>start</title>
</g>
<!-- 19b0773e&#45;a0dd&#45;4d4a&#45;bc99&#45;f7b0be110d4b -->
<g id="node3" class="node">
<title>19b0773e&#45;a0dd&#45;4d4a&#45;bc99&#45;f7b0be110d4b</title>
<ellipse fill="#0ee832" stroke="black" cx="452.5" cy="-277.61" rx="84.71" ry="26.74"/>
<text text-anchor="middle" x="452.5" y="-281.41" font-family="Helvetica,sans-Serif" font-size="14.00">✓ Modify</text>
<text text-anchor="middle" x="452.5" y="-266.41" font-family="Helvetica,sans-Serif" font-size="14.00">sweepai/api.py</text>
</g>
<!-- start&#45;&gt;19b0773e&#45;a0dd&#45;4d4a&#45;bc99&#45;f7b0be110d4b -->
<g id="edge7" class="edge">
<title>start&#45;&gt;19b0773e&#45;a0dd&#45;4d4a&#45;bc99&#45;f7b0be110d4b</title>
<path fill="none" stroke="black" d="M315.89,-277.61C318.65,-277.61 335.54,-277.61 356.56,-277.61"/>
<polygon fill="black" stroke="black" points="356.53,-281.11 366.53,-277.61 356.53,-274.11 356.53,-281.11"/>
<text text-anchor="middle" x="341.82" y="-284.41" font-family="Helvetica,sans-Serif" font-size="14.00">Start</text>
</g>
<!-- end -->
<g id="node2" class="node">
<title>end</title>
</g>
<!-- ae80fa7f&#45;2018&#45;41e0&#45;8fde&#45;116e5a869112 -->
<g id="node4" class="node">
<title>ae80fa7f&#45;2018&#45;41e0&#45;8fde&#45;116e5a869112</title>
<ellipse fill="white" stroke="black" cx="720.5" cy="-277.61" rx="108.38" ry="26.74"/>
<text text-anchor="middle" x="720.5" y="-281.41" font-family="Helvetica,sans-Serif" font-size="14.00">▶ Create</text>
<text text-anchor="middle" x="720.5" y="-266.41" font-family="Helvetica,sans-Serif" font-size="14.00">sweepai/api_test.py</text>
</g>
<!-- 19b0773e&#45;a0dd&#45;4d4a&#45;bc99&#45;f7b0be110d4b&#45;&gt;ae80fa7f&#45;2018&#45;41e0&#45;8fde&#45;116e5a869112 -->
<g id="edge5" class="edge">
<title>19b0773e&#45;a0dd&#45;4d4a&#45;bc99&#45;f7b0be110d4b&#45;&gt;ae80fa7f&#45;2018&#45;41e0&#45;8fde&#45;116e5a869112</title>
<path fill="none" stroke="black" d="M537.56,-277.61C558.75,-277.61 579.94,-277.61 601.14,-277.61"/>
<polygon fill="black" stroke="black" points="600.88,-281.11 610.88,-277.61 600.88,-274.11 600.88,-281.11"/>
</g>
<!-- 0e279427&#45;2e3d&#45;4a30&#45;873e&#45;9fdd01c2411d -->
<g id="node5" class="node">
<title>0e279427&#45;2e3d&#45;4a30&#45;873e&#45;9fdd01c2411d</title>
<polygon fill="#ee0000" stroke="black" points="298.5,-213.74 24.5,-213.74 24.5,-177.74 298.5,-177.74 298.5,-213.74"/>
<text text-anchor="middle" x="161.5" y="-192.04" font-family="Helvetica,sans-Serif" font-size="14.00">✗ Ran sandbox for `sweepai/api.py`.</text>
</g>
<!-- 19b0773e&#45;a0dd&#45;4d4a&#45;bc99&#45;f7b0be110d4b&#45;&gt;0e279427&#45;2e3d&#45;4a30&#45;873e&#45;9fdd01c2411d -->
<g id="edge1" class="edge">
<title>19b0773e&#45;a0dd&#45;4d4a&#45;bc99&#45;f7b0be110d4b&#45;&gt;0e279427&#45;2e3d&#45;4a30&#45;873e&#45;9fdd01c2411d</title>
<path fill="none" stroke="black" stroke-dasharray="5,2" d="M389.72,-259.38C344.51,-246.97 283.36,-230.19 235.74,-217.12"/>
<polygon fill="black" stroke="black" points="236.75,-213.49 226.18,-214.22 234.89,-220.24 236.75,-213.49"/>
</g>
<!-- c9ceb009&#45;66a6&#45;47fd&#45;848a&#45;1bed97e105b8 -->
<g id="node6" class="node">
<title>c9ceb009&#45;66a6&#45;47fd&#45;848a&#45;1bed97e105b8</title>
<polygon fill="white" stroke="black" points="588.5,-213.74 316.5,-213.74 316.5,-177.74 588.5,-177.74 588.5,-213.74"/>
<text text-anchor="middle" x="452.5" y="-192.04" font-family="Helvetica,sans-Serif" font-size="14.00">▶ Ran sandbox for `sweepai/api.py`.</text>
</g>
<!-- 19b0773e&#45;a0dd&#45;4d4a&#45;bc99&#45;f7b0be110d4b&#45;&gt;c9ceb009&#45;66a6&#45;47fd&#45;848a&#45;1bed97e105b8 -->
<g id="edge4" class="edge">
<title>19b0773e&#45;a0dd&#45;4d4a&#45;bc99&#45;f7b0be110d4b&#45;&gt;c9ceb009&#45;66a6&#45;47fd&#45;848a&#45;1bed97e105b8</title>
<path fill="none" stroke="black" stroke-dasharray="5,2" d="M452.5,-250.46C452.5,-242.2 452.5,-233.05 452.5,-224.67"/>
<polygon fill="black" stroke="black" points="456,-224.89 452.5,-214.89 449,-224.89 456,-224.89"/>
</g>
<!-- ae80fa7f&#45;2018&#45;41e0&#45;8fde&#45;116e5a869112&#45;&gt;end -->
<g id="edge8" class="edge">
<title>ae80fa7f&#45;2018&#45;41e0&#45;8fde&#45;116e5a869112&#45;&gt;end</title>
<path fill="none" stroke="black" d="M829.37,-277.61C848.16,-277.61 864.99,-277.61 875.43,-277.61"/>
<polygon fill="black" stroke="black" points="875.2,-281.11 885.2,-277.61 875.2,-274.11 875.2,-281.11"/>
<text text-anchor="middle" x="857.34" y="-284.41" font-family="Helvetica,sans-Serif" font-size="14.00">Finish</text>
</g>
<!-- 1543f3f9&#45;fa81&#45;4749&#45;a76b&#45;154280b873f4 -->
<g id="node7" class="node">
<title>1543f3f9&#45;fa81&#45;4749&#45;a76b&#45;154280b873f4</title>
<polygon fill="white" stroke="black" points="912,-213.74 607,-213.74 607,-177.74 912,-177.74 912,-213.74"/>
<text text-anchor="middle" x="759.5" y="-192.04" font-family="Helvetica,sans-Serif" font-size="14.00">▶ Ran sandbox for `sweepai/api_test.py`.</text>
</g>
<!-- ae80fa7f&#45;2018&#45;41e0&#45;8fde&#45;116e5a869112&#45;&gt;1543f3f9&#45;fa81&#45;4749&#45;a76b&#45;154280b873f4 -->
<g id="edge6" class="edge">
<title>ae80fa7f&#45;2018&#45;41e0&#45;8fde&#45;116e5a869112&#45;&gt;1543f3f9&#45;fa81&#45;4749&#45;a76b&#45;154280b873f4</title>
<path fill="none" stroke="black" stroke-dasharray="5,2" d="M733.05,-250.9C737.28,-242.25 742.01,-232.57 746.28,-223.81"/>
<polygon fill="black" stroke="black" points="749.79,-225.6 751.03,-215.08 743.5,-222.53 749.79,-225.6"/>
</g>
<!-- 9697e3bc&#45;d51f&#45;4db2&#45;bfde&#45;93181385cff1 -->
<g id="node8" class="node">
<title>9697e3bc&#45;d51f&#45;4db2&#45;bfde&#45;93181385cff1</title>
<ellipse fill="#0ee832" stroke="black" cx="161.5" cy="-99.87" rx="118.17" ry="26.74"/>
<text text-anchor="middle" x="161.5" y="-103.67" font-family="Helvetica,sans-Serif" font-size="14.00">✓ Create</text>
<text text-anchor="middle" x="161.5" y="-88.67" font-family="Helvetica,sans-Serif" font-size="14.00">repo/sdk/src/agent.py</text>
</g>
<!-- 0e279427&#45;2e3d&#45;4a30&#45;873e&#45;9fdd01c2411d&#45;&gt;9697e3bc&#45;d51f&#45;4db2&#45;bfde&#45;93181385cff1 -->
<g id="edge2" class="edge">
<title>0e279427&#45;2e3d&#45;4a30&#45;873e&#45;9fdd01c2411d&#45;&gt;9697e3bc&#45;d51f&#45;4db2&#45;bfde&#45;93181385cff1</title>
<path fill="none" stroke="black" d="M161.5,-177.52C161.5,-166.33 161.5,-151.31 161.5,-137.53"/>
<polygon fill="black" stroke="black" points="165,-137.84 161.5,-127.84 158,-137.84 165,-137.84"/>
<text text-anchor="middle" x="259" y="-148.54" font-family="Helvetica,sans-Serif" font-size="14.00">Additional changes required</text>
</g>
<!-- c1683dcb&#45;7a18&#45;4d71&#45;b263&#45;4899a207afda -->
<g id="node9" class="node">
<title>c1683dcb&#45;7a18&#45;4d71&#45;b263&#45;4899a207afda</title>
<polygon fill="yellow" stroke="black" points="323,-36 0,-36 0,0 323,0 323,-36"/>
<text text-anchor="middle" x="161.5" y="-14.3" font-family="Helvetica,sans-Serif" font-size="14.00">⋯ Ran sandbox for `repo/sdk/src/agent.py`.</text>
</g>
<!-- 9697e3bc&#45;d51f&#45;4db2&#45;bfde&#45;93181385cff1&#45;&gt;c1683dcb&#45;7a18&#45;4d71&#45;b263&#45;4899a207afda -->
<g id="edge3" class="edge">
<title>9697e3bc&#45;d51f&#45;4db2&#45;bfde&#45;93181385cff1&#45;&gt;c1683dcb&#45;7a18&#45;4d71&#45;b263&#45;4899a207afda</title>
<path fill="none" stroke="black" stroke-dasharray="5,2" d="M161.5,-72.72C161.5,-64.46 161.5,-55.31 161.5,-46.93"/>
<polygon fill="black" stroke="black" points="165,-47.15 161.5,-37.15 158,-47.15 165,-47.15"/>
</g>
</g>
</svg>
