<?xml version="1.0" encoding="UTF-8" standalone="no"?>
<!DOCTYPE svg PUBLIC "-//W3C//DTD SVG 1.1//EN"
 "http://www.w3.org/Graphics/SVG/1.1/DTD/svg11.dtd">
<!-- Generated by graphviz version 2.43.0 (0)
 -->
<!-- Title: %3 Pages: 1 -->
<svg width="387pt" height="238pt"
 viewBox="0.00 0.00 387.00 237.74" xmlns="http://www.w3.org/2000/svg" xmlns:xlink="http://www.w3.org/1999/xlink">
<g id="graph0" class="graph" transform="scale(1 1) rotate(0) translate(36 201.74)">
<title>%3</title>
<polygon fill="dimgray" stroke="transparent" points="-36,36 -36,-201.74 351,-201.74 351,36 -36,36"/>
<text text-anchor="middle" x="157.5" y="-150.54" font-family="Helvetica,sans-Serif" font-size="14.00">Sweep&#39;s Plan &amp; Progress</text>
<!-- start -->
<g id="node1" class="node">
<title>start</title>
</g>
<!-- ed4c6ac1&#45;a7a7&#45;41b1&#45;95af&#45;c5a252d4096a -->
<g id="node3" class="node">
<title>ed4c6ac1&#45;a7a7&#45;41b1&#45;95af&#45;c5a252d4096a</title>
<ellipse fill="#0ee832" stroke="black" cx="157.5" cy="-99.87" rx="84.71" ry="26.74"/>
<text text-anchor="middle" x="157.5" y="-103.67" font-family="Helvetica,sans-Serif" font-size="14.00">✓ Modify</text>
<text text-anchor="middle" x="157.5" y="-88.67" font-family="Helvetica,sans-Serif" font-size="14.00">sweepai/api.py</text>
</g>
<!-- start&#45;&gt;ed4c6ac1&#45;a7a7&#45;41b1&#45;95af&#45;c5a252d4096a -->
<g id="edge2" class="edge">
<title>start&#45;&gt;ed4c6ac1&#45;a7a7&#45;41b1&#45;95af&#45;c5a252d4096a</title>
<path fill="none" stroke="black" d="M21.37,-99.87C25.29,-99.87 41.92,-99.87 62.28,-99.87"/>
<polygon fill="black" stroke="black" points="62.54,-103.37 72.54,-99.87 62.54,-96.37 62.54,-103.37"/>
<text text-anchor="middle" x="46.82" y="-106.67" font-family="Helvetica,sans-Serif" font-size="14.00">Start</text>
</g>
<!-- end -->
<g id="node2" class="node">
<title>end</title>
</g>
<!-- ed4c6ac1&#45;a7a7&#45;41b1&#45;95af&#45;c5a252d4096a&#45;&gt;end -->
<g id="edge3" class="edge">
<title>ed4c6ac1&#45;a7a7&#45;41b1&#45;95af&#45;c5a252d4096a&#45;&gt;end</title>
<path fill="none" stroke="black" d="M242.75,-99.87C261.4,-99.87 278.75,-99.87 289.46,-99.87"/>
<polygon fill="black" stroke="black" points="289.8,-103.37 299.8,-99.87 289.8,-96.37 289.8,-103.37"/>
<text text-anchor="middle" x="271.18" y="-106.67" font-family="Helvetica,sans-Serif" font-size="14.00">Finish</text>
</g>
<!-- 7ab0b4f9&#45;8532&#45;4622&#45;81af&#45;4fb9c54d70b6 -->
<g id="node4" class="node">
<title>7ab0b4f9&#45;8532&#45;4622&#45;81af&#45;4fb9c54d70b6</title>
<polygon fill="yellow" stroke="black" points="315,-36 0,-36 0,0 315,0 315,-36"/>
<text text-anchor="middle" x="157.5" y="-14.3" font-family="Helvetica,sans-Serif" font-size="14.00">⋯ Run GitHub Actions for `sweepai/api.py`</text>
</g>
<!-- ed4c6ac1&#45;a7a7&#45;41b1&#45;95af&#45;c5a252d4096a&#45;&gt;7ab0b4f9&#45;8532&#45;4622&#45;81af&#45;4fb9c54d70b6 -->
<g id="edge1" class="edge">
<title>ed4c6ac1&#45;a7a7&#45;41b1&#45;95af&#45;c5a252d4096a&#45;&gt;7ab0b4f9&#45;8532&#45;4622&#45;81af&#45;4fb9c54d70b6</title>
<path fill="none" stroke="black" stroke-dasharray="5,2" d="M157.5,-72.72C157.5,-64.27 157.5,-54.89 157.5,-46.36"/>
<polygon fill="black" stroke="black" points="161,-46.15 157.5,-36.15 154,-46.15 161,-46.15"/>
</g>
</g>
</svg>
