<?xml version="1.0" encoding="UTF-8" standalone="no"?>
<!DOCTYPE svg PUBLIC "-//W3C//DTD SVG 1.1//EN"
 "http://www.w3.org/Graphics/SVG/1.1/DTD/svg11.dtd">
<!-- Generated by graphviz version 2.43.0 (0)
 -->
<!-- Title: %3 Pages: 1 -->
<svg width="531pt" height="238pt"
 viewBox="0.00 0.00 531.00 237.74" xmlns="http://www.w3.org/2000/svg" xmlns:xlink="http://www.w3.org/1999/xlink">
<g id="graph0" class="graph" transform="scale(1 1) rotate(0) translate(36 201.74)">
<title>%3</title>
<polygon fill="dimgray" stroke="transparent" points="-36,36 -36,-201.74 495,-201.74 495,36 -36,36"/>
<text text-anchor="middle" x="229.5" y="-150.54" font-family="Helvetica,sans-Serif" font-size="14.00">Sweep&#39;s Plan &amp; Progress</text>
<!-- start -->
<g id="node1" class="node">
<title>start</title>
</g>
<!-- 78ea8a37&#45;8629&#45;4995&#45;89b1&#45;f199d90feb8c -->
<g id="node3" class="node">
<title>78ea8a37&#45;8629&#45;4995&#45;89b1&#45;f199d90feb8c</title>
<ellipse fill="yellow" stroke="black" cx="226.5" cy="-99.87" rx="173.9" ry="26.74"/>
<text text-anchor="middle" x="226.5" y="-103.67" font-family="Helvetica,sans-Serif" font-size="14.00">⋯ Modify</text>
<text text-anchor="middle" x="226.5" y="-88.67" font-family="Helvetica,sans-Serif" font-size="14.00">sweepai/core/context_pruning.py</text>
</g>
<!-- start&#45;&gt;78ea8a37&#45;8629&#45;4995&#45;89b1&#45;f199d90feb8c -->
<g id="edge2" class="edge">
<title>start&#45;&gt;78ea8a37&#45;8629&#45;4995&#45;89b1&#45;f199d90feb8c</title>
<path fill="none" stroke="black" d="M1.15,-99.87C4.47,-99.87 20.32,-99.87 42.2,-99.87"/>
<polygon fill="black" stroke="black" points="42.29,-103.37 52.29,-99.87 42.29,-96.37 42.29,-103.37"/>
<text text-anchor="middle" x="26.78" y="-106.67" font-family="Helvetica,sans-Serif" font-size="14.00">Start</text>
</g>
<!-- end -->
<g id="node2" class="node">
<title>end</title>
</g>
<!-- 78ea8a37&#45;8629&#45;4995&#45;89b1&#45;f199d90feb8c&#45;&gt;end -->
<g id="edge3" class="edge">
<title>78ea8a37&#45;8629&#45;4995&#45;89b1&#45;f199d90feb8c&#45;&gt;end</title>
<path fill="none" stroke="black" d="M400.56,-99.87C420.57,-99.87 437.48,-99.87 447.78,-99.87"/>
<polygon fill="black" stroke="black" points="447.86,-103.37 457.86,-99.87 447.86,-96.37 447.86,-103.37"/>
<text text-anchor="middle" x="429.22" y="-106.67" font-family="Helvetica,sans-Serif" font-size="14.00">Finish</text>
</g>
<!-- c08a1aec&#45;05ab&#45;49b6&#45;ab9d&#45;1e9570102dde -->
<g id="node4" class="node">
<title>c08a1aec&#45;05ab&#45;49b6&#45;ab9d&#45;1e9570102dde</title>
<polygon fill="white" stroke="black" points="445,-36 8,-36 8,0 445,0 445,-36"/>
<text text-anchor="middle" x="226.5" y="-14.3" font-family="Helvetica,sans-Serif" font-size="14.00">▶ Run GitHub Actions for `sweepai/core/context_pruning.py`</text>
</g>
<!-- 78ea8a37&#45;8629&#45;4995&#45;89b1&#45;f199d90feb8c&#45;&gt;c08a1aec&#45;05ab&#45;49b6&#45;ab9d&#45;1e9570102dde -->
<g id="edge1" class="edge">
<title>78ea8a37&#45;8629&#45;4995&#45;89b1&#45;f199d90feb8c&#45;&gt;c08a1aec&#45;05ab&#45;49b6&#45;ab9d&#45;1e9570102dde</title>
<path fill="none" stroke="black" stroke-dasharray="5,2" d="M226.5,-72.72C226.5,-64.27 226.5,-54.89 226.5,-46.36"/>
<polygon fill="black" stroke="black" points="230,-46.15 226.5,-36.15 223,-46.15 230,-46.15"/>
</g>
</g>
</svg>
