<?xml version="1.0" encoding="UTF-8" standalone="no"?>
<!DOCTYPE svg PUBLIC "-//W3C//DTD SVG 1.1//EN"
 "http://www.w3.org/Graphics/SVG/1.1/DTD/svg11.dtd">
<!-- Generated by graphviz version 8.0.3 (0)
 -->
<!-- Pages: 1 -->
<svg width="2332pt" height="771pt"
 viewBox="0.00 0.00 2332.00 770.96" xmlns="http://www.w3.org/2000/svg" xmlns:xlink="http://www.w3.org/1999/xlink">
<g id="graph0" class="graph" transform="scale(1 1) rotate(0) translate(36 734.96)">
<polygon fill="dimgray" stroke="none" points="-36,36 -36,-734.96 2296,-734.96 2296,36 -36,36"/>
<text text-anchor="middle" x="1130" y="-683.76" font-family="Helvetica,sans-Serif" font-size="14.00">Sweep&#39;s Plan &amp; Progress</text>
<!-- start -->
<g id="node1" class="node">
<title>start</title>
</g>
<!-- 2474dc83&#45;d6c9&#45;4095&#45;9ed9&#45;c258eb62d53b -->
<g id="node3" class="node">
<title>2474dc83&#45;d6c9&#45;4095&#45;9ed9&#45;c258eb62d53b</title>
<ellipse fill="#0ee832" stroke="black" cx="1276" cy="-633.09" rx="159.61" ry="26.74"/>
<text text-anchor="middle" x="1276" y="-636.89" font-family="Helvetica,sans-Serif" font-size="14.00">✓ Modify</text>
<text text-anchor="middle" x="1276" y="-621.89" font-family="Helvetica,sans-Serif" font-size="14.00">sweepai/handlers/on_ticket.py</text>
</g>
<!-- start&#45;&gt;2474dc83&#45;d6c9&#45;4095&#45;9ed9&#45;c258eb62d53b -->
<g id="edge22" class="edge">
<title>start&#45;&gt;2474dc83&#45;d6c9&#45;4095&#45;9ed9&#45;c258eb62d53b</title>
<path fill="none" stroke="black" d="M1064.15,-633.09C1065.89,-633.09 1082.25,-633.09 1105.17,-633.09"/>
<polygon fill="black" stroke="black" points="1105.13,-636.59 1115.13,-633.09 1105.13,-629.59 1105.13,-636.59"/>
<text text-anchor="middle" x="1090.35" y="-639.89" font-family="Helvetica,sans-Serif" font-size="14.00">Start</text>
</g>
<!-- end -->
<g id="node2" class="node">
<title>end</title>
</g>
<!-- ed608921&#45;bc70&#45;4f4e&#45;a331&#45;16482b157696 -->
<g id="node4" class="node">
<title>ed608921&#45;bc70&#45;4f4e&#45;a331&#45;16482b157696</title>
<ellipse fill="#0ee832" stroke="black" cx="1674" cy="-633.09" rx="159.61" ry="26.74"/>
<text text-anchor="middle" x="1674" y="-636.89" font-family="Helvetica,sans-Serif" font-size="14.00">✓ Modify</text>
<text text-anchor="middle" x="1674" y="-621.89" font-family="Helvetica,sans-Serif" font-size="14.00">sweepai/handlers/on_ticket.py</text>
</g>
<!-- 2474dc83&#45;d6c9&#45;4095&#45;9ed9&#45;c258eb62d53b&#45;&gt;ed608921&#45;bc70&#45;4f4e&#45;a331&#45;16482b157696 -->
<g id="edge11" class="edge">
<title>2474dc83&#45;d6c9&#45;4095&#45;9ed9&#45;c258eb62d53b&#45;&gt;ed608921&#45;bc70&#45;4f4e&#45;a331&#45;16482b157696</title>
<path fill="none" stroke="black" d="M1435.74,-633.09C1458.14,-633.09 1480.53,-633.09 1502.93,-633.09"/>
<polygon fill="black" stroke="black" points="1502.92,-636.59 1512.92,-633.09 1502.92,-629.59 1502.92,-636.59"/>
</g>
<!-- 03a86e8a&#45;88a6&#45;4998&#45;99f7&#45;e8baca8bd457 -->
<g id="node5" class="node">
<title>03a86e8a&#45;88a6&#45;4998&#45;99f7&#45;e8baca8bd457</title>
<polygon fill="#ee0000" stroke="black" points="1068,-569.22 688,-569.22 688,-533.22 1068,-533.22 1068,-569.22"/>
<text text-anchor="middle" x="878" y="-547.52" font-family="Helvetica,sans-Serif" font-size="14.00">✗ Ran sandbox for `sweepai/handlers/on_ticket.py`.</text>
</g>
<!-- 2474dc83&#45;d6c9&#45;4095&#45;9ed9&#45;c258eb62d53b&#45;&gt;03a86e8a&#45;88a6&#45;4998&#45;99f7&#45;e8baca8bd457 -->
<g id="edge1" class="edge">
<title>2474dc83&#45;d6c9&#45;4095&#45;9ed9&#45;c258eb62d53b&#45;&gt;03a86e8a&#45;88a6&#45;4998&#45;99f7&#45;e8baca8bd457</title>
<path fill="none" stroke="black" stroke-dasharray="5,2" d="M1175.57,-611.94C1114.31,-599.64 1036.37,-584 975.63,-571.81"/>
<polygon fill="black" stroke="black" points="976.37,-568.19 965.88,-569.66 975,-575.05 976.37,-568.19"/>
</g>
<!-- 9d0dcc6f&#45;06ea&#45;4e15&#45;baa3&#45;c4fa4987a2f0 -->
<g id="node6" class="node">
<title>9d0dcc6f&#45;06ea&#45;4e15&#45;baa3&#45;c4fa4987a2f0</title>
<polygon fill="#ee0000" stroke="black" points="1466,-569.22 1086,-569.22 1086,-533.22 1466,-533.22 1466,-569.22"/>
<text text-anchor="middle" x="1276" y="-547.52" font-family="Helvetica,sans-Serif" font-size="14.00">✗ Ran sandbox for `sweepai/handlers/on_ticket.py`.</text>
</g>
<!-- 2474dc83&#45;d6c9&#45;4095&#45;9ed9&#45;c258eb62d53b&#45;&gt;9d0dcc6f&#45;06ea&#45;4e15&#45;baa3&#45;c4fa4987a2f0 -->
<g id="edge10" class="edge">
<title>2474dc83&#45;d6c9&#45;4095&#45;9ed9&#45;c258eb62d53b&#45;&gt;9d0dcc6f&#45;06ea&#45;4e15&#45;baa3&#45;c4fa4987a2f0</title>
<path fill="none" stroke="black" stroke-dasharray="5,2" d="M1276,-605.94C1276,-597.68 1276,-588.53 1276,-580.15"/>
<polygon fill="black" stroke="black" points="1279.5,-580.37 1276,-570.37 1272.5,-580.37 1279.5,-580.37"/>
</g>
<!-- ed608921&#45;bc70&#45;4f4e&#45;a331&#45;16482b157696&#45;&gt;end -->
<g id="edge23" class="edge">
<title>ed608921&#45;bc70&#45;4f4e&#45;a331&#45;16482b157696&#45;&gt;end</title>
<path fill="none" stroke="black" d="M1833.87,-633.09C1853.5,-633.09 1870.3,-633.09 1880.72,-633.09"/>
<polygon fill="black" stroke="black" points="1880.71,-636.59 1890.71,-633.09 1880.71,-629.59 1880.71,-636.59"/>
<text text-anchor="middle" x="1862.65" y="-639.89" font-family="Helvetica,sans-Serif" font-size="14.00">Finish</text>
</g>
<!-- 6c4aa635&#45;4ef4&#45;4dac&#45;b710&#45;d8f3a76e9eeb -->
<g id="node7" class="node">
<title>6c4aa635&#45;4ef4&#45;4dac&#45;b710&#45;d8f3a76e9eeb</title>
<polygon fill="#ee0000" stroke="black" points="1864,-569.22 1484,-569.22 1484,-533.22 1864,-533.22 1864,-569.22"/>
<text text-anchor="middle" x="1674" y="-547.52" font-family="Helvetica,sans-Serif" font-size="14.00">✗ Ran sandbox for `sweepai/handlers/on_ticket.py`.</text>
</g>
<!-- ed608921&#45;bc70&#45;4f4e&#45;a331&#45;16482b157696&#45;&gt;6c4aa635&#45;4ef4&#45;4dac&#45;b710&#45;d8f3a76e9eeb -->
<g id="edge12" class="edge">
<title>ed608921&#45;bc70&#45;4f4e&#45;a331&#45;16482b157696&#45;&gt;6c4aa635&#45;4ef4&#45;4dac&#45;b710&#45;d8f3a76e9eeb</title>
<path fill="none" stroke="black" stroke-dasharray="5,2" d="M1674,-605.94C1674,-597.68 1674,-588.53 1674,-580.15"/>
<polygon fill="black" stroke="black" points="1677.5,-580.37 1674,-570.37 1670.5,-580.37 1677.5,-580.37"/>
</g>
<!-- 8fdc59b2&#45;fc38&#45;44c0&#45;b6ac&#45;db40100b9d55 -->
<g id="node8" class="node">
<title>8fdc59b2&#45;fc38&#45;44c0&#45;b6ac&#45;db40100b9d55</title>
<polygon fill="white" stroke="black" points="2260,-569.22 1882,-569.22 1882,-533.22 2260,-533.22 2260,-569.22"/>
<text text-anchor="middle" x="2071" y="-547.52" font-family="Helvetica,sans-Serif" font-size="14.00">▶ Ran sandbox for `sweepai/handlers/on_ticket.py`.</text>
</g>
<!-- ed608921&#45;bc70&#45;4f4e&#45;a331&#45;16482b157696&#45;&gt;8fdc59b2&#45;fc38&#45;44c0&#45;b6ac&#45;db40100b9d55 -->
<g id="edge21" class="edge">
<title>ed608921&#45;bc70&#45;4f4e&#45;a331&#45;16482b157696&#45;&gt;8fdc59b2&#45;fc38&#45;44c0&#45;b6ac&#45;db40100b9d55</title>
<path fill="none" stroke="black" stroke-dasharray="5,2" d="M1774.44,-611.88C1835.44,-599.61 1912.94,-584.02 1973.42,-571.85"/>
<polygon fill="black" stroke="black" points="1974,-575.1 1983.12,-569.7 1972.62,-568.24 1974,-575.1"/>
</g>
<!-- e8c7c437&#45;6dc5&#45;4579&#45;a46d&#45;0f350f35c565 -->
<g id="node9" class="node">
<title>e8c7c437&#45;6dc5&#45;4579&#45;a46d&#45;0f350f35c565</title>
<ellipse fill="#0ee832" stroke="black" cx="878" cy="-455.35" rx="159.61" ry="26.74"/>
<text text-anchor="middle" x="878" y="-459.15" font-family="Helvetica,sans-Serif" font-size="14.00">✓ Modify</text>
<text text-anchor="middle" x="878" y="-444.15" font-family="Helvetica,sans-Serif" font-size="14.00">sweepai/handlers/on_ticket.py</text>
</g>
<!-- 03a86e8a&#45;88a6&#45;4998&#45;99f7&#45;e8baca8bd457&#45;&gt;e8c7c437&#45;6dc5&#45;4579&#45;a46d&#45;0f350f35c565 -->
<g id="edge2" class="edge">
<title>03a86e8a&#45;88a6&#45;4998&#45;99f7&#45;e8baca8bd457&#45;&gt;e8c7c437&#45;6dc5&#45;4579&#45;a46d&#45;0f350f35c565</title>
<path fill="none" stroke="black" d="M878,-533C878,-521.81 878,-506.79 878,-493.01"/>
<polygon fill="black" stroke="black" points="881.5,-493.32 878,-483.32 874.5,-493.32 881.5,-493.32"/>
<text text-anchor="middle" x="975.5" y="-504.02" font-family="Helvetica,sans-Serif" font-size="14.00">Additional changes required</text>
</g>
<!-- dc971c71&#45;8fb2&#45;449f&#45;82c0&#45;dccaa971aa9d -->
<g id="node10" class="node">
<title>dc971c71&#45;8fb2&#45;449f&#45;82c0&#45;dccaa971aa9d</title>
<ellipse fill="#0ee832" stroke="black" cx="1674" cy="-455.35" rx="159.61" ry="26.74"/>
<text text-anchor="middle" x="1674" y="-459.15" font-family="Helvetica,sans-Serif" font-size="14.00">✓ Modify</text>
<text text-anchor="middle" x="1674" y="-444.15" font-family="Helvetica,sans-Serif" font-size="14.00">sweepai/handlers/on_ticket.py</text>
</g>
<!-- 6c4aa635&#45;4ef4&#45;4dac&#45;b710&#45;d8f3a76e9eeb&#45;&gt;dc971c71&#45;8fb2&#45;449f&#45;82c0&#45;dccaa971aa9d -->
<g id="edge13" class="edge">
<title>6c4aa635&#45;4ef4&#45;4dac&#45;b710&#45;d8f3a76e9eeb&#45;&gt;dc971c71&#45;8fb2&#45;449f&#45;82c0&#45;dccaa971aa9d</title>
<path fill="none" stroke="black" d="M1674,-533C1674,-521.81 1674,-506.79 1674,-493.01"/>
<polygon fill="black" stroke="black" points="1677.5,-493.32 1674,-483.32 1670.5,-493.32 1677.5,-493.32"/>
<text text-anchor="middle" x="1771.5" y="-504.02" font-family="Helvetica,sans-Serif" font-size="14.00">Additional changes required</text>
</g>
<!-- 51ed0060&#45;5ddc&#45;4861&#45;ac15&#45;727156540dfd -->
<g id="node11" class="node">
<title>51ed0060&#45;5ddc&#45;4861&#45;ac15&#45;727156540dfd</title>
<polygon fill="#ee0000" stroke="black" points="700,-391.48 320,-391.48 320,-355.48 700,-355.48 700,-391.48"/>
<text text-anchor="middle" x="510" y="-369.78" font-family="Helvetica,sans-Serif" font-size="14.00">✗ Ran sandbox for `sweepai/handlers/on_ticket.py`.</text>
</g>
<!-- e8c7c437&#45;6dc5&#45;4579&#45;a46d&#45;0f350f35c565&#45;&gt;51ed0060&#45;5ddc&#45;4861&#45;ac15&#45;727156540dfd -->
<g id="edge3" class="edge">
<title>e8c7c437&#45;6dc5&#45;4579&#45;a46d&#45;0f350f35c565&#45;&gt;51ed0060&#45;5ddc&#45;4861&#45;ac15&#45;727156540dfd</title>
<path fill="none" stroke="black" stroke-dasharray="5,2" d="M782.27,-433.57C726.35,-421.44 656.18,-406.21 601.08,-394.25"/>
<polygon fill="black" stroke="black" points="602.14,-390.68 591.62,-391.98 600.65,-397.52 602.14,-390.68"/>
</g>
<!-- 3ebcd283&#45;2cd7&#45;497d&#45;a173&#45;0537e6b1e803 -->
<g id="node12" class="node">
<title>3ebcd283&#45;2cd7&#45;497d&#45;a173&#45;0537e6b1e803</title>
<polygon fill="#ee0000" stroke="black" points="1098,-391.48 718,-391.48 718,-355.48 1098,-355.48 1098,-391.48"/>
<text text-anchor="middle" x="908" y="-369.78" font-family="Helvetica,sans-Serif" font-size="14.00">✗ Ran sandbox for `sweepai/handlers/on_ticket.py`.</text>
</g>
<!-- e8c7c437&#45;6dc5&#45;4579&#45;a46d&#45;0f350f35c565&#45;&gt;3ebcd283&#45;2cd7&#45;497d&#45;a173&#45;0537e6b1e803 -->
<g id="edge9" class="edge">
<title>e8c7c437&#45;6dc5&#45;4579&#45;a46d&#45;0f350f35c565&#45;&gt;3ebcd283&#45;2cd7&#45;497d&#45;a173&#45;0537e6b1e803</title>
<path fill="none" stroke="black" stroke-dasharray="5,2" d="M887.82,-428.2C891,-419.75 894.52,-410.37 897.72,-401.84"/>
<polygon fill="black" stroke="black" points="901.32,-403.22 901.56,-392.63 894.77,-400.76 901.32,-403.22"/>
</g>
<!-- 0f821eab&#45;38df&#45;405a&#45;bdc5&#45;7158f590198b -->
<g id="node13" class="node">
<title>0f821eab&#45;38df&#45;405a&#45;bdc5&#45;7158f590198b</title>
<polygon fill="#ee0000" stroke="black" points="1555,-391.48 1175,-391.48 1175,-355.48 1555,-355.48 1555,-391.48"/>
<text text-anchor="middle" x="1365" y="-369.78" font-family="Helvetica,sans-Serif" font-size="14.00">✗ Ran sandbox for `sweepai/handlers/on_ticket.py`.</text>
</g>
<!-- dc971c71&#45;8fb2&#45;449f&#45;82c0&#45;dccaa971aa9d&#45;&gt;0f821eab&#45;38df&#45;405a&#45;bdc5&#45;7158f590198b -->
<g id="edge14" class="edge">
<title>dc971c71&#45;8fb2&#45;449f&#45;82c0&#45;dccaa971aa9d&#45;&gt;0f821eab&#45;38df&#45;405a&#45;bdc5&#45;7158f590198b</title>
<path fill="none" stroke="black" stroke-dasharray="5,2" d="M1588.75,-432.31C1543.18,-420.54 1487.49,-406.14 1443.07,-394.66"/>
<polygon fill="black" stroke="black" points="1444.17,-391.07 1433.61,-391.96 1442.42,-397.85 1444.17,-391.07"/>
</g>
<!-- 034de01f&#45;4ca3&#45;4c5f&#45;b21a&#45;8bb127222766 -->
<g id="node14" class="node">
<title>034de01f&#45;4ca3&#45;4c5f&#45;b21a&#45;8bb127222766</title>
<polygon fill="white" stroke="black" points="1951,-391.48 1573,-391.48 1573,-355.48 1951,-355.48 1951,-391.48"/>
<text text-anchor="middle" x="1762" y="-369.78" font-family="Helvetica,sans-Serif" font-size="14.00">▶ Ran sandbox for `sweepai/handlers/on_ticket.py`.</text>
</g>
<!-- dc971c71&#45;8fb2&#45;449f&#45;82c0&#45;dccaa971aa9d&#45;&gt;034de01f&#45;4ca3&#45;4c5f&#45;b21a&#45;8bb127222766 -->
<g id="edge20" class="edge">
<title>dc971c71&#45;8fb2&#45;449f&#45;82c0&#45;dccaa971aa9d&#45;&gt;034de01f&#45;4ca3&#45;4c5f&#45;b21a&#45;8bb127222766</title>
<path fill="none" stroke="black" stroke-dasharray="5,2" d="M1702.33,-428.64C1712.79,-419.14 1724.62,-408.4 1734.97,-399.01"/>
<polygon fill="black" stroke="black" points="1736.85,-402.13 1741.9,-392.82 1732.14,-396.95 1736.85,-402.13"/>
</g>
<!-- 9da2e3ed&#45;dd7f&#45;426d&#45;8681&#45;9b881753bdcf -->
<g id="node15" class="node">
<title>9da2e3ed&#45;dd7f&#45;426d&#45;8681&#45;9b881753bdcf</title>
<ellipse fill="#0ee832" stroke="black" cx="510" cy="-277.61" rx="159.61" ry="26.74"/>
<text text-anchor="middle" x="510" y="-281.41" font-family="Helvetica,sans-Serif" font-size="14.00">✓ Modify</text>
<text text-anchor="middle" x="510" y="-266.41" font-family="Helvetica,sans-Serif" font-size="14.00">sweepai/handlers/on_ticket.py</text>
</g>
<!-- 51ed0060&#45;5ddc&#45;4861&#45;ac15&#45;727156540dfd&#45;&gt;9da2e3ed&#45;dd7f&#45;426d&#45;8681&#45;9b881753bdcf -->
<g id="edge4" class="edge">
<title>51ed0060&#45;5ddc&#45;4861&#45;ac15&#45;727156540dfd&#45;&gt;9da2e3ed&#45;dd7f&#45;426d&#45;8681&#45;9b881753bdcf</title>
<path fill="none" stroke="black" d="M510,-355.26C510,-344.07 510,-329.05 510,-315.27"/>
<polygon fill="black" stroke="black" points="513.5,-315.58 510,-305.58 506.5,-315.58 513.5,-315.58"/>
<text text-anchor="middle" x="607.5" y="-326.28" font-family="Helvetica,sans-Serif" font-size="14.00">Additional changes required</text>
</g>
<!-- b7eb1dbc&#45;f691&#45;4994&#45;9de8&#45;fe4d5d1ff6a7 -->
<g id="node16" class="node">
<title>b7eb1dbc&#45;f691&#45;4994&#45;9de8&#45;fe4d5d1ff6a7</title>
<ellipse fill="#0ee832" stroke="black" cx="1365" cy="-277.61" rx="115.02" ry="26.74"/>
<text text-anchor="middle" x="1365" y="-281.41" font-family="Helvetica,sans-Serif" font-size="14.00">✓ Modify</text>
<text text-anchor="middle" x="1365" y="-266.41" font-family="Helvetica,sans-Serif" font-size="14.00">sweepai/core/chat.py</text>
</g>
<!-- 0f821eab&#45;38df&#45;405a&#45;bdc5&#45;7158f590198b&#45;&gt;b7eb1dbc&#45;f691&#45;4994&#45;9de8&#45;fe4d5d1ff6a7 -->
<g id="edge15" class="edge">
<title>0f821eab&#45;38df&#45;405a&#45;bdc5&#45;7158f590198b&#45;&gt;b7eb1dbc&#45;f691&#45;4994&#45;9de8&#45;fe4d5d1ff6a7</title>
<path fill="none" stroke="black" d="M1365,-355.26C1365,-344.07 1365,-329.05 1365,-315.27"/>
<polygon fill="black" stroke="black" points="1368.5,-315.58 1365,-305.58 1361.5,-315.58 1368.5,-315.58"/>
<text text-anchor="middle" x="1462.5" y="-326.28" font-family="Helvetica,sans-Serif" font-size="14.00">Additional changes required</text>
</g>
<!-- 9d3c4d9b&#45;f3cb&#45;42b9&#45;874f&#45;86eae8c8baf5 -->
<g id="node17" class="node">
<title>9d3c4d9b&#45;f3cb&#45;42b9&#45;874f&#45;86eae8c8baf5</title>
<polygon fill="#ee0000" stroke="black" points="380,-213.74 0,-213.74 0,-177.74 380,-177.74 380,-213.74"/>
<text text-anchor="middle" x="190" y="-192.04" font-family="Helvetica,sans-Serif" font-size="14.00">✗ Ran sandbox for `sweepai/handlers/on_ticket.py`.</text>
</g>
<!-- 9da2e3ed&#45;dd7f&#45;426d&#45;8681&#45;9b881753bdcf&#45;&gt;9d3c4d9b&#45;f3cb&#45;42b9&#45;874f&#45;86eae8c8baf5 -->
<g id="edge5" class="edge">
<title>9da2e3ed&#45;dd7f&#45;426d&#45;8681&#45;9b881753bdcf&#45;&gt;9d3c4d9b&#45;f3cb&#45;42b9&#45;874f&#45;86eae8c8baf5</title>
<path fill="none" stroke="black" stroke-dasharray="5,2" d="M422.98,-254.89C375.51,-243.04 317.12,-228.47 270.67,-216.88"/>
<polygon fill="black" stroke="black" points="271.6,-213.25 261.05,-214.22 269.9,-220.04 271.6,-213.25"/>
</g>
<!-- d025db31&#45;73be&#45;4267&#45;aae1&#45;a34cdb2f4d5f -->
<g id="node18" class="node">
<title>d025db31&#45;73be&#45;4267&#45;aae1&#45;a34cdb2f4d5f</title>
<polygon fill="#ee0000" stroke="black" points="778,-213.74 398,-213.74 398,-177.74 778,-177.74 778,-213.74"/>
<text text-anchor="middle" x="588" y="-192.04" font-family="Helvetica,sans-Serif" font-size="14.00">✗ Ran sandbox for `sweepai/handlers/on_ticket.py`.</text>
</g>
<!-- 9da2e3ed&#45;dd7f&#45;426d&#45;8681&#45;9b881753bdcf&#45;&gt;d025db31&#45;73be&#45;4267&#45;aae1&#45;a34cdb2f4d5f -->
<g id="edge8" class="edge">
<title>9da2e3ed&#45;dd7f&#45;426d&#45;8681&#45;9b881753bdcf&#45;&gt;d025db31&#45;73be&#45;4267&#45;aae1&#45;a34cdb2f4d5f</title>
<path fill="none" stroke="black" stroke-dasharray="5,2" d="M535.11,-250.9C544.2,-241.59 554.45,-231.09 563.5,-221.83"/>
<polygon fill="black" stroke="black" points="565.59,-224.68 570.07,-215.08 560.58,-219.79 565.59,-224.68"/>
</g>
<!-- 19234e28&#45;51ba&#45;44c4&#45;bb04&#45;6d8664af6275 -->
<g id="node19" class="node">
<title>19234e28&#45;51ba&#45;44c4&#45;bb04&#45;6d8664af6275</title>
<polygon fill="#ee0000" stroke="black" points="1222.5,-213.74 905.5,-213.74 905.5,-177.74 1222.5,-177.74 1222.5,-213.74"/>
<text text-anchor="middle" x="1064" y="-192.04" font-family="Helvetica,sans-Serif" font-size="14.00">✗ Ran sandbox for `sweepai/core/chat.py`.</text>
</g>
<!-- b7eb1dbc&#45;f691&#45;4994&#45;9de8&#45;fe4d5d1ff6a7&#45;&gt;19234e28&#45;51ba&#45;44c4&#45;bb04&#45;6d8664af6275 -->
<g id="edge16" class="edge">
<title>b7eb1dbc&#45;f691&#45;4994&#45;9de8&#45;fe4d5d1ff6a7&#45;&gt;19234e28&#45;51ba&#45;44c4&#45;bb04&#45;6d8664af6275</title>
<path fill="none" stroke="black" stroke-dasharray="5,2" d="M1290.6,-256.87C1244.89,-244.74 1186.47,-229.24 1140.4,-217.01"/>
<polygon fill="black" stroke="black" points="1141.44,-213.4 1130.87,-214.22 1139.64,-220.17 1141.44,-213.4"/>
</g>
<!-- e2d8c48a&#45;8191&#45;4eb2&#45;b84a&#45;fd9baa51b215 -->
<g id="node20" class="node">
<title>e2d8c48a&#45;8191&#45;4eb2&#45;b84a&#45;fd9baa51b215</title>
<polygon fill="white" stroke="black" points="1555.5,-213.74 1240.5,-213.74 1240.5,-177.74 1555.5,-177.74 1555.5,-213.74"/>
<text text-anchor="middle" x="1398" y="-192.04" font-family="Helvetica,sans-Serif" font-size="14.00">▶ Ran sandbox for `sweepai/core/chat.py`.</text>
</g>
<!-- b7eb1dbc&#45;f691&#45;4994&#45;9de8&#45;fe4d5d1ff6a7&#45;&gt;e2d8c48a&#45;8191&#45;4eb2&#45;b84a&#45;fd9baa51b215 -->
<g id="edge19" class="edge">
<title>b7eb1dbc&#45;f691&#45;4994&#45;9de8&#45;fe4d5d1ff6a7&#45;&gt;e2d8c48a&#45;8191&#45;4eb2&#45;b84a&#45;fd9baa51b215</title>
<path fill="none" stroke="black" stroke-dasharray="5,2" d="M1375.62,-250.9C1379.16,-242.34 1383.11,-232.78 1386.7,-224.1"/>
<polygon fill="black" stroke="black" points="1390.25,-225.66 1390.84,-215.08 1383.78,-222.98 1390.25,-225.66"/>
</g>
<!-- fb43e704&#45;8398&#45;4fab&#45;a423&#45;caf6360e255c -->
<g id="node21" class="node">
<title>fb43e704&#45;8398&#45;4fab&#45;a423&#45;caf6360e255c</title>
<ellipse fill="#ee0000" stroke="black" cx="190" cy="-99.87" rx="159.61" ry="26.74"/>
<text text-anchor="middle" x="190" y="-103.67" font-family="Helvetica,sans-Serif" font-size="14.00">✗ Modify</text>
<text text-anchor="middle" x="190" y="-88.67" font-family="Helvetica,sans-Serif" font-size="14.00">sweepai/handlers/on_ticket.py</text>
</g>
<!-- 9d3c4d9b&#45;f3cb&#45;42b9&#45;874f&#45;86eae8c8baf5&#45;&gt;fb43e704&#45;8398&#45;4fab&#45;a423&#45;caf6360e255c -->
<g id="edge6" class="edge">
<title>9d3c4d9b&#45;f3cb&#45;42b9&#45;874f&#45;86eae8c8baf5&#45;&gt;fb43e704&#45;8398&#45;4fab&#45;a423&#45;caf6360e255c</title>
<path fill="none" stroke="black" d="M190,-177.52C190,-166.33 190,-151.31 190,-137.53"/>
<polygon fill="black" stroke="black" points="193.5,-137.84 190,-127.84 186.5,-137.84 193.5,-137.84"/>
<text text-anchor="middle" x="287.5" y="-148.54" font-family="Helvetica,sans-Serif" font-size="14.00">Additional changes required</text>
</g>
<!-- ec46b7d3&#45;affc&#45;4a58&#45;b6af&#45;bf2b1e9fc8d2 -->
<g id="node22" class="node">
<title>ec46b7d3&#45;affc&#45;4a58&#45;b6af&#45;bf2b1e9fc8d2</title>
<ellipse fill="yellow" stroke="black" cx="1064" cy="-99.87" rx="167.67" ry="26.74"/>
<text text-anchor="middle" x="1064" y="-103.67" font-family="Helvetica,sans-Serif" font-size="14.00">⋯ Create</text>
<text text-anchor="middle" x="1064" y="-88.67" font-family="Helvetica,sans-Serif" font-size="14.00">CI/CD pipeline configuration file</text>
</g>
<!-- 19234e28&#45;51ba&#45;44c4&#45;bb04&#45;6d8664af6275&#45;&gt;ec46b7d3&#45;affc&#45;4a58&#45;b6af&#45;bf2b1e9fc8d2 -->
<g id="edge17" class="edge">
<title>19234e28&#45;51ba&#45;44c4&#45;bb04&#45;6d8664af6275&#45;&gt;ec46b7d3&#45;affc&#45;4a58&#45;b6af&#45;bf2b1e9fc8d2</title>
<path fill="none" stroke="black" d="M1064,-177.52C1064,-166.33 1064,-151.31 1064,-137.53"/>
<polygon fill="black" stroke="black" points="1067.5,-137.84 1064,-127.84 1060.5,-137.84 1067.5,-137.84"/>
<text text-anchor="middle" x="1161.5" y="-148.54" font-family="Helvetica,sans-Serif" font-size="14.00">Additional changes required</text>
</g>
<!-- 95a397a4&#45;07e2&#45;48ff&#45;bc4c&#45;e69267d0322f -->
<g id="node23" class="node">
<title>95a397a4&#45;07e2&#45;48ff&#45;bc4c&#45;e69267d0322f</title>
<polygon fill="#ee0000" stroke="black" points="380,-36 0,-36 0,0 380,0 380,-36"/>
<text text-anchor="middle" x="190" y="-14.3" font-family="Helvetica,sans-Serif" font-size="14.00">✗ Ran sandbox for `sweepai/handlers/on_ticket.py`.</text>
</g>
<!-- fb43e704&#45;8398&#45;4fab&#45;a423&#45;caf6360e255c&#45;&gt;95a397a4&#45;07e2&#45;48ff&#45;bc4c&#45;e69267d0322f -->
<g id="edge7" class="edge">
<title>fb43e704&#45;8398&#45;4fab&#45;a423&#45;caf6360e255c&#45;&gt;95a397a4&#45;07e2&#45;48ff&#45;bc4c&#45;e69267d0322f</title>
<path fill="none" stroke="black" stroke-dasharray="5,2" d="M190,-72.72C190,-64.46 190,-55.31 190,-46.93"/>
<polygon fill="black" stroke="black" points="193.5,-47.15 190,-37.15 186.5,-47.15 193.5,-47.15"/>
</g>
<!-- 26e78ab3&#45;f106&#45;4c89&#45;9655&#45;0ec6ff6f06a4 -->
<g id="node24" class="node">
<title>26e78ab3&#45;f106&#45;4c89&#45;9655&#45;0ec6ff6f06a4</title>
<polygon fill="white" stroke="black" points="1258.5,-36 869.5,-36 869.5,0 1258.5,0 1258.5,-36"/>
<text text-anchor="middle" x="1064" y="-14.3" font-family="Helvetica,sans-Serif" font-size="14.00">▶ Ran sandbox for `CI/CD pipeline configuration file`.</text>
</g>
<!-- ec46b7d3&#45;affc&#45;4a58&#45;b6af&#45;bf2b1e9fc8d2&#45;&gt;26e78ab3&#45;f106&#45;4c89&#45;9655&#45;0ec6ff6f06a4 -->
<g id="edge18" class="edge">
<title>ec46b7d3&#45;affc&#45;4a58&#45;b6af&#45;bf2b1e9fc8d2&#45;&gt;26e78ab3&#45;f106&#45;4c89&#45;9655&#45;0ec6ff6f06a4</title>
<path fill="none" stroke="black" stroke-dasharray="5,2" d="M1064,-72.72C1064,-64.46 1064,-55.31 1064,-46.93"/>
<polygon fill="black" stroke="black" points="1067.5,-47.15 1064,-37.15 1060.5,-47.15 1067.5,-47.15"/>
</g>
</g>
</svg>
