<?xml version="1.0" encoding="UTF-8" standalone="no"?>
<!DOCTYPE svg PUBLIC "-//W3C//DTD SVG 1.1//EN"
 "http://www.w3.org/Graphics/SVG/1.1/DTD/svg11.dtd">
<!-- Generated by graphviz version 2.43.0 (0)
 -->
<!-- Title: %3 Pages: 1 -->
<svg width="2105pt" height="240pt"
 viewBox="0.00 0.00 2105.00 239.74" xmlns="http://www.w3.org/2000/svg" xmlns:xlink="http://www.w3.org/1999/xlink">
<g id="graph0" class="graph" transform="scale(1 1) rotate(0) translate(36 203.74)">
<title>%3</title>
<polygon fill="white" stroke="transparent" points="-36,36 -36,-203.74 2069,-203.74 2069,36 -36,36"/>
<text text-anchor="middle" x="1016.5" y="-152.54" font-family="Times,serif" font-size="14.00">Sweep&#39;s Plan &amp; Progress</text>
<!-- start -->
<g id="node1" class="node">
<title>start</title>
</g>
<!-- 44268e5e&#45;b7ba&#45;4f49&#45;8562&#45;ca0da50cd37d -->
<g id="node3" class="node">
<title>44268e5e&#45;b7ba&#45;4f49&#45;8562&#45;ca0da50cd37d</title>
<ellipse fill="red" stroke="black" cx="1016.5" cy="-101.87" rx="194.41" ry="26.74"/>
<text text-anchor="middle" x="1016.5" y="-105.67" font-family="Times,serif" font-size="14.00">✗ Modify</text>
<text text-anchor="middle" x="1016.5" y="-90.67" font-family="Times,serif" font-size="14.00">sweepai/utils/comment_utils_test.py</text>
</g>
<!-- start&#45;&gt;44268e5e&#45;b7ba&#45;4f49&#45;8562&#45;ca0da50cd37d -->
<g id="edge8" class="edge">
<title>start&#45;&gt;44268e5e&#45;b7ba&#45;4f49&#45;8562&#45;ca0da50cd37d</title>
<path fill="none" stroke="black" d="M768.21,-101.87C771.78,-101.87 788.44,-101.87 811.57,-101.87"/>
<polygon fill="black" stroke="black" points="811.86,-105.37 821.86,-101.87 811.86,-98.37 811.86,-105.37"/>
<text text-anchor="middle" x="795.02" y="-108.67" font-family="Times,serif" font-size="14.00">Start</text>
</g>
<!-- end -->
<g id="node2" class="node">
<title>end</title>
</g>
<!-- 44268e5e&#45;b7ba&#45;4f49&#45;8562&#45;ca0da50cd37d&#45;&gt;end -->
<g id="edge9" class="edge">
<title>44268e5e&#45;b7ba&#45;4f49&#45;8562&#45;ca0da50cd37d&#45;&gt;end</title>
<path fill="none" stroke="black" d="M1210.96,-101.87C1233.14,-101.87 1251.73,-101.87 1262.73,-101.87"/>
<polygon fill="black" stroke="black" points="1262.81,-105.37 1272.81,-101.87 1262.81,-98.37 1262.81,-105.37"/>
<text text-anchor="middle" x="1241.98" y="-108.67" font-family="Times,serif" font-size="14.00">Finish</text>
</g>
<!-- 101e5dff&#45;c661&#45;40d9&#45;bb9b&#45;4fb7b0b5ea43 -->
<g id="node4" class="node">
<title>101e5dff&#45;c661&#45;40d9&#45;bb9b&#45;4fb7b0b5ea43</title>
<polygon fill="red" stroke="black" points="275,-38 0,-38 0,0 275,0 275,-38"/>
<text text-anchor="middle" x="137.5" y="-22.8" font-family="Times,serif" font-size="14.00">✗ Check</text>
<text text-anchor="middle" x="137.5" y="-7.8" font-family="Times,serif" font-size="14.00">sweepai/utils/comment_utils_test.py</text>
</g>
<!-- 44268e5e&#45;b7ba&#45;4f49&#45;8562&#45;ca0da50cd37d&#45;&gt;101e5dff&#45;c661&#45;40d9&#45;bb9b&#45;4fb7b0b5ea43 -->
<g id="edge1" class="edge">
<title>44268e5e&#45;b7ba&#45;4f49&#45;8562&#45;ca0da50cd37d&#45;&gt;101e5dff&#45;c661&#45;40d9&#45;bb9b&#45;4fb7b0b5ea43</title>
<path fill="none" stroke="black" stroke-dasharray="5,2" d="M869.34,-84.24C838.68,-80.99 806.55,-77.75 776.5,-75 561,-55.3 503.87,-59.54 285.23,-38.15"/>
<polygon fill="black" stroke="black" points="285.33,-34.64 275.03,-37.14 284.64,-41.61 285.33,-34.64"/>
</g>
<!-- b5517287&#45;62a7&#45;42a3&#45;9220&#45;ff2054d58972 -->
<g id="node5" class="node">
<title>b5517287&#45;62a7&#45;42a3&#45;9220&#45;ff2054d58972</title>
<polygon fill="red" stroke="black" points="568,-38 293,-38 293,0 568,0 568,-38"/>
<text text-anchor="middle" x="430.5" y="-22.8" font-family="Times,serif" font-size="14.00">✗ Check</text>
<text text-anchor="middle" x="430.5" y="-7.8" font-family="Times,serif" font-size="14.00">sweepai/utils/comment_utils_test.py</text>
</g>
<!-- 44268e5e&#45;b7ba&#45;4f49&#45;8562&#45;ca0da50cd37d&#45;&gt;b5517287&#45;62a7&#45;42a3&#45;9220&#45;ff2054d58972 -->
<g id="edge2" class="edge">
<title>44268e5e&#45;b7ba&#45;4f49&#45;8562&#45;ca0da50cd37d&#45;&gt;b5517287&#45;62a7&#45;42a3&#45;9220&#45;ff2054d58972</title>
<path fill="none" stroke="black" stroke-dasharray="5,2" d="M882.43,-82.37C789.27,-69.51 665.37,-52.41 570.87,-39.37"/>
<polygon fill="black" stroke="black" points="571.33,-35.9 560.95,-38 570.38,-42.84 571.33,-35.9"/>
</g>
<!-- a8092f3d&#45;2e9e&#45;4a9b&#45;9a72&#45;9449cf8d0a78 -->
<g id="node6" class="node">
<title>a8092f3d&#45;2e9e&#45;4a9b&#45;9a72&#45;9449cf8d0a78</title>
<polygon fill="red" stroke="black" points="861,-38 586,-38 586,0 861,0 861,-38"/>
<text text-anchor="middle" x="723.5" y="-22.8" font-family="Times,serif" font-size="14.00">✗ Check</text>
<text text-anchor="middle" x="723.5" y="-7.8" font-family="Times,serif" font-size="14.00">sweepai/utils/comment_utils_test.py</text>
</g>
<!-- 44268e5e&#45;b7ba&#45;4f49&#45;8562&#45;ca0da50cd37d&#45;&gt;a8092f3d&#45;2e9e&#45;4a9b&#45;9a72&#45;9449cf8d0a78 -->
<g id="edge3" class="edge">
<title>44268e5e&#45;b7ba&#45;4f49&#45;8562&#45;ca0da50cd37d&#45;&gt;a8092f3d&#45;2e9e&#45;4a9b&#45;9a72&#45;9449cf8d0a78</title>
<path fill="none" stroke="black" stroke-dasharray="5,2" d="M932.15,-77.59C890.13,-65.99 839.75,-52.09 799.02,-40.84"/>
<polygon fill="black" stroke="black" points="799.72,-37.41 789.15,-38.12 797.86,-44.15 799.72,-37.41"/>
</g>
<!-- 62091956&#45;87a2&#45;4a14&#45;822d&#45;0a831c5a93fc -->
<g id="node7" class="node">
<title>62091956&#45;87a2&#45;4a14&#45;822d&#45;0a831c5a93fc</title>
<polygon fill="red" stroke="black" points="1154,-38 879,-38 879,0 1154,0 1154,-38"/>
<text text-anchor="middle" x="1016.5" y="-22.8" font-family="Times,serif" font-size="14.00">✗ Check</text>
<text text-anchor="middle" x="1016.5" y="-7.8" font-family="Times,serif" font-size="14.00">sweepai/utils/comment_utils_test.py</text>
</g>
<!-- 44268e5e&#45;b7ba&#45;4f49&#45;8562&#45;ca0da50cd37d&#45;&gt;62091956&#45;87a2&#45;4a14&#45;822d&#45;0a831c5a93fc -->
<g id="edge4" class="edge">
<title>44268e5e&#45;b7ba&#45;4f49&#45;8562&#45;ca0da50cd37d&#45;&gt;62091956&#45;87a2&#45;4a14&#45;822d&#45;0a831c5a93fc</title>
<path fill="none" stroke="black" stroke-dasharray="5,2" d="M1016.5,-74.84C1016.5,-66.3 1016.5,-56.78 1016.5,-48.1"/>
<polygon fill="black" stroke="black" points="1020,-48.05 1016.5,-38.05 1013,-48.05 1020,-48.05"/>
</g>
<!-- 3b187acc&#45;eeae&#45;4eef&#45;bb27&#45;d85d776b2f7b -->
<g id="node8" class="node">
<title>3b187acc&#45;eeae&#45;4eef&#45;bb27&#45;d85d776b2f7b</title>
<polygon fill="red" stroke="black" points="1447,-38 1172,-38 1172,0 1447,0 1447,-38"/>
<text text-anchor="middle" x="1309.5" y="-22.8" font-family="Times,serif" font-size="14.00">✗ Check</text>
<text text-anchor="middle" x="1309.5" y="-7.8" font-family="Times,serif" font-size="14.00">sweepai/utils/comment_utils_test.py</text>
</g>
<!-- 44268e5e&#45;b7ba&#45;4f49&#45;8562&#45;ca0da50cd37d&#45;&gt;3b187acc&#45;eeae&#45;4eef&#45;bb27&#45;d85d776b2f7b -->
<g id="edge5" class="edge">
<title>44268e5e&#45;b7ba&#45;4f49&#45;8562&#45;ca0da50cd37d&#45;&gt;3b187acc&#45;eeae&#45;4eef&#45;bb27&#45;d85d776b2f7b</title>
<path fill="none" stroke="black" stroke-dasharray="5,2" d="M1100.85,-77.59C1142.87,-65.99 1193.25,-52.09 1233.98,-40.84"/>
<polygon fill="black" stroke="black" points="1235.14,-44.15 1243.85,-38.12 1233.28,-37.41 1235.14,-44.15"/>
</g>
<!-- dd7511dd&#45;febf&#45;4559&#45;8b59&#45;1b204579691a -->
<g id="node9" class="node">
<title>dd7511dd&#45;febf&#45;4559&#45;8b59&#45;1b204579691a</title>
<polygon fill="red" stroke="black" points="1740,-38 1465,-38 1465,0 1740,0 1740,-38"/>
<text text-anchor="middle" x="1602.5" y="-22.8" font-family="Times,serif" font-size="14.00">✗ Check</text>
<text text-anchor="middle" x="1602.5" y="-7.8" font-family="Times,serif" font-size="14.00">sweepai/utils/comment_utils_test.py</text>
</g>
<!-- 44268e5e&#45;b7ba&#45;4f49&#45;8562&#45;ca0da50cd37d&#45;&gt;dd7511dd&#45;febf&#45;4559&#45;8b59&#45;1b204579691a -->
<g id="edge6" class="edge">
<title>44268e5e&#45;b7ba&#45;4f49&#45;8562&#45;ca0da50cd37d&#45;&gt;dd7511dd&#45;febf&#45;4559&#45;8b59&#45;1b204579691a</title>
<path fill="none" stroke="black" stroke-dasharray="5,2" d="M1150.57,-82.37C1243.73,-69.51 1367.63,-52.41 1462.13,-39.37"/>
<polygon fill="black" stroke="black" points="1462.62,-42.84 1472.05,-38 1461.67,-35.9 1462.62,-42.84"/>
</g>
<!-- 842fee69&#45;0e81&#45;4eaa&#45;af03&#45;a30ddb57702f -->
<g id="node10" class="node">
<title>842fee69&#45;0e81&#45;4eaa&#45;af03&#45;a30ddb57702f</title>
<polygon fill="yellow" stroke="black" points="2033,-38 1758,-38 1758,0 2033,0 2033,-38"/>
<text text-anchor="middle" x="1895.5" y="-22.8" font-family="Times,serif" font-size="14.00">⋯ Check</text>
<text text-anchor="middle" x="1895.5" y="-7.8" font-family="Times,serif" font-size="14.00">sweepai/utils/comment_utils_test.py</text>
</g>
<!-- 44268e5e&#45;b7ba&#45;4f49&#45;8562&#45;ca0da50cd37d&#45;&gt;842fee69&#45;0e81&#45;4eaa&#45;af03&#45;a30ddb57702f -->
<g id="edge7" class="edge">
<title>44268e5e&#45;b7ba&#45;4f49&#45;8562&#45;ca0da50cd37d&#45;&gt;842fee69&#45;0e81&#45;4eaa&#45;af03&#45;a30ddb57702f</title>
<path fill="none" stroke="black" stroke-dasharray="5,2" d="M1165.66,-84.56C1197.91,-81.23 1231.83,-77.87 1263.5,-75 1475.54,-55.81 1531.69,-59.25 1747.73,-38.05"/>
<polygon fill="black" stroke="black" points="1748.2,-41.52 1757.81,-37.05 1747.51,-34.55 1748.2,-41.52"/>
</g>
</g>
</svg>
