<svg width="2130" height="1200" viewBox="0 0 2130 1200" fill="none" xmlns="http://www.w3.org/2000/svg">
<rect width="2130" height="1200" fill="#0A0A0B"/>
<mask id="path-1-inside-1_459_1821" fill="white">
<path fill-rule="evenodd" clip-rule="evenodd" d="M469.363 545.454C480.989 545.924 491.319 545.414 500.426 544.277C496.798 575.279 488.079 605.928 474.108 634.918C471.095 633.238 468.173 631.304 465.369 629.114C461.27 625.912 457.642 622.331 454.496 618.459C458.386 626.01 461.359 633.948 463.395 642.098C454.171 653.591 443.087 662.742 430.913 669.456C396.446 657.085 372.442 628.125 372.442 586.261C372.442 562.432 380.219 540.494 393.275 523.044C404.528 531.238 428.248 543.792 469.363 545.454ZM476.77 676.136C528.484 674.987 563.808 656.472 588.995 586.261C561.046 586.261 554.286 566.012 546.762 543.472C545.484 539.643 544.183 535.748 542.753 531.875C535.797 535.493 526 539.443 513.031 542.178C509.295 575.517 499.68 608.472 483.984 639.419C492.134 642.362 500.683 643.659 509.152 643.368C496.808 649.032 485.373 657.063 475.574 667.373C476.045 670.284 476.444 673.206 476.77 676.136ZM436.205 581.934C436.205 575.826 441.157 570.874 447.266 570.874C453.374 570.874 458.326 575.826 458.326 581.934V593.796C458.326 599.905 453.374 604.857 447.266 604.857C441.157 604.857 436.205 599.905 436.205 593.796V581.934ZM402.989 570.874C397.411 570.874 392.89 575.395 392.89 580.973V594.758C392.89 600.336 397.411 604.857 402.989 604.857C408.566 604.857 413.088 600.336 413.088 594.758V580.973C413.088 575.395 408.566 570.874 402.989 570.874Z"/>
</mask>
<path fill-rule="evenodd" clip-rule="evenodd" d="M469.363 545.454C480.989 545.924 491.319 545.414 500.426 544.277C496.798 575.279 488.079 605.928 474.108 634.918C471.095 633.238 468.173 631.304 465.369 629.114C461.27 625.912 457.642 622.331 454.496 618.459C458.386 626.01 461.359 633.948 463.395 642.098C454.171 653.591 443.087 662.742 430.913 669.456C396.446 657.085 372.442 628.125 372.442 586.261C372.442 562.432 380.219 540.494 393.275 523.044C404.528 531.238 428.248 543.792 469.363 545.454ZM476.77 676.136C528.484 674.987 563.808 656.472 588.995 586.261C561.046 586.261 554.286 566.012 546.762 543.472C545.484 539.643 544.183 535.748 542.753 531.875C535.797 535.493 526 539.443 513.031 542.178C509.295 575.517 499.68 608.472 483.984 639.419C492.134 642.362 500.683 643.659 509.152 643.368C496.808 649.032 485.373 657.063 475.574 667.373C476.045 670.284 476.444 673.206 476.77 676.136ZM436.205 581.934C436.205 575.826 441.157 570.874 447.266 570.874C453.374 570.874 458.326 575.826 458.326 581.934V593.796C458.326 599.905 453.374 604.857 447.266 604.857C441.157 604.857 436.205 599.905 436.205 593.796V581.934ZM402.989 570.874C397.411 570.874 392.89 575.395 392.89 580.973V594.758C392.89 600.336 397.411 604.857 402.989 604.857C408.566 604.857 413.088 600.336 413.088 594.758V580.973C413.088 575.395 408.566 570.874 402.989 570.874Z" fill="white"/>
<path d="M500.426 544.277L504.357 544.737L504.944 539.725L499.936 540.35L500.426 544.277ZM469.363 545.454L469.203 549.408L469.363 545.454ZM474.108 634.918L472.181 638.374L475.85 640.42L477.674 636.636L474.108 634.918ZM465.369 629.114L462.933 632.233L462.933 632.233L465.369 629.114ZM454.496 618.459L457.567 615.963L450.978 620.271L454.496 618.459ZM463.395 642.098L466.481 644.576L467.71 643.044L467.235 641.139L463.395 642.098ZM430.913 669.456L429.576 673.18L431.258 673.784L432.824 672.921L430.913 669.456ZM372.442 586.261L368.485 586.261L372.442 586.261ZM393.275 523.044L395.605 519.845L392.447 517.546L390.107 520.674L393.275 523.044ZM476.77 676.136L472.836 676.574L473.237 680.173L476.858 680.092L476.77 676.136ZM588.995 586.261L592.72 587.597L594.619 582.303H588.995V586.261ZM546.762 543.472L543.008 544.725L543.008 544.725L546.762 543.472ZM542.753 531.875L546.466 530.505L544.911 526.293L540.928 528.364L542.753 531.875ZM513.031 542.178L512.214 538.305L509.416 538.895L509.098 541.737L513.031 542.178ZM483.984 639.419L480.454 637.629L478.429 641.621L482.64 643.141L483.984 639.419ZM509.152 643.368L510.803 646.965L509.017 639.413L509.152 643.368ZM475.574 667.373L472.706 664.647L471.355 666.068L471.668 668.005L475.574 667.373ZM499.936 540.35C491.05 541.46 480.938 541.961 469.523 541.5L469.203 549.408C481.04 549.887 491.587 549.369 500.917 548.204L499.936 540.35ZM477.674 636.636C491.839 607.242 500.679 576.167 504.357 544.737L496.496 543.817C492.917 574.39 484.319 604.613 470.543 633.2L477.674 636.636ZM476.036 631.461C473.2 629.88 470.448 628.06 467.805 625.995L462.933 632.233C465.898 634.549 468.99 636.595 472.181 638.374L476.036 631.461ZM467.805 625.995C463.942 622.978 460.527 619.606 457.567 615.963L451.424 620.954C454.757 625.056 458.598 628.847 462.933 632.233L467.805 625.995ZM450.978 620.271C454.727 627.548 457.593 635.2 459.556 643.057L467.235 641.139C465.126 632.697 462.045 624.471 458.014 616.646L450.978 620.271ZM460.309 639.621C451.414 650.704 440.732 659.521 429.002 665.99L432.824 672.921C445.442 665.962 456.928 656.479 466.481 644.576L460.309 639.621ZM368.485 586.261C368.485 629.928 393.667 660.292 429.576 673.18L432.25 665.731C399.226 653.878 376.4 626.321 376.4 586.261L368.485 586.261ZM390.107 520.674C376.548 538.794 368.485 561.561 368.485 586.261L376.4 586.261C376.4 563.303 383.89 542.194 396.444 525.415L390.107 520.674ZM469.523 541.5C429.202 539.87 406.234 527.585 395.605 519.845L390.946 526.244C402.822 534.891 427.295 547.714 469.203 549.408L469.523 541.5ZM476.858 680.092C503.153 679.508 525.827 674.498 545.173 660.286C564.486 646.099 579.98 623.113 592.72 587.597L585.27 584.925C572.824 619.62 558.062 640.997 540.487 653.907C522.946 666.793 502.1 671.615 476.682 672.179L476.858 680.092ZM588.995 582.303C576.201 582.303 568.693 577.773 563.344 570.89C557.718 563.651 554.339 553.67 550.516 542.219L543.008 544.725C546.709 555.813 550.472 567.227 557.094 575.747C563.993 584.624 573.84 590.218 588.995 590.218V582.303ZM550.516 542.219C549.241 538.399 547.921 534.446 546.466 530.505L539.041 533.246C540.446 537.051 541.727 540.887 543.008 544.725L550.516 542.219ZM540.928 528.364C534.278 531.822 524.82 535.647 512.214 538.305L513.847 546.05C527.181 543.238 537.316 539.163 544.579 535.386L540.928 528.364ZM509.098 541.737C505.414 574.615 495.932 607.112 480.454 637.629L487.513 641.209C503.428 609.831 513.177 576.418 516.964 542.618L509.098 541.737ZM509.017 639.413C501.042 639.687 492.995 638.465 485.328 635.697L482.64 643.141C491.273 646.258 500.325 647.631 509.288 647.324L509.017 639.413ZM478.443 670.099C487.888 660.162 498.907 652.423 510.803 646.965L507.502 639.771C494.71 645.64 482.859 653.964 472.706 664.647L478.443 670.099ZM480.703 675.698C480.37 672.703 479.962 669.717 479.481 666.741L471.668 668.005C472.128 670.851 472.518 673.708 472.836 676.574L480.703 675.698ZM447.266 566.916C438.971 566.916 432.248 573.64 432.248 581.934H440.163C440.163 578.012 443.343 574.831 447.266 574.831V566.916ZM462.284 581.934C462.284 573.64 455.56 566.916 447.266 566.916V574.831C451.189 574.831 454.369 578.012 454.369 581.934H462.284ZM462.284 593.796V581.934H454.369V593.796H462.284ZM447.266 608.814C455.56 608.814 462.284 602.091 462.284 593.796H454.369C454.369 597.719 451.189 600.899 447.266 600.899V608.814ZM432.248 593.796C432.248 602.091 438.971 608.814 447.266 608.814V600.899C443.343 600.899 440.163 597.719 440.163 593.796H432.248ZM432.248 581.934V593.796H440.163V581.934H432.248ZM396.848 580.973C396.848 577.581 399.597 574.831 402.989 574.831V566.916C395.226 566.916 388.933 573.21 388.933 580.973H396.848ZM396.848 594.758V580.973H388.933V594.758H396.848ZM402.989 600.899C399.597 600.899 396.848 598.15 396.848 594.758H388.933C388.933 602.521 395.226 608.814 402.989 608.814V600.899ZM409.13 594.758C409.13 598.15 406.381 600.899 402.989 600.899V608.814C410.752 608.814 417.045 602.521 417.045 594.758H409.13ZM409.13 580.973V594.758H417.045V580.973H409.13ZM402.989 574.831C406.381 574.831 409.13 577.581 409.13 580.973H417.045C417.045 573.21 410.752 566.916 402.989 566.916V574.831Z" fill="white" mask="url(#path-1-inside-1_459_1821)"/>
<path fill-rule="evenodd" clip-rule="evenodd" d="M448.492 750.184C450.888 744.888 452.936 739.356 454.601 733.61C458.706 719.445 460.145 705.14 459.214 691.23C458.591 699.6 457.095 708.032 454.666 716.415C451.271 728.129 446.285 738.949 440.011 748.709C442.824 749.313 445.654 749.805 448.492 750.184Z" fill="white"/>
<path d="M512.334 581.78C506.996 581.78 501.876 583.901 498.102 587.675C494.327 591.45 492.207 596.569 492.207 601.907C492.207 607.245 494.327 612.365 498.102 616.139C501.876 619.914 506.996 622.034 512.334 622.034L512.334 601.907V581.78Z" fill="white"/>
<mask id="path-5-outside-2_459_1821" maskUnits="userSpaceOnUse" x="405.121" y="464.693" width="172.82" height="182.305" fill="black">
<rect fill="white" x="405.121" y="464.693" width="172.82" height="182.305"/>
<path fill-rule="evenodd" clip-rule="evenodd" d="M513.251 480.179C518.874 533.927 509.4 589.306 483.983 639.42C480.612 638.202 477.309 636.703 474.108 634.918C498.383 584.546 506.803 529.165 500.212 475.632C504.437 477.616 508.808 479.128 513.251 480.179Z"/>
</mask>
<path d="M483.983 639.42L486.659 640.777L485.459 643.142L482.964 642.241L483.983 639.42ZM513.251 480.179L513.942 477.26L516.013 477.75L516.235 479.867L513.251 480.179ZM474.108 634.918L472.647 637.538L470.179 636.162L471.406 633.616L474.108 634.918ZM500.212 475.632L497.234 475.999L496.571 470.609L501.486 472.917L500.212 475.632ZM481.308 638.063C506.456 588.479 515.832 533.682 510.267 480.491L516.235 479.867C521.916 534.173 512.345 590.133 486.659 640.777L481.308 638.063ZM475.57 632.298C478.627 634.003 481.782 635.435 485.002 636.598L482.964 642.241C479.442 640.969 475.991 639.403 472.647 637.538L475.57 632.298ZM503.189 475.266C509.849 529.354 501.342 585.316 476.811 636.22L471.406 633.616C495.424 583.776 503.757 528.977 497.234 475.999L503.189 475.266ZM512.561 483.099C507.918 482.001 503.352 480.42 498.937 478.348L501.486 472.917C505.522 474.811 509.697 476.256 513.942 477.26L512.561 483.099Z" fill="white" mask="url(#path-5-outside-2_459_1821)"/>
<path fill-rule="evenodd" clip-rule="evenodd" d="M553.946 476.529L549.822 474.834L548.583 479.117L552.425 480.229C548.583 479.117 548.583 479.118 548.582 479.119L548.582 479.122L548.58 479.129L548.574 479.149L548.555 479.215C548.54 479.27 548.518 479.347 548.492 479.446C548.438 479.642 548.363 479.924 548.272 480.284C548.09 481.002 547.843 482.031 547.574 483.308C547.038 485.856 546.408 489.419 546.038 493.487C545.311 501.464 545.508 512.063 550.019 520.661C550.328 521.249 550.405 521.811 550.36 522.184C550.322 522.5 550.22 522.61 550.115 522.687C544.879 526.517 533.116 533.655 513.469 537.991C513.333 539.387 513.187 540.783 513.031 542.178C534.015 537.753 546.691 530.147 552.476 525.915C554.697 524.29 554.839 521.239 553.561 518.802C547.622 507.482 549.946 491.469 551.484 484.152C551.999 481.704 552.425 480.229 552.425 480.229C553.053 480.487 553.684 480.667 554.316 480.776C566.189 482.815 578.747 459.566 583.938 448.66C585.312 445.773 583.791 442.483 580.681 441.743C550.223 434.498 407.709 406.631 385.626 513.404C385.304 514.959 385.723 516.633 386.866 517.735C393.182 523.823 417.358 543.352 469.363 545.454C480.989 545.924 491.319 545.414 500.426 544.277C500.586 542.915 500.736 541.551 500.875 540.187C491.756 541.381 481.334 541.935 469.524 541.457C418.572 539.398 395.308 520.317 389.642 514.855C389.63 514.843 389.585 514.794 389.552 514.674C389.518 514.549 389.508 514.385 389.543 514.214C394.865 488.485 407.361 471.077 423.485 459.381C439.705 447.616 459.827 441.469 480.527 438.784C521.986 433.405 564.654 442.042 579.755 445.635C580.105 445.718 580.28 445.904 580.368 446.092C580.46 446.288 580.498 446.579 580.326 446.941C577.626 452.612 573.006 461.446 567.653 468.174C564.963 471.555 562.285 474.149 559.79 475.612C557.37 477.032 555.53 477.18 553.946 476.529Z" fill="white"/>
<mask id="path-8-inside-3_459_1821" fill="white">
<path fill-rule="evenodd" clip-rule="evenodd" d="M475.575 667.373C485.373 657.063 496.809 649.031 509.153 643.368C493.883 643.892 478.351 639.255 465.369 629.114C461.27 625.912 457.642 622.331 454.496 618.458C458.386 626.01 461.36 633.948 463.395 642.098C438.04 673.688 398.639 687.582 361.146 681.819C368.08 699.406 379.656 715.43 395.631 727.91C417.389 744.906 443.551 752.393 469.112 750.986C478.002 723.782 480.054 695.073 475.575 667.373Z"/>
</mask>
<path d="M509.153 643.368L508.981 638.371L511.238 647.913L509.153 643.368ZM475.575 667.373L470.639 668.171L470.243 665.724L471.95 663.928L475.575 667.373ZM454.496 618.458L450.051 620.748L458.377 615.306L454.496 618.458ZM463.395 642.098L468.246 640.887L468.847 643.293L467.295 645.228L463.395 642.098ZM361.146 681.819L356.495 683.653L353.302 675.555L361.906 676.877L361.146 681.819ZM469.112 750.986L473.864 752.539L472.802 755.791L469.386 755.979L469.112 750.986ZM511.238 647.913C499.46 653.316 488.55 660.978 479.199 670.817L471.95 663.928C482.197 653.147 494.157 644.747 507.068 638.824L511.238 647.913ZM468.447 625.174C480.47 634.566 494.842 638.856 508.981 638.371L509.324 648.365C492.924 648.927 476.233 643.945 462.291 633.054L468.447 625.174ZM458.377 615.306C461.287 618.888 464.647 622.205 468.447 625.174L462.291 633.054C457.894 629.619 453.997 625.773 450.616 621.611L458.377 615.306ZM458.544 643.31C456.601 635.53 453.763 627.953 450.051 620.748L458.941 616.169C463.009 624.066 466.118 632.367 468.246 640.887L458.544 643.31ZM361.906 676.877C397.704 682.38 435.302 669.112 459.496 638.969L467.295 645.228C440.778 678.265 399.575 692.785 360.387 686.761L361.906 676.877ZM392.553 731.85C375.856 718.806 363.746 702.047 356.495 683.653L365.798 679.985C372.413 696.765 383.456 712.054 398.709 723.969L392.553 731.85ZM469.386 755.979C442.664 757.45 415.301 749.619 392.553 731.85L398.709 723.969C419.478 740.193 444.438 747.337 468.837 745.994L469.386 755.979ZM480.511 666.575C485.114 695.048 483.007 724.564 473.864 752.539L464.359 749.433C472.997 723.001 474.993 695.099 470.639 668.171L480.511 666.575Z" fill="white" mask="url(#path-8-inside-3_459_1821)"/>
<path d="M801.294 549.001C800.62 542.208 797.729 536.93 792.62 533.169C787.511 529.407 780.577 527.527 771.819 527.527C765.868 527.527 760.844 528.369 756.745 530.053C752.647 531.681 749.503 533.955 747.314 536.874C745.18 539.794 744.114 543.106 744.114 546.811C744.001 549.899 744.647 552.594 746.051 554.896C747.51 557.197 749.503 559.19 752.03 560.875C754.556 562.503 757.475 563.934 760.788 565.17C764.1 566.348 767.637 567.359 771.398 568.201L786.893 571.906C794.416 573.591 801.322 575.836 807.609 578.643C813.897 581.45 819.343 584.903 823.947 589.001C828.55 593.1 832.115 597.928 834.641 603.486C837.224 609.044 838.543 615.416 838.599 622.602C838.543 633.157 835.849 642.308 830.515 650.055C825.238 657.746 817.603 663.726 807.609 667.992C797.672 672.203 785.686 674.308 771.651 674.308C757.728 674.308 745.601 672.175 735.271 667.908C724.998 663.641 716.969 657.325 711.187 648.96C705.46 640.539 702.457 630.125 702.176 617.718H737.461C737.854 623.5 739.51 628.328 742.429 632.202C745.405 636.02 749.363 638.911 754.303 640.876C759.3 642.785 764.942 643.739 771.23 643.739C777.405 643.739 782.767 642.841 787.314 641.044C791.918 639.248 795.483 636.75 798.009 633.55C800.536 630.35 801.799 626.672 801.799 622.518C801.799 618.644 800.648 615.388 798.346 612.749C796.101 610.111 792.788 607.865 788.409 606.012C784.086 604.16 778.781 602.475 772.493 600.96L753.714 596.244C739.173 592.707 727.692 587.177 719.271 579.654C710.85 572.131 706.667 561.998 706.724 549.253C706.667 538.811 709.446 529.688 715.061 521.885C720.731 514.081 728.506 507.99 738.387 503.611C748.268 499.232 759.496 497.042 772.072 497.042C784.872 497.042 796.044 499.232 805.588 503.611C815.189 507.99 822.655 514.081 827.989 521.885C833.322 529.688 836.073 538.727 836.242 549.001H801.294ZM887.969 671.866L852.768 542.516H889.063L909.106 629.423H910.285L931.169 542.516H966.791L988.012 628.918H989.107L1008.81 542.516H1045.02L1009.91 671.866H971.928L949.696 590.517H948.096L925.864 671.866H887.969ZM1119.87 674.392C1106.56 674.392 1095.11 671.698 1085.51 666.308C1075.96 660.862 1068.61 653.171 1063.45 643.234C1058.28 633.241 1055.7 621.423 1055.7 607.781C1055.7 594.475 1058.28 582.798 1063.45 572.749C1068.61 562.699 1075.88 554.868 1085.26 549.253C1094.69 543.639 1105.75 540.832 1118.44 540.832C1126.97 540.832 1134.91 542.208 1142.27 544.959C1149.68 547.653 1156.13 551.724 1161.64 557.169C1167.19 562.615 1171.52 569.464 1174.61 577.717C1177.69 585.914 1179.24 595.514 1179.24 606.518V616.37H1070.01V594.138H1145.47C1145.47 588.973 1144.34 584.398 1142.1 580.412C1139.85 576.426 1136.74 573.31 1132.75 571.064C1128.82 568.763 1124.25 567.612 1119.03 567.612C1113.58 567.612 1108.75 568.875 1104.54 571.401C1100.39 573.871 1097.13 577.212 1094.77 581.422C1092.41 585.577 1091.21 590.209 1091.15 595.317V616.455C1091.15 622.855 1092.33 628.385 1094.69 633.044C1097.1 637.704 1100.5 641.297 1104.88 643.823C1109.26 646.35 1114.45 647.613 1120.46 647.613C1124.44 647.613 1128.09 647.052 1131.4 645.929C1134.72 644.806 1137.55 643.122 1139.91 640.876C1142.27 638.63 1144.06 635.879 1145.3 632.623L1178.48 634.813C1176.79 642.785 1173.34 649.746 1168.12 655.697C1162.96 661.592 1156.27 666.196 1148.08 669.508C1139.94 672.764 1130.53 674.392 1119.87 674.392ZM1261.6 674.392C1248.29 674.392 1236.84 671.698 1227.24 666.308C1217.69 660.862 1210.34 653.171 1205.17 643.234C1200.01 633.241 1197.43 621.423 1197.43 607.781C1197.43 594.475 1200.01 582.798 1205.17 572.749C1210.34 562.699 1217.61 554.868 1226.98 549.253C1236.42 543.639 1247.48 540.832 1260.16 540.832C1268.7 540.832 1276.64 542.208 1284 544.959C1291.41 547.653 1297.86 551.724 1303.37 557.169C1308.92 562.615 1313.25 569.464 1316.33 577.717C1319.42 585.914 1320.97 595.514 1320.97 606.518V616.37H1211.74V594.138H1287.2C1287.2 588.973 1286.07 584.398 1283.83 580.412C1281.58 576.426 1278.47 573.31 1274.48 571.064C1270.55 568.763 1265.98 567.612 1260.75 567.612C1255.31 567.612 1250.48 568.875 1246.27 571.401C1242.11 573.871 1238.86 577.212 1236.5 581.422C1234.14 585.577 1232.94 590.209 1232.88 595.317V616.455C1232.88 622.855 1234.06 628.385 1236.42 633.044C1238.83 637.704 1242.23 641.297 1246.61 643.823C1250.99 646.35 1256.18 647.613 1262.19 647.613C1266.17 647.613 1269.82 647.052 1273.13 645.929C1276.45 644.806 1279.28 643.122 1281.64 640.876C1284 638.63 1285.79 635.879 1287.03 632.623L1320.21 634.813C1318.52 642.785 1315.07 649.746 1309.85 655.697C1304.68 661.592 1298 666.196 1289.81 669.508C1281.67 672.764 1272.26 674.392 1261.6 674.392ZM1344.38 720.372V542.516H1379.75V564.243H1381.35C1382.92 560.762 1385.19 557.226 1388.17 553.632C1391.2 549.983 1395.13 546.952 1399.96 544.538C1404.84 542.067 1410.9 540.832 1418.15 540.832C1427.58 540.832 1436.28 543.302 1444.25 548.243C1452.22 553.127 1458.6 560.51 1463.37 570.391C1468.14 580.215 1470.53 592.538 1470.53 607.36C1470.53 621.788 1468.2 633.971 1463.54 643.908C1458.93 653.789 1452.64 661.283 1444.67 666.392C1436.76 671.445 1427.89 673.971 1418.06 673.971C1411.1 673.971 1405.18 672.82 1400.29 670.519C1395.46 668.217 1391.51 665.326 1388.42 661.845C1385.33 658.308 1382.97 654.743 1381.35 651.15H1380.25V720.372H1344.38ZM1379.49 607.191C1379.49 614.883 1380.56 621.591 1382.69 627.318C1384.83 633.044 1387.91 637.508 1391.96 640.708C1396 643.852 1400.91 645.423 1406.69 645.423C1412.53 645.423 1417.47 643.823 1421.51 640.623C1425.56 637.367 1428.62 632.876 1430.69 627.149C1432.83 621.367 1433.89 614.714 1433.89 607.191C1433.89 599.724 1432.86 593.156 1430.78 587.486C1428.7 581.815 1425.64 577.38 1421.6 574.18C1417.56 570.98 1412.59 569.38 1406.69 569.38C1400.85 569.38 1395.91 570.924 1391.87 574.012C1387.89 577.1 1384.83 581.479 1382.69 587.149C1380.56 592.819 1379.49 599.5 1379.49 607.191ZM1579.73 671.866H1540.65L1600.19 499.4H1647.18L1706.64 671.866H1667.56L1624.36 538.811H1623.01L1579.73 671.866ZM1577.29 604.075H1669.58V632.539H1577.29V604.075ZM1763.86 499.4V671.866H1727.39V499.4H1763.86Z" fill="white"/>
</svg>
